<?xml version="1.0" standalone="no"?>
<!DOCTYPE svg PUBLIC "-//W3C//DTD SVG 1.1//EN" "http://www.w3.org/Graphics/SVG/1.1/DTD/svg11.dtd" >
<svg xmlns="http://www.w3.org/2000/svg">
<metadata>
Created by FontPrep 20130207 at Fri Dec 12 17:59:21 2014
 By Baris Oner
Copyright 2012 Dalton Maag Ltd. Modification of this file requires prior written permission from Dalton Maag Ltd.
</metadata>
<defs>
<font id="906e87253eead91f1a389573a38358b8" horiz-adv-x='1024' >
  <font-face 
    font-family="AcerFoco-BoldItalic"
    font-weight="700"
    font-style="italic"
    font-stretch="normal"
    units-per-em="2048"
    panose-1="2 11 7 4 5 2 2 9 2 3"
    ascent="1610"
    descent="-438"
    x-height="973"
    cap-height="1372"
    bbox="-401 -474.64 2294 1901"
    underline-thickness="40"
    underline-position="-231"
    slope="-9.5"
    unicode-range="U+0008-FB04"
  />
<missing-glyph horiz-adv-x="1024" 
d="M819 1434h-614v-1332h614v1332zM102 0v1536h820v-1536h-820z" />
    <glyph glyph-name="f_f" unicode="ff" horiz-adv-x="1343" 
d="M969 1352q120 116 310 116t271 -75q47 -43 47 -93q0 -111 -135 -151q-23 49 -56.5 80t-94.5 35q-104 0 -148.5 -53.5t-62.5 -163.5l-13 -72h332l-35 -211h-331l-129 -784q-35 -227 -139.5 -319.5t-272.5 -92.5q-117 0 -187.5 37t-117.5 84q-102 -121 -281 -121
t-227.5 58.5t-48.5 100.5q0 85 96 142q59 -84 152 -84q66 0 101.5 50t51.5 145l180 1081q50 322 197 364.5t236 42.5q187 0 305 -116zM860 1165q-72 92 -184 92q-70 0 -113 -36.5t-61 -151.5l-15 -94h330l6 37q13 82 37 153zM467 -211q86 0 126.5 40.5t59.5 160.5l129 774
h-329l-129 -784q-5 -35 -21 -95q20 -45 70.5 -70.5t93.5 -25.5z" />
    <glyph glyph-name="f_i" unicode="fi" horiz-adv-x="1042" 
d="M903 133q0 -69 21 -125q-61 -35 -144 -36q-82 -1 -122 32t-40 121q0 18 5 45l96 594h-266l-129 -784q-31 -195 -127 -304q-96 -108 -273 -108t-248 85q-26 32 -26 74q1 85 96 142q61 -86 152 -84q66 0 102 50t51 145l178 1071q67 419 489 417q170 -1 273 -94
q62 -49 64 -125q0 -41 -36 -82t-104 -61q-30 75 -59 101q-62 55 -155 56q-95 1 -139 -53t-62 -163l-13 -72h545l-121 -727q-8 -46 -8 -115z" />
    <glyph glyph-name="f_l" unicode="fl" horiz-adv-x="1071" 
d="M682 1468q127 0 230 -38t204 -111l-180 -1071q-8 -46 -8 -114t20 -126q-61 -35 -143 -36t-122 32t-40 121q0 23 4 45l174 1049q-58 44 -139 44q-80 1 -122 -53t-60 -163l-13 -72h195l-35 -211h-194l-129 -784q-31 -195 -127 -304q-96 -108 -273 -108t-248 85
q-26 32 -26 74q1 85 96 142q61 -86 152 -84q66 0 102 50t51 145l178 1071q37 223 153 320t300 97z" />
    <glyph glyph-name="f_f_i" unicode="ffi" horiz-adv-x="1642" 
d="M860 1165q-72 92 -184 92q-70 0 -113 -36.5t-61 -151.5l-15 -94h330l6 37q13 82 37 153zM467 -211q86 0 126.5 40.5t59.5 160.5l129 774h-329l-129 -784q-5 -35 -21 -95q20 -45 70.5 -70.5t93.5 -25.5zM664 1468q187 0 305 -116q61 59 139 87.5t228 28.5t255 -94
q64 -51 64 -125q0 -41 -36 -82t-103 -61q-29 73 -76 115.5t-140 42.5t-137.5 -53.5t-62.5 -163.5l-13 -72h545l-121 -727q-8 -46 -8 -115t21 -125q-65 -37 -145 -37q-81 0 -120.5 33t-39.5 121q0 25 4 45l96 594h-266l-129 -784q-35 -227 -139.5 -319.5t-272.5 -92.5
q-117 0 -187.5 37t-117.5 84q-102 -121 -281 -121t-227.5 58.5t-48.5 100.5q0 85 96 142q59 -84 152 -84q66 0 101.5 50t51.5 145l180 1081q50 322 197 364.5t236 42.5z" />
    <glyph glyph-name="f_f_l" unicode="ffl" horiz-adv-x="1671" 
d="M860 1165q-72 92 -184 92q-70 0 -113 -36.5t-61 -151.5l-15 -94h330l6 37q13 82 37 153zM467 -211q86 0 126.5 40.5t59.5 160.5l129 774h-329l-129 -784q-5 -35 -21 -95q20 -45 70.5 -70.5t93.5 -25.5zM664 1468q187 0 305 -116q61 59 134 87.5t195 28.5t220 -38.5
t198 -110.5l-180 -1071q-8 -46 -8 -114t20 -126q-65 -37 -145 -37t-120 33t-40 121q0 25 4 45l174 1049q-57 42 -138 44q-81 1 -123 -52.5t-60 -163.5l-13 -72h195l-35 -211h-194l-129 -784q-35 -227 -139.5 -319.5t-272.5 -92.5q-117 0 -187.5 37t-117.5 84
q-102 -121 -281 -121t-227.5 58.5t-48.5 100.5q0 85 96 142q59 -84 152 -84q66 0 101.5 50t51.5 145l180 1081q50 322 197 364.5t236 42.5z" />
    <glyph glyph-name=".notdef" horiz-adv-x="1024" 
d="M819 1434h-614v-1332h614v1332zM102 0v1536h820v-1536h-820z" />
    <glyph glyph-name=".null" horiz-adv-x="0" 
 />
    <glyph glyph-name=".null" horiz-adv-x="0" 
 />
    <glyph glyph-name=".null" horiz-adv-x="0" 
 />
    <glyph glyph-name="nonmarkingreturn" unicode="&#x9;" horiz-adv-x="428" 
 />
    <glyph glyph-name="nonmarkingreturn" unicode="&#xd;" horiz-adv-x="428" 
 />
    <glyph glyph-name="space" unicode=" " horiz-adv-x="428" 
 />
    <glyph glyph-name="exclam" unicode="!" horiz-adv-x="536" 
d="M192.5 421q-34.5 40 -34.5 82t4 66l133 803q50 8 115 8t100 -40t35 -82t-4 -66l-133 -803q-50 -8 -116 -8q-65 0 -99.5 40zM383 158q0 -96 -50 -142.5t-118 -46.5t-104.5 42t-36.5 91q0 96 50 142.5t118 46.5t104.5 -42t36.5 -91z" />
    <glyph glyph-name="quotedbl" unicode="&#x22;" horiz-adv-x="718" 
d="M647 1397q117 0 117 -99q0 -10 -2 -20t-4 -21l-82 -387h-187l86 519q28 8 72 8zM315 1397q119 0 117 -99q0 -10 -2 -20t-4 -21l-82 -387h-186l86 519q28 8 71 8z" />
    <glyph glyph-name="numbersign" unicode="#" horiz-adv-x="1253" 
d="M733 528l70 252h-199l-69 -252h198zM1133 365h-248l-86 -312h-197l86 312h-199l-86 -312h-196l86 312h-238l41 163h242l70 252h-238l41 164h242l82 297h196l-82 -297h199l82 297h196l-82 -297h244l-41 -164h-248l-69 -252h244z" />
    <glyph glyph-name="dollar" unicode="$" horiz-adv-x="1124" 
d="M182 334q146 -146 301 -146q132 0 184 54t52 125t-45 114.5t-177 123.5q-132 79 -208 164t-76 227t88 236.5t244 123.5l35 198h135l-33 -186q39 0 76 -6l33 192h135l-39 -225q77 -30 123 -69q47 -38 47 -92t-35 -100t-86 -69q-118 142 -279 142q-92 0 -135 -36t-43 -85
t17.5 -80t46 -56.5t67 -49t100.5 -60.5q146 -88 216.5 -177t70.5 -210q0 -164 -87 -266.5t-242 -136.5l-33 -197h-135l28 178h-47q-12 0 -26 2l-31 -180h-135l33 197q-105 22 -156 60t-68.5 63.5t-17.5 69.5t29.5 86t72.5 71z" />
    <glyph glyph-name="percent" unicode="%" horiz-adv-x="1640" 
d="M1159 255q0 -130 80 -130q71 0 103 101t32 194q0 123 -82 123q-55 0 -94 -79t-39 -209zM1229 -33q-142 0 -209.5 86t-67.5 189q0 196 98.5 326t262.5 130q130 0 198 -86t68 -190q0 -103 -22.5 -180.5t-67.5 -139t-112.5 -98.5t-147.5 -37zM352 957q0 -130 80 -130
q71 0 103 101t32 194q0 123 -82 123q-55 0 -94 -79t-39 -209zM422 670q-142 0 -209.5 86t-67.5 189q0 193 98.5 324.5t262.5 131.5q130 0 198 -86t68 -190q0 -103 -22.5 -181t-67.5 -139.5t-112.5 -98t-147.5 -36.5zM1344 1399q66 0 114 -23l-952 -1376h-232l891 1284
q35 51 74 83t105 32z" />
    <glyph glyph-name="ampersand" unicode="&#x26;" horiz-adv-x="1292" 
d="M330 389q0 -194 215 -194q104 0 190 63q-172 215 -264 379q-51 -35 -96 -96.5t-45 -151.5zM74 350q0 224 127 332.5t182 138.5q-43 123 -43 204q0 167 91.5 268.5t281.5 101.5q132 0 208 -67.5t76 -131.5q0 -63 -31.5 -96t-101.5 -53q-54 135 -153 135q-70 0 -104 -44
t-34 -102q0 -205 295 -577q27 88 27 195t-35 200h453l-31 -186h-188q6 -34 6 -90q0 -158 -80 -302q52 -60 215 -235q-61 -64 -153 -64t-146 54l-66 69q-155 -127 -353 -127t-320.5 96t-122.5 281z" />
    <glyph glyph-name="quotesingle" unicode="'" horiz-adv-x="387" 
d="M432 1298q0 -10 -2 -20t-4 -21l-82 -387h-186l86 519q28 8 83 8q105 0 105 -99z" />
    <glyph glyph-name="parenleft" unicode="(" horiz-adv-x="733" 
d="M213 360q0 124 20.5 257t78.5 324.5t190.5 356t290.5 164.5q65 0 90 -18q-400 -360 -400 -1106q0 -331 121 -567q-38 -23 -97 -23q-58 0 -103.5 33t-90 104.5t-72.5 211t-28 263.5z" />
    <glyph glyph-name="parenright" unicode=")" horiz-adv-x="733" 
d="M286 1462q74 0 131.5 -69.5t103.5 -201.5t46 -298t-20.5 -299t-77 -323t-190.5 -356.5t-291 -166.5q-71 0 -90 19q399 359 399 1105q0 335 -121 568q36 22 110 22z" />
    <glyph glyph-name="asterisk" unicode="*" horiz-adv-x="854" 
d="M529 1174q-28 0 -40 17t-18 50l-18 86q-19 73 6.5 95t69.5 22t62.5 -21t18.5 -49t-10 -53l-18 -82q-4 -25 -14.5 -45t-38.5 -20zM702 1087q-18 -8 -45 -8q-27 -1 -37 17t-10 36t39 54l64 59q46 41 78 41q33 0 55 -39t22 -58q0 -48 -37.5 -60.5t-48.5 -16.5zM612 966
q0 58 52 58q12 0 43 -10l84 -27q18 -6 29 -11t22 -9q53 -29 6 -112q-22 -38 -61 -38q-40 0 -76 45l-64 56q-35 30 -35 48zM608 739q0 -29 -18.5 -49t-62.5 -20t-64.5 17t-20.5 43t9 56l18 86q6 33 18.5 50.5t40.5 17.5t37.5 -20.5t14.5 -45.5l18 -81q10 -25 10 -54zM336 858
q-38 -47 -76 -47q-39 0 -61 38q-48 82 6 114q10 4 20.5 9t30.5 11l84 27q30 10 52 10t32 -20t10 -37q0 -18 -37 -50zM438 1134q0 -54 -46 -53q-28 0 -46 9l-78 24q-12 4 -49 16t-37 60q0 23 15 49q27 49 59 49t80 -41l65 -59q37 -36 37 -54z" />
    <glyph glyph-name="plus" unicode="+" horiz-adv-x="1124" 
d="M1028 575h-319l-58 -350h-239l57 350h-319l38 224h320l57 352h240l-57 -352h319z" />
    <glyph glyph-name="comma" unicode="," horiz-adv-x="471" 
d="M43 -266q-82 0 -94 67q53 25 102 66t70 119q-31 23 -52.5 50t-21.5 95t48 111t113.5 43t103.5 -43.5t38 -113.5t-26.5 -139t-69.5 -125.5t-98.5 -93t-112.5 -36.5z" />
    <glyph glyph-name="hyphen" unicode="-" horiz-adv-x="862" 
d="M606 664q84 0 118 -39t33 -97t-20 -104h-450q-84 0 -118 40t-33 97t20 103h450z" />
    <glyph glyph-name="period" unicode="." horiz-adv-x="475" 
d="M356 158q0 -96 -50 -142.5t-118 -46.5t-104.5 42t-36.5 91q0 96 50 142.5t118 46.5t104.5 -42t36.5 -91z" />
    <glyph glyph-name="slash" unicode="/" horiz-adv-x="759" 
d="M600 1237q76 145 190 145q84 0 134 -24l-705 -1358h-260z" />
    <glyph glyph-name="zero" unicode="0" horiz-adv-x="1124" 
d="M532 -31q-140 0 -217 46t-143 149t-65 289q2 389 156 655t446 266q215 0 310 -148.5t94 -336.5q-2 -396 -142 -637q-72 -127 -185.5 -205t-253.5 -78zM541 201q61 0 116.5 52t119 194.5t63.5 435.5q-4 262 -151 262q-79 0 -133 -53.5t-115.5 -195t-61.5 -435.5
q2 -123 37 -191.5t125 -68.5z" />
    <glyph glyph-name="one" unicode="1" horiz-adv-x="1124" 
d="M276 1028q0 76 86 121l310 162q91 51 158 51t110 -35l-221 -1327h-270l169 1022l-282 -137q-60 91 -60 143z" />
    <glyph glyph-name="two" unicode="2" horiz-adv-x="1124" 
d="M225 1128q0 60 57 114q139 132 382 132q174 0 275 -99t101 -253t-56 -268t-156 -218t-180.5 -172.5t-176.5 -144.5h330q94 0 133 -33.5t39 -96.5t-15 -89h-890l30 193q104 86 213 175t192 173q140 141 199.5 235t59.5 185q0 182 -164 182q-88 0 -157.5 -47t-121.5 -101
q-94 46 -94 133z" />
    <glyph glyph-name="three" unicode="3" horiz-adv-x="1124" 
d="M1042 1057q0 -251 -247 -350q100 -51 138 -127t38 -173q0 -202 -133.5 -320t-344.5 -118t-311 66t-104 145q-4 78 96 158q69 -73 133 -108t166 -35t164.5 55t62.5 148q0 200 -188 200h-88l35 207h88q148 0 188.5 68.5t40.5 130.5t-44 103.5t-124 41.5q-142 0 -276 -139
q-107 52 -107 138q0 46 55 97t149.5 90t208.5 39q201 0 302.5 -95.5t101.5 -221.5z" />
    <glyph glyph-name="four" unicode="4" horiz-adv-x="1124" 
d="M649 535l72 432l-367 -432h295zM969 532q57 0 79.5 -25.5t22.5 -80.5t-20 -100h-172l-54 -326h-264l53 326h-538l30 182l615 725q45 57 95 93t115 36t116 -35l-134 -795h56z" />
    <glyph glyph-name="five" unicode="5" horiz-adv-x="1124" 
d="M647 856q80 0 219.5 -65.5t139.5 -337.5q0 -204 -129.5 -344t-366.5 -140q-196 0 -313 72q-96 55 -99 136t97 161q68 -72 137 -107.5t176 -35.5t166 69.5t59 179.5q0 210 -211 211q-115 0 -211 -47l-90 45l144 705h704q-4 -135 -49 -182.5t-160 -47.5h-307l-53 -286
q67 14 147 14z" />
    <glyph glyph-name="six" unicode="6" horiz-adv-x="1124" 
d="M401 446q0 -268 128 -268t190.5 72t62.5 225q0 88 -41 149.5t-115 61.5q-133 1 -206 -86q-19 -69 -19 -154zM451 807q104 90 262 90t242.5 -117.5t84.5 -294.5q0 -228 -125 -374t-364 -146q-186 0 -296 121t-110 356q0 170 47.5 337t143.5 299t241.5 214t344.5 82
q76 0 104.5 -30.5t28.5 -76.5t-31 -102q-55 6 -130 6q-158 0 -272 -99t-171 -265z" />
    <glyph glyph-name="seven" unicode="7" horiz-adv-x="1124" 
d="M401 1358h627q55 0 73.5 -25.5t10.5 -72.5l-12 -82l-639 -1178h-303l637 1124h-602q2 131 47 182.5t161 51.5z" />
    <glyph glyph-name="eight" unicode="8" horiz-adv-x="1124" 
d="M780 431q0 73 -50 125t-141 52t-159 -63.5t-68 -184.5q0 -82 49.5 -134t143.5 -52q93 0 159 63q66 64 66 194zM639 815q74 0 130 51q56 52 56 138t-41.5 129t-115.5 43t-129.5 -52.5t-55.5 -137.5t41 -128t115 -43zM375 719q-144 105 -144 265q0 83 38 159t133 153.5
t280 77.5t293 -93t108 -245q0 -204 -213 -329q172 -101 172 -283q0 -229 -140 -342t-348 -113t-326.5 105t-118.5 276q0 244 266 369z" />
    <glyph glyph-name="nine" unicode="9" horiz-adv-x="1124" 
d="M799 893q0 268 -128 268t-190.5 -71.5t-62.5 -225.5q0 -88 41 -149.5t115 -61.5q132 0 206 86q19 69 19 154zM160 854q0 225 128.5 372.5t360.5 147.5q186 0 296 -120.5t110 -356.5q0 -389 -137.5 -579.5t-284 -271.5t-354.5 -81q-76 0 -105 31t-29 78t31 100
q55 -6 132 -6t222 55.5t218 308.5q-104 -90 -259 -90t-242 117t-87 295z" />
    <glyph glyph-name="colon" unicode=":" horiz-adv-x="475" 
d="M356 158q0 -96 -50 -142t-118 -47q-68 0 -104 42t-37 91q0 96 50 142t118 47q69 0 105 -42t36 -91zM473 893q0 -96 -50 -142t-118 -46q-69 -1 -105 41t-36 92q0 96 50 142t118 46t104 -42t37 -91z" />
    <glyph glyph-name="semicolon" unicode=";" horiz-adv-x="475" 
d="M43 -266q-82 0 -94 67q53 25 102 66t70 119q-31 22 -53 50t-21 96q0 68 48 110q48 43 114 43q65 0 103 -44q38 -43 38 -113t-26 -139q-55 -142 -168 -218q-56 -37 -113 -37zM473 893q0 -96 -50 -142t-118 -46q-69 -1 -105 41t-36 92q0 96 50 142t118 46t104 -42t37 -91z
" />
    <glyph glyph-name="less" unicode="&#x3c;" horiz-adv-x="1124" 
d="M926 190l-744 367l37 221l864 361l-43 -256l-575 -232l500 -227z" />
    <glyph glyph-name="equal" unicode="=" horiz-adv-x="1124" 
d="M1034 776h-815l39 232h815zM963 346h-816l39 232h815z" />
    <glyph glyph-name="greater" unicode="&#x3e;" horiz-adv-x="1124" 
d="M987 557l-864 -360l43 256l575 231l-499 227l39 234l743 -367z" />
    <glyph glyph-name="question" unicode="?" horiz-adv-x="872" 
d="M487 158q0 -96 -50 -142.5t-118 -46.5t-104.5 42t-36.5 91q0 96 50 142.5t118 46.5t104.5 -42t36.5 -91zM160 1169q0 59 51 109q130 117 344 117q160 0 260 -83.5t100 -232.5q0 -213 -215 -389q-110 -94 -152.5 -140t-53.5 -147q-30 -10 -88 -10q-113 0 -113 113
q0 109 128 220q62 53 147 123t85 189q0 125 -143 125t-256 -127q-94 46 -94 133z" />
    <glyph glyph-name="at" unicode="@" horiz-adv-x="1792" 
d="M1004 729q-96 0 -163 -98.5t-73 -284.5q-4 -143 98 -143q112 0 146 186l61 322q-29 18 -69 18zM834 -449q-197 0 -337.5 73t-228.5 191.5t-129 270.5t-34 339t84 366.5t203 308.5t288 199.5t322 70.5q323 0 532 -180.5t205 -507.5t-151.5 -497.5t-354.5 -170.5
q-94 0 -144.5 28t-74.5 91q-35 -55 -94.5 -89t-123.5 -34q-129 0 -199.5 91t-66.5 220q8 248 143.5 419t348.5 171q170 0 305 -88l-102 -542q-10 -61 3 -78t48 -17t78 22.5t97.5 109.5t61.5 332t-138 375t-353 130q-282 0 -475 -207t-205 -536q-14 -456 179.5 -552
t354.5 -96t254 46.5t134 68.5l36 -74q16 -37 17 -61q0 -102 -181.5 -147.5t-301.5 -45.5z" />
    <glyph glyph-name="A" unicode="A" horiz-adv-x="1224" 
d="M784 514l-71 541l-232 -541h303zM618 1348q72 32 137 32t108.5 -30.5t58.5 -106.5l221 -1243h-283l-43 293h-428l-125 -293h-284z" />
    <glyph glyph-name="B" unicode="B" horiz-adv-x="1126" 
d="M604 807q92 0 152.5 55.5t60.5 169.5q0 74 -47 114t-134 40t-114 -4l-63 -375h145zM772 430q0 178 -192 178h-154l-66 -405h101q162 0 236.5 56t74.5 171zM1055 424q0 -424 -609 -424h-383l226 1362q216 22 345 22q240 0 345.5 -93.5t105.5 -237.5q0 -98 -50 -186.5
t-173 -145.5q82 -37 137.5 -109.5t55.5 -187.5z" />
    <glyph glyph-name="C" unicode="C" horiz-adv-x="1204" 
d="M1118 239q0 -63 -31 -103t-91 -77q-151 -94 -355 -94q-252 0 -380 157t-128 415q0 150 43 303t130 277t222.5 203t295.5 79t282.5 -68.5t122.5 -189.5t-148 -154q-37 86 -96 135t-155 49q-185 0 -297.5 -175.5t-112.5 -487.5q0 -136 66.5 -224.5t221 -88.5t312.5 180
q98 -73 98 -136z" />
    <glyph glyph-name="D" unicode="D" horiz-adv-x="1259" 
d="M662 1384q573 0 573 -568q0 -136 -41 -285.5t-193 -340t-555 -190.5h-383l226 1358q189 26 373 26zM492 217q222 0 339 178.5t117 460.5q0 134 -73.5 221.5t-186.5 87.5q-112 0 -158 -6l-155 -942h117z" />
    <glyph glyph-name="E" unicode="E" horiz-adv-x="987" 
d="M739 219q172 0 172 -129q0 -62 -14 -90h-834l228 1372h794q-4 -126 -47 -172.5t-151 -46.5h-357l-55 -338h399l-36 -219h-400l-61 -377h362z" />
    <glyph glyph-name="F" unicode="F" horiz-adv-x="972" 
d="M887 1153h-357l-57 -352h401l-36 -219h-402l-96 -582h-277l228 1372h794q-4 -126 -47 -172.5t-151 -46.5z" />
    <glyph glyph-name="G" unicode="G" horiz-adv-x="1273" 
d="M641 -35q-252 0 -380 157t-128 415q0 150 43 303t130 277t222.5 203t295.5 79t282.5 -68.5t122.5 -188.5t-148 -155q-37 86 -96 135t-155 49q-185 0 -297.5 -175.5t-112.5 -487.5q0 -136 66.5 -224.5t185.5 -88.5t219 75l41 248h-213l35 215h475l-92 -559
q-140 -157 -288.5 -183t-207.5 -26z" />
    <glyph glyph-name="H" unicode="H" horiz-adv-x="1243" 
d="M506 1340q35 -40 35 -82t-4 -66l-62 -377h449l92 557q50 8 115 8t100 -40t35 -82t-4 -66l-197 -1192h-277l99 594h-449l-98 -594h-277l228 1372q50 8 115 8t100 -40z" />
    <glyph glyph-name="I" unicode="I" horiz-adv-x="518" 
d="M506 1340q35 -40 35 -82t-4 -66l-197 -1192h-277l228 1372q50 8 115 8t100 -40z" />
    <glyph glyph-name="J" unicode="J" horiz-adv-x="618" 
d="M485 1380q156 0 156 -141q0 -23 -4 -47l-121 -725q-14 -86 -30.5 -176t-66 -209t-212.5 -119q-121 0 -154 50t-33 83t13 76q93 0 133 38t63 181l162 981q50 8 94 8z" />
    <glyph glyph-name="K" unicode="K" horiz-adv-x="1112" 
d="M405 1380q64 0 97 -40t33 -99q0 -19 -5 -49l-71 -436q14 47 54 93t46 52l328 369q99 110 207 110t153 -61l-542 -623l364 -676q-71 -43 -147 -43q-77 0 -122.5 23t-78.5 78l-217 395q-55 97 -64 168l-106 -641h-271l228 1372q50 8 114 8z" />
    <glyph glyph-name="L" unicode="L" horiz-adv-x="997" 
d="M911 91q0 -63 -14 -91h-834l228 1372q50 8 116 8t100 -40t34 -82t-4 -66l-160 -971h362q94 0 133 -33.5t39 -96.5z" />
    <glyph glyph-name="M" unicode="M" horiz-adv-x="1501" 
d="M477 1380q110 0 133 -120l162 -707l397 704q69 123 174 123q106 0 140 -20l-131 -1360h-258l88 883l-342 -596h-226l-141 575q-179 -794 -194 -862h-256l313 1360q77 20 141 20z" />
    <glyph glyph-name="N" unicode="N" horiz-adv-x="1239" 
d="M424 1380q96 0 147 -127l310 -786l151 905q46 8 86 8q80 0 112 -40t32 -84t-5 -64l-196 -1192h-230l-366 907l-148 -907h-254l226 1366q81 14 135 14z" />
    <glyph glyph-name="O" unicode="O" horiz-adv-x="1341" 
d="M805 1171q-166 0 -275.5 -186t-109.5 -502q0 -129 54 -208.5t175 -79.5q153 0 266 190t113 488t-223 298zM648 -35q-156 0 -335.5 86.5t-179.5 460.5q0 156 42 314.5t129 285.5t219 207t288 80t331 -86.5t175 -449.5t-168 -611q-84 -127 -214.5 -207t-286.5 -80z" />
    <glyph glyph-name="P" unicode="P" horiz-adv-x="1120" 
d="M551 707q220 0 260.5 103t40.5 190t-64.5 132.5t-151.5 45.5t-110 -7l-75 -464h100zM620 1384q275 0 399 -105t124 -260q0 -283 -167 -406.5t-468 -123.5h-92l-82 -489h-271l224 1362q175 22 333 22z" />
    <glyph glyph-name="Q" unicode="Q" horiz-adv-x="1386" 
d="M805 1171q-166 0 -275.5 -186t-109.5 -502q0 -129 53 -208.5t176 -79.5q153 0 266 190t113 488t-223 298zM1366 18q0 -67 -52 -109t-146 -42t-170 37t-160 96q-103 -35 -224 -35q-237 0 -359 153.5t-122 393.5q0 156 42 314.5t129 285.5t219 207t288 80t331 -86.5
t175 -460.5q0 -328 -104.5 -499t-176.5 -234q80 -27 142 -27t94 11q31 11 69 34q25 -52 25 -119z" />
    <glyph glyph-name="R" unicode="R" horiz-adv-x="1114" 
d="M537 737q210 0 248 95.5t38 172.5t-59 123t-130 46t-108 -5l-71 -432h82zM617 1384q263 0 381 -98.5t118 -263.5q0 -358 -315 -457l221 -545q-77 -43 -158 -43q-82 0 -117.5 32t-66.5 110l-158 405h-102l-86 -524h-271l226 1364q183 20 328 20z" />
    <glyph glyph-name="S" unicode="S" horiz-adv-x="1048" 
d="M150 340q144 -143 302 -143q124 0 175 51t51 119t-45 119t-176 123q-131 73 -201 164t-70 233q0 179 132 286t339 107q109 0 194 -30.5t136 -72.5q51 -43 51 -98t-34 -101q-35 -46 -86 -69q-118 135 -279 135q-78 0 -124 -40.5t-46 -106.5t52.5 -114t142.5 -99
q171 -98 240 -189.5t69 -205.5q0 -216 -134 -329.5t-369 -113.5t-355 88q-37 27 -54.5 53.5t-17.5 71.5t31.5 89t75.5 73z" />
    <glyph glyph-name="T" unicode="T" horiz-adv-x="1105" 
d="M362 1372h879q-4 -134 -48 -181.5t-161 -47.5h-211l-188 -1143h-277l189 1143h-391q2 131 47 180t161 49z" />
    <glyph glyph-name="U" unicode="U" horiz-adv-x="1243" 
d="M418 388q0 -195 168 -195q82 0 126 17t89 74.5t73 239.5l142 848q50 8 115 8t100 -40t35 -82t-4 -66l-111 -666q-47 -286 -179 -423.5t-388 -137.5q-445 0 -445 416q0 74 15 162l137 829q50 8 116 8t100 -40t34 -82t-4 -66l-107 -643q-12 -65 -12 -161z" />
    <glyph glyph-name="V" unicode="V" horiz-adv-x="1196" 
d="M321 1380q83 0 118.5 -38.5t45.5 -112.5l113 -893l401 899q33 72 80 108.5t116 36.5t144 -22l-645 -1358h-305l-205 1358q54 22 137 22z" />
    <glyph glyph-name="W" unicode="W" horiz-adv-x="1812" 
d="M324 1378q137 0 147 -129l49 -825l395 940q71 14 137 14q155 0 162 -127l56 -850l340 840q57 133 202 137q70 0 144 -20l-619 -1368h-260l-78 1007l-438 -1007h-260l-117 1362q80 26 140 26z" />
    <glyph glyph-name="X" unicode="X" horiz-adv-x="1101" 
d="M853 -23q-79 0 -115 32t-58 93l-123 357l-307 -459h-303l504 694l-258 639q101 47 166 47q117 0 155 -100l137 -367l246 344q47 63 92 93t119 30t137 -41l-489 -661l260 -668q-84 -33 -163 -33z" />
    <glyph glyph-name="Y" unicode="Y" horiz-adv-x="1105" 
d="M1112 1380q76 0 137 -43l-528 -805l-88 -532h-277l88 530l-270 803q96 47 172 47q106 0 139 -100l144 -473l280 448q78 125 203 125z" />
    <glyph glyph-name="Z" unicode="Z" horiz-adv-x="1052" 
d="M987 95q0 -67 -14 -95h-973l31 184q205 286 438 564t338 397h-612q4 134 48 180.5t160 46.5h674q55 0 73.5 -25.5t10.5 -72.5l-14 -86q-445 -511 -791 -961h459q94 0 133 -32.5t39 -99.5z" />
    <glyph glyph-name="bracketleft" unicode="[" horiz-adv-x="735" 
d="M580 -279h-488l289 1747h487l-34 -202h-228l-221 -1344h227z" />
    <glyph glyph-name="backslash" unicode="\" horiz-adv-x="753" 
d="M254 1386q72 0 103.5 -37.5t48.5 -107.5l266 -1241h-246l-293 1362q49 24 121 24z" />
    <glyph glyph-name="bracketright" unicode="]" horiz-adv-x="735" 
d="M436 -279h-487l35 203h227l221 1344h-227l33 200h487z" />
    <glyph glyph-name="asciicircum" unicode="^" horiz-adv-x="1019" 
d="M985 582h-235l-113 532l-295 -532h-238l449 784h264z" />
    <glyph glyph-name="underscore" unicode="_" horiz-adv-x="978" 
d="M819 -369h-827v164h827v-164z" />
    <glyph glyph-name="grave" unicode="`" horiz-adv-x="745" 
d="M456 1102q-65 0 -104 53l-182 238q29 25 73 45t84 20q71 0 115 -78l133 -241q-54 -37 -119 -37z" />
    <glyph glyph-name="a" unicode="a" horiz-adv-x="1056" 
d="M642 793q-103 0 -187 -125.5t-84 -327.5q0 -162 110 -162q69 0 122 61.5t65 149.5l63 379q-41 25 -89 25zM377 -31q-226 0 -254.5 143.5t-28.5 247.5t40 222t160.5 266.5t367.5 148.5q193 0 366 -104l-106 -645q-24 -125 22 -240q-65 -37 -151 -37q-139 0 -150 135
q-106 -137 -266 -137z" />
    <glyph glyph-name="b" unicode="b" horiz-adv-x="1062" 
d="M721 997q295 0 295 -381q0 -264 -115 -402t-223 -191.5t-220 -53.5q-234 0 -392 97l227 1378q50 8 114 8t97 -40t33 -84t-5 -64l-59 -363q96 96 248 96zM444 168q122 0 204.5 124t82.5 331q0 172 -121 172q-68 0 -121 -54.5t-65 -130.5l-72 -428q28 -14 92 -14z" />
    <glyph glyph-name="c" unicode="c" horiz-adv-x="923" 
d="M838 187q0 -116 -121 -167t-279 -51t-251 114.5t-93 293.5q0 263 148 441.5t393 178.5q190 0 266 -118q85 -140 -108 -217q-29 68 -68 96t-103 28q-121 0 -188 -123t-67 -303q2 -94 47 -137t104 -43q120 0 209 125q111 -45 111 -118z" />
    <glyph glyph-name="d" unicode="d" horiz-adv-x="1073" 
d="M379 340q0 -162 117 -162q111 0 149.5 84t44.5 127l64 379q-42 25 -107 25q-115 0 -191.5 -116t-76.5 -337zM623 997q103 0 163 -32l80 479q50 8 114 8q65 0 97.5 -40t32.5 -82t-4 -66l-168 -1016q-6 -31 -6 -102t29 -138q-65 -37 -152 -37q-137 0 -150 135
q-49 -72 -123.5 -104.5t-146.5 -32.5q-295 0 -295 367q0 273 112.5 414t213 194t203.5 53z" />
    <glyph glyph-name="e" unicode="e" horiz-adv-x="985" 
d="M400 535h40q106 0 186.5 45t80.5 121q-1 90 -91 90t-150 -70t-87 -184q18 -2 21 -2zM770 307q104 -53 104 -125t-77 -129q-122 -84 -317 -84t-290.5 115t-95.5 293q0 260 153 440t410 180q138 0 217.5 -73t79.5 -187q0 -202 -155.5 -284t-368.5 -82h-26q-27 0 -44 2v-13
q0 -86 51 -135t115 -49q143 0 244 131z" />
    <glyph glyph-name="f" unicode="f" horiz-adv-x="743" 
d="M374.5 1371q112.5 97 287.5 97t256 -75q47 -43 47 -93t-34 -90.5t-102 -60.5q-23 49 -57.5 78.5t-104 29.5t-107.5 -37.5t-54 -134.5l-19 -110h299l-34 -211h-299l-129 -784q-31 -195 -127.5 -303.5t-273.5 -108.5t-225 58.5t-48 100.5q0 85 96 142q59 -84 152 -84
q66 0 101.5 50t51.5 145l178 1071q33 223 145.5 320z" />
    <glyph glyph-name="g" unicode="g" horiz-adv-x="1067" 
d="M94 348q0 263 165 456t411 193q199 0 372 -104l-135 -817q-47 -283 -180 -412t-344 -129q-195 0 -283 72q-43 35 -56 59t-16 60t24.5 79t72.5 70q95 -129 258 -129q209 0 248 260l12 84q-100 -108 -254 -108q-295 0 -295 366zM658 793q-111 0 -195 -121t-84 -320
q0 -162 117 -162q110 0 149 84t45 127l62 367q-42 25 -94 25z" />
    <glyph glyph-name="h" unicode="h" horiz-adv-x="1048" 
d="M477 883q115 114 269 114q94 0 172.5 -56.5t78.5 -219.5q0 -64 -14 -143l-96 -578h-277l97 578q8 46 8 88t-21.5 75t-87 33t-115 -55t-63.5 -141l-96 -578h-277l240 1444q50 8 114 8t100 -40t36 -82t-4 -66z" />
    <glyph glyph-name="i" unicode="i" horiz-adv-x="503" 
d="M553 1300q0 -70 -49 -115.5t-116 -45.5t-101.5 41.5t-34.5 111.5t49 115t116 45t101.5 -41t34.5 -111zM240 -29q-80 0 -120 33t-40 121q0 25 4 45l131 799q50 8 115 8t101 -39.5t36 -81.5t-4 -68l-90 -540q-8 -46 -8 -114t20 -126q-65 -37 -145 -37z" />
    <glyph glyph-name="j" unicode="j" horiz-adv-x="505" 
d="M555 1300q0 -70 -49 -115.5t-116 -45.5t-101.5 41.5t-34.5 111.5t49 115t116 45t101.5 -41t34.5 -111zM-221 -340q0 32 8 70h20q114 0 177 67q29 29 43 74t26 117l164 981q50 8 115 8t101 -39.5t36 -81.5t-4 -68l-129 -770q-29 -160 -88 -288.5t-157.5 -165.5t-158.5 -37
t-106.5 30.5t-46.5 102.5z" />
    <glyph glyph-name="k" unicode="k" horiz-adv-x="987" 
d="M666 10q-47 30 -88 113l-109 209q-10 23 -32.5 67.5t-26.5 92.5l-82 -492h-273l240 1444q50 8 113 8t98 -40t35 -82t-4 -66l-117 -703q24 62 119 162l176 195q37 41 72.5 57t86.5 16q83 0 154 -73l-350 -388l160 -305q63 -122 141 -174q-29 -29 -81 -50t-119 -21
q-66 0 -113 30z" />
    <glyph glyph-name="l" unicode="l" horiz-adv-x="507" 
d="M240 -29q-80 0 -120 33t-40 121q0 25 4 45l211 1274q50 8 115 8t100 -40t35 -82t-4 -66l-168 -1016q-8 -46 -8 -114t20 -126q-65 -37 -145 -37z" />
    <glyph glyph-name="m" unicode="m" horiz-adv-x="1562" 
d="M743 997q161 0 209 -143q71 75 138.5 109t168.5 33q178 -2 232 -144q20 -59 20 -127t-14 -147l-96 -578h-277l97 578q6 40 6 88q0 108 -97 108q-64 0 -111 -62.5t-56 -133.5l-97 -578h-276l96 578q8 46 8 79q0 117 -98 117q-51 0 -101.5 -52t-66.5 -144l-96 -578h-277
l160 969q47 8 103 8t91 -24.5t54 -84.5q119 129 280 129z" />
    <glyph glyph-name="n" unicode="n" horiz-adv-x="1048" 
d="M748 997q92 0 170.5 -56.5t78.5 -219.5q0 -64 -14 -143l-96 -578h-277l97 578q8 46 8 88t-21.5 75t-87 33t-115 -55t-63.5 -141l-96 -578h-277l160 969q47 8 103 8t91 -24.5t54 -84.5q119 129 285 129z" />
    <glyph glyph-name="o" unicode="o" horiz-adv-x="1054" 
d="M733 596q0 98 -38 144t-90 46q-105 0 -171.5 -110.5t-66.5 -310.5q0 -94 37.5 -140.5t89.5 -46.5t96 28q43 28 74.5 81t50 132t18.5 177zM489 -31q-215 0 -305 115.5t-90 292.5q0 265 142.5 442.5t390.5 177.5q197 0 289 -115.5t92 -291.5q0 -262 -97.5 -390t-198 -179.5
t-223.5 -51.5z" />
    <glyph glyph-name="p" unicode="p" horiz-adv-x="1069" 
d="M462 174q125 0 200 116.5t75 321.5q0 92 -36.5 135.5t-82.5 43.5q-76 0 -129 -63t-61 -128l-68 -399q38 -27 102 -27zM727 997q295 -1 295 -415q0 -104 -36 -219t-101.5 -202t-157.5 -139.5t-200 -52.5t-195 60l-78 -475h-270l231 1415q50 8 97 8q48 0 87 -18.5t62 -84.5
q112 123 266 123z" />
    <glyph glyph-name="q" unicode="q" horiz-adv-x="1069" 
d="M656 793q-115 0 -196 -125t-81 -328q0 -162 117 -162q111 0 149.5 84t44.5 127l64 379q-42 25 -98 25zM94 336q0 265 115 407t223 198t220 56q220 0 392 -104l-221 -1339h-270l84 518q-95 -103 -248 -103q-295 0 -295 367z" />
    <glyph glyph-name="r" unicode="r" horiz-adv-x="833" 
d="M465 858q123 133 239 133q109 0 144 -42.5t35 -107.5q0 -118 -154 -184q-29 106 -127 107q-59 0 -109.5 -49t-66.5 -150l-94 -565h-277l160 969q47 8 102 8q123 0 148 -119z" />
    <glyph glyph-name="s" unicode="s" horiz-adv-x="829" 
d="M461 278q0 42 -45.5 79.5t-89.5 68.5q-98 68 -142.5 124t-44.5 162t97.5 195.5t298.5 89.5q114 0 205.5 -52.5t91.5 -111.5t-32 -94t-81 -51q-37 57 -92.5 86t-102.5 29q-110 0 -110 -84q0 -43 44 -77t79 -59.5t91 -70.5q116 -94 117 -236q0 -202 -130.5 -254.5
t-236.5 -52.5q-178 0 -284 68q-74 49 -74 101t25 86t66 63q111 -107 225 -107q70 0 97.5 28t27.5 70z" />
    <glyph glyph-name="t" unicode="t" horiz-adv-x="765" 
d="M610 281q99 -43 99 -116q1 -73 -59 -119t-119.5 -61.5t-133.5 -15.5q-154 0 -229.5 80t-75.5 221q0 34 10 107l150 897q50 8 114 8t100 -40t36 -82t-4 -66l-19 -119h262l-34 -211h-263l-65 -402q-8 -40 -8 -71q0 -106 94 -107q75 0 145 97z" />
    <glyph glyph-name="u" unicode="u" horiz-adv-x="1054" 
d="M371 -31q-104 0 -209 75t-49 353l94 572q50 8 115 8t101 -39.5t36 -81.5t-4 -68l-66 -391q-6 -35 -6 -81t22.5 -92t83.5 -46t114 66t65 153l96 572q50 8 114 8t100 -39.5t36 -81.5t-4 -68l-90 -540q-24 -125 22 -240q-65 -37 -151 -37q-139 0 -150 135
q-41 -51 -103.5 -94t-166.5 -43z" />
    <glyph glyph-name="v" unicode="v" horiz-adv-x="927" 
d="M230 977q60 0 87 -15.5t49.5 -50t32.5 -127.5l41 -489l213 496q78 186 215 186q84 0 133 -29l-464 -948h-291l-148 948q72 29 132 29z" />
    <glyph glyph-name="w" unicode="w" horiz-adv-x="1421" 
d="M230 973q130 0 141 -113l47 -528l282 622q74 19 125 19t83 -23.5t36 -83.5l43 -573l193 471q41 100 83.5 154.5t122.5 54.5t142 -23l-461 -960h-260l-53 624l-295 -624h-242l-119 956q78 27 132 27z" />
    <glyph glyph-name="x" unicode="x" horiz-adv-x="892" 
d="M277 979q70 0 103.5 -29.5t55.5 -85.5l70 -176l112 162q92 127 198 127q84 0 151 -37l-359 -457l201 -477q-59 -26 -128 -26q-143 1 -183 108l-76 197l-201 -285h-282l389 500l-199 446q78 33 148 33z" />
    <glyph glyph-name="y" unicode="y" horiz-adv-x="940" 
d="M-47 -176q54 -76 132 -76t118.5 48t87.5 157l16 37h-57l-154 958q72 29 132 29t87 -15.5t49.5 -50t32.5 -127.5l43 -520l217 527q78 186 215 186q83 0 134 -29l-502 -1065q-35 -72 -107.5 -210t-281.5 -138q-115 0 -168 32q-52 32 -71 58.5t-19 61.5q0 74 96 137z" />
    <glyph glyph-name="z" unicode="z" horiz-adv-x="860" 
d="M641 215q150 0 150 -119q0 -41 -17 -96h-762l31 184q121 154 238.5 295.5t255.5 280.5h-408q0 106 39 160.5t147 54.5h467q51 0 79 -20.5t28 -58.5t-12 -105q-143 -145 -274.5 -283.5t-248.5 -292.5h287z" />
    <glyph glyph-name="braceleft" unicode="{" horiz-adv-x="798" 
d="M760 1468q147 0 147 -92q0 -69 -45 -119q-33 11 -73 11q-39 0 -81 -28t-57 -107l-41 -240q-16 -104 -60 -170t-130 -105q106 -50 106 -196q0 -37 -6 -76l-45 -268q-4 -24 -4 -65t43 -76t152 -9q26 -70 26 -98q0 -119 -180 -119q-150 0 -225.5 65.5t-75.5 207.5q0 35 6 71
l49 301q4 16 4 20v38q0 116 -104 116l31 189q86 0 117.5 50t47.5 161l31 192q23 162 101.5 254t265.5 92z" />
    <glyph glyph-name="bar" unicode="|" horiz-adv-x="475" 
d="M236 -385h-234l328 2011h233z" />
    <glyph glyph-name="braceright" unicode="}" horiz-adv-x="798" 
d="M123 -289q-148 1 -148 93q0 68 45 118q30 -10 72 -10t83.5 27.5t55.5 107.5l41 240q16 104 60.5 169.5t130.5 104.5q-107 51 -107 197q0 35 6 76l46 268q4 24 4 65t-42.5 75.5t-152.5 8.5q-27 73 -27 99q0 118 181 118q150 0 225.5 -65.5t75.5 -206.5q0 -35 -6 -72
l-50 -301q-4 -16 -4 -19v-38q0 -117 105 -117l-31 -188q-86 0 -117.5 -50.5t-48.5 -160.5l-31 -193q-23 -161 -102 -253.5t-264 -92.5z" />
    <glyph glyph-name="asciitilde" unicode="~" horiz-adv-x="946" 
d="M760 991q-63 0 -105.5 23.5t-76 51.5t-62 51.5t-64.5 23.5q-63 0 -104 -148h-186q20 243 126 296.5t170 53.5t103 -23.5t72 -51t62.5 -51t68.5 -23.5t63.5 39t42.5 108h187q-20 -242 -127 -296t-170 -54z" />
    <glyph glyph-name="uni00A0" unicode="&#xa0;" horiz-adv-x="428" 
 />
    <glyph glyph-name="exclamdown" unicode="&#xa1;" horiz-adv-x="536" 
d="M57.5 -396q-34.5 40 -34.5 82t4 66l133 803q50 8 115 8t100 -40t35 -82t-4 -66l-134 -803q-50 -8 -115 -8t-99.5 40zM494 842q0 -96 -50 -142.5t-118 -46.5t-105 42t-37 91q0 96 50 142.5t118 46.5t105 -42t37 -91z" />
    <glyph glyph-name="cent" unicode="&#xa2;" horiz-adv-x="1124" 
d="M969 397q0 -66 -70 -123q-65 -45 -123 -65l-39 -244h-125l37 221h-65q-12 0 -31 2l-37 -223h-125l41 254q-211 93 -211 371q0 200 88.5 350t253.5 211l41 250h125l-37 -219q36 4 74 4h22l37 215h125l-41 -240q78 -29 123 -94q61 -100 5 -144t-111 -67q-29 68 -69 96.5
t-105 28.5q-126 0 -194.5 -110.5t-68.5 -292.5q2 -90 51.5 -134.5t108.5 -44.5q122 0 211 125q109 -44 109 -127z" />
    <glyph glyph-name="sterling" unicode="&#xa3;" horiz-adv-x="1124" 
d="M823 1151q-98 0 -143 -58.5t-62 -154.5l-28 -180h360l-30 -195h-361l-57 -346h332q94 0 133 -32.5t39 -93.5t-15 -91h-801l95 563h-125l30 195h125l29 176q75 440 487 440q117 0 183.5 -34.5t98.5 -74.5t32 -86t-33 -86t-100 -61q-68 119 -189 119z" />
    <glyph glyph-name="currency" unicode="&#xa4;" horiz-adv-x="1124" 
d="M145 694q0 142 72 250l-145 135l137 127l135 -127q113 74 255 74t263 -78l146 142l137 -130l-156 -145q66 -100 66 -242q0 -143 -70 -249l156 -150l-133 -129l-154 147q-115 -73 -253 -73t-251 69l-151 -143l-133 129l153 145q-74 106 -74 248zM602 414q127 0 196.5 80.5
t69.5 203.5t-69.5 205t-198.5 82t-198.5 -81t-69.5 -205t71.5 -204.5t198.5 -80.5z" />
    <glyph glyph-name="yen" unicode="&#xa5;" horiz-adv-x="1124" 
d="M343 1352q64 0 94 -27t44 -74l127 -428l256 406q78 125 207 125q72 0 137 -43l-413 -611h194l-20 -129h-260l-25 -151h262l-20 -129h-262l-48 -291h-276l47 291h-248l21 129h250l24 151h-252l21 129h186l-207 605q97 47 161 47z" />
    <glyph glyph-name="brokenbar" unicode="&#xa6;" horiz-adv-x="475" 
d="M236 -385h-234l135 825h234zM438 858h-233l125 768h233z" />
    <glyph glyph-name="section" unicode="&#xa7;" horiz-adv-x="980" 
d="M610 418q76 63 76 129t-46 102.5t-84 58.5t-66 40t-41 26t-27 17q-68 -55 -68 -123q0 -92 84 -141.5t125 -75.5zM791 140q0 -165 -114.5 -253t-287.5 -88q-72 0 -157 21.5t-133 67.5t-48 94q0 110 125 149q87 -121 221 -121q61 0 100.5 27t39.5 71t-14.5 69.5t-41 48
t-63 44.5t-106.5 64t-129.5 107t-59.5 167q0 173 176 297q-41 66 -41 156q0 163 112.5 250.5t290.5 87.5t275 -90q43 -43 43 -91q0 -105 -123 -145q-41 57 -85.5 88t-110.5 31q-152 0 -152 -113q0 -58 39 -89.5t75.5 -53t114.5 -68t130.5 -106.5t52.5 -153t-41 -166
t-134 -142q46 -72 46 -161z" />
    <glyph glyph-name="dieresis" unicode="&#xa8;" horiz-adv-x="724" 
d="M782 1278q0 -60 -41 -98.5t-98 -38.5t-87 34.5t-30 94.5t41 99.5t99 39.5t87 -35.5t29 -95.5zM393 1278q0 -60 -41 -98.5t-98 -38.5t-87 34.5t-30 94.5t40.5 99.5t98.5 39.5t87.5 -35.5t29.5 -95.5z" />
    <glyph glyph-name="copyright" unicode="&#xa9;" horiz-adv-x="1675" 
d="M934 381q117 0 209 92q8 -10 39.5 -46.5t31.5 -70.5t-32 -61q-109 -88 -285 -88q-175 0 -299.5 118.5t-124.5 345.5q0 228 129.5 350t293.5 122t244 -53q79 -53 79 -93q0 -39 -22.5 -69.5t-49.5 -59.5q-43 49 -93 77t-128 28q-123 0 -178.5 -82t-55.5 -213
q0 -208 87 -252.5t155 -44.5zM1470 665.5q0 122.5 -40.5 235.5t-116.5 200t-184.5 138t-243.5 51t-244 -51t-184.5 -138t-116.5 -200t-41 -304t158 -375.5t428 -184.5q134 0 243 52t185 139t116.5 201t40.5 236.5zM878 -76q-319 0 -510.5 210.5t-191.5 526.5t196.5 529
t510.5 213q162 0 293 -59.5t272 -213.5t141 -464t-192 -523q-92 -100 -223.5 -159.5t-295.5 -59.5z" />
    <glyph glyph-name="ordfeminine" unicode="&#xaa;" horiz-adv-x="884" 
d="M391 909q0 -123 90 -123q57 0 99.5 48.5t52.5 113.5l43 264q-31 18 -68 19q-92 0 -154.5 -80t-62.5 -242zM729 612q-109 0 -117 103q-83 -105 -206 -105t-178.5 77t-55.5 189q0 218 126.5 370.5t326.5 152.5q100 0 178 -31t110 -51l-82 -492q-15 -105 19 -184
q-49 -29 -121 -29z" />
    <glyph glyph-name="guillemotleft" unicode="&#xab;" horiz-adv-x="1030" 
d="M1042 846q0 -70 -61 -125l-170 -156l123 -194q77 -127 -74 -234l-239 287q-49 56 -49 114q-1 98 104 185l325 264q41 -71 41 -141zM502 286q0 -79 -99 -149l-239 287q-49 56 -49 114q0 99 104 185l326 264q39 -69 40 -140t-61 -126l-170 -156l123 -194q25 -41 25 -85z
" />
    <glyph glyph-name="logicalnot" unicode="&#xac;" horiz-adv-x="1124" 
d="M981 276h-240l58 345h-660l39 231h899z" />
    <glyph glyph-name="uni00AD" unicode="&#xad;" horiz-adv-x="862" 
d="M606 664q84 0 118 -39t33 -98t-20 -103h-450q-84 0 -118 40t-33 97t20 103h450z" />
    <glyph glyph-name="registered" unicode="&#xae;" horiz-adv-x="1675" 
d="M1468 665.5q0 122.5 -41 235.5t-116.5 200t-184 138t-243.5 51t-244 -51t-183.5 -138t-115.5 -200t-41 -303.5t156.5 -375.5t425.5 -185q134 0 244 52t185.5 139t116.5 201t41 236.5zM312.5 197.5q-136.5 156.5 -136.5 467.5t196.5 524.5t510.5 213.5q162 0 293 -59.5
t272 -213.5t141 -463t-195.5 -527t-517.5 -218q-166 0 -296.5 59.5t-267 216zM864 985q-52 0 -86 -4v-272h96q78 0 115 37.5t37 103.5q0 135 -162 135zM1212 862q0 -177 -174 -256l213 -340q-100 -48 -153.5 -22t-75.5 63l-166 268h-78v-321h-174v858q165 12 262 12
q180 0 263 -72.5t83 -189.5z" />
    <glyph glyph-name="macron" unicode="&#xaf;" horiz-adv-x="745" 
d="M565 1343q61 -1 87 -29t25 -72t-15 -79h-482q-61 0 -87 29q-27 28 -25 72t16 79h481z" />
    <glyph glyph-name="degree" unicode="&#xb0;" horiz-adv-x="808" 
d="M476 983q67 0 111 47t44 114t-44 113t-111 46t-108.5 -46.5t-41.5 -112.5t41.5 -113.5t108.5 -47.5zM267.5 941.5q-79.5 81.5 -79.5 202.5t81.5 201t208.5 80q128 0 206 -79.5t78 -201.5t-81 -203t-208 -81q-126 0 -205.5 81.5z" />
    <glyph glyph-name="plusminus" unicode="&#xb1;" horiz-adv-x="1124" 
d="M907 0h-823l37 223h289l59 352h-319l38 224h320l57 352h240l-57 -352h319l-39 -224h-319l-60 -352h295z" />
    <glyph glyph-name="twosuperior" unicode="&#xb2;" 
d="M291 1165q-78 32 -78 84t41 80q83 78 214 78q130 0 194.5 -56.5t64.5 -146.5t-31.5 -154.5t-75.5 -107.5t-67 -63.5t-48.5 -41t-49 -39t-37.5 -30.5h153q117 0 117 -90q0 -16 -14 -62h-555l24 132q35 29 86.5 68.5t97.5 79.5q91 79 147 146t56 121q0 86 -86 86
q-78 0 -153 -84z" />
    <glyph glyph-name="threesuperior" unicode="&#xb3;" 
d="M594 1014q96 -53 96 -168t-89 -184.5t-221 -69.5t-201 40q-68 40 -68 93q0 54 75 102q45 -45 84.5 -63.5t93.5 -18.5t91 24t37 72q0 101 -107 101h-68l25 139h70q47 0 87 22.5t40 82.5q0 29 -23.5 50t-71 21t-93.5 -26.5t-68 -54.5q-76 33 -76 92q0 71 95.5 105t165.5 34
q123 0 193 -59t70 -134q0 -135 -137 -200z" />
    <glyph glyph-name="acute" unicode="&#xb4;" horiz-adv-x="745" 
d="M255 1102q-32 0 -66.5 12t-51.5 29l187 235q60 80 139 80q45 0 85 -22.5t60 -46.5l-235 -234q-53 -53 -118 -53z" />
    <glyph glyph-name="mu" unicode="&#xb5;" horiz-adv-x="1153" 
d="M422 344q0 -145 119 -145q145 0 184 219l92 557h277l-115 -690q-8 -32 -8 -58q0 -51 41 -51q35 0 73 14l11 -167q-93 -43 -167 -43q-73 0 -110 23.5t-57 82.5q-92 -106 -227 -106q-134 0 -183 75l-71 -442h-258l223 1362h276l-94 -565q-6 -37 -6 -66z" />
    <glyph glyph-name="paragraph" unicode="&#xb6;" horiz-adv-x="1110" 
d="M483 522q-152 0 -240.5 96t-88.5 240q0 253 140 384.5t337 131.5h418q51 0 75.5 -27t24.5 -59t-2 -43l-246 -1487h-188l239 1448h-159l-240 -1448h-188l127 764h-9z" />
    <glyph glyph-name="periodcentered" unicode="&#xb7;" horiz-adv-x="585" 
d="M485 696q0 -94 -49 -139t-116 -45t-101.5 41t-34.5 88q0 94 50 139t116 45t100.5 -41t34.5 -88z" />
    <glyph glyph-name="cedilla" unicode="&#xb8;" horiz-adv-x="745" 
d="M539 4q-68 -59 -68 -92q0 -32 11.5 -47t36 -47t24.5 -85q0 -99 -72 -148.5t-147 -49.5q-121 0 -121 82q0 37 26 74q27 -15 67 -15t55.5 18t15.5 38q0 25 -25 61t-25 66q0 78 78 145h144z" />
    <glyph glyph-name="onesuperior" unicode="&#xb9;" 
d="M205 1173.5q0 52.5 65 83.5l224 113q67 37 117 37t85 -33l-127 -760h-196l90 545l-209 -100q-49 62 -49 114.5z" />
    <glyph glyph-name="ordmasculine" unicode="&#xba;" horiz-adv-x="872" 
d="M514 788q60 0 109 77t51 225q0 55 -25.5 94t-73.5 39q-72 0 -120.5 -78t-51.5 -225q0 -55 25.5 -93.5t85.5 -38.5zM492 610q-161 0 -237.5 90.5t-76.5 206.5q0 218 115 355t307 137q155 0 228 -91.5t73 -205.5q0 -216 -108 -350q-53 -63 -131 -102.5t-170 -39.5z" />
    <glyph glyph-name="guillemotright" unicode="&#xbb;" horiz-adv-x="1030" 
d="M506 278q0 70 61 125l170 156l-123 195q-24 39 -24 84q1 82 98 149l240 -287q49 -57 49 -114q0 -99 -105 -185l-325 -264q-41 71 -41 141zM49 278q0 70 62 125l170 156l-123 195q-25 39 -25 84q0 80 98 149l240 -287q49 -57 49 -114q0 -98 -104 -185l-326 -264
q-41 71 -41 141z" />
    <glyph glyph-name="onequarter" unicode="&#xbc;" horiz-adv-x="1683" 
d="M164 1156q0 73 65 101l224 113q67 37 117 37t85 -33l-127 -760h-196l90 545l-209 -100q-49 61 -49 97zM1316 1399q65 0 114 -23l-893 -1376h-226l832 1284q35 53 71 84q37 31 102 31zM1325 289l47 270l-244 -270h197zM1546 287q58 0 60 -60q0 -47 -23 -77h-92l-25 -148
h-190l24 148h-348l23 124l399 453q22 29 50 48t76 19t95 -24l-82 -483h33z" />
    <glyph glyph-name="onehalf" unicode="&#xbd;" horiz-adv-x="1683" 
d="M164 1156q0 73 65 101l224 113q67 37 117 37t85 -33l-127 -760h-196l90 545l-209 -100q-49 61 -49 97zM1294 1399q64 0 113 -23l-893 -1376h-225l831 1284q35 53 72 84q38 31 102 31zM1475 156q118 0 116 -90q0 -16 -14 -62h-555l25 131q35 29 86 69q297 233 301 347
q0 39 -22 63t-64 23q-73 0 -154 -84q-76 31 -77 83t40 81q83 78 236 78q109 -1 173 -57t64 -146q-2 -158 -108 -262q-73 -72 -130 -117t-71 -57h154z" />
    <glyph glyph-name="threequarters" unicode="&#xbe;" horiz-adv-x="1683" 
d="M594 1014q98 -54 97 -168q-1 -115 -89 -184q-88 -70 -221 -70t-202 40q-68 40 -68 93q0 54 75 102q45 -45 85 -63q39 -18 93 -18t91 23q37 24 37 72q0 101 -107 101h-68l25 139h70q47 0 87 23t40 82q0 28 -24 50t-71 22t-93 -28q-46 -26 -68 -54q-76 33 -76 92
q0 72 134 118q57 20 127 20q124 1 194 -57q69 -59 69 -135q0 -133 -137 -200zM1362 1399q64 0 113 -23l-893 -1376h-226l832 1284q35 53 72 84q38 31 102 31zM1346 289l47 270l-244 -270h197zM1626 227q0 -48 -22 -77h-93l-24 -148h-191l25 148h-348l22 124l400 453
q23 29 51 48t75 19q48 0 95 -24l-82 -483h33q59 0 59 -60z" />
    <glyph glyph-name="questiondown" unicode="&#xbf;" horiz-adv-x="872" 
d="M739 840q0 -96 -50 -142.5t-118 -46.5t-104.5 42t-36.5 91q0 96 50 142.5t118 46.5t104.5 -42t36.5 -91zM758 -227q0 -59 -51 -109q-130 -117 -345 -117q-158 0 -259 83t-101 221q0 213 187 376q69 60 104 89.5t77.5 77.5t53.5 145q30 10 88 10q113 0 113 -113
q0 -107 -127 -217q-64 -55 -149 -126t-85 -189q0 -125 142 -125t258 127q94 -46 94 -133z" />
    <glyph glyph-name="Agrave" unicode="&#xc0;" horiz-adv-x="1224" 
d="M784 514l-71 541l-232 -541h303zM618 1348q72 32 137 32t109 -30t58 -107l221 -1243h-283l-43 293h-428l-125 -293h-284zM827 1487q-53 0 -96 31l-235 168q79 106 157 106q41 0 90 -43l213 -190q-76 -72 -129 -72z" />
    <glyph glyph-name="Aacute" unicode="&#xc1;" horiz-adv-x="1224" 
d="M784 514l-71 541l-232 -541h303zM618 1348q72 32 137 32t109 -30t58 -107l221 -1243h-283l-43 293h-428l-125 -293h-284zM674 1487q-69 0 -115 72l232 186q60 47 109 47q48 0 82 -34t50 -75l-258 -163q-55 -33 -100 -33z" />
    <glyph glyph-name="Acircumflex" unicode="&#xc2;" horiz-adv-x="1224" 
d="M784 514l-71 541l-232 -541h303zM618 1348q72 32 137 32t109 -30t58 -107l221 -1243h-283l-43 293h-428l-125 -293h-284zM955 1483q-74 0 -113 55l-64 92l-114 -106q-42 -39 -107 -39t-100 33l209 219q59 59 143 59t119 -65l121 -220q-54 -28 -94 -28z" />
    <glyph glyph-name="Atilde" unicode="&#xc3;" horiz-adv-x="1224" 
d="M784 514l-71 541l-232 -541h303zM618 1348q72 32 137 32t109 -30t58 -107l221 -1243h-283l-43 293h-428l-125 -293h-284zM631 1585q-80 0 -139 -84q-47 29 -61 51q-13 23 -13 56t27 71t89 57t119 19t122 -36q25 -13 47 -24t52 -11t61 17q30 17 69 71q49 -25 62 -52
q13 -28 13 -60q0 -62 -66 -103q-66 -42 -143 -43q-76 -1 -143 35q-25 13 -47 25t-49 11z" />
    <glyph glyph-name="Adieresis" unicode="&#xc4;" horiz-adv-x="1224" 
d="M784 514l-71 541l-232 -541h303zM618 1348q72 32 137 32t109 -30t58 -107l221 -1243h-283l-43 293h-428l-125 -293h-284zM852 1626q0 60 41 98t98 39q57 -1 87 -35t30 -94t-41 -100q-41 -39 -98 -39t-87 35q-30 36 -30 96zM463 1626q0 60 41 98t98 39q57 -1 87 -35
t30 -94t-41 -100q-41 -39 -98 -39t-87 35q-30 36 -30 96z" />
    <glyph glyph-name="Aring" unicode="&#xc5;" horiz-adv-x="1224" 
d="M770 1417q51 0 81 38t30 88t-30 87t-80 37t-79.5 -37t-29.5 -87t28.5 -88t79.5 -38zM784 514l-71 541l-232 -541h303zM543 1542q0 156 88 196t140 40q105 0 166.5 -69.5t61.5 -151.5q0 -158 -118 -224q29 -33 41 -90l221 -1243h-283l-43 293h-428l-125 -293h-284
l638 1348l13 6q-88 68 -88 188z" />
    <glyph glyph-name="AE" unicode="&#xc6;" horiz-adv-x="1738" 
d="M903 541l103 608l-404 -608h301zM1479 219q172 0 172 -128q0 -61 -15 -91h-821l55 342h-399l-227 -342h-285l860 1260q43 63 99.5 87.5t148.5 24.5h758q-4 -124 -47.5 -171.5t-151.5 -47.5h-344l-55 -338h387l-37 -219h-387l-62 -377h351z" />
    <glyph glyph-name="Ccedilla" unicode="&#xc7;" horiz-adv-x="1204" 
d="M1118 239q0 -63 -31 -103t-87 -75q-125 -79 -302 -94q-30 -31 -30 -59t11 -43t35.5 -46t24.5 -84q0 -99 -71.5 -149.5t-145.5 -50.5q-123 0 -123 82q0 37 27 74q27 -15 67 -15t55 18t15 38q0 28 -24.5 61t-24.5 77t43 101q-209 23 -316.5 175.5t-107.5 390.5
q0 150 43 303t130 277t222.5 203t295.5 79t282.5 -68.5t122.5 -188.5t-148 -155q-37 86 -96 135t-155 49q-185 0 -297.5 -175.5t-112.5 -487.5q0 -136 66.5 -224.5t221 -88.5t312.5 180q98 -73 98 -136z" />
    <glyph glyph-name="Egrave" unicode="&#xc8;" horiz-adv-x="987" 
d="M739 219q172 1 172 -129q0 -62 -14 -90h-834l228 1372h794q-4 -126 -47 -172q-43 -47 -151 -47h-357l-55 -338h399l-36 -219h-400l-61 -377h362zM774 1487q-53 0 -96 31l-236 168q79 106 158 106q41 0 90 -43l213 -190q-76 -72 -129 -72z" />
    <glyph glyph-name="Eacute" unicode="&#xc9;" horiz-adv-x="987" 
d="M739 219q172 1 172 -129q0 -62 -14 -90h-834l228 1372h794q-4 -126 -47 -172q-43 -47 -151 -47h-357l-55 -338h399l-36 -219h-400l-61 -377h362zM615 1487q-69 0 -115 72l231 186q60 47 109 47t83 -34t50 -75l-258 -163q-54 -33 -100 -33z" />
    <glyph glyph-name="Ecircumflex" unicode="&#xca;" horiz-adv-x="987" 
d="M739 219q172 1 172 -129q0 -62 -14 -90h-834l228 1372h794q-4 -126 -47 -172q-43 -47 -151 -47h-357l-55 -338h399l-36 -219h-400l-61 -377h362zM902 1483q-73 0 -114 55l-63 92l-115 -106q-42 -39 -89 -39q-83 0 -118 33l209 219q59 59 142 59q50 0 76 -16t44 -49
l121 -220q-53 -28 -93 -28z" />
    <glyph glyph-name="Edieresis" unicode="&#xcb;" horiz-adv-x="987" 
d="M739 219q172 1 172 -129q0 -62 -14 -90h-834l228 1372h794q-4 -126 -47 -172q-43 -47 -151 -47h-357l-55 -338h399l-36 -219h-400l-61 -377h362zM1038 1634q0 -60 -41 -100q-41 -39 -98 -39t-87 35q-30 36 -30 96t41 98t99 39q116 1 116 -129zM649 1634q0 -60 -41 -100
q-41 -39 -98 -39t-87 35q-30 36 -30 96t41 98q40 38 98 39q116 1 117 -129z" />
    <glyph glyph-name="Igrave" unicode="&#xcc;" horiz-adv-x="518" 
d="M506 1340q35 -40 35 -81t-4 -67l-197 -1192h-277l228 1372q50 8 115 8t100 -40zM491 1487q-53 0 -96 31l-235 168q79 106 157 106q41 0 91 -43l213 -190q-77 -72 -130 -72z" />
    <glyph glyph-name="Iacute" unicode="&#xcd;" horiz-adv-x="518" 
d="M506 1340q35 -40 35 -81t-4 -67l-197 -1192h-277l228 1372q50 8 115 8t100 -40zM398 1487q-69 0 -115 72l231 186q60 47 109 47t83 -34t50 -75l-258 -163q-54 -33 -100 -33z" />
    <glyph glyph-name="Icircumflex" unicode="&#xce;" horiz-adv-x="518" 
d="M506 1340q35 -40 35 -81t-4 -67l-197 -1192h-277l228 1372q50 8 115 8t100 -40zM611 1483q-74 0 -113 55l-64 92l-115 -106q-42 -39 -107 -39q-64 0 -99 33l209 219q59 59 143 59t119 -65l121 -220q-54 -28 -94 -28z" />
    <glyph glyph-name="Idieresis" unicode="&#xcf;" horiz-adv-x="518" 
d="M506 1340q35 -40 35 -81t-4 -67l-197 -1192h-277l228 1372q50 8 115 8t100 -40zM778 1634q0 -60 -41 -100q-41 -39 -98 -39t-87 35q-30 36 -30 96t41 98t99 39q116 1 116 -129zM133 1626q0 60 41 98t98 39q57 -1 87 -35t30 -94t-41 -100q-41 -39 -98 -39t-87 35
q-30 36 -30 96z" />
    <glyph glyph-name="Eth" unicode="&#xd0;" horiz-adv-x="1259" 
d="M492 217q222 0 339 178.5t117 460.5q0 134 -73.5 221.5t-186.5 87.5q-112 0 -158 -6l-61 -364h246l-31 -181h-244l-65 -397h117zM662 1384q573 0 573 -568q0 -136 -41 -285.5t-193 -340t-555 -190.5h-383l103 614h-123l29 181h123l94 563q189 26 373 26z" />
    <glyph glyph-name="Ntilde" unicode="&#xd1;" horiz-adv-x="1239" 
d="M424 1380q96 0 147 -127l310 -786l151 905q46 8 86 8q80 0 112 -40t32 -83t-5 -65l-196 -1192h-230l-366 907l-148 -907h-254l226 1366q81 14 135 14zM641 1585q-80 0 -139 -84q-47 29 -61 51q-13 23 -13 56q0 91 140 136q38 11 95 11t122 -36l48 -24q22 -11 52 -11
t60 17t69 71q49 -25 62 -52q32 -67 -4 -119t-132 -80t-203 28q-25 13 -47 25t-49 11z" />
    <glyph glyph-name="Ograve" unicode="&#xd2;" horiz-adv-x="1341" 
d="M1028 866q0 142 -54 224t-169 81q-167 0 -276 -186t-109 -502q0 -129 54 -209t175 -79q74 0 142 48t120 137q117 197 117 486zM648 -35q-156 0 -250 45q-266 128 -265 502q0 156 42 314t129 286q87 127 219 207t288 80t247 -45t148 -120q111 -146 111 -382
q0 -352 -168 -600q-84 -127 -214 -207q-131 -80 -287 -80zM934 1487q-53 0 -96 31l-236 168q79 106 158 106q41 0 90 -43l213 -190q-76 -72 -129 -72z" />
    <glyph glyph-name="Oacute" unicode="&#xd3;" horiz-adv-x="1341" 
d="M1028 866q0 142 -54 224t-169 81q-167 0 -276 -186t-109 -502q0 -129 54 -209t175 -79q74 0 142 48t120 137q117 197 117 486zM648 -35q-156 0 -250 45q-266 128 -265 502q0 156 42 314t129 286q87 127 219 207t288 80t247 -45t148 -120q111 -146 111 -382
q0 -352 -168 -600q-84 -127 -214 -207q-131 -80 -287 -80zM793 1487q-69 0 -115 72l231 186q60 47 109 47t83 -34t50 -75l-258 -163q-54 -33 -100 -33z" />
    <glyph glyph-name="Ocircumflex" unicode="&#xd4;" horiz-adv-x="1341" 
d="M1028 866q0 142 -54 224t-169 81q-167 0 -276 -186t-109 -502q0 -129 54 -209t175 -79q74 0 142 48t120 137q117 197 117 486zM648 -35q-156 0 -250 45q-266 128 -265 502q0 156 42 314t129 286q87 127 219 207t288 80t247 -45t148 -120q111 -146 111 -382
q0 -352 -168 -600q-84 -127 -214 -207q-131 -80 -287 -80zM1037 1483q-74 0 -113 55l-64 92l-115 -106q-42 -39 -107 -39q-64 0 -99 33l209 219q59 59 143 59t119 -65l120 -220q-53 -28 -93 -28z" />
    <glyph glyph-name="Otilde" unicode="&#xd5;" horiz-adv-x="1341" 
d="M1028 866q0 142 -54 224t-169 81q-167 0 -276 -186t-109 -502q0 -129 54 -209t175 -79q74 0 142 48t120 137q117 197 117 486zM648 -35q-156 0 -250 45q-266 128 -265 502q0 156 42 314t129 286q87 127 219 207t288 80t247 -45t148 -120q111 -146 111 -382
q0 -352 -168 -600q-84 -127 -214 -207q-131 -80 -287 -80zM748 1585q-79 0 -140 -84q-47 29 -60 51t-13 56q0 33 27 71t89 57t119 19t122 -36l48 -24t52 -11t60 17t68 71q48 -25 62 -52q14 -28 14 -60q0 -63 -67 -104t-142 -42q-76 -1 -143 35q-24 13 -46 25t-50 11z" />
    <glyph glyph-name="Odieresis" unicode="&#xd6;" horiz-adv-x="1341" 
d="M1028 866q0 142 -54 224t-169 81q-167 0 -276 -186t-109 -502q0 -129 54 -209t175 -79q74 0 142 48t120 137q117 197 117 486zM648 -35q-156 0 -250 45q-266 128 -265 502q0 156 42 314t129 286q87 127 219 207t288 80t247 -45t148 -120q111 -146 111 -382
q0 -352 -168 -600q-84 -127 -214 -207q-131 -80 -287 -80zM1063 1763q57 -1 87 -35t30 -94t-41 -100q-41 -39 -99 -39t-87 35q-30 35 -29 76q0 80 41 118t98 39zM674 1763q58 -1 87 -35q30 -34 30 -94t-41 -100q-40 -39 -98 -39t-88 35t-29 76q1 80 41 118t98 39z" />
    <glyph glyph-name="multiply" unicode="&#xd7;" horiz-adv-x="1124" 
d="M985 391l-190 -145l-211 282l-299 -272l-140 160l314 282l-213 289l188 148l205 -279l293 270l139 -159l-307 -279z" />
    <glyph glyph-name="Oslash" unicode="&#xd8;" horiz-adv-x="1341" 
d="M420 530q0 -115 12 -165l475 782q-43 25 -113 25t-140 -47.5t-122.5 -136.5t-82 -216t-29.5 -242zM1028 836q0 113 -16 172l-477 -787q45 -27 117 -27t139 48.5t120.5 137.5t85 216t31.5 240zM133 512q0 156 42 314.5t129 285.5t219 207t313 80q101 0 200 -37l94 154
l142 -78l-101 -166q146 -146 146 -420q0 -350 -126 -538.5t-256 -268.5t-310 -80q-112 0 -219 41l-113 -184l-141 78l120 200q-139 147 -139 412z" />
    <glyph glyph-name="Ugrave" unicode="&#xd9;" horiz-adv-x="1243" 
d="M418 388q0 -195 168 -195q82 0 126 17q86 33 128 160q20 62 34 154l142 848q50 8 115 8t100 -40t35 -81t-4 -67l-111 -666q-23 -139 -65 -243q-128 -318 -488 -318t-436 250q-23 76 -23 158t15 170l137 829q50 8 116 8t100 -40t34 -81t-4 -67l-107 -643q-12 -65 -12 -161
zM800 1487q-53 0 -95 31l-236 168q79 106 158 106q41 0 90 -43l213 -190q-77 -72 -130 -72z" />
    <glyph glyph-name="Uacute" unicode="&#xda;" horiz-adv-x="1243" 
d="M418 388q0 -195 168 -195q82 0 126 17q86 33 128 160q20 62 34 154l142 848q50 8 115 8t100 -40t35 -81t-4 -67l-111 -666q-23 -139 -65 -243q-128 -318 -488 -318t-436 250q-23 76 -23 158t15 170l137 829q50 8 116 8t100 -40t34 -81t-4 -67l-107 -643q-12 -65 -12 -161
zM729 1487q-69 0 -115 72l232 186q60 47 109 47q48 0 82 -34t50 -75l-258 -163q-55 -33 -100 -33z" />
    <glyph glyph-name="Ucircumflex" unicode="&#xdb;" horiz-adv-x="1243" 
d="M418 388q0 -195 168 -195q82 0 126 17q86 33 128 160q20 62 34 154l142 848q50 8 115 8t100 -40t35 -81t-4 -67l-111 -666q-23 -139 -65 -243q-128 -318 -488 -318t-436 250q-23 76 -23 158t15 170l137 829q50 8 116 8t100 -40t34 -81t-4 -67l-107 -643q-12 -65 -12 -161
zM982 1483q-75 0 -114 55l-63 92l-115 -106q-42 -39 -89 -39q-83 0 -118 33l209 219q59 59 142 59q50 0 76 -16t44 -49l121 -220q-53 -28 -93 -28z" />
    <glyph glyph-name="Udieresis" unicode="&#xdc;" horiz-adv-x="1243" 
d="M418 388q0 -195 168 -195q82 0 126 17q86 33 128 160q20 62 34 154l142 848q50 8 115 8t100 -40t35 -81t-4 -67l-111 -666q-23 -139 -65 -243q-128 -318 -488 -318t-436 250q-23 76 -23 158t15 170l137 829q50 8 116 8t100 -40t34 -81t-4 -67l-107 -643q-12 -65 -12 -161
zM1128 1634q0 -60 -41 -100q-41 -39 -98 -39t-87 35q-30 36 -30 96t41 98t99 39q116 1 116 -129zM739 1634q0 -60 -41 -100q-41 -39 -98 -39t-87 35q-30 36 -30 96t41 98q40 38 98 39q116 1 117 -129z" />
    <glyph glyph-name="Yacute" unicode="&#xdd;" horiz-adv-x="1105" 
d="M174 1333q96 47 172 47q106 0 139 -100l144 -473l280 448q79 127 203 125q76 0 137 -43l-528 -805l-88 -532h-277l88 530zM695 1487q-69 0 -115 72l231 186q60 47 109 47q48 0 82 -34t51 -75l-258 -163q-54 -33 -100 -33z" />
    <glyph glyph-name="Thorn" unicode="&#xde;" horiz-adv-x="1120" 
d="M516 451q220 0 260.5 104t40.5 191t-64.5 132.5t-150.5 45.5t-110 -6l-76 -467h100zM506 1340q35 -40 35 -82t-4 -66l-11 -64q23 2 28 2h60q246 0 370 -104.5t124 -259.5q0 -284 -168 -408.5t-467 -124.5h-94l-39 -233h-277l228 1372q50 8 115 8t100 -40z" />
    <glyph glyph-name="germandbls" unicode="&#xdf;" horiz-adv-x="1202" 
d="M555 289q105 -109 203 -109q58 0 83 28t25 70t-44 80t-87 68q-80 55 -116.5 103.5t-36.5 114.5t19.5 109.5t50 78t64.5 64.5t64.5 62.5t50 72.5t19.5 93.5t-35 93t-113 39.5t-132 -53t-70 -153l-176 -1071q-31 -195 -127.5 -303.5t-273.5 -108.5t-225 58.5t-48 100.5
q0 85 96 142q59 -84 152 -84q66 0 101.5 50t51.5 145l176 1058q37 231 167 330.5t318 99.5t293 -72.5t105 -221.5t-84 -225.5t-134 -121.5t-50 -93t13 -72.5t35.5 -45t55 -41t88.5 -65.5q114 -93 115 -225q0 -133 -87 -224.5t-245 -91.5q-171 0 -262 57q-90 57 -90 111
q0 55 24.5 89t65.5 63z" />
    <glyph glyph-name="agrave" unicode="&#xe0;" horiz-adv-x="1056" 
d="M642 793q-48 0 -97 -32q-104 -68 -151 -233q-24 -84 -23 -188q0 -162 110 -162q70 0 121 61t66 150l63 379q-41 25 -89 25zM377 -31q-227 0 -269 219q-39 202 26 394q82 245 294 359q104 56 210 56q217 0 390 -104l-106 -645q-24 -125 22 -240q-61 -35 -151 -37
q-139 0 -150 135q-106 -137 -266 -137zM717 1102q-66 0 -105 53l-182 238q29 25 73 45t84 20q72 0 115 -78l134 -241q-53 -37 -119 -37z" />
    <glyph glyph-name="aacute" unicode="&#xe1;" horiz-adv-x="1056" 
d="M642 793q-48 0 -97 -32q-104 -68 -151 -233q-24 -84 -23 -188q0 -162 110 -162q70 0 121 61t66 150l63 379q-41 25 -89 25zM377 -31q-227 0 -269 219q-39 202 26 394q82 245 294 359q104 56 210 56q217 0 390 -104l-106 -645q-24 -125 22 -240q-61 -35 -151 -37
q-139 0 -150 135q-106 -137 -266 -137zM666 1102q-32 0 -66 12q-35 12 -51 29l186 235q60 80 140 80q45 0 85 -22t60 -47l-236 -234q-54 -53 -118 -53z" />
    <glyph glyph-name="acircumflex" unicode="&#xe2;" horiz-adv-x="1056" 
d="M642 793q-48 0 -97 -32q-104 -68 -151 -233q-24 -84 -23 -188q0 -162 110 -162q70 0 121 61t66 150l63 379q-41 25 -89 25zM377 -31q-227 0 -269 219q-39 202 26 394q82 245 294 359q104 56 210 56q217 0 390 -104l-106 -645q-24 -125 22 -240q-61 -35 -151 -37
q-139 0 -150 135q-106 -137 -266 -137zM897 1102q-39 0 -66 10t-45 43l-71 121l-137 -133q-42 -39 -102 -39t-95 33l221 256q51 59 142 59t118 -59l127 -263q-53 -28 -92 -28z" />
    <glyph glyph-name="atilde" unicode="&#xe3;" horiz-adv-x="1056" 
d="M642 793q-48 0 -97 -32q-104 -68 -151 -233q-24 -84 -23 -188q0 -162 110 -162q70 0 121 61t66 150l63 379q-41 25 -89 25zM377 -31q-227 0 -269 219q-39 202 26 394q82 245 294 359q104 56 210 56q217 0 390 -104l-106 -645q-24 -125 22 -240q-61 -35 -151 -37
q-139 0 -150 135q-106 -137 -266 -137zM377 1240q0 62 70 104t144 42q75 0 122 -24t69 -36t52 -11q30 0 60 17t69 71q49 -25 62 -51t13 -60q0 -93 -136 -136q-38 -11 -96 -11t-120 36q-24 13 -46 24t-50 12q-79 0 -139 -84q-47 29 -61 51q-13 24 -13 56z" />
    <glyph glyph-name="adieresis" unicode="&#xe4;" horiz-adv-x="1056" 
d="M642 793q-48 0 -97 -32q-104 -68 -151 -233q-24 -84 -23 -188q0 -162 110 -162q70 0 121 61t66 150l63 379q-41 25 -89 25zM377 -31q-227 0 -269 219q-39 202 26 394q82 245 294 359q104 56 210 56q217 0 390 -104l-106 -645q-24 -125 22 -240q-61 -35 -151 -37
q-139 0 -150 135q-106 -137 -266 -137zM918 1409q58 0 86 -35q30 -36 30 -96t-41 -98t-98 -39q-57 0 -87 35t-30 75q0 80 41 119t99 39zM645 1278q0 -60 -41 -98t-98 -39q-57 0 -87 35t-30 75q0 80 41 119t98 39t87 -35q30 -36 30 -96z" />
    <glyph glyph-name="aring" unicode="&#xe5;" horiz-adv-x="1056" 
d="M642 793q-48 0 -97 -32q-104 -68 -151 -233q-24 -84 -23 -188q0 -162 110 -162q70 0 121 61t66 150l63 379q-41 25 -89 25zM377 -31q-227 0 -269 219q-39 202 26 394q82 245 294 359q104 56 210 56q217 0 390 -104l-106 -645q-24 -125 22 -240q-61 -35 -151 -37
q-139 0 -150 135q-106 -137 -266 -137zM600 1345q0 -50 29 -88t80 -38q51 -1 81 37t30 88t-30 88q-30 36 -80 36t-80 -36t-30 -87zM710 1110q-107 0 -167 66t-62 167q0 154 133 217q44 19 96 19q108 0 168 -70t60 -163q0 -47 -16 -91q-35 -91 -117 -127q-43 -18 -95 -18z
" />
    <glyph glyph-name="ae" unicode="&#xe6;" horiz-adv-x="1574" 
d="M990 535h40q105 0 185.5 44.5t80.5 121.5q0 90 -90 90t-150 -70t-87 -184q18 -2 21 -2zM642 793q-103 0 -187 -125.5t-84 -327.5q0 -162 110 -162q69 0 122 61.5t65 149.5l63 379q-41 25 -89 25zM1360 307q104 -53 104 -125t-78 -129q-122 -84 -303 -84q-123 0 -210 53.5
t-130 120.5q-74 -84 -156.5 -129t-187.5 -45q-104 0 -204.5 50.5t-100.5 293.5q0 289 160.5 486.5t407.5 197.5q86 0 147 -24.5t131 -77.5q124 84 193 93t127 9q125 0 204.5 -73t79.5 -187q0 -202 -155.5 -284t-368.5 -82h-26q-27 0 -44 2v-13q0 -86 51 -135t115 -49
q143 0 244 131z" />
    <glyph glyph-name="ccedilla" unicode="&#xe7;" horiz-adv-x="923" 
d="M838 187q0 -112 -112 -162t-206 -54q-33 -38 -33 -64q0 -27 11.5 -42t36 -46t24.5 -84q0 -99 -71.5 -149.5t-145.5 -50.5q-123 0 -123 82q0 37 27 74q26 -15 66 -15t55.5 18t15.5 38q0 28 -24.5 61t-24.5 66q0 66 51 121q-151 26 -221 135t-70 248q0 276 148 455t393 179
q190 0 266 -118q85 -140 -108 -217q-29 68 -68 96t-103 28q-121 0 -188 -123t-67 -303q2 -94 47 -137t104 -43q120 0 209 125q111 -45 111 -118z" />
    <glyph glyph-name="egrave" unicode="&#xe8;" horiz-adv-x="985" 
d="M410 535h30q107 0 163 32q104 59 104 134q-1 90 -91 90t-150 -70t-87 -184q17 -2 31 -2zM526 176q143 0 244 131q104 -53 104 -129q0 -111 -193 -182q-71 -27 -185 -27q-209 0 -314 124q-86 102 -88 284q0 261 154 441t409 179q137 -1 217 -73t80 -187q0 -202 -180 -297
q-131 -69 -344 -69h-37q-16 0 -33 2v-13q0 -86 51 -135t115 -49zM674 1102q-66 0 -105 53l-182 238q29 25 73 45t84 20q72 0 115 -78l134 -241q-53 -37 -119 -37z" />
    <glyph glyph-name="eacute" unicode="&#xe9;" horiz-adv-x="985" 
d="M410 535h30q107 0 163 32q104 59 104 134q-1 90 -91 90t-150 -70t-87 -184q17 -2 31 -2zM526 176q143 0 244 131q104 -53 104 -129q0 -111 -193 -182q-71 -27 -185 -27q-209 0 -314 124q-86 102 -88 284q0 261 154 441t409 179q137 -1 217 -73t80 -187q0 -202 -180 -297
q-131 -69 -344 -69h-37q-16 0 -33 2v-13q0 -86 51 -135t115 -49zM605 1102q-33 0 -67 12t-51 29l187 235q60 80 139 80q45 0 85 -22t60 -47l-235 -234q-53 -53 -118 -53z" />
    <glyph glyph-name="ecircumflex" unicode="&#xea;" horiz-adv-x="985" 
d="M410 535h30q107 0 163 32q104 59 104 134q-1 90 -91 90t-150 -70t-87 -184q17 -2 31 -2zM526 176q143 0 244 131q104 -53 104 -129q0 -111 -193 -182q-71 -27 -185 -27q-209 0 -314 124q-86 102 -88 284q0 261 154 441t409 179q137 -1 217 -73t80 -187q0 -202 -180 -297
q-131 -69 -344 -69h-37q-16 0 -33 2v-13q0 -86 51 -135t115 -49zM858 1102q-40 0 -66 10t-44 43l-72 121l-137 -133q-42 -39 -102 -39t-95 33l221 256q51 59 142 59t118 -59l127 -263q-53 -28 -92 -28z" />
    <glyph glyph-name="edieresis" unicode="&#xeb;" horiz-adv-x="985" 
d="M410 535h30q107 0 163 32q104 59 104 134q-1 90 -91 90t-150 -70t-87 -184q17 -2 31 -2zM526 176q143 0 244 131q104 -53 104 -129q0 -111 -193 -182q-71 -27 -185 -27q-209 0 -314 124q-86 102 -88 284q0 261 154 441t409 179q137 -1 217 -73t80 -187q0 -202 -180 -297
q-131 -69 -344 -69h-37q-16 0 -33 2v-13q0 -86 51 -135t115 -49zM1010 1278q0 -60 -41 -98t-99 -39q-58 0 -87 35q-30 35 -29 75q0 80 41 119t98 39t87 -35q30 -36 30 -96zM621 1278q0 -60 -41 -98q-40 -38 -98 -39q-58 0 -88 35t-29 75q0 80 41 119t98 39t87 -35
q30 -36 30 -96z" />
    <glyph glyph-name="igrave" unicode="&#xec;" horiz-adv-x="503" 
d="M80 125q0 23 4 45l131 799q50 8 115 8t101 -40q36 -39 36 -81t-4 -68l-90 -540q-8 -46 -8 -114t20 -126q-61 -35 -143 -36t-122 32t-40 121zM389 1102q-66 0 -104 53l-183 238q29 25 73 45t84 20q73 0 116 -78l133 -241q-53 -37 -119 -37z" />
    <glyph glyph-name="iacute" unicode="&#xed;" horiz-adv-x="503" 
d="M80 125q0 23 4 45l131 799q50 8 115 8t101 -40q36 -39 36 -81t-4 -68l-90 -540q-8 -46 -8 -114t20 -126q-61 -35 -143 -36t-122 32t-40 121zM318 1102q-32 0 -66 12t-51 29l186 235q60 80 140 80q45 0 85 -22t60 -47l-236 -234q-53 -53 -118 -53z" />
    <glyph glyph-name="icircumflex" unicode="&#xee;" horiz-adv-x="503" 
d="M80 125q0 23 4 45l131 799q50 8 115 8t101 -40q36 -39 36 -81t-4 -68l-90 -540q-8 -46 -8 -114t20 -126q-61 -35 -143 -36t-122 32t-40 121zM565 1102q-39 0 -65 10t-45 43l-72 121l-137 -133q-42 -39 -102 -39t-95 33l221 256q51 59 142 59t118 -59l127 -263
q-53 -28 -92 -28z" />
    <glyph glyph-name="idieresis" unicode="&#xef;" horiz-adv-x="503" 
d="M80 125q0 23 4 45l131 799q50 8 115 8t101 -40q36 -39 36 -81t-4 -68l-90 -540q-8 -46 -8 -114t20 -126q-61 -35 -143 -36t-122 32t-40 121zM711 1278q0 -60 -41 -98q-40 -38 -98 -39q-58 0 -88 35t-29 75q0 80 41 119t98 39t87 -35q30 -36 30 -96zM322 1278
q0 -60 -41 -98t-99 -39q-58 0 -87 35q-30 35 -29 75q0 80 40 119t98 39t88 -35q30 -36 30 -96z" />
    <glyph glyph-name="eth" unicode="&#xf0;" horiz-adv-x="1054" 
d="M578 690q-244 0 -244 -306q0 -95 39 -151.5t117 -56.5t147.5 68t83.5 241q8 78 8 136q-55 69 -151 69zM1001 715q0 -378 -145 -560t-397 -182t-313.5 148.5t-61.5 270.5t41 217.5t136.5 184.5t270.5 89q70 0 113 -20.5t88 -55.5q0 141 -94 264l-170 -106l-86 135l135 84
q-109 70 -235 82q-4 88 38.5 124.5t100.5 36.5q21 0 51 -6q135 -29 246 -112l174 110l86 -135l-143 -90q165 -203 165 -479z" />
    <glyph glyph-name="ntilde" unicode="&#xf1;" horiz-adv-x="1048" 
d="M748 997q92 0 149 -41q100 -72 100 -235q0 -64 -14 -143l-96 -578h-277l97 578q8 46 8 88t-22 76q-21 32 -87 32t-114 -55t-64 -141l-96 -578h-277l160 969q47 8 103 8q112 0 145 -109q119 129 285 129zM511 1386q62 0 103 -13t82 -36q40 -22 70 -22t60 17t69 71
q49 -25 62 -51q33 -67 -5 -119q-33 -50 -94 -69t-118 -19q-57 1 -102 25q-44 24 -66 35t-50 12q-77 0 -139 -84q-47 29 -60 51t-13 56q-1 61 69 103q70 43 132 43z" />
    <glyph glyph-name="ograve" unicode="&#xf2;" horiz-adv-x="1054" 
d="M733 596q0 98 -38 144t-90 46q-105 0 -171 -110q-67 -110 -67 -311q0 -94 37 -141q38 -46 90 -46t96 28q43 28 75 81t50 132t18 177zM490 -31q-215 0 -313 124q-81 103 -82 256q-2 291 141 469q143 179 391 179q197 0 295 -124q84 -104 86 -283q0 -121 -32 -234
q-65 -234 -263 -336q-99 -52 -223 -51zM682 1102q-66 0 -104 53l-183 238q29 25 73 45t84 20q71 0 116 -78l133 -241q-53 -37 -119 -37z" />
    <glyph glyph-name="oacute" unicode="&#xf3;" horiz-adv-x="1054" 
d="M733 596q0 98 -38 144t-90 46q-105 0 -171 -110q-67 -110 -67 -311q0 -94 37 -141q38 -46 90 -46t96 28q43 28 75 81t50 132t18 177zM490 -31q-215 0 -313 124q-81 103 -82 256q-2 291 141 469q143 179 391 179q197 0 295 -124q84 -104 86 -283q0 -121 -32 -234
q-65 -234 -263 -336q-99 -52 -223 -51zM619 1102q-33 0 -67 12t-50 29l186 235q60 80 140 80q44 0 84 -22t61 -47l-236 -234q-53 -53 -118 -53z" />
    <glyph glyph-name="ocircumflex" unicode="&#xf4;" horiz-adv-x="1054" 
d="M733 596q0 98 -38 144t-90 46q-105 0 -171 -110q-67 -110 -67 -311q0 -94 37 -141q38 -46 90 -46t96 28q43 28 75 81t50 132t18 177zM490 -31q-215 0 -313 124q-81 103 -82 256q-2 291 141 469q143 179 391 179q197 0 295 -124q84 -104 86 -283q0 -121 -32 -234
q-65 -234 -263 -336q-99 -52 -223 -51zM846 1102q-39 0 -66 10t-45 43l-71 121l-138 -133q-42 -39 -102 -39q-59 0 -94 33l221 256q51 59 142 59t118 -59l127 -263q-53 -28 -92 -28z" />
    <glyph glyph-name="otilde" unicode="&#xf5;" horiz-adv-x="1054" 
d="M733 596q0 98 -38 144t-90 46q-105 0 -171 -110q-67 -110 -67 -311q0 -94 37 -141q38 -46 90 -46t96 28q43 28 75 81t50 132t18 177zM490 -31q-215 0 -313 124q-81 103 -82 256q-2 291 141 469q143 179 391 179q197 0 295 -124q84 -104 86 -283q0 -121 -32 -234
q-65 -234 -263 -336q-99 -52 -223 -51zM301 1240q0 61 70 103q70 43 145 43t121 -24q47 -24 69 -36t52 -11q30 0 60 17t69 71q49 -25 62 -51q33 -67 -5 -119q-34 -50 -118 -77q-38 -11 -95 -11q-57 1 -101 25t-66 35t-50 12q-77 0 -139 -84q-47 29 -61 51q-13 24 -13 56z
" />
    <glyph glyph-name="odieresis" unicode="&#xf6;" horiz-adv-x="1054" 
d="M733 596q0 98 -38 144t-90 46q-105 0 -171 -110q-67 -110 -67 -311q0 -94 37 -141q38 -46 90 -46t96 28q43 28 75 81t50 132t18 177zM490 -31q-215 0 -313 124q-81 103 -82 256q-2 291 141 469q143 179 391 179q197 0 295 -124q84 -104 86 -283q0 -121 -32 -234
q-65 -234 -263 -336q-99 -52 -223 -51zM985 1278q0 -60 -41 -98t-98 -39q-57 0 -87 35t-30 75q0 80 41 119t98 39t87 -35q30 -36 30 -96zM596 1278q0 -60 -41 -98t-98 -39q-57 0 -87 35t-30 75q0 80 41 119t98 39t87 -35q30 -36 30 -96z" />
    <glyph glyph-name="divide" unicode="&#xf7;" horiz-adv-x="1124" 
d="M805 1065q0 -84 -45.5 -126t-105.5 -42t-93 38t-33 83q0 84 46.5 126t105.5 42t92 -38t33 -83zM686 352q0 -84 -45 -126t-105 -42t-93 38t-33 83q0 84 46 126t105.5 42t92 -38t32.5 -83zM1028 575h-878l38 224h879z" />
    <glyph glyph-name="oslash" unicode="&#xf8;" horiz-adv-x="1054" 
d="M714.5 419q18.5 79 18.5 143t-4 85l-297 -450q27 -19 71 -19t87 27.5t74.5 81t50 132.5zM595 786q-42 0 -85 -27.5t-93 -110.5t-50 -283q0 -28 4 -50l297 451q-31 20 -73 20zM94 377q0 265 142.5 442.5t390.5 177.5q96 0 174 -32l78 118l100 -59l-82 -123
q111 -111 111 -311q0 -262 -136.5 -441.5t-396.5 -179.5q-96 0 -174 31l-96 -145l-101 59l99 149q-109 105 -109 314z" />
    <glyph glyph-name="ugrave" unicode="&#xf9;" horiz-adv-x="1054" 
d="M372 -31q-104 0 -168 45q-148 107 -91 383l94 572q50 8 115 8t101 -40q36 -39 36 -81t-4 -68l-66 -391q-6 -35 -6 -81t23 -92q22 -46 68 -46q110 0 170 136q17 40 24 83l96 572q50 8 114 8t100 -40q36 -39 36 -81t-4 -68l-90 -540q-24 -125 22 -240q-61 -35 -151 -37
q-139 0 -150 135q-41 -51 -103 -94t-166 -43zM629 1102q-66 0 -105 53l-182 238q29 25 73 45t84 20q72 0 115 -78l134 -241q-53 -37 -119 -37z" />
    <glyph glyph-name="uacute" unicode="&#xfa;" horiz-adv-x="1054" 
d="M372 -31q-104 0 -168 45q-148 107 -91 383l94 572q50 8 115 8t101 -40q36 -39 36 -81t-4 -68l-66 -391q-6 -35 -6 -81t23 -92q22 -46 68 -46q110 0 170 136q17 40 24 83l96 572q50 8 114 8t100 -40q36 -39 36 -81t-4 -68l-90 -540q-24 -125 22 -240q-61 -35 -151 -37
q-139 0 -150 135q-41 -51 -103 -94t-166 -43zM586 1102q-32 0 -66 12q-35 12 -51 29l186 235q60 80 140 80q45 0 85 -22t60 -47l-235 -234q-53 -53 -119 -53z" />
    <glyph glyph-name="ucircumflex" unicode="&#xfb;" horiz-adv-x="1054" 
d="M372 -31q-104 0 -168 45q-148 107 -91 383l94 572q50 8 115 8t101 -40q36 -39 36 -81t-4 -68l-66 -391q-6 -35 -6 -81t23 -92q22 -46 68 -46q110 0 170 136q17 40 24 83l96 572q50 8 114 8t100 -40q36 -39 36 -81t-4 -68l-90 -540q-24 -125 22 -240q-61 -35 -151 -37
q-139 0 -150 135q-41 -51 -103 -94t-166 -43zM835 1102q-39 0 -65 10t-45 43l-72 121l-137 -133q-42 -39 -85 -39q-77 0 -112 33l222 256q51 59 142 59t118 -59l127 -263q-54 -28 -93 -28z" />
    <glyph glyph-name="udieresis" unicode="&#xfc;" horiz-adv-x="1054" 
d="M372 -31q-104 0 -168 45q-148 107 -91 383l94 572q50 8 115 8t101 -40q36 -39 36 -81t-4 -68l-66 -391q-6 -35 -6 -81t23 -92q22 -46 68 -46q110 0 170 136q17 40 24 83l96 572q50 8 114 8t100 -40q36 -39 36 -81t-4 -68l-90 -540q-24 -125 22 -240q-61 -35 -151 -37
q-139 0 -150 135q-41 -51 -103 -94t-166 -43zM965 1278q0 -60 -41 -98q-40 -38 -98 -39q-58 0 -88 35t-29 75q0 80 41 119t98 39t87 -35q30 -36 30 -96zM458 1409q58 0 88 -35q30 -36 29 -96t-41 -98t-98 -39q-58 0 -87 35q-30 35 -30 75q0 80 41 119q40 39 98 39z" />
    <glyph glyph-name="yacute" unicode="&#xfd;" horiz-adv-x="940" 
d="M228 977q60 0 86 -15q68 -37 83 -178l43 -520l217 527q78 186 215 186q83 0 134 -29l-502 -1065q-35 -72 -68 -135q-112 -213 -321 -213q-119 0 -170 32q-50 33 -69 59t-19 61q0 74 96 137q52 -73 132 -75q80 -1 119 46q38 47 87 158l16 37h-57l-154 958q72 29 132 29z
M552 1102q-32 0 -67 12t-51 29l187 235q60 80 139 80q45 0 85 -22t60 -47l-235 -234q-52 -53 -118 -53z" />
    <glyph glyph-name="thorn" unicode="&#xfe;" horiz-adv-x="1069" 
d="M462 174q125 0 200 116.5t75 321.5q0 92 -36.5 135.5t-82.5 43.5q-76 0 -126.5 -60t-63.5 -131l-68 -399q38 -27 102 -27zM727 997q295 -1 295 -415q0 -104 -36 -219t-101.5 -202t-157.5 -139.5t-200 -52.5t-195 60l-78 -475h-270l309 1890q50 8 114 8t100 -40t36 -82
t-4 -66l-64 -373q111 106 252 106z" />
    <glyph glyph-name="ydieresis" unicode="&#xff;" horiz-adv-x="940" 
d="M228 977q60 0 86 -15q68 -37 83 -178l43 -520l217 527q78 186 215 186q83 0 134 -29l-502 -1065q-35 -72 -68 -135q-112 -213 -321 -213q-119 0 -170 32q-50 33 -69 59t-19 61q0 74 96 137q52 -73 132 -75q80 -1 119 46q38 47 87 158l16 37h-57l-154 958q72 29 132 29z
M893 1278q0 -60 -41 -98t-98 -39q-57 0 -87 35t-30 75q0 80 41 119t98 39t87 -35q30 -36 30 -96zM504 1278q0 -60 -41 -98t-99 -39q-58 0 -86 35q-30 35 -30 75q0 80 41 119t98 39t87 -35q30 -36 30 -96z" />
    <glyph glyph-name="Amacron" unicode="&#x100;" horiz-adv-x="1224" 
d="M784 514l-71 541l-232 -541h303zM618 1348q72 32 137 32t109 -30t58 -107l221 -1243h-283l-43 293h-428l-125 -293h-284zM946 1720q61 0 87 -28t25 -74q-1 -45 -16 -78h-481q-61 0 -87 29t-24 73t15 78h481z" />
    <glyph glyph-name="amacron" unicode="&#x101;" horiz-adv-x="1056" 
d="M642 793q-48 0 -97 -32q-104 -68 -151 -233q-24 -84 -23 -188q0 -162 110 -162q70 0 121 61t66 150l63 379q-41 25 -89 25zM377 -31q-227 0 -269 219q-39 202 26 394q82 245 294 359q104 56 210 56q217 0 390 -104l-106 -645q-24 -125 22 -240q-61 -35 -151 -37
q-139 0 -150 135q-106 -137 -266 -137zM891 1343q61 -1 87 -29t24 -72t-15 -79h-481q-61 0 -87 29t-25 73t16 78h481z" />
    <glyph glyph-name="Abreve" unicode="&#x102;" horiz-adv-x="1224" 
d="M784 514l-71 541l-232 -541h303zM618 1348q72 32 137 32t109 -30t58 -107l221 -1243h-283l-43 293h-428l-125 -293h-284zM943 1801q22 13 65 13t94 -32q-92 -289 -346 -289q-137 0 -203 79t-57 220q40 20 90 22q49 0 63 -18q15 -18 23 -59q19 -90 101 -89q83 1 126 93
q23 47 44 60z" />
    <glyph glyph-name="abreve" unicode="&#x103;" horiz-adv-x="1056" 
d="M642 793q-48 0 -97 -32q-104 -68 -151 -233q-24 -84 -23 -188q0 -162 110 -162q70 0 121 61t66 150l63 379q-41 25 -89 25zM377 -31q-227 0 -269 219q-39 202 26 394q82 245 294 359q104 56 210 56q217 0 390 -104l-106 -645q-24 -125 22 -240q-61 -35 -151 -37
q-139 0 -150 135q-106 -137 -266 -137zM687 1106q-136 0 -202 80t-57 229q46 23 94 23t60 -18q14 -18 21 -64q7 -45 33 -70q26 -24 64 -24t70 22q30 22 56 74q26 53 47 66q22 13 68 14t95 -33q-49 -151 -131 -225t-218 -74z" />
    <glyph glyph-name="Aogonek" unicode="&#x104;" horiz-adv-x="1224" 
d="M784 514l-71 541l-232 -541h303zM978.5 -114.5q-67.5 -68.5 -67.5 -130.5t61 -62q28 0 75 43q34 -39 34 -75t-18.5 -57.5t-47 -34.5t-61 -19.5t-83 -6.5t-103.5 42t-53 127t60.5 161t139.5 127h-55l-43 293h-428l-125 -293h-284l638 1348q72 32 137 32t108.5 -30.5
t58.5 -106.5l221 -1243q-97 -46 -164.5 -114.5z" />
    <glyph glyph-name="aogonek" unicode="&#x105;" horiz-adv-x="1056" 
d="M642 793q-103 0 -187 -125.5t-84 -327.5q0 -162 110 -162q69 0 122 61.5t65 149.5l63 379q-41 25 -89 25zM729 -246q0 -61 47 -61t92 43q35 -40 35 -76q0 -35 -18.5 -56.5t-47 -34.5t-61.5 -19.5t-83.5 -6.5t-103 42t-52.5 120q0 143 190 277q-76 25 -84 124
q-106 -137 -266 -137q-226 0 -254.5 143.5t-28.5 247.5t40 222t160.5 266.5t367.5 148.5q193 0 366 -104l-106 -645q-24 -125 22 -240q-215 -143 -215 -254z" />
    <glyph glyph-name="Cacute" unicode="&#x106;" horiz-adv-x="1204" 
d="M631 -35q-240 0 -369 157t-129 415q0 149 43 303t130 278t222 202q135 79 295 79t249 -49q128 -71 152 -161q5 -24 5 -46q0 -123 -148 -156q-37 86 -96 135t-155 49q-280 0 -378 -377q-32 -124 -32 -238t16 -171t48 -99q71 -93 184 -91q194 0 352 180q100 -74 99 -137
q-1 -62 -33 -102q-72 -90 -242 -142q-92 -29 -213 -29zM799 1487q-69 0 -115 72l231 186q60 47 109 47t83 -34t50 -75l-258 -163q-55 -33 -100 -33z" />
    <glyph glyph-name="cacute" unicode="&#x107;" horiz-adv-x="923" 
d="M838 187q0 -116 -174 -189q-68 -29 -179 -29q-204 0 -306 124q-83 101 -85 284q0 263 149 442q149 178 392 178q192 0 266 -118q85 -140 -108 -217q-29 68 -68 96t-103 28q-121 -1 -188 -123q-67 -123 -67 -303q2 -94 47 -137t104 -43q120 0 209 125q111 -45 111 -118z
M576 1102q-32 0 -66 12t-51 29l186 235q60 80 140 80q45 0 85 -22t60 -47l-236 -234q-53 -53 -118 -53z" />
    <glyph glyph-name="Ccircumflex" unicode="&#x108;" horiz-adv-x="1204" 
d="M631 -35q-240 0 -369 157t-129 415q0 149 43 303t130 278t222 202q135 79 295 79t249 -49q128 -71 152 -161q5 -24 5 -46q0 -123 -148 -156q-37 86 -96 135t-155 49q-280 0 -378 -377q-32 -124 -32 -238t16 -171t48 -99q71 -93 184 -91q194 0 352 180q100 -74 99 -137
q-1 -62 -33 -102q-72 -90 -242 -142q-92 -29 -213 -29zM1051 1483q-74 0 -113 55l-64 92l-114 -106q-42 -39 -107 -39t-100 33l209 219q59 59 143 59t119 -65l121 -220q-54 -28 -94 -28z" />
    <glyph glyph-name="ccircumflex" unicode="&#x109;" horiz-adv-x="923" 
d="M838 187q0 -116 -174 -189q-68 -29 -179 -29q-204 0 -306 124q-83 101 -85 284q0 263 149 442q149 178 392 178q192 0 266 -118q85 -140 -108 -217q-29 68 -68 96t-103 28q-121 -1 -188 -123q-67 -123 -67 -303q2 -94 47 -137t104 -43q120 0 209 125q111 -45 111 -118z
M837 1102q-39 0 -65 10t-45 43l-72 121l-137 -133q-42 -39 -102 -39q-59 0 -94 33l221 256q51 59 142 59t118 -59l127 -263q-54 -28 -93 -28z" />
    <glyph glyph-name="Cdotaccent" unicode="&#x10a;" horiz-adv-x="1204" 
d="M631 -35q-240 0 -369 157t-129 415q0 149 43 303t130 278t222 202q135 79 295 79t249 -49q128 -71 152 -161q5 -24 5 -46q0 -123 -148 -156q-37 86 -96 135t-155 49q-280 0 -378 -377q-32 -124 -32 -238t16 -171t48 -99q71 -93 184 -91q194 0 352 180q100 -74 99 -137
q-1 -62 -33 -102q-72 -90 -242 -142q-92 -29 -213 -29zM995 1659q0 -86 -42 -125t-102 -39t-90 36t-30 77q0 86 42 125q43 39 103 39t90 -36t29 -77z" />
    <glyph glyph-name="cdotaccent" unicode="&#x10b;" horiz-adv-x="923" 
d="M838 187q0 -116 -174 -189q-68 -29 -179 -29q-204 0 -306 124q-83 101 -85 284q0 263 149 442q149 178 392 178q192 0 266 -118q85 -140 -108 -217q-29 68 -68 96t-103 28q-121 -1 -188 -123q-67 -123 -67 -303q2 -94 47 -137t104 -43q120 0 209 125q111 -45 111 -118z
M797 1305q0 -86 -42 -125q-43 -39 -103 -39t-90 36t-30 76q0 86 42 125t102 39q60 1 91 -35q30 -36 30 -77z" />
    <glyph glyph-name="Ccaron" unicode="&#x10c;" horiz-adv-x="1204" 
d="M631 -35q-240 0 -369 157t-129 415q0 149 43 303t130 278t222 202q135 79 295 79t249 -49q128 -71 152 -161q5 -24 5 -46q0 -123 -148 -156q-37 86 -96 135t-155 49q-280 0 -378 -377q-32 -124 -32 -238t16 -171t48 -99q71 -93 184 -91q194 0 352 180q100 -74 99 -137
q-1 -62 -33 -102q-72 -90 -242 -142q-92 -29 -213 -29zM676 1796q38 0 62 -12t46 -43l64 -92l115 106q46 39 110 39t101 -33l-209 -219q-59 -59 -142 -59q-49 0 -75 16t-46 49l-120 219q55 29 94 29z" />
    <glyph glyph-name="ccaron" unicode="&#x10d;" horiz-adv-x="923" 
d="M838 187q0 -116 -174 -189q-68 -29 -179 -29q-204 0 -306 124q-83 101 -85 284q0 263 149 442q149 178 392 178q192 0 266 -118q85 -140 -108 -217q-29 68 -68 96t-103 28q-121 -1 -188 -123q-67 -123 -67 -303q2 -94 47 -137t104 -43q120 0 209 125q111 -45 111 -118z
M497 1452q39 0 63 -10t42 -43l72 -121l137 133q42 39 104 39t97 -33l-221 -256q-51 -59 -142 -59t-119 59l-127 262q56 29 94 29z" />
    <glyph glyph-name="Dcaron" unicode="&#x10e;" horiz-adv-x="1259" 
d="M662 1384q297 0 435 -148t138 -402q0 -352 -176 -571q-94 -119 -245 -191t-368 -72h-383l226 1358q189 26 373 26zM492 217q221 0 340 180t116 459q0 208 -157 285q-84 41 -261 18l-155 -942h117zM537 1796q39 0 63 -12t45 -43l64 -92l114 106q46 39 111 39t100 -33
l-209 -219q-59 -59 -143 -59t-119 65l-121 219q56 29 95 29z" />
    <glyph glyph-name="dcaron" unicode="&#x10f;" horiz-adv-x="1325" 
d="M379 340q0 -162 117 -162q74 0 128 63t66 148l64 379q-38 23 -107 25q-115 0 -191 -116t-77 -337zM623 997q103 0 163 -32l80 479q50 8 114 8q66 0 98 -40t32 -82t-4 -66l-168 -1016q-6 -31 -6 -102t29 -138q-61 -35 -152 -37q-137 0 -150 135q-49 -72 -123 -104
t-153 -33q-78 0 -134 28q-152 76 -153 344q-2 268 151 459q73 91 173 144t203 53zM1253 993h-26q-16 0 -31 4l47 287q25 168 151 168q64 0 95 -6l-80 -326q-33 -127 -156 -127z" />
    <glyph glyph-name="Dcroat" unicode="&#x110;" horiz-adv-x="1259" 
d="M492 217q221 0 340 180t116 459q0 208 -157 285q-84 41 -261 18l-61 -364h246l-31 -181h-244l-65 -397h117zM662 1384q297 0 435 -148t138 -402q0 -352 -176 -571q-94 -119 -245 -191t-368 -72h-383l103 614h-123l29 181h123l94 563q189 26 373 26z" />
    <glyph glyph-name="dcroat" unicode="&#x111;" horiz-adv-x="1067" 
d="M635 752q-115 0 -188.5 -100.5t-73.5 -311.5q0 -162 114 -162t152.5 84t44.5 127l57 338q-42 25 -106 25zM926 148q0 -70 28 -140q-65 -37 -151 -37q-139 0 -150 135q-49 -72 -123.5 -104.5t-146.5 -32.5q-295 0 -295 367q0 261 151 440.5t392 179.5q84 0 143 -32l29 178
h-367l31 180h367l26 162q50 8 114 8t97 -40t33 -99l-2 -31h147l-30 -180h-146l-141 -854q-6 -30 -6 -100z" />
    <glyph glyph-name="Emacron" unicode="&#x112;" horiz-adv-x="987" 
d="M739 219q172 1 172 -129q0 -62 -14 -90h-834l228 1372h794q-4 -126 -47 -172q-43 -47 -151 -47h-357l-55 -338h399l-36 -219h-400l-61 -377h362zM901 1720q61 0 87 -28t25 -74q-1 -45 -16 -78h-481q-61 0 -87 29q-27 29 -25 73t16 78h481z" />
    <glyph glyph-name="emacron" unicode="&#x113;" horiz-adv-x="985" 
d="M410 535h30q107 0 163 32q104 59 104 134q-1 90 -91 90t-150 -70t-87 -184q17 -2 31 -2zM526 176q143 0 244 131q104 -53 104 -129q0 -111 -193 -182q-71 -27 -185 -27q-209 0 -314 124q-86 102 -88 284q0 261 154 441t409 179q137 -1 217 -73t80 -187q0 -202 -180 -297
q-131 -69 -344 -69h-37q-16 0 -33 2v-13q0 -86 51 -135t115 -49zM825 1343q61 -1 87 -29t25 -72t-15 -79h-482q-61 0 -87 29q-27 28 -25 72t16 79h481z" />
    <glyph glyph-name="Ebreve" unicode="&#x114;" horiz-adv-x="987" 
d="M739 219q172 1 172 -129q0 -62 -14 -90h-834l228 1372h794q-4 -126 -47 -172q-43 -47 -151 -47h-357l-55 -338h399l-36 -219h-400l-61 -377h362zM876 1801q22 13 64 13t94 -32q-92 -289 -346 -289q-137 0 -203 79t-57 220q40 20 90 22q50 0 64 -18t22 -59q18 -90 101 -89
t126 93q23 47 45 60z" />
    <glyph glyph-name="ebreve" unicode="&#x115;" horiz-adv-x="985" 
d="M410 535h30q107 0 163 32q104 59 104 134q-1 90 -91 90t-150 -70t-87 -184q17 -2 31 -2zM526 176q143 0 244 131q104 -53 104 -129q0 -111 -193 -182q-71 -27 -185 -27q-209 0 -314 124q-86 102 -88 284q0 261 154 441t409 179q137 -1 217 -73t80 -187q0 -202 -180 -297
q-131 -69 -344 -69h-37q-16 0 -33 2v-13q0 -86 51 -135t115 -49zM644 1106q-136 0 -202 80t-57 229q45 23 93 23t62 -18t20 -64q7 -45 33 -70q27 -24 65 -24t69 22t57 74q26 53 46 66q22 13 68 14t95 -33q-49 -151 -131 -225t-218 -74z" />
    <glyph glyph-name="Edotaccent" unicode="&#x116;" horiz-adv-x="987" 
d="M739 219q172 1 172 -129q0 -62 -14 -90h-834l228 1372h794q-4 -126 -47 -172q-43 -47 -151 -47h-357l-55 -338h399l-36 -219h-400l-61 -377h362zM840 1659q0 -86 -42 -125t-102 -39t-91 36q-30 36 -30 77q0 86 42 125q43 39 103 39t90 -36t30 -77z" />
    <glyph glyph-name="edotaccent" unicode="&#x117;" horiz-adv-x="985" 
d="M410 535h30q107 0 163 32q104 59 104 134q-1 90 -91 90t-150 -70t-87 -184q17 -2 31 -2zM526 176q143 0 244 131q104 -53 104 -129q0 -111 -193 -182q-71 -27 -185 -27q-209 0 -314 124q-86 102 -88 284q0 261 154 441t409 179q137 -1 217 -73t80 -187q0 -202 -180 -297
q-131 -69 -344 -69h-37q-16 0 -33 2v-13q0 -86 51 -135t115 -49zM811 1305q0 -86 -42 -125t-102 -39t-90 36t-30 76q0 86 42 125t102 39q60 1 90 -35t30 -77z" />
    <glyph glyph-name="Eogonek" unicode="&#x118;" horiz-adv-x="987" 
d="M733 -114q-67 -68 -67 -130q0 -63 60 -63q28 0 75 43q35 -40 35 -76q0 -35 -18.5 -56.5t-47.5 -34.5t-61.5 -19.5t-83 -6.5t-103.5 42.5t-53 126.5q0 85 60.5 161t140.5 127h-607l228 1372h794q-4 -126 -47 -172.5t-151 -46.5h-357l-55 -338h399l-36 -219h-400l-61 -377
h362q94 0 133 -33.5t39 -95.5t-14 -90q-97 -46 -164 -114z" />
    <glyph glyph-name="eogonek" unicode="&#x119;" horiz-adv-x="985" 
d="M400 535h40q106 0 186.5 45t80.5 121q-1 90 -91 90t-150 -70t-87 -184q18 -2 21 -2zM305 -295q0 135 174 264q-201 4 -293 117.5t-92 290.5q0 260 153 440t410 180q138 0 217.5 -73t79.5 -187q0 -202 -155.5 -284t-368.5 -82h-26q-27 0 -44 2v-13q0 -86 51 -135t115 -49
q143 0 244 131q104 -53 104 -125t-77 -129q-47 -31 -88 -47q-211 -146 -211 -252q0 -61 45.5 -61t93.5 43q35 -40 35 -76q0 -35 -18.5 -56.5t-47 -34.5t-61.5 -19.5t-83.5 -6.5t-103.5 42.5t-53 119.5z" />
    <glyph glyph-name="Ecaron" unicode="&#x11a;" horiz-adv-x="987" 
d="M739 219q172 1 172 -129q0 -62 -14 -90h-834l228 1372h794q-4 -126 -47 -172q-43 -47 -151 -47h-357l-55 -338h399l-36 -219h-400l-61 -377h362zM533 1796q39 0 63 -12t45 -43l64 -92l114 106q46 39 111 39t100 -33l-209 -219q-59 -59 -143 -59t-119 65l-121 219
q56 29 95 29z" />
    <glyph glyph-name="ecaron" unicode="&#x11b;" horiz-adv-x="985" 
d="M410 535h30q107 0 163 32q104 59 104 134q-1 90 -91 90t-150 -70t-87 -184q17 -2 31 -2zM526 176q143 0 244 131q104 -53 104 -129q0 -111 -193 -182q-71 -27 -185 -27q-209 0 -314 124q-86 102 -88 284q0 261 154 441t409 179q137 -1 217 -73t80 -187q0 -202 -180 -297
q-131 -69 -344 -69h-37q-16 0 -33 2v-13q0 -86 51 -135t115 -49zM493 1452q39 0 63 -10t42 -43l72 -121l137 133q42 39 104 39t97 -33l-222 -256q-51 -59 -142 -59t-118 59l-127 262q56 29 94 29z" />
    <glyph glyph-name="Gcircumflex" unicode="&#x11c;" horiz-adv-x="1273" 
d="M641 -35q-250 0 -379 157t-129 415q0 149 43 303t130 278t222 202q135 79 295 79t249 -49q128 -71 152 -161q5 -24 5 -46q0 -123 -148 -156q-37 86 -96 135t-155 49q-280 0 -378 -377q-32 -124 -32 -238t16 -171t48 -99q71 -93 188 -92t219 76l41 248h-213l35 215h475
l-92 -559q-143 -159 -371 -198q-66 -11 -125 -11zM1051 1483q-74 0 -113 55l-64 92l-114 -106q-42 -39 -107 -39t-100 33l209 219q59 59 143 59t119 -65l121 -220q-54 -28 -94 -28z" />
    <glyph glyph-name="gcircumflex" unicode="&#x11d;" horiz-adv-x="1067" 
d="M670 997q199 0 372 -104l-135 -817q-47 -283 -180 -412t-344 -129q-195 0 -283 72q-43 35 -56 59q-36 68 8 139q28 43 73 70q95 -129 258 -129q209 0 248 260l12 84q-101 -110 -261 -108q-151 1 -218 96q-68 96 -69 246q-2 285 164 479q165 194 411 194zM658 793
q-111 0 -196 -123t-83 -318q0 -162 117 -162q74 0 128 63t66 148l62 367q-42 25 -94 25zM911 1102q-39 0 -65 10t-45 43l-72 121l-137 -133q-42 -39 -85 -39q-77 0 -112 33l221 256q51 59 142 59t119 -59l127 -263q-54 -28 -93 -28z" />
    <glyph glyph-name="Gbreve" unicode="&#x11e;" horiz-adv-x="1273" 
d="M641 -35q-250 0 -379 157t-129 415q0 149 43 303t130 278t222 202q135 79 295 79t249 -49q128 -71 152 -161q5 -24 5 -46q0 -123 -148 -156q-37 86 -96 135t-155 49q-280 0 -378 -377q-32 -124 -32 -238t16 -171t48 -99q71 -93 188 -92t219 76l41 248h-213l35 215h475
l-92 -559q-143 -159 -371 -198q-66 -11 -125 -11zM1033 1801q22 13 65 13t94 -32q-92 -289 -346 -289q-137 0 -203 79t-57 220q40 20 90 22q49 0 63 -18q15 -18 23 -59q19 -90 101 -89q83 1 126 93q23 47 44 60z" />
    <glyph glyph-name="gbreve" unicode="&#x11f;" horiz-adv-x="1067" 
d="M670 997q199 0 372 -104l-135 -817q-47 -283 -180 -412t-344 -129q-195 0 -283 72q-43 35 -56 59q-36 68 8 139q28 43 73 70q95 -129 258 -129q209 0 248 260l12 84q-101 -110 -261 -108q-151 1 -218 96q-68 96 -69 246q-2 285 164 479q165 194 411 194zM658 793
q-111 0 -196 -123t-83 -318q0 -162 117 -162q74 0 128 63t66 148l62 367q-42 25 -94 25zM693 1106q-135 0 -201 80t-58 229q46 23 94 23t60 -18q14 -18 21 -64q7 -45 33 -70q26 -24 65 -24t69 22t57 74q26 53 47 66q22 13 67 14t95 -33q-49 -151 -131 -225t-218 -74z" />
    <glyph glyph-name="Gdotaccent" unicode="&#x120;" horiz-adv-x="1273" 
d="M641 -35q-250 0 -379 157t-129 415q0 149 43 303t130 278t222 202q135 79 295 79t249 -49q128 -71 152 -161q5 -24 5 -46q0 -123 -148 -156q-37 86 -96 135t-155 49q-280 0 -378 -377q-32 -124 -32 -238t16 -171t48 -99q71 -93 188 -92t219 76l41 248h-213l35 215h475
l-92 -559q-143 -159 -371 -198q-66 -11 -125 -11zM995 1659q0 -86 -42 -125t-102 -39t-90 36t-30 77q0 86 42 125q43 39 103 39t90 -36t29 -77z" />
    <glyph glyph-name="gdotaccent" unicode="&#x121;" horiz-adv-x="1067" 
d="M670 997q199 0 372 -104l-135 -817q-47 -283 -180 -412t-344 -129q-195 0 -283 72q-43 35 -56 59q-36 68 8 139q28 43 73 70q95 -129 258 -129q209 0 248 260l12 84q-101 -110 -261 -108q-151 1 -218 96q-68 96 -69 246q-2 285 164 479q165 194 411 194zM658 793
q-111 0 -196 -123t-83 -318q0 -162 117 -162q74 0 128 63t66 148l62 367q-42 25 -94 25zM850 1305q0 -86 -42 -125t-102 -39t-91 36q-30 36 -29 76q0 86 42 125t102 39q60 1 90 -35t30 -77z" />
    <glyph glyph-name="Gcommaaccent" unicode="&#x122;" horiz-adv-x="1273" 
d="M641 -35q-250 0 -379 157t-129 415q0 149 43 303t130 278t222 202q135 79 295 79t249 -49q128 -71 152 -161q5 -24 5 -46q0 -123 -148 -156q-37 86 -96 135t-155 49q-280 0 -378 -377q-32 -124 -32 -238t16 -171t48 -99q71 -93 188 -92t219 76l41 248h-213l35 215h475
l-92 -559q-143 -159 -371 -198q-66 -11 -125 -11zM621 -389q-57 -84 -134 -84t-102 16l125 252q59 115 160 115q62 0 121 -31z" />
    <glyph glyph-name="gcommaaccent" unicode="&#x123;" horiz-adv-x="1067" 
d="M670 997q199 0 372 -104l-135 -817q-47 -283 -180 -412t-344 -129q-195 0 -283 72q-43 35 -56 59q-36 68 8 139q28 43 73 70q95 -129 258 -129q209 0 248 260l12 84q-101 -110 -261 -108q-151 1 -218 96q-68 96 -69 246q-2 285 164 479q165 194 411 194zM658 793
q-111 0 -196 -123t-83 -318q0 -162 117 -162q74 0 128 63t66 148l62 367q-42 25 -94 25zM838 1204q-59 -116 -160 -114q-61 0 -121 30l170 269q29 43 70 68t125 12q25 -3 41 -13z" />
    <glyph glyph-name="Hcircumflex" unicode="&#x124;" horiz-adv-x="1243" 
d="M506 1340q35 -40 35 -81t-4 -67l-62 -377h449l92 557q50 8 115 8t100 -40t35 -81t-4 -67l-197 -1192h-277l99 594h-449l-98 -594h-277l228 1372q50 8 115 8t100 -40zM984 1483q-73 0 -114 55l-63 92l-115 -106q-42 -39 -89 -39q-83 0 -118 33l209 219q59 59 142 59
q50 0 76 -16t44 -49l121 -220q-53 -28 -93 -28z" />
    <glyph glyph-name="hcircumflex" unicode="&#x125;" horiz-adv-x="1048" 
d="M715 666q0 42 -22 76q-21 32 -87 32t-114 -55t-64 -141l-96 -578h-277l240 1444q50 8 114 8t100 -40t36 -82t-4 -66l-64 -381q115 115 269 115q94 0 151 -42q100 -72 100 -235q0 -64 -14 -143l-96 -578h-277l97 578q8 46 8 88zM808 1524q-75 0 -114 55l-63 92l-115 -106
q-42 -39 -89 -39q-83 0 -118 33l209 219q59 59 143 59t119 -65l121 -220q-53 -28 -93 -28z" />
    <glyph glyph-name="Hbar" unicode="&#x126;" horiz-adv-x="1243" 
d="M924 815l30 195h-448l-31 -195h449zM1266 1241q0 -21 -6 -63h133l-29 -168h-133l-166 -1010h-277l99 594h-449l-98 -594h-277l166 1010h-129l27 168h131l33 194q50 8 115 8t100 -40t35 -99q0 -21 -6 -63h448l33 194q50 8 115 8t100 -40t35 -99z" />
    <glyph glyph-name="hbar" unicode="&#x127;" horiz-adv-x="1048" 
d="M741 956q92 0 171 -56.5t79 -219.5q0 -64 -14 -143l-90 -537h-277l90 537q9 52 9 91q0 40 -21.5 72.5t-87 32.5t-115 -55t-63.5 -141l-90 -537h-277l183 1102h-144l31 180h143l27 162q50 8 114 8t100 -40t36 -99l-2 -31h358l-31 -180h-356l-43 -260q114 114 270 114z" />
    <glyph glyph-name="Itilde" unicode="&#x128;" horiz-adv-x="518" 
d="M506 1340q35 -40 35 -81t-4 -67l-197 -1192h-277l228 1372q50 8 115 8t100 -40zM299 1585q-80 0 -139 -84q-47 29 -61 51q-13 23 -13 56q0 91 140 136q38 11 95 11t122 -36q25 -13 47 -24t52 -11t61 17q30 17 69 71q49 -25 62 -52q32 -67 -4 -119t-132 -80t-203 28
q-25 13 -47 25t-49 11z" />
    <glyph glyph-name="itilde" unicode="&#x129;" horiz-adv-x="503" 
d="M80 125q0 23 4 45l131 799q50 8 115 8t101 -40q36 -39 36 -81t-4 -68l-90 -540q-8 -46 -8 -114t20 -126q-61 -35 -143 -36t-122 32t-40 121zM220 1386q62 0 103 -13t82 -36q41 -22 71 -22t60 17t68 71q49 -25 63 -51q13 -27 13 -60q0 -92 -136 -136q-38 -11 -96 -11
t-120 36q-24 13 -46 24t-51 12q-77 0 -139 -84q-47 29 -60 51q-14 22 -14 56q-1 61 70 103q70 43 132 43z" />
    <glyph glyph-name="Imacron" unicode="&#x12a;" horiz-adv-x="518" 
d="M506 1340q35 -40 35 -81t-4 -67l-197 -1192h-277l228 1372q50 8 115 8t100 -40zM612 1720q61 0 87 -28t25 -73q-1 -44 -15 -79h-482q-61 0 -87 29t-24 73t15 78h481z" />
    <glyph glyph-name="imacron" unicode="&#x12b;" horiz-adv-x="503" 
d="M80 125q0 23 4 45l131 799q50 8 115 8t101 -40q36 -39 36 -81t-4 -68l-90 -540q-8 -46 -8 -114t20 -126q-61 -35 -143 -36t-122 32t-40 121zM535 1343q61 -1 87 -29t24 -72t-15 -79h-481q-61 0 -88 29q-26 28 -24 72t15 79h482z" />
    <glyph glyph-name="Ibreve" unicode="&#x12c;" horiz-adv-x="518" 
d="M506 1340q35 -40 35 -81t-4 -67l-197 -1192h-277l228 1372q50 8 115 8t100 -40zM613 1801q22 13 65 13t94 -32q-92 -289 -346 -289q-137 0 -203 79t-57 220q40 20 90 22q49 0 63 -18q15 -18 23 -59q19 -90 101 -89q83 1 126 93q23 47 44 60z" />
    <glyph glyph-name="ibreve" unicode="&#x12d;" horiz-adv-x="503" 
d="M80 125q0 23 4 45l131 799q50 8 115 8t101 -40q36 -39 36 -81t-4 -68l-90 -540q-8 -46 -8 -114t20 -126q-61 -35 -143 -36t-122 32t-40 121zM368 1106q-136 0 -202 80t-57 229q45 23 93 23t61 -18t21 -64q8 -45 32 -70q26 -24 65 -24t70 22t57 74q26 53 46 66
q22 13 68 14t95 -33q-49 -151 -131 -225t-218 -74z" />
    <glyph glyph-name="Iogonek" unicode="&#x12e;" horiz-adv-x="518" 
d="M176 -114q-67 -68 -67 -130q0 -63 60 -63q28 0 75 43q35 -40 35 -76q0 -35 -18.5 -56.5t-47.5 -34.5t-61.5 -19.5t-83 -6.5t-103.5 42.5t-53 126.5q0 85 60.5 161t140.5 127h-50l228 1372q50 8 115 8t100 -40t35 -82t-4 -66l-197 -1192q-97 -46 -164 -114z" />
    <glyph glyph-name="iogonek" unicode="&#x12f;" horiz-adv-x="503" 
d="M553 1323q0 -94 -49 -139t-116 -45t-101.5 41t-34.5 88q0 94 49 139t116 45t101.5 -41t34.5 -88zM170 -246q0 -61 47 -61t92 43q35 -40 35 -76q0 -35 -18.5 -56.5t-47 -34.5t-61.5 -19.5t-83.5 -6.5t-103.5 42.5t-53 119.5q0 142 189 275q-86 24 -86 145q0 25 4 45
l131 799q50 8 115 8t101 -39.5t36 -81.5t-4 -68l-90 -540q-8 -46 -8 -114t20 -126q-215 -143 -215 -254z" />
    <glyph glyph-name="Idotaccent" unicode="&#x130;" horiz-adv-x="518" 
d="M506 1340q35 -40 35 -81t-4 -67l-197 -1192h-277l228 1372q50 8 115 8t100 -40zM592 1659q0 -86 -42 -125t-102 -39t-91 36q-30 36 -29 77q0 86 42 125t102 39t90 -36t30 -77z" />
    <glyph glyph-name="dotlessi" unicode="&#x131;" horiz-adv-x="503" 
d="M240 -29q-80 0 -120 33t-40 121q0 25 4 45l131 799q50 8 115 8t101 -39.5t36 -81.5t-4 -68l-90 -540q-8 -46 -8 -114t20 -126q-65 -37 -145 -37z" />
    <glyph glyph-name="IJ" unicode="&#x132;" horiz-adv-x="1036" 
d="M506 1340q35 -40 35 -81t-4 -67l-197 -1192h-277l228 1372q50 8 115 8t100 -40zM903 1380q156 0 156 -141q0 -21 -4 -47l-121 -725q-14 -86 -30 -176t-48 -163q-70 -165 -231 -165q-78 -1 -115 23q-70 44 -72 118q0 29 13 68q93 0 123 28q28 28 44 72t29 119l162 981
q50 8 94 8z" />
    <glyph glyph-name="ij" unicode="&#x133;" horiz-adv-x="1009" 
d="M417 1452q67 0 101 -41t35 -111q0 -70 -49 -116q-49 -45 -116 -45q-68 0 -102 41q-34 42 -34 112t49 115t116 45zM80 125q0 23 4 45l131 799q50 8 115 8t101 -40q36 -39 36 -81t-4 -68l-90 -540q-8 -46 -8 -114t20 -126q-61 -35 -143 -36t-122 32t-40 121zM923 1452
q67 0 101 -41t35 -111q0 -70 -49 -116q-49 -45 -116 -45q-68 0 -102 41q-34 42 -34 112t49 115t116 45zM283 -340q0 32 8 70h20q114 0 176 67q29 29 43 74t27 117l164 981q50 8 115 8t101 -40q36 -39 36 -81t-4 -68l-129 -770q-29 -160 -73 -256q-73 -160 -210 -212
q-137 -53 -228 8q-46 31 -46 102z" />
    <glyph glyph-name="Jcircumflex" unicode="&#x134;" horiz-adv-x="577" 
d="M446 1380q156 0 156 -141q0 -21 -4 -47l-121 -725q-15 -86 -31 -176t-47 -163q-70 -165 -231 -165q-78 -1 -115 23q-71 45 -71 118q0 26 12 68q96 0 124 28q50 49 72 191l162 981q50 8 94 8zM701 1483q-74 0 -113 55l-64 92l-114 -106q-42 -39 -107 -39t-100 33l209 219
q59 59 143 59t119 -65l121 -220q-54 -28 -94 -28z" />
    <glyph glyph-name="jcircumflex" unicode="&#x135;" horiz-adv-x="505" 
d="M-221 -340q0 32 8 70h20q114 0 177 67q29 29 43 74t26 117l164 981q50 8 115 8t101 -40q36 -39 36 -81t-4 -68l-129 -770q-29 -160 -73 -256q-73 -160 -210 -212q-137 -53 -228 8q-46 31 -46 102zM569 1102q-39 0 -65 10t-45 43l-72 121l-137 -133q-42 -39 -85 -39
q-77 0 -112 33l221 256q51 59 142 59t119 -59l127 -263q-54 -28 -93 -28z" />
    <glyph glyph-name="Kcommaaccent" unicode="&#x136;" horiz-adv-x="1112" 
d="M405 1380q64 0 97 -40t33 -83t-5 -65l-71 -436q14 48 81 124q13 15 19 21l328 369q101 112 208 111t152 -62l-542 -623l364 -676q-67 -41 -145 -42t-124 22t-79 78l-217 395q-52 93 -64 168l-106 -641h-271l228 1372q50 8 114 8zM492 -389q-57 -84 -134 -84t-102 16
l125 252q59 115 160 115q62 0 121 -31z" />
    <glyph glyph-name="kcommaaccent" unicode="&#x137;" horiz-adv-x="987" 
d="M506 1412q35 -40 35 -82t-4 -66l-117 -703q24 62 119 162l176 195q37 41 73 57t86 16q88 0 154 -73l-350 -388l160 -305q63 -122 141 -174q-29 -29 -96 -57t-157 -9q-89 19 -148 138l-109 209q-10 24 -33 68t-26 92l-82 -492h-273l240 1444q50 8 113 8t98 -40zM438 -389
q-57 -84 -133 -84t-102 16l125 252q59 115 159 115q65 0 121 -31z" />
    <glyph glyph-name="kgreenlandic" unicode="&#x138;" horiz-adv-x="987" 
d="M671 8q-44 28 -93 115l-115 196q-51 86 -57 152l-78 -471h-273l160 969q50 8 113 8t98 -39.5t35 -81.5t-4 -68l-43 -260q14 41 44.5 81t73.5 91l183 213q67 78 154 78q88 0 159 -73l-350 -408l160 -285q23 -41 52.5 -84t88.5 -90q-29 -29 -81 -50t-118 -21q-65 0 -109 28
z" />
    <glyph glyph-name="Lacute" unicode="&#x139;" horiz-adv-x="997" 
d="M739 221q172 -1 172 -131q0 -62 -14 -90h-834l228 1372q50 8 116 8t100 -40t34 -81t-4 -67l-160 -971h362zM398 1487q-69 0 -115 72l231 186q60 47 109 47t83 -34t50 -75l-258 -163q-54 -33 -100 -33z" />
    <glyph glyph-name="lacute" unicode="&#x13a;" horiz-adv-x="507" 
d="M80 125q0 23 4 45l211 1274q50 8 115 8t100 -40t35 -82t-4 -66l-168 -1016q-8 -46 -8 -114t20 -126q-61 -35 -143 -36t-122 32t-40 121zM603 1853q48 1 82 -33t50 -75l-258 -164q-134 -82 -215 39l232 186q61 47 109 47z" />
    <glyph glyph-name="Lcommaaccent" unicode="&#x13b;" horiz-adv-x="997" 
d="M739 221q172 -1 172 -131q0 -62 -14 -90h-834l228 1372q50 8 116 8t100 -40t34 -81t-4 -67l-160 -971h362zM428 -389q-57 -84 -134 -84t-101 16l124 252q59 115 160 115q65 0 121 -31z" />
    <glyph glyph-name="lcommaaccent" unicode="&#x13c;" horiz-adv-x="507" 
d="M80 125q0 23 4 45l211 1274q50 8 115 8t100 -40t35 -82t-4 -66l-168 -1016q-8 -46 -8 -114t20 -126q-61 -35 -143 -36t-122 32t-40 121zM145 -389q-57 -84 -133 -84t-102 16l125 252q59 115 160 115q64 0 120 -31z" />
    <glyph glyph-name="Lcaron" unicode="&#x13d;" horiz-adv-x="997" 
d="M739 221q172 -1 172 -131q0 -62 -14 -90h-834l228 1372q50 8 116 8t100 -40t34 -81t-4 -67l-160 -971h362zM744 918q-16 0 -31 4l47 286q26 168 152 168q64 0 94 -6l-80 -326q-33 -127 -156 -126h-26z" />
    <glyph glyph-name="lcaron" unicode="&#x13e;" horiz-adv-x="759" 
d="M80 125q0 23 4 45l211 1274q50 8 115 8t100 -40t35 -82t-4 -66l-168 -1016q-8 -46 -8 -114t20 -126q-61 -35 -143 -36t-122 32t-40 121zM688 993h-26q-16 0 -31 4l47 287q26 168 152 168q64 0 94 -6l-80 -326q-33 -127 -156 -127z" />
    <glyph glyph-name="Ldot" unicode="&#x13f;" horiz-adv-x="997" 
d="M739 221q172 -1 172 -131q0 -62 -14 -90h-834l228 1372q50 8 116 8t100 -40t34 -81t-4 -67l-160 -971h362zM944 764q0 -86 -42 -125t-102 -39t-90 36t-30 77q0 86 42 125t102 39t90 -36t30 -77z" />
    <glyph glyph-name="ldot" unicode="&#x140;" horiz-adv-x="825" 
d="M80 125q0 23 4 45l211 1274q50 8 115 8t100 -40t35 -82t-4 -66l-168 -1016q-8 -46 -8 -114t20 -126q-61 -35 -143 -36t-122 32t-40 121zM856 696q0 -94 -49 -139t-116 -45t-101 41t-35 88q0 94 49 139t116 45q68 0 102 -41t34 -88z" />
    <glyph glyph-name="Lslash" unicode="&#x141;" horiz-adv-x="1030" 
d="M944 91q0 -63 -14 -91h-834l86 516l-131 -53l-59 170l225 92l107 647q50 8 116 8t99.5 -40t33.5 -82t-4 -66l-57 -344l260 106l57 -170l-352 -145l-67 -418h362q94 0 133 -33.5t39 -96.5z" />
    <glyph glyph-name="lslash" unicode="&#x142;" horiz-adv-x="729" 
d="M363 -29q-80 0 -120 33t-40 121q0 25 4 45l61 373l-139 -60l-63 174l237 103l115 684q50 8 115 8t100 -40t35 -82t-4 -66l-64 -377l139 59l62 -174l-236 -100l-69 -424q-9 -52 -9 -115q0 -64 21 -125q-65 -37 -145 -37z" />
    <glyph glyph-name="Nacute" unicode="&#x143;" horiz-adv-x="1239" 
d="M424 1380q96 0 147 -127l310 -786l151 905q46 8 86 8q80 0 112 -40t32 -83t-5 -65l-196 -1192h-230l-366 907l-148 -907h-254l226 1366q81 14 135 14zM756 1487q-69 0 -115 72l231 186q60 47 109 47t83 -34t50 -75l-258 -163q-55 -33 -100 -33z" />
    <glyph glyph-name="nacute" unicode="&#x144;" horiz-adv-x="1048" 
d="M748 997q92 0 149 -41q100 -72 100 -235q0 -64 -14 -143l-96 -578h-277l97 578q8 46 8 88t-22 76q-21 32 -87 32t-114 -55t-64 -141l-96 -578h-277l160 969q47 8 103 8q112 0 145 -109q119 129 285 129zM624 1102q-32 0 -67 12t-51 29l186 235q60 80 140 80q44 0 84 -22
t61 -47l-236 -234q-53 -53 -117 -53z" />
    <glyph glyph-name="Ncommaaccent" unicode="&#x145;" horiz-adv-x="1239" 
d="M424 1380q96 0 147 -127l310 -786l151 905q46 8 86 8q80 0 112 -40t32 -83t-5 -65l-196 -1192h-230l-366 907l-148 -907h-254l226 1366q81 14 135 14zM524 -389q-57 -84 -133 -84t-102 16l125 252q59 115 159 115q65 0 121 -31z" />
    <glyph glyph-name="ncommaaccent" unicode="&#x146;" horiz-adv-x="1048" 
d="M748 997q92 0 149 -41q100 -72 100 -235q0 -64 -14 -143l-96 -578h-277l97 578q8 46 8 88t-22 76q-21 32 -87 32t-114 -55t-64 -141l-96 -578h-277l160 969q47 8 103 8q112 0 145 -109q119 129 285 129zM428 -389q-57 -84 -134 -84t-101 16l124 252q59 115 160 115
q65 0 121 -31z" />
    <glyph glyph-name="Ncaron" unicode="&#x147;" horiz-adv-x="1239" 
d="M424 1380q96 0 147 -127l310 -786l151 905q46 8 86 8q80 0 112 -40t32 -83t-5 -65l-196 -1192h-230l-366 907l-148 -907h-254l226 1366q81 14 135 14zM633 1796q39 0 63 -12t45 -43l64 -92l115 106q46 39 110 39q65 0 100 -33l-208 -219q-59 -59 -142 -59q-50 0 -76 16
t-45 49l-120 219q55 29 94 29z" />
    <glyph glyph-name="ncaron" unicode="&#x148;" horiz-adv-x="1048" 
d="M748 997q92 0 149 -41q100 -72 100 -235q0 -64 -14 -143l-96 -578h-277l97 578q8 46 8 88t-22 76q-21 32 -87 32t-114 -55t-64 -141l-96 -578h-277l160 969q47 8 103 8q112 0 145 -109q119 129 285 129zM495 1452q39 0 63 -10t42 -43l72 -121l137 133q42 39 104 39
t97 -33l-222 -256q-51 -59 -142 -59t-118 59l-127 262q56 29 94 29z" />
    <glyph glyph-name="napostrophe" unicode="&#x149;" horiz-adv-x="1048" 
d="M748 997q92 0 149 -41q100 -72 100 -235q0 -64 -14 -143l-96 -578h-277l97 578q8 46 8 88t-22 76q-21 32 -87 32t-114 -55t-64 -141l-96 -578h-277l160 969q47 8 103 8q112 0 145 -109q119 129 285 129zM291 1354q0 50 36 84q36 32 85 32q48 0 78 -32t30 -85
q0 -107 -74 -201q-74 -95 -159 -93q-61 0 -70 51q102 47 127 137q-23 17 -38 37t-15 70z" />
    <glyph glyph-name="Eng" unicode="&#x14a;" horiz-adv-x="1239" 
d="M494 -268q0 33 8 73q148 0 212.5 57t84.5 175l4 33l-338 837l-148 -907h-254l226 1366q81 14 135 14q96 0 147 -127l310 -786l151 905q46 8 86 8q80 0 112 -40t32 -84t-5 -64l-188 -1141q-42 -245 -151 -358q-49 -49 -123 -77t-151 -28t-113.5 33t-36.5 111z" />
    <glyph glyph-name="eng" unicode="&#x14b;" horiz-adv-x="1048" 
d="M748 997q92 0 170.5 -56.5t78.5 -219.5q0 -64 -14 -143l-92 -555q-65 -390 -206 -443t-201 -53t-106 30.5t-46 102.5q0 32 8 70h20q114 0 177 67q47 47 71 191l99 590q8 46 8 88t-21.5 75t-87 33t-115 -55t-63.5 -141l-96 -578h-277l160 969q47 8 103 8t91 -24.5
t54 -84.5q119 129 285 129z" />
    <glyph glyph-name="Omacron" unicode="&#x14c;" horiz-adv-x="1341" 
d="M1028 866q0 142 -54 224t-169 81q-167 0 -276 -186t-109 -502q0 -129 54 -209t175 -79q74 0 142 48t120 137q117 197 117 486zM648 -35q-156 0 -250 45q-266 128 -265 502q0 156 42 314t129 286q87 127 219 207t288 80t247 -45t148 -120q111 -146 111 -382
q0 -352 -168 -600q-84 -127 -214 -207q-131 -80 -287 -80zM1055 1720q61 0 87 -28t24 -73q-2 -44 -15 -79h-481q-61 0 -87 29t-25 73t15 78h482z" />
    <glyph glyph-name="omacron" unicode="&#x14d;" horiz-adv-x="1054" 
d="M733 596q0 98 -38 144t-90 46q-105 0 -171 -110q-67 -110 -67 -311q0 -94 37 -141q38 -46 90 -46t96 28q43 28 75 81t50 132t18 177zM490 -31q-215 0 -313 124q-81 103 -82 256q-2 291 141 469q143 179 391 179q197 0 295 -124q84 -104 86 -283q0 -121 -32 -234
q-65 -234 -263 -336q-99 -52 -223 -51zM840 1343q61 -1 87 -29q27 -28 25 -72t-16 -79h-481q-61 0 -87 29q-26 28 -25 72t15 79h482z" />
    <glyph glyph-name="Obreve" unicode="&#x14e;" horiz-adv-x="1341" 
d="M1028 866q0 142 -54 224t-169 81q-167 0 -276 -186t-109 -502q0 -129 54 -209t175 -79q74 0 142 48t120 137q117 197 117 486zM648 -35q-156 0 -250 45q-266 128 -265 502q0 156 42 314t129 286q87 127 219 207t288 80t247 -45t148 -120q111 -146 111 -382
q0 -352 -168 -600q-84 -127 -214 -207q-131 -80 -287 -80zM1048 1801q22 13 64 13t94 -32q-92 -289 -346 -289q-137 0 -203 79t-57 220q40 20 90 22q50 0 64 -18t22 -59q18 -90 101 -89t127 93q23 47 44 60z" />
    <glyph glyph-name="obreve" unicode="&#x14f;" horiz-adv-x="1054" 
d="M733 596q0 98 -38 144t-90 46q-105 0 -171 -110q-67 -110 -67 -311q0 -94 37 -141q38 -46 90 -46t96 28q43 28 75 81t50 132t18 177zM490 -31q-215 0 -313 124q-81 103 -82 256q-2 291 141 469q143 179 391 179q197 0 295 -124q84 -104 86 -283q0 -121 -32 -234
q-65 -234 -263 -336q-99 -52 -223 -51zM652 1106q-136 0 -202 80t-57 229q45 23 93 23t62 -18t20 -64q7 -45 33 -70q26 -24 65 -24q40 0 70 22t56 74q26 53 47 66q22 13 67 14t95 -33q-49 -151 -131 -225t-218 -74z" />
    <glyph glyph-name="Ohungarumlaut" unicode="&#x150;" horiz-adv-x="1341" 
d="M1028 866q0 142 -54 224t-169 81q-167 0 -276 -186t-109 -502q0 -129 54 -209t175 -79q74 0 142 48t120 137q117 197 117 486zM648 -35q-156 0 -250 45q-266 128 -265 502q0 156 42 314t129 286q87 127 219 207t288 80t247 -45t148 -120q111 -146 111 -382
q0 -352 -168 -600q-84 -127 -214 -207q-131 -80 -287 -80zM1039 1487q-45 -1 -69 21t-40 46l215 187q59 51 108 51q83 0 125 -109l-245 -163q-48 -33 -94 -33zM632 1487q-46 -1 -70 21t-40 46l215 187q59 51 108 51q83 0 126 -109l-246 -163q-47 -33 -93 -33z" />
    <glyph glyph-name="ohungarumlaut" unicode="&#x151;" horiz-adv-x="1054" 
d="M733 596q0 98 -38 144t-90 46q-105 0 -171 -110q-67 -110 -67 -311q0 -94 37 -141q38 -46 90 -46t96 28q43 28 75 81t50 132t18 177zM490 -31q-215 0 -313 124q-81 103 -82 256q-2 291 141 469q143 179 391 179q197 0 295 -124q84 -104 86 -283q0 -121 -32 -234
q-65 -234 -263 -336q-99 -52 -223 -51zM938 1155q-53 -53 -117 -53t-102 41l178 235q57 80 139 80q37 0 72 -22t55 -47zM557 1155q-53 -53 -117 -53t-102 41l178 235q57 80 139 80q37 0 72 -22t55 -47z" />
    <glyph glyph-name="OE" unicode="&#x152;" horiz-adv-x="1703" 
d="M813 1153q-162 0 -277.5 -173t-115.5 -491q0 -113 60.5 -191.5t164.5 -78.5h170l156 934h-158zM1444 219q172 0 172 -129q0 -62 -14 -90h-977q-252 0 -372 142t-120 376q0 358 181.5 606t521.5 248h954q-4 -124 -47.5 -171.5t-151.5 -47.5h-344l-55 -338h387l-37 -219
h-387l-61 -377h350z" />
    <glyph glyph-name="oe" unicode="&#x153;" horiz-adv-x="1611" 
d="M1028 535h39q105 0 185.5 44.5t80.5 121.5q0 90 -90 90t-149 -69t-88 -185q18 -2 22 -2zM733 596q0 98 -38 144t-90 46q-105 0 -171.5 -110.5t-66.5 -310.5q0 -94 37.5 -140.5t89.5 -46.5t96 28q43 28 74.5 81t50 132t18.5 177zM811 109q-135 -140 -330 -140
q-207 0 -297 115.5t-90 292.5q0 265 142.5 442.5t390.5 177.5q121 0 185.5 -41t107.5 -104q138 145 364 145q137 0 217 -72.5t80 -187.5q0 -202 -155.5 -284t-368.5 -82h-27q-26 0 -43 2v-13q0 -86 51 -135t115 -49q143 0 244 131q104 -53 104 -125t-78 -129
q-122 -84 -303 -84q-121 0 -191.5 39t-117.5 101z" />
    <glyph glyph-name="Racute" unicode="&#x154;" horiz-adv-x="1114" 
d="M537 737q208 0 266 140q20 51 20 128t-59 123q-83 64 -238 41l-71 -432h82zM617 1384q384 0 473 -220q27 -67 26 -142q0 -358 -315 -457l221 -545q-73 -41 -157 -42q-83 -1 -119 31t-66 110l-158 405h-102l-86 -524h-271l226 1364q183 20 328 20zM615 1487q-69 0 -115 72
l231 186q60 47 109 47t83 -34t50 -75l-258 -163q-54 -33 -100 -33z" />
    <glyph glyph-name="racute" unicode="&#x155;" horiz-adv-x="833" 
d="M465 858q123 133 235 133q113 0 148 -42t35 -108q0 -118 -154 -184q-29 106 -127 107q-59 0 -109 -49t-67 -150l-94 -565h-277l160 969q47 8 102 8q123 0 148 -119zM558 1102q-32 0 -66 12t-52 29l187 235q60 80 139 80q45 0 85 -22t60 -47l-235 -234q-53 -53 -118 -53z
" />
    <glyph glyph-name="Rcommaaccent" unicode="&#x156;" horiz-adv-x="1114" 
d="M537 737q208 0 266 140q20 51 20 128t-59 123q-83 64 -238 41l-71 -432h82zM617 1384q384 0 473 -220q27 -67 26 -142q0 -358 -315 -457l221 -545q-73 -41 -157 -42q-83 -1 -119 31t-66 110l-158 405h-102l-86 -524h-271l226 1364q183 20 328 20zM463 -389
q-57 -84 -134 -84t-102 16l125 252q59 115 160 115q65 0 121 -31z" />
    <glyph glyph-name="rcommaaccent" unicode="&#x157;" horiz-adv-x="833" 
d="M465 858q123 133 235 133q113 0 148 -42t35 -108q0 -118 -154 -184q-29 106 -127 107q-59 0 -109 -49t-67 -150l-94 -565h-277l160 969q47 8 102 8q123 0 148 -119zM137 -389q-57 -84 -133 -84t-102 16l125 252q59 115 159 115q65 0 121 -31z" />
    <glyph glyph-name="Rcaron" unicode="&#x158;" horiz-adv-x="1114" 
d="M537 737q208 0 266 140q20 51 20 128t-59 123q-83 64 -238 41l-71 -432h82zM617 1384q384 0 473 -220q27 -67 26 -142q0 -358 -315 -457l221 -545q-73 -41 -157 -42q-83 -1 -119 31t-66 110l-158 405h-102l-86 -524h-271l226 1364q183 20 328 20zM514 1796q39 0 63 -12
t46 -43l63 -92l115 106q46 39 111 39t100 -33l-209 -219q-59 -59 -143 -59t-119 65l-121 219q55 29 94 29z" />
    <glyph glyph-name="rcaron" unicode="&#x159;" horiz-adv-x="833" 
d="M465 858q123 133 235 133q113 0 148 -42t35 -108q0 -118 -154 -184q-29 106 -127 107q-59 0 -109 -49t-67 -150l-94 -565h-277l160 969q47 8 102 8q123 0 148 -119zM378 1452q38 0 62 -10t43 -43l72 -121l137 133q42 39 104 39t97 -33l-221 -256q-51 -59 -142 -59
t-118 59l-127 262q55 29 93 29z" />
    <glyph glyph-name="Sacute" unicode="&#x15a;" horiz-adv-x="1048" 
d="M639 1163q-78 0 -124 -40q-46 -41 -46 -107t53 -114q52 -48 142 -99q253 -144 294 -293q14 -51 14 -134t-35 -164t-101 -136q-132 -111 -365 -111t-356 88q-37 27 -55 53q-17 27 -17 72t32 89t75 73q146 -146 302 -144q78 0 116 16q110 43 110 157q0 68 -47 120t-176 122
q-129 71 -199 162t-70 233q0 180 133 286q133 107 339 107t329 -103q51 -43 51 -98t-34 -101q-35 -46 -86 -69q-118 135 -279 135zM607 1487q-69 0 -115 72l231 186q60 47 109 47q48 0 82 -34t51 -75l-258 -163q-54 -33 -100 -33z" />
    <glyph glyph-name="sacute" unicode="&#x15b;" horiz-adv-x="829" 
d="M461 278q0 42 -45 79q-45 38 -117 88t-100 86q-58 74 -59 181t87 187q109 100 308 98q118 0 214 -57q84 -47 82 -123q1 -43 -31 -78t-81 -51q-37 57 -92 86t-103 29q-112 0 -110 -84q0 -44 60 -89q28 -22 64 -48t91 -70q118 -96 117 -230q-1 -133 -91 -223t-268 -90
q-262 0 -347 117q-20 28 -20 66q-1 71 91 135q111 -107 225 -107q70 0 98 28t27 70zM525 1102q-33 0 -67 12t-50 29l186 235q60 80 139 80q45 0 85 -22t61 -47l-236 -234q-53 -53 -118 -53z" />
    <glyph glyph-name="Scircumflex" unicode="&#x15c;" horiz-adv-x="1048" 
d="M639 1163q-78 0 -124 -40q-46 -41 -46 -107t53 -114q52 -48 142 -99q253 -144 294 -293q14 -51 14 -134t-35 -164t-101 -136q-132 -111 -365 -111t-356 88q-37 27 -55 53q-17 27 -17 72t32 89t75 73q146 -146 302 -144q78 0 116 16q110 43 110 157q0 68 -47 120t-176 122
q-129 71 -199 162t-70 233q0 180 133 286q133 107 339 107t329 -103q51 -43 51 -98t-34 -101q-35 -46 -86 -69q-118 135 -279 135zM875 1483q-74 0 -113 55l-64 92l-114 -106q-42 -39 -107 -39t-100 33l209 219q59 59 143 59t119 -65l121 -220q-54 -28 -94 -28z" />
    <glyph glyph-name="scircumflex" unicode="&#x15d;" horiz-adv-x="829" 
d="M461 278q0 42 -45 79q-45 38 -117 88t-100 86q-58 74 -59 181t87 187q109 100 308 98q118 0 214 -57q84 -47 82 -123q1 -43 -31 -78t-81 -51q-37 57 -92 86t-103 29q-112 0 -110 -84q0 -44 60 -89q28 -22 64 -48t91 -70q118 -96 117 -230q-1 -133 -91 -223t-268 -90
q-262 0 -347 117q-20 28 -20 66q-1 71 91 135q111 -107 225 -107q70 0 98 28t27 70zM749 1102q-39 0 -65 10t-45 43l-72 121l-137 -133q-42 -39 -85 -39q-77 0 -112 33l222 256q51 59 142 59t118 -59l127 -263q-54 -28 -93 -28z" />
    <glyph glyph-name="Scedilla" unicode="&#x15e;" horiz-adv-x="1048" 
d="M150 340q144 -143 302 -143q124 0 175 51t51 119t-45 119t-176 123q-131 73 -201 164t-70 233q0 179 132 286t339 107q109 0 194 -30.5t136 -72.5q51 -43 51 -98t-34.5 -101t-85.5 -69q-118 135 -279 135q-78 0 -124 -40.5t-46 -106.5t52.5 -114t142.5 -99
q171 -98 240 -189.5t69 -201.5q0 -200 -114 -313t-308 -130q-31 -35 -31 -62t11.5 -42t36 -47t24.5 -85q0 -99 -72 -148.5t-147 -49.5q-121 0 -121 82q0 37 27 74q27 -15 67 -15t55 18t15 38q0 25 -24.5 60t-24.5 79q0 43 41 96q-192 11 -293 86q-37 27 -54.5 53.5
t-17.5 71.5t31.5 89t75.5 73z" />
    <glyph glyph-name="scedilla" unicode="&#x15f;" horiz-adv-x="829" 
d="M524 803q-110 0 -110 -84q0 -43 44 -77t79 -59.5t91 -70.5q116 -94 117 -236q0 -186 -112.5 -241t-194.5 -64q-32 -37 -32 -64t11 -42t35.5 -46t24.5 -84q0 -99 -71.5 -149.5t-145.5 -50.5q-123 0 -123 82q0 37 27 74q27 -15 67 -15t55 18t15 38q0 28 -24.5 61t-24.5 77
q0 43 45 103q-121 10 -199 61t-78 104q0 52 25 86t66 63q111 -107 225 -107q70 0 97.5 28t27.5 70t-45.5 79.5t-89.5 68.5q-98 68 -142.5 124t-44.5 162t97.5 195.5t298.5 89.5q114 0 205.5 -52.5t91 -111.5t-32 -93.5t-80.5 -51.5q-37 57 -92.5 86t-102.5 29z" />
    <glyph glyph-name="Scaron" unicode="&#x160;" horiz-adv-x="1048" 
d="M639 1163q-78 0 -124 -40q-46 -41 -46 -107t53 -114q52 -48 142 -99q253 -144 294 -293q14 -51 14 -134t-35 -164t-101 -136q-132 -111 -365 -111t-356 88q-37 27 -55 53q-17 27 -17 72t32 89t75 73q146 -146 302 -144q78 0 116 16q110 43 110 157q0 68 -47 120t-176 122
q-129 71 -199 162t-70 233q0 180 133 286q133 107 339 107t329 -103q51 -43 51 -98t-34 -101q-35 -46 -86 -69q-118 135 -279 135zM502 1796q38 0 62 -12t46 -43l64 -92l114 106q46 39 111 39t100 -33l-208 -219q-59 -59 -143 -59t-120 65l-120 219q55 29 94 29z" />
    <glyph glyph-name="scaron" unicode="&#x161;" horiz-adv-x="829" 
d="M461 278q0 42 -45 79q-45 38 -117 88t-100 86q-58 74 -59 181t87 187q109 100 308 98q118 0 214 -57q84 -47 82 -123q1 -43 -31 -78t-81 -51q-37 57 -92 86t-103 29q-112 0 -110 -84q0 -44 60 -89q28 -22 64 -48t91 -70q118 -96 117 -230q-1 -133 -91 -223t-268 -90
q-262 0 -347 117q-20 28 -20 66q-1 71 91 135q111 -107 225 -107q70 0 98 28t27 70zM702 1411q42 39 104 39t97 -33l-221 -256q-51 -59 -142 -59t-118 59l-127 262q56 29 93 29q38 0 63 -10t43 -43l71 -121z" />
    <glyph glyph-name="uni0162" unicode="&#x162;" horiz-adv-x="1105" 
d="M412 -141q0 76 71 141h-127l189 1143h-391q2 131 47 180t161 49h879q-4 -134 -48 -181.5t-161 -47.5h-211l-188 -1143q-68 -49 -68 -102q0 -18 11.5 -33t36 -47t24.5 -85q0 -99 -72 -148.5t-147 -49.5q-121 0 -121 82q0 37 27 74q26 -15 66 -15t55.5 18t15.5 38
q0 25 -24.5 60t-24.5 67z" />
    <glyph glyph-name="uni0163" unicode="&#x163;" horiz-adv-x="765" 
d="M92 270q0 34 10 107l150 897q50 8 114 8t100 -40t36 -82t-4 -66l-19 -119h262l-34 -211h-263l-65 -402q-8 -40 -8 -71q0 -106 94 -107q75 0 145 97q99 -43 99 -116q1 -73 -59 -119t-116 -60t-114 -17q-31 -31 -31 -60t11.5 -44t36 -47t24.5 -85q0 -99 -72 -148.5
t-147 -49.5q-121 0 -121 82q0 37 26 74q27 -15 67 -15t55.5 18t15.5 38q0 25 -24.5 60t-24.5 81t53 109q-76 18 -121 67q-76 80 -76 221z" />
    <glyph glyph-name="Tcaron" unicode="&#x164;" horiz-adv-x="1105" 
d="M362 1372h879q-4 -134 -48 -181q-44 -48 -161 -48h-211l-188 -1143h-277l189 1143h-391q2 131 47 180t161 49zM584 1796q38 0 62 -12t46 -43l64 -92l114 106q46 39 111 39t100 -33l-209 -219q-59 -59 -143 -59t-119 65l-121 219q56 29 95 29z" />
    <glyph glyph-name="tcaron" unicode="&#x165;" horiz-adv-x="765" 
d="M610 281q99 -43 99 -116q1 -73 -59 -119t-119.5 -61.5t-133.5 -15.5q-154 0 -229.5 80t-75.5 221q0 34 10 107l150 897q50 8 114 8t100 -40t36 -82t-4 -66l-19 -119h262l-34 -211h-263l-65 -402q-8 -40 -8 -71q0 -106 94 -107q75 0 145 97zM655 1087h-21q-22 0 -36 5
l41 249q25 168 151 168q64 0 95 -6l-74 -289q-33 -127 -156 -127z" />
    <glyph glyph-name="Tbar" unicode="&#x166;" horiz-adv-x="1105" 
d="M365 1372h878q-4 -134 -48 -181.5t-161 -47.5h-211l-73 -441h294l-30 -174h-293l-86 -528h-277l86 528h-280l29 174h280l74 441h-391q2 131 47 180t162 49z" />
    <glyph glyph-name="tbar" unicode="&#x167;" horiz-adv-x="765" 
d="M610 281q99 -43 99 -116q1 -73 -59 -119t-119.5 -61.5t-133.5 -15.5q-154 0 -229.5 80t-75.5 221q0 34 10 107l150 897q50 8 114 8t100 -40t36 -82t-4 -66l-19 -119h262l-34 -211h-263l-22 -141h262l-31 -181h-262l-12 -80q-8 -40 -8 -71q0 -106 94 -107q75 0 145 97z
" />
    <glyph glyph-name="Utilde" unicode="&#x168;" horiz-adv-x="1243" 
d="M418 388q0 -195 168 -195q82 0 126 17q86 33 128 160q20 62 34 154l142 848q50 8 115 8t100 -40t35 -81t-4 -67l-111 -666q-23 -139 -65 -243q-128 -318 -488 -318t-436 250q-23 76 -23 158t15 170l137 829q50 8 116 8t100 -40t34 -81t-4 -67l-107 -643q-12 -65 -12 -161
zM672 1585q-79 0 -140 -84q-47 29 -60 51t-13 56q0 33 27 71t89 57t119 19t122 -36l48 -24t52 -11t60 17t68 71q48 -25 62 -52q14 -28 14 -60q0 -62 -66 -103q-66 -42 -143 -43q-76 -1 -143 35q-24 13 -46 25t-50 11z" />
    <glyph glyph-name="utilde" unicode="&#x169;" horiz-adv-x="1054" 
d="M372 -31q-104 0 -168 45q-148 107 -91 383l94 572q50 8 115 8t101 -40q36 -39 36 -81t-4 -68l-66 -391q-6 -35 -6 -81t23 -92q22 -46 68 -46q110 0 170 136q17 40 24 83l96 572q50 8 114 8t100 -40q36 -39 36 -81t-4 -68l-90 -540q-24 -125 22 -240q-61 -35 -151 -37
q-139 0 -150 135q-41 -51 -103 -94t-166 -43zM295 1240q0 62 70 104t145 42t121 -24q47 -24 69 -36t52 -11q30 0 60 17t69 71q49 -25 62 -51t13 -60q0 -93 -136 -136q-38 -11 -95 -11q-57 1 -101 25t-66 35t-50 12q-79 0 -139 -84q-47 29 -61 51q-13 24 -13 56z" />
    <glyph glyph-name="Umacron" unicode="&#x16a;" horiz-adv-x="1243" 
d="M418 388q0 -195 168 -195q82 0 126 17q86 33 128 160q20 62 34 154l142 848q50 8 115 8t100 -40t35 -81t-4 -67l-111 -666q-23 -139 -65 -243q-128 -318 -488 -318t-436 250q-23 76 -23 158t15 170l137 829q50 8 116 8t100 -40t34 -81t-4 -67l-107 -643q-12 -65 -12 -161
zM983 1720q61 0 87 -28t25 -74q-1 -45 -16 -78h-481q-61 0 -87 29t-25 73t16 78h481z" />
    <glyph glyph-name="umacron" unicode="&#x16b;" horiz-adv-x="1054" 
d="M372 -31q-104 0 -168 45q-148 107 -91 383l94 572q50 8 115 8t101 -40q36 -39 36 -81t-4 -68l-66 -391q-6 -35 -6 -81t23 -92q22 -46 68 -46q110 0 170 136q17 40 24 83l96 572q50 8 114 8t100 -40q36 -39 36 -81t-4 -68l-90 -540q-24 -125 22 -240q-61 -35 -151 -37
q-139 0 -150 135q-41 -51 -103 -94t-166 -43zM823 1343q61 -1 87 -29t25 -72t-15 -79h-482q-61 0 -87 29q-27 28 -25 72t16 79h481z" />
    <glyph glyph-name="Ubreve" unicode="&#x16c;" horiz-adv-x="1243" 
d="M418 388q0 -195 168 -195q82 0 126 17q86 33 128 160q20 62 34 154l142 848q50 8 115 8t100 -40t35 -81t-4 -67l-111 -666q-23 -139 -65 -243q-128 -318 -488 -318t-436 250q-23 76 -23 158t15 170l137 829q50 8 116 8t100 -40t34 -81t-4 -67l-107 -643q-12 -65 -12 -161
zM984 1801q22 13 65 13t94 -32q-92 -289 -346 -289q-137 0 -203 79t-57 220q40 20 90 22q49 0 63 -18t22 -59q19 -90 102 -89t126 93q23 47 44 60z" />
    <glyph glyph-name="ubreve" unicode="&#x16d;" horiz-adv-x="1054" 
d="M372 -31q-104 0 -168 45q-148 107 -91 383l94 572q50 8 115 8t101 -40q36 -39 36 -81t-4 -68l-66 -391q-6 -35 -6 -81t23 -92q22 -46 68 -46q110 0 170 136q17 40 24 83l96 572q50 8 114 8t100 -40q36 -39 36 -81t-4 -68l-90 -540q-24 -125 22 -240q-61 -35 -151 -37
q-139 0 -150 135q-41 -51 -103 -94t-166 -43zM638 1106q-136 0 -202 80t-57 229q45 23 93 23t62 -18t20 -64q7 -45 33 -70q27 -24 65 -24t69 22t57 74q26 53 46 66q22 13 68 14t95 -33q-49 -151 -131 -225t-218 -74z" />
    <glyph glyph-name="Uring" unicode="&#x16e;" horiz-adv-x="1243" 
d="M418 388q0 -195 168 -195q82 0 126 17q86 33 128 160q20 62 34 154l142 848q50 8 115 8t100 -40t35 -81t-4 -67l-111 -666q-23 -139 -65 -243q-128 -318 -488 -318t-436 250q-23 76 -23 158t15 170l137 829q50 8 116 8t100 -40t34 -81t-4 -67l-107 -643q-12 -65 -12 -161
zM797 1540q51 0 81 38t30 88t-30 87t-80 37t-80 -37t-30 -87t29 -88t80 -38zM798 1432q-106 0 -167 65q-60 65 -61 167q-1 101 62 168t167 68t166 -69q61 -70 61 -165q0 -96 -61 -165t-167 -69z" />
    <glyph glyph-name="uring" unicode="&#x16f;" horiz-adv-x="1054" 
d="M372 -31q-104 0 -168 45q-148 107 -91 383l94 572q50 8 115 8t101 -40q36 -39 36 -81t-4 -68l-66 -391q-6 -35 -6 -81t23 -92q22 -46 68 -46q110 0 170 136q17 40 24 83l96 572q50 8 114 8t100 -40q36 -39 36 -81t-4 -68l-90 -540q-24 -125 22 -240q-61 -35 -151 -37
q-139 0 -150 135q-41 -51 -103 -94t-166 -43zM520 1345q0 -50 29 -88t80 -38q51 -1 81 37t30 88t-30 88q-30 36 -80 36t-80 -36t-30 -87zM630 1110q-105 0 -166 66t-63 167q0 155 134 217q43 19 95 19q107 0 168 -70q60 -70 60 -163q0 -47 -16 -91q-35 -91 -117 -127
q-43 -18 -95 -18z" />
    <glyph glyph-name="Uhungarumlaut" unicode="&#x170;" horiz-adv-x="1243" 
d="M418 388q0 -195 168 -195q82 0 126 17q86 33 128 160q20 62 34 154l142 848q50 8 115 8t100 -40t35 -81t-4 -67l-111 -666q-23 -139 -65 -243q-128 -318 -488 -318t-436 250q-23 76 -23 158t15 170l137 829q50 8 116 8t100 -40t34 -81t-4 -67l-107 -643q-12 -65 -12 -161
zM976 1487q-46 -1 -70 21t-40 46l215 187q59 51 108 51q83 0 126 -109l-246 -163q-47 -33 -93 -33zM568 1487q-46 -1 -70 21t-39 46l215 187q59 51 108 51q83 0 125 -109l-245 -163q-48 -33 -94 -33z" />
    <glyph glyph-name="uhungarumlaut" unicode="&#x171;" horiz-adv-x="1054" 
d="M372 -31q-104 0 -168 45q-148 107 -91 383l94 572q50 8 115 8t101 -40q36 -39 36 -81t-4 -68l-66 -391q-6 -35 -6 -81t23 -92q22 -46 68 -46q110 0 170 136q17 40 24 83l96 572q50 8 114 8t100 -40q36 -39 36 -81t-4 -68l-90 -540q-24 -125 22 -240q-61 -35 -151 -37
q-139 0 -150 135q-41 -51 -103 -94t-166 -43zM940 1155q-53 -53 -117 -53t-102 41l178 235q57 80 139 80q37 0 72 -22t55 -47zM559 1155q-53 -53 -117 -53t-102 41l178 235q57 80 139 80q37 0 72 -22t55 -47z" />
    <glyph glyph-name="Uogonek" unicode="&#x172;" horiz-adv-x="1243" 
d="M645 -114q-67 -68 -67 -130q0 -63 60 -63q28 0 75 43q35 -40 35 -76q0 -35 -18.5 -56.5t-47.5 -34.5t-61.5 -19.5t-83 -6.5t-103.5 42.5t-53 119.5q0 140 151 262q-393 21 -393 414q0 74 15 162l137 829q50 8 116 8t100 -40t34 -82t-4 -66l-107 -643q-12 -85 -12 -171
q0 -184 188 -185q123 0 181.5 74.5t86.5 256.5l142 848q50 8 115 8t100 -40t35 -82t-4 -66l-111 -666q-35 -211 -115 -342t-227 -184q-97 -46 -164 -114z" />
    <glyph glyph-name="uogonek" unicode="&#x173;" horiz-adv-x="1054" 
d="M727 -246q0 -61 47 -61t92 43q35 -40 35 -76q0 -35 -18.5 -56.5t-47 -34.5t-61.5 -19.5t-83.5 -6.5t-103 42t-52.5 120q0 143 190 277q-76 25 -84 124q-41 -51 -103.5 -94t-166.5 -43t-209 75t-49 353l94 572q50 8 115 8t101 -39.5t36 -81.5t-4 -68l-66 -391
q-6 -35 -6 -81t22.5 -92t83.5 -46t114 66t65 153l96 572q50 8 114 8t100 -39.5t36 -81.5t-4 -68l-90 -540q-24 -125 22 -240q-215 -143 -215 -254z" />
    <glyph glyph-name="Wcircumflex" unicode="&#x174;" horiz-adv-x="1812" 
d="M324 1378q137 0 147 -129l49 -825l395 940q71 14 137 14q155 0 162 -127l56 -850l340 840q56 134 184 136q86 1 162 -19l-619 -1368h-260l-78 1007l-438 -1007h-260l-117 1362q80 26 140 26zM1213 1483q-74 0 -113 55l-64 92l-114 -106q-42 -39 -107 -39t-100 33l209 219
q59 59 143 59t119 -65l121 -220q-54 -28 -94 -28z" />
    <glyph glyph-name="wcircumflex" unicode="&#x175;" horiz-adv-x="1421" 
d="M230 973q54 0 94 -26t47 -87l47 -528l282 622q74 19 125 19q112 0 119 -107l43 -573l193 471q41 100 84 154q42 54 122 55q80 0 142 -23l-461 -960h-260l-53 624l-295 -624h-242l-119 956q78 27 132 27zM1042 1102q-40 0 -66 10t-44 43l-72 121l-137 -133
q-42 -39 -85 -39q-77 0 -112 33l222 256q51 59 142 59t118 -59l127 -263q-54 -28 -93 -28z" />
    <glyph glyph-name="Ycircumflex" unicode="&#x176;" horiz-adv-x="1105" 
d="M174 1333q96 47 172 47q106 0 139 -100l144 -473l280 448q79 127 203 125q76 0 137 -43l-528 -805l-88 -532h-277l88 530zM918 1483q-74 0 -113 55l-64 92l-114 -106q-42 -39 -107 -39t-100 33l209 219q59 59 143 59t119 -65l121 -220q-54 -28 -94 -28z" />
    <glyph glyph-name="ycircumflex" unicode="&#x177;" horiz-adv-x="940" 
d="M228 977q60 0 86 -15q68 -37 83 -178l43 -520l217 527q78 186 215 186q83 0 134 -29l-502 -1065q-35 -72 -68 -135q-112 -213 -321 -213q-119 0 -170 32q-50 33 -69 59t-19 61q0 74 96 137q52 -73 132 -75q80 -1 119 46q38 47 87 158l16 37h-57l-154 958q72 29 132 29z
M780 1102q-40 0 -66 10t-44 43l-72 121l-137 -133q-42 -39 -102 -39t-95 33l221 256q51 59 142 59t118 -59l127 -263q-53 -28 -92 -28z" />
    <glyph glyph-name="Ydieresis" unicode="&#x178;" horiz-adv-x="1105" 
d="M174 1333q96 47 172 47q106 0 139 -100l144 -473l280 448q79 127 203 125q76 0 137 -43l-528 -805l-88 -532h-277l88 530zM1044 1634q0 -60 -40 -100q-40 -39 -98 -39t-88 35q-30 36 -30 96t41 98t99 39q116 1 116 -129zM655 1634q0 -60 -41 -100q-41 -39 -98 -39t-87 35
q-30 36 -30 96t41 98q40 38 98 39q116 1 117 -129z" />
    <glyph glyph-name="Zacute" unicode="&#x179;" horiz-adv-x="1052" 
d="M815 227q94 -1 133 -33t39 -99t-14 -95h-973l31 184q309 431 776 961h-612q4 134 49 181q45 46 159 46h674q55 0 74 -25q18 -26 10 -73l-14 -86q-460 -529 -791 -961h459zM666 1487q-69 0 -115 72l231 186q60 47 109 47t83 -34t50 -75l-258 -163q-54 -33 -100 -33z" />
    <glyph glyph-name="zacute" unicode="&#x17a;" horiz-adv-x="860" 
d="M641 215q150 0 150 -119q0 -41 -17 -96h-762l31 184q284 361 494 576h-408q0 106 39 160t147 55h467q51 -1 79 -21t28 -58t-12 -105q-143 -145 -275 -283t-248 -293h287zM556 1102q-32 0 -67 12t-51 29l187 235q60 80 139 80q45 0 85 -22t60 -47l-235 -234
q-52 -53 -118 -53z" />
    <glyph glyph-name="Zdotaccent" unicode="&#x17b;" horiz-adv-x="1052" 
d="M815 227q94 -1 133 -33t39 -99t-14 -95h-973l31 184q309 431 776 961h-612q4 134 49 181q45 46 159 46h674q55 0 74 -25q18 -26 10 -73l-14 -86q-460 -529 -791 -961h459zM870 1659q0 -86 -42 -125t-102 -39t-90 36t-30 77q0 86 42 125t102 39t90 -36t30 -77z" />
    <glyph glyph-name="zdotaccent" unicode="&#x17c;" horiz-adv-x="860" 
d="M641 215q150 0 150 -119q0 -41 -17 -96h-762l31 184q284 361 494 576h-408q0 106 39 160t147 55h467q51 -1 79 -21t28 -58t-12 -105q-143 -145 -275 -283t-248 -293h287zM717 1305q0 -86 -42 -125q-43 -39 -103 -39t-90 36t-29 76q0 86 42 125t102 39q60 1 90 -35t30 -77
z" />
    <glyph glyph-name="Zcaron" unicode="&#x17d;" horiz-adv-x="1052" 
d="M815 227q94 -1 133 -33t39 -99t-14 -95h-973l31 184q309 431 776 961h-612q4 134 49 181q45 46 159 46h674q55 0 74 -25q18 -26 10 -73l-14 -86q-460 -529 -791 -961h459zM561 1796q39 0 63 -12t46 -43l63 -92l115 106q46 39 111 39t100 -33l-209 -219q-59 -59 -143 -59
t-119 65l-121 219q55 29 94 29z" />
    <glyph glyph-name="zcaron" unicode="&#x17e;" horiz-adv-x="860" 
d="M641 215q150 0 150 -119q0 -41 -17 -96h-762l31 184q284 361 494 576h-408q0 106 39 160t147 55h467q51 -1 79 -21t28 -58t-12 -105q-143 -145 -275 -283t-248 -293h287zM413 1452q39 0 63 -10t42 -43l72 -121l137 133q42 39 104 39t97 -33l-221 -256q-51 -59 -142 -59
t-119 59l-127 262q56 29 94 29z" />
    <glyph glyph-name="longs" unicode="&#x17f;" horiz-adv-x="489" 
d="M374.5 1371q112.5 97 287.5 97t256 -75q47 -43 47 -93t-34 -90.5t-102 -60.5q-23 49 -57.5 78.5t-104 29.5t-107.5 -37.5t-54 -134.5l-182 -1105q-31 -195 -127.5 -303.5t-273.5 -108.5t-225 58.5t-48 100.5q0 85 96 142q59 -84 152 -84q66 0 101.5 50t51.5 145l178 1071
q33 223 145.5 320z" />
    <glyph glyph-name="florin" unicode="&#x192;" horiz-adv-x="1124" 
d="M1122 1300q0 -40 -35 -110q-125 0 -197 -48.5t-108 -174.5l-16 -58h293l-33 -209h-317l-150 -534q-65 -236 -189 -328t-290 -92q-74 0 -97.5 28.5t-23.5 66.5t39 124q119 0 192.5 49.5t106.5 173.5l141 512h-205l33 209h230l18 66q68 233 200 328.5t292 95.5
q74 0 95 -29.5t21 -69.5z" />
    <glyph glyph-name="Scommaaccent" unicode="&#x218;" horiz-adv-x="1048" 
d="M639 1163q-78 0 -124 -40q-46 -41 -46 -107t53 -114q52 -48 142 -99q253 -144 294 -293q14 -51 14 -134t-35 -164t-101 -136q-132 -111 -365 -111t-356 88q-37 27 -55 53q-17 27 -17 72t32 89t75 73q146 -146 302 -144q78 0 116 16q110 43 110 157q0 68 -47 120t-176 122
q-129 71 -199 162t-70 233q0 180 133 286q133 107 339 107t329 -103q51 -43 51 -98t-34 -101q-35 -46 -86 -69q-118 135 -279 135zM434 -389q-57 -84 -133 -84t-102 16l125 252q59 115 159 115q65 0 121 -31z" />
    <glyph glyph-name="scommaaccent" unicode="&#x219;" horiz-adv-x="829" 
d="M461 278q0 42 -45 79q-45 38 -117 88t-100 86q-58 74 -59 181t87 187q109 100 308 98q118 0 214 -57q84 -47 82 -123q1 -43 -31 -78t-81 -51q-37 57 -92 86t-103 29q-112 0 -110 -84q0 -44 60 -89q28 -22 64 -48t91 -70q118 -96 117 -230q-1 -133 -91 -223t-268 -90
q-262 0 -347 117q-20 28 -20 66q-1 71 91 135q111 -107 225 -107q70 0 98 28t27 70zM346 -389q-57 -84 -133 -84t-102 16l125 252q59 115 159 115q65 0 121 -31z" />
    <glyph glyph-name="uni021A" unicode="&#x21a;" horiz-adv-x="1105" 
d="M362 1372h879q-4 -134 -48 -181q-44 -48 -161 -48h-211l-188 -1143h-277l189 1143h-391q2 131 47 180t161 49zM422 -389q-57 -84 -134 -84t-102 16l125 252q59 115 160 115q65 0 121 -31z" />
    <glyph glyph-name="uni021B" unicode="&#x21b;" horiz-adv-x="765" 
d="M610 281q99 -43 99 -117q1 -74 -59 -119t-120 -60t-133 -16q-153 0 -229 80t-76 221q0 37 10 107l150 897q50 8 114 8t100 -40t36 -82t-4 -66l-19 -119h262l-34 -211h-263l-65 -402q-8 -40 -8 -71q0 -106 94 -107q75 0 145 97zM346 -389q-57 -84 -133 -84t-102 16
l125 252q59 115 159 115q65 0 121 -31z" />
    <glyph glyph-name="dotlessj" unicode="&#x237;" horiz-adv-x="505" 
d="M-221 -340q0 32 8 70h20q114 0 177 67q29 29 43 74t26 117l164 981q50 8 115 8t101 -39.5t36 -81.5t-4 -68l-129 -770q-29 -160 -88 -288.5t-157.5 -165.5t-158.5 -37t-106.5 30.5t-46.5 102.5z" />
    <glyph glyph-name="apostrophe" unicode="&#x2bc;" horiz-adv-x="446" 
d="M109 1324q0 50 35.5 83t85 33t79 -33t29.5 -85q0 -105 -74 -199.5t-160 -94.5q-61 0 -69 51q100 46 127 138q-23 16 -38 36.5t-15 70.5z" />
    <glyph glyph-name="circumflex" unicode="&#x2c6;" horiz-adv-x="745" 
d="M583 1102q-39 0 -65 10t-45 43l-72 121l-137 -133q-42 -39 -102 -39q-59 0 -94 33l221 256q51 59 141 59t119 -59l127 -263q-54 -28 -93 -28z" />
    <glyph glyph-name="caron" unicode="&#x2c7;" horiz-adv-x="745" 
d="M169 1452q38 0 62.5 -10t42.5 -43l72 -121l137 133q42 39 104 39t97 -33l-221 -256q-51 -59 -142 -59t-118 59l-127 262q55 29 93 29z" />
    <glyph glyph-name="uni02C9" unicode="&#x2c9;" horiz-adv-x="745" 
d="M565 1343q61 0 98 -40.5t-1 -139.5h-482q-61 0 -86.5 28.5t-24.5 72.5t15 79h481z" />
    <glyph glyph-name="breve" unicode="&#x2d8;" horiz-adv-x="745" 
d="M333 1106q-136 0 -201.5 80t-57.5 229q46 23 94 23t61 -18.5t20 -63.5t32.5 -69.5t64.5 -24.5t69.5 21.5t56.5 74.5t47.5 66.5t67.5 13.5t95 -33q-49 -150 -131 -224.5t-218 -74.5z" />
    <glyph glyph-name="dotaccent" unicode="&#x2d9;" horiz-adv-x="745" 
d="M504 1305q0 -86 -42 -125t-102 -39t-90 35.5t-30 76.5q0 86 42 125t102 39t90 -35.5t30 -76.5z" />
    <glyph glyph-name="ring" unicode="&#x2da;" horiz-adv-x="745" 
d="M371 1219q51 0 80.5 37.5t29.5 87.5t-29.5 87t-79.5 37t-80 -36.5t-30 -86.5t29 -88t80 -38zM372 1110q-52 0 -95.5 18.5t-73 50t-45 74.5t-15.5 117t63.5 141.5t166.5 67.5q154 0 190.5 -93t36.5 -140.5t-16.5 -90.5t-45 -75.5t-71.5 -51t-95 -18.5z" />
    <glyph glyph-name="ogonek" unicode="&#x2db;" horiz-adv-x="745" 
d="M535 -340q0 -35 -18.5 -56.5t-47.5 -34.5t-61.5 -19.5t-83 -6.5t-103.5 42.5t-53 107.5q0 108 81 193t197 147l129 -25q-146 -96 -180.5 -159.5t-34.5 -94.5q0 -61 46 -61t94 43q35 -41 35 -76z" />
    <glyph glyph-name="tilde" unicode="&#x2dc;" horiz-adv-x="745" 
d="M254 1217q-77 0 -139 -84q-47 29 -60.5 51t-13.5 69.5t69 90t132 42.5t97 -11t59.5 -24.5t47.5 -24.5t52 -11t60 17t69 71q49 -25 62 -51.5t13 -74.5t-66.5 -90t-130.5 -42q-65 0 -97.5 11t-57 24.5t-46 25t-50.5 11.5z" />
    <glyph glyph-name="hungarumlaut" unicode="&#x2dd;" horiz-adv-x="745" 
d="M450 1102q-30 0 -61 12t-47 29l178 235q57 80 139 80q37 0 72 -22.5t55 -46.5l-225 -234q-53 -53 -111 -53zM68 1102q-30 0 -60.5 12t-46.5 29l178 235q57 80 132 80t135 -69l-226 -234q-54 -53 -112 -53z" />
    <glyph glyph-name="tonos" unicode="&#x384;" horiz-adv-x="782" 
d="M370 1085q-41 0 -94 21l123 233q55 103 142 103q66 0 139 -41l-174 -242q-52 -74 -136 -74z" />
    <glyph glyph-name="dieresistonos" unicode="&#x385;" horiz-adv-x="782" 
d="M303 1277q0 -50 -37 -89t-88 -39t-87 26.5t-36 78.5t37 92t90 40t87 -29.5t34 -79.5zM368 1075q-49 0 -79 12l108 240q25 53 60 90t93 37t105 -24l-155 -269q-53 -86 -132 -86zM883 1277q0 -50 -37 -89t-88 -39t-87 26.5t-36 78.5t37 92t90 40t87 -29.5t34 -79.5z" />
    <glyph glyph-name="Alphatonos" unicode="&#x386;" horiz-adv-x="1265" 
d="M825 514l-71 541l-232 -541h303zM796 1380q64 0 108 -30t59 -107l221 -1243h-283l-43 293h-428l-125 -293h-285l639 1348q72 32 137 32zM226 1006q-56 0 -76 10l108 235q63 129 159 129q74 0 113 -26l-153 -252q-61 -96 -151 -96z" />
    <glyph glyph-name="Epsilontonos" unicode="&#x388;" horiz-adv-x="1284" 
d="M1036 219q172 1 172 -129q0 -62 -14 -90h-834l228 1372h794q-4 -126 -47 -172q-43 -47 -151 -47h-357l-55 -338h399l-36 -219h-400l-61 -377h362zM278 1024q-38 -18 -86 -18t-67 10l108 235q63 129 159 129q72 0 114 -26l-154 -252q-37 -59 -74 -78z" />
    <glyph glyph-name="Etatonos" unicode="&#x389;" horiz-adv-x="1540" 
d="M803 1340q35 -40 35 -81t-4 -67l-62 -377h449l92 557q50 8 115 8t100 -40t35 -81t-4 -67l-197 -1192h-277l99 594h-449l-98 -594h-277l228 1372q50 8 115 8t100 -40zM278 1024q-38 -18 -86 -18t-67 10l108 235q63 129 159 129q72 0 114 -26l-154 -252q-37 -59 -74 -78z
" />
    <glyph glyph-name="Iotatonos" unicode="&#x38a;" horiz-adv-x="813" 
d="M809 1340q35 -40 35 -81t-4 -67l-197 -1192h-276l227 1372q50 8 115 8t100 -40zM278 1024q-38 -18 -86 -18t-67 10l108 235q63 129 159 129q72 0 114 -26l-154 -252q-37 -59 -74 -78z" />
    <glyph glyph-name="Omicrontonos" unicode="&#x38c;" horiz-adv-x="1527" 
d="M606 500q0 -146 54 -226t176 -79q152 0 266 192t112 494q0 127 -54 209t-169 81q-166 0 -276 -187q-109 -187 -109 -484zM834 -35q-156 0 -249 45q-266 129 -266 502q0 156 42 314q89 336 349 493q132 80 288 80t246 -45t148 -120q113 -147 111 -382q0 -352 -168 -600
q-84 -127 -214 -207q-131 -80 -287 -80zM278 1024q-38 -18 -86 -18t-67 10l108 235q63 129 159 129q72 0 114 -26l-154 -252q-37 -59 -74 -78z" />
    <glyph glyph-name="Upsilontonos" unicode="&#x38e;" horiz-adv-x="1497" 
d="M737 1380q106 0 140 -100l143 -473l280 448q79 127 203 125q76 0 137 -43l-528 -805l-88 -532h-276l88 530l-271 803q96 47 172 47zM278 1024q-38 -18 -86 -18t-67 10l108 235q63 129 159 129q72 0 114 -26l-154 -252q-37 -59 -74 -78z" />
    <glyph glyph-name="Omegatonos" unicode="&#x38f;" horiz-adv-x="1523" 
d="M1331 217q144 0 144 -122q0 -52 -15 -95h-547l33 197q144 86 229 265q84 179 82 398q0 141 -63 227t-190 87q-172 0 -275 -173q-104 -173 -103 -398t72 -330q27 -40 64 -76l-33 -197h-350q-84 0 -115 34t-31 73q-1 39 7 65t12 45h237q-61 67 -102 175t-41 238t44 270
q93 297 340 430q126 69 272 69t245 -42q194 -83 263 -289q34 -98 34 -198q0 -291 -173 -523q-56 -75 -126 -130h86zM278 1024q-38 -18 -86 -18t-67 10l108 235q63 129 159 129q72 0 114 -26l-154 -252q-37 -59 -74 -78z" />
    <glyph glyph-name="iotadieresistonos" unicode="&#x390;" horiz-adv-x="552" 
d="M213 969q0 8 81 8t122 -30q49 -32 49 -105v-20q0 -10 -2 -19l-80 -484q-26 -154 38 -176q19 -6 40 -6t53 8l23 -102q-89 -63 -215 -63t-178 61t-52 172q0 29 6 63zM233 1277q-1 -50 -37 -89t-88 -39t-86 27q-36 26 -36 78t37 92t90 40t87 -29q33 -30 33 -80zM480 1454
q58 0 106 -24l-156 -269q-52 -85 -132 -85q-46 -1 -79 11l109 240q25 53 59 90q35 37 93 37zM565 1254q0 52 37 92t90 40t87 -30t34 -79q0 -50 -37 -89t-88 -39t-87 27q-36 26 -36 78z" />
    <glyph glyph-name="Alpha" unicode="&#x391;" horiz-adv-x="1224" 
d="M784 514l-71 541l-232 -541h303zM618 1348q72 32 137 32t109 -30t58 -107l221 -1243h-283l-43 293h-428l-125 -293h-284z" />
    <glyph glyph-name="Beta" unicode="&#x392;" horiz-adv-x="1126" 
d="M604 807q92 0 153 55q60 55 60 170q0 74 -47 114q-48 40 -136 40t-112 -4l-63 -375h145zM772 430q0 178 -192 178h-154l-66 -405h101q163 0 237 56t74 171zM634 1384q240 0 347 -94t104 -237q0 -229 -223 -332q82 -37 137 -110t55 -187t-44 -198q-123 -226 -564 -226
h-383l226 1362q215 22 345 22z" />
    <glyph glyph-name="Gamma" unicode="&#x393;" horiz-adv-x="948" 
d="M883 1143h-355l-188 -1143h-277l228 1372h801q-4 -129 -47.5 -179t-161.5 -50z" />
    <glyph glyph-name="uni0394" unicode="&#x394;" horiz-adv-x="1265" 
d="M802 1380q132 0 159 -151l223 -1229h-1204l657 1352q33 12 65 20t100 8zM872 213l-131 844l-385 -844h516z" />
    <glyph glyph-name="Epsilon" unicode="&#x395;" horiz-adv-x="987" 
d="M739 219q172 1 172 -129q0 -62 -14 -90h-834l228 1372h794q-4 -126 -47 -172q-43 -47 -151 -47h-357l-55 -338h399l-36 -219h-400l-61 -377h362z" />
    <glyph glyph-name="Zeta" unicode="&#x396;" horiz-adv-x="1052" 
d="M815 227q94 -1 133 -33t39 -99t-14 -95h-973l31 184q309 431 776 961h-612q4 134 49 181q45 46 159 46h674q55 0 74 -25q18 -26 10 -73l-14 -86q-460 -529 -791 -961h459z" />
    <glyph glyph-name="Eta" unicode="&#x397;" horiz-adv-x="1243" 
d="M506 1340q35 -40 35 -81t-4 -67l-62 -377h449l92 557q50 8 115 8t100 -40t35 -81t-4 -67l-197 -1192h-277l99 594h-449l-98 -594h-277l228 1372q50 8 115 8t100 -40z" />
    <glyph glyph-name="Theta" unicode="&#x398;" horiz-adv-x="1341" 
d="M805 1171q-166 0 -275.5 -186t-109.5 -502q0 -129 54 -208.5t175 -79.5q153 0 266 190t113 488t-223 298zM648 -35q-156 0 -335.5 86.5t-179.5 460.5q0 156 42 314.5t129 285.5t219 207t288 80t331 -86.5t175 -449.5t-168 -611q-84 -127 -214.5 -207t-286.5 -80zM901 584
h-395l35 219h395z" />
    <glyph glyph-name="Iota" unicode="&#x399;" horiz-adv-x="518" 
d="M506 1340q35 -40 35 -81t-4 -67l-197 -1192h-277l228 1372q50 8 115 8t100 -40z" />
    <glyph glyph-name="Kappa" unicode="&#x39a;" horiz-adv-x="1112" 
d="M405 1380q64 0 97 -40t33 -83t-5 -65l-71 -436q14 48 81 124q13 15 19 21l328 369q101 112 208 111t152 -62l-542 -623l364 -676q-67 -41 -145 -42t-124 22t-79 78l-217 395q-52 93 -64 168l-106 -641h-271l228 1372q50 8 114 8z" />
    <glyph glyph-name="Lambda" unicode="&#x39b;" horiz-adv-x="1208" 
d="M764 1380q61 0 107.5 -33.5t56.5 -113.5l198 -1233h-286l-121 1053l-457 -1053h-282l632 1346q91 34 152 34z" />
    <glyph glyph-name="Mu" unicode="&#x39c;" horiz-adv-x="1501" 
d="M477 1380q110 0 133 -120l162 -707l397 704q70 125 176 124t138 -21l-131 -1360h-258l88 883l-342 -596h-226l-141 575q-179 -794 -194 -862h-256l313 1360q77 20 141 20z" />
    <glyph glyph-name="Nu" unicode="&#x39d;" horiz-adv-x="1239" 
d="M424 1380q96 0 147 -127l310 -786l151 905q46 8 86 8q80 0 112 -40t32 -83t-5 -65l-196 -1192h-230l-366 907l-148 -907h-254l226 1366q81 14 135 14z" />
    <glyph glyph-name="Xi" unicode="&#x39e;" horiz-adv-x="995" 
d="M893 109q0 -61 -23 -109h-706q-150 0 -150 113q0 61 23 116h704q152 0 152 -120zM188 1163q0 209 207 209h707v-14q0 -109 -48 -162t-159 -53h-707v20zM182 594l37 223h701l-37 -223h-701z" />
    <glyph glyph-name="Omicron" unicode="&#x39f;" horiz-adv-x="1341" 
d="M1028 866q0 142 -54 224t-169 81q-167 0 -276 -186t-109 -502q0 -129 54 -209t175 -79q74 0 142 48t120 137q117 197 117 486zM648 -35q-156 0 -250 45q-266 128 -265 502q0 156 42 314t129 286q87 127 219 207t288 80t247 -45t148 -120q111 -146 111 -382
q0 -352 -168 -600q-84 -127 -214 -207q-131 -80 -287 -80z" />
    <glyph glyph-name="Pi" unicode="&#x3a0;" horiz-adv-x="1226" 
d="M1051 0h-277l189 1143h-435l-188 -1143h-277l228 1372h985z" />
    <glyph glyph-name="Rho" unicode="&#x3a1;" horiz-adv-x="1120" 
d="M551 707q221 0 279 151q22 55 22 142q0 86 -65 132t-152 46t-109 -7l-75 -464h100zM620 1384q398 0 494 -231q29 -70 29 -179q0 -110 -46 -208q-130 -277 -589 -277h-92l-82 -489h-271l224 1362q175 22 333 22z" />
    <glyph glyph-name="Sigma" unicode="&#x3a3;" horiz-adv-x="1019" 
d="M797 217q91 0 123 -40t23 -93q-9 -54 -15 -84h-928l33 188l491 543l-311 453l16 96q8 47 32 69.5t83 22.5h786q-8 -126 -47 -172.5t-155 -46.5h-406l291 -434l-463 -502h447z" />
    <glyph glyph-name="Tau" unicode="&#x3a4;" horiz-adv-x="1105" 
d="M362 1372h879q-4 -134 -48 -181q-44 -48 -161 -48h-211l-188 -1143h-277l189 1143h-391q2 131 47 180t161 49z" />
    <glyph glyph-name="Upsilon" unicode="&#x3a5;" horiz-adv-x="1105" 
d="M174 1333q96 47 172 47q106 0 139 -100l144 -473l280 448q79 127 203 125q76 0 137 -43l-528 -805l-88 -532h-277l88 530z" />
    <glyph glyph-name="Phi" unicode="&#x3a6;" horiz-adv-x="1435" 
d="M1153 754q0 90 -46 163.5t-155 90.5l-100 -605q158 18 229.5 113.5t71.5 237.5zM393 657q0 -141 74 -187t127 -54l100 600q-139 -10 -220 -98.5t-81 -260.5zM119 678q0 104 44 204.5t165 210.5t397 124l35 206q50 11 87 11q79 0 122.5 -35.5t27.5 -124.5l-10 -64
q440 -82 440 -458q0 -232 -161.5 -378.5t-444.5 -166.5l-35 -207h-264l37 215q-199 32 -319.5 154.5t-120.5 308.5z" />
    <glyph glyph-name="Chi" unicode="&#x3a7;" horiz-adv-x="1101" 
d="M359 1380q117 0 155 -100l137 -367l246 344q47 63 92 93t119 30t137 -41l-489 -661l260 -668q-78 -31 -160 -32t-118 31t-58 93l-123 357l-307 -459h-303l504 694l-258 639q101 47 166 47z" />
    <glyph glyph-name="Psi" unicode="&#x3a8;" horiz-adv-x="1458" 
d="M1348 1380q155 0 155 -123q0 -16 -4 -36l-37 -220q-49 -298 -176 -448.5t-422 -173.5l-63 -379h-273l64 381q-196 19 -300 147t-104 318q0 66 13 137l65 387q77 10 101 10q151 0 151 -120q0 -19 -4 -39l-43 -248q-14 -86 -14 -159q0 -72 37.5 -131.5t136.5 -70.5l127 758
q77 10 96 10q156 0 156 -123q0 -16 -4 -36l-103 -607q125 13 187 87t94 266l67 403q78 10 97 10z" />
    <glyph glyph-name="Omega" unicode="&#x3a9;" horiz-adv-x="1390" 
d="M47 108q0 40 19 109h237q-61 68 -102 175.5t-41 237.5t44 270t129 251t211 179.5t272 68.5q268 0 405 -154.5t137 -388.5q0 -175 -79.5 -351.5t-219.5 -287.5h86q84 0 113.5 -35t29.5 -87t-14 -95h-547l33 197q222 133 266.5 343t44.5 336t-63.5 212t-190.5 86
q-170 0 -273.5 -171t-103.5 -397t49.5 -299.5t85.5 -109.5l-32 -197h-350q-84 0 -115 34t-31 74z" />
    <glyph glyph-name="Iotadieresis" unicode="&#x3aa;" horiz-adv-x="518" 
d="M506 1340q35 -40 35 -81t-4 -67l-197 -1192h-277l228 1372q50 8 115 8t100 -40zM778 1634q0 -60 -41 -100q-41 -39 -98 -39t-87 35q-30 36 -30 96t41 98t99 39q116 1 116 -129zM133 1626q0 60 41 98t98 39q57 -1 87 -35t30 -94t-41 -100q-41 -39 -98 -39t-87 35
q-30 36 -30 96z" />
    <glyph glyph-name="Upsilondieresis" unicode="&#x3ab;" horiz-adv-x="1105" 
d="M174 1333q96 47 172 47q106 0 139 -100l144 -473l280 448q79 127 203 125q76 0 137 -43l-528 -805l-88 -532h-277l88 530zM727 1626q0 60 41 98t98 39q57 -1 87 -35t30 -94t-41 -100q-41 -39 -98 -39t-87 35q-30 36 -30 96zM338 1626q0 60 41 98t98 39q57 -1 87 -35
t30 -94t-41 -100q-41 -39 -98 -39t-87 35q-30 36 -30 96z" />
    <glyph glyph-name="alphatonos" unicode="&#x3ac;" horiz-adv-x="1095" 
d="M637 793q-47 0 -95 -32q-105 -70 -149 -233q-23 -84 -22 -188q0 -162 106 -162q71 0 121 61t64 150l63 379q-41 25 -88 25zM634 997q214 0 386 -104l-94 -574q-26 -154 38 -176q19 -6 46 -6t47 8l22 -102q-89 -63 -221 -63q-172 0 -209 141q-48 -66 -88 -95
q-77 -55 -172 -56q-237 -2 -281 221q-38 197 26 390q83 248 290 360q104 56 210 56zM664 1339q55 103 132 103t148 -41l-174 -242q-50 -71 -136 -73q-43 -1 -93 20z" />
    <glyph glyph-name="epsilontonos" unicode="&#x3ad;" horiz-adv-x="905" 
d="M512 395q-168 1 -168 -121q0 -114 176 -112q113 0 211 65q25 16 39 29q61 -47 61 -114q0 -66 -56 -104q-99 -66 -292 -68q-193 -1 -306 74t-111 200q0 98 54 165t154 97q-57 33 -87 85q-59 103 -2 222q58 113 219 161q81 24 188 23q170 0 258 -63q63 -46 63 -100
q1 -54 -23 -86t-56 -58q-91 115 -224 115q-182 0 -182 -119q0 -47 32 -71t85 -23h186l-35 -197h-184zM584 1339q55 103 132 103t148 -41l-174 -242q-80 -113 -229 -53z" />
    <glyph glyph-name="etatonos" unicode="&#x3ae;" horiz-adv-x="1048" 
d="M748 997q92 0 149 -41q100 -72 100 -235q0 -64 -14 -143l-170 -1024h-276l170 1024q8 46 8 88t-22 76q-21 32 -87 32t-114 -55t-64 -141l-96 -578h-277l160 969q46 8 103 8q56 0 92 -25t53 -84q119 129 285 129zM633 1339q55 103 132 103t148 -41l-174 -242
q-80 -113 -229 -53z" />
    <glyph glyph-name="iotatonos" unicode="&#x3af;" horiz-adv-x="552" 
d="M213 969q0 8 81 8t122 -30q49 -32 49 -105v-20q0 -10 -2 -19l-80 -484q-26 -154 38 -176q19 -6 40 -6t53 8l23 -102q-89 -63 -215 -63t-178 61t-52 172q0 29 6 63zM365 1339q55 103 132 103t148 -41l-174 -242q-51 -71 -137 -73q-43 -1 -92 20z" />
    <glyph glyph-name="upsilondieresistonos" unicode="&#x3b0;" horiz-adv-x="1042" 
d="M864 977q154 0 154 -148q0 -19 -4 -41l-64 -376q-50 -312 -259 -407q-79 -36 -183 -36q-324 0 -385 254q-20 88 0 211l88 535q0 8 88 8q164 0 164 -146q0 -25 -4 -47l-64 -370q-33 -190 50 -225q26 -11 63 -11q74 0 110 62t56 178l94 551q0 8 96 8zM489 1277
q-1 -50 -37 -89t-88 -39t-86 27q-36 26 -36 78t37 92t90 40t87 -29q33 -30 33 -80zM736 1454q58 0 106 -24l-156 -269q-52 -85 -132 -85q-46 -1 -79 11l109 240q25 53 59 90q35 37 93 37zM821 1254q0 52 37 92t90 40t87 -30t34 -79q0 -50 -37 -89t-88 -39t-87 27
q-36 26 -36 78z" />
    <glyph glyph-name="alpha" unicode="&#x3b1;" horiz-adv-x="1095" 
d="M637 793q-100 0 -183 -124.5t-83 -328.5q0 -162 106 -162q69 0 119.5 60.5t65.5 150.5l63 379q-41 25 -88 25zM94 336q0 125 40 244.5t112.5 212t177 148.5t210.5 56q214 0 386 -104l-94 -574q-26 -154 15.5 -168t68 -14t47.5 8l22 -102q-89 -63 -221 -63
q-172 0 -209 141q-50 -69 -111 -110.5t-163 -41.5q-281 0 -281 367z" />
    <glyph glyph-name="beta" unicode="&#x3b2;" horiz-adv-x="1112" 
d="M541 178q241 0 241 264q0 118 -50 175t-140 57h-37l33 203h35q104 0 155 61.5t51 151.5q0 160 -143 161q-90 0 -131 -56t-57 -161l-129 -780q23 -27 71.5 -51.5t100.5 -24.5zM1059 458q0 -215 -127.5 -351t-337.5 -136q-115 0 -179.5 43t-76.5 58l-88 -518h-268l247 1488
q73 426 464 426q193 0 300 -97.5t107 -241.5q0 -143 -68 -227t-174 -118q96 -47 148.5 -132.5t52.5 -193.5z" />
    <glyph glyph-name="gamma" unicode="&#x3b3;" horiz-adv-x="974" 
d="M219 977q78 0 117 -29.5t56 -95.5q45 -175 71 -514l229 467q45 90 92 131t124 41t149 -31l-580 -999q-33 -261 -69 -393h-256q67 294 74 435q12 253 -38.5 540.5t-101.5 414.5q55 33 133 33z" />
    <glyph glyph-name="delta" unicode="&#x3b4;" horiz-adv-x="1042" 
d="M446 895q-127 131 -127 266t113.5 221t308.5 86t287 -106q31 -37 31 -81t-34 -82t-83 -54q-74 115 -203 115q-76 0 -114.5 -28t-38.5 -76t35.5 -93t112.5 -109q141 -118 199 -224.5t58 -221.5q0 -225 -130 -382t-361 -157q-196 0 -305 112t-109 288q0 175 89 316.5
t271 209.5zM360 364q0 -88 42 -137t104 -49q107 0 156 103t49 219t-29 170.5t-78 95.5l-22 18q-159 -52 -190.5 -192t-31.5 -228z" />
    <glyph glyph-name="epsilon" unicode="&#x3b5;" horiz-adv-x="905" 
d="M512 395q-168 1 -168 -121q0 -112 176 -112q140 0 250 94q61 -47 61 -114q0 -66 -56 -104q-102 -68 -293 -69q-190 0 -303 74.5t-113 200.5q0 198 208 262q-57 33 -86.5 85t-29.5 109q0 127 115 212t302 85t275 -63q63 -46 63 -100t-23.5 -85.5t-55.5 -58.5
q-91 115 -224 115q-182 0 -182 -119q0 -47 32 -70.5t85 -23.5h186l-35 -197h-184z" />
    <glyph glyph-name="zeta" unicode="&#x3b6;" horiz-adv-x="847" 
d="M549 -140q0 46 -16.5 70.5t-46 44t-70.5 38t-90 42.5q-133 66 -182.5 146t-49.5 181q0 203 133.5 397.5t446.5 445.5h-414q0 117 44 167t145 50h458q57 0 85 -15.5t28 -51.5t-16 -111q-336 -282 -486.5 -471t-150.5 -371q0 -83 42.5 -129.5t165.5 -108.5
q104 -49 158.5 -111.5t54.5 -174.5t-90 -191.5t-262 -103.5l-30 106q143 46 143 151z" />
    <glyph glyph-name="eta" unicode="&#x3b7;" horiz-adv-x="1048" 
d="M748 997q92 0 170.5 -56.5t78.5 -219.5q0 -64 -14 -143l-170 -1024h-276l170 1024q8 46 8 88t-21.5 75t-87 33t-115 -55t-63.5 -141l-96 -578h-277l160 969q46 8 103 8q56 0 91 -24.5t54 -84.5q119 129 285 129z" />
    <glyph glyph-name="theta" unicode="&#x3b8;" horiz-adv-x="1099" 
d="M844 1022q0 233 -142 233q-88 0 -163.5 -98t-122.5 -321h409q19 126 19 186zM365 449q0 -271 149 -271q98 0 171.5 122t109.5 329h-416q-14 -96 -14 -180zM469 -31q-166 0 -268.5 123t-102.5 345t46 411.5t128 327t197 215t254 77.5q174 0 277.5 -116t103.5 -336
q0 -221 -40 -412.5t-119 -333t-194.5 -221.5t-281.5 -80z" />
    <glyph glyph-name="iota" unicode="&#x3b9;" horiz-adv-x="552" 
d="M92 213q0 29 6 63l115 693q1 8 63 8q97 0 143 -32t46 -103v-14q0 -15 -2 -25l-80 -484q-26 -154 15.5 -168t62.5 -14t53 8l23 -102q-89 -63 -215 -63t-178 61t-52 172z" />
    <glyph glyph-name="kappa" unicode="&#x3ba;" horiz-adv-x="1013" 
d="M328 977q63 0 98 -39.5t35 -81.5t-4 -68l-43 -260q14 41 44.5 81t73.5 91l183 213q67 78 154 78q88 0 159 -73l-358 -410l147 -281q23 -43 46.5 -66.5t57.5 -23.5t54 8l22 -102q-89 -63 -190 -63t-157.5 39t-94.5 120l-92 180q-51 86 -57 152l-78 -471h-273l160 969
q50 8 113 8z" />
    <glyph glyph-name="lambda" unicode="&#x3bb;" horiz-adv-x="1073" 
d="M370 1255q-60 0 -114 -34q-45 68 -45 126q0 57 67.5 89t153.5 32q151 0 221.5 -93.5t94.5 -256.5l118 -821q16 -138 58 -149t68 -11t46 8l23 -102q-89 -63 -208 -63q-118 0 -172 67.5t-69 177.5l-53 447l-274 -672h-273l404 936h106l-22 166q-12 90 -41 121.5t-89 31.5z
" />
    <glyph glyph-name="uni03BC" unicode="&#x3bc;" horiz-adv-x="1110" 
d="M456 -25q-87 0 -134 60l-80 -481h-258l231 1415q56 8 117 8t98 -39t37 -104q0 -20 -4 -46l-64 -378q-33 -232 99 -232q65 0 116.5 69.5t63.5 162.5l94 559q48 8 107 8t101 -34t42 -109q0 -20 -4 -46l-78 -469q-26 -154 15.5 -168t68.5 -14t47 8l23 -102q-89 -63 -222 -63
q-74 0 -131 32.5t-73 98.5q-25 -47 -75 -91.5t-137 -44.5z" />
    <glyph glyph-name="nu" unicode="&#x3bd;" horiz-adv-x="927" 
d="M230 977q60 0 86 -15q68 -37 83 -178l41 -489l213 496q78 186 215 186q84 0 133 -29l-464 -948h-291l-148 948q72 29 132 29z" />
    <glyph glyph-name="xi" unicode="&#x3be;" horiz-adv-x="917" 
d="M436 -291q144 46 144 151q0 46 -16.5 70.5t-49.5 47t-158 77.5q-133 63 -197.5 145.5t-64.5 211.5q0 274 295 379q-127 96 -127 251q0 188 130 307t337 119q106 0 214 -43t108 -141q0 -43 -34 -81t-83 -54q-72 111 -188 111t-168 -60.5t-52 -153t46 -135.5t116 -43h211
l-35 -211h-227q-131 0 -200.5 -64.5t-69.5 -157.5t53.5 -140.5t171.5 -102.5t172.5 -118.5t54.5 -175.5t-90 -191.5t-262 -103.5z" />
    <glyph glyph-name="omicron" unicode="&#x3bf;" horiz-adv-x="1044" 
d="M494 178q96 0 161.5 108.5t65.5 313.5q0 94 -35 140t-92 46q-96 0 -161.5 -108.5t-65.5 -312.5q0 -94 35 -140.5t92 -46.5zM483 -31q-214 0 -301.5 115t-87.5 293q0 266 140 443t387 177q195 0 284.5 -115t89.5 -292q0 -265 -95 -391.5t-194.5 -178t-222.5 -51.5z" />
    <glyph glyph-name="pi" unicode="&#x3c0;" horiz-adv-x="1193" 
d="M662 213q0 29 6 63l82 488h-211l-127 -764h-277l127 764h-174l35 211h1110l-35 -211h-176l-74 -445q-26 -153 17 -167.5t65 -14.5t53 8l23 -102q-89 -63 -217 -63q-127 0 -177 61t-50 172z" />
    <glyph glyph-name="rho" unicode="&#x3c1;" horiz-adv-x="1069" 
d="M735 586q0 109 -32.5 153.5t-103.5 44.5t-115 -67.5t-68 -208.5l-51 -303q31 -27 98 -27q127 0 199.5 110t72.5 298zM625 997q205 0 300 -114.5t95 -332.5t-101.5 -347t-194 -180.5t-182.5 -51.5q-139 0 -206 64l-80 -481h-276l157 950q43 258 163 375.5t325 117.5z" />
    <glyph glyph-name="sigma1" unicode="&#x3c2;" horiz-adv-x="927" 
d="M397 -291q144 46 144 150q0 45 -14.5 67.5t-39 40t-58.5 33.5t-75 37q-260 129 -260 389q0 233 144 402t395 169q169 0 248 -84q51 -55 51 -107q0 -91 -133 -142q-51 122 -173 122t-187.5 -99t-65.5 -220t50 -179.5t149 -105.5t153.5 -109.5t54.5 -174.5t-90 -191.5
t-262 -103.5z" />
    <glyph glyph-name="sigma" unicode="&#x3c3;" horiz-adv-x="1056" 
d="M698 527q0 171 -57 237h-16q-118 0 -188 -102t-70 -243t42 -191t97 -50q82 0 137 89t55 260zM969 465q0 -205 -137 -350.5t-351 -145.5q-166 0 -276.5 117t-110.5 309q0 266 161 423t427 157h424l-37 -211h-213q47 -43 80 -121t33 -178z" />
    <glyph glyph-name="tau" unicode="&#x3c4;" horiz-adv-x="907" 
d="M733 266q98 -42 98 -115q0 -74 -76.5 -128t-195.5 -54q-205 0 -273.5 111t-39.5 274l69 410h-249l36 211h854l-36 -211h-326l-70 -410q-27 -170 68 -170q53 0 79.5 20.5t61.5 61.5z" />
    <glyph glyph-name="upsilon" unicode="&#x3c5;" horiz-adv-x="1042" 
d="M864 977q154 0 154 -148q0 -19 -4 -41l-64 -376q-50 -312 -194 -377.5t-248 -65.5q-209 0 -317 115t-68 350l88 535q0 8 88 8q164 0 164 -146q0 -25 -4 -47l-64 -370q-32 -187 22 -211.5t91 -24.5q74 0 109.5 61.5t56.5 178.5l94 551q0 8 96 8z" />
    <glyph glyph-name="phi" unicode="&#x3c6;" horiz-adv-x="1351" 
d="M1044 539q0 213 -163 256l-107 -631q123 10 196.5 106.5t73.5 268.5zM354 432q0 -96 37 -170t125 -96l107 633q-123 -10 -196 -102.5t-73 -264.5zM88 448q0 102 39 206t151.5 216.5t376.5 128.5l45 275q8 8 88 8t115 -29.5t35 -89.5q0 -17 -4 -43l-23 -131
q213 -53 306.5 -171t93.5 -258q0 -268 -153.5 -423.5t-418.5 -171.5l-67 -411h-256l69 419q-200 43 -298.5 165t-98.5 310z" />
    <glyph glyph-name="chi" unicode="&#x3c7;" horiz-adv-x="987" 
d="M270 979q58 0 87.5 -37t48.5 -96l104 -350l207 354q75 127 197 127q60 0 88 -10.5t57 -24.5l-457 -694l154 -453q30 -102 116 -102q42 0 62 8l22 -102q-88 -62 -199 -62q-112 0 -166 56.5t-83 148.5l-96 301l-303 -489h-273l483 737l-215 657q108 31 166 31z" />
    <glyph glyph-name="psi" unicode="&#x3c8;" horiz-adv-x="1447" 
d="M1270 977q157 0 157 -121q0 -21 -4 -41l-55 -326q-85 -512 -580 -520l-69 -415h-262l69 415q-191 12 -301 135.5t-110 307.5q0 34 10 106l76 451q-1 8 77 8t122 -22.5t44 -96.5q0 -19 -4 -43l-51 -299q-8 -50 -8 -120t41 -139t139 -83l182 1098q8 8 88 8q154 0 154 -121
q0 -21 -4 -41l-158 -944q155 7 211 121.5t70 198.5l82 475q0 8 84 8z" />
    <glyph glyph-name="omega" unicode="&#x3c9;" horiz-adv-x="1454" 
d="M977 850q50 125 136 125q44 0 71.5 -12.5t78 -50t97.5 -155.5t47 -237q0 -120 -22.5 -215.5t-73.5 -170.5t-131 -120t-193 -45t-180.5 59.5t-95.5 139.5q-55 -134 -143.5 -166.5t-146.5 -32.5q-137 0 -232 93t-95 288q0 286 105.5 409.5t185.5 170.5t136 47t90 -40
t36 -101q-289 -109 -289 -482q0 -78 27 -127t82 -49q111 0 154 232l47 274q0 8 84 8q149 0 149 -121q0 -19 -4 -41l-20 -120q-20 -123 15.5 -177.5t86.5 -54.5q91 0 127.5 99t36.5 234q0 136 -38 216t-128 123z" />
    <glyph glyph-name="iotadieresis" unicode="&#x3ca;" horiz-adv-x="552" 
d="M213 969q0 8 81 8t122 -30q49 -32 49 -105v-20q0 -10 -2 -19l-80 -484q-26 -154 38 -176q19 -6 40 -6t53 8l23 -102q-89 -63 -215 -63t-178 61t-52 172q0 29 6 63zM729 1278q0 -60 -41 -98t-98 -39q-57 0 -87 35t-30 75q0 80 41 119t98 39t87 -35q30 -36 30 -96z
M340 1278q0 -60 -41 -98t-98 -39q-57 0 -87 35t-30 75q0 80 41 119t98 39t87 -35q30 -36 30 -96z" />
    <glyph glyph-name="upsilondieresis" unicode="&#x3cb;" horiz-adv-x="1042" 
d="M864 977q154 0 154 -148q0 -19 -4 -41l-64 -376q-50 -312 -259 -407q-79 -36 -183 -36q-324 0 -385 254q-20 88 0 211l88 535q0 8 88 8q164 0 164 -146q0 -25 -4 -47l-64 -370q-33 -190 50 -225q26 -11 63 -11q74 0 110 62t56 178l94 551q0 8 96 8zM967 1278
q0 -60 -41 -98q-40 -38 -98 -39q-58 0 -88 35t-29 75q0 80 41 119t98 39t87 -35q30 -36 30 -96zM578 1278q0 -60 -41 -98t-99 -39q-58 0 -87 35q-30 35 -29 75q0 80 40 119t98 39t88 -35q30 -36 30 -96z" />
    <glyph glyph-name="omicrontonos" unicode="&#x3cc;" horiz-adv-x="1044" 
d="M494 178q96 0 162 109t65 313q0 94 -35 140t-92 46q-96 0 -162 -108t-65 -313q0 -94 34 -141q36 -46 93 -46zM483 -31q-214 0 -309 124q-78 101 -79 255q-3 445 298 599q98 50 215 50q210 0 304 -124q83 -106 83 -283q0 -121 -30 -234q-64 -234 -260 -336
q-99 -52 -222 -51zM676 1339q55 103 132 103t148 -41l-174 -242q-80 -113 -229 -53z" />
    <glyph glyph-name="upsilontonos" unicode="&#x3cd;" horiz-adv-x="1042" 
d="M864 977q154 0 154 -148q0 -19 -4 -41l-64 -376q-50 -312 -259 -407q-79 -36 -183 -36q-324 0 -385 254q-20 88 0 211l88 535q0 8 88 8q164 0 164 -146q0 -25 -4 -47l-64 -370q-33 -190 50 -225q26 -11 63 -11q74 0 110 62t56 178l94 551q0 8 96 8zM618 1339
q55 103 133 103t148 -41l-174 -242q-51 -71 -137 -73q-43 -1 -92 20z" />
    <glyph glyph-name="omegatonos" unicode="&#x3ce;" horiz-adv-x="1454" 
d="M977 850q50 125 136 125q113 0 195 -117q99 -142 99 -361t-104 -374t-316 -154q-113 -1 -181 59t-95 140q-55 -135 -187 -182q-103 -37 -226 5q-122 41 -176 182q-28 73 -28 167q0 296 156 478q55 65 135 112t136 47t90 -40t36 -101q-229 -86 -274 -326q-37 -194 12 -283
q27 -49 82 -49q111 0 154 232l47 274q0 8 84 8q149 0 149 -121q0 -19 -4 -41l-20 -120q-20 -123 15 -178q36 -54 87 -54t81 28q83 77 83 318q0 123 -38 203t-128 123zM850 1339q55 103 132 103t148 -41l-174 -242q-80 -113 -229 -53z" />
    <glyph glyph-name="uni0400" unicode="&#x400;" horiz-adv-x="987" 
d="M739 219q172 1 172 -129q0 -62 -14 -90h-834l228 1372h794q-4 -126 -47 -172q-43 -47 -151 -47h-357l-55 -338h399l-36 -219h-400l-61 -377h362zM774 1487q-53 0 -96 31l-236 168q79 106 158 106q41 0 90 -43l213 -190q-76 -72 -129 -72z" />
    <glyph glyph-name="afii10023" unicode="&#x401;" horiz-adv-x="987" 
d="M739 219q172 1 172 -129q0 -62 -14 -90h-834l228 1372h794q-4 -126 -47 -172q-43 -47 -151 -47h-357l-55 -338h399l-36 -219h-400l-61 -377h362zM1038 1634q0 -60 -41 -100q-41 -39 -98 -39t-87 35q-30 36 -30 96t41 98t99 39q116 1 116 -129zM649 1634q0 -60 -41 -100
q-41 -39 -98 -39t-87 35q-30 36 -30 96t41 98q40 38 98 39q116 1 117 -129z" />
    <glyph glyph-name="afii10051" unicode="&#x402;" horiz-adv-x="1380" 
d="M725 115q0 41 20 80q25 -2 27 -2h33q117 0 173 71.5t56 172.5t-67 147.5t-172 46.5h-39q-39 0 -62 -4l-106 -627h-281l193 1143h-346q0 129 45.5 179t162.5 50h881q-4 -130 -48 -179.5t-161 -49.5h-254l-53 -312q88 5 104 5q242 0 363 -100.5t125 -278.5
q0 -209 -130.5 -333t-324.5 -124q-84 0 -111.5 37t-27.5 78z" />
    <glyph glyph-name="afii10052" unicode="&#x403;" horiz-adv-x="948" 
d="M646 1491q-32 0 -66.5 12.5t-51.5 28.5l187 235q60 80 139 80q45 0 85 -22.5t60 -46.5l-235 -234q-53 -53 -118 -53zM883 1143h-355l-188 -1143h-277l228 1372h801q-4 -129 -47.5 -179t-161.5 -50z" />
    <glyph glyph-name="afii10053" unicode="&#x404;" horiz-adv-x="1204" 
d="M711 195q160 0 309 180q98 -75 98 -137t-31 -102t-91 -77q-151 -94 -355 -94q-252 0 -380 157t-128 415q0 150 43 303t130 277t222.5 203t295.5 79t282.5 -68.5t122.5 -188.5t-148 -155q-37 86 -96 135t-175 49t-215 -94t-146 -280h563l-37 -219h-559v-70
q0 -133 67.5 -223t227.5 -90z" />
    <glyph glyph-name="afii10054" unicode="&#x405;" horiz-adv-x="1048" 
d="M639 1163q-78 0 -124 -40q-46 -41 -46 -107t53 -114q52 -48 142 -99q253 -144 294 -293q14 -51 14 -134t-35 -164t-101 -136q-132 -111 -365 -111t-356 88q-37 27 -55 53q-17 27 -17 72t32 89t75 73q146 -146 302 -144q78 0 116 16q110 43 110 157q0 68 -47 120t-176 122
q-129 71 -199 162t-70 233q0 180 133 286q133 107 339 107t329 -103q51 -43 51 -98t-34 -101q-35 -46 -86 -69q-118 135 -279 135z" />
    <glyph glyph-name="afii10055" unicode="&#x406;" horiz-adv-x="518" 
d="M506 1340q35 -40 35 -81t-4 -67l-197 -1192h-277l228 1372q50 8 115 8t100 -40z" />
    <glyph glyph-name="afii10056" unicode="&#x407;" horiz-adv-x="518" 
d="M506 1340q35 -40 35 -81t-4 -67l-197 -1192h-277l228 1372q50 8 115 8t100 -40zM778 1634q0 -60 -41 -100q-41 -39 -98 -39t-87 35q-30 36 -30 96t41 98t99 39q116 1 116 -129zM133 1626q0 60 41 98t98 39q57 -1 87 -35t30 -94t-41 -100q-41 -39 -98 -39t-87 35
q-30 36 -30 96z" />
    <glyph glyph-name="afii10057" unicode="&#x408;" horiz-adv-x="577" 
d="M446 1380q156 0 156 -141q0 -21 -4 -47l-121 -725q-15 -86 -31 -176t-47 -163q-70 -165 -231 -165q-78 -1 -115 23q-71 45 -71 118q0 26 12 68q96 0 124 28q50 49 72 191l162 981q50 8 94 8z" />
    <glyph glyph-name="afii10058" unicode="&#x409;" horiz-adv-x="1937" 
d="M1286 201q305 0 305 256q0 96 -52 145t-189 49h-29q-29 0 -51 -4l-74 -446h90zM152 -20q-162 0 -162 120q0 56 12 88h29q84 0 144.5 38t126 155t181.5 573l107 418h799l-86 -524q70 4 86 4q246 0 366.5 -97.5t120.5 -308.5t-160 -328.5t-434 -117.5h-395l188 1137h-280
l-86 -351q-101 -418 -218 -612t-339 -194z" />
    <glyph glyph-name="afii10059" unicode="&#x40a;" horiz-adv-x="1800" 
d="M1149 201q147 0 226 58.5t79 170.5t-57.5 155.5t-186.5 43.5q-40 0 -82 -4l-69 -424h90zM1247 831q236 0 364 -93t128 -303t-158.5 -322.5t-435.5 -112.5h-397l100 610h-408l-100 -610h-277l228 1372q50 8 116 8t100 -40t34 -82t-4 -66l-60 -363h408l90 543q50 8 115 8
t100 -40t35 -82t-4 -66l-62 -365q58 4 88 4z" />
    <glyph glyph-name="afii10060" unicode="&#x40b;" horiz-adv-x="1452" 
d="M1081 524q0 41 -27.5 81t-85.5 40q-117 0 -196 -51q-39 -27 -61.5 -53.5t-30.5 -69.5l-78 -471h-280l192 1143h-360q0 129 45.5 179t162.5 50h883q-4 -130 -47 -179.5t-162 -49.5h-243l-66 -393q68 59 162 91.5t176 32.5q152 0 226.5 -83.5t74.5 -225.5q0 -58 -8 -110
l-78 -455h-281l70 412q4 25 8 48t4 64z" />
    <glyph glyph-name="afii10061" unicode="&#x40c;" horiz-adv-x="1222" 
d="M513 1340q34 -40 34 -81t-4 -67l-197 -1192h-276l227 1372q50 8 116 8t100 -40zM1152 1380q79 0 116 -30t37 -73q0 -42 -9 -77q-67 0 -97 -24t-50 -49q-20 -26 -47 -64l-109 -156q-68 -101 -166 -155q-33 -18 -65 -23q66 -31 108 -93t70 -128l211 -492q-64 -36 -149 -38
q-86 -1 -124 33t-67 104l-84 204q-67 163 -97 200q-30 38 -56 53t-62 26l37 217q67 21 136 92q30 31 54 67q25 36 49 70l109 160q59 86 117 131t138 45zM787 1487q-69 0 -115 72l231 186q60 47 109 47t83 -34t50 -75l-258 -163q-54 -33 -100 -33z" />
    <glyph glyph-name="uni040D" unicode="&#x40d;" horiz-adv-x="1239" 
d="M395 1380q133 0 133 -118q0 -21 -4 -41l-125 -744l570 797q74 108 194 106q65 0 125 -12l-227 -1368h-258l151 907l-655 -907h-236l226 1366q68 14 106 14zM833 1487q-53 0 -96 31l-235 168q79 106 157 106q41 0 91 -43l213 -190q-77 -72 -130 -72z" />
    <glyph glyph-name="afii10062" unicode="&#x40e;" horiz-adv-x="1087" 
d="M342 1380q68 0 96 -34t45 -97l140 -522l264 530q37 72 84 98q47 25 103 25t88 -10q30 -10 65 -31l-600 -1081q-80 -138 -139 -191q-115 -102 -256 -102t-191 74q-18 27 -18 61q0 63 63 133q55 -43 119 -44q63 -1 101 37t87 130l62 113l-279 866q98 45 166 45zM482 1808
q50 0 68 -19t32 -61q34 -92 132 -92q97 0 148 86q31 50 50 68t64 18t109 -28q-56 -147 -127 -214q-97 -91 -245 -90q-299 2 -330 314q49 18 99 18z" />
    <glyph glyph-name="afii10145" unicode="&#x40f;" horiz-adv-x="1228" 
d="M507 1340q34 -40 34 -82t-4 -66l-160 -975h432l192 1155q50 8 117 8q66 0 99.5 -40t33.5 -82t-4 -66l-194 -1192h-359l-55 -334h-260l57 334h-373l228 1372q50 8 116 8t100 -40z" />
    <glyph glyph-name="afii10017" unicode="&#x410;" horiz-adv-x="1224" 
d="M784 514l-71 541l-232 -541h303zM618 1348q72 32 137 32t109 -30t58 -107l221 -1243h-283l-43 293h-428l-125 -293h-284z" />
    <glyph glyph-name="afii10018" unicode="&#x411;" horiz-adv-x="1107" 
d="M465 201q305 0 305 256q0 96 -52 145t-190 49h-30q-29 0 -52 -4l-73 -446h92zM567 852q246 0 367 -97.5t121 -308.5t-160 -328.5t-434 -117.5h-398l228 1372h776q-4 -129 -47.5 -179t-161.5 -50h-330l-49 -295q70 4 88 4z" />
    <glyph glyph-name="afii10019" unicode="&#x412;" horiz-adv-x="1126" 
d="M604 807q92 0 153 55q60 55 60 170q0 74 -47 114q-48 40 -136 40t-112 -4l-63 -375h145zM772 430q0 178 -192 178h-154l-66 -405h101q163 0 237 56t74 171zM634 1384q240 0 347 -94t104 -237q0 -229 -223 -332q82 -37 137 -110t55 -187t-44 -198q-123 -226 -564 -226
h-383l226 1362q215 22 345 22z" />
    <glyph glyph-name="afii10020" unicode="&#x413;" horiz-adv-x="948" 
d="M883 1143h-355l-188 -1143h-277l228 1372h801q-4 -129 -47.5 -179t-161.5 -50z" />
    <glyph glyph-name="afii10021" unicode="&#x414;" horiz-adv-x="1361" 
d="M1038 1149h-301l-57 -238q-65 -275 -122 -432t-140 -262h465zM950 -334l56 334h-785l-55 -334h-258l92 551h121q174 155 325 784l91 371h815l-193 -1155h144l-93 -551h-260z" />
    <glyph glyph-name="afii10022" unicode="&#x415;" horiz-adv-x="987" 
d="M739 219q172 1 172 -129q0 -62 -14 -90h-834l228 1372h794q-4 -126 -47 -172q-43 -47 -151 -47h-357l-55 -338h399l-36 -219h-400l-61 -377h362z" />
    <glyph glyph-name="afii10024" unicode="&#x416;" horiz-adv-x="1894" 
d="M1674 -23q-85 0 -123 34t-64 104l-80 204q-65 167 -94 203.5t-54.5 51t-62.5 24.5l37 217q80 25 135 91.5t100 137.5l105 160q57 88 114.5 132t136.5 44t115.5 -31t36.5 -71t-8 -78q-65 0 -100.5 -27t-91.5 -110l-107 -156q-37 -55 -97.5 -109.5t-125.5 -68.5
q66 -31 106.5 -93.5t69.5 -127.5l205 -492q-68 -39 -153 -39zM1197 1340q34 -40 34 -82t-4 -66l-197 -1192h-276l227 1372q50 8 116 8t100 -40zM199 1204v25q0 80 46.5 115.5t120.5 35.5t120 -45t87 -133l89 -196q29 -63 64.5 -115.5t94.5 -73.5l-37 -215
q-76 -14 -133 -78.5t-119 -156.5l-192 -283q-72 -107 -204 -107q-56 0 -89 9.5t-70 33.5l361 504q136 190 262 209q-84 18 -156 164l-84 178q-35 70 -67.5 99.5t-93.5 29.5z" />
    <glyph glyph-name="afii10025" unicode="&#x417;" horiz-adv-x="1050" 
d="M426 186q131 0 201.5 63t70.5 165t-59 148t-152 46h-213l37 219h213q104 0 167 56.5t63 140.5q0 156 -183 156q-156 0 -299 -138q-82 68 -82 135t54 111q81 73 188 92t180 19q207 0 317.5 -99.5t110.5 -255.5q0 -123 -68.5 -202.5t-178.5 -118.5q182 -99 182 -306
t-143 -329.5t-408 -122.5q-92 0 -185.5 27.5t-141.5 69.5t-60 66t-12 64t31.5 78.5t64.5 63.5q133 -148 305 -148z" />
    <glyph glyph-name="afii10026" unicode="&#x418;" horiz-adv-x="1239" 
d="M395 1380q133 0 133 -118q0 -21 -4 -41l-125 -744l570 797q73 106 194 106q65 0 125 -12l-227 -1368h-258l151 907l-655 -907h-236l226 1366q68 14 106 14z" />
    <glyph glyph-name="afii10027" unicode="&#x419;" horiz-adv-x="1239" 
d="M395 1380q133 0 133 -118q0 -21 -4 -41l-125 -744l570 797q74 108 194 106q65 0 125 -12l-227 -1368h-258l151 907l-655 -907h-236l226 1366q68 14 106 14zM570 1808q50 0 68 -19t32 -61q34 -92 132 -92q97 0 148 86q31 50 50 68t64 18t110 -28q-55 -145 -113 -200
q-110 -104 -259 -104q-148 1 -232 77q-83 77 -99 237q49 18 99 18z" />
    <glyph glyph-name="afii10028" unicode="&#x41a;" horiz-adv-x="1222" 
d="M513 1340q34 -40 34 -82t-4 -66l-197 -1192h-276l227 1372q50 8 116 8t100 -40zM1000 -23q-83 0 -121.5 34t-67.5 104l-84 204q-67 163 -97 200.5t-55.5 53t-62.5 25.5l37 217q65 20 115.5 71.5t75 87.5t48.5 70l109 160q59 86 117.5 131t137.5 45t116 -30.5t37 -68.5
t-9 -81q-66 0 -103.5 -29t-90.5 -108l-109 -156q-66 -99 -132 -136.5t-99 -41.5q66 -31 107.5 -93.5t70.5 -127.5l211 -492q-68 -39 -151 -39z" />
    <glyph glyph-name="afii10029" unicode="&#x41b;" horiz-adv-x="1388" 
d="M-10 100q0 56 12 88h29q84 0 144.5 38t126 155t181.5 573l107 418h846l-226 -1372h-276l188 1137h-327l-86 -351q-101 -418 -218 -612t-339 -194q-162 0 -162 120z" />
    <glyph glyph-name="afii10030" unicode="&#x41c;" horiz-adv-x="1501" 
d="M477 1380q110 0 133 -120l162 -707l397 704q70 125 176 124t138 -21l-131 -1360h-258l88 883l-342 -596h-226l-141 575q-179 -794 -194 -862h-256l313 1360q77 20 141 20z" />
    <glyph glyph-name="afii10031" unicode="&#x41d;" horiz-adv-x="1243" 
d="M506 1340q35 -40 35 -81t-4 -67l-62 -377h449l92 557q50 8 115 8t100 -40t35 -81t-4 -67l-197 -1192h-277l99 594h-449l-98 -594h-277l228 1372q50 8 115 8t100 -40z" />
    <glyph glyph-name="afii10032" unicode="&#x41e;" horiz-adv-x="1341" 
d="M1028 866q0 142 -54 224t-169 81q-167 0 -276 -186t-109 -502q0 -129 54 -209t175 -79q74 0 142 48t120 137q117 197 117 486zM648 -35q-156 0 -250 45q-266 128 -265 502q0 156 42 314t129 286q87 127 219 207t288 80t247 -45t148 -120q111 -146 111 -382
q0 -352 -168 -600q-84 -127 -214 -207q-131 -80 -287 -80z" />
    <glyph glyph-name="afii10033" unicode="&#x41f;" horiz-adv-x="1228" 
d="M1051 0h-277l189 1143h-435l-188 -1143h-277l228 1372h985z" />
    <glyph glyph-name="afii10034" unicode="&#x420;" horiz-adv-x="1120" 
d="M551 707q221 0 279 151q22 55 22 142q0 86 -65 132t-152 46t-109 -7l-75 -464h100zM620 1384q398 0 494 -231q29 -70 29 -179q0 -110 -46 -208q-130 -277 -589 -277h-92l-82 -489h-271l224 1362q175 22 333 22z" />
    <glyph glyph-name="afii10035" unicode="&#x421;" horiz-adv-x="1204" 
d="M631 -35q-240 0 -369 157t-129 415q0 149 43 303t130 278t222 202q135 79 295 79t249 -49q128 -71 152 -161q5 -24 5 -46q0 -123 -148 -156q-37 86 -96 135t-155 49q-280 0 -378 -377q-32 -124 -32 -238t16 -171t48 -99q71 -93 184 -91q194 0 352 180q100 -74 99 -137
q-1 -62 -33 -102q-72 -90 -242 -142q-92 -29 -213 -29z" />
    <glyph glyph-name="afii10036" unicode="&#x422;" horiz-adv-x="1105" 
d="M362 1372h879q-4 -134 -48 -181q-44 -48 -161 -48h-211l-188 -1143h-277l189 1143h-391q2 131 47 180t161 49z" />
    <glyph glyph-name="afii10037" unicode="&#x423;" horiz-adv-x="1087" 
d="M342 1380q68 0 96.5 -34.5t44.5 -96.5l140 -522l264 530q37 72 84 97.5t103 25.5t87 -10t66 -31l-600 -1081q-80 -138 -167 -215.5t-228 -77.5t-175 50.5t-34 84.5q0 63 63 133q57 -45 120 -45q62 0 100 38t87 130l62 113l-279 866q98 45 166 45z" />
    <glyph glyph-name="afii10038" unicode="&#x424;" horiz-adv-x="1435" 
d="M1153 754q0 90 -46 163.5t-155 90.5l-100 -605q158 18 229.5 113.5t71.5 237.5zM393 657q0 -141 74 -187t127 -54l100 600q-139 -10 -220 -98.5t-81 -260.5zM119 678q0 104 44 204.5t165 210.5t397 124l35 206q50 11 87 11q79 0 122.5 -35.5t27.5 -124.5l-10 -64
q440 -82 440 -458q0 -232 -161.5 -378.5t-444.5 -166.5l-35 -207h-264l37 215q-199 32 -319.5 154.5t-120.5 308.5z" />
    <glyph glyph-name="afii10039" unicode="&#x425;" horiz-adv-x="1101" 
d="M359 1380q117 0 155 -100l137 -367l246 344q47 63 92 93t119 30t137 -41l-489 -661l260 -668q-78 -31 -160 -32t-118 31t-58 93l-123 357l-307 -459h-303l504 694l-258 639q101 47 166 47z" />
    <glyph glyph-name="afii10040" unicode="&#x426;" horiz-adv-x="1290" 
d="M507 1340q34 -40 34 -82t-4 -66l-160 -975h432l192 1155q50 8 117 8q66 0 99.5 -40t33.5 -82t-4 -66l-160 -975h144l-92 -551h-260l57 334h-873l228 1372q50 8 116 8t100 -40z" />
    <glyph glyph-name="afii10041" unicode="&#x427;" horiz-adv-x="1200" 
d="M521 444q-173 0 -260 89.5t-85 248.5q0 47 8 101l84 489q50 8 117 8q66 0 99.5 -40t33.5 -82t-4 -66l-49 -285q-6 -37 -6 -89t32.5 -98t131.5 -46t174 51q39 27 59.5 53.5t28.5 69.5l88 524q50 8 116 8t100 -40t34 -82t-4 -66l-197 -1192h-277l93 569
q-144 -125 -317 -125z" />
    <glyph glyph-name="afii10042" unicode="&#x428;" horiz-adv-x="1849" 
d="M507 1340q34 -40 34 -82t-4 -66l-160 -975h389l192 1155q50 8 116 8t100 -40t34 -82t-4 -66l-160 -975h386l192 1155q50 8 116 8t100 -40t34 -82t-4 -66l-197 -1192h-1608l228 1372q50 8 116 8t100 -40z" />
    <glyph glyph-name="afii10043" unicode="&#x429;" horiz-adv-x="1910" 
d="M507 1340q34 -40 34 -82t-4 -66l-160 -975h389l192 1155q50 8 116 8t100 -40t34 -82t-4 -66l-160 -975h386l192 1155q50 8 116 8t100 -40t34 -82t-4 -66l-162 -975h145l-92 -551h-260l57 334h-1493l228 1372q50 8 116 8t100 -40z" />
    <glyph glyph-name="afii10044" unicode="&#x42a;" horiz-adv-x="1351" 
d="M700 201q306 0 306 256q0 96 -52.5 145t-189.5 49h-28q-29 0 -52 -4l-74 -446h90zM803 852q246 0 366.5 -97.5t120.5 -307.5t-159.5 -328.5t-434.5 -118.5h-395l191 1143h-338q0 129 45.5 179t162.5 50h445l-90 -524q70 4 86 4z" />
    <glyph glyph-name="afii10045" unicode="&#x42b;" horiz-adv-x="1605" 
d="M1588 1340q34 -40 34 -82t-4 -66l-197 -1192h-276l227 1372q50 8 116 8t100 -40zM463 201q305 0 305 256q0 96 -52 145t-190 49h-28q-29 0 -52 -4l-73 -446h90zM565 852q246 0 367 -97.5t121 -308.5t-160 -328.5t-434 -117.5h-396l228 1372q50 8 116 8t100 -40t34 -82
t-4 -66l-58 -344q70 4 86 4z" />
    <glyph glyph-name="afii10046" unicode="&#x42c;" horiz-adv-x="1114" 
d="M463 201q305 0 305 256q0 96 -52 145t-190 49h-28q-29 0 -52 -4l-73 -446h90zM565 852q246 0 367 -97.5t121 -308.5t-160 -328.5t-434 -117.5h-396l228 1372q50 8 116 8t100 -40t34 -82t-4 -66l-58 -344q70 4 86 4z" />
    <glyph glyph-name="afii10047" unicode="&#x42d;" horiz-adv-x="1200" 
d="M152 352q142 -155 315 -155t274 106t127 275h-565l37 219h549l2 55q0 141 -76 229t-217 88q-90 0 -163 -36.5t-144 -118.5q-101 70 -101 134t46 109q68 68 174 105t226 37q246 0 393 -159.5t147 -442.5q0 -375 -184 -603.5t-529 -228.5q-194 0 -320 86q-88 59 -88 137
q0 77 97 164z" />
    <glyph glyph-name="afii10048" unicode="&#x42e;" horiz-adv-x="1863" 
d="M407 1380q66 0 100 -40t34 -82t-4 -66l-64 -387h258q63 258 227 426t409 168t358.5 -153t113.5 -394q0 -354 -122 -540.5t-248.5 -266.5t-278.5 -80t-323 86.5t-171 460.5l2 72h-264l-94 -584h-277l228 1372q50 8 116 8zM983 483q0 -288 209 -288q68 0 132.5 48
t145 191.5t80.5 446.5q0 129 -48 209.5t-154 80.5q-157 0 -261 -187t-104 -501z" />
    <glyph glyph-name="afii10049" unicode="&#x42f;" horiz-adv-x="1142" 
d="M797 1186q-154 0 -225.5 -69.5t-71.5 -190.5q0 -211 211 -211h96l78 465q-54 6 -88 6zM702 524q-109 0 -182 -127l-176 -278q-49 -78 -104.5 -108.5t-131 -30.5t-149.5 34l246 385q99 161 211 197q-88 37 -149.5 123t-61.5 205q0 231 162.5 345.5t459.5 114.5
q181 0 365 -20l-227 -1364h-277l86 524h-72z" />
    <glyph glyph-name="afii10065" unicode="&#x430;" horiz-adv-x="1056" 
d="M642 805q-104 0 -187.5 -126.5t-83.5 -332.5q0 -168 108 -168q69 0 120.5 60t66.5 151l65 391q-41 25 -89 25zM375 -31q-228 0 -254.5 145.5t-26.5 251.5t40 225.5t160.5 269t367.5 149.5q192 0 366 -105l-108 -657q-24 -125 22 -240q-65 -37 -151 -37q-139 0 -150 135
q-106 -137 -266 -137z" />
    <glyph glyph-name="afii10066" unicode="&#x431;" horiz-adv-x="1064" 
d="M362 395q0 -217 160 -217q118 0 174 119t56 234q0 114 -45 155t-107 41q-62 -1 -114 -23t-71 -51q-34 -52 -43.5 -115.5t-9.5 -142.5zM428 836q114 77 248 77t238 -96t104 -282q0 -250 -144 -408t-361 -158q-218 0 -318.5 129t-100.5 375q0 305 156.5 555t445.5 311
l133 29q132 29 193 90q74 -52 74 -126q0 -75 -47.5 -110.5t-145.5 -60.5l-139 -33q-143 -35 -221 -108.5t-115 -183.5z" />
    <glyph glyph-name="afii10067" unicode="&#x432;" horiz-adv-x="1013" 
d="M571 598q63 0 102.5 34t39.5 84q0 101 -119 101q-150 0 -174 -158l-10 -61h161zM680 311q0 103 -121 103h-180l-37 -224h188q78 0 114 36t36 85zM940 296q0 -136 -114.5 -216t-325.5 -80h-451l105 625q31 186 139 285.5t302 99.5t286 -79t92 -196q0 -78 -43 -137
t-103 -90q113 -76 113 -212z" />
    <glyph glyph-name="afii10068" unicode="&#x433;" horiz-adv-x="829" 
d="M311 254q0 -74 124 -74t208 96q47 -18 71.5 -53t24.5 -69q0 -86 -107 -136q-107 -49 -257 -49t-242 81.5t-92 194.5q0 114 79.5 189t253 149t173.5 147t-94 73q-72 0 -123 -34t-76 -69q-94 31 -94 118t108 133t205 46q177 0 260.5 -81.5t83.5 -190.5q0 -152 -119 -228
t-198.5 -109.5t-134 -61.5t-54.5 -72z" />
    <glyph glyph-name="afii10069" unicode="&#x434;" horiz-adv-x="1064" 
d="M350 422q0 -127 34 -185.5t105 -58.5q127 0 187.5 131.5t64.5 345.5q-51 74 -155 74t-170 -90t-66 -217zM457 1257q-96 0 -156 -34q-37 61 -37 108q0 72 61.5 102.5t184.5 30.5t222 -53t193.5 -190t94.5 -428q0 -591 -196.5 -707.5t-362.5 -116.5t-272.5 105.5
t-106.5 325.5t129 371t342 151q101 0 192 -80q0 415 -288 415z" />
    <glyph glyph-name="afii10070" unicode="&#x435;" horiz-adv-x="985" 
d="M400 541h40q103 0 185 46t82 128q0 35 -20.5 61.5t-72.5 26.5q-88 0 -148 -71.5t-87 -188.5q18 -2 21 -2zM526 176q143 0 244 131q104 -53 104 -125t-77 -129q-122 -84 -316 -84t-290.5 117.5t-96.5 296.5q0 258 153.5 442.5t409.5 184.5q140 0 218.5 -75t78.5 -189
q0 -204 -159 -286.5t-365 -82.5h-26q-27 0 -44 2v-12q0 -88 51.5 -139.5t114.5 -51.5z" />
    <glyph glyph-name="afii10072" unicode="&#x436;" horiz-adv-x="1509" 
d="M1308 -20q-75 0 -112 28.5t-59 87.5l-70 193q-23 63 -48.5 92t-72.5 33l33 190q43 0 79 43t83 115l61 96q49 78 106.5 106.5t126.5 28.5t99.5 -37.5t30.5 -78.5v-15q0 -14 -2 -22q-80 0 -142 -86l-84 -119q-71 -101 -155 -115q71 -21 127 -143l143 -361q-69 -36 -144 -36
zM246 993q129 0 198 -147l41 -84q29 -59 52.5 -105.5t60.5 -52.5l-33 -190q-37 -6 -69.5 -39t-77.5 -103l-107 -166q-49 -77 -92 -101.5t-104 -24.5q-60 0 -88.5 8t-61.5 30l228 344q61 91 98 118t92 40q-35 16 -54.5 43t-39.5 64l-72 131q-47 82 -129 82q0 153 158 153z
M921.5 970q41.5 -25 41.5 -96q0 -23 -5 -40l-139 -834h-264l164 987q32 8 96 8q65 0 106.5 -25z" />
    <glyph glyph-name="afii10073" unicode="&#x437;" horiz-adv-x="903" 
d="M551 291q0 108 -158 108h-174l35 201h182q78 0 117 35t39 82t-41 74.5t-111 27.5q-144 0 -243 -110q-78 56 -78 109q0 54 46 98t134 69t180 25q173 0 276 -69.5t103 -186.5q0 -170 -176 -244q55 -25 94 -79.5t39 -126.5q0 -147 -112.5 -241t-310.5 -94t-292 66
q-63 41 -63 107.5t80 136.5q49 -53 106.5 -86t143.5 -33t135 38t49 93z" />
    <glyph glyph-name="afii10074" unicode="&#x438;" horiz-adv-x="1054" 
d="M371 -31q-104 0 -209 75t-49 353l98 590q50 8 116 8t101 -40t35 -82t-4 -66l-70 -410q-6 -35 -6 -81t22.5 -92t83.5 -46t114 66t65 153l100 590q50 8 115 8t100 -40t35 -82t-4 -66l-94 -559q-24 -125 22 -240q-65 -37 -151 -37q-139 0 -150 135q-41 -51 -103.5 -94
t-166.5 -43z" />
    <glyph glyph-name="afii10075" unicode="&#x439;" horiz-adv-x="1054" 
d="M372 -31q-104 0 -168 45q-148 107 -91 383l98 590q50 8 116 8t101 -40t35 -82t-4 -66l-70 -410q-6 -35 -6 -81t23 -92q22 -46 68 -46q110 0 170 136q17 40 24 83l100 590q50 8 115 8t100 -40t35 -82t-4 -66l-94 -559q-24 -125 22 -240q-61 -35 -151 -37q-139 0 -150 135
q-41 -51 -103 -94t-166 -43zM616 1106q-136 0 -202 80t-58 229q46 23 94 23t60 -18q14 -18 21 -64q7 -45 33 -70q26 -24 65 -24t69 22t57 74q26 53 47 66q22 13 67 14t96 -33q-49 -151 -131 -225t-218 -74z" />
    <glyph glyph-name="afii10076" unicode="&#x43a;" horiz-adv-x="1040" 
d="M834 -20q-75 0 -114.5 29.5t-64.5 86.5l-82 193q-27 61 -50 91t-70 34l32 190q43 0 82 43t88 115l66 96q53 76 110.5 105.5t126.5 29.5t99 -37.5t30 -78.5v-15q0 -14 -2 -22q-78 0 -141 -86l-92 -123q-72 -95 -164 -111q78 -23 131 -143l160 -361q-70 -36 -145 -36z
M426 970q43 -25 43 -96q0 -20 -4 -40l-139 -834h-271l164 987q32 8 98 8t109 -25z" />
    <glyph glyph-name="afii10077" unicode="&#x43b;" horiz-adv-x="1134" 
d="M348 91q-108 -103 -236 -103t-128 104q0 49 10 84q136 0 206.5 120t153.5 429l72 262h702l-163 -987h-277l127 764h-192l-95 -324q-72 -246 -180 -349z" />
    <glyph glyph-name="afii10078" unicode="&#x43c;" horiz-adv-x="1243" 
d="M1076 995q70 0 118 -24l-90 -971h-252l72 608l-215 -407h-195l-98 422l-125 -623h-254l229 973q63 22 133 22q114 0 142 -104l104 -449l244 457q29 53 73 74.5t114 21.5z" />
    <glyph glyph-name="afii10079" unicode="&#x43d;" horiz-adv-x="1071" 
d="M315 995q158 0 158 -123q0 -18 -4 -38l-37 -218h295l61 371q8 8 68 8q100 0 144 -26.5t44 -96.5q0 -18 -4 -38l-139 -834h-276l65 393h-295l-65 -393h-275l164 987q8 8 96 8z" />
    <glyph glyph-name="afii10080" unicode="&#x43e;" horiz-adv-x="1054" 
d="M495 178q106 0 172 114t66 314q0 102 -38 147.5t-90 45.5q-105 0 -171.5 -112.5t-66.5 -315.5q0 -98 38 -145.5t90 -47.5zM489 -31q-214 0 -304.5 118t-90.5 296q0 265 142 446t391 181q197 0 289 -117.5t92 -296.5q0 -263 -97.5 -392.5t-198 -182t-223.5 -52.5z" />
    <glyph glyph-name="afii10081" unicode="&#x43f;" horiz-adv-x="1048" 
d="M750 1010q92 0 170.5 -56.5t78.5 -220.5q0 -61 -14 -143l-98 -590h-277l99 590q8 41 8 86t-21.5 77.5t-87 32.5t-115 -55t-63.5 -141l-98 -590h-277l162 981q46 8 103 8q56 0 91 -24.5t54 -83.5q119 129 285 129z" />
    <glyph glyph-name="afii10082" unicode="&#x440;" horiz-adv-x="1069" 
d="M462 174q125 0 200 119t75 325q0 98 -35.5 141.5t-81.5 43.5q-73 0 -126 -59.5t-66 -137.5l-68 -405q38 -27 102 -27zM527 -31q-108 0 -195 60l-78 -475h-270l233 1427q50 8 98 8q47 0 86 -18.5t62 -83.5q112 123 266 123t223.5 -110t69.5 -263q0 -152 -36 -267.5
t-101.5 -204.5t-157.5 -142.5t-200 -53.5z" />
    <glyph glyph-name="afii10083" unicode="&#x441;" horiz-adv-x="923" 
d="M838 187q0 -116 -121 -167t-278.5 -51t-251 117t-93.5 297q0 260 148 443.5t393 183.5q189 0 266 -119q25 -42 25 -76q0 -58 -41 -88t-92 -53q-29 68 -68 96.5t-103 28.5q-119 0 -187 -126t-68 -306q0 -94 46 -140.5t105 -46.5q120 0 209 125q111 -45 111 -118z" />
    <glyph glyph-name="afii10084" unicode="&#x442;" horiz-adv-x="1562" 
d="M1229 673q0 113 -84 113q-76 0 -121 -61t-59 -135l-99 -590h-276l98 590q8 41 8 80q0 117 -98 116q-51 0 -101.5 -52t-66.5 -144l-98 -590h-277l162 981q46 8 103 8q56 0 91 -24.5t54 -83.5q119 129 280 129t209 -144q70 74 138.5 109t170.5 34q250 -2 250 -276
q0 -61 -14 -143l-98 -590h-277l99 590q6 39 6 83z" />
    <glyph glyph-name="afii10085" unicode="&#x443;" horiz-adv-x="946" 
d="M86 -252q80 0 120 50t85 155l16 37h-57l-156 971q74 29 132 29t86 -16t51 -50.5t32 -135.5l45 -524l224 539q76 186 215 186q79 0 133 -28l-508 -1078q-35 -72 -68 -135t-101 -138t-220 -75q-115 0 -168 32q-52 32 -71 58.5t-19 61.5q0 72 96 137q53 -76 133 -76z" />
    <glyph glyph-name="afii10086" unicode="&#x444;" horiz-adv-x="1351" 
d="M1044 539q0 213 -163 256l-107 -631q123 10 196.5 106.5t73.5 268.5zM354 432q0 -96 37 -170t125 -96l107 633q-123 -10 -196 -102.5t-73 -264.5zM88 448q0 102 39 206t151.5 216.5t376.5 128.5l66 390q9 8 79 8t114 -22.5t44 -96.5q0 -19 -4 -43l-43 -246
q213 -53 306.5 -171t93.5 -258q0 -268 -153.5 -423.5t-418.5 -171.5l-67 -411h-256l69 419q-200 43 -298.5 165t-98.5 310z" />
    <glyph glyph-name="afii10087" unicode="&#x445;" horiz-adv-x="897" 
d="M277 991q70 0 103.5 -29.5t55.5 -84.5l70 -183l117 168q83 127 197 127q88 0 151 -37l-363 -463l201 -483q-55 -26 -126 -26q-145 1 -185 108l-76 203l-201 -291h-282l389 506l-199 452q78 33 148 33z" />
    <glyph glyph-name="afii10088" unicode="&#x446;" horiz-adv-x="1089" 
d="M325 995q66 0 101 -40t35 -82t-4 -66l-68 -410q-6 -35 -6 -81t20.5 -92t83.5 -46t116 66t65 153l98 590q50 8 115 8t100 -40t35 -82t-4 -66l-76 -461q-10 -72 -10 -111q0 -83 110 -83h11l-72 -437h-236l45 275q-59 4 -96 37.5t-41 87.5q-52 -66 -116 -106t-164 -40
t-205 75t-49 353l96 590q50 8 116 8z" />
    <glyph glyph-name="afii10089" unicode="&#x447;" horiz-adv-x="989" 
d="M807 995q156 0 156 -123q0 -21 -5 -38l-139 -834h-262l64 381q-37 -41 -102.5 -73t-151.5 -32q-150 0 -210.5 103.5t-31.5 286.5l51 321q8 8 96 8q156 0 156 -123q0 -18 -4 -38l-27 -160q-31 -174 99 -174q61 0 101 31.5t48 78.5l62 377q8 8 100 8z" />
    <glyph glyph-name="afii10090" unicode="&#x448;" horiz-adv-x="1568" 
d="M383 316q0 -138 91 -138q56 0 106.5 56.5t66.5 162.5l96 590q51 8 117 8t100.5 -40t34.5 -82t-4 -66l-67 -410q-6 -35 -6 -81t15 -92t76 -46t111 65.5t62 153.5l98 590q50 8 115 8t100 -40t35 -82t-4 -66l-78 -475q-2 -12 -11.5 -56t-9.5 -119t29 -149q-65 -37 -145 -37
q-147 0 -156 135q-43 -53 -102.5 -95t-161.5 -42q-166 0 -221 160q-72 -78 -134.5 -119t-166.5 -41q-271 0 -271 285q0 68 15 143l96 590q50 8 116 8t101 -40t35 -82t-4 -66l-68 -410q-6 -35 -6 -81z" />
    <glyph glyph-name="afii10091" unicode="&#x449;" horiz-adv-x="1603" 
d="M383 316q0 -138 91 -138q56 0 106.5 56.5t66.5 162.5l96 590q51 8 117 8t100.5 -40t34.5 -82t-4 -66l-67 -410q-6 -35 -6 -81t15 -92t76 -46t111 65.5t62 153.5l98 590q50 8 115 8t100 -40t35 -82t-4 -66l-76 -461q-10 -72 -10 -111q0 -83 110 -83h11l-72 -437h-236
l45 275q-59 4 -96 37.5t-41 87.5q-117 -146 -276 -146q-160 0 -215 160q-72 -78 -134.5 -119t-166.5 -41q-271 0 -271 285q0 68 15 143l96 590q50 8 116 8t101 -40t35 -82t-4 -66l-68 -410q-6 -35 -6 -81z" />
    <glyph glyph-name="afii10092" unicode="&#x44a;" horiz-adv-x="1087" 
d="M621 199q70 0 111.5 38.5t41.5 98.5t-42 87.5t-101 27.5t-99 -7l-40 -245h129zM700 647q156 0 246 -82t90 -226t-105 -241.5t-310 -97.5h-431l127 764h-235q0 104 39 163.5t137 59.5h367l-60 -344q63 4 135 4z" />
    <glyph glyph-name="afii10093" unicode="&#x44b;" horiz-adv-x="1409" 
d="M471 199q70 0 112 38.5t42 98.5t-42 87.5t-94 27.5t-92 -7l-41 -245h115zM557 647q65 0 132 -22.5t132.5 -82t65.5 -192.5q0 -242 -154.5 -296t-261.5 -54h-416l164 987q8 8 92 8q156 0 156 -123q0 -18 -4 -38l-33 -191q62 4 127 4zM1221 995q161 0 161 -123
q0 -18 -4 -38l-139 -834h-278l163 987q8 8 97 8z" />
    <glyph glyph-name="afii10094" unicode="&#x44c;" horiz-adv-x="954" 
d="M481 199q74 0 117 38.5t43 98.5q0 114 -149 115q-54 0 -95 -7l-41 -245h125zM564 647q156 0 247.5 -81.5t91.5 -215.5q0 -242 -156.5 -296t-265.5 -54h-426l164 987q8 8 92 8q156 0 156 -123q0 -18 -4 -38l-33 -191q63 4 134 4z" />
    <glyph glyph-name="afii10095" unicode="&#x44d;" horiz-adv-x="923" 
d="M104 279q110 -101 230 -101t178.5 63.5t73.5 153.5h-336l33 197h329v12q0 84 -40 139.5t-154 55.5t-221 -94q-72 53 -72 111q0 57 35 89q118 105 309 105q192 0 300 -118t108 -327q0 -257 -136.5 -426.5t-398.5 -169.5q-148 0 -238 58q-78 47 -78 115t78 137z" />
    <glyph glyph-name="afii10096" unicode="&#x44e;" horiz-adv-x="1515" 
d="M973 178q96 0 158.5 111.5t62.5 316.5q0 104 -34 148.5t-87 44.5q-96 0 -158.5 -112t-62.5 -316q0 -94 34 -143.5t87 -49.5zM315 995q158 0 158 -123q0 -18 -4 -38l-39 -226h178q75 279 233.5 340.5t260.5 61.5q191 0 278.5 -116.5t87.5 -297.5q0 -267 -131.5 -447
t-388.5 -180q-199 0 -283.5 116t-84.5 298v2h-187l-63 -385h-275l164 987q8 8 96 8z" />
    <glyph glyph-name="afii10097" unicode="&#x44f;" horiz-adv-x="974" 
d="M547 797q-72 0 -113 -35t-41 -97t39 -90t96 -28h107l41 250h-129zM274 414q-141 74 -141 248q0 138 109 231.5t309 93.5h418l-164 -987h-262l59 356h-57q-57 0 -86.5 -27.5t-73.5 -101.5l-86 -141q-39 -61 -91 -83.5t-129 -22.5t-120 26l160 262q73 120 155 146z" />
    <glyph glyph-name="uni0450" unicode="&#x450;" horiz-adv-x="985" 
d="M410 541h30q103 0 185 46t82 128q-1 35 -21 61t-72 27q-88 1 -148 -71t-87 -189q17 -2 31 -2zM526 176q143 0 244 131q104 -53 104 -129q0 -111 -193 -182q-71 -27 -185 -27q-209 0 -314 127q-86 104 -88 287q0 261 153 443t410 184q138 0 217 -74q80 -74 80 -189
q0 -206 -180 -298q-137 -72 -344 -72h-37q-16 0 -33 2v-12q0 -87 52 -139t114 -52zM674 1102q-66 0 -105 53l-182 238q29 25 73 45t84 20q72 0 115 -78l134 -241q-53 -37 -119 -37z" />
    <glyph glyph-name="afii10071" unicode="&#x451;" horiz-adv-x="985" 
d="M410 541h30q103 0 185 46t82 128q-1 35 -21 61t-72 27q-88 1 -148 -71t-87 -189q17 -2 31 -2zM526 176q143 0 244 131q104 -53 104 -129q0 -111 -193 -182q-71 -27 -185 -27q-209 0 -314 127q-86 104 -88 287q0 261 153 443t410 184q138 0 217 -74q80 -74 80 -189
q0 -206 -180 -298q-137 -72 -344 -72h-37q-16 0 -33 2v-12q0 -87 52 -139t114 -52zM983 1278q0 -60 -41 -98t-98 -39q-57 0 -87 35t-30 75q0 80 41 119t98 39t87 -35q30 -36 30 -96zM594 1278q0 -60 -41 -98t-98 -39q-57 0 -87 35t-30 75q0 80 41 119t98 39t87 -35
q30 -36 30 -96z" />
    <glyph glyph-name="afii10099" unicode="&#x452;" horiz-adv-x="1044" 
d="M375 1452q90 0 132.5 -35.5t27.5 -140.5h327l-28 -180h-330l-43 -256q47 41 107.5 76.5t162.5 35.5t176 -69.5t74 -206.5q0 -34 -16 -127l-93 -549q-37 -214 -128.5 -339.5t-276.5 -125.5q-72 0 -102.5 33.5t-30.5 77.5t12 90q126 0 178 68.5t78 228.5l82 487
q16 100 -2 154.5t-88 54.5t-120 -54t-66 -153l-89 -522h-276l184 1096h-143l29 180h143l29 168q0 8 90 8z" />
    <glyph glyph-name="afii10100" unicode="&#x453;" horiz-adv-x="829" 
d="M41 238q0 120 76 192q85 80 291 168q136 58 139 133q0 72 -94 72q-72 0 -123 -34t-76 -69q-94 31 -94 118t108 133t205 46q179 0 261 -82t83 -190q0 -151 -157 -252q-84 -54 -190 -98q-107 -44 -132 -70q-26 -26 -27 -51q0 -72 111 -74q137 0 221 96q47 -18 72 -53
q59 -83 -15 -161q-23 -24 -69 -45q-103 -46 -218 -47q-267 -2 -348 168q-24 48 -24 100zM500 1114q-32 0 -66 12q-35 12 -51 29l186 236q60 79 140 79q45 0 85 -22t60 -47l-236 -234q-54 -53 -118 -53z" />
    <glyph glyph-name="afii10101" unicode="&#x454;" horiz-adv-x="927" 
d="M444.5 -31q-157.5 0 -254 120t-96.5 300q0 261 151 441t396 180q190 0 266 -113q25 -36 25 -73q0 -60 -38.5 -86.5t-94.5 -51.5q-27 59 -66 88t-113 29t-136 -56.5t-91 -154.5h326l-33 -197h-324v-28q0 -87 49 -138t113 -51q138 0 213 107q102 -47 103 -131
q0 -60 -52 -100t-119 -62.5t-224.5 -22.5z" />
    <glyph glyph-name="afii10102" unicode="&#x455;" horiz-adv-x="829" 
d="M461 278q0 42 -45.5 82.5t-89.5 71.5t-115.5 86.5t-71.5 182.5t97.5 218t298.5 91q62 0 180 -38.5t117 -112t-32.5 -108t-80.5 -51.5q-37 57 -92.5 86t-102.5 29q-110 0 -110 -86q0 -41 44 -77t79 -61.5t91 -71.5q116 -97 117 -243q0 -203 -131.5 -255t-207.5 -52
q-135 0 -200 18t-112 50q-74 47 -74 100t25 87t66 63q111 -107 225 -107q70 0 97.5 28t27.5 70z" />
    <glyph glyph-name="afii10103" unicode="&#x456;" horiz-adv-x="503" 
d="M388 1139q-67 0 -101.5 41t-34.5 88q0 94 49 139t116 45t101.5 -41t34.5 -88q0 -94 -49 -139t-116 -45zM239 -29q-81 0 -120 33t-39 121q0 25 4 45l133 817q50 8 116 8t101 -40t35 -82t-4 -66l-92 -559q-8 -42 -8 -112t20 -128q-65 -37 -146 -37z" />
    <glyph glyph-name="afii10104" unicode="&#x457;" horiz-adv-x="503" 
d="M715 1278q0 -60 -40.5 -98.5t-98.5 -38.5t-87.5 34.5t-29.5 94.5t41 99.5t98 39.5t87 -35.5t30 -95.5zM326 1278q0 -60 -41 -98.5t-99 -38.5t-87 34.5t-29 94.5t41 99.5t98 39.5t87 -35.5t30 -95.5zM239 -29q-81 0 -120 33t-39 121q0 25 4 45l133 817q50 8 116 8t101 -40
t35 -82t-4 -66l-92 -559q-8 -42 -8 -112t20 -128q-65 -37 -146 -37z" />
    <glyph glyph-name="afii10105" unicode="&#x458;" horiz-adv-x="505" 
d="M390 1139q-67 0 -101.5 41t-34.5 88q0 94 49 139t116 45t101.5 -41t34.5 -88q0 -94 -49 -139t-116 -45zM-221 -340q0 32 8 70h20q114 0 177 67q29 29 43 74t26 117l166 999q50 8 116 8t101 -40t35 -82t-4 -66l-131 -789q-29 -160 -88 -288.5t-157.5 -165.5t-158.5 -37
t-106.5 30.5t-46.5 102.5z" />
    <glyph glyph-name="afii10106" unicode="&#x459;" horiz-adv-x="1574" 
d="M1108 199q70 0 112 38.5t42 98.5t-42 87.5t-94 27.5t-92 -7l-41 -245h115zM348 91q-108 -103 -236 -103t-128 104q0 49 10 84q136 0 206.5 120t153.5 429l72 262h698l-57 -344q62 4 127 4t132 -22.5t132.5 -82t65.5 -192.5q0 -242 -155 -296t-261 -54h-420l127 764h-192
l-95 -324q-72 -246 -180 -349z" />
    <glyph glyph-name="afii10107" unicode="&#x45a;" horiz-adv-x="1515" 
d="M1202 326q0 100 -139 100q-44 0 -88 -6l-41 -221h121q66 0 106.5 32.5t40.5 94.5zM1110 623q180 0 267 -81t87 -219t-107 -230.5t-308 -92.5h-424l67 403h-295l-67 -403h-275l164 987q8 8 96 8q158 0 158 -123q0 -18 -4 -38l-35 -211h293l61 364q8 8 68 8
q100 0 144 -26.5t44 -96.5q0 -18 -4 -38l-32 -216q58 5 102 5z" />
    <glyph glyph-name="afii10108" unicode="&#x45b;" horiz-adv-x="1058" 
d="M748 952q96 0 174.5 -56.5t78.5 -219.5q0 -62 -14 -144l-90 -532h-276l90 532q8 41 8 86t-21.5 78t-87 33t-115 -55.5t-63.5 -141.5l-90 -532h-276l180 1096h-144l31 180h143l29 168q50 8 115 8t100 -40t35 -99l-2 -37h295l-31 -180h-295l-41 -258q47 47 109 80.5
t158 33.5z" />
    <glyph glyph-name="afii10109" unicode="&#x45c;" horiz-adv-x="1040" 
d="M834 -20q-74 0 -114 30t-65 86l-82 193q-27 61 -50 91q-24 30 -70 34l32 190q43 0 82 43t88 115l66 96q53 76 110 106t127 30t100 -39q30 -38 29 -78v-19q0 -10 -2 -18q-78 0 -141 -86l-92 -123q-72 -95 -164 -111q78 -23 131 -143l160 -361q-70 -36 -145 -36zM219 987
q32 8 99 8t96 -17q55 -32 55 -104q0 -20 -4 -40l-139 -834h-271zM664 1102q-32 0 -66 12q-35 12 -51 29l186 235q60 80 140 80q45 0 85 -22t60 -47l-236 -234q-54 -53 -118 -53z" />
    <glyph glyph-name="uni045D" unicode="&#x45d;" horiz-adv-x="1054" 
d="M372 -31q-104 0 -168 45q-148 107 -91 383l98 590q50 8 116 8t101 -40t35 -82t-4 -66l-70 -410q-6 -35 -6 -81t23 -92q22 -46 68 -46q110 0 170 136q17 40 24 83l100 590q50 8 115 8t100 -40t35 -82t-4 -66l-94 -559q-24 -125 22 -240q-61 -35 -151 -37q-139 0 -150 135
q-41 -51 -103 -94t-166 -43zM629 1102q-66 0 -105 53l-182 238q29 25 73 45t84 20q72 0 115 -78l134 -241q-53 -37 -119 -37z" />
    <glyph glyph-name="afii10110" unicode="&#x45e;" horiz-adv-x="946" 
d="M436 -252q-112 -213 -305 -213q-135 0 -186 32q-50 33 -69 59t-19 61q0 72 96 137q52 -73 132 -75q81 -1 121 49t85 155l16 37h-57l-156 971q74 29 132 29t86 -16q69 -37 83 -186l45 -524l224 539q76 186 215 186q79 0 133 -28l-508 -1078q-35 -72 -68 -135zM336 1438
q49 0 66 -20q16 -20 32 -61q34 -93 132 -92q97 1 149 87q31 49 50 67q47 45 173 -10q-56 -147 -127 -214q-97 -91 -245 -90q-298 2 -330 314q51 19 100 19z" />
    <glyph glyph-name="afii10193" unicode="&#x45f;" horiz-adv-x="1054" 
d="M371 -31q-104 0 -209 75t-49 353l98 590q50 8 116 8t101 -40t35 -82t-4 -66l-70 -410q-6 -35 -6 -81t22.5 -92t83.5 -46t114 66t65 153l100 590q50 8 115 8t100 -40t35 -82t-4 -66l-94 -559q-24 -125 22 -240q-65 -37 -151 -37q-139 0 -150 135q-41 -51 -103.5 -94
t-166.5 -43zM289 -446l53 329h254l-53 -329h-254z" />
    <glyph glyph-name="uni0462" unicode="&#x462;" horiz-adv-x="1329" 
d="M1146 742.5q122 -95.5 122 -306.5t-158.5 -323.5t-435.5 -112.5h-395l170 1024h-306q0 187 75 206t134 19h133l31 185q50 8 116 8t100 -40t34 -84t-4 -69h389q-4 -127 -46.5 -176t-162.5 -49h-219l-31 -190q70 4 86 4q246 0 368 -95.5zM678 201q147 0 226 58.5t79 170.5
t-53 159.5t-191 47.5h-29q-28 0 -51 -4l-71 -432h90z" />
    <glyph glyph-name="uni0463" unicode="&#x463;" horiz-adv-x="1105" 
d="M625 199q168 0 168 135q0 109 -160 108q-50 0 -92 -6l-39 -237h123zM708 633q72 0 209.5 -41.5t137.5 -249.5q0 -243 -159 -292.5t-271 -49.5h-424l127 768h-246q0 181 73.5 200t129.5 19h80l81 490q8 8 66 8q97 0 139.5 -26.5t42.5 -96.5q0 -19 -4 -39l-57 -336h377
q-4 -123 -45.5 -171t-157.5 -48h-211l-23 -139q63 4 135 4z" />
    <glyph glyph-name="uni0472" unicode="&#x472;" horiz-adv-x="1341" 
d="M1028 822v59q0 127 -54 208.5t-170 81.5t-209 -97t-140 -277h571q2 20 2 25zM420 552v-69q0 -129 53 -208.5t169 -79.5t210 101t141 288h-571q-2 -25 -2 -32zM648 -35q-156 0 -335.5 86.5t-179.5 460.5q0 156 42 314.5t129 285.5t219 207t288 80t331 -86.5t175 -448.5
t-126 -550.5t-256.5 -268.5t-286.5 -80z" />
    <glyph glyph-name="uni0473" unicode="&#x473;" horiz-adv-x="1054" 
d="M737 606q0 102 -39.5 147.5t-101.5 45.5t-119 -53.5t-88 -157.5h348v18zM362 397v-26q0 -98 40 -145.5t103 -47.5t121 55.5t87 163.5h-351zM489 -31q-214 0 -304.5 118t-90.5 296q0 265 142 446t391 181q197 0 289 -117.5t92 -296.5q0 -263 -97.5 -392.5t-198 -182
t-223.5 -52.5z" />
    <glyph glyph-name="uni0474" unicode="&#x474;" horiz-adv-x="1343" 
d="M321 1380q83 0 118.5 -38.5t45.5 -112.5l113 -893l320 776q50 124 101.5 172.5t109 72t147.5 23.5t150.5 -38.5t60.5 -117.5t-98 -132q-18 29 -40 45t-69 16t-74.5 -35t-50.5 -82l-461 -1036h-305l-205 1358q54 22 137 22z" />
    <glyph glyph-name="uni0475" unicode="&#x475;" horiz-adv-x="1064" 
d="M940 987q94 0 138 -43t44 -85q0 -75 -71 -126q-31 49 -87 49t-79 -29.5t-45 -76.5l-303 -676h-291l-148 961q74 29 132 29q96 -1 128 -51.5t41 -141.5l41 -502l181 444q18 43 37.5 88t52 80t84 57.5t145.5 22.5z" />
    <glyph glyph-name="uni048A" unicode="&#x48a;" horiz-adv-x="1298" 
d="M570 1808q50 0 67 -19t33 -61q34 -92 132 -92q97 0 148 86q31 49 50.5 67.5t64.5 18.5t109 -28q-56 -148 -140 -225.5t-232 -77.5q-300 0 -331 313q49 18 99 18zM395 1380q133 0 133 -118q0 -21 -4 -41l-125 -744l570 797q73 106 194 106q65 0 125 -12l-190 -1149h143
q-25 -180 -125 -329.5t-242 -247.5l-155 149q125 106 188 209h-104l151 907l-655 -907h-236l226 1366q68 14 106 14z" />
    <glyph glyph-name="uni048B" unicode="&#x48b;" horiz-adv-x="1093" 
d="M616 1106q-136 0 -202 80t-58 229q46 23 94 23t61 -18.5t20 -63.5t33 -69.5t65 -24.5t69.5 21.5t56.5 74.5t47 66.5t67 13.5t96 -33q-49 -150 -131 -224.5t-218 -74.5zM327 995q66 0 101 -40t35 -82t-4 -66l-70 -410q-6 -35 -6 -81t22.5 -92t83.5 -46t114 66t65 153
l100 590q50 8 115 8t100 -40t35 -82t-4 -66l-78 -461q-10 -72 -10 -111q0 -83 110 -83h15q-27 -224 -133.5 -322t-172.5 -143l-147 143q135 115 170 174q-49 8 -79 41t-34 80q-59 -74 -125.5 -115t-164.5 -41t-203 75t-49 353l98 590q50 8 116 8z" />
    <glyph glyph-name="uni048C" unicode="&#x48c;" horiz-adv-x="1220" 
d="M569 201q147 0 226 58.5t79 170.5t-53 159.5t-190 47.5h-29q-29 0 -51 -4l-72 -432h90zM670 838q246 0 367.5 -95.5t121.5 -305.5t-158 -323.5t-436 -113.5h-395l168 1012h-195l29 176h199l30 198q56 9 97 9q86 0 119.5 -40.5t33.5 -82.5t-6 -84h238l-29 -176h-242
l-28 -178q70 4 86 4z" />
    <glyph glyph-name="uni048D" unicode="&#x48d;" horiz-adv-x="991" 
d="M678 319q0 99 -154 99q-50 0 -94 -6l-37 -213h125q160 0 160 120zM573 610q186 0 276.5 -77.5t90.5 -213.5t-102.5 -227.5t-319.5 -91.5h-426l117 713h-135l24 153h135l23 129q9 9 92 9q156 0 156 -123v-15h211l-25 -153h-213l-16 -107q62 4 112 4z" />
    <glyph glyph-name="uni048E" unicode="&#x48e;" horiz-adv-x="1120" 
d="M852 995q0 92 -64.5 137.5t-151.5 45.5t-110 -7l-80 -489h77q77 0 93 2l-63 152l152 65l65 -156q82 74 82 250zM1143 1004q0 -346 -287 -459l72 -166l-152 -66l-82 189q-86 -12 -186 -13h-92l-82 -489h-271l224 1362q180 22 335 22q273 0 397 -105t124 -275z" />
    <glyph glyph-name="uni048F" unicode="&#x48f;" horiz-adv-x="1069" 
d="M737 618q0 98 -35.5 141.5t-81.5 43.5q-73 0 -126 -59.5t-66 -137.5l-68 -405q39 -27 115 -27h13q12 0 22 2l-59 152l151 63l53 -129q82 113 82 356zM953 900q69 -110 69 -289t-74 -338.5t-200 -237.5l67 -166l-156 -66l-69 172q-31 -6 -66 -6q-106 0 -192 60l-78 -475
h-270l233 1427q50 8 98 8q47 0 86 -18.5t62 -83.5q112 123 266 123q155 0 224 -110z" />
    <glyph glyph-name="afii10050" unicode="&#x490;" horiz-adv-x="962" 
d="M979 1638q135 0 135 -120q0 -19 -4 -39l-55 -336h-527l-188 -1143h-277l228 1372h555l43 256q72 10 90 10z" />
    <glyph glyph-name="afii10098" unicode="&#x491;" horiz-adv-x="870" 
d="M794 1241q148 0 148 -119q0 -13 -4 -35l-55 -323h-424l-127 -764h-277l164 987h463l39 246q7 8 73 8z" />
    <glyph glyph-name="uni0492" unicode="&#x492;" horiz-adv-x="935" 
d="M891 1143h-354l-64 -383h320l-29 -180h-322l-94 -580h-276l96 580h-135l28 180h138l100 612h801q-4 -129 -47.5 -179t-161.5 -50z" />
    <glyph glyph-name="uni0493" unicode="&#x493;" horiz-adv-x="819" 
d="M307 260q0 -86 111 -86q76 0 125 23.5t90 70.5q96 -37 96 -121q0 -81 -108 -129q-108 -49 -214 -49q-181 0 -274.5 81t-93.5 181q0 101 52 164.5t142 114.5l-106 51l57 113l197 -96q68 31 112 63.5t44 78.5q0 91 -101 91q-72 0 -123 -34t-75 -68q-94 31 -95 108
q0 112 127 146t206 34q158 0 240.5 -80.5t82.5 -179.5q0 -98 -50.5 -159.5t-134.5 -112.5l107 -49l-57 -113l-191 90q-76 -35 -121 -62.5t-45 -70.5z" />
    <glyph glyph-name="uni0494" unicode="&#x494;" horiz-adv-x="1196" 
d="M455 -209q172 0 271 131t99 436q0 129 -68.5 200t-191.5 71q-66 0 -114 -8l-105 -621h-283l230 1372h768q-4 -129 -47.5 -179t-161.5 -50h-313l-54 -314q54 7 154 7t287.5 -77.5t187.5 -425.5t-164.5 -545.5t-464.5 -197.5q-72 0 -112.5 27t-40.5 66q0 66 26 114
q24 -6 97 -6z" />
    <glyph glyph-name="uni0495" unicode="&#x495;" horiz-adv-x="966" 
d="M655 184q0 92 -50 141.5t-117 49.5t-99 -6l-61 -369h-273l166 987h670q0 -109 -36.5 -166t-160.5 -57h-239l-31 -195q56 9 88 9q195 0 301.5 -108t106.5 -325t-124 -388t-354 -171q-135 0 -135 105q0 50 21 90q24 -4 53 -4q274 4 274 407z" />
    <glyph glyph-name="uni0496" unicode="&#x496;" horiz-adv-x="1937" 
d="M1197 1340q34 -40 34 -82t-4 -66l-197 -1192h-276l227 1372q50 8 116 8t100 -40zM199 1204v25q0 80 46.5 115.5t120.5 35.5t120 -45t87 -133l89 -196q29 -63 64.5 -115.5t94.5 -73.5l-37 -215q-76 -14 -132 -79.5t-120 -155.5l-192 -283q-72 -107 -204 -107
q-56 0 -89 9.5t-70 33.5l361 504q136 190 262 209q-84 18 -156 164l-84 178q-35 70 -67.5 99.5t-93.5 29.5zM1976 1278q0 -40 -8 -78q-65 0 -100.5 -27t-91.5 -110l-107 -156q-37 -55 -97.5 -109.5t-125.5 -68.5q66 -31 106.5 -93.5t69.5 -127.5l121 -291h135l-92 -551h-248
l53 322q-39 14 -62.5 44.5t-41.5 82.5l-80 204q-65 167 -94 203.5t-54.5 51t-62.5 24.5l37 217q80 25 135 91.5t100 137.5l105 160q57 88 114.5 132t136.5 44t115.5 -31t36.5 -71z" />
    <glyph glyph-name="uni0497" unicode="&#x497;" horiz-adv-x="1564" 
d="M956 970q41 -25 41 -96q0 -20 -4 -40l-139 -834h-264l164 987q32 8 96 8q65 0 106 -25zM281 993q70 0 116.5 -37.5t81.5 -109.5l41 -84q29 -59 52.5 -105.5t60.5 -52.5l-33 -190q-37 -6 -69.5 -39t-77.5 -103l-107 -166q-49 -76 -93 -101t-103 -25q-60 0 -88.5 8
t-61.5 30l227 344q60 90 98 117.5t93 40.5q-35 16 -54.5 43t-39.5 64l-72 131q-47 82 -129 82q0 153 158 153zM1470 993q69 0 99 -37.5t30 -78.5v-15q0 -14 -2 -22q-80 0 -141 -86l-84 -119q-71 -101 -155 -115q72 -21 126 -143l64 -164h94l-82 -498h-235l47 291
q-39 29 -60 90l-69 193q-23 63 -48.5 92t-72.5 33l33 190q43 0 78.5 43t83.5 115l61 96q49 78 106.5 106.5t126.5 28.5z" />
    <glyph glyph-name="uni0498" unicode="&#x498;" horiz-adv-x="1050" 
d="M426 186q131 0 201.5 63t70.5 165t-59 148t-152 46h-213l37 219h213q104 0 167 56.5t63 140.5q0 156 -183 156q-156 0 -299 -138q-82 68 -82 135t54 111q81 73 188 92t180 19q207 0 317.5 -99.5t110.5 -255.5q0 -123 -68.5 -202.5t-178.5 -118.5q182 -99 182 -311
q0 -284 -170 -357t-283 -86q-30 -35 -30 -62t11 -42t35.5 -46t24.5 -84q0 -99 -71.5 -149.5t-145.5 -50.5q-123 0 -123 82q0 39 27 74q27 -15 67 -15t55 18t15 38q0 28 -24.5 61t-24.5 80t41 94q-187 13 -297 107q-57 50 -57 104q0 84 96 156q133 -148 305 -148z" />
    <glyph glyph-name="uni0499" unicode="&#x499;" horiz-adv-x="903" 
d="M551 291q0 108 -158 108h-174l35 201h182q78 0 117 35t39 82t-41 74.5t-111 27.5q-144 0 -243 -110q-78 56 -78 109q0 54 46 98t134 69t180 25q173 0 276 -69.5t103 -186.5q0 -170 -176 -244q55 -25 94 -78.5t39 -123.5q0 -133 -87.5 -222.5t-252.5 -110.5
q-35 -39 -35 -67t11.5 -43t36 -47t24.5 -85q0 -99 -72 -148.5t-147 -49.5q-121 0 -121 82q0 39 27 74q27 -15 67 -15t55 18t15 38q0 25 -24.5 60t-24.5 80t43 99q-150 8 -230 64q-63 41 -63 107.5t80 136.5q49 -53 106.5 -86t143.5 -33t135 38t49 93z" />
    <glyph glyph-name="uni049A" unicode="&#x49a;" horiz-adv-x="1253" 
d="M507 1340q34 -40 34 -82t-4 -66l-197 -1192h-277l228 1372q50 8 116 8t100 -40zM1298 1278q0 -40 -8 -78q-66 0 -103.5 -29t-90.5 -108l-109 -156q-66 -100 -132.5 -137t-98.5 -41q66 -31 107.5 -93.5t70.5 -127.5l125 -291h135l-92 -551h-248l53 324q-66 26 -102 125
l-84 204q-67 163 -97 200.5t-55.5 53t-62.5 25.5l37 217q65 20 115.5 71.5t75 87.5t48.5 70l109 160q59 86 117.5 131t137.5 45t115.5 -31t36.5 -71z" />
    <glyph glyph-name="uni049B" unicode="&#x49b;" horiz-adv-x="1050" 
d="M426 970q43 -25 43 -96q0 -20 -4 -40l-139 -834h-271l164 987q32 8 98 8t109 -25zM958 993q69 0 99 -37.5t30 -78.5v-15q0 -14 -2 -22q-78 0 -141 -86l-92 -123q-72 -95 -164 -111q78 -23 131 -143l72 -164h96l-82 -498h-235l47 295q-33 23 -62 86l-82 193q-27 61 -50 91
t-70 34l32 190q43 0 82 43t88 115l66 96q53 76 110.5 105.5t126.5 29.5z" />
    <glyph glyph-name="uni049C" unicode="&#x49c;" horiz-adv-x="1318" 
d="M507 1340q34 -40 34 -82t-4 -66l-197 -1192h-277l228 1372q50 8 116 8t100 -40zM1096 -23q-83 0 -121.5 34t-67.5 104l-84 204q-37 86 -61.5 143.5t-48.5 90.5l-41 -240h-158l49 293h-63l32 201h64l51 299h158l-35 -209q48 48 115 147l108 160q59 86 117.5 131t137.5 45
t116 -31t37 -71t-8 -78q-66 0 -102.5 -28t-92.5 -109l-108 -156q-65 -98 -132 -136t-100 -42q66 -31 108 -93.5t70 -127.5l211 -492q-68 -39 -151 -39z" />
    <glyph glyph-name="uni049D" unicode="&#x49d;" horiz-adv-x="1114" 
d="M426 970q43 -25 43 -96q0 -20 -4 -40l-139 -834h-271l164 987q32 8 98 8t109 -25zM896 -20q-75 0 -114 29.5t-63 86.5l-76 193q-13 32 -41 80l-33 -197h-137l41 248h-37l31 178h35l41 236h137l-31 -177q35 35 80 105l62 96q49 78 104 106.5t124 28.5t99.5 -37.5
t30.5 -78.5v-15q0 -14 -2 -22q-78 0 -141 -86l-93 -123q-72 -96 -163 -111q78 -23 131 -143l159 -361q-69 -36 -144 -36z" />
    <glyph glyph-name="uni049E" unicode="&#x49e;" horiz-adv-x="1265" 
d="M1043 -23q-83 0 -121.5 34t-67.5 104l-84 204q-67 163 -97 200.5t-55.5 53t-62.5 25.5l37 217q65 20 115.5 71.5t75 87.5t48.5 70l109 160q59 86 117.5 131t137.5 45t116 -30.5t37 -68.5t-9 -81q-66 0 -103.5 -29t-90.5 -108l-109 -156q-66 -99 -132 -136.5t-99 -41.5
q66 -31 107.5 -93.5t70.5 -127.5l211 -492q-68 -39 -151 -39zM590 1258q0 -42 -4 -62h176l-29 -168h-174l-170 -1028h-276l170 1028h-152l29 168h149l31 176q50 8 116 8t100 -40t34 -82z" />
    <glyph glyph-name="uni049F" unicode="&#x49f;" horiz-adv-x="1144" 
d="M927 -20q-75 0 -115 29.5t-64 86.5l-82 193q-51 119 -142 125l33 190q57 0 102.5 43t94.5 115l65 96q53 76 107.5 105.5t123.5 29.5t99.5 -37.5t30.5 -78.5v-15q0 -14 -2 -22q-78 0 -142 -86l-92 -123q-31 -41 -84 -72t-100 -39q41 -12 83 -48t68 -95l160 -361
q-69 -36 -144 -36zM500.5 965q41.5 -30 38.5 -105h145l-25 -141h-143l-119 -719h-270l119 719h-144l25 141h143l21 127q32 8 100 8t109.5 -30z" />
    <glyph glyph-name="uni04A0" unicode="&#x4a0;" horiz-adv-x="1435" 
d="M1213 -23q-83 0 -121.5 34t-67.5 104l-84 204q-67 163 -97 200.5t-55.5 53t-62.5 25.5l37 217q65 20 115.5 71.5t75 87.5t48.5 70l109 160q59 86 117.5 131t137.5 45t116 -30.5t37 -68.5t-9 -81q-66 0 -103.5 -29t-90.5 -108l-109 -156q-66 -99 -132 -136.5t-99 -41.5
q66 -31 107.5 -93.5t70.5 -127.5l211 -492q-68 -39 -151 -39zM154 1143q0 129 45.5 179t162.5 50h426l-227 -1372h-276l186 1143h-317z" />
    <glyph glyph-name="uni04A1" unicode="&#x4a1;" horiz-adv-x="1187" 
d="M82 764q0 104 39 163.5t137 59.5h367l-164 -987h-271l127 764h-235zM970 -20q-75 0 -115 29.5t-64 86.5l-82 193q-27 61 -50.5 91t-70.5 34l33 190q43 0 81.5 43t88.5 115l65 96q53 76 110.5 105.5t126.5 29.5t99.5 -37.5t30.5 -78.5v-15q0 -14 -2 -22q-78 0 -142 -86
l-92 -123q-72 -95 -164 -111q78 -23 131 -143l160 -361q-69 -36 -144 -36z" />
    <glyph glyph-name="uni04A2" unicode="&#x4a2;" horiz-adv-x="1302" 
d="M506 1340q35 -40 35 -82t-4 -66l-62 -377h449l92 557q50 8 115 8t100 -40t35 -82t-4 -66l-162 -975h143l-92 -551h-248l55 334h-170l99 594h-449l-98 -594h-277l228 1372q50 8 115 8t100 -40z" />
    <glyph glyph-name="uni04A3" unicode="&#x4a3;" horiz-adv-x="1110" 
d="M315 995q158 0 158 -123q0 -18 -4 -38l-37 -218h295l61 371q8 8 68 8q100 0 144 -26.5t44 -96.5q0 -18 -4 -38l-104 -621h111l-82 -498h-236l47 285h-151l65 393h-295l-65 -393h-275l164 987q8 8 96 8z" />
    <glyph glyph-name="uni04A4" unicode="&#x4a4;" horiz-adv-x="1497" 
d="M507 1340q34 -40 34 -82t-4 -66l-62 -377h449l92 557h645q-4 -129 -47.5 -179t-161.5 -50h-199l-188 -1143h-277l99 594h-449l-98 -594h-277l228 1372q50 8 116 8t100 -40z" />
    <glyph glyph-name="uni04A5" unicode="&#x4a5;" horiz-adv-x="1226" 
d="M315 995q158 0 158 -123q0 -18 -4 -38l-37 -218h295l61 371h521q0 -107 -36 -165t-161 -58h-84l-127 -764h-276l65 393h-295l-65 -393h-275l164 987q8 8 96 8z" />
    <glyph glyph-name="uni04A6" unicode="&#x4a6;" horiz-adv-x="1865" 
d="M1308 836q101 0 195 -39t187.5 -140t93.5 -331q0 -341 -164.5 -538.5t-464.5 -197.5q-72 0 -113 27t-41 78t27 102q24 -6 97 -6q170 0 270 130.5t100 436.5q0 129 -68.5 200t-191.5 71q-67 0 -117 -8l-102 -621h-277l189 1143h-400l-188 -1143h-277l228 1372h952
l-90 -543q54 7 155 7z" />
    <glyph glyph-name="uni04A7" unicode="&#x4a7;" horiz-adv-x="1523" 
d="M1212 184q0 92 -50 141.5t-136 49.5q-46 0 -78 -6l-61 -369h-277l99 590q8 41 8 86t-21.5 77.5t-87 32.5t-115 -55t-63.5 -141l-98 -590h-277l162 981q46 8 103 8q56 0 91 -24.5t54 -83.5q119 129 285 129q92 0 170.5 -56.5t78.5 -220.5q0 -59 -18 -164q56 9 88 9
q195 0 301.5 -108t106.5 -325t-123.5 -388t-354.5 -171q-135 0 -135 105q0 45 21 90q24 -4 53 -4q274 4 274 407z" />
    <glyph glyph-name="uni04A8" unicode="&#x4a8;" horiz-adv-x="1390" 
d="M976 735q-82 0 -129.5 -89t-47.5 -241t41 -229q90 42 157.5 149t71.5 253q2 68 -23.5 112.5t-69.5 44.5zM1049 -135q-192 0 -320 115q-43 -6 -88 -7q-249 0 -378.5 164.5t-129.5 399.5q0 150 45 303t137.5 277t229.5 203t297 79t289 -64.5t129 -191.5q0 -105 -142 -137
q-71 165 -280 165q-176 0 -303 -171.5t-127 -483.5q0 -278 210 -356q-61 106 -61 246q0 257 117.5 401.5t318.5 144.5q144 0 234 -101t90 -262t-82 -297t-223 -220q28 -9 78 -9t84 12.5t75 35.5q62 -92 47.5 -140.5t-68.5 -77t-179 -28.5z" />
    <glyph glyph-name="uni04A9" unicode="&#x4a9;" horiz-adv-x="1079" 
d="M823 389q0 103 -53 103q-41 0 -65.5 -48t-24.5 -131t25 -153q89 48 103.5 125t14.5 104zM481 316q0 157 87.5 252.5t207.5 95.5q121 0 183.5 -69t62.5 -192q0 -212 -199 -331q23 -8 78 -8t123 30q25 -46 24 -100t-46.5 -75t-127.5 -21q-165 0 -251 86q-55 -14 -141 -14
t-237 66t-151 336q0 271 148 454.5t393 183.5q102 0 193.5 -42.5t91.5 -136.5q0 -45 -35 -72.5t-88 -45.5q-45 96 -172 96q-126 0 -201.5 -125t-75.5 -317q0 -94 38 -158t126 -64h4q-35 90 -35 171z" />
    <glyph glyph-name="uni04AA" unicode="&#x4aa;" horiz-adv-x="1204" 
d="M739 -276q0 -88 -71 -138q-71 -51 -146 -51q-123 0 -123 82q0 37 27 74q27 -15 67 -15t55 18t15 38q-1 26 -25 61t-24 80q0 44 43 98q-210 23 -317 178q-107 154 -107 388q0 149 43 303t130 278t222 202q135 79 295 79t249 -49q128 -71 152 -161q5 -24 5 -46
q0 -123 -148 -156q-37 86 -96 135t-155 49q-280 0 -378 -377q-32 -124 -32 -238t16 -171t48 -99q71 -93 184 -91q194 0 352 180q100 -74 99 -137q-1 -62 -33 -102t-87 -75q-123 -79 -301 -94q-30 -31 -30 -59t23 -59t36 -56q12 -25 12 -69z" />
    <glyph glyph-name="uni04AB" unicode="&#x4ab;" horiz-adv-x="923" 
d="M838 187q0 -111 -112 -162.5t-210 -55.5q-31 -36 -31 -63q0 -26 11.5 -41t36 -46t24.5 -84q0 -100 -72 -150t-147 -50q-121 0 -121 82q0 39 27 74q26 -15 66 -15t55.5 18t15.5 38q0 28 -24.5 61t-24.5 66q0 66 51 121q-148 26 -218.5 137.5t-70.5 251.5q0 275 148 458
t393 183q189 0 266 -119q25 -42 25 -76q0 -58 -41 -88t-92 -53q-29 68 -68 96.5t-103 28.5q-119 0 -187 -126t-68 -306q0 -94 46 -140.5t105 -46.5q120 0 209 125q111 -45 111 -118z" />
    <glyph glyph-name="uni04AC" unicode="&#x4ac;" horiz-adv-x="1105" 
d="M154 1143q0 129 45.5 179t162.5 50h879q-4 -130 -48 -179.5t-161 -49.5h-211l-153 -926h143l-92 -551h-248l55 334h-170l189 1143h-391z" />
    <glyph glyph-name="uni04AD" unicode="&#x4ad;" horiz-adv-x="1611" 
d="M1229 673q0 113 -84 113q-76 0 -121 -61t-59 -135l-99 -590h-276l98 590q8 41 8 80q0 117 -98 116q-51 0 -101.5 -52t-66.5 -144l-98 -590h-277l162 981q46 8 103 8q56 0 91 -24.5t54 -83.5q119 129 280 129t209 -144q70 74 138.5 109t170.5 34q250 -2 250 -276
q0 -61 -14 -143l-63 -377h112l-82 -498h-235l47 285h-154l99 590q6 39 6 83z" />
    <glyph glyph-name="uni04AE" unicode="&#x4ae;" horiz-adv-x="1105" 
d="M174 1333q96 47 172 47q106 0 139 -100l144 -473l280 448q79 127 203 125q76 0 137 -43l-528 -805l-88 -532h-277l88 530z" />
    <glyph glyph-name="uni04AF" unicode="&#x4af;" horiz-adv-x="937" 
d="M879 989q80 0 133 -28l-490 -1002l-65 -405h-271l70 423l-158 984q74 29 132 29t86 -16t51 -50.5t32 -126.5l43 -531l222 537q35 86 85 136t130 50z" />
    <glyph glyph-name="uni04B0" unicode="&#x4b0;" horiz-adv-x="1105" 
d="M1112 1380q76 0 137 -43l-493 -751h280l-30 -180h-308l-65 -406h-277l68 406h-295l31 180h266l-252 747q96 47 172 47q106 0 139 -100l144 -473l280 448q78 125 203 125z" />
    <glyph glyph-name="uni04B1" unicode="&#x4b1;" horiz-adv-x="972" 
d="M565 0v-2l-73 -444h-271l74 446h-197l31 180h141l-137 781q75 29 133 29t85.5 -16t50.5 -50.5t32 -126.5l45 -512l219 518q35 84 85.5 135t130.5 51t133 -28l-392 -781h152l-31 -180h-211z" />
    <glyph glyph-name="uni04B2" unicode="&#x4b2;" horiz-adv-x="1140" 
d="M371 1380q104 0 143 -100l137 -367l246 344q47 63 92 93t118 30t138 -41l-489 -661l178 -461h147l-92 -551h-248l54 318q-47 10 -72 39.5t-43 78.5l-123 357l-307 -459h-303l504 694l-258 639q101 47 178 47z" />
    <glyph glyph-name="uni04B3" unicode="&#x4b3;" horiz-adv-x="899" 
d="M277 991q70 0 103.5 -29.5t55.5 -84.5l70 -183l117 168q83 127 197 127q88 0 151 -37l-363 -463l115 -276h113l-82 -498h-236l47 289q-45 25 -67 84l-76 203l-201 -291h-282l389 506l-199 452q78 33 148 33z" />
    <glyph glyph-name="uni04B4" unicode="&#x4b4;" horiz-adv-x="1501" 
d="M1313 1380q157 0 157 -120q0 -19 -4 -39l-168 -1004h144l-92 -551h-260l57 334h-873l193 1143h-313q0 129 45.5 179t162.5 50h709q-4 -130 -48 -179.5t-161 -49.5h-119l-153 -926h428l194 1153q72 10 101 10z" />
    </font>
</defs>
</svg>
