<?xml version="1.0" standalone="no"?>
<!DOCTYPE svg PUBLIC "-//W3C//DTD SVG 1.1//EN" "http://www.w3.org/Graphics/SVG/1.1/DTD/svg11.dtd" >
<svg xmlns="http://www.w3.org/2000/svg">
<metadata>
Created by FontPrep 20130207 at Fri Dec 12 17:59:37 2014
 By Baris Oner
Copyright 2012 Dalton Maag Ltd. Modification of this file requires prior written permission from Dalton Maag Ltd.
</metadata>
<defs>
<font id="d469306ab4f0b426f7fc6f9591397f90" horiz-adv-x='1024' >
  <font-face 
    font-family="AcerFoco-LightItalic"
    font-weight="300"
    font-style="italic"
    font-stretch="normal"
    units-per-em="2048"
    panose-1="2 11 4 4 5 2 2 9 2 3"
    ascent="1610"
    descent="-438"
    x-height="956"
    cap-height="1370"
    bbox="-350 -465 2080.05 1872"
    underline-thickness="40"
    underline-position="-231"
    slope="-9.5"
    unicode-range="U+0008-FB04"
  />
<missing-glyph horiz-adv-x="1024" 
d="M819 1434h-614v-1332h614v1332zM102 0v1536h820v-1536h-820z" />
    <glyph glyph-name="f_f" unicode="ff" horiz-adv-x="1204" 
d="M1242 1370q-171 0 -209 -112.5t-46 -159.5l-22 -142h321l-16 -96h-322l-147 -893q-29 -181 -98 -285t-224 -104q-72 0 -131 26t-59 64q0 27 14 41l23 29q70 -62 155 -62q160 0 203 283l145 901h-462l-148 -893q-29 -181 -98 -285t-223 -104q-74 0 -132 26t-58 58t13 47
l23 29q70 -62 156 -62q159 0 202 283l183 1118q28 178 110 279q95 112 254 112q114 0 177 -46t63 -91q0 -23 -21 -41l-28 -24h-21q-55 104 -178 104q-189 0 -235 -272l-23 -142h463l20 121q28 177 111 279q95 112 260 112q114 0 180 -46.5t66 -90.5q0 -23 -21 -41l-28 -24
h-21q-54 104 -171 104z" />
    <glyph glyph-name="f_i" unicode="fi" horiz-adv-x="952" 
d="M780 129q0 -70 62 -72q27 0 51 9l8 -46q-59 -32 -119 -32t-92 35t-31 72q0 37 4 57q3 20 7 49l108 659h-411l-148 -893q-29 -181 -87 -269q-80 -120 -234 -120q-74 0 -132 26t-58 58t13 47l23 29q68 -60 137 -61q70 -1 105 24q86 62 116 258l183 1118q27 172 114 279
q45 53 120 83q75 29 151 29t127 -18q98 -35 139 -94q18 -28 18 -48t-20 -38l-29 -25h-20q-66 125 -202 125q-137 0 -198 -73t-79 -199l-23 -142h530l-127 -768q-6 -24 -6 -59z" />
    <glyph glyph-name="f_l" unicode="fl" horiz-adv-x="952" 
d="M780 129q0 -70 62 -72q27 0 51 9l8 -46q-59 -32 -119 -32t-92 35t-31 72q0 37 4 57q3 20 7 49l184 1118q-62 51 -153 51t-139 -20q-128 -53 -156 -252l-23 -142h301l-16 -96h-301l-148 -893q-29 -181 -87 -269q-80 -120 -234 -120q-74 0 -132 26t-58 58t13 47l23 29
q68 -60 137 -61q70 -1 105 24q86 62 116 258l183 1118q58 394 401 391q104 0 193 -41q42 -18 102 -67l-195 -1172q-6 -24 -6 -59z" />
    <glyph glyph-name="f_f_i" unicode="ffi" horiz-adv-x="1533" 
d="M1362 129q0 -72 61 -72q27 0 52 9l8 -46q-59 -32 -119 -32t-91.5 34.5t-31.5 86.5q0 23 3 43t7 49l109 659h-412l-147 -893q-29 -181 -98 -285t-224 -104q-72 0 -131 26t-59 64q0 27 14 41l23 29q70 -62 155 -62q160 0 203 283l145 901h-462l-148 -893q-29 -181 -98 -285
t-223 -104q-74 0 -132 26t-58 58t13 47l23 29q70 -62 156 -62q159 0 202 283l183 1118q28 178 110 279q95 112 254 112q114 0 177 -46t63 -91q0 -23 -21 -41l-28 -24h-21q-55 104 -178 104q-189 0 -235 -272l-23 -142h463l20 121q27 171 115 279q45 53 120 82.5t151 29.5
q128 0 206 -56.5t78 -100.5q0 -23 -20 -41l-29 -25h-21q-66 125 -201 125t-195.5 -71t-82.5 -201l-22 -142h530l-127 -768q-6 -24 -6 -59z" />
    <glyph glyph-name="f_f_l" unicode="ffl" horiz-adv-x="1533" 
d="M1362 129q0 -72 61 -72q27 0 52 9l8 -46q-59 -32 -119 -32t-91.5 34.5t-31.5 86.5q0 23 3 43t7 49l185 1118q-62 51 -153 51t-180 -39t-116 -233l-22 -142h301l-17 -96h-301l-147 -893q-29 -181 -98 -285t-224 -104q-72 0 -131 26t-59 64q0 27 14 41l23 29
q70 -62 155 -62q160 0 203 283l145 901h-462l-148 -893q-29 -181 -98 -285t-223 -104q-74 0 -132 26t-58 58t13 47l23 29q70 -62 156 -62q159 0 202 283l183 1118q28 178 110 279q95 112 254 112q114 0 177 -46t63 -91q0 -23 -21 -41l-28 -24h-21q-55 104 -178 104
q-189 0 -235 -272l-23 -142h463l20 121q57 391 402 391q101 0 165 -28.5t88.5 -48t41.5 -31.5l-195 -1172q-6 -24 -6 -59z" />
    <glyph glyph-name=".notdef" horiz-adv-x="1024" 
d="M819 1434h-614v-1332h614v1332zM102 0v1536h820v-1536h-820z" />
    <glyph glyph-name=".null" horiz-adv-x="0" 
 />
    <glyph glyph-name=".null" horiz-adv-x="0" 
 />
    <glyph glyph-name=".null" horiz-adv-x="0" 
 />
    <glyph glyph-name="nonmarkingreturn" unicode="&#x9;" horiz-adv-x="370" 
 />
    <glyph glyph-name="nonmarkingreturn" unicode="&#xd;" horiz-adv-x="370" 
 />
    <glyph glyph-name="space" unicode=" " horiz-adv-x="370" 
 />
    <glyph glyph-name="exclam" unicode="!" horiz-adv-x="421" 
d="M182 178q70 0 80 -87q4 -40 -23 -81q-28 -41 -73 -41q-81 0 -90 78q-4 47 23.5 89t82.5 42zM234 324q-26 0 -47 23t-21 43v15q0 15 2 23l156 944q10 2 36 2t47 -23t21 -43v-15q0 -15 -2 -23l-156 -942q-10 -4 -36 -4z" />
    <glyph glyph-name="quotedbl" unicode="&#x22;" horiz-adv-x="634" 
d="M597 1395q30 0 49 -31t16 -52t-7 -42l-73 -350h-103l78 473q10 2 40 2zM324 1395q30 0 48 -27t17 -47q0 -20 -6 -51l-74 -350h-102l78 473q9 2 39 2z" />
    <glyph glyph-name="numbersign" unicode="#" horiz-adv-x="1257" 
d="M748 483l96 342h-283l-98 -342h285zM1092 391h-267l-94 -332h-106l96 332h-285l-94 -332h-106l94 332h-267l25 92h268l99 342h-269l27 95h268l90 315h107l-90 -315h282l91 315h106l-90 -315h266l-26 -95h-267l-98 -342h266z" />
    <glyph glyph-name="dollar" unicode="$" horiz-adv-x="1105" 
d="M381 1021q0 -107 70.5 -158.5t111.5 -76.5l80 482q-137 -2 -199.5 -71t-62.5 -176zM815 356q0 100 -43 158.5t-135 106.5l-88 -529q132 11 199 87.5t67 176.5zM106 157q0 26 18.5 40t35.5 24q57 -63 120.5 -94t168.5 -37l94 576q-132 73 -205.5 152t-73.5 217
q0 139 110.5 233t284.5 98l31 188h101l-33 -192q82 -10 143 -46t85 -62t24 -60q0 -33 -45 -59h-19q-76 108 -205 127l-86 -523q146 -82 214.5 -159.5t68.5 -208.5q0 -166 -111.5 -269.5t-296.5 -111.5l-28 -183h-101l29 181q-106 6 -215 54.5t-109 114.5z" />
    <glyph glyph-name="percent" unicode="%" horiz-adv-x="1495" 
d="M1280 1395q35 0 57 -15l-956 -1380h-123l911 1319q29 41 52.5 58.5t58.5 17.5zM1085 63q45 0 106 44t89 180q16 70 16 153q-4 146 -112 146q-95 0 -154 -103t-59 -274q2 -78 35.5 -112t78.5 -34zM1088 -31q-120 0 -175 77.5t-55 171.5q0 188 92.5 325t245.5 137
q106 0 161.5 -77.5t55.5 -171.5q0 -95 -22.5 -175t-65.5 -143.5t-106 -103.5t-131 -40zM406 778q46 0 106 44t88 179q16 70 16 154q-4 145 -112 145q-96 0 -154.5 -104t-58.5 -272q2 -78 35.5 -112t79.5 -34zM408 684q-120 0 -175 77.5t-55 171.5q0 188 92.5 325t245.5 137
q106 0 161.5 -76.5t55.5 -172.5t-22.5 -175.5t-65.5 -143t-106 -103.5t-131 -40z" />
    <glyph glyph-name="ampersand" unicode="&#x26;" horiz-adv-x="1216" 
d="M238 342q0 -125 74.5 -195.5t181.5 -70.5q208 0 333 166q-216 250 -342 471q-247 -151 -247 -371zM1051 625q0 -203 -90 -363q117 -133 227 -239q-37 -35 -72 -35t-53.5 6t-42.5 34t-57 62.5t-68 75.5q-76 -88 -181.5 -139.5t-196.5 -51.5q-173 0 -287.5 88t-114.5 267
q0 271 327 465q-77 163 -77 256q0 169 89.5 256.5t218.5 87.5t189 -66t61 -101q1 -34 -46 -65h-21q-56 135 -180 135q-94 0 -144.5 -60t-50.5 -146q0 -270 408 -748q59 134 59 272q0 137 -39 254h308l-15 -86h-172q21 -87 21 -159z" />
    <glyph glyph-name="quotesingle" unicode="'" horiz-adv-x="362" 
d="M324 1395q30 0 47.5 -27.5t17.5 -47.5t-6 -50l-74 -350h-102l78 473q9 2 39 2z" />
    <glyph glyph-name="parenleft" unicode="(" horiz-adv-x="518" 
d="M389 -248q-25 -10 -58 -10t-67 49q-56 85 -80 247.5t-24 270.5q0 431 115.5 699.5t236.5 404.5q49 55 104 55q29 0 48 -18q-373 -412 -373 -1153q0 -252 63 -461q18 -55 35 -84z" />
    <glyph glyph-name="parenright" unicode=")" horiz-adv-x="518" 
d="M215 1458q25 10 59 10t66 -49q57 -85 80.5 -248t23.5 -270q0 -431 -115.5 -699.5t-236.5 -404.5q-49 -55 -104 -55q-29 0 -47 18q193 213 282.5 517.5t89.5 604.5q0 301 -65 492q-16 55 -33 84z" />
    <glyph glyph-name="asterisk" unicode="*" horiz-adv-x="724" 
d="M350 1061q25 0 25 -29q0 -12 -8 -20l-111 -111q-14 -14 -37 -14t-41 26.5t-18 48.5q0 47 33 54l131 39q12 6 26 6zM530 798q0 -20 -17 -36.5t-47 -16.5t-48.5 16.5t-18.5 30.5t7 37l34 140q6 20 26 20t26 -20l30 -131q8 -20 8 -40zM375 1172q0 -12 -7.5 -20.5t-20.5 -8.5
t-25 6l-127 41q-33 8 -33 42t18.5 60.5t40.5 26.5t37 -14l109 -113q8 -8 8 -20zM557 1032q0 29 23 29q12 0 24 -6l133 -41q35 -12 35 -43q0 -86 -65 -86q-24 0 -39 20l-103 107q-8 8 -8 20zM467 1458q35 0 50 -16t15 -34t-6 -36l-32 -137q-6 -20 -27 -20.5t-27 20.5l-32 139
q-14 42 5 63t54 21zM585 1143q-13 0 -20.5 9t-7.5 20t8 20l111 111q14 14 37 14t41 -26.5t18 -48.5q0 -47 -33 -54l-129 -39q-12 -6 -25 -6z" />
    <glyph glyph-name="plus" unicode="+" horiz-adv-x="1105" 
d="M936 639h-301l-55 -326h-109l53 326h-303l19 104h301l55 328h109l-54 -328h303z" />
    <glyph glyph-name="comma" unicode="," horiz-adv-x="405" 
d="M111 51q0 57 28.5 90t69.5 33t61.5 -25.5t20.5 -84t-43.5 -143.5t-104.5 -122q-31 -22 -56 -22q-55 0 -62 47q125 61 141 151q-55 19 -55 76z" />
    <glyph glyph-name="hyphen" unicode="-" horiz-adv-x="827" 
d="M170 565q0 16 6 37h463q82 0 82 -70q0 -15 -6 -36h-463q-82 0 -82 69z" />
    <glyph glyph-name="period" unicode="." horiz-adv-x="403" 
d="M190 178q70 0 80 -87q4 -40 -23 -81q-28 -41 -73 -41q-81 0 -90 78q-4 47 23.5 89t82.5 42z" />
    <glyph glyph-name="slash" unicode="/" horiz-adv-x="681" 
d="M668 1296q46 82 89 82t68 -16l-723 -1362h-122z" />
    <glyph glyph-name="zero" unicode="0" horiz-adv-x="1105" 
d="M520 -31q-122 0 -192 42t-131.5 138.5t-61.5 279.5q0 182 36 344.5t107.5 295.5t181 218t255.5 85q186 0 275 -141.5t89 -325.5t-36.5 -347t-108.5 -294t-182 -213t-232 -82zM950 849q0 126 -14 193.5t-62 145.5t-169 78q-96 0 -177.5 -64.5t-172.5 -240t-91 -523.5
q0 -251 88 -306.5t167 -55.5t161 62t142.5 173t94 261.5t33.5 276.5z" />
    <glyph glyph-name="one" unicode="1" horiz-adv-x="1105" 
d="M360 1098q0 24 12.5 35.5t35.5 23.5l340 191q28 14 58 14t48 -25l-221 -1337h-121l199 1208l-326 -174q-25 40 -25 64z" />
    <glyph glyph-name="two" unicode="2" horiz-adv-x="1105" 
d="M270 1159q0 35 34 68q68 66 159.5 106.5t191.5 40.5q178 0 266.5 -88t88.5 -254t-117 -328.5t-305 -338.5q-108 -103 -305 -263h571q43 0 60.5 -16t17.5 -36v-18q0 -18 -4 -32h-819l14 100q230 184 348 298q221 215 317.5 354.5t96.5 279.5q0 234 -240 234
q-86 0 -170 -45t-141 -125h-17q-47 28 -47 63z" />
    <glyph glyph-name="three" unicode="3" horiz-adv-x="1105" 
d="M135 229q117 -153 284 -153q158 0 260.5 74.5t102.5 242.5q0 128 -75.5 196t-180.5 68h-59l16 101h54q99 0 213 79.5t114 219.5q0 90 -56 149.5t-187 59.5q-173 0 -297 -154h-17q-49 28 -49 56t15.5 46.5t30.5 33.5q39 39 130.5 82.5t188.5 43.5q177 0 270.5 -85
t93.5 -224q0 -181 -113.5 -257.5t-171.5 -96.5q209 -94 209 -305q0 -188 -122.5 -312.5t-340.5 -124.5t-339 121q-29 28 -29 54t12 42.5t43 42.5z" />
    <glyph glyph-name="four" unicode="4" horiz-adv-x="1105" 
d="M913 473q78 0 78 -56q0 -25 -4 -44h-151l-62 -373h-117l62 373h-602l12 88l737 860q35 41 68 41t63 -12l-145 -877h61zM737 473l115 678l-586 -678h471z" />
    <glyph glyph-name="five" unicode="5" horiz-adv-x="1105" 
d="M190 229q117 -153 287 -153q168 0 262.5 90t94.5 295q0 131 -77 209t-212 78q-78 0 -128 -11.5t-106 -27.5l-30 18l122 631h615q0 -47 -19.5 -77t-74.5 -30h-430l-80 -422q94 21 178 21q164 0 267.5 -112t103.5 -269q0 -217 -125 -358.5t-344 -141.5q-113 0 -196.5 35.5
t-123.5 75.5q-39 39 -39 73q0 35 55 76z" />
    <glyph glyph-name="six" unicode="6" horiz-adv-x="1105" 
d="M811 695q-68 83 -171 83t-187 -42.5t-136 -106.5q-24 -89 -25 -193q-2 -188 75 -275t199 -87t214 102.5t97 300.5q2 135 -66 218zM1024 1325q0 -27 -14 -55h-64q-185 0 -317 -90q-98 -66 -176 -171.5t-113 -240.5q79 79 212 106t257 -32t173 -208.5t-9 -338
t-184.5 -257.5t-224.5 -69q-182 0 -288 121.5t-103 314.5t52 363t146.5 305t243 218t341.5 83q68 0 68 -49z" />
    <glyph glyph-name="seven" unicode="7" horiz-adv-x="1105" 
d="M227 1249q0 109 92 109h701q31 0 45 -10.5t10 -40.5l-4 -27l-711 -1280h-135l695 1249h-693z" />
    <glyph glyph-name="eight" unicode="8" horiz-adv-x="1105" 
d="M924 1070q0 83 -62.5 143.5t-182.5 60.5t-203 -70.5t-83 -214.5q0 -90 69 -155.5t177 -65.5t192 72q93 84 93 230zM795 586.5q-77 75.5 -201 75.5q-125 0 -227.5 -92t-102.5 -248q0 -111 73 -181.5t209 -70.5t231 86.5t95 220.5t-77 209.5zM455 719q-179 102 -179 275
t124 276.5t287 103.5t260 -89t97 -224q0 -194 -108.5 -261t-159.5 -85q106 -47 164.5 -128t58.5 -185q0 -203 -133.5 -318t-319.5 -115t-296.5 99t-110.5 254q0 222 127 299t189 98z" />
    <glyph glyph-name="nine" unicode="9" horiz-adv-x="1105" 
d="M905 914q0 185 -77 270.5t-198 85.5q-120 0 -213 -100.5t-98 -299.5q-2 -135 69 -217t198 -82t201.5 65.5t95.5 96.5q22 81 22 181zM272 76q223 0 373 136t215 378q-84 -90 -216 -115.5t-255 34t-174 205t9 336t186.5 257.5t224.5 67q181 0 287 -120.5t102 -311.5
q-4 -192 -49 -363t-138.5 -306.5t-235.5 -219.5t-339 -84q-68 0 -67 49q0 27 14 58h63z" />
    <glyph glyph-name="colon" unicode=":" horiz-adv-x="403" 
d="M190 178q70 0 80 -87q4 -40 -23 -81q-28 -41 -73 -41q-78 0 -90 78q-4 47 24 89t82 42zM313 952q71 0 81 -87q4 -40 -24 -81t-73 -41q-80 0 -90 78q-4 47 23 89q28 42 83 42z" />
    <glyph glyph-name="semicolon" unicode=";" horiz-adv-x="403" 
d="M82 51q0 57 29 90t69 33t62 -26q20 -26 20 -86t-43 -143t-104 -120q-31 -22 -56 -22q-55 0 -63 47q125 61 141 151q-55 19 -55 76zM313 952q71 0 81 -87q4 -40 -24 -81t-73 -41q-80 0 -90 78q-4 47 23 89q28 42 83 42z" />
    <glyph glyph-name="less" unicode="&#x3c;" horiz-adv-x="1105" 
d="M877 244l-660 370l14 93l779 360l-23 -129l-635 -283l541 -295z" />
    <glyph glyph-name="equal" unicode="=" horiz-adv-x="1105" 
d="M965 813h-715l18 105h715zM907 457h-714l18 104h715z" />
    <glyph glyph-name="greater" unicode="&#x3e;" horiz-adv-x="1105" 
d="M952 614l-778 -360l23 129l634 283l-540 295l16 116l660 -370z" />
    <glyph glyph-name="question" unicode="?" horiz-adv-x="825" 
d="M850 1100q0 -180 -105 -287t-155 -153q-104 -95 -147.5 -157.5t-43.5 -150.5q-10 -2 -11 -2h-17q-68 0 -68 75t55.5 143t117.5 130t106.5 106t94.5 111.5t50 174.5q0 106 -61.5 153t-151.5 47q-164 0 -268 -121h-21q-82 70 29.5 148t263.5 78q151 0 241.5 -78t90.5 -217z
M322 178q70 0 80 -87q4 -40 -24 -81t-73 -41q-81 0 -90 78q-4 47 23.5 89t83.5 42z" />
    <glyph glyph-name="at" unicode="@" horiz-adv-x="1714" 
d="M878 -336q184 0 347 86l18 -33q29 -56 -26 -90q-138 -73 -351 -73q-214 0 -348.5 68.5t-221.5 180t-130 253t-43 319.5t66.5 365.5t185.5 325.5t282.5 219t360.5 81q269 0 402.5 -126t187 -250t53.5 -261t-29.5 -259t-89 -222.5t-148.5 -165t-208 -64.5q-70 0 -111 30
t-51 108q-92 -141 -264 -142q-119 0 -186.5 90t-63.5 202q9 245 136 426t343 181q82 0 158 -26.5t115 -55.5l-119 -600q-6 -23 -6 -47q-5 -72 79 -72t147.5 63t120 193.5t56.5 300.5q0 303 -150 444.5t-356 141.5q-207 0 -353 -78.5t-242.5 -206.5t-144.5 -291t-48 -315
t34.5 -275.5t109.5 -217.5t189.5 -150.5t298.5 -56.5zM985 817q-147 0 -243.5 -140t-104.5 -345q-4 -92 39 -152.5t126 -61.5t149.5 59.5t90.5 182.5l86 420q-63 37 -143 37z" />
    <glyph glyph-name="A" unicode="A" horiz-adv-x="1081" 
d="M803 485l-125 713l-346 -713h471zM709 1374q52 0 61 -49l238 -1325h-121l-66 383h-542l-187 -383h-121l682 1360q29 14 56 14z" />
    <glyph glyph-name="B" unicode="B" horiz-adv-x="1067" 
d="M465 100q190 0 285.5 74t95.5 244q0 119 -85.5 178t-217.5 59h-209l-92 -555h223zM553 756q164 0 249 89t85 212t-62.5 175t-181.5 52t-207 -10l-86 -518h203zM977 430q0 -430 -524 -430h-344l227 1366q158 18 274 18q208 0 306 -79t98 -228t-81 -241t-185 -127
q74 -10 151.5 -85.5t77.5 -193.5z" />
    <glyph glyph-name="C" unicode="C" horiz-adv-x="1093" 
d="M616 -31q-237 0 -347.5 159.5t-110.5 399.5q0 160 43 315.5t127 277.5t209 198t290 76q210 0 322 -131q31 -37 31 -70t-56 -70h-18q-55 100 -131.5 132t-180.5 32t-201 -61.5t-202.5 -221.5t-105.5 -479q0 -195 87 -322.5t268 -127.5t345 157l25 -26q22 -23 22 -49
t-17 -43t-55 -45t-128.5 -64.5t-215.5 -36.5z" />
    <glyph glyph-name="D" unicode="D" horiz-adv-x="1206" 
d="M412 100q321 0 470.5 219t149.5 562q0 286 -141 343.5t-252 57.5h-62q-62 0 -137 -10l-194 -1172h166zM631 1384q285 0 406.5 -139.5t121.5 -349.5q0 -419 -192 -657t-564 -238h-294l225 1366q166 18 297 18z" />
    <glyph glyph-name="E" unicode="E" horiz-adv-x="925" 
d="M764 102q43 0 60.5 -16t17.5 -36v-18t-4 -32h-729l227 1370h690q0 -43 -17.5 -72.5t-70.5 -29.5h-496l-84 -500h433l-17 -102h-432l-94 -564h516z" />
    <glyph glyph-name="F" unicode="F" horiz-adv-x="878" 
d="M1026 1370q0 -43 -17.5 -72.5t-70.5 -29.5h-496l-86 -506h432l-16 -103h-432l-109 -659h-122l227 1370h690z" />
    <glyph glyph-name="G" unicode="G" horiz-adv-x="1232" 
d="M1180 1194q0 -33 -56 -70h-18q-55 100 -131.5 132t-180.5 32t-201 -61.5t-202.5 -221.5t-105.5 -479q0 -195 87 -322.5t269 -127.5t315 127l66 385h-287l19 102h405l-86 -514q-165 -207 -477 -207q-104 0 -192.5 46t-167 159.5t-78.5 353.5q0 160 43 315.5t127 277.5
t209 198t297 76q204 -1 324 -143q22 -26 22 -58z" />
    <glyph glyph-name="H" unicode="H" horiz-adv-x="1224" 
d="M370 1374q26 0 48 -23t22 -47t-2 -34l-84 -510h654l102 612q10 2 36 2t48.5 -23t22.5 -47t-3 -34l-210 -1270h-121l108 657h-653l-109 -657h-120l225 1372q10 2 36 2z" />
    <glyph glyph-name="I" unicode="I" horiz-adv-x="444" 
d="M372 1374q26 0 47 -24t21 -46t-2 -34l-209 -1270h-120l227 1372q10 2 36 2z" />
    <glyph glyph-name="J" unicode="J" horiz-adv-x="487" 
d="M419 1376q50 0 56 -50t-8 -124l-131 -811q-40 -245 -101 -336.5t-171 -91.5q-109 0 -113 76q0 14 8 35q119 0 167.5 44t74.5 193l176 1061q16 4 42 4z" />
    <glyph glyph-name="K" unicode="K" horiz-adv-x="1001" 
d="M372 1374q26 0 47 -24t21 -46t-2 -34l-209 -1270h-120l227 1372q10 2 36 2zM876 -18q-36 0 -62 13t-48 54l-385 662l8 51l567 561q50 51 98 51t79 -24l-623 -615l432 -743q-30 -10 -66 -10z" />
    <glyph glyph-name="L" unicode="L" horiz-adv-x="872" 
d="M735 102q78 0 78 -58q0 -26 -4 -44h-700l225 1372q10 2 36 2t48 -24t22 -46t-2 -34l-192 -1168h489z" />
    <glyph glyph-name="M" unicode="M" horiz-adv-x="1464" 
d="M1371 1374q36 0 52 -10l-127 -1364h-118l116 1169l-512 -841h-120l-228 821l-258 -1149h-117l314 1364q20 10 54 10t50.5 -14t26.5 -47l235 -867l521 863q25 41 50 53t61 12z" />
    <glyph glyph-name="N" unicode="N" horiz-adv-x="1245" 
d="M386 1374q53 0 77 -53l483 -1139l193 1190q9 2 35 2t46.5 -23t20.5 -47t-2 -34l-211 -1270h-117l-499 1163l-189 -1163h-114l225 1364q26 10 52 10z" />
    <glyph glyph-name="O" unicode="O" horiz-adv-x="1280" 
d="M606 -31q-142 0 -222.5 45t-153 152.5t-72.5 327.5q0 160 40 320.5t120.5 289.5t202 210t263.5 81t222.5 -45t153.5 -152t73 -328q0 -160 -40 -320.5t-121 -289.5t-202.5 -210t-263.5 -81zM1106 836q0 213 -76.5 333.5t-232.5 120.5q-121 0 -216.5 -67.5t-195.5 -236
t-100 -494.5q0 -287 109.5 -352.5t209.5 -65.5t197 66q96 67 163.5 178.5t104.5 256.5t37 261z" />
    <glyph glyph-name="P" unicode="P" horiz-adv-x="997" 
d="M512 659q209 0 305 96.5t96 282.5q0 119 -76.5 182.5t-224.5 63.5q-80 0 -172 -10l-102 -615h174zM604 1384q220 0 328 -97.5t108 -237.5q0 -256 -153 -374t-398 -118h-167l-93 -557h-116l227 1366q141 18 264 18z" />
    <glyph glyph-name="Q" unicode="Q" horiz-adv-x="1327" 
d="M1106 836q0 213 -76.5 333.5t-232.5 120.5q-121 0 -216.5 -67.5t-195.5 -236t-100 -494.5q0 -287 109.5 -352.5t209.5 -65.5t197 66q96 67 163.5 178.5t104.5 256.5t37 261zM1307 -18q0 -63 -49.5 -89t-110.5 -26q-164 0 -340 149q-104 -47 -223 -47q-220 0 -323 152.5
t-103 372.5q0 160 40 320.5t120.5 289.5t202 210t263.5 81t222.5 -45t153.5 -152t73 -328q0 -383 -125 -561t-209 -239q113 -76 252 -76q74 0 143 45q13 -22 13 -57z" />
    <glyph glyph-name="R" unicode="R" horiz-adv-x="1011" 
d="M893 1038q0 246 -297 246q-78 0 -160 -8l-96 -576h154q286 0 342.5 123t56.5 215zM840 -18q-38 0 -60 24.5t-39 65.5l-219 528h-198l-99 -600h-116l227 1368q317 40 422.5 2.5t183.5 -105.5t78 -206q0 -193 -101.5 -300.5t-271.5 -142.5l260 -622q-29 -12 -67 -12z" />
    <glyph glyph-name="S" unicode="S" horiz-adv-x="935" 
d="M109 201q125 -125 293 -125t248.5 78.5t80.5 201.5q0 169 -188.5 275t-267 191t-78.5 230q0 146 124 244.5t299 98.5q176 0 285 -103q29 -28 29 -62t-47 -65h-19q-91 125 -268 125q-118 0 -199.5 -65.5t-81.5 -171.5t59.5 -158.5t110 -83.5t103.5 -65q134 -86 202 -163
t68 -193q0 -212 -127 -316.5t-336 -104.5q-163 0 -286 80q-55 35 -55 75t51 77z" />
    <glyph glyph-name="T" unicode="T" horiz-adv-x="1013" 
d="M178 1268q0 43 17.5 72.5t70.5 29.5h891q0 -43 -17.5 -72.5t-70.5 -29.5h-350l-209 -1268h-121l209 1268h-420z" />
    <glyph glyph-name="U" unicode="U" horiz-adv-x="1163" 
d="M156 358q0 84 20 201l133 813q10 2 36 2t48.5 -24t22.5 -46t-2 -34l-121 -733q-12 -94 -12 -170q0 -145 70 -220t222 -75t243 106.5t126 323.5l143 870q10 2 36 2t47.5 -24t21.5 -46t-2 -34l-125 -756q-38 -250 -144.5 -397.5t-355.5 -147.5q-211 0 -309 101.5t-98 287.5
z" />
    <glyph glyph-name="V" unicode="V" horiz-adv-x="1071" 
d="M252 1374q63 0 80 -96l176 -1137l541 1155q35 78 101 78q43 0 62 -4l-665 -1370h-123l-231 1368q27 6 59 6z" />
    <glyph glyph-name="W" unicode="W" horiz-adv-x="1579" 
d="M972 1378q54 0 60 -73l86 -1063l416 999q27 61 50.5 99t62.5 38t67 -18l-600 -1370h-86l-88 1165l-516 -1165h-92l-105 1366q19 22 55 22t53 -30.5t21 -94.5l66 -1026l493 1137q35 14 57 14z" />
    <glyph glyph-name="X" unicode="X" horiz-adv-x="987" 
d="M838 -18q-34 0 -54 17t-36 60l-211 547l-422 -606h-133l501 717l-252 643q35 14 65 14q60 0 89 -78l186 -485l336 473q65 90 125 90q35 0 62 -14l-471 -658l280 -706q-31 -14 -65 -14z" />
    <glyph glyph-name="Y" unicode="Y" horiz-adv-x="940" 
d="M258 1374q61 0 86 -78l188 -585l371 573q35 53 59.5 71.5t58.5 18.5t60 -14l-503 -766l-99 -594h-121l97 586l-262 774q35 14 65 14z" />
    <glyph glyph-name="Z" unicode="Z" horiz-adv-x="952" 
d="M1024 1370q63 0 63 -42q0 -29 -20 -56q-534 -619 -928 -1170h664q43 0 60.5 -16t17.5 -36v-18q0 -18 -4 -32h-891l12 86q372 519 926 1182h-725q0 43 17 72.5t71 29.5h737z" />
    <glyph glyph-name="bracketleft" unicode="[" horiz-adv-x="509" 
d="M360 -279h-337l290 1747h336l-16 -98h-221l-254 -1550h219z" />
    <glyph glyph-name="backslash" unicode="\" horiz-adv-x="665" 
d="M229 1378q31 0 46.5 -15t25.5 -56l281 -1307h-117l-293 1364q26 14 57 14z" />
    <glyph glyph-name="bracketright" unicode="]" horiz-adv-x="509" 
d="M270 -279h-336l17 99h221l254 1550h-219l16 98h338z" />
    <glyph glyph-name="asciicircum" unicode="^" horiz-adv-x="827" 
d="M574.5 1395q45.5 0 56.5 -43l172 -717h-115l-139 606l-326 -606h-121l400 717q27 43 72.5 43z" />
    <glyph glyph-name="underscore" unicode="_" horiz-adv-x="854" 
d="M719 -295h-711v90h711v-90z" />
    <glyph glyph-name="grave" unicode="`" horiz-adv-x="696" 
d="M445 1065q-38 0 -60 29l-188 243q35 35 71 35t53 -10t35 -41l144 -234q-17 -22 -55 -22z" />
    <glyph glyph-name="a" unicode="a" horiz-adv-x="952" 
d="M788 129q0 -72 62 -72q27 0 51 9l8 -46q-59 -32 -119 -32t-89 34.5t-29 86.5v14q-47 -61 -116.5 -105.5t-147.5 -44.5q-147 0 -221 94.5t-74 228.5t34.5 250t100 211t161 155.5t233.5 60.5t267 -96l-114 -689q-7 -28 -7 -59zM233 310q0 -230 201 -230q77 0 163 69
t108 203l79 486q-71 39 -159 39q-165 0 -278.5 -168.5t-113.5 -398.5z" />
    <glyph glyph-name="b" unicode="b" horiz-adv-x="983" 
d="M641 973q146 0 221.5 -102.5t75.5 -274.5q0 -104 -35 -215t-102.5 -202t-170 -150.5t-212.5 -59.5t-178 24.5t-129 61.5l229 1399q10 2 36 2t47 -24t21 -46t-2 -34l-86 -525q55 63 131 104.5t154 41.5zM815 604q0 129 -47 195.5t-145 66.5t-190 -69t-116 -207l-81 -490
q58 -34 157 -34q186 0 304 161t118 377z" />
    <glyph glyph-name="c" unicode="c" horiz-adv-x="835" 
d="M815 741q-48 133 -202 133q-155 0 -263 -149t-108 -365q0 -133 58 -212.5t181 -79.5q70 0 127.5 28.5t114.5 98.5l29 -27q18 -18 18 -42t-17 -42t-51 -44t-99 -48.5t-131 -22.5q-148 0 -251.5 87t-103.5 294q0 277 152.5 450t349.5 173q95 0 156 -34t85 -69
q24 -34 24 -58t-9 -32t-19 -18l-25 -21h-16z" />
    <glyph glyph-name="d" unicode="d" horiz-adv-x="978" 
d="M817 129q0 -72 62 -72q27 0 51 9l8 -46q-59 -32 -119 -32t-89.5 34.5t-29.5 86.5v14q-55 -66 -134.5 -108t-157.5 -42q-149 0 -223 98t-74 275q0 104 33.5 215t98 202t160 150.5t218.5 59.5q59 0 115.5 -20.5t88.5 -43.5l88 545q10 2 36 2t47.5 -24t21.5 -46t-2 -34
l-193 -1164q-6 -36 -6 -59zM233 338q0 -129 47.5 -193.5t157.5 -64.5q146 0 214.5 97t80.5 175l78 465q-74 57 -177 57q-183 0 -292 -164.5t-109 -371.5z" />
    <glyph glyph-name="e" unicode="e" horiz-adv-x="884" 
d="M268 485h39q202 0 324.5 71t122.5 192q0 53 -29 91t-103 38t-165 -46.5t-162 -191.5q-33 -70 -47 -152q16 -2 20 -2zM479 68q162 0 269 133l26 -27q21 -20 21 -42t-13.5 -39t-52.5 -45q-110 -79 -264 -79q-233 0 -290.5 134.5t-57.5 262.5t45 244.5t116.5 196.5
t162.5 123t197 43t170 -59.5t64 -157.5q0 -174 -158.5 -264.5t-369.5 -90.5h-43q-43 0 -65 2v-43q0 -141 63 -216.5t180 -75.5z" />
    <glyph glyph-name="f" unicode="f" horiz-adv-x="622" 
d="M-102 -422q-74 0 -132 26t-59 64q0 24 14 41l23 29q70 -62 156 -62q159 0 202 283l183 1118q28 178 110 279q95 112 260 112q114 0 180 -46.5t66 -90.5q0 -23 -20 -41l-29 -24h-21q-55 104 -171 104q-172 0 -209 -112.5t-45 -159.5l-23 -142h322l-17 -96h-321l-148 -893
q-29 -181 -98 -285t-223 -104z" />
    <glyph glyph-name="g" unicode="g" horiz-adv-x="962" 
d="M111 346q0 104 35.5 215t102 202t162 150.5t207.5 59.5q178 0 314 -101l-144 -864q-79 -473 -469 -473q-147 0 -235 62q-29 23 -46.5 40t-17.5 40t21 44l29 31q57 -70 117.5 -94.5t140.5 -24.5q285 0 348 385l16 103q-122 -152 -277 -152t-229.5 100.5t-74.5 276.5z
M605 877q-69 0 -138.5 -47.5t-151.5 -166.5t-82 -325q0 -129 49.5 -195.5t159.5 -66.5q144 0 208.5 99t76.5 177l80 482q-43 29 -88 36t-114 7z" />
    <glyph glyph-name="h" unicode="h" horiz-adv-x="1005" 
d="M807 694q0 176 -166 176q-184 0 -247.5 -105.5t-76.5 -174.5l-98 -590h-119l240 1454q10 2 36 2t47 -24t21 -46t-2 -34l-86 -527q55 63 136.5 105.5t163.5 42.5q143 0 206.5 -77t63.5 -194q0 -70 -15 -145l-92 -557h-119l93 557q14 101 14 137z" />
    <glyph glyph-name="i" unicode="i" horiz-adv-x="415" 
d="M345 1114q-79 0 -79 80q0 41 24.5 75t65.5 34t59.5 -24.5t18.5 -60.5t-23 -70q-24 -34 -66 -34zM244 129q0 -72 61 -72q27 0 51 9l9 -46q-59 -32 -119 -32t-91.5 34.5t-31.5 86.5q0 23 3 43t7 49l125 755h10q37 0 64.5 -23t27.5 -49t-2 -40l-108 -656q-6 -37 -6 -59z" />
    <glyph glyph-name="j" unicode="j" horiz-adv-x="405" 
d="M345 1114q-79 0 -79 80q0 41 24.5 75t65.5 34t59.5 -24.5t18.5 -60.5t-23 -70q-24 -34 -66 -34zM-84 -465q-61 0 -61 74v18h18q139 0 168 90t37 138l180 1101h10q37 0 64.5 -23t27.5 -49t-2 -40l-159 -965q-33 -211 -121 -287q-63 -57 -162 -57z" />
    <glyph glyph-name="k" unicode="k" horiz-adv-x="864" 
d="M757 -12q-38 0 -63.5 13t-54.5 56l-281 449l9 51l348 328q71 71 131 71q26 0 45 -14l22 -16l-430 -394l267 -423q33 -52 60 -52t52 9l10 -46q-12 -10 -44.5 -21t-70.5 -11zM376 1456q26 0 47 -24t21 -46t-2 -34l-223 -1352h-119l240 1454q10 2 36 2z" />
    <glyph glyph-name="l" unicode="l" horiz-adv-x="415" 
d="M244 129q0 -72 61 -72q27 0 51 9l9 -46q-59 -32 -119 -32t-91.5 34.5t-31.5 86.5q0 23 3 43t7 49l207 1253q10 2 36 2t47 -23t21 -45t-2 -36l-192 -1164q-6 -36 -6 -59z" />
    <glyph glyph-name="m" unicode="m" horiz-adv-x="1544" 
d="M1346 694q0 80 -39 128t-101 48q-277 0 -317 -268l-98 -602h-119l92 557q29 172 0 232q-40 81 -140 81q-101 0 -191.5 -74t-115.5 -206l-98 -590h-119l158 956h10q37 0 61.5 -22.5t24.5 -49.5t-4 -65q55 66 138.5 110t169.5 44t146 -44t79 -116q55 66 133 113t174 47
t185 -43.5t89 -227.5q0 -63 -14 -145l-92 -557h-119l92 557q4 29 9.5 67t5.5 70z" />
    <glyph glyph-name="n" unicode="n" horiz-adv-x="1005" 
d="M807 694q0 176 -166 176q-184 0 -247.5 -105.5t-76.5 -174.5l-98 -590h-119l158 956h10q37 0 61.5 -22.5t24.5 -49.5t-4 -65q55 66 137.5 110t166.5 44q144 0 208 -77t64 -194q0 -70 -15 -145l-92 -557h-119l93 557q14 101 14 137z" />
    <glyph glyph-name="o" unicode="o" horiz-adv-x="987" 
d="M815 565q0 309 -219 309q-163 0 -260.5 -155t-97.5 -359t77 -248t149 -44t139 42t114 114.5t72.5 166.5t25.5 174zM460 -31q-184 0 -263.5 111.5t-79.5 246.5q0 134 32.5 245.5t95 200.5t155 144.5t196.5 55.5q177 0 259.5 -112t82.5 -246q0 -262 -125 -447
q-61 -88 -154 -143.5t-199 -55.5z" />
    <glyph glyph-name="p" unicode="p" horiz-adv-x="985" 
d="M395 66q176 0 297 160.5t121 377.5q0 123 -44 192.5t-145 69.5t-193 -69t-116 -207l-82 -486q69 -38 162 -38zM402 -31q-112 0 -183 45l-76 -460h-116l231 1402h10q84 0 84 -86v-14l-4 -37q55 66 133 110t157 44q151 0 224.5 -104.5t73.5 -249.5q0 -146 -41 -259.5
t-112.5 -199.5t-170 -138.5t-210.5 -52.5z" />
    <glyph glyph-name="q" unicode="q" horiz-adv-x="991" 
d="M649 877q-181 0 -297 -173.5t-116 -398.5t206 -225q81 0 177 71t118 201l80 486q-72 39 -168 39zM416 -27q-147 0 -225 87.5t-78 229.5q0 282 149.5 482.5t392.5 200.5q156 0 287 -96l-219 -1323h-119l92 561q-92 -99 -169.5 -120.5t-110.5 -21.5z" />
    <glyph glyph-name="r" unicode="r" horiz-adv-x="669" 
d="M614 973q61 0 105.5 -29t44.5 -62t-8 -45t-25 -26l-18 -14h-15q-18 47 -50 59t-62 12q-75 0 -160.5 -72t-108.5 -206l-98 -590h-119l158 956h10q37 0 61.5 -22.5t24.5 -49.5t-4 -65q122 154 264 154z" />
    <glyph glyph-name="s" unicode="s" horiz-adv-x="763" 
d="M465 877q-100 0 -143 -42.5t-43 -92.5t13 -76.5t37.5 -49t61.5 -45t89 -56.5q110 -72 148 -127t38 -129q0 -131 -87 -210.5t-248 -79.5t-221.5 50.5t-60.5 73.5t19 44l24 31q105 -100 235 -100t178 55.5t48 107.5t-16.5 79.5t-43.5 53.5t-94 69t-150 97.5t-83 196.5
q0 107 84 176.5t223 69.5t234 -86q57 -60 20 -101l-31 -26h-14q-82 117 -217 117z" />
    <glyph glyph-name="t" unicode="t" horiz-adv-x="602" 
d="M371 66q84 0 143 75l21 -18q20 -20 20 -44q0 -62 -74.5 -86t-128.5 -24q-104 0 -164.5 53.5t-60.5 157.5q0 38 10 115l158 954q9 2 35 2t45.5 -23.5t19.5 -45.5t-2 -35l-33 -191h289l-16 -96h-285l-92 -567q-10 -62 -10 -88q0 -78 35.5 -108.5t89.5 -30.5z" />
    <glyph glyph-name="u" unicode="u" horiz-adv-x="978" 
d="M813 129q0 -72 61 -72q27 0 52 9l8 -46q-59 -32 -119 -32t-89.5 34.5t-29.5 86.5v16q-55 -66 -125.5 -111t-187.5 -45t-184.5 70t-67.5 199q0 61 12 135l95 583h10q37 0 64.5 -23t27.5 -49t-6 -65l-74 -446q-10 -72 -10 -141q0 -68 40 -114t139 -46t187 76t111 206
l100 602h11q37 0 64.5 -23t27.5 -49t-6 -65l-105 -631q-6 -37 -6 -59z" />
    <glyph glyph-name="v" unicode="v" horiz-adv-x="829" 
d="M193 956q61 0 75 -106l115 -725l362 743q45 88 99 88q39 0 63 -14l-487 -950h-121l-168 952q32 12 62 12z" />
    <glyph glyph-name="w" unicode="w" horiz-adv-x="1275" 
d="M749 973q27 0 44.5 -16.5t25.5 -75.5l70 -703l241 586q52 127 73.5 157.5t37.5 41t42 10.5t44 -23l-424 -960h-88l-84 794l-325 -794h-84l-119 962q25 21 55 21q29 0 45 -25.5t23 -87.5l65 -672l307 770q24 15 51 15z" />
    <glyph glyph-name="x" unicode="x" horiz-adv-x="751" 
d="M638 -16q-36 0 -55.5 17t-33.5 52l-152 346l-260 -368q-35 -47 -71 -47t-72 26l356 488l-207 448q21 10 57 10t55 -15t36 -54l137 -312l242 334q35 47 71 47t72 -26l-338 -449l219 -489q-20 -8 -56 -8z" />
    <glyph glyph-name="y" unicode="y" horiz-adv-x="837" 
d="M55 -367q60 0 99 50.5t92 158.5l73 150h-20l-168 952q31 12 63 12t50 -22.5t26 -83.5l113 -729l362 747q45 88 99 88q37 0 61 -14l-573 -1151q-68 -134 -125.5 -195t-144.5 -61q-88 0 -119 31t-31 50t10 36l27 35q46 -54 106 -54z" />
    <glyph glyph-name="z" unicode="z" horiz-adv-x="763" 
d="M618 102q78 0 78 -58q0 -26 -4 -44h-678l13 78q245 341 632 778h-503q0 43 17 71.5t71 28.5h514q55 0 55 -49q0 -18 -4 -37q-432 -486 -641 -768h450z" />
    <glyph glyph-name="braceleft" unicode="{" horiz-adv-x="628" 
d="M268 412q0 159 -100 159l18 109q135 0 168 217l47 289q33 192 125 237t146 45t79 -10t24 -39t-21 -55q-23 10 -54 10q-68 0 -118 -44t-64 -140l-47 -285q-18 -114 -44 -163.5t-56.5 -76t-77.5 -44.5q59 -16 73.5 -71.5t14.5 -115.5t-8 -119l-51 -319q-5 -35 -5 -49
q0 -82 36.5 -108.5t80.5 -26.5t68 6q10 -25 10 -43q0 -62 -96 -62q-215 0 -215 219q0 33 6 68l55 330q6 43 6 82z" />
    <glyph glyph-name="bar" unicode="|" horiz-adv-x="444" 
d="M168 -385h-113l322 2011h112z" />
    <glyph glyph-name="braceright" unicode="}" horiz-adv-x="628" 
d="M36 -285q-54 0 -78 10.5t-22 39.5t21 55q23 -10 53 -10q68 0 117.5 43.5t65.5 140.5l47 285q18 117 43.5 165t56.5 74.5t78 44.5q-59 16 -73.5 71.5t-14.5 116.5t8 117l51 320q4 28 4 49q0 82 -35.5 108.5t-79.5 26.5t-69 -6q-10 25 -10 43q0 61 96 61q215 0 215 -219
q0 -35 -6 -67l-55 -330q-6 -43 -7 -82q0 -160 101 -160l-19 -108q-133 0 -168 -217l-47 -289q-33 -192 -126 -237.5t-147 -45.5z" />
    <glyph glyph-name="asciitilde" unicode="~" horiz-adv-x="847" 
d="M401 1251q-120 0 -159 -155h-97q35 139 104.5 195.5t170.5 56.5t192 -86q33 -29 65 -52.5t78 -23.5t87 33.5t63 121.5h96q-35 -139 -104.5 -195t-175.5 -56q-63 0 -108.5 29.5t-79.5 59.5t-63.5 51t-68.5 21z" />
    <glyph glyph-name="uni00A0" unicode="&#xa0;" horiz-adv-x="370" 
 />
    <glyph glyph-name="exclamdown" unicode="&#xa1;" horiz-adv-x="421" 
d="M311 969q73 0 83 -85q4 -40 -24 -82t-73 -42q-80 0 -90 80q-4 47 23.5 88t80.5 41zM110 -436q-26 0 -47.5 23t-21.5 43v15q0 15 2 23l156 942q11 4 37 4t46.5 -23t20.5 -43v-15q0 -15 -2 -23l-156 -944q-9 -2 -35 -2z" />
    <glyph glyph-name="cent" unicode="&#xa2;" horiz-adv-x="1105" 
d="M379 578q0 -102 41 -175t123 -100l125 754q-122 -33 -205.5 -159.5t-83.5 -319.5zM526 203q-274 53 -274 391q0 112 37 215.5t126 213.5t269 136l33 197h104l-33 -193q147 -14 218 -110q18 -27 18 -49t-9 -30.5t-20 -19.5l-24 -20h-15q-45 119 -184 131l-127 -772
q132 8 227 127l29 -27q19 -18 19 -43t-17.5 -42t-50.5 -42t-94.5 -46t-128.5 -25l-35 -213h-105z" />
    <glyph glyph-name="sterling" unicode="&#xa3;" horiz-adv-x="1105" 
d="M889 102q43 0 60.5 -16t17.5 -36v-18t-4 -32h-730l101 604h-144l17 103h143l47 282q29 179 130 280t257 101t237 -60.5t81 -111.5q0 -23 -21 -41l-30 -27h-21q-43 78 -96.5 107t-123.5 29q-120 0 -194 -62q-73 -62 -98 -203l-49 -294h444l-16 -103h-446l-82 -502h520z
" />
    <glyph glyph-name="currency" unicode="&#xa4;" horiz-adv-x="1105" 
d="M600.5 358q147.5 0 222 91.5t74.5 233.5t-74.5 233.5t-222 91.5t-223.5 -91.5t-76 -233.5t76 -233.5t223.5 -91.5zM184 684q0 151 88 264l-102 99l80 79l102 -102q111 82 250 82t250 -86l106 106l80 -79l-106 -105q82 -111 82 -258t-80 -256l104 -104l-80 -78l-104 102
q-114 -88 -254 -88q-141 0 -250 84l-100 -98l-80 78l100 98q-86 111 -86 262z" />
    <glyph glyph-name="yen" unicode="&#xa5;" horiz-adv-x="1105" 
d="M324 1374q30 0 48.5 -17.5t33.5 -60.5l184 -587l364 575q35 53 59.5 71.5t58.5 18.5t61 -14l-439 -676h232l-17 -94h-284l-29 -184h285l-17 -95h-284l-52 -311h-116l51 311h-281l17 95h280l29 184h-281l17 94h237l-221 676q34 14 64 14z" />
    <glyph glyph-name="brokenbar" unicode="&#xa6;" horiz-adv-x="444" 
d="M168 -385h-113l131 825h113zM369 858h-109l117 768h112z" />
    <glyph glyph-name="section" unicode="&#xa7;" horiz-adv-x="948" 
d="M739 567q0 70 -49 112t-136 83t-132 72q-63 -29 -107.5 -72t-44.5 -119t50.5 -119t141.5 -88t136 -78q141 74 141 209zM602 96q0 94 -50 142.5t-131 87.5q-148 71 -212 134t-64 171q0 186 201 272q-53 69 -53 164q0 164 100.5 246t235.5 82t210.5 -54.5t75.5 -94.5
t-47 -77h-22q-65 127 -219 127q-100 0 -156.5 -56t-56.5 -148t42.5 -131.5t129.5 -81.5q153 -74 216.5 -136t63.5 -165q0 -200 -194 -295q51 -71 51 -166q0 -166 -104 -248t-238 -82t-209.5 54.5t-75.5 94.5t47 76h23q65 -127 219 -127q98 0 157.5 58.5t59.5 152.5z" />
    <glyph glyph-name="dieresis" unicode="&#xa8;" horiz-adv-x="696" 
d="M532 1288q62 0 72 -74q4 -34 -20 -70q-25 -36 -67 -36q-72 0 -81 66q-4 43 20.5 78.5t75.5 35.5zM186 1288q62 0 72 -74q4 -34 -20 -70q-25 -36 -67 -36q-72 0 -81 66q-4 43 20.5 78.5t75.5 35.5z" />
    <glyph glyph-name="copyright" unicode="&#xa9;" horiz-adv-x="1556" 
d="M1094 928q-89 121 -238 121t-220 -99.5t-71 -253.5q0 -243 103.5 -297.5t197.5 -54.5t168 55q39 25 62 58q45 -38 45 -63t-35 -60q-33 -29 -99.5 -58.5t-142.5 -29.5q-169 0 -293.5 100.5t-124.5 349.5q0 137 45.5 225.5t109 138.5t131.5 68.5t140 18.5t136.5 -26.5
t99.5 -56.5t35 -55t-31 -81h-18zM1397 686q0 121 -38 231.5t-110.5 194.5t-178 134t-241 50t-241 -50t-178 -134t-110.5 -194.5t-38 -231.5t38 -232.5t110.5 -196.5t178 -136t241 -51t240.5 51t178 136t111 196.5t38 232.5zM827.5 -31q-157.5 0 -283.5 57.5t-259 206.5
t-133 452t133 450t259 203.5t283.5 56.5t283.5 -56.5t259 -203.5t133 -451t-180 -504q-86 -96 -212 -153.5t-283.5 -57.5z" />
    <glyph glyph-name="ordfeminine" unicode="&#xaa;" horiz-adv-x="886" 
d="M774 717q35 0 49 6l6 -45q-45 -27 -92 -27q-100 0 -100 101v10q-35 -47 -94.5 -84t-120.5 -37q-121 0 -178.5 73.5t-57.5 175.5q0 202 111 353.5t295 151.5q120 0 231 -74l-86 -506q-6 -35 -1.5 -66.5t38.5 -31.5zM578 1305q-117 0 -199 -114t-82 -286q0 -78 38 -125
t103 -47t130.5 56.5t84.5 158.5l54 330q-67 27 -129 27z" />
    <glyph glyph-name="guillemotleft" unicode="&#xab;" horiz-adv-x="858" 
d="M780 287q0 -29 -11 -46t-28 -36l-204 266q-16 23 -30 43q-13 20 -13 53t25 59q26 26 56 52l277 235q18 -29 18 -63t-36 -70l-226 -215l152 -223q20 -26 20 -55zM465 286q0 -28 -11 -45t-28 -36l-205 266q-16 23 -30 43q-13 20 -13 53t26 59t56 52l277 235q18 -29 18 -63
t-37 -70l-225 -215l151 -223q21 -28 21 -56z" />
    <glyph glyph-name="logicalnot" unicode="&#xac;" horiz-adv-x="1105" 
d="M938 387h-117l60 371h-672l16 104h789z" />
    <glyph glyph-name="uni00AD" unicode="&#xad;" horiz-adv-x="827" 
d="M252 496q-82 0 -82 60q0 26 6 46h463q45 0 69 -23t7 -83h-463z" />
    <glyph glyph-name="registered" unicode="&#xae;" horiz-adv-x="1556" 
d="M1397 686q0 121 -38 231.5t-110.5 194.5t-178 134t-241 50t-241 -50t-178 -134t-110.5 -194.5t-38 -231.5t38 -232.5t110.5 -196.5t178 -136t241 -51t240.5 51t178 136t111 196.5t38 232.5zM827.5 -31q-157.5 0 -283.5 57.5t-259 206.5t-133 452t133 450t259 203.5
t283.5 56.5t283.5 -56.5t259 -203.5t133 -451t-180 -504q-86 -96 -212 -153.5t-283.5 -57.5zM827 1036q-57 0 -143 -6v-323h156q197 0 196 170q0 159 -209 159zM848 1122q141 0 215 -67.5t74 -173.5t-62.5 -171.5t-148.5 -78.5l219 -369q-14 -8 -45 -8q-59 0 -92 55
l-187 312h-137v-359h-96v852q119 8 260 8z" />
    <glyph glyph-name="macron" unicode="&#xaf;" horiz-adv-x="696" 
d="M150 1143q-78 0 -78 56q0 26 6 44h469q75 0 77 -57q0 -27 -6 -43h-468z" />
    <glyph glyph-name="degree" unicode="&#xb0;" horiz-adv-x="696" 
d="M252.5 969.5q-66.5 72.5 -66.5 185.5t70.5 188.5t179.5 75.5t175.5 -72.5t66.5 -185.5t-71 -188.5t-179 -75.5q-109 0 -175.5 72.5zM432.5 987q63.5 0 101 49t37.5 122t-37.5 122t-101 49t-101.5 -49t-38 -122t38 -122t101.5 -49z" />
    <glyph glyph-name="plusminus" unicode="&#xb1;" horiz-adv-x="1105" 
d="M821 -2h-698l18 104h699zM936 639h-301l-55 -326h-109l53 326h-303l19 104h301l55 328h109l-54 -328h303z" />
    <glyph glyph-name="twosuperior" unicode="&#xb2;" 
d="M532 731q60 1 60 -39v-16q0 -17 -4 -33h-465l8 80q226 175 313.5 286t87.5 187q0 113 -108 113q-88 0 -152 -82h-22q-29 25 -29 47t27 49t80 50.5t102 23.5q104 0 153.5 -53.5t49.5 -123.5q0 -113 -69 -207.5t-164 -177.5t-119 -104h251z" />
    <glyph glyph-name="threesuperior" unicode="&#xb3;" 
d="M180 807q67 -88 163 -88t124.5 52.5t28.5 106.5t-31 81.5t-76 27.5h-57l10 86h51q91 0 119.5 49t28.5 89t-26 67t-83 27q-86 0 -153 -82h-23q-31 24 -31 47q0 22 28 50t77 51.5t108 23.5q100 0 151.5 -52.5t51.5 -128.5q0 -113 -135 -184q47 -23 71.5 -67.5t24.5 -90.5
q0 -102 -66.5 -172.5t-192.5 -70.5t-193 67q-54 54 30 111z" />
    <glyph glyph-name="acute" unicode="&#xb4;" horiz-adv-x="696" 
d="M295 1094q-29 -29 -71 -29t-58 22l184 226q47 59 97 59t83 -35z" />
    <glyph glyph-name="mu" unicode="&#xb5;" horiz-adv-x="1003" 
d="M821 129q0 -72 62 -72q27 0 51 9l8 -46q-59 -32 -119 -32t-89 34.5t-29 86.5v6q-55 -66 -125 -106t-165 -40q-142 0 -202 103l-76 -459h-119l220 1343h10q37 0 64.5 -22.5t27.5 -63.5l-6 -51l-76 -457q-10 -72 -10 -137t49 -109t121 -44q126 0 211.5 87.5t109.5 223.5
l97 573h10q37 0 64.5 -22.5t27.5 -63.5l-6 -51l-105 -631q-6 -24 -6 -59z" />
    <glyph glyph-name="paragraph" unicode="&#xb6;" horiz-adv-x="1040" 
d="M637 1272q-342 0 -342 -371q0 -113 57.5 -184.5t179.5 -71.5h19l104 627h-18zM512 543q-156 0 -249 93.5t-93 239.5q0 256 135 377t340 121h330q41 0 56.5 -20.5t15.5 -39.5t-5 -40l-247 -1516h-119l250 1514h-154l-250 -1514h-119l132 785h-23z" />
    <glyph glyph-name="periodcentered" unicode="&#xb7;" horiz-adv-x="454" 
d="M283 745q61 1 71 -77q4 -34 -20 -73q-25 -38 -67 -38q-71 0 -81 70q-4 43 20.5 80.5t76.5 37.5z" />
    <glyph glyph-name="cedilla" unicode="&#xb8;" horiz-adv-x="696" 
d="M408 -96q0 -19 31.5 -69.5t31.5 -95.5q0 -84 -61.5 -124.5t-139.5 -40.5q-45 0 -45 45q0 20 15 49q15 -6 36 -6q96 0 97 72q0 24 -21.5 52t-31 44t-9.5 39q0 73 72 129l80 -4q-55 -38 -55 -90z" />
    <glyph glyph-name="onesuperior" unicode="&#xb9;" 
d="M219 1197q0 25 11.5 36.5t31.5 21.5l219 127q28 17 60 17q31 0 49 -17l-123 -739h-107l103 623l-223 -123q-21 29 -21 54z" />
    <glyph glyph-name="ordmasculine" unicode="&#xba;" horiz-adv-x="843" 
d="M681 1243.5q-40 61.5 -110 61.5q-127 0 -199.5 -110t-72.5 -263q0 -88 40 -144.5t124 -56.5q112 0 166.5 82t73 149.5t18.5 143.5t-40 137.5zM461 641q-144 0 -209.5 84t-65.5 185q0 198 106 341.5t283 143.5q124 0 192.5 -84.5t68.5 -184.5q0 -197 -99 -335
q-49 -66 -121.5 -108t-154.5 -42z" />
    <glyph glyph-name="guillemotright" unicode="&#xbb;" horiz-adv-x="858" 
d="M492 834q0 29 11 46t27 35l205 -266q15 -23 29 -43t14 -53t-26 -59t-56 -52l-276 -235q-45 72 18 135l226 215l-152 221q-20 27 -20 56zM86 270q0 34 37 72l225 215l-151 221q-21 28 -21 62t39 75l205 -266q16 -23 30 -43t13 -53q0 -33 -26 -59t-56 -52l-277 -235
q-18 29 -18 63z" />
    <glyph glyph-name="onequarter" unicode="&#xbc;" horiz-adv-x="1658" 
d="M219 1197q0 25 11 37t32 21l219 127q28 17 60 17q31 0 49 -17l-123 -739h-107l103 623l-223 -123q-21 29 -21 54zM510 0h-123l850 1319q27 41 51 58q25 17 60 17t57 -14zM1460 240q54 0 56 -47v-13q0 -8 -5 -22h-86l-24 -156h-96l26 156h-330l9 67l407 506q19 27 54 27
t53 -13l-84 -505h20zM1343 240l58 344l-279 -344h221z" />
    <glyph glyph-name="onehalf" unicode="&#xbd;" horiz-adv-x="1658" 
d="M219 1197q0 25 11 37t32 21l219 127q28 17 60 17q31 0 49 -17l-123 -739h-107l103 623l-223 -123q-21 29 -21 54zM444 0h-122l849 1319q49 74 111 76q35 0 57 -15zM1407 90q59 0 59 -40v-23q0 -8 -4 -25h-465l9 80q221 171 347 329q54 69 54 144q0 113 -109 113
q-87 0 -151 -82h-23q-51 44 -13 84q38 38 91 62t103 24q104 0 153 -54t49 -124q0 -115 -76 -218t-276 -270h252z" />
    <glyph glyph-name="threequarters" unicode="&#xbe;" horiz-adv-x="1658" 
d="M389 987h-57l10 86h51q53 1 85 23q61 43 63 114q0 41 -26 68t-83 27q-86 0 -153 -82h-23q-31 24 -31 47q0 22 28 50t77 52t108 23q100 -1 152 -53t51 -128q0 -113 -135 -184q47 -24 72 -68t24 -90q0 -102 -66 -173t-193 -71q-126 0 -193 68q-55 55 30 111q68 -90 160 -88
q65 -1 95 23q59 46 60 118t-30 100t-76 27zM508 0h-123l850 1319q27 41 51 58q25 17 60 17t57 -14zM1460 240q54 0 56 -47v-13q0 -8 -5 -22h-86l-24 -156h-96l26 156h-330l9 67l407 506q19 27 54 27t53 -13l-84 -505h20zM1343 240l58 344l-279 -344h221z" />
    <glyph glyph-name="questiondown" unicode="&#xbf;" horiz-adv-x="825" 
d="M383 -453q-153 0 -243.5 78t-90.5 217q0 179 104.5 286.5t154.5 153.5q103 94 147.5 157t44.5 151q10 2 12 2h16q68 0 68 -75t-55.5 -144t-117.5 -131t-156.5 -153.5t-94.5 -236.5q0 -106 61.5 -153t151.5 -47q164 0 268 121h21q80 -68 -29 -147t-262 -79zM602 973
q74 0 82 -85q4 -40 -24 -82t-72 -42q-80 0 -90 80q-4 47 23.5 88t80.5 41z" />
    <glyph glyph-name="Agrave" unicode="&#xc0;" horiz-adv-x="1081" 
d="M803 485l-125 713l-346 -713h471zM709 1374q52 0 61 -49l238 -1325h-121l-66 383h-542l-187 -383h-121l682 1360q29 14 56 14zM487 1667q29 47 95 47q36 0 77 -41l185 -178q-29 -33 -63 -33t-62 21z" />
    <glyph glyph-name="Aacute" unicode="&#xc1;" horiz-adv-x="1081" 
d="M803 485l-125 713l-346 -713h471zM709 1374q52 0 61 -49l238 -1325h-121l-66 383h-542l-187 -383h-121l682 1360q29 14 56 14zM885 1714q35 0 57 -19t29 -38l-279 -174q-34 -21 -72 -21t-57 33l230 178q57 41 92 41z" />
    <glyph glyph-name="Acircumflex" unicode="&#xc2;" horiz-adv-x="1081" 
d="M803 485l-125 713l-346 -713h471zM709 1374q52 0 61 -49l238 -1325h-121l-66 383h-542l-187 -383h-121l682 1360q29 14 56 14zM886 1462q-24 0 -38 9q-12 9 -25 28l-92 127l-127 -121q-54 -54 -110 -34q-14 5 -25 16l178 186q27 27 45 41t51 14t51 -16q18 -18 35 -47
l115 -186q-34 -17 -58 -17z" />
    <glyph glyph-name="Atilde" unicode="&#xc3;" horiz-adv-x="1081" 
d="M803 485l-125 713l-346 -713h471zM709 1374q52 0 61 -49l238 -1325h-121l-66 383h-542l-187 -383h-121l682 1360q29 14 56 14zM817 1505q-31 1 -57 13t-79 38q-52 26 -86 25q-34 0 -67 -13t-65 -75q-37 16 -43 47q-6 30 16 60q61 80 178 79q51 -1 99 -27q47 -26 71 -38
t52 -12q79 -2 137 106q41 -16 46 -47t-15 -63t-61 -62q-40 -31 -126 -31z" />
    <glyph glyph-name="Adieresis" unicode="&#xc4;" horiz-adv-x="1081" 
d="M803 485l-125 713l-346 -713h471zM709 1374q52 0 61 -49l238 -1325h-121l-66 383h-542l-187 -383h-121l682 1360q29 14 56 14zM909 1706q62 0 72 -73q5 -35 -20 -71t-67 -36q-70 0 -81 65q-4 43 21 79t75 36zM563 1706q61 0 71 -73q4 -35 -20 -71t-66 -36q-72 0 -81 65
q-4 43 20 79q25 36 76 36z" />
    <glyph glyph-name="Aring" unicode="&#xc5;" horiz-adv-x="1081" 
d="M712 1399q56 0 89 41t33 95t-34 95t-88 41t-88 -41t-34 -94t33 -95t89 -42zM803 485l-125 713l-346 -713h471zM502 1544q0 82 56 144.5t154.5 62.5t154 -63.5t55.5 -144.5t-40 -139t-112 -77v-2l238 -1325h-121l-66 383h-542l-187 -383h-121l668 1331q-137 48 -137 213z
" />
    <glyph glyph-name="AE" unicode="&#xc6;" horiz-adv-x="1599" 
d="M864 496l131 780l-528 -780h397zM1425 102q43 0 60.5 -16t17.5 -36v-18t-4 -32h-717l66 393h-451l-266 -393h-131l891 1288q23 33 52.5 57.5t76.5 24.5h668q0 -43 -17.5 -72.5t-71.5 -29.5h-483l-84 -500h420l-16 -102h-420l-94 -564h503z" />
    <glyph glyph-name="Ccedilla" unicode="&#xc7;" horiz-adv-x="1093" 
d="M618 -90q0 -25 10.5 -41t32 -50.5t21.5 -79.5q0 -84 -61.5 -124.5t-139.5 -40.5q-45 0 -45 45q0 20 15 49q15 -6 36 -6q96 0 97 72q0 24 -21.5 52t-31 44t-9.5 39q0 54 43 102q-211 19 -309 173.5t-98 383.5q0 160 43 315.5t127 277.5t209 198t290 76q210 0 322 -131
q31 -37 31 -70t-56 -70h-18q-55 100 -131.5 132t-180.5 32t-201 -61.5t-202.5 -221.5t-105.5 -479q0 -195 87 -322.5t268 -127.5t345 157l25 -26q22 -23 22 -49t-16 -43t-54 -45t-120 -62.5t-195 -38.5q-29 -34 -29 -59z" />
    <glyph glyph-name="Egrave" unicode="&#xc8;" horiz-adv-x="925" 
d="M764 102q43 0 60 -16q18 -16 18 -36v-27q0 -8 -4 -23h-729l227 1370h690q0 -43 -17 -73t-71 -29h-496l-84 -500h433l-17 -102h-432l-94 -564h516zM469 1667q29 47 95 47q36 0 77 -41l184 -178q-29 -33 -63 -33t-62 21z" />
    <glyph glyph-name="Eacute" unicode="&#xc9;" horiz-adv-x="925" 
d="M764 102q43 0 60 -16q18 -16 18 -36v-27q0 -8 -4 -23h-729l227 1370h690q0 -43 -17 -73t-71 -29h-496l-84 -500h433l-17 -102h-432l-94 -564h516zM860 1714q34 0 56 -19t30 -38l-278 -174q-33 -21 -72 -21t-57 33l229 178q57 41 92 41z" />
    <glyph glyph-name="Ecircumflex" unicode="&#xca;" horiz-adv-x="925" 
d="M764 102q43 0 60 -16q18 -16 18 -36v-27q0 -8 -4 -23h-729l227 1370h690q0 -43 -17 -73t-71 -29h-496l-84 -500h433l-17 -102h-432l-94 -564h516zM875 1462q-25 0 -37 9t-25 28l-92 127l-127 -121q-53 -53 -111 -34q-14 5 -24 16l178 186q27 27 45 41t51 14t51 -16
q18 -18 35 -47l115 -186q-34 -17 -59 -17z" />
    <glyph glyph-name="Edieresis" unicode="&#xcb;" horiz-adv-x="925" 
d="M764 102q43 0 60 -16q18 -16 18 -36v-27q0 -8 -4 -23h-729l227 1370h690q0 -43 -17 -73t-71 -29h-496l-84 -500h433l-17 -102h-432l-94 -564h516zM891 1706q61 0 71 -73q4 -35 -20 -71q-25 -36 -67 -36q-71 0 -80 65q-4 43 20 79q25 36 76 36zM545 1706q61 0 71 -73
q4 -35 -20 -71q-25 -36 -67 -36q-71 0 -80 65q-4 43 20 79q25 36 76 36z" />
    <glyph glyph-name="Igrave" unicode="&#xcc;" horiz-adv-x="444" 
d="M372 1374q26 0 50 -26q25 -26 16 -78l-209 -1270h-120l227 1372q10 2 36 2zM166 1667q28 47 94 47q36 0 78 -41l184 -178q-29 -33 -63 -33t-62 21z" />
    <glyph glyph-name="Iacute" unicode="&#xcd;" horiz-adv-x="444" 
d="M372 1374q26 0 50 -26q25 -26 16 -78l-209 -1270h-120l227 1372q10 2 36 2zM606 1714q35 0 57 -19t29 -38l-278 -174q-33 -21 -72 -21t-57 33l229 178q57 41 92 41z" />
    <glyph glyph-name="Icircumflex" unicode="&#xce;" horiz-adv-x="444" 
d="M372 1374q26 0 50 -26q25 -26 16 -78l-209 -1270h-120l227 1372q10 2 36 2zM572 1462q-25 0 -37 9t-25 28l-92 127l-127 -121q-53 -53 -111 -34q-14 5 -24 16l178 186q27 27 45 41t51 14t51 -16q18 -18 35 -47l115 -186q-34 -17 -59 -17z" />
    <glyph glyph-name="Idieresis" unicode="&#xcf;" horiz-adv-x="444" 
d="M372 1374q26 0 50 -26q25 -26 16 -78l-209 -1270h-120l227 1372q10 2 36 2zM590 1706q62 0 72 -73q4 -35 -21 -71t-67 -36q-71 0 -80 65q-4 43 20 79q25 36 76 36zM244 1706q62 0 72 -73q4 -35 -21 -71t-67 -36q-70 0 -81 65q-4 43 21 79t76 36z" />
    <glyph glyph-name="Eth" unicode="&#xd0;" horiz-adv-x="1206" 
d="M412 100q321 0 470.5 219t149.5 562q0 286 -141 343.5t-252 57.5h-62q-62 0 -137 -10l-86 -512h353l-17 -98h-352l-92 -562h166zM631 1384q285 0 406.5 -139.5t121.5 -349.5q0 -419 -192 -657t-564 -238h-294l108 662h-123l17 98h122l101 606q166 18 297 18z" />
    <glyph glyph-name="Ntilde" unicode="&#xd1;" horiz-adv-x="1245" 
d="M386 1374q51 0 77 -53l483 -1139l193 1190q9 2 35 2t47 -23q20 -23 20 -47t-2 -34l-211 -1270h-117l-499 1163l-189 -1163h-114l225 1364q26 10 52 10zM897 1505q-31 1 -57 13t-54 25q-26 13 -54 25t-60 13q-32 0 -64 -13q-33 -13 -65 -75q-37 16 -43 47q-6 30 16 60
q61 80 178 79q51 -1 99 -27q47 -26 71 -38t51 -12q80 -2 138 106q41 -16 46 -47q9 -57 -76 -125q-40 -31 -126 -31z" />
    <glyph glyph-name="Ograve" unicode="&#xd2;" horiz-adv-x="1280" 
d="M606 -31q-141 0 -222 45t-131 119q-97 144 -95 361q0 160 40 320q85 342 323 500q121 81 263 81t223 -45q226 -126 226 -510q0 -130 -40 -290t-121 -290q-81 -129 -203 -210t-263 -81zM1106 835q0 319 -167 420q-59 35 -161 35t-197 -68q-189 -134 -262 -432
q-61 -250 -18 -454q33 -158 145 -227q57 -35 158 -35t197 66q193 135 268 434q37 144 37 261zM604 1667q28 47 94 47q36 0 78 -41l185 -178q-29 -33 -64 -33t-61 21z" />
    <glyph glyph-name="Oacute" unicode="&#xd3;" horiz-adv-x="1280" 
d="M606 -31q-141 0 -222 45t-131 119q-97 144 -95 361q0 160 40 320q85 342 323 500q121 81 263 81t223 -45q226 -126 226 -510q0 -130 -40 -290t-121 -290q-81 -129 -203 -210t-263 -81zM1106 835q0 319 -167 420q-59 35 -161 35t-197 -68q-189 -134 -262 -432
q-61 -250 -18 -454q33 -158 145 -227q57 -35 158 -35t197 66q193 135 268 434q37 144 37 261zM1032 1714q35 0 57 -19t29 -38l-278 -174q-33 -21 -72 -21t-57 33l229 178q57 41 92 41z" />
    <glyph glyph-name="Ocircumflex" unicode="&#xd4;" horiz-adv-x="1280" 
d="M606 -31q-141 0 -222 45t-131 119q-97 144 -95 361q0 160 40 320q85 342 323 500q121 81 263 81t223 -45q226 -126 226 -510q0 -130 -40 -290t-121 -290q-81 -129 -203 -210t-263 -81zM1106 835q0 319 -167 420q-59 35 -161 35t-197 -68q-189 -134 -262 -432
q-61 -250 -18 -454q33 -158 145 -227q57 -35 158 -35t197 66q193 135 268 434q37 144 37 261zM1002 1462q-25 0 -37 9t-25 28l-92 127l-127 -121q-53 -53 -111 -34q-14 5 -24 16l178 186q27 27 45 41t51 14t51 -16q18 -18 35 -47l115 -186q-34 -17 -59 -17z" />
    <glyph glyph-name="Otilde" unicode="&#xd5;" horiz-adv-x="1280" 
d="M606 -31q-141 0 -222 45t-131 119q-97 144 -95 361q0 160 40 320q85 342 323 500q121 81 263 81t223 -45q226 -126 226 -510q0 -130 -40 -290t-121 -290q-81 -129 -203 -210t-263 -81zM1106 835q0 319 -167 420q-59 35 -161 35t-197 -68q-189 -134 -262 -432
q-61 -250 -18 -454q33 -158 145 -227q57 -35 158 -35t197 66q193 135 268 434q37 144 37 261zM936 1505q-32 1 -58 13t-53 25t-55 25t-58 13q-32 0 -65 -13t-65 -75q-37 16 -43 47q-11 59 79 115q42 25 96 25t83 -13t77 -39t80 -26q80 -2 138 106q41 -16 46 -47
q9 -57 -76 -125q-40 -31 -126 -31z" />
    <glyph glyph-name="Odieresis" unicode="&#xd6;" horiz-adv-x="1280" 
d="M606 -31q-141 0 -222 45t-131 119q-97 144 -95 361q0 160 40 320q85 342 323 500q121 81 263 81t223 -45q226 -126 226 -510q0 -130 -40 -290t-121 -290q-81 -129 -203 -210t-263 -81zM1106 835q0 319 -167 420q-59 35 -161 35t-197 -68q-189 -134 -262 -432
q-61 -250 -18 -454q33 -158 145 -227q57 -35 158 -35t197 66q193 135 268 434q37 144 37 261zM1028 1706q62 0 72 -73q4 -35 -21 -71t-67 -36q-72 0 -80 65q-4 43 20 79q25 36 76 36zM682 1706q62 0 72 -73q4 -35 -21 -71t-67 -36q-71 0 -80 65q-4 43 20 79q25 36 76 36z
" />
    <glyph glyph-name="multiply" unicode="&#xd7;" horiz-adv-x="1105" 
d="M907 408l-88 -70l-211 283l-301 -285l-67 72l307 292l-205 277l88 70l203 -273l285 275l67 -72l-293 -283z" />
    <glyph glyph-name="Oslash" unicode="&#xd8;" horiz-adv-x="1280" 
d="M285 532q0 -200 53 -305l641 998q-71 65 -187 65t-211.5 -67.5t-161 -178t-100 -255.5t-34.5 -257zM1106 872q0 168 -62 275l-645 -1004q73 -69 190 -69q116 0 212 66.5t200.5 239t104.5 492.5zM158 494q0 160 40 320.5t120.5 289.5t203 210t274.5 81t248 -68l95 146
l86 -46l-109 -167q117 -146 117 -390q0 -160 -40 -320.5t-121 -289.5t-202.5 -210t-277.5 -81t-258 76l-123 -192l-86 45l139 217q-106 141 -106 379z" />
    <glyph glyph-name="Ugrave" unicode="&#xd9;" horiz-adv-x="1163" 
d="M156 358q0 84 20 201l133 813q10 2 36 2q27 0 49 -24t22 -46t-2 -34l-121 -733q-12 -94 -12 -170q0 -297 293 -296q151 1 242 107t126 324l143 870q10 2 36 2q25 0 47 -24t22 -46t-2 -34l-125 -756q-38 -250 -131 -379q-120 -166 -369 -166q-211 -1 -309 101t-98 288z
M532 1667q28 47 94 47q36 0 79 -41l184 -178q-29 -33 -63 -33t-62 21z" />
    <glyph glyph-name="Uacute" unicode="&#xda;" horiz-adv-x="1163" 
d="M156 358q0 84 20 201l133 813q10 2 36 2q27 0 49 -24t22 -46t-2 -34l-121 -733q-12 -94 -12 -170q0 -297 293 -296q151 1 242 107t126 324l143 870q10 2 36 2q25 0 47 -24t22 -46t-2 -34l-125 -756q-38 -250 -131 -379q-120 -166 -369 -166q-211 -1 -309 101t-98 288z
M838 1673q57 41 92 41q34 0 56 -19t30 -38l-279 -174q-33 -21 -71 -21t-58 33z" />
    <glyph glyph-name="Ucircumflex" unicode="&#xdb;" horiz-adv-x="1163" 
d="M156 358q0 84 20 201l133 813q10 2 36 2q27 0 49 -24t22 -46t-2 -34l-121 -733q-12 -94 -12 -170q0 -297 293 -296q151 1 242 107t126 324l143 870q10 2 36 2q25 0 47 -24t22 -46t-2 -34l-125 -756q-38 -250 -131 -379q-120 -166 -369 -166q-211 -1 -309 101t-98 288z
M924 1462q-24 0 -37 9q-12 9 -25 28l-92 127l-127 -121q-53 -53 -111 -34q-14 5 -24 16l178 186q27 27 45 41t51 14q34 0 52 -16q18 -18 34 -47l115 -186q-35 -17 -59 -17z" />
    <glyph glyph-name="Udieresis" unicode="&#xdc;" horiz-adv-x="1163" 
d="M156 358q0 84 20 201l133 813q10 2 36 2q27 0 49 -24t22 -46t-2 -34l-121 -733q-12 -94 -12 -170q0 -297 293 -296q151 1 242 107t126 324l143 870q10 2 36 2q25 0 47 -24t22 -46t-2 -34l-125 -756q-38 -250 -131 -379q-120 -166 -369 -166q-211 -1 -309 101t-98 288z
M948 1706q62 0 72 -73q4 -35 -21 -71t-67 -36q-72 0 -80 65q-4 43 20 79q25 36 76 36zM602 1706q62 0 72 -73q4 -35 -21 -71t-67 -36q-72 0 -80 65q-4 43 20 79q25 36 76 36z" />
    <glyph glyph-name="Yacute" unicode="&#xdd;" horiz-adv-x="940" 
d="M258 1374q62 0 86 -78l188 -585l371 573q35 54 60 72t59 18t59 -14l-503 -766l-99 -594h-121l97 586l-262 774q35 14 65 14zM835 1714q35 0 57 -19t30 -38l-279 -174q-33 -21 -72 -21t-57 33l229 178q56 41 92 41z" />
    <glyph glyph-name="Thorn" unicode="&#xde;" horiz-adv-x="997" 
d="M469 375q209 0 305 98t96 285q0 119 -76.5 185.5t-224.5 66.5q-91 0 -172 -11l-102 -624h174zM376 1374q26 0 47 -23t21 -43v-15q0 -15 -2 -23l-26 -166q74 6 171 6q194 0 302 -101t108 -240q0 -258 -153 -377.5t-398 -119.5h-167l-46 -272h-120l227 1372q10 2 36 2z" />
    <glyph glyph-name="germandbls" unicode="&#xdf;" horiz-adv-x="1036" 
d="M399 168q105 -100 236 -100t178 55.5t47 125.5q0 69 -47 114t-127 95t-106.5 101t-26.5 101q0 88 36 138t99 99q62 48 128.5 106.5t66.5 179.5q0 85 -45 136t-158 51t-164 -46q-89 -81 -110 -226l-187 -1131q-29 -181 -98 -285t-223 -104q-74 0 -132 26t-58 58t13 47
l23 29q70 -62 156 -62q159 0 202 283l183 1118q34 222 159 320q94 71 249 71q154 0 231 -76.5t77 -195.5q0 -166 -123 -264.5t-166.5 -146.5t-43.5 -100t24.5 -83t93.5 -76q124 -81 155.5 -134.5t31.5 -130.5q0 -135 -87 -213.5t-248 -78.5t-221.5 50.5t-60.5 72.5t19 45z
" />
    <glyph glyph-name="agrave" unicode="&#xe0;" horiz-adv-x="952" 
d="M408 -27q-147 0 -221 95t-74 228q0 266 135 461q66 95 161 155t221 60t235 -67q28 -16 44 -28l-114 -689q-4 -16 -5 -32t-2 -27q0 -70 62 -72q27 0 51 9l8 -46q-59 -32 -119 -32t-89 35q-30 35 -29 86v14q-47 -61 -116 -105q-70 -44 -148 -45zM233 310q0 -230 201 -230
q77 0 150 59q99 79 121 213l79 486q-68 37 -158 38q-166 1 -279 -168q-114 -168 -114 -398zM693 1065q-38 0 -60 29l-189 243q35 35 71 35t53 -10t36 -41l144 -234q-17 -22 -55 -22z" />
    <glyph glyph-name="aacute" unicode="&#xe1;" horiz-adv-x="952" 
d="M408 -27q-147 0 -221 95t-74 228q0 266 135 461q66 95 161 155t221 60t235 -67q28 -16 44 -28l-114 -689q-4 -16 -5 -32t-2 -27q0 -70 62 -72q27 0 51 9l8 -46q-59 -32 -119 -32t-89 35q-30 35 -29 86v14q-47 -61 -116 -105q-70 -44 -148 -45zM233 310q0 -230 201 -230
q77 0 150 59q99 79 121 213l79 486q-68 37 -158 38q-166 1 -279 -168q-114 -168 -114 -398zM666 1094q-29 -29 -71 -29t-58 22l184 226q47 59 96 59t84 -35z" />
    <glyph glyph-name="acircumflex" unicode="&#xe2;" horiz-adv-x="952" 
d="M408 -27q-147 0 -221 95t-74 228q0 266 135 461q66 95 161 155t221 60t235 -67q28 -16 44 -28l-114 -689q-4 -16 -5 -32t-2 -27q0 -70 62 -72q27 0 51 9l8 -46q-59 -32 -119 -32t-89 35q-30 35 -29 86v14q-47 -61 -116 -105q-70 -44 -148 -45zM233 310q0 -230 201 -230
q77 0 150 59q99 79 121 213l79 486q-68 37 -158 38q-166 1 -279 -168q-114 -168 -114 -398zM891 1090q-34 -17 -64 -17t-55 37l-92 150l-150 -144q-40 -39 -74 -39t-53 21l197 219q25 27 42 41t50 14t49 -17t33 -46z" />
    <glyph glyph-name="atilde" unicode="&#xe3;" horiz-adv-x="952" 
d="M408 -27q-147 0 -221 95t-74 228q0 266 135 461q66 95 161 155t221 60t235 -67q28 -16 44 -28l-114 -689q-4 -16 -5 -32t-2 -27q0 -70 62 -72q27 0 51 9l8 -46q-59 -32 -119 -32t-89 35q-30 35 -29 86v14q-47 -61 -116 -105q-70 -44 -148 -45zM233 310q0 -230 201 -230
q77 0 150 59q99 79 121 213l79 486q-68 37 -158 38q-166 1 -279 -168q-114 -168 -114 -398zM782 1202q80 0 138 107q41 -16 46 -47q10 -59 -76 -125q-40 -31 -102 -31t-112 26t-78 37q-60 26 -123 -1q-33 -13 -65 -74q-37 16 -43 47q-12 60 79 114q42 25 96 25t83 -12
t55 -26l52 -28q24 -12 50 -12z" />
    <glyph glyph-name="adieresis" unicode="&#xe4;" horiz-adv-x="952" 
d="M408 -27q-147 0 -221 95t-74 228q0 266 135 461q66 95 161 155t221 60t235 -67q28 -16 44 -28l-114 -689q-4 -16 -5 -32t-2 -27q0 -70 62 -72q27 0 51 9l8 -46q-59 -32 -119 -32t-89 35q-30 35 -29 86v14q-47 -61 -116 -105q-70 -44 -148 -45zM233 310q0 -230 201 -230
q77 0 150 59q99 79 121 213l79 486q-68 37 -158 38q-166 1 -279 -168q-114 -168 -114 -398zM840 1288q62 0 72 -73q4 -35 -21 -71t-67 -36q-70 0 -81 66q-4 42 21 78t76 36zM494 1288q62 0 72 -73q4 -35 -21 -71t-67 -36q-70 0 -81 66q-4 42 21 78t76 36z" />
    <glyph glyph-name="aring" unicode="&#xe5;" horiz-adv-x="952" 
d="M408 -27q-147 0 -221 95t-74 228q0 266 135 461q66 95 161 155t221 60t235 -67q28 -16 44 -28l-114 -689q-4 -16 -5 -32t-2 -27q0 -70 62 -72q27 0 51 9l8 -46q-59 -32 -119 -32t-89 35q-30 35 -29 86v14q-47 -61 -116 -105q-70 -44 -148 -45zM233 310q0 -230 201 -230
q77 0 150 59q99 79 121 213l79 486q-68 37 -158 38q-166 1 -279 -168q-114 -168 -114 -398zM685 1143q56 0 89 41t33 95t-34 95t-88 41t-88 -41t-34 -94t33 -95t89 -42zM686 1065q-98 0 -155 62q-56 63 -56 153t56 152q57 62 155 63q98 0 154 -63t55 -152q0 -89 -55 -152
q-56 -63 -154 -63z" />
    <glyph glyph-name="ae" unicode="&#xe6;" horiz-adv-x="1474" 
d="M858 485h39q202 0 324 71t122 192q0 53 -28.5 91t-102.5 38t-165 -46.5t-162 -191.5q-33 -70 -47 -152q16 -2 20 -2zM233 310q0 -230 201 -230q131 0 194.5 97t76.5 175l79 486q-71 39 -159 39q-165 0 -278.5 -168.5t-113.5 -398.5zM737 176q-134 -203 -315 -203
q-161 0 -235 94.5t-74 228.5t34.5 250t100 211t161 155.5t233.5 60.5t263 -94l-16 -86q92 122 182 151t141 29q121 0 185.5 -59.5t64.5 -157.5q0 -174 -158.5 -264.5t-369.5 -90.5h-43q-43 0 -66 2v-43q0 -141 63.5 -216.5t180.5 -75.5q163 0 268 133l27 -27q20 -20 20 -45
t-71.5 -92.5t-247.5 -67.5q-175 0 -241 77t-87 130z" />
    <glyph glyph-name="ccedilla" unicode="&#xe7;" horiz-adv-x="835" 
d="M815 741q-48 133 -202 133q-155 0 -263 -149t-108 -365q0 -133 58 -212.5t181 -79.5q70 0 127.5 28.5t114.5 98.5l29 -27q18 -18 18 -43t-18 -42t-50 -42t-92.5 -46.5t-128.5 -25.5q-28 -33 -28 -58.5t10 -41.5t31.5 -50.5t21.5 -79.5q0 -84 -61.5 -124.5t-139.5 -40.5
q-45 0 -45 45q0 20 15 49q15 -6 37 -6q96 0 96 72q0 24 -21.5 52t-31 44t-9.5 52t45 93q-194 29 -239 153t-45 246t44 237.5t114.5 195.5t159.5 123t184 43t156 -34t85 -69q24 -34 24 -58t-9 -32t-19 -18l-25 -21h-16z" />
    <glyph glyph-name="egrave" unicode="&#xe8;" horiz-adv-x="884" 
d="M280 485h27q202 0 325 71q122 72 122 192q0 53 -29 91t-103 38t-135 -31q-121 -62 -192 -207q-33 -70 -47 -152q16 -2 32 -2zM484 -31q-161 0 -254 78q-115 99 -113 303q0 277 162 457q149 166 359 166q106 1 170 -59t64 -158q-1 -175 -170 -271q-144 -82 -358 -84h-55
q-31 0 -53 2v-43q0 -141 63 -217t180 -75q164 0 269 133l26 -27q40 -40 2 -87t-125 -83q-87 -35 -167 -35zM663 1065q-38 0 -61 29l-188 243q34 35 70 35t54 -10t35 -41l144 -234q-16 -22 -54 -22z" />
    <glyph glyph-name="eacute" unicode="&#xe9;" horiz-adv-x="884" 
d="M280 485h27q202 0 325 71q122 72 122 192q0 53 -29 91t-103 38t-135 -31q-121 -62 -192 -207q-33 -70 -47 -152q16 -2 32 -2zM484 -31q-161 0 -254 78q-115 99 -113 303q0 277 162 457q149 166 359 166q106 1 170 -59t64 -158q-1 -175 -170 -271q-144 -82 -358 -84h-55
q-31 0 -53 2v-43q0 -141 63 -217t180 -75q164 0 269 133l26 -27q40 -40 2 -87t-125 -83q-87 -35 -167 -35zM653 1094q-29 -29 -69 -29t-60 22l185 226q47 59 96 59t84 -35z" />
    <glyph glyph-name="ecircumflex" unicode="&#xea;" horiz-adv-x="884" 
d="M280 485h27q202 0 325 71q122 72 122 192q0 53 -29 91t-103 38t-135 -31q-121 -62 -192 -207q-33 -70 -47 -152q16 -2 32 -2zM484 -31q-161 0 -254 78q-115 99 -113 303q0 277 162 457q149 166 359 166q106 1 170 -59t64 -158q-1 -175 -170 -271q-144 -82 -358 -84h-55
q-31 0 -53 2v-43q0 -141 63 -217t180 -75q164 0 269 133l26 -27q40 -40 2 -87t-125 -83q-87 -35 -167 -35zM883 1090q-34 -17 -64 -17t-55 37l-92 150l-150 -144q-39 -39 -74 -39t-53 21l197 219q25 27 42 41t50 14t49 -17t33 -46z" />
    <glyph glyph-name="edieresis" unicode="&#xeb;" horiz-adv-x="884" 
d="M280 485h27q202 0 325 71q122 72 122 192q0 53 -29 91t-103 38t-135 -31q-121 -62 -192 -207q-33 -70 -47 -152q16 -2 32 -2zM484 -31q-161 0 -254 78q-115 99 -113 303q0 277 162 457q149 166 359 166q106 1 170 -59t64 -158q-1 -175 -170 -271q-144 -82 -358 -84h-55
q-31 0 -53 2v-43q0 -141 63 -217t180 -75q164 0 269 133l26 -27q40 -40 2 -87t-125 -83q-87 -35 -167 -35zM834 1288q62 0 72 -73q4 -35 -21 -71t-67 -36q-70 0 -81 66q-4 42 21 78t76 36zM487 1288q63 0 73 -73q4 -35 -21 -71t-67 -36q-70 0 -81 66q-4 42 21 78t75 36z" />
    <glyph glyph-name="igrave" unicode="&#xec;" horiz-adv-x="415" 
d="M244 126q0 -67 61 -69q27 0 51 9l9 -46q-59 -32 -119 -32t-92 35t-31 72q0 37 3 57t7 49l125 755h10q37 0 65 -22t27 -64l-6 -51l-104 -631q-6 -24 -6 -62zM384 1065q-38 0 -60 29l-189 243q35 35 71 35t53 -10t36 -41l143 -234q-16 -22 -54 -22z" />
    <glyph glyph-name="iacute" unicode="&#xed;" horiz-adv-x="415" 
d="M244 126q0 -67 61 -69q27 0 51 9l9 -46q-59 -32 -119 -32t-92 35t-31 72q0 37 3 57t7 49l125 755h10q37 0 65 -22t27 -64l-6 -51l-104 -631q-6 -24 -6 -62zM356 1094q-29 -29 -69 -29t-60 22l185 226q47 59 96 59t84 -35z" />
    <glyph glyph-name="icircumflex" unicode="&#xee;" horiz-adv-x="415" 
d="M244 126q0 -67 61 -69q27 0 51 9l9 -46q-59 -32 -119 -32t-92 35t-31 72q0 37 3 57t7 49l125 755h10q37 0 65 -22t27 -64l-6 -51l-104 -631q-6 -24 -6 -62zM565 1090q-34 -17 -64 -17t-55 37l-92 150l-149 -144q-39 -39 -74 -39t-53 21l196 219q25 27 42 41q16 14 50 14
t50 -17t33 -46z" />
    <glyph glyph-name="idieresis" unicode="&#xef;" horiz-adv-x="415" 
d="M244 126q0 -67 61 -69q27 0 51 9l9 -46q-59 -32 -119 -32t-92 35t-31 72q0 37 3 57t7 49l125 755h10q37 0 65 -22t27 -64l-6 -51l-104 -631q-6 -24 -6 -62zM524 1288q62 0 72 -73q4 -35 -21 -71t-67 -36q-70 0 -80 66q-4 42 21 78t75 36zM178 1288q62 0 72 -73
q4 -35 -21 -71t-67 -36q-72 0 -80 66q-4 42 20 78t76 36z" />
    <glyph glyph-name="eth" unicode="&#xf0;" horiz-adv-x="1013" 
d="M592 823q-160 0 -258 -117.5t-98 -355.5q0 -135 60 -208.5t163 -73.5q131 -2 212 95t114.5 234t33.5 277q-20 61 -81.5 105t-145.5 44zM950 745q0 -381 -140 -578.5t-370 -197.5q-139 0 -231 96t-92 261q0 298 140.5 451t336.5 153q70 0 132 -30t97 -71
q-12 111 -36.5 181.5t-75.5 134.5l-252 -109l-33 84l213 92q-111 86 -293 99q0 51 16.5 69.5t55.5 18.5q81 0 172.5 -37.5t163.5 -99.5l227 98l33 -84l-199 -86q135 -184 135 -445z" />
    <glyph glyph-name="ntilde" unicode="&#xf1;" horiz-adv-x="1005" 
d="M807 694q0 176 -166 176q-183 0 -280 -158q-32 -52 -44 -122l-98 -590h-119l158 956h10q37 0 62 -22t24 -50q-1 -27 -4 -65q55 66 138 110q82 44 166 44q208 0 257 -168q29 -102 0 -248l-92 -557h-119l93 557q14 101 14 137zM766 1202q81 0 137 107q41 -16 46 -47
q10 -61 -76 -125q-40 -31 -103 -31t-111 26q-49 26 -77 37q-61 26 -123 -1q-33 -13 -66 -74q-37 16 -43 47q-11 59 80 114q42 25 96 25t84 -12t105 -54q25 -12 51 -12z" />
    <glyph glyph-name="ograve" unicode="&#xf2;" horiz-adv-x="987" 
d="M455 68q160 0 261 156t100 357q-1 202 -118 270q-40 23 -112 23t-139 -42t-113 -114q-98 -158 -97 -358t115 -269q41 -24 103 -23zM117 370q0 90 33 202q70 237 249 346q93 55 197 55t166 -34q176 -98 176 -342t-131 -435t-363 -193q-90 0 -152 33q-175 93 -175 368z
M689 1065q-38 0 -60 29l-189 243q35 35 71 35t53 -10t36 -41l143 -234q-16 -22 -54 -22z" />
    <glyph glyph-name="oacute" unicode="&#xf3;" horiz-adv-x="987" 
d="M455 68q160 0 261 156t100 357q-1 202 -118 270q-40 23 -112 23t-139 -42t-113 -114q-98 -158 -97 -358t115 -269q41 -24 103 -23zM117 370q0 90 33 202q70 237 249 346q93 55 197 55t166 -34q176 -98 176 -342t-131 -435t-363 -193q-90 0 -152 33q-175 93 -175 368z
M676 1094q-29 -29 -71 -29t-58 22l184 226q47 59 97 59t83 -35z" />
    <glyph glyph-name="ocircumflex" unicode="&#xf4;" horiz-adv-x="987" 
d="M455 68q160 0 261 156t100 357q-1 202 -118 270q-40 23 -112 23t-139 -42t-113 -114q-98 -158 -97 -358t115 -269q41 -24 103 -23zM117 370q0 90 33 202q70 237 249 346q93 55 197 55t166 -34q176 -98 176 -342t-131 -435t-363 -193q-90 0 -152 33q-175 93 -175 368z
M874 1090q-34 -17 -64 -17t-54 37l-92 150l-150 -144q-39 -39 -74 -39t-53 21l197 219q25 27 42 41t50 14t49 -17t33 -46z" />
    <glyph glyph-name="otilde" unicode="&#xf5;" horiz-adv-x="987" 
d="M455 68q160 0 261 156t100 357q-1 202 -118 270q-40 23 -112 23t-139 -42t-113 -114q-98 -158 -97 -358t115 -269q41 -24 103 -23zM117 370q0 90 33 202q70 237 249 346q93 55 197 55t166 -34q176 -98 176 -342t-131 -435t-363 -193q-90 0 -152 33q-175 93 -175 368z
M758 1202q79 0 137 107q41 -16 46 -47q10 -61 -76 -125q-40 -31 -103 -31t-134 37t-108 38q-38 1 -70 -13t-65 -74q-37 16 -43 47q-12 60 80 114q42 25 96 25t82 -12t78 -39t80 -27z" />
    <glyph glyph-name="odieresis" unicode="&#xf6;" horiz-adv-x="987" 
d="M455 68q160 0 261 156t100 357q-1 202 -118 270q-40 23 -112 23t-139 -42t-113 -114q-98 -158 -97 -358t115 -269q41 -24 103 -23zM117 370q0 90 33 202q70 237 249 346q93 55 197 55t166 -34q176 -98 176 -342t-131 -435t-363 -193q-90 0 -152 33q-175 93 -175 368z
M815 1288q61 0 71 -73q4 -35 -20 -71t-66 -36q-72 0 -81 66q-3 42 21 78t75 36zM469 1288q61 0 71 -73q4 -35 -20 -71q-25 -36 -67 -36q-71 0 -80 66q-3 42 21 78t75 36z" />
    <glyph glyph-name="divide" unicode="&#xf7;" horiz-adv-x="1105" 
d="M928 637h-699l19 108h698zM545 502q78 0 78 -85q0 -36 -24 -70t-71 -34q-73 0 -73 80q0 41 24.5 75t65.5 34zM637 1071q78 0 78 -85q0 -36 -24 -70t-70 -33q-74 0 -74 83q0 38 24.5 71.5t65.5 33.5z" />
    <glyph glyph-name="oslash" unicode="&#xf8;" horiz-adv-x="987" 
d="M555.5 874q-122.5 0 -220 -155t-97.5 -367q0 -100 28 -159l465 632q-53 49 -175.5 49zM452 68q164 0 263.5 154t99.5 368q0 100 -35 168l-467 -637q53 -53 139 -53zM117 348q0 243 95 378.5t187.5 191t206.5 55.5t193 -55l90 122l65 -47l-98 -133q82 -101 82 -266
q0 -243 -93 -378.5t-185.5 -191t-213.5 -55.5t-200 62l-96 -133l-66 47l106 145q-73 94 -73 258z" />
    <glyph glyph-name="ugrave" unicode="&#xf9;" horiz-adv-x="978" 
d="M696 109v16q-55 -66 -126 -111q-72 -45 -188 -45t-184 70t-67 199q0 61 12 135l95 583h10q36 0 64 -22t28 -50q0 -26 -6 -65l-74 -446q-10 -72 -10 -141q0 -68 40 -114t140 -46t187 77t110 205l100 602h11q36 0 64 -22t28 -50q0 -26 -6 -65l-105 -631q-6 -38 -6 -69
q0 -60 61 -62q27 0 52 9l8 -46q-59 -32 -119 -32q-59 0 -89 35t-30 86zM628 1065q-38 0 -61 29l-188 243q35 35 71 35t53 -10t36 -41l143 -234q-16 -22 -54 -22z" />
    <glyph glyph-name="uacute" unicode="&#xfa;" horiz-adv-x="978" 
d="M696 109v16q-55 -66 -126 -111q-72 -45 -188 -45t-184 70t-67 199q0 61 12 135l95 583h10q36 0 64 -22t28 -50q0 -26 -6 -65l-74 -446q-10 -72 -10 -141q0 -68 40 -114t140 -46t187 77t110 205l100 602h11q36 0 64 -22t28 -50q0 -26 -6 -65l-105 -631q-6 -38 -6 -69
q0 -60 61 -62q27 0 52 9l8 -46q-59 -32 -119 -32q-59 0 -89 35t-30 86zM627 1094q-29 -29 -71 -29t-58 22l184 226q47 59 96 59t84 -35z" />
    <glyph glyph-name="ucircumflex" unicode="&#xfb;" horiz-adv-x="978" 
d="M696 109v16q-55 -66 -126 -111q-72 -45 -188 -45t-184 70t-67 199q0 61 12 135l95 583h10q36 0 64 -22t28 -50q0 -26 -6 -65l-74 -446q-10 -72 -10 -141q0 -68 40 -114t140 -46t187 77t110 205l100 602h11q36 0 64 -22t28 -50q0 -26 -6 -65l-105 -631q-6 -38 -6 -69
q0 -60 61 -62q27 0 52 9l8 -46q-59 -32 -119 -32q-59 0 -89 35t-30 86zM842 1090q-34 -17 -64 -17t-55 37l-92 150l-150 -144q-39 -39 -73 -39t-54 21l197 219q25 27 42 41t50 14t49 -17t33 -46z" />
    <glyph glyph-name="udieresis" unicode="&#xfc;" horiz-adv-x="978" 
d="M696 109v16q-55 -66 -126 -111q-72 -45 -188 -45t-184 70t-67 199q0 61 12 135l95 583h10q36 0 64 -22t28 -50q0 -26 -6 -65l-74 -446q-10 -72 -10 -141q0 -68 40 -114t140 -46t187 77t110 205l100 602h11q36 0 64 -22t28 -50q0 -26 -6 -65l-105 -631q-6 -38 -6 -69
q0 -60 61 -62q27 0 52 9l8 -46q-59 -32 -119 -32q-59 0 -89 35t-30 86zM799 1288q61 0 71 -73q4 -35 -20 -71q-25 -36 -67 -36q-70 0 -81 66q-4 42 21 78t76 36zM453 1288q61 0 71 -73q4 -35 -20 -71q-25 -36 -67 -36q-70 0 -81 66q-4 42 21 78t76 36z" />
    <glyph glyph-name="yacute" unicode="&#xfd;" horiz-adv-x="837" 
d="M194 956q32 0 50 -22q18 -23 26 -84l113 -729l362 747q45 88 100 88q37 0 60 -14l-573 -1151q-67 -131 -107 -175q-73 -79 -170 -81q-51 1 -81 15q-62 30 -62 69q0 16 10 33l27 35q45 -52 117 -54q49 1 88 51t92 158l73 150h-20l-168 952q31 12 63 12zM571 1094
q-29 -29 -69 -29t-60 22l185 226q47 59 96 59t84 -35z" />
    <glyph glyph-name="thorn" unicode="&#xfe;" horiz-adv-x="985" 
d="M395 66q176 0 297 160.5t121 377.5q0 123 -44 192.5t-146 69.5t-193.5 -70.5t-114.5 -205.5l-82 -486q69 -38 162 -38zM402 -31q-112 0 -183 45l-76 -460h-116l313 1900q10 2 36 2t47 -23t21 -43v-15q0 -15 -2 -23l-90 -527q55 63 132 105.5t155 42.5q150 0 223.5 -104.5
t73.5 -249.5q0 -146 -41 -259.5t-112.5 -199.5t-170 -138.5t-210.5 -52.5z" />
    <glyph glyph-name="ydieresis" unicode="&#xff;" horiz-adv-x="837" 
d="M194 956q32 0 50 -22q18 -23 26 -84l113 -729l362 747q45 88 100 88q37 0 60 -14l-573 -1151q-67 -131 -107 -175q-73 -79 -170 -81q-51 1 -81 15q-62 30 -62 69q0 16 10 33l27 35q45 -52 117 -54q49 1 88 51t92 158l73 150h-20l-168 952q31 12 63 12zM727 1288
q61 0 71 -73q4 -35 -20 -71t-66 -36q-72 0 -81 66q-3 42 21 78t75 36zM381 1288q61 0 71 -73q4 -35 -20 -71q-25 -36 -67 -36q-71 0 -80 66q-3 42 21 78t75 36z" />
    <glyph glyph-name="Amacron" unicode="&#x100;" horiz-adv-x="1081" 
d="M803 485l-125 713l-346 -713h471zM709 1374q52 0 61 -49l238 -1325h-121l-66 383h-542l-187 -383h-121l682 1360q29 14 56 14zM907 1620q78 0 78 -56q0 -26 -6 -44h-469q-103 0 -72 100h469z" />
    <glyph glyph-name="amacron" unicode="&#x101;" horiz-adv-x="952" 
d="M408 -27q-147 0 -221 95t-74 228q0 266 135 461q66 95 161 155t221 60t235 -67q28 -16 44 -28l-114 -689q-4 -16 -5 -32t-2 -27q0 -70 62 -72q27 0 51 9l8 -46q-59 -32 -119 -32t-89 35q-30 35 -29 86v14q-47 -61 -116 -105q-70 -44 -148 -45zM233 310q0 -230 201 -230
q77 0 150 59q99 79 121 213l79 486q-68 37 -158 38q-166 1 -279 -168q-114 -168 -114 -398zM449 1143q-78 0 -78 56q0 26 6 44h469q105 0 72 -100h-469z" />
    <glyph glyph-name="Abreve" unicode="&#x102;" horiz-adv-x="1081" 
d="M803 485l-125 713l-346 -713h471zM709 1374q52 0 61 -49l238 -1325h-121l-66 383h-542l-187 -383h-121l682 1360q29 14 56 14zM727 1479q-119 0 -173 62t-50 196q28 10 54 10t34 -17t19 -73t45 -74t78 -18q44 1 93 27t82 102q15 35 31 45t40 10t52 -14
q-74 -256 -305 -256z" />
    <glyph glyph-name="abreve" unicode="&#x103;" horiz-adv-x="952" 
d="M408 -27q-147 0 -221 95t-74 228q0 266 135 461q66 95 161 155t221 60t235 -67q28 -16 44 -28l-114 -689q-4 -16 -5 -32t-2 -27q0 -70 62 -72q27 0 51 9l8 -46q-59 -32 -119 -32t-89 35q-30 35 -29 86v14q-47 -61 -116 -105q-70 -44 -148 -45zM233 310q0 -230 201 -230
q77 0 150 59q99 79 121 213l79 486q-68 37 -158 38q-166 1 -279 -168q-114 -168 -114 -398zM655 1065q-233 0 -225 276q73 27 88 -7q8 -16 20 -74q22 -109 124 -109q108 0 164 123q26 57 41 67q39 26 91 -4q-38 -133 -110 -203t-193 -69z" />
    <glyph glyph-name="Aogonek" unicode="&#x104;" horiz-adv-x="1081" 
d="M885 -328q29 0 50 17.5t38 34.5q31 -24 31 -48t-16 -41q-41 -45 -117 -45q-154 0 -154 127q0 75 51 152t119 131l-66 383h-542l-187 -383h-121l682 1360q29 14 56 14q52 0 61 -49l238 -1325q-65 -38 -125 -111t-60 -145t62 -72zM803 485l-125 713l-346 -713h471z" />
    <glyph glyph-name="aogonek" unicode="&#x105;" horiz-adv-x="952" 
d="M233 310q0 -230 201 -230q77 0 163 69t108 203l79 486q-71 39 -159 39q-165 0 -278.5 -168.5t-113.5 -398.5zM608 -295q0 150 158 285q-94 15 -94 119v14q-47 -61 -116.5 -105.5t-147.5 -44.5q-147 0 -221 94.5t-74 228.5t34.5 250t100 211t161 155.5t233.5 60.5t267 -96
l-114 -689q-7 -28 -7 -59q0 -72 62 -72q27 0 51 9l8 -46q-69 -40 -131.5 -123.5t-62.5 -154.5q0 -70 61 -70q39 0 88 52q31 -24 31 -48q0 -46 -50 -66t-104 -20t-93.5 31t-39.5 84z" />
    <glyph glyph-name="Cacute" unicode="&#x106;" horiz-adv-x="1093" 
d="M627 76q195 0 358 157l25 -26q22 -23 22 -49t-16 -42q-57 -60 -166 -104q-109 -43 -234 -43q-237 0 -355 170q-105 152 -103 389q0 160 43 316t127 278t209 197q125 76 269 76q222 0 343 -131q31 -37 31 -70t-56 -70h-18q-55 100 -131 132q-77 32 -181 32t-201 -61
q-197 -124 -271 -409q-37 -138 -37 -262q0 -341 191 -445q65 -35 151 -35zM999 1714q35 0 57 -19t29 -38l-278 -174q-33 -21 -72 -21t-57 33l229 178q56 41 92 41z" />
    <glyph glyph-name="cacute" unicode="&#x107;" horiz-adv-x="835" 
d="M770 126q0 -24 -16 -42q-52 -58 -134 -87q-82 -28 -148 -28q-240 0 -324 195q-32 74 -32 202t45 245q87 228 274 319q89 43 184 43t155 -34t86 -69q24 -34 24 -58t-8 -32q-9 -8 -20 -18l-25 -21h-16q-48 135 -213 133q-144 0 -253 -151t-107 -363q0 -133 58 -213t181 -79
q70 0 127 28t115 99l29 -27q18 -18 18 -42zM651 1094q-29 -29 -69 -29t-60 22l185 226q47 59 96 59t84 -35z" />
    <glyph glyph-name="Ccircumflex" unicode="&#x108;" horiz-adv-x="1093" 
d="M627 76q195 0 358 157l25 -26q22 -23 22 -49t-16 -42q-57 -60 -166 -104q-109 -43 -234 -43q-237 0 -355 170q-105 152 -103 389q0 160 43 316t127 278t209 197q125 76 269 76q222 0 343 -131q31 -37 31 -70t-56 -70h-18q-55 100 -131 132q-77 32 -181 32t-201 -61
q-197 -124 -271 -409q-37 -138 -37 -262q0 -341 191 -445q65 -35 151 -35zM1000 1462q-25 0 -37 9t-25 28l-92 127l-127 -121q-53 -53 -111 -34q-14 5 -24 16l178 186q27 27 45 41t51 14t51 -16q18 -18 35 -47l115 -186q-34 -17 -59 -17z" />
    <glyph glyph-name="ccircumflex" unicode="&#x109;" horiz-adv-x="835" 
d="M770 126q0 -24 -16 -42q-52 -58 -134 -87q-82 -28 -148 -28q-240 0 -324 195q-32 74 -32 202t45 245q87 228 274 319q89 43 184 43t155 -34t86 -69q24 -34 24 -58t-8 -32q-9 -8 -20 -18l-25 -21h-16q-48 135 -213 133q-144 0 -253 -151t-107 -363q0 -133 58 -213t181 -79
q70 0 127 28t115 99l29 -27q18 -18 18 -42zM885 1090q-34 -17 -64 -17t-55 37l-92 150l-150 -144q-40 -39 -74 -39t-53 21l197 219q25 27 42 41t50 14t49 -17t33 -46z" />
    <glyph glyph-name="Cdotaccent" unicode="&#x10a;" horiz-adv-x="1093" 
d="M627 76q195 0 358 157l25 -26q22 -23 22 -49t-16 -42q-57 -60 -166 -104q-109 -43 -234 -43q-237 0 -355 170q-105 152 -103 389q0 160 43 316t127 278t209 197q125 76 269 76q222 0 343 -131q31 -37 31 -70t-56 -70h-18q-55 100 -131 132q-77 32 -181 32t-201 -61
q-197 -124 -271 -409q-37 -138 -37 -262q0 -341 191 -445q65 -35 151 -35zM825 1487q-45 1 -65 25t-20 64t26 76q27 36 72 36t65 -29q21 -29 21 -65t-27 -71q-27 -36 -72 -36z" />
    <glyph glyph-name="cdotaccent" unicode="&#x10b;" horiz-adv-x="835" 
d="M770 126q0 -24 -16 -42q-52 -58 -134 -87q-82 -28 -148 -28q-240 0 -324 195q-32 74 -32 202t45 245q87 228 274 319q89 43 184 43t155 -34t86 -69q24 -34 24 -58t-8 -32q-9 -8 -20 -18l-25 -21h-16q-48 135 -213 133q-144 0 -253 -151t-107 -363q0 -133 58 -213t181 -79
q70 0 127 28t115 99l29 -27q18 -18 18 -42zM655 1108q-45 0 -65 25t-20 65t26 75q27 36 72 36t65 -29q21 -28 21 -64t-27 -72t-72 -36z" />
    <glyph glyph-name="Ccaron" unicode="&#x10c;" horiz-adv-x="1093" 
d="M627 76q195 0 358 157l25 -26q22 -23 22 -49t-16 -42q-57 -60 -166 -104q-109 -43 -234 -43q-237 0 -355 170q-105 152 -103 389q0 160 43 316t127 278t209 197q125 76 269 76q222 0 343 -131q31 -37 31 -70t-56 -70h-18q-55 100 -131 132q-77 32 -181 32t-201 -61
q-197 -124 -271 -409q-37 -138 -37 -262q0 -341 191 -445q65 -35 151 -35zM674 1747q26 0 38 -9t25 -28l92 -127l127 121q39 39 77 39t59 -21l-179 -186q-27 -27 -45 -41t-51 -14t-51 17t-35 46l-115 187q32 16 58 16z" />
    <glyph glyph-name="ccaron" unicode="&#x10d;" horiz-adv-x="835" 
d="M770 126q0 -24 -16 -42q-52 -58 -134 -87q-82 -28 -148 -28q-240 0 -324 195q-32 74 -32 202t45 245q87 228 274 319q89 43 184 43t155 -34t86 -69q24 -34 24 -58t-8 -32q-9 -8 -20 -18l-25 -21h-16q-48 135 -213 133q-144 0 -253 -151t-107 -363q0 -133 58 -213t181 -79
q70 0 127 28t115 99l29 -27q18 -18 18 -42zM440 1348q32 16 63 16t56 -37l92 -149l150 143q39 39 74 39t53 -21l-197 -219q-25 -27 -42 -41t-50 -14t-49 17t-33 46z" />
    <glyph glyph-name="Dcaron" unicode="&#x10e;" horiz-adv-x="1206" 
d="M412 100q320 0 483 238q137 202 137 543q0 284 -208 370q-75 31 -185 31h-48q-81 0 -151 -10l-194 -1172h166zM631 1384q284 0 419 -153q111 -130 110 -337q-3 -640 -424 -829q-142 -65 -333 -65h-294l225 1366q166 18 297 18zM545 1747q27 0 39 -9t24 -28l92 -127
l127 121q39 39 77 39t59 -21l-179 -186q-27 -27 -45 -41t-51 -14t-51 17t-35 46l-115 187q32 16 58 16z" />
    <glyph glyph-name="dcaron" unicode="&#x10f;" horiz-adv-x="1079" 
d="M817 129q0 -70 62 -72q27 0 51 9l8 -46q-59 -32 -119 -32q-59 0 -89 35t-30 86v14q-55 -66 -134 -108q-80 -42 -158 -42q-149 0 -223 98t-74 275q0 232 132 417q149 208 378 210q59 -1 115 -21t89 -43l88 545q10 2 36 2q25 0 47 -24t22 -46t-2 -34l-193 -1164
q-6 -36 -6 -59zM233 338q-1 -129 47 -194t158 -64q146 0 247 143q36 51 48 129l78 465q-74 57 -177 57q-183 0 -292 -165q-109 -164 -109 -371zM1191 1437q25 17 50 17t43 -6l-72 -338q-8 -33 -34 -52t-62 -20h-14l47 287q4 23 10 59q7 36 32 53z" />
    <glyph glyph-name="Dcroat" unicode="&#x110;" horiz-adv-x="1206" 
d="M412 100q320 0 483 238q137 202 137 543q0 284 -208 370q-75 31 -185 31h-48q-81 0 -151 -10l-86 -512h353l-17 -98h-352l-92 -562h166zM631 1384q284 0 419 -153q111 -130 110 -337q-3 -640 -424 -829q-142 -65 -333 -65h-294l108 662h-123l17 98h122l101 606
q166 18 297 18z" />
    <glyph glyph-name="dcroat" unicode="&#x111;" horiz-adv-x="978" 
d="M233 338q0 -129 47.5 -193.5t157.5 -64.5q146 0 214.5 97t80.5 175l78 465q-74 57 -177 57q-183 0 -292 -164.5t-109 -371.5zM817 129q0 -72 62 -72q27 0 51 9l8 -46q-59 -32 -119 -32t-89.5 34.5t-29.5 86.5v14q-55 -66 -134.5 -108t-157.5 -42q-149 0 -223 98t-74 275
q0 104 33.5 215t98 202t160 150.5t218.5 59.5q59 0 115.5 -20.5t88.5 -43.5l39 248h-379l17 98h379l32 199q10 2 36 2t47.5 -23t21.5 -43v-15q0 -15 -2 -23l-17 -97h115l-16 -98h-115l-160 -969q-6 -24 -6 -59z" />
    <glyph glyph-name="Emacron" unicode="&#x112;" horiz-adv-x="925" 
d="M764 102q43 0 60 -16q18 -16 18 -36v-27q0 -8 -4 -23h-729l227 1370h690q0 -43 -17 -73t-71 -29h-496l-84 -500h433l-17 -102h-432l-94 -564h516zM901 1620q78 0 78 -56q0 -26 -6 -44h-469q-78 0 -78 55q0 25 6 45h469z" />
    <glyph glyph-name="emacron" unicode="&#x113;" horiz-adv-x="884" 
d="M280 485h27q202 0 325 71q122 72 122 192q0 53 -29 91t-103 38t-135 -31q-121 -62 -192 -207q-33 -70 -47 -152q16 -2 32 -2zM484 -31q-161 0 -254 78q-115 99 -113 303q0 277 162 457q149 166 359 166q106 1 170 -59t64 -158q-1 -175 -170 -271q-144 -82 -358 -84h-55
q-31 0 -53 2v-43q0 -141 63 -217t180 -75q164 0 269 133l26 -27q40 -40 2 -87t-125 -83q-87 -35 -167 -35zM825 1243q78 0 78 -56q0 -26 -6 -44h-469q-105 0 -72 100h469z" />
    <glyph glyph-name="Ebreve" unicode="&#x114;" horiz-adv-x="925" 
d="M764 102q43 0 60 -16q18 -16 18 -36v-27q0 -8 -4 -23h-729l227 1370h690q0 -43 -17 -73t-71 -29h-496l-84 -500h433l-17 -102h-432l-94 -564h516zM700 1479q-119 0 -173 62t-50 196q27 10 53 10t35 -17q7 -17 19 -73t46 -74t78 -18q44 1 93 27t82 102q16 35 31 45t38 10
t54 -14q-74 -256 -306 -256z" />
    <glyph glyph-name="ebreve" unicode="&#x115;" horiz-adv-x="884" 
d="M280 485h27q202 0 325 71q122 72 122 192q0 53 -29 91t-103 38t-135 -31q-121 -62 -192 -207q-33 -70 -47 -152q16 -2 32 -2zM484 -31q-161 0 -254 78q-115 99 -113 303q0 277 162 457q149 166 359 166q106 1 170 -59t64 -158q-1 -175 -170 -271q-144 -82 -358 -84h-55
q-31 0 -53 2v-43q0 -141 63 -217t180 -75q164 0 269 133l26 -27q40 -40 2 -87t-125 -83q-87 -35 -167 -35zM626 1065q-232 0 -225 276q73 27 88 -7q7 -16 19 -74q22 -109 125 -109q109 0 165 123q26 57 40 67q38 25 92 -4q-39 -133 -111 -203q-73 -70 -193 -69z" />
    <glyph glyph-name="Edotaccent" unicode="&#x116;" horiz-adv-x="925" 
d="M764 102q43 0 60 -16q18 -16 18 -36v-27q0 -8 -4 -23h-729l227 1370h690q0 -43 -17 -73t-71 -29h-496l-84 -500h433l-17 -102h-432l-94 -564h516zM708 1487q-86 0 -85 89q0 40 26 76q27 36 72 36t65 -29t20 -65t-26 -71q-28 -36 -72 -36z" />
    <glyph glyph-name="edotaccent" unicode="&#x117;" horiz-adv-x="884" 
d="M280 485h27q202 0 325 71q122 72 122 192q0 53 -29 91t-103 38t-135 -31q-121 -62 -192 -207q-33 -70 -47 -152q16 -2 32 -2zM484 -31q-161 0 -254 78q-115 99 -113 303q0 277 162 457q149 166 359 166q106 1 170 -59t64 -158q-1 -175 -170 -271q-144 -82 -358 -84h-55
q-31 0 -53 2v-43q0 -141 63 -217t180 -75q164 0 269 133l26 -27q40 -40 2 -87t-125 -83q-87 -35 -167 -35zM647 1108q-45 0 -65 25t-20 65t26 75q27 36 72 36t65 -29q21 -28 21 -64t-27 -72t-72 -36z" />
    <glyph glyph-name="Eogonek" unicode="&#x118;" horiz-adv-x="925" 
d="M567 -294q0 154 170 294h-628l227 1370h690q0 -43 -17.5 -72.5t-70.5 -29.5h-496l-84 -500h433l-17 -102h-432l-94 -564h516q43 0 60.5 -16t17.5 -36v-18q0 -18 -4 -32q-104 -83 -134 -155t-30 -109q0 -64 61 -64q39 0 88 52q31 -24 31 -48q0 -46 -50 -66t-104 -20
t-93.5 31t-39.5 85z" />
    <glyph glyph-name="eogonek" unicode="&#x119;" horiz-adv-x="884" 
d="M479 68q162 0 269 133l26 -27q21 -22 21 -46t-17.5 -40t-39.5 -32t-36 -25t-38 -23q-55 -34 -115 -115t-60 -151t62 -70q39 0 88 52q31 -24 31 -48t-16 -41q-41 -45 -117 -45q-154 0 -154 127q0 74 44 141.5t95 114.5q-28 -4 -73 -4t-106.5 17.5t-143.5 87.5t-82 276
q0 276 155 449.5t366 173.5q106 0 170 -59.5t64 -157.5q0 -174 -158.5 -264.5t-369.5 -90.5h-43q-43 0 -65 2v-43q0 -141 63 -216.5t180 -75.5zM268 485h39q202 0 324.5 71t122.5 192q0 53 -29 91t-103 38t-165 -46.5t-162 -191.5q-33 -70 -47 -152q16 -2 20 -2z" />
    <glyph glyph-name="Ecaron" unicode="&#x11a;" horiz-adv-x="925" 
d="M764 102q43 0 60 -16q18 -16 18 -36v-27q0 -8 -4 -23h-729l227 1370h690q0 -43 -17 -73t-71 -29h-496l-84 -500h433l-17 -102h-432l-94 -564h516zM560 1747q26 0 38 -9t25 -28l92 -127l127 121q38 39 76 39t59 -21l-178 -186q-27 -27 -45 -41t-51 -14t-52 17
q-18 17 -35 46l-114 187q32 16 58 16z" />
    <glyph glyph-name="ecaron" unicode="&#x11b;" horiz-adv-x="884" 
d="M280 485h27q202 0 325 71q122 72 122 192q0 53 -29 91t-103 38t-135 -31q-121 -62 -192 -207q-33 -70 -47 -152q16 -2 32 -2zM484 -31q-161 0 -254 78q-115 99 -113 303q0 277 162 457q149 166 359 166q106 1 170 -59t64 -158q-1 -175 -170 -271q-144 -82 -358 -84h-55
q-31 0 -53 2v-43q0 -141 63 -217t180 -75q164 0 269 133l26 -27q40 -40 2 -87t-125 -83q-87 -35 -167 -35zM422 1348q32 16 63 16t56 -37l92 -149l149 143q39 39 74 39t53 -21l-196 -219q-25 -27 -42 -41t-50 -14t-50 17q-16 17 -32 46z" />
    <glyph glyph-name="Gcircumflex" unicode="&#x11c;" horiz-adv-x="1232" 
d="M806 1395q144 0 251 -56q47 -25 101 -87q22 -25 22 -58t-56 -70h-18q-55 100 -131 132q-77 32 -181 32t-201 -61q-197 -124 -271 -409q-37 -138 -37 -262q0 -341 191 -445q66 -35 170 -35t184 41t126 86l66 385h-287l19 102h405l-86 -514q-162 -203 -455 -207
q-239 0 -357 170q-105 152 -103 389q0 160 43 316t127 278t209 197q125 76 269 76zM1004 1462q-25 0 -37 9t-25 28l-92 127l-127 -121q-53 -53 -111 -34q-14 5 -24 16l178 186q27 27 45 41t51 14t51 -16q18 -18 35 -47l115 -186q-34 -17 -59 -17z" />
    <glyph glyph-name="gcircumflex" unicode="&#x11d;" horiz-adv-x="962" 
d="M111 346q0 230 138 417q67 91 162 150t207 59q177 1 314 -100l-144 -864q-79 -473 -469 -473q-147 0 -235 62q-29 23 -46 39t-18 40q-1 23 21 45l29 31q57 -70 117 -94q61 -24 141 -25q285 0 348 385l16 103q-122 -152 -277 -152t-230 101q-74 100 -74 276zM233 324
q0 -250 209 -248q144 0 239 146q34 52 46 130l80 482q-43 30 -88 36t-114 6t-139 -46q-70 -48 -121 -123q-112 -164 -112 -383zM895 1090q-34 -17 -64 -17t-55 37l-92 150l-149 -144q-39 -39 -74 -39t-53 21l196 219q25 27 42 41t50 14t49 -17t33 -46z" />
    <glyph glyph-name="Gbreve" unicode="&#x11e;" horiz-adv-x="1232" 
d="M806 1395q144 0 251 -56q47 -25 101 -87q22 -25 22 -58t-56 -70h-18q-55 100 -131 132q-77 32 -181 32t-201 -61q-197 -124 -271 -409q-37 -138 -37 -262q0 -341 191 -445q66 -35 170 -35t184 41t126 86l66 385h-287l19 102h405l-86 -514q-162 -203 -455 -207
q-239 0 -357 170q-105 152 -103 389q0 160 43 316t127 278t209 197q125 76 269 76zM815 1479q-119 0 -173 62t-50 196q28 10 54 10t34 -17t19 -73t45 -74t78 -18q44 1 93 27t82 102q15 35 31 45t40 10t52 -14q-74 -256 -305 -256z" />
    <glyph glyph-name="gbreve" unicode="&#x11f;" horiz-adv-x="962" 
d="M111 346q0 230 138 417q67 91 162 150t207 59q177 1 314 -100l-144 -864q-79 -473 -469 -473q-147 0 -235 62q-29 23 -46 39t-18 40q-1 23 21 45l29 31q57 -70 117 -94q61 -24 141 -25q285 0 348 385l16 103q-122 -152 -277 -152t-230 101q-74 100 -74 276zM233 324
q0 -250 209 -248q144 0 239 146q34 52 46 130l80 482q-43 30 -88 36t-114 6t-139 -46q-70 -48 -121 -123q-112 -164 -112 -383zM680 1065q-233 0 -225 276q73 27 88 -7q8 -16 19 -74q21 -108 124 -109q108 0 164 123q26 57 42 67q38 25 91 -4q-39 -133 -111 -203t-192 -69z
" />
    <glyph glyph-name="Gdotaccent" unicode="&#x120;" horiz-adv-x="1232" 
d="M806 1395q144 0 251 -56q47 -25 101 -87q22 -25 22 -58t-56 -70h-18q-55 100 -131 132q-77 32 -181 32t-201 -61q-197 -124 -271 -409q-37 -138 -37 -262q0 -341 191 -445q66 -35 170 -35t184 41t126 86l66 385h-287l19 102h405l-86 -514q-162 -203 -455 -207
q-239 0 -357 170q-105 152 -103 389q0 160 43 316t127 278t209 197q125 76 269 76zM817 1487q-45 1 -65 25t-20 64t26 76q27 36 72 36t65 -29q21 -29 21 -65t-27 -71q-27 -36 -72 -36z" />
    <glyph glyph-name="gdotaccent" unicode="&#x121;" horiz-adv-x="962" 
d="M111 346q0 230 138 417q67 91 162 150t207 59q177 1 314 -100l-144 -864q-79 -473 -469 -473q-147 0 -235 62q-29 23 -46 39t-18 40q-1 23 21 45l29 31q57 -70 117 -94q61 -24 141 -25q285 0 348 385l16 103q-122 -152 -277 -152t-230 101q-74 100 -74 276zM233 324
q0 -250 209 -248q144 0 239 146q34 52 46 130l80 482q-43 30 -88 36t-114 6t-139 -46q-70 -48 -121 -123q-112 -164 -112 -383zM661 1108q-45 0 -65 25t-20 65t26 75q27 36 72 36t65 -29q21 -28 21 -64t-27 -72t-72 -36z" />
    <glyph glyph-name="Gcommaaccent" unicode="&#x122;" horiz-adv-x="1232" 
d="M806 1395q144 0 251 -56q47 -25 101 -87q22 -25 22 -58t-56 -70h-18q-55 100 -131 132q-77 32 -181 32t-201 -61q-197 -124 -271 -409q-37 -138 -37 -262q0 -341 191 -445q66 -35 170 -35t184 41t126 86l66 385h-287l19 102h405l-86 -514q-162 -203 -455 -207
q-239 0 -357 170q-105 152 -103 389q0 160 43 316t127 278t209 197q125 76 269 76zM514 -180q43 84 90 84t74 -19l-154 -243q-33 -52 -88 -54q-27 0 -37 9z" />
    <glyph glyph-name="gcommaaccent" unicode="&#x123;" horiz-adv-x="962" 
d="M111 346q0 230 138 417q67 91 162 150t207 59q177 1 314 -100l-144 -864q-79 -473 -469 -473q-147 0 -235 62q-29 23 -46 39t-18 40q-1 23 21 45l29 31q57 -70 117 -94q61 -24 141 -25q285 0 348 385l16 103q-122 -152 -277 -152t-230 101q-74 100 -74 276zM233 324
q0 -250 209 -248q144 0 239 146q34 52 46 130l80 482q-43 30 -88 36t-114 6t-139 -46q-70 -48 -121 -123q-112 -164 -112 -383zM801 1380q29 0 39 -8l-115 -223q-44 -85 -89 -85q-46 1 -75 19l154 244q34 53 86 53z" />
    <glyph glyph-name="Hcircumflex" unicode="&#x124;" horiz-adv-x="1224" 
d="M370 1374q26 0 51 -27q26 -27 17 -77l-84 -510h654l102 612q10 2 36 2t48 -24t23 -46q0 -24 -3 -34l-210 -1270h-121l108 657h-653l-109 -657h-120l225 1372q10 2 36 2zM949 1462q-25 0 -38 9q-12 9 -24 28l-92 127l-127 -121q-53 -53 -111 -34q-14 5 -25 16l179 186
q27 27 45 41t51 14t51 -16q18 -18 35 -47l115 -186q-34 -17 -59 -17z" />
    <glyph glyph-name="hcircumflex" unicode="&#x125;" horiz-adv-x="1005" 
d="M807 694q0 176 -166 176q-183 0 -280 -158q-32 -52 -44 -122l-98 -590h-119l240 1454q10 2 36 2t50 -27t16 -77l-86 -527q54 63 136 105t164 43q139 0 204 -75q64 -75 66 -196q0 -70 -15 -145l-92 -557h-119l93 557q14 101 14 137zM772 1524q-26 0 -39 9q-12 9 -24 28
l-93 127l-127 -121q-39 -39 -76 -39t-59 20l178 187q28 27 46 41t51 14t51 -17t35 -47l114 -186q-31 -16 -57 -16z" />
    <glyph glyph-name="Hbar" unicode="&#x126;" horiz-adv-x="1224" 
d="M1008 760l47 282h-656l-45 -282h654zM370 1374q26 0 48 -23t22 -43v-15q0 -15 -2 -23l-22 -127h655l39 229q10 2 36 2t48.5 -23t22.5 -43v-15q0 -15 -3 -23l-22 -127h119l-17 -101h-118l-172 -1042h-121l108 657h-653l-109 -657h-120l172 1042h-121l16 101h121l37 229
q10 2 36 2z" />
    <glyph glyph-name="hbar" unicode="&#x127;" horiz-adv-x="1005" 
d="M807 694q0 176 -166 176q-184 0 -247.5 -105.5t-76.5 -174.5l-98 -590h-119l191 1157h-115l17 98h114l33 199q10 2 36 2t47 -23t21 -43v-15q0 -15 -2 -23l-16 -97h381l-16 -98h-381l-54 -332q55 63 136.5 105.5t163.5 42.5q143 0 206.5 -77t63.5 -194q0 -70 -15 -145
l-92 -557h-119l93 557q14 101 14 137z" />
    <glyph glyph-name="Itilde" unicode="&#x128;" horiz-adv-x="444" 
d="M372 1374q26 0 50 -26q25 -26 16 -78l-209 -1270h-120l227 1372q10 2 36 2zM494 1505q-31 1 -58 13q-28 12 -54 25t-54 25t-59 13q-33 0 -65 -13t-65 -75q-37 16 -43 47q-11 58 80 115q42 25 96 25t82 -13t78 -39q49 -26 80 -26q80 -2 137 106q41 -16 46 -47
q9 -58 -75 -125q-40 -31 -126 -31z" />
    <glyph glyph-name="itilde" unicode="&#x129;" horiz-adv-x="415" 
d="M244 126q0 -67 61 -69q27 0 51 9l9 -46q-59 -32 -119 -32t-92 35t-31 72q0 37 3 57t7 49l125 755h10q37 0 65 -22t27 -64l-6 -51l-104 -631q-6 -24 -6 -62zM440 1202q80 0 138 107q41 -16 46 -47q10 -59 -76 -125q-40 -31 -102 -31t-112 26t-78 37q-60 26 -123 -1
q-33 -13 -65 -74q-37 16 -43 47q-12 60 79 114q42 25 96 25t83 -12t55 -26l52 -28q24 -12 50 -12z" />
    <glyph glyph-name="Imacron" unicode="&#x12a;" horiz-adv-x="444" 
d="M372 1374q26 0 50 -26q25 -26 16 -78l-209 -1270h-120l227 1372q10 2 36 2zM195 1520q-78 0 -78 55q0 25 6 45h469q105 0 72 -100h-469z" />
    <glyph glyph-name="imacron" unicode="&#x12b;" horiz-adv-x="415" 
d="M244 126q0 -67 61 -69q27 0 51 9l9 -46q-59 -32 -119 -32t-92 35t-31 72q0 37 3 57t7 49l125 755h10q37 0 65 -22t27 -64l-6 -51l-104 -631q-6 -24 -6 -62zM520 1243q78 0 78 -56q0 -26 -6 -44h-469q-78 0 -78 56q0 26 6 44h469z" />
    <glyph glyph-name="Ibreve" unicode="&#x12c;" horiz-adv-x="444" 
d="M372 1374q26 0 50 -26q25 -26 16 -78l-209 -1270h-120l227 1372q10 2 36 2zM401 1479q-119 0 -173 62t-50 196q28 10 54 10t34 -17t20 -73t45 -74q34 -18 78 -18q44 1 93 27t82 102q16 35 31 45t38 10t54 -14q-74 -256 -306 -256z" />
    <glyph glyph-name="ibreve" unicode="&#x12d;" horiz-adv-x="415" 
d="M244 126q0 -67 61 -69q27 0 51 9l9 -46q-59 -32 -119 -32t-92 35t-31 72q0 37 3 57t7 49l125 755h10q37 0 65 -22t27 -64l-6 -51l-104 -631q-6 -24 -6 -62zM324 1065q-234 0 -226 276q73 27 88 -7q8 -16 20 -74q22 -108 124 -109q108 0 164 123q26 57 42 67q38 25 91 -4
q-39 -133 -111 -203t-192 -69z" />
    <glyph glyph-name="Iogonek" unicode="&#x12e;" horiz-adv-x="444" 
d="M127 -328q39 0 88 52q31 -24 31 -48t-16 -41q-41 -45 -117 -45q-154 0 -154 127q0 68 42.5 143t107.5 140l227 1372q10 2 36 2t47 -23t21 -43v-15q0 -15 -2 -23l-209 -1270q-106 -84 -134.5 -155.5t-28.5 -108.5q0 -64 61 -64z" />
    <glyph glyph-name="iogonek" unicode="&#x12f;" horiz-adv-x="415" 
d="M244 129q0 -72 61 -72q27 0 51 9l9 -46q-116 -68 -155.5 -154.5t-39.5 -129.5q0 -64 61 -64q39 0 88 52q31 -24 31 -48q0 -46 -50 -66t-104 -20t-93.5 31t-39.5 96q0 133 158 273q-98 15 -98 119q0 23 3 43t7 49l125 755h10q37 0 64.5 -22.5t27.5 -63.5l-6 -51l-104 -631
q-6 -24 -6 -59zM345 1114q-79 0 -79 80q0 41 24.5 75t65.5 34t59.5 -24.5t18.5 -60.5t-23 -70q-24 -34 -66 -34z" />
    <glyph glyph-name="Idotaccent" unicode="&#x130;" horiz-adv-x="444" 
d="M372 1374q26 0 50 -26q25 -26 16 -78l-209 -1270h-120l227 1372q10 2 36 2zM412 1487q-86 0 -86 89q0 40 26 76q27 36 72 36t65 -29q21 -29 21 -65t-27 -71q-27 -36 -71 -36z" />
    <glyph glyph-name="dotlessi" unicode="&#x131;" horiz-adv-x="415" 
d="M244 129q0 -72 61 -72q27 0 51 9l9 -46q-59 -32 -119 -32t-91.5 34.5t-31.5 86.5q0 23 3 43t7 49l125 755h10q37 0 64.5 -22.5t27.5 -63.5l-6 -51l-104 -631q-6 -24 -6 -59z" />
    <glyph glyph-name="IJ" unicode="&#x132;" horiz-adv-x="892" 
d="M372 1374q26 0 50 -26q25 -26 16 -78l-209 -1270h-120l227 1372q10 2 36 2zM824 1376q87 0 48 -174l-131 -811q-40 -244 -101 -335t-181 -93q-99 0 -103 76q0 14 9 35q120 0 168 45t73 192l176 1061q16 4 42 4z" />
    <glyph glyph-name="ij" unicode="&#x133;" horiz-adv-x="817" 
d="M340 1114q-72 0 -74 80q0 41 25 75t65 34t60 -25q18 -24 18 -60t-23 -70q-24 -34 -71 -34zM123 95q0 37 3 57t7 49l125 755h10q37 0 65 -22t27 -64q0 -12 -2 -26l-108 -656q-6 -38 -6 -69q0 -60 61 -62q27 0 51 9l9 -46q-59 -32 -119 -32t-92 35t-31 72zM756 1114
q-78 0 -78 80q0 41 24 75q25 34 66 34t59 -25q19 -24 19 -60t-24 -70t-66 -34zM326 -465q-58 0 -60 74v18h19q139 0 182 135q14 45 22 93l181 1101h10q36 0 64 -22t28 -50q0 -26 -2 -40l-160 -965q-33 -211 -121 -287q-63 -57 -163 -57z" />
    <glyph glyph-name="Jcircumflex" unicode="&#x134;" horiz-adv-x="487" 
d="M419 1376q82 0 48 -174l-131 -811q-40 -246 -101 -336t-182 -92q-98 0 -102 76q0 14 8 35q120 0 168 45q49 45 74 192l176 1061q16 4 42 4zM613 1462q-25 0 -38 9q-12 9 -24 28l-92 127l-127 -121q-53 -53 -111 -34q-14 5 -24 16l178 186q27 27 45 41t51 14t51 -16
q18 -18 35 -47l115 -186q-34 -17 -59 -17z" />
    <glyph glyph-name="jcircumflex" unicode="&#x135;" horiz-adv-x="405" 
d="M-84 -465q-43 0 -52 26t-9 48v18h18q139 0 182 135q14 45 23 93l180 1101h10q37 0 65 -22t27 -64l-6 -51l-155 -940q-33 -211 -121 -287q-63 -57 -162 -57zM563 1090q-34 -17 -64 -17t-55 37l-92 150l-149 -144q-39 -39 -74 -39t-53 21l196 219q25 27 42 41t50 14
q34 0 50 -17t32 -46z" />
    <glyph glyph-name="Kcommaaccent" unicode="&#x136;" horiz-adv-x="1001" 
d="M372 1374q26 0 50 -26q25 -26 16 -78l-209 -1270h-120l227 1372q10 2 36 2zM876 -18q-36 0 -62 13t-48 54l-385 662l8 51l567 561q50 51 98 51t79 -24l-623 -615l432 -743q-30 -10 -66 -10zM408 -180q43 84 90 84t73 -19l-153 -243q-33 -52 -88 -54q-27 0 -37 9z" />
    <glyph glyph-name="kcommaaccent" unicode="&#x137;" horiz-adv-x="864" 
d="M756 -12q-38 0 -63 13q-26 13 -54 56l-281 449l9 51l348 328q72 72 131 71q24 0 45 -14l22 -16l-430 -394l267 -423q16 -25 36 -44t76 1l10 -46q-12 -10 -45 -21t-71 -11zM376 1456q26 0 50 -27t16 -77l-223 -1352h-119l240 1454q10 2 36 2zM330 -180q43 84 90 84t74 -19
l-154 -243q-33 -52 -88 -54q-27 0 -37 9z" />
    <glyph glyph-name="kgreenlandic" unicode="&#x138;" horiz-adv-x="849" 
d="M746 -12q-38 0 -63.5 14t-53.5 55l-275 412l8 51l363 385q51 51 99 51t75 -28l-420 -434l260 -385q16 -23 30.5 -37.5t36.5 -14.5t46 9l10 -46q-12 -10 -45 -21t-71 -11zM294 956q26 0 47 -23t21 -43v-15q0 -15 -2 -23l-141 -852h-119l158 954q10 2 36 2z" />
    <glyph glyph-name="Lacute" unicode="&#x139;" horiz-adv-x="872" 
d="M735 102q78 0 78 -58q0 -26 -4 -44h-700l225 1372q10 2 36 2t52 -26q25 -26 16 -78l-192 -1168h489zM622 1714q36 0 58 -19t29 -38l-279 -174q-33 -21 -72 -21t-57 33l229 178q56 41 92 41z" />
    <glyph glyph-name="lacute" unicode="&#x13a;" horiz-adv-x="415" 
d="M123 95q0 37 3 57t7 49l207 1253q10 2 36 2t48 -24t20 -44q0 -22 -2 -36l-192 -1164q-6 -36 -6 -68q0 -61 61 -63q27 0 51 9l9 -46q-59 -32 -119 -32t-92 35t-31 72zM590 1796q34 0 56 -19t30 -38l-279 -174q-33 -21 -71 -21t-58 33l230 178q57 41 92 41z" />
    <glyph glyph-name="Lcommaaccent" unicode="&#x13b;" horiz-adv-x="872" 
d="M735 102q78 0 78 -58q0 -26 -4 -44h-700l225 1372q10 2 36 2t52 -26q25 -26 16 -78l-192 -1168h489zM371 -180q43 84 90 84t74 -19l-154 -243q-33 -52 -88 -54q-27 0 -37 9z" />
    <glyph glyph-name="lcommaaccent" unicode="&#x13c;" horiz-adv-x="415" 
d="M123 95q0 37 3 57t7 49l207 1253q10 2 36 2t48 -24t20 -44q0 -22 -2 -36l-192 -1164q-6 -36 -6 -68q0 -61 61 -63q27 0 51 9l9 -46q-59 -32 -119 -32t-92 35t-31 72zM109 -180q43 84 90 84t73 -19l-153 -243q-33 -52 -88 -54q-27 0 -37 9z" />
    <glyph glyph-name="Lcaron" unicode="&#x13d;" horiz-adv-x="872" 
d="M735 102q78 0 78 -58q0 -26 -4 -44h-700l225 1372q10 2 36 2t52 -26q25 -26 16 -78l-192 -1168h489zM606 961h-14q47 286 55 333t34 65q25 17 50 17t43 -6l-72 -338q-8 -33 -34 -52t-62 -19z" />
    <glyph glyph-name="lcaron" unicode="&#x13e;" horiz-adv-x="505" 
d="M123 95q0 37 3 57t7 49l207 1253q10 2 36 2t48 -24t20 -44q0 -22 -2 -36l-192 -1164q-6 -36 -6 -68q0 -61 61 -63q27 0 51 9l9 -46q-59 -32 -119 -32t-92 35t-31 72zM618 1437q25 17 49 17t44 -6l-72 -338q-8 -33 -35 -52t-61 -20h-15l47 287q4 23 11 59t32 53z" />
    <glyph glyph-name="Ldot" unicode="&#x13f;" horiz-adv-x="872" 
d="M735 102q78 0 78 -58q0 -26 -4 -44h-700l225 1372q10 2 36 2t52 -26q25 -26 16 -78l-192 -1168h489zM734 631q-69 0 -81 69q-4 43 21 81t67 38t59 -21q46 -60 1 -129q-25 -38 -67 -38z" />
    <glyph glyph-name="ldot" unicode="&#x140;" horiz-adv-x="612" 
d="M123 95q0 37 3 57t7 49l207 1253q10 2 36 2t48 -24t20 -44q0 -22 -2 -36l-192 -1164q-6 -36 -6 -68q0 -61 61 -63q27 0 51 9l9 -46q-59 -32 -119 -32t-92 35t-31 72zM584 680q-86 0 -86 90q0 40 26 75q27 36 72 36q46 0 66 -29q20 -28 20 -64t-27 -72t-71 -36z" />
    <glyph glyph-name="Lslash" unicode="&#x141;" horiz-adv-x="872" 
d="M735 102q43 0 60.5 -16t17.5 -36v-18t-4 -32h-700l88 539l-131 -45l-29 92l176 61l121 725q10 2 36 2t48 -23t22 -43v-15t-2 -23l-96 -580l379 131l29 -92l-426 -147l-78 -480h489z" />
    <glyph glyph-name="lslash" unicode="&#x142;" horiz-adv-x="569" 
d="M326 129q0 -72 61 -72q27 0 51 9l8 -46q-58 -32 -118 -32t-91.5 34.5t-31.5 86.5q0 23 3 43t7 49l80 487l-160 -86l-45 82l223 119l109 651q10 2 36 2t47 -23t21 -43v-15q0 -15 -2 -23l-82 -494l170 92l45 -82l-233 -125l-92 -555q-6 -24 -6 -59z" />
    <glyph glyph-name="Nacute" unicode="&#x143;" horiz-adv-x="1245" 
d="M386 1374q51 0 77 -53l483 -1139l193 1190q9 2 35 2t47 -23q20 -23 20 -47t-2 -34l-211 -1270h-117l-499 1163l-189 -1163h-114l225 1364q26 10 52 10zM993 1714q35 0 57 -19t29 -38l-278 -174q-33 -21 -72 -21t-57 33l229 178q57 41 92 41z" />
    <glyph glyph-name="nacute" unicode="&#x144;" horiz-adv-x="1005" 
d="M807 694q0 176 -166 176q-183 0 -280 -158q-32 -52 -44 -122l-98 -590h-119l158 956h10q37 0 62 -22t24 -50q-1 -27 -4 -65q55 66 138 110q82 44 166 44q208 0 257 -168q29 -102 0 -248l-92 -557h-119l93 557q14 101 14 137zM655 1094q-29 -29 -69 -29t-60 22l185 226
q47 59 96 59t84 -35z" />
    <glyph glyph-name="Ncommaaccent" unicode="&#x145;" horiz-adv-x="1245" 
d="M386 1374q51 0 77 -53l483 -1139l193 1190q9 2 35 2t47 -23q20 -23 20 -47t-2 -34l-211 -1270h-117l-499 1163l-189 -1163h-114l225 1364q26 10 52 10zM477 -180q43 84 90 84t74 -19l-154 -243q-33 -52 -88 -54q-27 0 -37 9z" />
    <glyph glyph-name="ncommaaccent" unicode="&#x146;" horiz-adv-x="1005" 
d="M807 694q0 176 -166 176q-183 0 -280 -158q-32 -52 -44 -122l-98 -590h-119l158 956h10q37 0 62 -22t24 -50q-1 -27 -4 -65q55 66 138 110q82 44 166 44q208 0 257 -168q29 -102 0 -248l-92 -557h-119l93 557q14 101 14 137zM362 -180q43 84 91 84t73 -19l-153 -243
q-33 -52 -88 -54q-27 0 -37 9z" />
    <glyph glyph-name="Ncaron" unicode="&#x147;" horiz-adv-x="1245" 
d="M386 1374q51 0 77 -53l483 -1139l193 1190q9 2 35 2t47 -23q20 -23 20 -47t-2 -34l-211 -1270h-117l-499 1163l-189 -1163h-114l225 1364q26 10 52 10zM648 1747q26 0 38 -9t25 -28l92 -127l127 121q38 39 76 39t59 -21l-178 -186q-27 -27 -45 -41t-51 -14t-52 17
q-18 17 -34 46l-115 187q32 16 58 16z" />
    <glyph glyph-name="ncaron" unicode="&#x148;" horiz-adv-x="1005" 
d="M807 694q0 176 -166 176q-183 0 -280 -158q-32 -52 -44 -122l-98 -590h-119l158 956h10q37 0 62 -22t24 -50q-1 -27 -4 -65q55 66 138 110q82 44 166 44q208 0 257 -168q29 -102 0 -248l-92 -557h-119l93 557q14 101 14 137zM446 1348q32 16 64 16t55 -37l92 -149
l150 143q39 39 74 39t53 -21l-197 -219q-25 -27 -42 -41t-50 -14t-49 17t-33 46z" />
    <glyph glyph-name="napostrophe" unicode="&#x149;" horiz-adv-x="1005" 
d="M807 694q0 176 -166 176q-183 0 -280 -158q-32 -52 -44 -122l-98 -590h-119l158 956h10q37 0 62 -22t24 -50q-1 -27 -4 -65q55 66 138 110q82 44 166 44q208 0 257 -168q29 -102 0 -248l-92 -557h-119l93 557q14 101 14 137zM289 1297q0 56 29 89q30 33 71 33
q82 0 82 -87t-48 -175t-126 -119q-15 -6 -33 -6q-45 0 -53 45q45 22 85 54t50 90q-57 20 -57 76z" />
    <glyph glyph-name="Eng" unicode="&#x14a;" horiz-adv-x="1245" 
d="M710 -348q-72 0 -85 15t-13 39t13 50q16 -4 18 -4h21q196 0 243 256l-495 1155l-189 -1163h-114l225 1364q27 10 52 10q53 0 77 -53l483 -1139l193 1190q9 2 35 2t46.5 -23t20.5 -43v-15q0 -15 -2 -23l-203 -1223q-25 -168 -77 -243.5t-114.5 -113.5t-134.5 -38z" />
    <glyph glyph-name="eng" unicode="&#x14b;" horiz-adv-x="1005" 
d="M654 973q144 0 208 -77t64 -194q0 -70 -15 -145l-112 -678q-33 -211 -121 -287q-63 -57 -162 -57q-43 0 -52 25.5t-9 48.5v18h18q139 0 168 90t37 138l115 702q14 102 14 137q0 176 -166 176q-184 0 -247.5 -105.5t-76.5 -174.5l-98 -590h-119l158 956h10
q37 0 61.5 -22.5t24.5 -63.5l-2 -32q-2 -8 -2 -19q55 66 137.5 110t166.5 44z" />
    <glyph glyph-name="Omacron" unicode="&#x14c;" horiz-adv-x="1280" 
d="M606 -31q-141 0 -222 45t-131 119q-97 144 -95 361q0 160 40 320q85 342 323 500q121 81 263 81t223 -45q226 -126 226 -510q0 -130 -40 -290t-121 -290q-81 -129 -203 -210t-263 -81zM1106 835q0 319 -167 420q-59 35 -161 35t-197 -68q-189 -134 -262 -432
q-61 -250 -18 -454q33 -158 145 -227q57 -35 158 -35t197 66q193 135 268 434q37 144 37 261zM1034 1620q78 0 78 -56q0 -26 -6 -44h-469q-103 0 -72 100h469z" />
    <glyph glyph-name="omacron" unicode="&#x14d;" horiz-adv-x="987" 
d="M455 68q160 0 261 156t100 357q-1 202 -118 270q-40 23 -112 23t-139 -42t-113 -114q-98 -158 -97 -358t115 -269q41 -24 103 -23zM117 370q0 90 33 202q70 237 249 346q93 55 197 55t166 -34q176 -98 176 -342t-131 -435t-363 -193q-90 0 -152 33q-175 93 -175 368z
M827 1243q78 0 78 -56q0 -26 -6 -44h-469q-105 0 -72 100h469z" />
    <glyph glyph-name="Obreve" unicode="&#x14e;" horiz-adv-x="1280" 
d="M606 -31q-141 0 -222 45t-131 119q-97 144 -95 361q0 160 40 320q85 342 323 500q121 81 263 81t223 -45q226 -126 226 -510q0 -130 -40 -290t-121 -290q-81 -129 -203 -210t-263 -81zM1106 835q0 319 -167 420q-59 35 -161 35t-197 -68q-189 -134 -262 -432
q-61 -250 -18 -454q33 -158 145 -227q57 -35 158 -35t197 66q193 135 268 434q37 144 37 261zM850 1479q-119 0 -173 62t-50 196q27 10 53 10t35 -17q8 -17 19 -73t45 -74t78 -18q44 1 93 27t82 102q16 35 32 45t38 10q23 0 53 -14q-74 -256 -305 -256z" />
    <glyph glyph-name="obreve" unicode="&#x14f;" horiz-adv-x="987" 
d="M455 68q160 0 261 156t100 357q-1 202 -118 270q-40 23 -112 23t-139 -42t-113 -114q-98 -158 -97 -358t115 -269q41 -24 103 -23zM117 370q0 90 33 202q70 237 249 346q93 55 197 55t166 -34q176 -98 176 -342t-131 -435t-363 -193q-90 0 -152 33q-175 93 -175 368z
M651 1065q-233 0 -225 276q73 27 88 -7q8 -16 19 -74q21 -108 124 -109q111 0 165 123q24 57 40 67q40 26 92 -4q-38 -133 -110 -203t-193 -69z" />
    <glyph glyph-name="Ohungarumlaut" unicode="&#x150;" horiz-adv-x="1280" 
d="M606 -31q-141 0 -222 45t-131 119q-97 144 -95 361q0 160 40 320q85 342 323 500q121 81 263 81t223 -45q226 -126 226 -510q0 -130 -40 -290t-121 -290q-81 -129 -203 -210t-263 -81zM1106 835q0 319 -167 420q-59 35 -161 35t-197 -68q-189 -134 -262 -432
q-61 -250 -18 -454q33 -158 145 -227q57 -35 158 -35t197 66q193 135 268 434q37 144 37 261zM1214 1714q36 0 58 -19t28 -38l-278 -174q-33 -21 -72 -21t-57 33l229 178q56 41 92 41zM891 1714q35 0 57 -19t29 -38l-279 -174q-34 -21 -72 -21t-57 33l230 178q57 41 92 41z
" />
    <glyph glyph-name="ohungarumlaut" unicode="&#x151;" horiz-adv-x="987" 
d="M455 68q160 0 261 156t100 357q-1 202 -118 270q-40 23 -112 23t-139 -42t-113 -114q-98 -158 -97 -358t115 -269q41 -24 103 -23zM117 370q0 90 33 202q70 237 249 346q93 55 197 55t166 -34q176 -98 176 -342t-131 -435t-363 -193q-90 0 -152 33q-175 93 -175 368z
M831 1094q-29 -29 -65 -29t-53 22l188 226q47 59 91 59t79 -35zM549 1094q-29 -29 -64 -29t-55 22l188 226q47 59 92 59t78 -35z" />
    <glyph glyph-name="OE" unicode="&#x152;" horiz-adv-x="1632" 
d="M807 1268q-249 0 -385.5 -220t-136.5 -556q0 -176 73.5 -283t237.5 -107h235l193 1166h-217zM1458 102q43 0 60.5 -16t17.5 -36v-18q0 -18 -4 -32h-940q-225 0 -329.5 133.5t-104.5 360.5q0 364 119.5 546.5t244.5 256t297 73.5h901q0 -43 -17 -72.5t-71 -29.5h-483
l-84 -500h420l-17 -102h-419l-95 -564h504z" />
    <glyph glyph-name="oe" unicode="&#x153;" horiz-adv-x="1564" 
d="M948 485h39q202 0 324.5 71t122.5 192q0 53 -29 91t-103 38t-165 -46.5t-162 -191.5q-33 -70 -47 -152q16 -2 20 -2zM815 593q0 123 -54 202t-165 79q-163 0 -260.5 -155t-97.5 -359t77.5 -248t142.5 -44q127 0 217.5 102.5t125.5 269.5l8 56q6 45 6 97zM1159 68
q163 0 268 133l27 -27q21 -22 21 -46t-74 -91.5t-256 -67.5q-247 0 -322 224q-63 -96 -153 -160t-203 -64t-175.5 33t-118.5 111.5t-56 213.5q0 134 32.5 245.5t95 200.5t155 144.5t212.5 55.5q227 0 299 -232q162 232 392 232q121 0 185 -59.5t64 -157.5
q0 -174 -158.5 -264.5t-369.5 -90.5h-43q-43 0 -66 2v-43q0 -141 63.5 -216.5t180.5 -75.5z" />
    <glyph glyph-name="Racute" unicode="&#x154;" horiz-adv-x="1011" 
d="M893 1038q0 246 -297 246q-78 0 -160 -8l-96 -576h154q285 0 369 182q30 65 30 156zM840 -18q-38 0 -61 24q-22 24 -38 66l-219 528h-198l-99 -600h-116l227 1368q126 16 253 17q311 2 404 -201q27 -59 27 -125q0 -193 -101 -301t-272 -142l260 -622q-29 -12 -67 -12z
M854 1714q34 0 56 -19t30 -38l-278 -174q-33 -21 -72 -21t-58 33l230 178q57 41 92 41z" />
    <glyph glyph-name="racute" unicode="&#x155;" horiz-adv-x="669" 
d="M614 973q62 0 106 -29t44 -62q0 -32 -8 -44t-25 -27l-18 -14h-15q-18 47 -50 59t-62 12q-75 0 -162 -73q-86 -73 -107 -205l-98 -590h-119l158 956h10q37 0 62 -22t25 -50q0 -27 -5 -65q122 154 264 154zM549 1094q-29 -29 -71 -29t-58 22l184 226q47 59 97 59t83 -35z
" />
    <glyph glyph-name="Rcommaaccent" unicode="&#x156;" horiz-adv-x="1011" 
d="M893 1038q0 246 -297 246q-78 0 -160 -8l-96 -576h154q285 0 369 182q30 65 30 156zM840 -18q-38 0 -61 24q-22 24 -38 66l-219 528h-198l-99 -600h-116l227 1368q126 16 253 17q311 2 404 -201q27 -59 27 -125q0 -193 -101 -301t-272 -142l260 -622q-29 -12 -67 -12z
M391 -180q43 84 90 84t74 -19l-154 -243q-33 -52 -88 -54q-27 0 -37 9z" />
    <glyph glyph-name="rcommaaccent" unicode="&#x157;" horiz-adv-x="669" 
d="M614 973q62 0 106 -29t44 -62q0 -32 -8 -44t-25 -27l-18 -14h-15q-18 47 -50 59t-62 12q-75 0 -162 -73q-86 -73 -107 -205l-98 -590h-119l158 956h10q37 0 62 -22t25 -50q0 -27 -5 -65q122 154 264 154zM51 -180q43 84 90 84t74 -19l-154 -243q-33 -52 -88 -54
q-27 0 -36 9z" />
    <glyph glyph-name="Rcaron" unicode="&#x158;" horiz-adv-x="1011" 
d="M893 1038q0 246 -297 246q-78 0 -160 -8l-96 -576h154q285 0 369 182q30 65 30 156zM840 -18q-38 0 -61 24q-22 24 -38 66l-219 528h-198l-99 -600h-116l227 1368q126 16 253 17q311 2 404 -201q27 -59 27 -125q0 -193 -101 -301t-272 -142l260 -622q-29 -12 -67 -12z
M492 1747q26 0 38 -9t25 -28l92 -127l127 121q39 39 77 39t58 -21l-178 -186q-27 -27 -45 -41t-51 -14t-51 17t-35 46l-115 187q32 16 58 16z" />
    <glyph glyph-name="rcaron" unicode="&#x159;" horiz-adv-x="669" 
d="M614 973q62 0 106 -29t44 -62q0 -32 -8 -44t-25 -27l-18 -14h-15q-18 47 -50 59t-62 12q-75 0 -162 -73q-86 -73 -107 -205l-98 -590h-119l158 956h10q37 0 62 -22t25 -50q0 -27 -5 -65q122 154 264 154zM317 1348q32 16 64 16t55 -37l92 -149l150 143q39 39 74 39
t53 -21l-197 -219q-25 -27 -42 -41t-50 -14t-49 17t-33 46z" />
    <glyph glyph-name="Sacute" unicode="&#x15a;" horiz-adv-x="935" 
d="M109 201q125 -125 293 -125q94 0 154 22q175 66 175 247t-166 273q-214 123 -292 207t-76 213q0 163 128 261q121 96 281 96t255 -69q73 -48 73 -89t-47 -72h-19q-93 127 -268 125q-120 0 -201 -66q-80 -66 -80 -170q0 -105 81 -178q38 -34 132 -92q187 -116 247 -184
q85 -96 83 -227q0 -195 -128 -299q-128 -105 -335 -105q-159 0 -286 80q-55 35 -55 75t51 77zM803 1714q35 0 57 -19t29 -38l-279 -174q-34 -21 -72 -21t-57 33l230 178q57 41 92 41z" />
    <glyph glyph-name="sacute" unicode="&#x15b;" horiz-adv-x="763" 
d="M465 877q-100 0 -143 -43q-43 -42 -43 -92t13 -76q24 -49 126 -112t145 -98q81 -66 94 -132q38 -168 -79 -277q-84 -76 -228 -78q-182 0 -279 83q-22 17 -22 40t19 45l24 31q107 -102 236 -101q130 1 177 57q48 56 48 107q0 101 -97 164q-194 125 -226 160
q-64 70 -64 175q0 106 83 173q83 68 221 69t237 -85q57 -60 20 -101l-31 -26h-14q-82 117 -217 117zM528 1094q-29 -29 -69 -29t-60 22l185 226q47 59 96 59t84 -35z" />
    <glyph glyph-name="Scircumflex" unicode="&#x15c;" horiz-adv-x="935" 
d="M109 201q125 -125 293 -125q94 0 154 22q175 66 175 247t-166 273q-214 123 -292 207t-76 213q0 163 128 261q121 96 281 96t255 -69q73 -48 73 -89t-47 -72h-19q-93 127 -268 125q-120 0 -201 -66q-80 -66 -80 -170q0 -105 81 -178q38 -34 132 -92q187 -116 247 -184
q85 -96 83 -227q0 -195 -128 -299q-128 -105 -335 -105q-159 0 -286 80q-55 35 -55 75t51 77zM804 1462q-24 0 -38 9q-12 9 -25 28l-92 127l-127 -121q-54 -54 -110 -34q-14 5 -25 16l178 186q27 27 45 41t51 14t51 -16q18 -18 36 -47l114 -186q-34 -17 -58 -17z" />
    <glyph glyph-name="scircumflex" unicode="&#x15d;" horiz-adv-x="763" 
d="M465 877q-100 0 -143 -43q-43 -42 -43 -92t13 -76q24 -49 126 -112t145 -98q81 -66 94 -132q38 -168 -79 -277q-84 -76 -228 -78q-182 0 -279 83q-22 17 -22 40t19 45l24 31q107 -102 236 -101q130 1 177 57q48 56 48 107q0 101 -97 164q-194 125 -226 160
q-64 70 -64 175q0 106 83 173q83 68 221 69t237 -85q57 -60 20 -101l-31 -26h-14q-82 117 -217 117zM735 1090q-34 -17 -64 -17t-55 37l-92 150l-149 -144q-39 -39 -74 -39t-53 21l196 219q25 27 42 41q16 14 50 14t50 -17t32 -46z" />
    <glyph glyph-name="Scedilla" unicode="&#x15e;" horiz-adv-x="935" 
d="M109 201q125 -125 293 -125t248.5 78.5t80.5 201.5q0 169 -188.5 275t-267 191t-78.5 230q0 146 124 244.5t295 98.5q97 0 207.5 -46.5t110.5 -113.5q0 -39 -47 -70h-19q-91 125 -268 125q-118 0 -199.5 -65.5t-81.5 -171.5t59.5 -158.5t110 -83.5t103.5 -65
q134 -86 202 -163t68 -210q0 -178 -107 -280t-282 -120q-33 -33 -33 -60t10.5 -43.5t32 -52.5t21.5 -79q0 -82 -61.5 -123t-139.5 -41q-45 0 -45 45q0 20 14 49q15 -6 37 -6q96 0 97 72q0 25 -22 52.5t-31 43.5t-9 54t41 85q-157 4 -272 80q-55 35 -55 75t51 77z" />
    <glyph glyph-name="scedilla" unicode="&#x15f;" horiz-adv-x="763" 
d="M465 877q-100 0 -143 -42.5t-43 -92.5t13 -76.5t37.5 -49t61.5 -45t89 -56.5q110 -72 148 -127t38 -127q0 -131 -81.5 -206.5t-207.5 -83.5q-29 -34 -29 -59q0 -26 10.5 -42.5t32 -52.5t21.5 -79q0 -83 -62.5 -123.5t-138.5 -40.5q-45 0 -45 45q0 20 14 49q15 -6 37 -6
q96 0 96 72q0 27 -21.5 53.5t-30.5 42.5t-9 39q0 54 43 102q-142 12 -194 55.5t-52 66.5t19 44l24 31q105 -100 235 -100t178 55.5t48 107.5t-16.5 79.5t-43.5 53.5t-94 69t-150 97.5t-83 196.5q0 107 84 176.5t223 69.5t234 -86q56 -62 20 -101l-31 -26h-14
q-82 117 -217 117z" />
    <glyph glyph-name="Scaron" unicode="&#x160;" horiz-adv-x="935" 
d="M109 201q125 -125 293 -125q94 0 154 22q175 66 175 247t-166 273q-214 123 -292 207t-76 213q0 163 128 261q121 96 281 96t255 -69q73 -48 73 -89t-47 -72h-19q-93 127 -268 125q-120 0 -201 -66q-80 -66 -80 -170q0 -105 81 -178q38 -34 132 -92q187 -116 247 -184
q85 -96 83 -227q0 -195 -128 -299q-128 -105 -335 -105q-159 0 -286 80q-55 35 -55 75t51 77zM492 1747q26 0 38 -9t25 -28l92 -127l127 121q39 39 77 39t58 -21l-178 -186q-27 -27 -45 -41t-51 -14t-51 17t-35 46l-115 187q32 16 58 16z" />
    <glyph glyph-name="scaron" unicode="&#x161;" horiz-adv-x="763" 
d="M465 877q-100 0 -143 -43q-43 -42 -43 -92t13 -76q24 -49 126 -112t145 -98q81 -66 94 -132q38 -168 -79 -277q-84 -76 -228 -78q-182 0 -279 83q-22 17 -22 40t19 45l24 31q107 -102 236 -101q130 1 177 57q48 56 48 107q0 101 -97 164q-194 125 -226 160
q-64 70 -64 175q0 106 83 173q83 68 221 69t237 -85q57 -60 20 -101l-31 -26h-14q-82 117 -217 117zM303 1348q32 16 63 16t56 -37l92 -149l150 143q40 39 74 39t53 -21l-197 -219q-25 -27 -42 -41t-50 -14t-49 17t-33 46z" />
    <glyph glyph-name="uni0162" unicode="&#x162;" horiz-adv-x="1013" 
d="M350 -131q0 72 74 131h-35l209 1268h-420q0 43 17.5 72.5t70.5 29.5h891q0 -43 -17.5 -72.5t-70.5 -29.5h-350l-209 -1268q-64 -47 -64 -96q0 -18 10.5 -34.5t32 -52.5t21.5 -79q0 -82 -61.5 -123t-139.5 -41q-45 0 -45 45q0 20 15 49q15 -6 36 -6q96 0 97 72
q0 24 -21.5 52t-31 44t-9.5 39z" />
    <glyph glyph-name="uni0163" unicode="&#x163;" horiz-adv-x="602" 
d="M371 66q84 0 143 75l21 -18q20 -20 20 -44q0 -62 -74.5 -86t-130.5 -24q-26 -36 -26 -60q0 -23 10 -39.5t31.5 -51t21.5 -79.5q0 -84 -61.5 -124.5t-139.5 -40.5q-45 0 -45 45q0 20 15 49q15 -6 37 -6q96 0 96 72q0 24 -21.5 52t-31 44t-9.5 39q0 59 49 108
q-53 12 -90 46q-59 53 -59 157q0 38 10 115l158 954q9 2 35 2t45.5 -23.5t19.5 -45.5t-2 -35l-33 -191h289l-16 -96h-285l-92 -567q-10 -62 -10 -88q0 -78 35.5 -108.5t89.5 -30.5z" />
    <glyph glyph-name="Tcaron" unicode="&#x164;" horiz-adv-x="1013" 
d="M178 1268q0 42 18 72t70 30h891q0 -43 -17 -73t-71 -29h-350l-209 -1268h-121l209 1268h-420zM545 1747q27 0 39 -9t24 -28l92 -127l127 121q39 39 77 39t59 -21l-179 -186q-27 -27 -45 -41t-51 -14t-51 17t-35 46l-115 187q32 16 58 16z" />
    <glyph glyph-name="tcaron" unicode="&#x165;" horiz-adv-x="602" 
d="M371 66q84 0 143 75l21 -18q20 -20 20 -44q0 -62 -74.5 -86t-128.5 -24q-104 0 -164.5 53.5t-60.5 157.5q0 38 10 115l158 954q9 2 35 2t45.5 -23.5t19.5 -43.5v-14q0 -15 -2 -23l-33 -191h289l-16 -96h-285l-92 -567q-10 -62 -10 -88q0 -78 35.5 -108.5t89.5 -30.5z
M528 1067h-14l41 258q4 23 13 76t83 53q19 0 37 -6l-65 -309q-8 -33 -34 -52.5t-61 -19.5z" />
    <glyph glyph-name="Tbar" unicode="&#x166;" horiz-adv-x="1013" 
d="M180 1268q0 43 17.5 72.5t70.5 29.5h891q0 -43 -17.5 -72.5t-70.5 -29.5h-350l-94 -566h356l-16 -100h-357l-98 -602h-121l98 602h-323l16 100h324l94 566h-420z" />
    <glyph glyph-name="tbar" unicode="&#x167;" horiz-adv-x="602" 
d="M371 66q84 0 143 75l21 -18q20 -20 20 -44q0 -62 -74.5 -86t-128.5 -24q-104 0 -164.5 53.5t-60.5 157.5q0 38 10 115l158 954q9 2 35 2t45.5 -23.5t19.5 -43.5v-14q0 -15 -2 -23l-33 -191h289l-16 -96h-285l-47 -282h285l-17 -97h-282l-31 -188q-10 -62 -10 -88
q0 -78 35.5 -108.5t89.5 -30.5z" />
    <glyph glyph-name="Utilde" unicode="&#x168;" horiz-adv-x="1163" 
d="M156 358q0 84 20 201l133 813q10 2 36 2q27 0 49 -24t22 -46t-2 -34l-121 -733q-12 -94 -12 -170q0 -297 293 -296q151 1 242 107t126 324l143 870q10 2 36 2q25 0 47 -24t22 -46t-2 -34l-125 -756q-38 -250 -131 -379q-120 -166 -369 -166q-211 -1 -309 101t-98 288z
M866 1505q-32 1 -58 13t-78 38t-86 25q-34 0 -66 -13t-66 -75q-37 16 -43 47q-5 30 17 60q61 80 178 79q50 -1 98 -27q47 -26 72 -38t51 -12q79 -2 137 106q41 -16 46 -47q4 -31 -16 -63t-60 -62q-40 -31 -126 -31z" />
    <glyph glyph-name="utilde" unicode="&#x169;" horiz-adv-x="978" 
d="M696 109v16q-55 -66 -126 -111q-72 -45 -188 -45t-184 70t-67 199q0 61 12 135l95 583h10q36 0 64 -22t28 -50q0 -26 -6 -65l-74 -446q-10 -72 -10 -141q0 -68 40 -114t140 -46t187 77t110 205l100 602h11q36 0 64 -22t28 -50q0 -26 -6 -65l-105 -631q-6 -38 -6 -69
q0 -60 61 -62q27 0 52 9l8 -46q-59 -32 -119 -32q-59 0 -89 35t-30 86zM713 1202q79 0 137 107q41 -16 46 -47q10 -61 -76 -125q-40 -31 -103 -31t-134 37t-108 38t-69 -13t-66 -74q-37 16 -43 47q-12 60 80 114q41 25 95 25t84 -12q28 -12 77 -39q50 -27 80 -27z" />
    <glyph glyph-name="Umacron" unicode="&#x16a;" horiz-adv-x="1163" 
d="M156 358q0 84 20 201l133 813q10 2 36 2q27 0 49 -24t22 -46t-2 -34l-121 -733q-12 -94 -12 -170q0 -297 293 -296q151 1 242 107t126 324l143 870q10 2 36 2q25 0 47 -24t22 -46t-2 -34l-125 -756q-38 -250 -131 -379q-120 -166 -369 -166q-211 -1 -309 101t-98 288z
M948 1620q78 0 78 -56q0 -26 -6 -44h-469q-78 0 -78 55q0 25 6 45h469z" />
    <glyph glyph-name="umacron" unicode="&#x16b;" horiz-adv-x="978" 
d="M696 109v16q-55 -66 -126 -111q-72 -45 -188 -45t-184 70t-67 199q0 61 12 135l95 583h10q36 0 64 -22t28 -50q0 -26 -6 -65l-74 -446q-10 -72 -10 -141q0 -68 40 -114t140 -46t187 77t110 205l100 602h11q36 0 64 -22t28 -50q0 -26 -6 -65l-105 -631q-6 -38 -6 -69
q0 -60 61 -62q27 0 52 9l8 -46q-59 -32 -119 -32q-59 0 -89 35t-30 86zM793 1243q77 0 77 -56q0 -26 -6 -44h-469q-75 0 -77 57q0 27 6 43h469z" />
    <glyph glyph-name="Ubreve" unicode="&#x16c;" horiz-adv-x="1163" 
d="M156 358q0 84 20 201l133 813q10 2 36 2q27 0 49 -24t22 -46t-2 -34l-121 -733q-12 -94 -12 -170q0 -297 293 -296q151 1 242 107t126 324l143 870q10 2 36 2q25 0 47 -24t22 -46t-2 -34l-125 -756q-38 -250 -131 -379q-120 -166 -369 -166q-211 -1 -309 101t-98 288z
M758 1479q-119 0 -173 62t-50 196q27 10 53 10t35 -17q8 -17 19 -73t45 -74t78 -18q44 1 93 27t82 102q16 35 32 45t38 10q23 0 53 -14q-74 -256 -305 -256z" />
    <glyph glyph-name="ubreve" unicode="&#x16d;" horiz-adv-x="978" 
d="M696 109v16q-55 -66 -126 -111q-72 -45 -188 -45t-184 70t-67 199q0 61 12 135l95 583h10q36 0 64 -22t28 -50q0 -26 -6 -65l-74 -446q-10 -72 -10 -141q0 -68 40 -114t140 -46t187 77t110 205l100 602h11q36 0 64 -22t28 -50q0 -26 -6 -65l-105 -631q-6 -38 -6 -69
q0 -60 61 -62q27 0 52 9l8 -46q-59 -32 -119 -32q-59 0 -89 35t-30 86zM592 1065q-233 0 -225 276q73 27 88 -7q8 -16 19 -74q21 -108 124 -109q108 0 164 123q26 57 42 67q38 25 91 -4q-39 -133 -111 -203t-192 -69z" />
    <glyph glyph-name="Uring" unicode="&#x16e;" horiz-adv-x="1163" 
d="M156 358q0 84 20 201l133 813q10 2 36 2q27 0 49 -24t22 -46t-2 -34l-121 -733q-12 -94 -12 -170q0 -297 293 -296q151 1 242 107t126 324l143 870q10 2 36 2q25 0 47 -24t22 -46t-2 -34l-125 -756q-38 -250 -131 -379q-120 -166 -369 -166q-211 -1 -309 101t-98 288z
M736 1520q56 0 89 41t33 95t-34 95t-88 41t-88 -41t-34 -94t33 -95t89 -42zM738 1442q-98 0 -155 62t-57 152t56 153t155 63q97 0 153 -64t56 -152t-55 -151t-153 -63z" />
    <glyph glyph-name="uring" unicode="&#x16f;" horiz-adv-x="978" 
d="M696 109v16q-55 -66 -126 -111q-72 -45 -188 -45t-184 70t-67 199q0 61 12 135l95 583h10q36 0 64 -22t28 -50q0 -26 -6 -65l-74 -446q-10 -72 -10 -141q0 -68 40 -114t140 -46t187 77t110 205l100 602h11q36 0 64 -22t28 -50q0 -26 -6 -65l-105 -631q-6 -38 -6 -69
q0 -60 61 -62q27 0 52 9l8 -46q-59 -32 -119 -32q-59 0 -89 35t-30 86zM589 1143q56 0 89 41t33 95t-34 95t-88 41t-88 -41t-34 -94t33 -95t89 -42zM590 1065q-98 0 -155 62q-56 63 -56 153t56 152q57 62 155 63q98 0 153 -63t55 -152t-55 -152t-153 -63z" />
    <glyph glyph-name="Uhungarumlaut" unicode="&#x170;" horiz-adv-x="1163" 
d="M156 358q0 84 20 201l133 813q10 2 36 2q27 0 49 -24t22 -46t-2 -34l-121 -733q-12 -94 -12 -170q0 -297 293 -296q151 1 242 107t126 324l143 870q10 2 36 2q25 0 47 -24t22 -46t-2 -34l-125 -756q-38 -250 -131 -379q-120 -166 -369 -166q-211 -1 -309 101t-98 288z
M1126 1714q36 0 58 -19t28 -38l-278 -174q-33 -21 -72 -21t-57 33l229 178q56 41 92 41zM803 1714q35 0 57 -19t29 -38l-279 -174q-34 -21 -72 -21t-57 33l230 178q57 41 92 41z" />
    <glyph glyph-name="uhungarumlaut" unicode="&#x171;" horiz-adv-x="978" 
d="M696 109v16q-55 -66 -126 -111q-72 -45 -188 -45t-184 70t-67 199q0 61 12 135l95 583h10q36 0 64 -22t28 -50q0 -26 -6 -65l-74 -446q-10 -72 -10 -141q0 -68 40 -114t140 -46t187 77t110 205l100 602h11q36 0 64 -22t28 -50q0 -26 -6 -65l-105 -631q-6 -38 -6 -69
q0 -60 61 -62q27 0 52 9l8 -46q-59 -32 -119 -32q-59 0 -89 35t-30 86zM768 1094q-29 -29 -64 -29t-55 22l189 226q47 59 91 59t79 -35zM485 1094q-29 -29 -65 -29t-53 22l188 226q47 59 91 59t79 -35z" />
    <glyph glyph-name="Uogonek" unicode="&#x172;" horiz-adv-x="1163" 
d="M563 -31q-211 0 -309 101.5t-98 287.5q0 84 20 201l133 813q10 2 36 2t48.5 -23t22.5 -43v-15q0 -15 -2 -23l-121 -733q-12 -64 -12 -155t15 -141.5t70 -109.5t207 -59t243 106.5t126 323.5l143 870q10 2 36 2t47.5 -23t21.5 -43v-15q0 -15 -2 -23l-125 -756
q-27 -182 -70 -271t-89 -141t-94 -78q-84 -44 -145 -129t-61 -154t62 -69q29 0 50 17.5t38 34.5q30 -24 30 -48q-1 -47 -50.5 -66.5t-103.5 -19.5t-93 31t-39 101t44 137t95 114q-32 -4 -74 -4z" />
    <glyph glyph-name="uogonek" unicode="&#x173;" horiz-adv-x="978" 
d="M813 129q0 -72 61 -72q27 0 52 9l8 -46q-68 -39 -131.5 -122.5t-63.5 -154.5t62 -71q29 0 50 17.5t38 34.5q31 -24 31 -48t-16 -41q-41 -45 -117 -45q-154 0 -154 127q0 105 65.5 177.5t92.5 95.5q-95 16 -95 119v16q-55 -66 -125.5 -111t-187.5 -45t-184.5 70t-67.5 199
q0 61 12 135l95 583h10q37 0 64.5 -22.5t27.5 -63.5l-6 -51l-74 -446q-10 -72 -10 -141q0 -68 40 -114t139 -46t187 76t111 206l100 602h11q37 0 64.5 -22.5t27.5 -63.5l-6 -51l-105 -631q-6 -24 -6 -59z" />
    <glyph glyph-name="Wcircumflex" unicode="&#x174;" horiz-adv-x="1579" 
d="M972 1378q54 0 60 -73l86 -1063l416 999q27 61 50 99q24 38 63 38t67 -18l-600 -1370h-86l-88 1165l-516 -1165h-92l-105 1366q19 22 55 22t53 -30t21 -95l66 -1026l493 1137q35 14 57 14zM1108 1462q-24 0 -37 9q-12 9 -24 28l-93 127l-127 -121q-54 -54 -110 -34
q-14 5 -25 16l178 186q27 27 45 41q17 14 51 14t52 -16q18 -18 35 -47l114 -186q-35 -17 -59 -17z" />
    <glyph glyph-name="wcircumflex" unicode="&#x175;" horiz-adv-x="1275" 
d="M749 973q27 -1 45 -17t25 -75l70 -703l241 586q51 125 73 157q21 32 37 42t43 10q26 0 44 -23l-424 -960h-88l-84 794l-325 -794h-84l-119 962q25 21 55 21q29 0 45 -26t23 -87l65 -672l307 770q24 15 51 15zM967 1090q-34 -17 -64 -17t-55 37l-92 150l-150 -144
q-39 -39 -74 -39t-53 21l197 219q25 27 42 41t50 14t49 -17t33 -46z" />
    <glyph glyph-name="Ycircumflex" unicode="&#x176;" horiz-adv-x="940" 
d="M258 1374q62 0 86 -78l188 -585l371 573q35 54 60 72t59 18t59 -14l-503 -766l-99 -594h-121l97 586l-262 774q35 14 65 14zM836 1462q-25 0 -37 9t-25 28l-92 127l-127 -121q-53 -53 -111 -34q-14 5 -24 16l178 186q27 27 45 41t51 14t51 -16q18 -18 35 -47l115 -186
q-34 -17 -59 -17z" />
    <glyph glyph-name="ycircumflex" unicode="&#x177;" horiz-adv-x="837" 
d="M194 956q32 0 50 -22q18 -23 26 -84l113 -729l362 747q45 88 100 88q37 0 60 -14l-573 -1151q-67 -131 -107 -175q-73 -79 -170 -81q-51 1 -81 15q-62 30 -62 69q0 16 10 33l27 35q45 -52 117 -54q49 1 88 51t92 158l73 150h-20l-168 952q31 12 63 12zM780 1090
q-34 -17 -64 -17t-54 37l-93 150l-149 -144q-39 -39 -74 -39t-53 21l196 219q25 27 42 41t51 14t49 -17q16 -17 33 -46z" />
    <glyph glyph-name="Ydieresis" unicode="&#x178;" horiz-adv-x="940" 
d="M258 1374q62 0 86 -78l188 -585l371 573q35 54 60 72t59 18t59 -14l-503 -766l-99 -594h-121l97 586l-262 774q35 14 65 14zM864 1706q62 0 72 -73q4 -35 -21 -71t-67 -36q-69 0 -80 65q-4 43 20 79q25 36 76 36zM518 1706q62 0 72 -73q4 -35 -21 -71t-67 -36
q-72 0 -80 65q-4 43 20 79q25 36 76 36z" />
    <glyph glyph-name="Zacute" unicode="&#x179;" horiz-adv-x="952" 
d="M1024 1370q63 0 63 -42q0 -29 -20 -56q-534 -619 -928 -1170h664q43 0 60 -16t17 -36t1 -27q0 -8 -4 -23h-891l12 86q385 537 926 1182h-725q0 42 17 72t71 30h737zM837 1714q35 0 57 -19t30 -38l-279 -174q-33 -21 -71 -21t-58 33l229 178q56 41 92 41z" />
    <glyph glyph-name="zacute" unicode="&#x17a;" horiz-adv-x="763" 
d="M618 102q78 0 78 -58q0 -26 -4 -44h-678l13 78q245 341 632 778h-503q0 43 17 72t71 28h514q55 0 55 -49q0 -18 -4 -37q-432 -486 -641 -768h450zM532 1094q-29 -29 -69 -29t-60 22l185 226q47 59 96 59t84 -35z" />
    <glyph glyph-name="Zdotaccent" unicode="&#x17b;" horiz-adv-x="952" 
d="M1024 1370q63 0 63 -42q0 -29 -20 -56q-534 -619 -928 -1170h664q43 0 60 -16t17 -36t1 -27q0 -8 -4 -23h-891l12 86q385 537 926 1182h-725q0 42 17 72t71 30h737zM666 1487q-86 0 -86 89q0 40 26 76q27 36 72 36t65 -29q21 -29 21 -65t-27 -71q-27 -36 -71 -36z" />
    <glyph glyph-name="zdotaccent" unicode="&#x17c;" horiz-adv-x="763" 
d="M618 102q78 0 78 -58q0 -26 -4 -44h-678l13 78q245 341 632 778h-503q0 43 17 72t71 28h514q55 0 55 -49q0 -18 -4 -37q-432 -486 -641 -768h450zM506 1108q-86 0 -86 90q0 40 26 75q27 36 72 36t66 -29q46 -67 -6 -136q-27 -36 -72 -36z" />
    <glyph glyph-name="Zcaron" unicode="&#x17d;" horiz-adv-x="952" 
d="M1024 1370q63 0 63 -42q0 -29 -20 -56q-534 -619 -928 -1170h664q43 0 60 -16t17 -36t1 -27q0 -8 -4 -23h-891l12 86q385 537 926 1182h-725q0 42 17 72t71 30h737zM510 1747q26 0 38 -9t25 -28l93 -127l127 121q39 39 77 39t58 -21l-178 -186q-27 -27 -45 -41
q-17 -14 -51 -14t-52 17t-35 46l-114 187q31 16 57 16z" />
    <glyph glyph-name="zcaron" unicode="&#x17e;" horiz-adv-x="763" 
d="M618 102q78 0 78 -58q0 -26 -4 -44h-678l13 78q245 341 632 778h-503q0 43 17 72t71 28h514q55 0 55 -49q0 -18 -4 -37q-432 -486 -641 -768h450zM309 1348q32 16 63 16t56 -37l92 -149l150 143q40 39 74 39t53 -21l-197 -219q-25 -27 -42 -41t-50 -14t-49 17t-33 46z
" />
    <glyph glyph-name="longs" unicode="&#x17f;" horiz-adv-x="403" 
d="M-109 -422q-72 0 -131 26t-59 64q0 27 14 41l23 29q70 -62 156 -62q159 0 202 283l183 1118q28 178 110 279q95 112 260 112q114 0 180 -46.5t66 -90.5q0 -23 -21 -41l-28 -24h-21q-55 104 -171 104q-172 0 -209 -112.5t-46 -159.5l-186 -1131q-29 -181 -98 -285
t-224 -104z" />
    <glyph glyph-name="florin" unicode="&#x192;" horiz-adv-x="1105" 
d="M1079 1343q0 -18 -10 -43q-140 0 -212.5 -49.5t-111.5 -195.5l-45 -166h330l-16 -103h-342l-185 -671q-93 -338 -399 -338q-51 0 -51 51q0 18 10 43q141 0 216.5 61.5t117.5 214.5l176 639h-231l16 103h244l45 172q90 334 392 334q56 0 56 -52z" />
    <glyph glyph-name="Scommaaccent" unicode="&#x218;" horiz-adv-x="935" 
d="M109 201q125 -125 293 -125q94 0 154 22q175 66 175 247t-166 273q-214 123 -292 207t-76 213q0 163 128 261q121 96 281 96t255 -69q73 -48 73 -89t-47 -72h-19q-93 127 -268 125q-120 0 -201 -66q-80 -66 -80 -170q0 -105 81 -178q38 -34 132 -92q187 -116 247 -184
q85 -96 83 -227q0 -195 -128 -299q-128 -105 -335 -105q-159 0 -286 80q-55 35 -55 75t51 77zM338 -180q43 84 90 84t74 -19l-154 -243q-33 -52 -88 -54q-27 0 -37 9z" />
    <glyph glyph-name="scommaaccent" unicode="&#x219;" horiz-adv-x="763" 
d="M465 877q-100 0 -143 -43q-43 -42 -43 -92t13 -76q24 -49 126 -112t145 -98q81 -66 94 -132q38 -168 -79 -277q-84 -76 -228 -78q-182 0 -279 83q-22 17 -22 40t19 45l24 31q107 -102 236 -101q130 1 177 57q48 56 48 107q0 101 -97 164q-194 125 -226 160
q-64 70 -64 175q0 106 83 173q83 68 221 69t237 -85q57 -60 20 -101l-31 -26h-14q-82 117 -217 117zM225 -180q43 84 91 84t73 -19l-153 -243q-33 -52 -89 -54q-27 0 -36 9z" />
    <glyph glyph-name="uni021A" unicode="&#x21a;" horiz-adv-x="1013" 
d="M178 1268q0 42 18 72t70 30h891q0 -43 -17 -73t-71 -29h-350l-209 -1268h-121l209 1268h-420zM334 -180q43 84 90 84t74 -19l-154 -243q-33 -52 -88 -54q-27 0 -37 9z" />
    <glyph glyph-name="uni021B" unicode="&#x21b;" horiz-adv-x="602" 
d="M535 123q20 -20 20 -51t-39 -55q-72 -46 -170 -47q-98 -2 -158 52t-61 158q0 40 10 115l158 954q9 2 35 2t46 -23q19 -24 19 -46t-2 -35l-33 -191h289l-16 -96h-285l-92 -567q-10 -62 -10 -88q0 -78 36 -109q67 -58 163 -11q40 19 69 56zM221 -180q43 84 90 84t74 -19
l-154 -243q-33 -52 -88 -54q-27 0 -37 9z" />
    <glyph glyph-name="dotlessj" unicode="&#x237;" horiz-adv-x="405" 
d="M-84 -465q-43 0 -52 25.5t-9 48.5v18h18q139 0 168 90t37 138l180 1101h10q37 0 64.5 -22.5t27.5 -63.5l-6 -51l-155 -940q-33 -211 -121 -287q-63 -57 -162 -57z" />
    <glyph glyph-name="apostrophe" unicode="&#x2bc;" horiz-adv-x="464" 
d="M403.5 1418.5q61.5 -0.5 61.5 -112.5q0 -62 -49.5 -150.5t-95.5 -106t-63 -17.5q-44 0 -52 45q45 22 85 54t50 90q-57 20 -57 76t29.5 89t91 32.5z" />
    <glyph glyph-name="circumflex" unicode="&#x2c6;" horiz-adv-x="696" 
d="M592 1090q-34 -17 -64 -17t-55 37l-92 150l-150 -144q-39 -39 -73 -39t-54 21l197 219q25 27 42 41t50 14t49.5 -17.5t32.5 -45.5z" />
    <glyph glyph-name="caron" unicode="&#x2c7;" horiz-adv-x="696" 
d="M104 1348q32 16 64 16t55 -37l92 -149l150 143q39 39 74 39t53 -21l-197 -219q-25 -27 -42 -41t-50 -14t-49 17.5t-33 45.5z" />
    <glyph glyph-name="uni02C9" unicode="&#x2c9;" horiz-adv-x="696" 
d="M547 1243q78 0 78 -57q0 -26 -7 -43h-468q-78 1 -78 57q0 26 6 43h469z" />
    <glyph glyph-name="breve" unicode="&#x2d8;" horiz-adv-x="696" 
d="M311 1065q-233 0 -225 276q73 27 84.5 2t22.5 -83q21 -108 124 -109q109 0 165 123q26 57 42 67.5t38 10.5t52 -15q-39 -133 -110.5 -202.5t-192.5 -69.5z" />
    <glyph glyph-name="dotaccent" unicode="&#x2d9;" horiz-adv-x="696" 
d="M342 1108q-86 0 -86 89q0 40 26.5 76t71.5 36t65.5 -28.5t20.5 -64.5t-26 -72q-27 -36 -72 -36z" />
    <glyph glyph-name="ring" unicode="&#x2da;" horiz-adv-x="696" 
d="M347 1143q56 0 89 41t33 95t-34 95t-88 41t-88 -41t-34 -94t33 -95t89 -42zM348 1065q-98 0 -154.5 62.5t-56.5 152.5t56.5 152.5t154.5 62.5t153.5 -63.5t55.5 -151.5t-55.5 -151.5t-153.5 -63.5z" />
    <glyph glyph-name="ogonek" unicode="&#x2db;" horiz-adv-x="696" 
d="M303 -264q0 -64 62 -64q29 0 50 17.5t38 34.5q31 -24 31 -48q-1 -47 -51 -66.5t-104 -19.5t-93 31t-39 90q0 99 70 186.5t149 137.5l82 -15q-116 -68 -155.5 -154.5t-39.5 -129.5z" />
    <glyph glyph-name="tilde" unicode="&#x2dc;" horiz-adv-x="696" 
d="M463 1202q81 0 137 107q41 -16 45.5 -47t-15.5 -63t-60 -62.5t-101 -30.5t-111.5 25.5t-78 38t-59.5 12.5t-64.5 -13.5t-65.5 -74.5q-37 16 -42.5 46.5t16.5 60.5q59 79 178 79q45 0 95 -26.5t74.5 -39t51.5 -12.5z" />
    <glyph glyph-name="hungarumlaut" unicode="&#x2dd;" horiz-adv-x="696" 
d="M428 1094q-29 -29 -66 -29t-53 22l189 226q47 59 91 59t79 -35zM145 1094q-29 -29 -65 -29t-53 22l188 226q47 59 92 59t78 -35z" />
    <glyph glyph-name="tonos" unicode="&#x384;" horiz-adv-x="757" 
d="M291 1071q-18 0 -43 10l117 224q34 67 99 67q32 0 62 -16l-159 -242q-28 -43 -76 -43z" />
    <glyph glyph-name="dieresistonos" unicode="&#x385;" horiz-adv-x="757" 
d="M171 1280q71 0 71 -77q0 -32 -22.5 -59.5t-59.5 -27.5q-70 0 -70 75q0 32 21.5 60.5t59.5 28.5zM573 1116q-69 0 -69 72q0 35 21.5 63.5t59.5 28.5q70 0 70 -74q0 -35 -22.5 -62.5t-59.5 -27.5zM447 1370q35 0 61 -10l-146 -264q-27 -49 -69 -49q-16 0 -37 6l102 237
q14 29 34 54.5t55 25.5z" />
    <glyph glyph-name="Alphatonos" unicode="&#x386;" horiz-adv-x="1081" 
d="M803 485l-125 713l-346 -713h471zM709 1374q52 0 61 -49l238 -1325h-121l-66 383h-542l-187 -383h-121l682 1360q29 14 56 14zM268 1051q-24 0 -41 8l109 237q14 29 34 54q37 45 122 12l-152 -264q-26 -47 -72 -47z" />
    <glyph glyph-name="Epsilontonos" unicode="&#x388;" horiz-adv-x="1087" 
d="M926 102q43 0 60 -16q18 -16 18 -36v-27q0 -8 -5 -23h-729l228 1370h690q0 -43 -18 -73t-70 -29h-496l-84 -500h432l-16 -102h-432l-94 -564h516zM147 1071q-16 0 -24 3t-19 7l117 224q34 67 100 67q32 0 62 -16l-160 -242q-28 -43 -76 -43z" />
    <glyph glyph-name="Etatonos" unicode="&#x389;" horiz-adv-x="1388" 
d="M534 1374q26 0 51 -27q26 -27 17 -77l-84 -510h653l103 612q10 2 36 2t51 -27q26 -27 17 -77l-211 -1270h-120l108 657h-653l-109 -657h-121l226 1372q10 2 36 2zM147 1071q-16 0 -24 3t-19 7l117 224q34 67 100 67q32 0 62 -16l-160 -242q-28 -43 -76 -43z" />
    <glyph glyph-name="Iotatonos" unicode="&#x38a;" horiz-adv-x="606" 
d="M534 1374q26 0 50 -26q25 -26 16 -78l-209 -1270h-121l228 1372q10 2 36 2zM147 1071q-16 0 -24 3t-19 7l117 224q34 67 100 67q32 0 62 -16l-160 -242q-28 -43 -76 -43z" />
    <glyph glyph-name="Omicrontonos" unicode="&#x38c;" horiz-adv-x="1339" 
d="M666 -31q-142 0 -223 45q-226 126 -226 510q0 130 40 290t121 290q81 129 203 210t263 81t222 -45t131 -119q97 -144 95 -361q0 -160 -40 -320q-86 -341 -324 -500q-120 -81 -262 -81zM1165 835q0 117 -17 193q-58 262 -310 262q-102 0 -198 -68q-190 -135 -261 -432
q-35 -144 -35 -261q0 -219 69 -327q79 -128 232 -128q119 -1 215 66q193 135 268 434q37 144 37 261zM147 1071q-16 0 -24 3t-19 7l117 224q34 67 100 67q32 0 62 -16l-160 -242q-28 -43 -76 -43z" />
    <glyph glyph-name="Upsilontonos" unicode="&#x38e;" horiz-adv-x="1224" 
d="M542 1374q62 0 87 -78l188 -585l371 573q35 53 59 72q25 18 59 18t60 -14l-504 -766l-98 -594h-121l96 586l-262 774q35 14 65 14zM147 1071q-16 0 -24 3t-19 7l117 224q34 67 100 67q32 0 62 -16l-160 -242q-28 -43 -76 -43z" />
    <glyph glyph-name="Omegatonos" unicode="&#x38f;" horiz-adv-x="1327" 
d="M418 102q-174 186 -174 493q0 145 40 289q84 305 312 441q115 70 247 70q232 0 341 -150t106 -364q0 -358 -214 -635q-65 -84 -140 -144h205q43 0 60 -16t17 -36t1 -28q0 -9 -5 -22h-448l16 104q178 93 281 315q102 222 100 464q0 279 -172 374q-59 33 -155 33t-185 -56
q-174 -111 -247 -376q-34 -127 -33 -268q0 -333 180 -486l-16 -104h-328q-43 0 -61 16q-17 16 -17 36v30q0 10 4 20h285zM147 1071q-16 0 -24 3t-19 7l117 224q34 67 100 67q32 0 62 -16l-160 -242q-28 -43 -76 -43z" />
    <glyph glyph-name="iotadieresistonos" unicode="&#x390;" horiz-adv-x="430" 
d="M268 -10q-144 0 -140 140q1 40 7 81l125 745h10q37 0 65 -22q27 -22 27 -50t-2 -40t-4 -25l-104 -620q-26 -138 67 -138q28 0 70 13l8 -49q-57 -35 -129 -35zM182 1280q70 0 70 -78q0 -32 -22 -58q-22 -28 -60 -28q-37 0 -53 22q-17 22 -17 54t22 60t60 28zM584 1116
q-70 0 -70 76q0 32 22 60t60 28t53 -23q17 -23 17 -55t-22 -58q-22 -28 -60 -28zM316 1047q-29 0 -50 6l103 237q14 29 33 55q18 25 54 25t62 -10l-145 -264q-28 -49 -57 -49z" />
    <glyph glyph-name="Alpha" unicode="&#x391;" horiz-adv-x="1081" 
d="M803 485l-125 713l-346 -713h471zM709 1374q52 0 61 -49l238 -1325h-121l-66 383h-542l-187 -383h-121l682 1360q29 14 56 14z" />
    <glyph glyph-name="Beta" unicode="&#x392;" horiz-adv-x="1067" 
d="M465 100q190 0 286 74q95 74 95 244q0 118 -85 177q-85 60 -218 60h-209l-92 -555h223zM553 756q162 0 247 88t86 212q0 124 -62 176t-181 52t-207 -10l-86 -518h203zM977 430q0 -430 -524 -430h-344l227 1366q158 18 274 18q117 0 191 -22q213 -65 213 -270
q0 -164 -96 -274q-70 -78 -170 -109q74 -10 152 -85q77 -76 77 -194z" />
    <glyph glyph-name="Gamma" unicode="&#x393;" horiz-adv-x="872" 
d="M1016 1370q0 -43 -17.5 -72.5t-70.5 -29.5h-486l-211 -1268h-122l227 1370h680z" />
    <glyph glyph-name="uni0394" unicode="&#x394;" horiz-adv-x="1081" 
d="M868 102l-194 1098l-535 -1098h729zM704 1374q53 0 62 -49l242 -1325h-1037l678 1360q27 14 55 14z" />
    <glyph glyph-name="Epsilon" unicode="&#x395;" horiz-adv-x="925" 
d="M764 102q43 0 60 -16q18 -16 18 -36v-27q0 -8 -4 -23h-729l227 1370h690q0 -43 -17 -73t-71 -29h-496l-84 -500h433l-17 -102h-432l-94 -564h516z" />
    <glyph glyph-name="Zeta" unicode="&#x396;" horiz-adv-x="952" 
d="M1024 1370q63 0 63 -42q0 -29 -20 -56q-534 -619 -928 -1170h664q43 0 60 -16t17 -36t1 -27q0 -8 -4 -23h-891l12 86q385 537 926 1182h-725q0 42 17 72t71 30h737z" />
    <glyph glyph-name="Eta" unicode="&#x397;" horiz-adv-x="1224" 
d="M370 1374q26 0 51 -27q26 -27 17 -77l-84 -510h654l102 612q10 2 36 2t48 -24t23 -46q0 -24 -3 -34l-210 -1270h-121l108 657h-653l-109 -657h-120l225 1372q10 2 36 2z" />
    <glyph glyph-name="Theta" unicode="&#x398;" horiz-adv-x="1280" 
d="M606 -31q-142 0 -222.5 45t-153 152.5t-72.5 327.5q0 160 40 320.5t120.5 289.5t202 210t263.5 81t222.5 -45t153.5 -152t73 -328q0 -160 -40 -320.5t-121 -289.5t-202.5 -210t-263.5 -81zM1106 836q0 213 -76.5 333.5t-232.5 120.5q-121 0 -216.5 -67.5t-195.5 -236
t-100 -494.5q0 -287 109.5 -352.5t209.5 -65.5t197 66q96 67 163.5 178.5t104.5 256.5t37 261zM420 629l16 104h531l-17 -104h-530z" />
    <glyph glyph-name="Iota" unicode="&#x399;" horiz-adv-x="444" 
d="M372 1374q26 0 50 -26q25 -26 16 -78l-209 -1270h-120l227 1372q10 2 36 2z" />
    <glyph glyph-name="Kappa" unicode="&#x39a;" horiz-adv-x="1001" 
d="M372 1374q26 0 50 -26q25 -26 16 -78l-209 -1270h-120l227 1372q10 2 36 2zM876 -18q-36 0 -62 13t-48 54l-385 662l8 51l567 561q50 51 98 51t79 -24l-623 -615l432 -743q-30 -10 -66 -10z" />
    <glyph glyph-name="Lambda" unicode="&#x39b;" horiz-adv-x="1064" 
d="M700 1374q53 0 62 -49l229 -1325h-123l-198 1194l-576 -1194h-123l674 1360q27 14 55 14z" />
    <glyph glyph-name="Mu" unicode="&#x39c;" horiz-adv-x="1464" 
d="M1371 1374q35 0 52 -10l-127 -1364h-118l116 1169l-512 -841h-120l-228 821l-258 -1149h-117l314 1364q20 10 54 10t50 -14t27 -47l235 -867l521 863q25 41 50 53q26 12 61 12z" />
    <glyph glyph-name="Nu" unicode="&#x39d;" horiz-adv-x="1245" 
d="M386 1374q51 0 77 -53l483 -1139l193 1190q9 2 35 2t47 -23q20 -23 20 -47t-2 -34l-211 -1270h-117l-499 1163l-189 -1163h-114l225 1364q26 10 52 10z" />
    <glyph glyph-name="Xi" unicode="&#x39e;" horiz-adv-x="909" 
d="M215 1268q0 43 17.5 72.5t70.5 29.5h707q0 -43 -17.5 -72.5t-70.5 -29.5h-707zM109 0q-43 0 -60.5 16t-17.5 36v20t4 30h713q43 0 60 -16t17 -36v-20q0 -20 -4 -30h-712zM180 657l17 103h653l-16 -103h-654z" />
    <glyph glyph-name="Omicron" unicode="&#x39f;" horiz-adv-x="1280" 
d="M606 -31q-141 0 -222 45t-131 119q-97 144 -95 361q0 160 40 320q85 342 323 500q121 81 263 81t223 -45q226 -126 226 -510q0 -130 -40 -290t-121 -290q-81 -129 -203 -210t-263 -81zM1106 835q0 319 -167 420q-59 35 -161 35t-197 -68q-189 -134 -262 -432
q-61 -250 -18 -454q33 -158 145 -227q57 -35 158 -35t197 66q193 135 268 434q37 144 37 261z" />
    <glyph glyph-name="Pi" unicode="&#x3a0;" horiz-adv-x="1204" 
d="M862 0l211 1268h-635l-211 -1268h-121l228 1370h876l-227 -1370h-121z" />
    <glyph glyph-name="Rho" unicode="&#x3a1;" horiz-adv-x="997" 
d="M512 659q209 1 305 97t96 282q0 119 -76 183q-77 63 -225 63q-80 0 -172 -10l-102 -615h174zM604 1384q323 0 411 -212q26 -62 25 -132q0 -247 -154 -365t-397 -118h-167l-93 -557h-116l227 1366q141 18 264 18z" />
    <glyph glyph-name="Sigma" unicode="&#x3a3;" horiz-adv-x="892" 
d="M758 102q43 0 60.5 -16t17.5 -36v-19t-5 -31h-851l14 86l547 633l-338 567l4 31q6 53 65 53h764q0 -43 -17.5 -72.5t-70.5 -29.5h-602l328 -557l-535 -609h619z" />
    <glyph glyph-name="Tau" unicode="&#x3a4;" horiz-adv-x="1013" 
d="M178 1268q0 42 18 72t70 30h891q0 -43 -17 -73t-71 -29h-350l-209 -1268h-121l209 1268h-420z" />
    <glyph glyph-name="Upsilon" unicode="&#x3a5;" horiz-adv-x="940" 
d="M258 1374q62 0 86 -78l188 -585l371 573q35 54 60 72t59 18t59 -14l-503 -766l-99 -594h-121l97 586l-262 774q35 14 65 14z" />
    <glyph glyph-name="Phi" unicode="&#x3a6;" horiz-adv-x="1325" 
d="M1165 748q0 149 -83 252t-234 126l-135 -833q215 12 304 108.5t118.5 181.5t29.5 165zM268 666q0 -139 85 -242.5t243 -126.5l137 833q-227 -10 -346 -133t-119 -331zM143 678q0 100 43 203.5t165 222.5t399 127l30 182q10 2 12 2h15q29 0 51.5 -18.5t22.5 -59.5
q0 -4 -4 -28l-13 -84q194 -27 311 -158.5t117 -300.5q0 -242 -162.5 -400.5t-433.5 -166.5l-32 -199h-117l33 203q-201 28 -319 157.5t-118 317.5z" />
    <glyph glyph-name="Chi" unicode="&#x3a7;" horiz-adv-x="987" 
d="M838 -18q-34 0 -54 17t-36 60l-211 547l-422 -606h-133l501 717l-252 643q35 14 65 14q61 0 89 -78l186 -485l336 473q31 43 61 67q56 45 126 9l-471 -658l280 -706q-31 -14 -65 -14z" />
    <glyph glyph-name="Psi" unicode="&#x3a8;" horiz-adv-x="1294" 
d="M207 803q0 61 12 133l74 436q10 2 11 2h15q49 0 64.5 -26t15.5 -48t-2 -30l-61 -363q-10 -78 -10 -112q0 -285 282 -318l150 895q8 2 10 2h23q46 0 59.5 -27t13.5 -47t-2 -30l-133 -795q168 10 272.5 102.5t139.5 301.5l82 493q8 2 9 2h17q49 0 64.5 -26t15.5 -48t-2 -30
l-65 -379q-86 -493 -547 -512l-64 -379h-121l64 383q-180 18 -283.5 123.5t-103.5 296.5z" />
    <glyph glyph-name="Omega" unicode="&#x3a9;" horiz-adv-x="1243" 
d="M334 102q-174 186 -174 493q0 144 40 288.5t118.5 258t193.5 183.5t247 70q232 0 339.5 -149t107.5 -365q0 -357 -139 -538t-215 -241h205q43 0 60.5 -16t17.5 -36v-19q0 -19 -5 -31h-448l16 104q178 93 279.5 312.5t101.5 466.5q0 281 -115.5 344t-211.5 63t-184.5 -56
t-184.5 -204t-96 -440q0 -333 180 -486l-16 -104h-328q-43 0 -60.5 16t-17.5 36v20q0 20 4 30h285z" />
    <glyph glyph-name="Iotadieresis" unicode="&#x3aa;" horiz-adv-x="444" 
d="M372 1374q26 0 50 -26q25 -26 16 -78l-209 -1270h-120l227 1372q10 2 36 2zM590 1706q62 0 72 -73q4 -35 -21 -71t-67 -36q-71 0 -80 65q-4 43 20 79q25 36 76 36zM244 1706q62 0 72 -73q4 -35 -21 -71t-67 -36q-70 0 -81 65q-4 43 21 79t76 36z" />
    <glyph glyph-name="Upsilondieresis" unicode="&#x3ab;" horiz-adv-x="940" 
d="M258 1374q62 0 86 -78l188 -585l371 573q35 54 60 72t59 18t59 -14l-503 -766l-99 -594h-121l97 586l-262 774q35 14 65 14zM864 1706q62 0 72 -73q4 -35 -21 -71t-67 -36q-69 0 -80 65q-4 43 20 79q25 36 76 36zM518 1706q62 0 72 -73q4 -35 -21 -71t-67 -36
q-72 0 -80 65q-4 43 20 79q25 36 76 36z" />
    <glyph glyph-name="alphatonos" unicode="&#x3ac;" horiz-adv-x="978" 
d="M791 143q0 -84 69 -84q37 0 82 15l8 -49q-59 -37 -138 -37t-110 40t-30 97q-47 -61 -116 -107q-70 -46 -148 -45q-147 0 -221 95t-74 228q0 266 135 461q66 95 161 155t221 60t235 -67q28 -16 44 -28l-112 -682q-6 -29 -6 -52zM233 310q0 -230 201 -230q77 0 150 59
q99 79 121 213l79 486q-68 37 -158 38q-166 1 -279 -168q-114 -168 -114 -398zM618 1071q-16 0 -24 3t-19 7l117 224q34 67 100 67q32 0 62 -16l-160 -242q-28 -43 -76 -43z" />
    <glyph glyph-name="epsilontonos" unicode="&#x3ad;" horiz-adv-x="798" 
d="M434 530h238l-15 -96h-241q-142 0 -197 -110q-18 -38 -18 -98t46 -109t167 -49q182 0 286 102q42 -42 35 -72q-6 -32 -49 -60q-102 -67 -291 -69q-127 0 -220 65t-93 195q0 88 54 161t165 104q-127 60 -127 195t116 215q96 67 263 69q90 0 165 -33q124 -55 118 -121
q-3 -30 -37 -69h-17q-25 59 -89 92q-65 33 -148 32q-255 0 -252 -196q0 -60 38 -104t103 -44zM502 1071q-18 0 -43 10l116 224q34 67 103 67q29 0 59 -16l-159 -242q-28 -43 -76 -43z" />
    <glyph glyph-name="etatonos" unicode="&#x3ae;" horiz-adv-x="1005" 
d="M807 694q0 176 -166 176q-183 0 -280 -158q-32 -52 -44 -122l-98 -590h-119l158 956h10q37 0 62 -22t24 -57q-1 -34 -4 -58q55 66 137 110q83 44 167 44q210 0 257 -168q29 -102 0 -248l-166 -1003h-118l166 1003q14 101 14 137zM614 1071q-16 0 -24 3t-19 7l117 224
q34 67 100 67q32 0 62 -16l-160 -242q-28 -43 -76 -43z" />
    <glyph glyph-name="iotatonos" unicode="&#x3af;" horiz-adv-x="430" 
d="M268 -10q-144 0 -140 140q1 40 7 81l125 745h10q37 0 65 -22q27 -22 27 -50t-2 -40t-4 -25l-104 -620q-26 -138 67 -138q28 0 70 13l8 -49q-57 -35 -129 -35zM311 1071q-16 0 -24 3t-19 7l117 224q33 67 99 67q32 0 63 -16l-160 -242q-28 -43 -76 -43z" />
    <glyph glyph-name="upsilondieresistonos" unicode="&#x3b0;" horiz-adv-x="978" 
d="M457 -31q-190 0 -260 119t-37 326l86 542h14q37 0 63 -22q25 -22 25 -50q0 -26 -4 -46l-70 -426q-58 -347 189 -344q200 0 257 204q17 61 30 134l92 550h10q36 0 64 -22t28 -50q0 -26 -4 -46l-70 -426q-52 -322 -246 -411q-71 -32 -167 -32zM415 1280q70 0 70 -78
q-1 -32 -23 -58q-22 -28 -59 -28q-69 0 -69 76q0 32 22 60t59 28zM829 1280q70 0 70 -78q-1 -32 -23 -58q-22 -28 -59 -28q-69 0 -69 76q0 32 22 60t59 28zM550 1047q-29 0 -50 6l102 237q14 29 34 55q34 46 116 15l-146 -264q-27 -49 -56 -49z" />
    <glyph glyph-name="alpha" unicode="&#x3b1;" horiz-adv-x="978" 
d="M791 143q0 -84 69 -84q37 0 82 15l8 -49q-59 -37 -138 -37t-109.5 40t-30.5 97q-47 -61 -116.5 -106.5t-147.5 -45.5q-147 0 -221 94.5t-74 228.5t34.5 250t100 211t161 155.5t233.5 60.5t267 -96l-112 -682q-6 -29 -6 -52zM233 310q0 -230 201 -230q77 0 163 69t108 203
l79 486q-71 39 -159 39q-165 0 -278.5 -168.5t-113.5 -398.5z" />
    <glyph glyph-name="beta" unicode="&#x3b2;" horiz-adv-x="1007" 
d="M555 831q106 0 203.5 77.5t97.5 242.5q0 94 -46 157.5t-156 63.5t-171 -67.5t-84 -206.5l-149 -905q24 -44 127.5 -101.5t236 -11.5t169 151t36.5 189q0 150 -75.5 232.5t-213.5 82.5h-41l15 96h51zM660 1468q150 0 233.5 -85t83.5 -224t-81 -237.5t-200 -133.5
q104 -31 174 -123t70 -228q0 -247 -133 -357.5t-287 -110.5t-218 55.5t-71 63.5l-88 -534h-114l254 1544q29 178 128 274t249 96z" />
    <glyph glyph-name="gamma" unicode="&#x3b3;" horiz-adv-x="829" 
d="M217 956q33 0 47.5 -26.5t27.5 -71.5q33 -114 63.5 -313.5t23.5 -362.5l385 686q51 88 96 88t68 -14l-549 -946q-6 -104 -27.5 -214t-44.5 -228h-110q60 289 68.5 407.5t8.5 212.5q0 200 -37 412.5t-90 355.5q37 14 70 14z" />
    <glyph glyph-name="delta" unicode="&#x3b4;" horiz-adv-x="995" 
d="M244 364q0 -132 55.5 -214t169.5 -82q196 0 266 145.5t70 279.5q0 135 -35 212t-113 131l-41 28q-185 -38 -257 -151t-93.5 -197t-21.5 -152zM924 1262q-72 110 -212 110q-118 0 -165 -56.5t-47 -118.5t16 -95t44 -60.5t63.5 -54t79.5 -59.5q225 -169 225 -393
q0 -242 -118.5 -404t-346.5 -162q-164 0 -252 107t-88 245q0 247 114 394t306 209q-154 114 -154 257t98.5 215t231.5 72q72 0 133 -25t93 -53t32 -60t-37 -68h-16z" />
    <glyph glyph-name="epsilon" unicode="&#x3b5;" horiz-adv-x="798" 
d="M545 874q-252 0 -252 -128t38 -172t103 -44h238l-15 -96h-241q-140 0 -177.5 -74t-37.5 -134t46 -109t167 -49q180 0 286 102q42 -42 35 -72q-6 -31 -80 -80t-271 -49t-249.5 94.5t-52.5 174.5t54 152.5t165 103.5q-127 60 -127 195t108 209.5t271 74.5q85 0 162 -32.5
t101 -64.5q23 -33 20 -60t-37 -66h-17q-25 59 -89 91.5t-148 32.5z" />
    <glyph glyph-name="zeta" unicode="&#x3b6;" horiz-adv-x="782" 
d="M635 -179q0 52 -33 89.5t-118 63.5q-187 58 -277 136.5t-90 224.5q0 254 202.5 503.5t507.5 504.5h-499q0 43 17 71t71 28h495q29 0 42.5 -14.5t13.5 -26.5v-17q0 -18 -4 -32q-109 -98 -417 -386.5t-308 -603.5q0 -126 58 -182.5t207 -106.5q148 -50 194 -103.5
t46 -110.5q0 -192 -219 -252l-20 53q131 53 131 161z" />
    <glyph glyph-name="eta" unicode="&#x3b7;" horiz-adv-x="1005" 
d="M807 694q0 176 -166 176q-184 0 -247.5 -105.5t-76.5 -174.5l-98 -590h-119l158 956h10q37 0 61.5 -22.5t24.5 -56.5t-4 -58q55 66 137.5 110t166.5 44q145 0 208.5 -77t63.5 -194q0 -70 -15 -145l-166 -1003h-118l166 1003q14 101 14 137z" />
    <glyph glyph-name="theta" unicode="&#x3b8;" horiz-adv-x="1009" 
d="M895 1010q0 206 -55 283t-158 77q-129 0 -236.5 -169t-158.5 -427h590q18 122 18 236zM250 431q0 -206 54 -284.5t159 -78.5q132 0 239 174.5t158 437.5h-590q-20 -132 -20 -249zM696 1468q314 0 314 -444q0 -398 -119.5 -661t-232.5 -328.5t-205 -65.5q-320 0 -320 441
q0 388 121.5 655.5t236.5 335t205 67.5z" />
    <glyph glyph-name="iota" unicode="&#x3b9;" horiz-adv-x="430" 
d="M276 -10q-105 0 -130.5 58t-10.5 163l125 745h10q37 0 64.5 -22.5t27.5 -50.5t-6 -64l-104 -620q-26 -138 67 -138q31 0 70 13l8 -49q-57 -35 -121 -35z" />
    <glyph glyph-name="kappa" unicode="&#x3ba;" horiz-adv-x="849" 
d="M746 -12q-38 0 -63 14q-26 14 -54 55l-275 412l8 51l363 385q51 51 98 51t76 -28l-420 -434l260 -385q16 -23 37 -43t76 0l10 -46q-12 -10 -45 -21t-71 -11zM294 956q26 0 48 -24t20 -42v-25t-2 -13l-141 -852h-119l158 954q10 2 36 2z" />
    <glyph glyph-name="lambda" unicode="&#x3bb;" horiz-adv-x="909" 
d="M391 1376q-45 0 -98 -39q-60 69 10 107q45 24 122 24t121 -48t54 -132l148 -1106q6 -51 20 -85t56 -34t71 11l10 -47q-56 -37 -126 -37q-69 0 -99.5 42t-40.5 120l-90 720l-432 -872h-119l487 956h54l-41 287q-12 86 -37 109.5t-70 23.5z" />
    <glyph glyph-name="uni03BC" unicode="&#x3bc;" horiz-adv-x="1003" 
d="M922 59q28 0 73 15l9 -49q-59 -37 -134 -37q-143 0 -143 139q-55 -66 -125 -112t-166 -46q-141 0 -200 103l-76 -459h-119l219 1343h10q37 0 64.5 -22.5t27.5 -50.5t-6 -64l-75 -457q-11 -80 -11 -122q0 -80 49.5 -123t144.5 -43t185 78t109 202l100 602h10q37 0 65 -22
t28 -50t-2.5 -40.5t-4.5 -24.5l-104 -624q-10 -67 0 -90t27 -34.5t45 -11.5z" />
    <glyph glyph-name="nu" unicode="&#x3bd;" horiz-adv-x="829" 
d="M193 956q30 0 49 -23q18 -24 26 -83l115 -725l362 743q45 88 100 88q39 0 62 -14l-487 -950h-121l-168 952q32 12 62 12z" />
    <glyph glyph-name="xi" unicode="&#x3be;" horiz-adv-x="811" 
d="M487 -340q131 53 131 161q0 52 -32.5 90.5t-125.5 66.5q-196 60 -276 149t-80 258q0 228 122 308.5t202 99.5q-156 88 -156 278t119.5 293.5t277.5 103.5t251 -75q43 -35 43 -63t-11.5 -41t-27.5 -34h-17q-60 117 -231 117q-291 0 -291 -309q0 -236 213 -236h201l-17 -96
h-202q-180 0 -267.5 -96t-87.5 -244t59 -211t204 -109t192 -100.5t47 -111.5q0 -192 -219 -252z" />
    <glyph glyph-name="omicron" unicode="&#x3bf;" horiz-adv-x="978" 
d="M462 68q72 0 138 42t136.5 153t70.5 317t-76.5 250t-148.5 44t-137.5 -41.5t-136 -153.5t-70.5 -318q0 -207 76 -250t148 -43zM456 -31q-182 0 -260.5 110t-78.5 246q0 269 133 458.5t358 189.5q159 0 240.5 -111t81.5 -246t-31 -246.5t-92.5 -200.5t-153 -144.5
t-197.5 -55.5z" />
    <glyph glyph-name="pi" unicode="&#x3c0;" horiz-adv-x="1069" 
d="M897 61q25 0 74 15l8 -49q-59 -37 -138 -37t-110 43t-31 87t9 91l106 649h-403l-144 -860h-116l143 860h-152l17 96h940l-17 -96h-151l-109 -661q-4 -24 -4 -47q0 -91 78 -91z" />
    <glyph glyph-name="rho" unicode="&#x3c1;" horiz-adv-x="970" 
d="M799 599q0 128 -46 201.5t-153 73.5q-198 0 -246.5 -142t-62.5 -228l-68 -400q66 -38 159 -38t164.5 36.5t127 105t90.5 166t35 225.5zM612 973q218 0 264 -139.5t46 -245.5t-36 -218t-104.5 -201t-168 -144.5t-211.5 -55.5t-193 45l-76 -460h-117l158 954
q39 236 151.5 350.5t286.5 114.5z" />
    <glyph glyph-name="sigma1" unicode="&#x3c2;" horiz-adv-x="815" 
d="M457 -340q131 53 131 161q0 106 -144 150q-160 50 -243.5 139t-83.5 257q0 250 99 378.5t188.5 178t193.5 49.5q176 0 256 -111q18 -26 18 -50t-9 -32t-19 -18l-25 -21h-16q-48 133 -203 133t-257.5 -147t-102.5 -360q0 -116 50.5 -185.5t181.5 -114.5q132 -46 178 -98.5
t46 -109.5q0 -192 -219 -252z" />
    <glyph glyph-name="sigma" unicode="&#x3c3;" horiz-adv-x="978" 
d="M641 860q-212 0 -306.5 -149t-94.5 -353q0 -203 77.5 -246.5t139.5 -43.5q185 0 255 156.5t70 318.5q0 231 -104 317h-37zM905 528q0 -229 -120 -394t-332 -165q-162 0 -249 106t-87 247q0 285 136 459.5t394 174.5h404l-17 -96h-243q51 -55 82.5 -142.5t31.5 -189.5z
" />
    <glyph glyph-name="tau" unicode="&#x3c4;" horiz-adv-x="718" 
d="M473 66q84 0 135 67l21 -18q20 -20 20 -50t-39 -55q-39 -24 -70.5 -32.5t-103.5 -8.5t-135 51.5t-63 159.5q0 38 10 115l96 565h-270l14 96h703l-15 -96h-315l-94 -567q-11 -69 -11 -88q0 -78 36 -108.5t81 -30.5z" />
    <glyph glyph-name="upsilon" unicode="&#x3c5;" horiz-adv-x="978" 
d="M260 956q37 0 62.5 -23t25.5 -49t-4 -46l-70 -426q-41 -244 37 -294t153 -50q138 0 196.5 84t89.5 254l92 550h10q37 0 64.5 -23t27.5 -49t-4 -46l-70 -426q-35 -216 -133.5 -329.5t-283.5 -113.5q-186 0 -256 119t-37 326l86 542h14z" />
    <glyph glyph-name="phi" unicode="&#x3c6;" horiz-adv-x="1196" 
d="M238 404q0 -149 73 -238.5t199 -102.5l135 816q-202 -8 -281 -111.5t-102.5 -193.5t-23.5 -170zM1024 548q0 145 -74.5 230t-199.5 99l-136 -814q209 8 309.5 146t100.5 339zM117 402q0 112 39 219.5t148.5 225.5t357.5 126l45 274q10 2 11 2h7q18 0 45 -13t27 -62v-10
q0 -11 -2 -19l-29 -174q156 -13 268.5 -125.5t112.5 -282.5q0 -270 -144.5 -430t-404.5 -164l-68 -415h-104l70 417q-158 12 -268.5 124t-110.5 307z" />
    <glyph glyph-name="chi" unicode="&#x3c7;" horiz-adv-x="823" 
d="M683 -455q-69 0 -97.5 42t-50.5 120l-136 473l-370 -626h-121l444 739l-209 653q25 10 64 10t54 -24.5t26 -61.5l145 -489l297 487q20 35 43.5 61.5t57.5 26.5t61 -20l-410 -653l162 -545q14 -49 31.5 -84t55.5 -35t69 10l10 -47q-57 -37 -126 -37z" />
    <glyph glyph-name="psi" unicode="&#x3c8;" horiz-adv-x="1236" 
d="M254 956q86 0 86 -82v-10q0 -10 -2 -18l-62 -369q-10 -78 -10 -128q0 -115 63 -195t201 -88l195 1181q9 2 21 2q28 0 53.5 -16t25.5 -64v-9q0 -9 -2 -15l-178 -1079q310 7 369 360l88 530h12q35 0 60.5 -16t25.5 -50t-2 -44l-68 -414q-35 -213 -155.5 -336t-345.5 -127
l-70 -415h-115l70 417q-180 10 -272 116t-92 273q0 38 10 111l82 485h12z" />
    <glyph glyph-name="omega" unicode="&#x3c9;" horiz-adv-x="1380" 
d="M1331 559q0 -256 -101.5 -423t-309.5 -167q-94 0 -158 53.5t-82 141.5q-49 -90 -125 -142.5t-159 -52.5q-147 0 -213 90.5t-66 243.5q0 308 132 450t218 191q25 12 45 12q57 0 61 -59q-164 -80 -249.5 -244.5t-85.5 -341.5q0 -245 159 -245q104 0 169 79.5t87 206.5
l54 326h16q39 0 67.5 -22.5t18.5 -88.5l-35 -215q-47 -286 158 -286q143 0 209.5 152.5t66.5 326.5q0 258 -172 352q20 59 68 59t137.5 -102.5t89.5 -294.5z" />
    <glyph glyph-name="iotadieresis" unicode="&#x3ca;" horiz-adv-x="430" 
d="M268 -10q-144 0 -140 140q1 40 7 81l125 745h10q37 0 65 -22q27 -22 27 -50t-2 -40t-4 -25l-104 -620q-26 -138 67 -138q28 0 70 13l8 -49q-57 -35 -129 -35zM524 1288q62 0 72 -73q4 -35 -21 -71t-67 -36q-70 0 -80 66q-4 42 21 78t75 36zM178 1288q62 0 72 -73
q4 -35 -21 -71t-67 -36q-72 0 -80 66q-4 42 20 78t76 36z" />
    <glyph glyph-name="upsilondieresis" unicode="&#x3cb;" horiz-adv-x="978" 
d="M457 -31q-190 0 -260 119t-37 326l86 542h14q37 0 63 -22q25 -22 25 -50q0 -26 -4 -46l-70 -426q-58 -347 189 -344q200 0 257 204q17 61 30 134l92 550h10q36 0 64 -22t28 -50q0 -26 -4 -46l-70 -426q-52 -322 -246 -411q-71 -32 -167 -32zM807 1288q61 0 71 -73
q4 -35 -20 -71q-25 -36 -67 -36q-71 0 -80 66q-3 42 21 78t75 36zM461 1288q61 0 71 -73q4 -35 -20 -71q-25 -36 -67 -36q-71 0 -80 66q-3 42 21 78t75 36z" />
    <glyph glyph-name="omicrontonos" unicode="&#x3cc;" horiz-adv-x="978" 
d="M807 565q0 313 -215 309q-163 0 -259 -155q-97 -155 -96 -359t112 -268q41 -24 113 -24t138 42q132 83 182 281q25 94 25 174zM456 -31q-106 0 -167 33q-172 93 -172 343t126 428q139 200 365 200q159 0 248 -121q72 -97 73 -234t-30 -248q-67 -238 -245 -346
q-92 -56 -198 -55zM606 1071q-16 0 -24 3t-19 7l117 224q34 67 100 67q32 0 62 -16l-160 -242q-28 -43 -76 -43z" />
    <glyph glyph-name="upsilontonos" unicode="&#x3cd;" horiz-adv-x="978" 
d="M457 -31q-190 0 -260 119t-37 326l86 542h14q37 0 63 -22q25 -22 25 -50q0 -26 -4 -46l-70 -426q-58 -347 189 -344q200 0 257 204q17 61 30 134l92 550h10q36 0 64 -22t28 -50q0 -26 -4 -46l-70 -426q-52 -322 -246 -411q-71 -32 -167 -32zM567 1071q-16 0 -24 3t-19 7
l117 224q33 67 99 67q32 0 63 -16l-160 -242q-28 -43 -76 -43z" />
    <glyph glyph-name="omegatonos" unicode="&#x3ce;" horiz-adv-x="1380" 
d="M1237 148q-108 -179 -317 -179q-94 -1 -158 53t-82 142q-49 -90 -125 -142t-159 -52q-279 -2 -279 333q0 197 91 371t259 270q25 12 45 12q57 0 61 -59q-162 -79 -249 -244q-86 -164 -86 -342q0 -245 159 -245q104 0 169 80t87 206l54 326h16q39 0 68 -23t18 -88
l-35 -215q-48 -288 158 -286q144 0 218 172q58 134 58 307q0 258 -172 352q20 59 68 59t113 -74q114 -130 114 -353q0 -224 -94 -381zM809 1071q-18 0 -43 10l117 224q33 67 99 67q32 0 62 -16l-159 -242q-28 -43 -76 -43z" />
    <glyph glyph-name="uni0400" unicode="&#x400;" horiz-adv-x="925" 
d="M764 102q43 0 60 -16q18 -16 18 -36v-27q0 -8 -4 -23h-729l227 1370h690q0 -43 -17 -73t-71 -29h-496l-84 -500h433l-17 -102h-432l-94 -564h516zM469 1667q29 47 95 47q36 0 77 -41l184 -178q-29 -33 -63 -33t-62 21z" />
    <glyph glyph-name="afii10023" unicode="&#x401;" horiz-adv-x="925" 
d="M764 102q43 0 60 -16q18 -16 18 -36v-27q0 -8 -4 -23h-729l227 1370h690q0 -43 -17 -73t-71 -29h-496l-84 -500h433l-17 -102h-432l-94 -564h516zM891 1706q61 0 71 -73q4 -35 -20 -71q-25 -36 -67 -36q-71 0 -80 65q-4 43 20 79q25 36 76 36zM545 1706q61 0 71 -73
q4 -35 -20 -71q-25 -36 -67 -36q-71 0 -80 65q-4 43 20 79q25 36 76 36z" />
    <glyph glyph-name="afii10051" unicode="&#x402;" horiz-adv-x="1249" 
d="M737 807q231 0 345 -94.5t114 -276.5t-121.5 -312t-357.5 -130q-70 0 -70 49q0 24 10 49q14 -2 17 -2h33q362 0 362 359q0 131 -87 195.5t-226 64.5q-78 0 -172 -11l-115 -698h-121l209 1268h-399q0 43 17.5 72.5t70.5 29.5h891q0 -43 -17.5 -72.5t-70.5 -29.5h-371
l-78 -467q52 6 137 6z" />
    <glyph glyph-name="afii10052" unicode="&#x403;" horiz-adv-x="872" 
d="M831 1714q58 0 87 -57l-279 -174q-33 -21 -72 -21t-57 33l229 178q56 41 92 41zM1016 1370q0 -43 -17.5 -72.5t-70.5 -29.5h-486l-211 -1268h-122l227 1370h680z" />
    <glyph glyph-name="afii10053" unicode="&#x404;" horiz-adv-x="1124" 
d="M616 -31q-237 0 -347.5 159.5t-110.5 399.5q0 160 43 315.5t127 277.5t209 198t290 76q210 0 322 -131q31 -37 31 -70t-56 -70h-18q-55 100 -130 132t-170 32q-186 0 -319 -149.5t-182 -390.5h627l-19 -105h-622q-6 -59 -6 -135q0 -177 87 -304.5t268 -127.5t345 157
l25 -26q22 -23 22 -49t-17 -43t-55 -45t-128.5 -64.5t-215.5 -36.5z" />
    <glyph glyph-name="afii10054" unicode="&#x405;" horiz-adv-x="935" 
d="M109 201q125 -125 293 -125q94 0 154 22q175 66 175 247t-166 273q-214 123 -292 207t-76 213q0 163 128 261q121 96 281 96t255 -69q73 -48 73 -89t-47 -72h-19q-93 127 -268 125q-120 0 -201 -66q-80 -66 -80 -170q0 -105 81 -178q38 -34 132 -92q187 -116 247 -184
q85 -96 83 -227q0 -195 -128 -299q-128 -105 -335 -105q-159 0 -286 80q-55 35 -55 75t51 77z" />
    <glyph glyph-name="afii10055" unicode="&#x406;" horiz-adv-x="444" 
d="M372 1374q26 0 50 -26q25 -26 16 -78l-209 -1270h-120l227 1372q10 2 36 2z" />
    <glyph glyph-name="afii10056" unicode="&#x407;" horiz-adv-x="444" 
d="M372 1374q26 0 50 -26q25 -26 16 -78l-209 -1270h-120l227 1372q10 2 36 2zM590 1706q62 0 72 -73q4 -35 -21 -71t-67 -36q-71 0 -80 65q-4 43 20 79q25 36 76 36zM244 1706q62 0 72 -73q4 -35 -21 -71t-67 -36q-70 0 -81 65q-4 43 21 79t76 36z" />
    <glyph glyph-name="afii10057" unicode="&#x408;" horiz-adv-x="487" 
d="M419 1376q82 0 48 -174l-131 -811q-40 -246 -101 -336t-182 -92q-98 0 -102 76q0 14 8 35q120 0 168 45q49 45 74 192l176 1061q16 4 42 4z" />
    <glyph glyph-name="afii10058" unicode="&#x409;" horiz-adv-x="1849" 
d="M1686 465q0 262 -326 262q-104 0 -207 -10l-102 -617h215q305 0 362.5 134.5t57.5 230.5zM1341 827q250 0 360.5 -97t110.5 -265q0 -205 -138.5 -335t-426.5 -130h-334l211 1268h-368l-113 -404q-41 -145 -92 -303t-166 -375t-334 -217q-61 0 -61 62v9q0 9 2 26h18
q183 0 307 236.5t258 729.5l93 338h594l-93 -553q102 10 172 10z" />
    <glyph glyph-name="afii10059" unicode="&#x40a;" horiz-adv-x="1734" 
d="M1258 799q84 0 251.5 -48t167.5 -300q0 -196 -138 -323.5t-423 -127.5h-309l113 682h-578l-113 -682h-120l225 1372q10 2 12 2h14q33 0 56.5 -22t23.5 -46t-2 -34l-80 -488h578l98 588q10 2 12 2h15q33 0 56.5 -22t23.5 -46t-2 -34l-78 -484q113 11 197 11zM1135 100
q190 0 302.5 84t112.5 267q0 131 -88 190t-202 59t-216 -10l-98 -590h189z" />
    <glyph glyph-name="afii10060" unicode="&#x40b;" horiz-adv-x="1333" 
d="M1235 549q0 -44 -8 -96l-74 -453h-119l70 422q10 68 10 139q0 72 -42 128t-152 56t-192 -41t-122.5 -76.5t-46.5 -76.5l-90 -551h-121l209 1268h-399q0 43 17.5 72.5t70.5 29.5h891q0 -43 -17.5 -72.5t-70.5 -29.5h-371l-94 -555q170 137 366 137q145 0 215 -84t70 -217z
" />
    <glyph glyph-name="afii10061" unicode="&#x40c;" horiz-adv-x="1060" 
d="M948 -18q-34 0 -62 10t-55 57l-290 500q-39 67 -71 101t-83 46l16 80q134 25 275 197l219 270q103 131 225 131q44 0 62 -13t18 -29v-25q0 -8 -2 -21q-66 0 -114 -24t-101 -88l-227 -275q-46 -53 -100 -97t-140 -71q78 -27 129 -121l359 -616q-24 -12 -58 -12zM352 1374
h10q33 0 60 -26t16 -76l-209 -1272h-120l227 1372q10 2 16 2zM928 1714q34 0 56 -19t30 -38l-279 -174q-33 -21 -71 -21t-58 33l230 178q57 41 92 41z" />
    <glyph glyph-name="uni040D" unicode="&#x40d;" horiz-adv-x="1245" 
d="M370 1374q28 0 46 -23t18 -49t-4 -47l-172 -1042l850 1108q25 33 45 43t48 10t54 -10l-227 -1364h-113l185 1133l-875 -1133h-116l227 1372q6 2 34 2zM569 1667q29 47 95 47q36 0 77 -41l185 -178q-29 -33 -63 -33t-62 21z" />
    <glyph glyph-name="afii10062" unicode="&#x40e;" horiz-adv-x="997" 
d="M301 1376q33 0 50 -24t32 -72l207 -709l377 707q27 49 52 73q44 41 126 11l-617 -1108q-86 -154 -140 -203q-89 -80 -170 -81t-114 14q-33 16 -48 31t-15 35t11 36t30 39q48 -55 114 -55t117 51t117 172l84 151l-281 922q35 10 68 10zM490 1765q28 0 34 -17q6 -18 20 -74
t46 -83q34 -27 98 -27q101 1 145 30q44 28 74 89q31 62 46 72t41 10t53 -14q-39 -135 -116 -204t-229 -69t-208 72q-56 70 -58 205q26 10 54 10z" />
    <glyph glyph-name="afii10145" unicode="&#x40f;" horiz-adv-x="1181" 
d="M370 1374q28 0 49 -23t21 -43v-14q0 -14 -2 -24l-192 -1168h628l211 1270q6 2 34 2t49.5 -23t21.5 -43v-14q0 -14 -2 -24l-209 -1270h-383l-49 -295h-115l49 295h-372l227 1372q6 2 34 2z" />
    <glyph glyph-name="afii10017" unicode="&#x410;" horiz-adv-x="1081" 
d="M803 485l-125 713l-346 -713h471zM709 1374q52 0 61 -49l238 -1325h-121l-66 383h-542l-187 -383h-121l682 1360q29 14 56 14z" />
    <glyph glyph-name="afii10018" unicode="&#x411;" horiz-adv-x="1099" 
d="M446 100q420 0 420 365q0 264 -319 264q-95 0 -197 -10l-102 -619h198zM528 827q246 0 355.5 -97t109.5 -265q0 -205 -138.5 -335t-426.5 -130h-319l227 1370h711q0 -43 -17.5 -72.5t-71.5 -29.5h-516l-75 -451q102 10 161 10z" />
    <glyph glyph-name="afii10019" unicode="&#x412;" horiz-adv-x="1067" 
d="M465 100q190 0 286 74q95 74 95 244q0 118 -85 177q-85 60 -218 60h-209l-92 -555h223zM553 756q162 0 247 88t86 212q0 124 -62 176t-181 52t-207 -10l-86 -518h203zM977 430q0 -430 -524 -430h-344l227 1366q158 18 274 18q117 0 191 -22q213 -65 213 -270
q0 -164 -96 -274q-70 -78 -170 -109q74 -10 152 -85q77 -76 77 -194z" />
    <glyph glyph-name="afii10020" unicode="&#x413;" horiz-adv-x="872" 
d="M1016 1370q0 -43 -17.5 -72.5t-70.5 -29.5h-486l-211 -1268h-122l227 1370h680z" />
    <glyph glyph-name="afii10021" unicode="&#x414;" horiz-adv-x="1202" 
d="M1049 1268h-410l-76 -299q-80 -314 -158.5 -534t-193.5 -333h647zM926 -295l47 295h-930l-49 -295h-113l62 397h118q142 118 228 338.5t203 689.5l59 240h633l-205 -1268h125l-64 -397h-114z" />
    <glyph glyph-name="afii10022" unicode="&#x415;" horiz-adv-x="925" 
d="M764 102q43 0 60 -16q18 -16 18 -36v-27q0 -8 -4 -23h-729l227 1370h690q0 -43 -17 -73t-71 -29h-496l-84 -500h433l-17 -102h-432l-94 -564h516z" />
    <glyph glyph-name="afii10024" unicode="&#x416;" horiz-adv-x="1638" 
d="M970 1374q28 0 49 -23t21 -47t-2 -34l-209 -1270h-120l227 1372q6 2 34 2zM1531 -18q-34 0 -61.5 10t-54.5 57l-274 500q-37 68 -69 102.5t-85 44.5l17 80q129 20 274 197l203 270q96 131 225 131q43 0 61.5 -13t18.5 -29v-17t-2 -29q-66 0 -115 -23.5t-100 -88.5
l-211 -275q-96 -123 -240 -168q78 -27 129 -121l342 -616q-24 -12 -58 -12zM22 -18q-41 0 -65 14l522 625q79 97 185 129q-63 20 -100.5 61t-63.5 94l-138 273q-31 59 -68.5 85.5t-103.5 26.5v13q0 72 80 71q118 0 179 -131l137 -270q86 -176 209 -197l-17 -80
q-61 -10 -108 -45t-103 -102l-415 -500q-35 -41 -62 -54t-68 -13z" />
    <glyph glyph-name="afii10025" unicode="&#x417;" horiz-adv-x="999" 
d="M428 74q145 0 248.5 84.5t103.5 235.5t-83 214.5t-208 63.5h-159l16 102h160q237 0 291.5 113.5t54.5 195.5t-61.5 146.5t-182.5 64.5q-186 0 -313 -153h-16q-43 33 -43 61t26 55q138 138 352 138q167 0 266 -88.5t99 -216.5q0 -274 -291 -371q71 -11 146 -92.5
t75 -229.5q0 -180 -136.5 -304t-333.5 -124t-297.5 70t-100.5 113q0 23 15.5 39t39.5 38q122 -155 332 -155z" />
    <glyph glyph-name="afii10026" unicode="&#x418;" horiz-adv-x="1245" 
d="M370 1374q28 0 46 -23t18 -49t-4 -47l-172 -1042l850 1108q25 33 45.5 43t48.5 10t53 -10l-227 -1364h-113l185 1133l-875 -1133h-116l227 1372q6 2 34 2z" />
    <glyph glyph-name="afii10027" unicode="&#x419;" horiz-adv-x="1245" 
d="M370 1374q28 0 46 -23t18 -49t-4 -47l-172 -1042l850 1108q25 33 45 43t48 10t54 -10l-227 -1364h-113l185 1133l-875 -1133h-116l227 1372q6 2 34 2zM610 1765q28 0 35 -17q5 -18 19 -74t47 -83t116 -26t127 29q43 28 73 89q31 62 47 72t40 10q25 0 53 -14
q-39 -135 -115 -204t-229 -69q-152 0 -209 72q-57 70 -57 205q25 10 53 10z" />
    <glyph glyph-name="afii10028" unicode="&#x41a;" horiz-adv-x="1060" 
d="M948 -18q-34 0 -62 10t-55 57l-290 500q-39 68 -71 101.5t-83 45.5l16 80q132 25 275 197l219 270q103 131 225 131q43 0 61.5 -13t18.5 -29v-17q0 -17 -2 -29q-66 0 -114 -23.5t-101 -88.5l-227 -275q-45 -53 -99.5 -97t-140.5 -71q78 -27 129 -121l359 -616
q-24 -12 -58 -12zM348 1374h14q33 0 55.5 -22t22.5 -46t-2 -34l-209 -1272h-120l227 1372q10 2 12 2z" />
    <glyph glyph-name="afii10029" unicode="&#x41b;" horiz-adv-x="1261" 
d="M-66 31v9q0 9 3 26h18q183 0 307 236.5t258 729.5l92 338h656l-228 -1370h-120l210 1268h-430l-112 -404q-41 -145 -163 -520t-429 -375q-62 0 -62 62z" />
    <glyph glyph-name="afii10030" unicode="&#x41c;" horiz-adv-x="1464" 
d="M1371 1374q35 0 52 -10l-127 -1364h-118l116 1169l-512 -841h-120l-228 821l-258 -1149h-117l314 1364q20 10 54 10t50 -14t27 -47l235 -867l521 863q25 41 50 53q26 12 61 12z" />
    <glyph glyph-name="afii10031" unicode="&#x41d;" horiz-adv-x="1224" 
d="M370 1374q26 0 51 -27q26 -27 17 -77l-84 -510h654l102 612q10 2 36 2t48 -24t23 -46q0 -24 -3 -34l-210 -1270h-121l108 657h-653l-109 -657h-120l225 1372q10 2 36 2z" />
    <glyph glyph-name="afii10032" unicode="&#x41e;" horiz-adv-x="1280" 
d="M606 -31q-141 0 -222 45t-131 119q-97 144 -95 361q0 160 40 320q85 342 323 500q121 81 263 81t223 -45q226 -126 226 -510q0 -130 -40 -290t-121 -290q-81 -129 -203 -210t-263 -81zM1106 835q0 319 -167 420q-59 35 -161 35t-197 -68q-189 -134 -262 -432
q-61 -250 -18 -454q33 -158 145 -227q57 -35 158 -35t197 66q193 135 268 434q37 144 37 261z" />
    <glyph glyph-name="afii10033" unicode="&#x41f;" horiz-adv-x="1204" 
d="M862 0l211 1268h-635l-211 -1268h-121l228 1370h876l-227 -1370h-121z" />
    <glyph glyph-name="afii10034" unicode="&#x420;" horiz-adv-x="997" 
d="M512 659q209 1 305 97t96 282q0 119 -76 183q-77 63 -225 63q-80 0 -172 -10l-102 -615h174zM604 1384q323 0 411 -212q26 -62 25 -132q0 -247 -154 -365t-397 -118h-167l-93 -557h-116l227 1366q141 18 264 18z" />
    <glyph glyph-name="afii10035" unicode="&#x421;" horiz-adv-x="1093" 
d="M627 76q195 0 358 157l25 -26q22 -23 22 -49t-16 -42q-57 -60 -166 -104q-109 -43 -234 -43q-237 0 -355 170q-105 152 -103 389q0 160 43 316t127 278t209 197q125 76 269 76q222 0 343 -131q31 -37 31 -70t-56 -70h-18q-55 100 -131 132q-77 32 -181 32t-201 -61
q-197 -124 -271 -409q-37 -138 -37 -262q0 -341 191 -445q65 -35 151 -35z" />
    <glyph glyph-name="afii10036" unicode="&#x422;" horiz-adv-x="1013" 
d="M178 1268q0 42 18 72t70 30h891q0 -43 -17 -73t-71 -29h-350l-209 -1268h-121l209 1268h-420z" />
    <glyph glyph-name="afii10037" unicode="&#x423;" horiz-adv-x="997" 
d="M301 1376q33 0 50.5 -24.5t31.5 -71.5l207 -709l377 707q27 49 52 72.5t61 23.5t65 -12l-617 -1108q-86 -154 -140 -203t-99 -65.5t-83 -16.5q-64 0 -114.5 22.5t-50.5 61.5q0 18 11 33.5t30 38.5q48 -55 114 -55t117.5 51t116.5 172l84 151l-281 922q35 10 68 10z" />
    <glyph glyph-name="afii10038" unicode="&#x424;" horiz-adv-x="1325" 
d="M1165 748q0 149 -83 252t-234 126l-135 -833q215 12 304 108.5t118.5 181.5t29.5 165zM268 666q0 -139 85 -242.5t243 -126.5l137 833q-227 -10 -346 -133t-119 -331zM143 678q0 100 43 203.5t165 222.5t399 127l30 182q10 2 12 2h15q29 0 51.5 -18.5t22.5 -59.5
q0 -4 -4 -28l-13 -84q194 -27 311 -158.5t117 -300.5q0 -242 -162.5 -400.5t-433.5 -166.5l-32 -199h-117l33 203q-201 28 -319 157.5t-118 317.5z" />
    <glyph glyph-name="afii10039" unicode="&#x425;" horiz-adv-x="987" 
d="M838 -18q-34 0 -54 17t-36 60l-211 547l-422 -606h-133l501 717l-252 643q35 14 65 14q61 0 89 -78l186 -485l336 473q31 43 61 67q56 45 126 9l-471 -658l280 -706q-31 -14 -65 -14z" />
    <glyph glyph-name="afii10040" unicode="&#x426;" horiz-adv-x="1232" 
d="M370 1374q28 0 49 -23t21 -43v-14q0 -14 -2 -24l-192 -1168h643l211 1270q6 2 34 2t49 -23t21 -43v-14q0 -14 -2 -24l-192 -1168h125l-64 -397h-115l48 295h-895l227 1372q6 2 34 2z" />
    <glyph glyph-name="afii10041" unicode="&#x427;" horiz-adv-x="1146" 
d="M322 834q0 -218 229 -218q135 0 248 62q59 31 96 61.5t45 77.5l92 555q6 2 34 2t49.5 -23t21.5 -43v-14q0 -14 -2 -24l-209 -1270h-121l108 657q-70 -57 -170.5 -101t-194.5 -44q-167 0 -257 81.5t-90 217.5q0 44 10 111l72 450q5 2 33 2t49.5 -23t21.5 -43v-14
q0 -14 -2 -24l-51 -318q-12 -69 -12 -118z" />
    <glyph glyph-name="afii10042" unicode="&#x428;" horiz-adv-x="1691" 
d="M370 1374q28 0 49 -23t21 -43v-14q0 -14 -2 -24l-192 -1168h502l210 1270q6 2 34 2t49.5 -23t21.5 -43v-14q0 -14 -2 -24l-193 -1168h502l211 1270q6 2 34 2t49.5 -23t21.5 -43v-14q0 -14 -3 -24l-208 -1270h-1366l227 1372q6 2 34 2z" />
    <glyph glyph-name="afii10043" unicode="&#x429;" horiz-adv-x="1693" 
d="M370 1374q28 0 49 -23t21 -43v-14q0 -14 -2 -24l-192 -1168h502l210 1270q6 2 34 2t49.5 -23t21.5 -43v-14q0 -14 -2 -24l-193 -1168h502l211 1270q6 2 34 2t49.5 -23t21.5 -43v-14q0 -14 -3 -24l-192 -1168h104l-63 -397h-115l47 295h-1355l227 1372q6 2 34 2z" />
    <glyph glyph-name="afii10044" unicode="&#x42a;" horiz-adv-x="1247" 
d="M645 100q420 0 420 365q0 264 -320 264q-94 0 -196 -10l-103 -619h199zM727 827q246 0 355.5 -97t109.5 -283t-139 -316.5t-426 -130.5h-318l209 1268h-340q0 43 17.5 72.5t70.5 29.5h389l-90 -553q102 10 162 10z" />
    <glyph glyph-name="afii10045" unicode="&#x42b;" horiz-adv-x="1429" 
d="M1326 1374h15q33 0 55.5 -22t22.5 -46t-2 -34l-209 -1272h-121l228 1372q10 2 11 2zM526 827q246 0 354.5 -97t108.5 -265q0 -205 -138.5 -335t-426.5 -130h-315l227 1372q10 2 12 2h14q33 0 55.5 -22t22.5 -46t-2 -34l-73 -455q103 10 161 10zM442 100q420 0 420 365
q0 264 -317 264q-94 0 -197 -10l-102 -619h196z" />
    <glyph glyph-name="afii10046" unicode="&#x42c;" horiz-adv-x="1058" 
d="M535 827q250 0 360.5 -97t110.5 -283t-139 -316.5t-427 -130.5h-331l227 1372q10 2 12 2h14q33 0 55.5 -22t22.5 -46t-2 -34l-73 -455q103 10 170 10zM459 100q305 0 362.5 134.5t57.5 220.5q0 151 -91 212.5t-214 61.5t-226 -10l-102 -619h213z" />
    <glyph glyph-name="afii10047" unicode="&#x42d;" horiz-adv-x="1136" 
d="M967 871q0 177 -82.5 298t-243.5 121q-100 0 -184 -32.5t-160 -118.5h-16q-45 31 -45 60q0 28 26 54q66 66 166 104t213 38q219 0 335 -149t116 -388q0 -160 -43 -318.5t-126 -285.5t-206 -206t-285 -79q-231 0 -358 127q-27 26 -27 58t55 77q126 -157 330 -157
t334 159.5t174 393.5h-625l19 104h624q9 65 9 140z" />
    <glyph glyph-name="afii10048" unicode="&#x42e;" horiz-adv-x="1775" 
d="M690 482q0 87 8 165h-362l-107 -647h-120l225 1372q10 2 12 2h16q33 0 55.5 -22t22.5 -46t-2 -34l-86 -522h363q54 272 214 458.5t380 186.5t320 -154.5t100 -370.5q0 -160 -41 -320.5t-121 -289.5t-199 -210t-251 -81t-209 45t-125 119t-70.5 168t-22.5 181zM1118 74
q94 0 185.5 65.5t195 237.5t103.5 495q0 174 -73 296t-218 122q-111 0 -202 -66.5t-191.5 -238.5t-100.5 -493q0 -175 50.5 -262t103.5 -121.5t147 -34.5z" />
    <glyph glyph-name="afii10049" unicode="&#x42f;" horiz-adv-x="1089" 
d="M802 1284q-413 0 -413 -328q0 -189 132 -222.5t206 -33.5h121l98 576q-65 8 -144 8zM262 958q0 426 543 426q97 0 276 -16l-231 -1368h-121l100 600h-86q-165 0 -232 -86t-99 -135l-201 -307q-59 -90 -127 -90q-39 0 -68 12l283 430q45 70 95 124t141 83
q-123 25 -198 108.5t-75 218.5z" />
    <glyph glyph-name="afii10065" unicode="&#x430;" horiz-adv-x="954" 
d="M788 123q0 -66 60 -66q31 0 53 9l8 -46q-57 -32 -117 -32t-90 34.5t-30 86.5v14q-125 -150 -270 -150t-217 96.5t-72 231.5q0 136 34.5 253.5t100 212.5t160 156.5t196.5 61.5q177 0 307 -96l-116 -701q-2 -10 -4.5 -22t-2.5 -43zM233 314q0 -234 197 -234q83 0 167 68
t108 206l81 496q-71 39 -159 39q-167 0 -280.5 -170.5t-113.5 -404.5z" />
    <glyph glyph-name="afii10066" unicode="&#x431;" horiz-adv-x="993" 
d="M479 68q153 0 254 144t101 347q0 115 -53.5 190.5t-166.5 75.5q-80 0 -152.5 -29.5t-113.5 -59.5q-98 -72 -98 -352q0 -316 229 -316zM1063 1384q0 -72 -162 -116l-137 -43q-150 -43 -262.5 -141.5t-173.5 -272.5q63 53 150 83t160 30q146 0 232 -102.5t86 -245.5
q0 -269 -136.5 -438t-352.5 -169q-156 0 -245 107.5t-89 312.5q0 326 146 586.5t448 343.5l143 43q108 29 152 86q41 -26 41 -64z" />
    <glyph glyph-name="afii10067" unicode="&#x432;" horiz-adv-x="921" 
d="M504 547q108 0 186 55t78 148q0 94 -59.5 115.5t-106.5 21.5q-125 0 -196.5 -68.5t-96.5 -222.5l-8 -49h203zM453 90q158 0 222 53.5t64 145.5q0 136 -99 152t-153 16h-202l-62 -367h230zM608 985q139 0 208 -62t69 -140q0 -130 -64 -193.5t-139 -85.5q58 -10 116 -66
t58 -149q0 -207 -151.5 -248t-262.5 -41h-350l107 627q41 249 182 303.5t227 54.5z" />
    <glyph glyph-name="afii10068" unicode="&#x433;" horiz-adv-x="722" 
d="M637 135q10 -16 10 -41t-53 -59q-110 -66 -248 -66t-215.5 60t-77.5 164q0 164 139 244.5t230.5 126.5t149 88t57.5 117t-53.5 97.5t-102.5 22.5q-131 0 -235 -117h-15l-24 23q-32 28 3 74.5t113 81t166 34.5q137 0 199.5 -64.5t62.5 -144.5t-29.5 -128t-76.5 -84
t-106.5 -66t-151.5 -78t-151.5 -97t-59.5 -115t43.5 -103t138.5 -37q142 0 266 100z" />
    <glyph glyph-name="afii10069" unicode="&#x434;" horiz-adv-x="966" 
d="M803 688q-85 135 -248 135q-164 0 -252 -129.5t-88 -351.5q0 -182 81.5 -228t157.5 -46t144 47t136.5 172t68.5 401zM563 930q147 0 248 -115q-16 348 -135 439.5t-203 91.5t-141 -33q-51 77 9 103q61 26 128 26q133 0 296 -128.5t163 -586.5q0 -322 -126 -540t-382 -218
q-155 0 -239.5 108t-84.5 244q0 264 127 436.5t340 172.5z" />
    <glyph glyph-name="afii10070" unicode="&#x435;" horiz-adv-x="884" 
d="M268 492h39q207 0 327 71.5t120 194.5q0 89 -47 110t-103 21t-117 -32t-136 -114.5t-103 -248.5q16 -2 20 -2zM477 68q164 0 271 133l26 -27q21 -22 21 -46t-16.5 -39t-49.5 -41q-100 -79 -264 -79q-236 0 -292 135.5t-56 265.5t45 246.5t116.5 198.5t162.5 126t198 44
t170 -59.5t63 -158.5q0 -178 -159 -268.5t-369 -90.5h-43q-43 0 -65 2v-45q0 -143 62 -220t179 -77z" />
    <glyph glyph-name="afii10072" unicode="&#x436;" horiz-adv-x="1419" 
d="M794 975q28 0 48 -23.5t20 -47.5t-2 -34l-145 -870h-115l160 973q6 2 34 2zM162 926q0 19 19.5 34t65.5 15t86 -37t64 -92l86 -193q45 -97 152 -114l-14 -76q-103 -18 -189 -117l-268 -297q-60 -67 -133 -67q-37 0 -64 12l381 416q66 74 156 100q-74 9 -117 106l-80 179
q-29 66 -62.5 84t-80.5 18q-2 10 -2 29zM1414 975q56 0 56 -55q0 -14 -2 -23q-55 0 -91 -20.5t-72 -67.5l-160 -205q-67 -83 -162 -108q47 -12 74.5 -40t50.5 -67l219 -395q-25 -12 -53 -12q-72 0 -109 69l-157 295q-25 47 -61 77t-99 40l14 76q116 18 191 114l164 215
q80 107 197 107z" />
    <glyph glyph-name="afii10073" unicode="&#x437;" horiz-adv-x="815" 
d="M74 172q108 -104 284 -104q104 0 176 55t72 158q0 159 -203 159h-176l17 97h170q109 0 177 51t68 156t-79.5 124t-116.5 19q-163 0 -264 -123h-15l-24 22q-17 13 -17 39t43 61q43 36 116.5 67.5t149.5 31.5q147 0 236.5 -65.5t89.5 -188.5q0 -90 -60.5 -153.5
t-154.5 -85.5q101 -30 131.5 -95t30.5 -122q0 -127 -103 -216.5t-259 -89.5q-155 0 -259 56q-73 38 -73 75q0 20 18 43z" />
    <glyph glyph-name="afii10074" unicode="&#x438;" horiz-adv-x="983" 
d="M813 122q1 -65 63 -65q28 0 50 9l8 -46q-57 -32 -118 -32t-90.5 34.5t-29.5 86.5v16q-55 -66 -125.5 -111t-187.5 -45t-184.5 70t-67.5 199q0 61 12 135l99 600q6 2 34 2t48 -23.5t20 -47.5t-2 -34l-82 -497q-10 -72 -10 -141q0 -68 40 -114t132 -46q170 0 231.5 107.5
t73.5 174.5l104 619q6 2 34 2t48.5 -23.5t20.5 -47.5t-2 -34l-113 -682q-6 -30 -6 -66z" />
    <glyph glyph-name="afii10075" unicode="&#x439;" horiz-adv-x="983" 
d="M813 123q0 -64 59 -66q31 0 54 9l8 -46q-57 -32 -118 -32q-60 0 -90 35t-30 86v16q-55 -66 -126 -111q-72 -45 -188 -45t-184 70t-67 199q0 61 12 135l99 600q6 2 34 2t48 -24t20 -47t-2 -34l-82 -497q-10 -72 -10 -141q0 -68 40 -114t132 -46q170 0 263 162
q30 52 42 120l104 619q6 2 34 2t52 -29t15 -76l-113 -682q-6 -30 -6 -65zM606 1065q-152 0 -209 71t-57 205q26 11 54 11t34 -18t19 -74t47 -82t117 -27q84 0 126 29t73 90t54 76q30 19 86 -9q-40 -135 -116 -203t-228 -69z" />
    <glyph glyph-name="afii10076" unicode="&#x43a;" horiz-adv-x="917" 
d="M298 975q28 0 48.5 -23.5t20.5 -47.5t-2 -34l-146 -870h-117l162 973q6 2 34 2zM999 918q0 -12 -2 -21q-59 0 -90.5 -21t-72.5 -67l-187 -205q-76 -82 -162 -104q78 -20 131 -111l238 -395q-36 -12 -68 -12q-59 0 -104 69l-172 295q-27 45 -61.5 76t-98.5 41l12 76
q109 17 193 114l188 215q94 106 193 107q63 0 63 -57z" />
    <glyph glyph-name="afii10077" unicode="&#x43b;" horiz-adv-x="1054" 
d="M-61 33q0 10 4 30q134 0 224 147.5t181 502.5l68 256h581l-159 -969h-119l145 872h-364l-64 -239q-29 -104 -64.5 -220t-122.5 -276t-259 -160q-51 0 -51 56z" />
    <glyph glyph-name="afii10078" unicode="&#x43c;" horiz-adv-x="1124" 
d="M356 975q59 0 72 -51l137 -578l350 576q35 53 101 53q39 0 59 -8l-100 -967h-109l92 817l-366 -586h-90l-142 570l-196 -801h-109l244 967q20 8 57 8z" />
    <glyph glyph-name="afii10079" unicode="&#x43d;" horiz-adv-x="1011" 
d="M298 975q28 0 49.5 -23.5t21.5 -47.5t-2 -34l-54 -317h467l70 420q6 2 34 2t49 -23.5t21 -47.5t-2 -34l-145 -870h-119l76 457h-467l-76 -457h-119l162 973q6 2 34 2z" />
    <glyph glyph-name="afii10080" unicode="&#x43e;" horiz-adv-x="987" 
d="M466 68q72 0 138 43t138.5 156.5t72.5 319.5t-78.5 253t-150.5 47t-138.5 -43t-138 -158t-71.5 -320t78 -251.5t150 -46.5zM460 -31q-183 0 -263 112.5t-80 248.5q0 135 32.5 248.5t95 203.5t155 146.5t196.5 56.5q179 0 260.5 -114t81.5 -249t-32 -247.5t-93 -202.5
t-154 -146.5t-199 -56.5z" />
    <glyph glyph-name="afii10081" unicode="&#x43f;" horiz-adv-x="1005" 
d="M809 707q0 176 -166 176q-183 0 -247 -105.5t-77 -175.5l-100 -602h-119l160 969h10q37 0 61.5 -22.5t24.5 -54.5t-4 -61q55 66 137.5 110t166.5 44q145 0 208.5 -77t63.5 -193q0 -71 -15 -146l-94 -569h-119l95 569q14 102 14 138z" />
    <glyph glyph-name="afii10082" unicode="&#x440;" horiz-adv-x="985" 
d="M815 610q1 269 -189 269q-100 0 -192.5 -69.5t-116.5 -207.5l-84 -498q69 -38 162 -38q176 0 298 163t122 381zM402 -31q-112 0 -183 45l-76 -460h-116l233 1415h10q84 0 84 -92l-2 -27q-2 -8 -2 -19q55 66 132 110t158 44q155 0 226.5 -106t71.5 -254t-41 -262.5
t-113.5 -201.5t-171 -139.5t-210.5 -52.5z" />
    <glyph glyph-name="afii10083" unicode="&#x441;" horiz-adv-x="835" 
d="M242 367q0 -299 239 -299q70 0 127.5 28.5t114.5 98.5l29 -27q18 -18 18 -43t-18 -42t-46 -40t-94 -48.5t-136 -25.5q-155 0 -257 90.5t-102 300.5q0 279 152.5 452t354.5 173q161 0 240 -108q44 -59 -4 -99l-29 -24h-16q-48 133 -202 133q-155 0 -263 -152t-108 -368z
" />
    <glyph glyph-name="afii10084" unicode="&#x442;" horiz-adv-x="1544" 
d="M1348 707q0 80 -39 128t-101 48q-277 0 -317 -269l-100 -614h-119l94 569q16 93 16 144q0 49 -18 89q-37 80 -127 81q-177 0 -241 -105.5t-77 -175.5l-100 -602h-119l160 969h10q37 0 61.5 -22.5t24.5 -56.5t-4 -59q55 66 138.5 110t169.5 44t146 -44t79 -116
q55 66 133 113t174 47t185 -43.5t89 -226.5q0 -64 -14 -146l-94 -569h-119l94 569q4 29 9.5 67t5.5 71z" />
    <glyph glyph-name="afii10085" unicode="&#x443;" horiz-adv-x="837" 
d="M61 -367q60 0 99 49.5t92 159.5l74 150h-21l-168 964q31 12 67 12t50 -28.5t22 -77.5l113 -741l363 760q45 88 91 88t68 -15l-573 -1163q-68 -134 -125.5 -195t-144.5 -61q-88 0 -119 31t-31 50t10 36l27 35q46 -54 106 -54z" />
    <glyph glyph-name="afii10086" unicode="&#x444;" horiz-adv-x="1196" 
d="M238 404q0 -149 73 -238.5t199 -102.5l135 816q-202 -8 -281 -111.5t-102.5 -193.5t-23.5 -170zM1024 548q0 145 -74.5 230t-199.5 99l-136 -814q209 8 309.5 146t100.5 339zM117 402q0 112 39 219.5t148.5 225.5t357.5 126l65 407q10 2 11 2h7q18 0 45 -13t27 -62v-11
q0 -10 -2 -18l-49 -307q156 -13 268.5 -125.5t112.5 -282.5q0 -270 -144.5 -430t-404.5 -164l-68 -415h-104l70 417q-158 12 -268.5 124t-110.5 307z" />
    <glyph glyph-name="afii10087" unicode="&#x445;" horiz-adv-x="751" 
d="M638 -16q-36 0 -54.5 17t-34.5 52l-152 353l-260 -375q-33 -47 -71 -47t-72 26l356 494l-207 454q25 10 61 10t53 -17t34 -52l137 -317l242 340q36 47 76 47t67 -27l-338 -455l219 -495q-20 -8 -56 -8z" />
    <glyph glyph-name="afii10088" unicode="&#x446;" horiz-adv-x="1028" 
d="M813 123q0 -62 56 -62t104 21l18 -31l-51 -330h-106l43 275q-25 -8 -73 -8t-78 34.5t-30 86.5v16q-55 -66 -125.5 -111t-187.5 -45t-184.5 70t-67.5 199q0 61 12 135l99 600q6 2 34 2t48 -23.5t20 -47.5t-2 -34l-82 -497q-10 -72 -10 -141q0 -68 40 -114t132 -46
q170 0 231.5 107.5t73.5 174.5l104 619q6 2 34 2t48.5 -23.5t20.5 -47.5t-2 -34l-113 -682q-6 -30 -6 -65z" />
    <glyph glyph-name="afii10089" unicode="&#x447;" horiz-adv-x="913" 
d="M254 596q0 -150 147 -150q89 0 178 37.5t97 79.5l76 410q6 2 34 2t49 -23.5t21 -43.5v-16q0 -15 -2 -22l-162 -870h-119l84 446q-59 -47 -136 -72.5t-148 -25.5q-111 0 -175.5 62.5t-64.5 169.5q0 49 12 116l48 277q5 2 33 2t49.5 -23.5t21.5 -43.5v-16q0 -15 -2 -22
l-31 -176q-10 -72 -10 -98z" />
    <glyph glyph-name="afii10090" unicode="&#x448;" horiz-adv-x="1533" 
d="M1364 129q0 -72 45 -72t68 9l8 -46q-57 -32 -118 -32t-90.5 34.5t-29.5 86.5v16q-55 -68 -139 -112t-170 -44t-146.5 44t-78.5 116q-55 -66 -133 -113t-174 -47t-185.5 43t-89.5 228q0 63 14 145l97 588q6 2 34 2t49 -23.5t21 -47.5t-2 -34l-80 -485q-14 -102 -14 -137
q0 -80 39 -128t101 -48q128 0 211 60t106 208l102 633q6 2 34 2t49 -23.5t21 -47.5t-2 -34l-80 -485q-16 -93 -16 -130q0 -122 52.5 -152.5t98.5 -30.5q109 0 199.5 75.5t112.5 204.5l102 621q6 2 34 2t49.5 -23.5t21.5 -47.5t-2 -34l-113 -682q-6 -24 -6 -59z" />
    <glyph glyph-name="afii10091" unicode="&#x449;" horiz-adv-x="1579" 
d="M1364 123q0 -62 56 -62t104 21l18 -31l-51 -330h-107l43 275q-25 -8 -73 -8t-77.5 34.5t-29.5 86.5v16q-55 -68 -139 -112t-170 -44t-146.5 44t-78.5 116q-55 -66 -133 -113t-174 -47t-185.5 43t-89.5 228q0 63 14 145l97 588q6 2 34 2t49 -23.5t21 -47.5t-2 -34
l-80 -485q-14 -102 -14 -137q0 -80 39 -128t101 -48q128 0 211 60t106 208l102 633q6 2 34 2t49 -23.5t21 -47.5t-2 -34l-80 -485q-16 -93 -16 -130q0 -122 52.5 -152.5t98.5 -30.5q109 0 199.5 75.5t112.5 204.5l102 621q6 2 34 2t49.5 -23.5t21.5 -47.5t-2 -34l-113 -682
q-6 -24 -6 -65z" />
    <glyph glyph-name="afii10092" unicode="&#x44a;" horiz-adv-x="946" 
d="M504 90q137 0 206.5 56.5t69.5 187.5t-87 144.5t-140 13.5t-83 -2.5t-56 -4.5l-66 -395h156zM102 872q0 39 17.5 68t70.5 29h304l-66 -394q61 6 129 7q180 0 258 -60.5t78 -189.5q0 -233 -143.5 -282.5t-253.5 -49.5h-279l145 872h-260z" />
    <glyph glyph-name="afii10093" unicode="&#x44b;" horiz-adv-x="1196" 
d="M1040 975h17q37 0 59.5 -23.5t22.5 -47.5t-2 -34l-146 -870h-119l162 973q4 2 6 2zM354 90q137 0 208 57t71 187t-84 144t-124 14t-70.5 -2.5t-57.5 -4.5l-66 -395h123zM420 582q174 0 249.5 -60.5t75.5 -189.5q0 -232 -144 -282t-255 -50h-246l162 973q6 2 34 2
t48.5 -23.5t20.5 -47.5t-3 -34l-49 -295q54 7 107 7z" />
    <glyph glyph-name="afii10094" unicode="&#x44c;" horiz-adv-x="849" 
d="M408 90q137 0 206.5 56.5t69.5 187.5t-90 144.5t-148 13.5t-90 -2.5t-59 -4.5l-66 -395h177zM451 582q188 0 267 -60.5t79 -189.5q0 -233 -143.5 -282.5t-254.5 -49.5h-299l162 973q6 2 34 2t48.5 -23.5t20.5 -47.5t-3 -34l-49 -295q54 7 138 7z" />
    <glyph glyph-name="afii10095" unicode="&#x44d;" horiz-adv-x="915" 
d="M745 590q0 143 -57 220t-206 77t-259 -125h-14l-27 24q-14 12 -14 32q0 64 117.5 115.5t201.5 51.5q167 0 273 -94.5t106 -302.5q0 -257 -133.5 -438t-370.5 -181q-169 0 -235 60.5t-66 85.5t19 43l26 28q43 -41 103.5 -79.5t144.5 -38.5q155 0 248 101.5t127 270.5h-463
l15 97h460q4 32 4 53z" />
    <glyph glyph-name="afii10096" unicode="&#x44e;" horiz-adv-x="1404" 
d="M896 68q66 0 130 43t135.5 157t71.5 320t-76.5 252.5t-142.5 46.5t-129.5 -43t-134 -156.5t-70.5 -319.5t75 -253t141 -47zM298 975q28 0 49.5 -23.5t21.5 -47.5t-2 -34l-56 -325h271q80 300 225 370t231 70q157 0 237.5 -112.5t80.5 -248.5q0 -137 -31 -249.5
t-92.5 -202.5t-151 -146.5t-191.5 -56.5t-216.5 66t-114.5 317q0 47 6 97h-270l-74 -449h-119l162 973q6 2 34 2z" />
    <glyph glyph-name="afii10097" unicode="&#x44f;" horiz-adv-x="884" 
d="M530 872q-109 0 -178 -49t-69 -164q0 -72 48 -117.5t146 -45.5h156l63 376h-166zM502 403q-78 0 -128 -34.5t-91 -100.5l-138 -219q-41 -67 -87 -67t-72 12l172 276q44 72 78 108.5t98 61.5q-70 29 -119 84.5t-49 135.5q0 153 104 231t273 78h284l-159 -969h-117l67 403
h-116z" />
    <glyph glyph-name="uni0450" unicode="&#x450;" horiz-adv-x="884" 
d="M754 758q0 131 -135 131t-239 -115t-132 -280q16 -2 32 -2h27q207 0 327 72t120 194zM228 48q-113 99 -111 306q0 276 162 461q149 170 360 170q107 0 170 -59q63 -58 63 -158q0 -180 -161 -271t-367 -89h-55q-31 0 -53 2v-45q0 -143 62 -221t179 -76q166 0 271 133
l26 -27q19 -19 20 -45q0 -25 -16 -40q-132 -120 -295 -120t-255 79zM663 1065q-38 0 -61 29l-188 243q34 35 70 35t54 -10t35 -41l144 -234q-16 -22 -54 -22z" />
    <glyph glyph-name="afii10071" unicode="&#x451;" horiz-adv-x="884" 
d="M754 758q0 131 -135 131t-239 -115t-132 -280q16 -2 32 -2h27q207 0 327 72t120 194zM228 48q-113 99 -111 306q0 276 162 461q149 170 360 170q107 0 170 -59q63 -58 63 -158q0 -180 -161 -271t-367 -89h-55q-31 0 -53 2v-45q0 -143 62 -221t179 -76q166 0 271 133
l26 -27q19 -19 20 -45q0 -25 -16 -40q-132 -120 -295 -120t-255 79zM834 1288q62 0 72 -73q4 -35 -21 -71t-67 -36q-70 0 -81 66q-4 42 21 78t76 36zM487 1288q63 0 73 -73q4 -35 -21 -71t-67 -36q-70 0 -81 66q-4 42 21 78t75 36z" />
    <glyph glyph-name="afii10099" unicode="&#x452;" horiz-adv-x="1001" 
d="M803 674q0 176 -166 176q-183 0 -247 -105.5t-77 -175.5l-94 -569h-119l191 1163h-135l14 97h137l33 194q6 2 34 2t49 -23t21 -47t-2 -34l-16 -92h297l-14 -97h-297l-60 -358q55 63 136.5 105t163.5 42q141 0 205.5 -76t64.5 -194q0 -60 -15 -145l-108 -658
q-32 -207 -120 -285q-67 -59 -165 -59q-43 0 -52 22.5t-9 51.5v18h18q138 0 167.5 90t37.5 138l112 682q4 29 9.5 66.5t5.5 70.5z" />
    <glyph glyph-name="afii10100" unicode="&#x453;" horiz-adv-x="722" 
d="M350 68q144 0 266 100l21 -33q10 -16 10 -42t-54 -58q-105 -64 -269 -66q-116 0 -193 60q-76 60 -78 164q0 164 192 275q81 47 175 95q94 49 131 75q76 55 77 116q2 62 -22 86q-48 49 -133 49q-131 0 -235 -117h-15l-24 23q-33 28 3 75t114 81q77 34 165 34
q137 0 200 -64q62 -65 62 -145q1 -80 -29 -128q-53 -86 -184 -149q-231 -118 -297 -171q-65 -53 -65 -119t30 -91q61 -50 152 -50zM506 1094q-29 -29 -71 -29t-58 22l184 226q47 59 97 59t83 -35z" />
    <glyph glyph-name="afii10101" unicode="&#x454;" horiz-adv-x="847" 
d="M481 68q135 0 242 118l29 -26q18 -18 18 -43t-18 -43t-44 -38t-94 -43.5t-138 -23.5q-155 0 -257 90.5t-102 300.5q0 279 114.5 409t203.5 173t161 43q189 0 260 -93q44 -58 30 -77.5t-26 -30.5l-29 -24h-16q-48 127 -213 127q-113 0 -207.5 -98t-132.5 -248h453l-15 -97
h-454q-4 -20 -4 -24v-53q0 -299 239 -299z" />
    <glyph glyph-name="afii10102" unicode="&#x455;" horiz-adv-x="763" 
d="M92 168q105 -100 235 -100t178 55.5t48 107.5t-16.5 80.5t-46.5 57.5t-94 71t-147 100t-83 199q0 166 117.5 206t197.5 40t138.5 -27.5t90.5 -60.5t31 -59t-14 -39l-31 -27h-14q-82 117 -217 117q-100 0 -143 -42.5t-43 -92.5t13 -77.5t37.5 -51t61.5 -47t89 -58.5
q110 -74 148 -130.5t38 -130.5q0 -131 -87 -210.5t-248 -79.5t-221.5 50.5t-60.5 73.5t19 44z" />
    <glyph glyph-name="afii10103" unicode="&#x456;" horiz-adv-x="415" 
d="M244 120q0 -62 45 -62.5t67 8.5l9 -46q-57 -32 -118 -32t-92.5 34.5t-31.5 70.5t3 57.5t7 50.5l129 772q6 2 34 2t48.5 -23.5t20.5 -47.5t-3 -34l-112 -682q-6 -34 -6 -68zM345 1114q-79 0 -79 80q0 41 24.5 75t65.5 34t59.5 -24.5t18.5 -60.5t-23.5 -70t-65.5 -34z" />
    <glyph glyph-name="afii10104" unicode="&#x457;" horiz-adv-x="415" 
d="M532 1288q62 0 72 -74q4 -34 -20 -70q-25 -36 -67 -36q-72 0 -81 66q-4 43 20.5 78.5t75.5 35.5zM186 1288q62 0 72 -74q4 -34 -20 -70q-25 -36 -67 -36q-72 0 -81 66q-4 43 20.5 78.5t75.5 35.5zM244 120q0 -62 45 -62.5t67 8.5l9 -46q-57 -32 -118 -32t-92.5 34.5
t-31.5 70.5t3 57.5t7 50.5l129 772q6 2 34 2t48.5 -23.5t20.5 -47.5t-3 -34l-112 -682q-6 -34 -6 -68z" />
    <glyph glyph-name="afii10105" unicode="&#x458;" horiz-adv-x="405" 
d="M345 1114q-79 0 -79 80q0 41 24.5 75t65.5 34t59.5 -24.5t18.5 -60.5t-23.5 -70t-65.5 -34zM-145 -373h18q138 0 167.5 90t37.5 138l184 1118q6 2 34 2t48.5 -23.5t20.5 -47.5t-3 -34l-163 -991q-33 -211 -121 -287q-63 -57 -162 -57q-43 0 -52 25.5t-9 48.5v18z" />
    <glyph glyph-name="afii10106" unicode="&#x459;" horiz-adv-x="1349" 
d="M967 582q330 0 329 -254q0 -226 -149.5 -277t-259.5 -51h-240l146 872h-293l-64 -239q-29 -104 -64.5 -220t-122.5 -276t-259 -160q-51 0 -51 56q0 10 4 30q131 0 218.5 140.5t186.5 509.5l68 256h508l-66 -394q54 7 109 7zM895 94q137 0 213 52.5t76 182.5t-87 144
t-132 14t-123 -6l-64 -387h117z" />
    <glyph glyph-name="afii10107" unicode="&#x45a;" horiz-adv-x="1327" 
d="M872 94q137 0 213 50.5t76 181.5t-87 142t-132 11t-125 -6l-63 -379h118zM944 573q330 0 330 -249q0 -226 -149.5 -275t-260.5 -49h-243l77 467h-399l-78 -467h-119l162 973q6 2 34 2t49.5 -23.5t21.5 -47.5t-2 -34l-52 -307h400l67 410q6 2 34 2t49.5 -23.5t21.5 -47.5
t-2 -34l-51 -303q47 6 110 6z" />
    <glyph glyph-name="afii10108" unicode="&#x45b;" horiz-adv-x="1001" 
d="M803 674q0 176 -166 176q-183 0 -247 -105.5t-77 -175.5l-94 -569h-119l191 1163h-135l14 97h137l33 194q6 2 34 2t49 -23t21 -47t-2 -34l-16 -92h297l-14 -97h-297l-60 -358q55 63 136.5 105t163.5 42q141 0 205.5 -76t64.5 -194q0 -60 -15 -145l-88 -537h-119l88 537
q4 29 9.5 66.5t5.5 70.5z" />
    <glyph glyph-name="afii10109" unicode="&#x45c;" horiz-adv-x="917" 
d="M298 975q28 0 52 -29t15 -76l-146 -870h-117l162 973q6 2 34 2zM999 918q0 -12 -2 -21q-58 0 -89 -19t-74 -69l-187 -205q-76 -82 -162 -104q78 -20 131 -111l238 -395q-36 -12 -68 -12q-61 0 -104 69l-172 295q-27 45 -61 76q-35 31 -99 41l12 76q107 16 193 114
l188 215q94 106 193 107q63 0 63 -57zM635 1094q-29 -29 -71 -29t-58 22l184 226q47 59 97 59t83 -35z" />
    <glyph glyph-name="uni045D" unicode="&#x45d;" horiz-adv-x="983" 
d="M813 123q0 -64 59 -66q31 0 54 9l8 -46q-57 -32 -118 -32q-60 0 -90 35t-30 86v16q-55 -66 -126 -111q-72 -45 -188 -45t-184 70t-67 199q0 61 12 135l99 600q6 2 34 2t48 -24t20 -47t-2 -34l-82 -497q-10 -72 -10 -141q0 -68 40 -114t132 -46q170 0 263 162
q30 52 42 120l104 619q6 2 34 2t52 -29t15 -76l-113 -682q-6 -30 -6 -65zM628 1065q-38 0 -61 29l-188 243q35 35 71 35t53 -10t36 -41l143 -234q-16 -22 -54 -22z" />
    <glyph glyph-name="afii10110" unicode="&#x45e;" horiz-adv-x="837" 
d="M-82 -381q0 16 10 33l27 35q45 -52 117 -54q49 -1 88 49t92 160l74 150h-21l-168 964q31 12 67 12t50 -28q14 -29 22 -78l113 -741l363 760q69 136 159 73l-573 -1163q-68 -134 -108 -177q-73 -77 -169 -79q-51 1 -81 15q-62 30 -62 69zM554 1065q-152 0 -208 71
q-57 71 -57 205q25 11 53 11t35 -18q6 -18 19 -74t46 -82t117 -27q84 0 127 29q42 29 73 90t54 76q30 19 86 -9q-39 -135 -116 -203t-229 -69z" />
    <glyph glyph-name="afii10193" unicode="&#x45f;" horiz-adv-x="983" 
d="M813 122q1 -65 63 -65q28 0 50 9l8 -46q-57 -32 -118 -32t-90.5 34.5t-29.5 86.5v16q-55 -66 -125.5 -111t-187.5 -45t-184.5 70t-67.5 199q0 61 12 135l99 600q6 2 34 2t48 -23.5t20 -47.5t-2 -34l-82 -497q-10 -72 -10 -141q0 -68 40 -114t132 -46q170 0 231.5 107.5
t73.5 174.5l104 619q6 2 34 2t48.5 -23.5t20.5 -47.5t-2 -34l-113 -682q-6 -30 -6 -66zM440 -446h-106l51 327h107z" />
    <glyph glyph-name="uni0462" unicode="&#x462;" horiz-adv-x="1189" 
d="M590 100q304 0 362 131t58 215q0 145 -91.5 205t-221.5 60t-220 -11l-100 -600h213zM666 811q250 0 360.5 -96.5t110.5 -257.5q0 -196 -139 -326.5t-427 -130.5h-333l180 1090h-312q0 43 17.5 72.5t71.5 29.5h239l37 221q10 2 11 2h18q33 0 55.5 -22.5t22.5 -46.5t-3 -33
l-18 -121h453q0 -43 -17.5 -72.5t-70.5 -29.5h-381l-47 -289q103 10 172 10z" />
    <glyph glyph-name="uni0463" unicode="&#x463;" horiz-adv-x="997" 
d="M530 94q160 0 230.5 54t70.5 166t-59.5 141.5t-171.5 29.5t-190 -6l-66 -385h186zM573 582q205 0 288 -61.5t83 -188.5q0 -233 -151.5 -282.5t-270.5 -49.5h-309l145 872h-245q0 39 17 68t71 29h174l80 483q10 2 11 2h17q33 0 54.5 -22t21.5 -46t-2 -34l-65 -383h417
q0 -39 -17.5 -68t-70.5 -29h-346q-10 -59 -21 -122.5t-28 -174.5q54 7 147 7z" />
    <glyph glyph-name="uni0472" unicode="&#x472;" horiz-adv-x="1280" 
d="M1106 880q0 169 -76.5 289.5t-246.5 120.5t-297.5 -152.5t-176.5 -396.5h789q8 67 8 139zM285 488q0 -176 73 -295t228 -119q185 0 318 160.5t179 404.5h-790q-8 -75 -8 -151zM606 -31q-142 0 -222.5 45t-153 152.5t-72.5 327.5q0 160 40 320.5t120.5 289.5t202 210
t263.5 81t222.5 -45t153.5 -152t73 -328q0 -160 -40 -320.5t-121 -289.5t-202.5 -210t-263.5 -81z" />
    <glyph glyph-name="uni0473" unicode="&#x473;" horiz-adv-x="987" 
d="M815 554v64q0 108 -54.5 188.5t-171.5 80.5t-209 -103t-124 -254h557q2 20 2 24zM238 350q0 -118 52 -200t171 -82t210.5 101.5t127.5 268.5h-557q-4 -40 -4 -88zM460 -31q-183 0 -263 112.5t-80 248.5q0 135 32.5 248.5t95 203.5t155 146.5t196.5 56.5q179 0 260.5 -114
t81.5 -249t-32 -247.5t-93 -202.5t-154 -146.5t-199 -56.5z" />
    <glyph glyph-name="uni0474" unicode="&#x474;" horiz-adv-x="1241" 
d="M1350 1221q-40 57 -94 57q-55 0 -88 -31t-74 -121l-547 -1126h-123l-231 1368q27 6 59 6q63 0 80 -96l176 -1137l479 1024q45 100 100.5 157.5t152.5 57.5t149 -57q14 -19 14 -43t-35 -59h-18z" />
    <glyph glyph-name="uni0475" unicode="&#x475;" horiz-adv-x="970" 
d="M956 985q62 -1 97 -31t32.5 -51.5t-18.5 -40.5l-16 -20h-17q-10 20 -33.5 34.5t-61 14.5t-66 -33.5t-62.5 -101.5l-389 -764h-121l-170 964q27 12 63 12t51 -28.5t23 -77.5l117 -737l311 643q52 107 87.5 143.5t73 55t99.5 18.5z" />
    <glyph glyph-name="uni048A" unicode="&#x48a;" horiz-adv-x="1251" 
d="M825 1479q-152 0 -209 70.5t-57 205.5q25 10 53 10t34 -17.5t20 -73.5t47 -82.5t97 -26.5q103 0 148 30.5t74 90.5q28 59 44 69t40 10t53 -14q-39 -135 -115.5 -203.5t-228.5 -68.5zM372 1374q28 0 46 -23t18 -49t-4 -47l-172 -1042l850 1108q25 33 45.5 43t48.5 10
t53 -10l-210 -1262h118q-51 -250 -276 -405l-64 78q137 115 185 225h-92l184 1133l-875 -1133h-116l227 1372q6 2 34 2z" />
    <glyph glyph-name="uni048B" unicode="&#x48b;" horiz-adv-x="983" 
d="M606 1065q-152 0 -209 70.5t-57 205.5q26 11 54 11t34 -18t19 -74t46 -82.5t97 -26.5q103 0 148.5 30.5t74.5 90.5q28 59 43.5 69.5t39.5 10.5t54 -15q-39 -135 -115.5 -203.5t-228.5 -68.5zM813 123q0 -62 57 -62q51 0 97 15l8 -45q-37 -180 -227 -312l-60 74
q110 78 158 197q-8 -2 -25 -2q-66 0 -95.5 34.5t-29.5 86.5v16q-55 -66 -125.5 -111t-187.5 -45t-184.5 70t-67.5 199q0 61 12 135l99 600q6 2 34 2t48 -23.5t20 -47.5t-2 -34l-82 -497q-10 -72 -10 -141q0 -68 40 -114t132 -46q170 0 231.5 107.5t73.5 174.5l104 619
q6 2 34 2t48.5 -23.5t20.5 -47.5t-2 -34l-113 -682q-6 -30 -6 -65z" />
    <glyph glyph-name="uni048C" unicode="&#x48c;" horiz-adv-x="1060" 
d="M526 100q420 0 420 361q0 141 -88.5 204.5t-207.5 63.5t-222 -10l-102 -619h200zM608 827q246 0 355.5 -99t109.5 -267q0 -319 -207 -390t-358 -71h-322l174 1059h-202l16 102h205l37 211q10 2 12 2h16q33 0 55.5 -22t22.5 -46t-2 -34l-20 -111h280l-16 -102h-281
l-39 -242q103 10 164 10z" />
    <glyph glyph-name="uni048D" unicode="&#x48d;" horiz-adv-x="917" 
d="M463 94q137 0 213 51.5t76 183.5t-98.5 145t-169.5 13t-150 -6l-66 -387h195zM498 582q201 0 283.5 -63.5t82.5 -192.5q0 -228 -149.5 -277t-259.5 -49h-318l121 731h-131l14 96h133l25 146q6 2 34 2t48 -23.5t20 -45.5t-2 -34l-8 -45h256l-14 -96h-258l-25 -156
q54 7 148 7z" />
    <glyph glyph-name="uni048E" unicode="&#x48e;" horiz-adv-x="997" 
d="M913 1038q0 119 -76.5 182.5t-224.5 63.5q-80 0 -172 -10l-102 -615h174q52 0 106 9l-71 172l90 39l78 -187q198 78 198 346zM489 557h-167l-93 -557h-116l227 1366q142 18 264 18q220 0 328 -97.5t108 -262.5q0 -164 -78.5 -270.5t-207.5 -153.5l84 -197l-90 -43
l-91 211q-72 -14 -168 -14z" />
    <glyph glyph-name="uni048F" unicode="&#x48f;" horiz-adv-x="985" 
d="M815 610q1 269 -189 269q-100 0 -192.5 -69.5t-116.5 -207.5l-84 -498q69 -38 144 -38q76 0 129 16l-66 182l86 35l64 -172q98 72 161.5 201t63.5 282zM640 985q155 0 226.5 -106t71.5 -282t-84 -331.5t-227 -236.5l69 -189l-88 -37l-69 189q-68 -23 -158 -23t-162 45
l-76 -460h-116l233 1415h10q84 0 84 -92l-2 -27q-2 -8 -2 -19q55 66 132 110t158 44z" />
    <glyph glyph-name="afii10050" unicode="&#x490;" horiz-adv-x="897" 
d="M956 1616h15q29 0 49 -19t20 -41t-2 -30l-43 -258h-553l-211 -1268h-122l227 1370h569l41 244q8 2 10 2z" />
    <glyph glyph-name="afii10098" unicode="&#x491;" horiz-adv-x="712" 
d="M732 1194q26 0 45.5 -22t19.5 -44t-2 -30l-37 -226h-391l-146 -872h-119l160 969h402l36 223q6 2 32 2z" />
    <glyph glyph-name="uni0492" unicode="&#x492;" horiz-adv-x="872" 
d="M1016 1370q0 -43 -17.5 -72.5t-70.5 -29.5h-486l-90 -537h373l-16 -102h-373l-105 -629h-122l104 629h-135l16 102h135l107 639h680z" />
    <glyph glyph-name="uni0493" unicode="&#x493;" horiz-adv-x="722" 
d="M637 135q10 -16 10 -41t-53 -59q-110 -66 -248 -66t-215.5 60t-77.5 164q0 139 87 202.5t130 87.5l-166 92l46 82l221 -122q57 31 157.5 81t100.5 150q0 78 -53.5 100.5t-102.5 22.5q-131 0 -235 -117h-15l-24 23q-32 28 3 74.5t113 81t166 34.5q137 0 199.5 -64.5
t62.5 -140.5t-21.5 -119t-65.5 -83.5t-175 -104.5l189 -102l-45 -82l-244 133q-109 -59 -161 -105.5t-52 -110.5t43.5 -101t138.5 -37q142 0 266 100z" />
    <glyph glyph-name="uni0494" unicode="&#x494;" horiz-adv-x="1034" 
d="M373 -317q192 0 316 170t124 487q0 174 -85 271.5t-257 97.5q-78 0 -123 -9l-117 -700h-122l227 1370h598q0 -43 -17.5 -72.5t-70.5 -29.5h-404l-77 -465q61 6 148 6t257 -74.5t170 -394.5q0 -321 -110.5 -477t-215 -216.5t-235.5 -60.5q-70 0 -70 52q0 25 10 49
q24 -4 54 -4z" />
    <glyph glyph-name="uni0495" unicode="&#x495;" horiz-adv-x="899" 
d="M346 -319q180 0 278.5 134t98.5 371t-104.5 276.5t-184.5 39.5t-131 -10l-82 -492h-119l160 969h524q0 -39 -17 -68t-71 -29h-331l-48 -280q50 8 115 8q197 0 304.5 -103.5t107.5 -310.5q0 -278 -139 -439t-355 -161q-69 0 -69 52q0 27 10 47q24 -4 53 -4z" />
    <glyph glyph-name="uni0496" unicode="&#x496;" horiz-adv-x="1730" 
d="M970 1374q28 0 49 -23t21 -47t-2 -34l-209 -1270h-120l227 1372q6 2 34 2zM22 -18q-41 0 -65 14l522 625q79 97 185 129q-63 20 -100.5 61t-63.5 94l-138 273q-31 59 -68.5 85.5t-103.5 26.5v13q0 72 80 71q118 0 179 -131l137 -270q86 -176 209 -197l-17 -80
q-61 -10 -108 -45t-103 -102l-415 -500q-35 -41 -62 -54t-68 -13zM1701 1374q85 0 85 -42v-17q0 -17 -2 -29q-66 0 -115 -23.5t-100 -88.5l-211 -275q-96 -123 -240 -168q78 -27 129 -121l283 -510v2h102l-63 -397h-115l45 279q-53 9 -84 65l-274 500q-37 68 -69 102.5
t-85 44.5l17 80q129 20 274 197l203 270q53 72 112.5 101.5t107.5 29.5z" />
    <glyph glyph-name="uni0497" unicode="&#x497;" horiz-adv-x="1427" 
d="M794 975q28 0 48 -23.5t20 -47.5t-2 -34l-145 -870h-115l160 973q6 2 34 2zM162 926q0 19 19.5 34t65.5 15t86 -37t64 -92l86 -193q45 -97 152 -114l-14 -76q-103 -18 -189 -117l-268 -297q-60 -67 -133 -67q-37 0 -64 12l381 416q66 74 156 100q-74 9 -117 106l-80 179
q-29 66 -62.5 84t-80.5 18q-2 10 -2 29zM1414 975q56 0 56 -55q0 -14 -2 -23q-55 0 -91 -20.5t-72 -67.5l-160 -205q-67 -83 -162 -108q47 -12 74.5 -40t50.5 -67l158 -287h98l-59 -381h-107l41 265q-47 12 -74 65l-157 295q-25 47 -61 77t-99 40l14 76q116 18 191 114
l164 215q80 107 197 107z" />
    <glyph glyph-name="uni0498" unicode="&#x498;" horiz-adv-x="999" 
d="M428 74q145 0 248.5 84.5t103.5 235.5t-83 214.5t-208 63.5h-159l16 102h160q237 0 291.5 113.5t54.5 195.5t-61.5 146.5t-182.5 64.5q-186 0 -313 -153h-16q-43 33 -43 61t26 55q138 138 352 138q167 0 266 -88.5t99 -216.5q0 -274 -291 -371q71 -11 146 -92.5
t75 -241.5t-125.5 -281t-318.5 -133q-27 -31 -27 -58t10.5 -43.5t32 -52.5t21.5 -79q0 -82 -61.5 -123t-139.5 -41q-45 0 -45 45q0 23 14 49q15 -6 37 -6q96 0 96 72q0 27 -21.5 53.5t-30.5 42.5t-9 39q0 56 41 102q-156 5 -249 71t-93 110q0 23 15.5 39t39.5 38
q122 -155 332 -155z" />
    <glyph glyph-name="uni0499" unicode="&#x499;" horiz-adv-x="815" 
d="M74 172q108 -104 284 -104q104 0 176 55t72 158q0 159 -203 159h-176l17 97h170q109 0 177 51t68 156t-79.5 124t-116.5 19q-163 0 -264 -123h-15l-24 22q-17 13 -17 39t43 61q43 36 116.5 67.5t149.5 31.5q147 0 236.5 -65.5t89.5 -188.5q0 -90 -60.5 -153.5
t-154.5 -85.5q101 -30 131.5 -95t30.5 -120q0 -119 -92 -207t-242 -99q-29 -29 -29 -57t10.5 -44.5t32 -51t21.5 -79.5q0 -84 -61.5 -124.5t-139.5 -40.5q-45 0 -45 45q0 23 15 49q15 -6 36 -6q96 0 97 72q0 24 -21.5 52t-31 44t-9.5 39q0 56 41 102q-165 12 -220.5 58.5
t-55.5 68.5t18 45z" />
    <glyph glyph-name="uni049A" unicode="&#x49a;" horiz-adv-x="1142" 
d="M348 1374h14q33 0 55.5 -22t22.5 -46t-2 -34l-209 -1272h-120l227 1372q10 2 12 2zM1117 1374q85 0 85 -42v-17q0 -17 -2 -29q-66 0 -114 -23.5t-101 -88.5l-227 -275q-45 -53 -99.5 -97t-140.5 -71q78 -27 129 -121l295 -508h102l-63 -397h-115l45 279q-49 9 -80 65
l-290 500q-39 68 -71 101.5t-83 45.5l16 80q132 25 275 197l219 270q55 70 113.5 100.5t106.5 30.5z" />
    <glyph glyph-name="uni049B" unicode="&#x49b;" horiz-adv-x="948" 
d="M298 975q28 0 48.5 -23.5t20.5 -47.5t-2 -34l-146 -870h-117l162 973q6 2 34 2zM999 918q0 -12 -2 -21q-59 0 -90.5 -21t-72.5 -67l-187 -205q-76 -82 -162 -104q78 -20 131 -111l172 -287h97l-60 -381h-106l41 265q-47 12 -78 65l-172 295q-27 45 -61.5 76t-98.5 41
l12 76q109 17 193 114l188 215q94 106 193 107q63 0 63 -57z" />
    <glyph glyph-name="uni049C" unicode="&#x49c;" horiz-adv-x="1130" 
d="M348 1374h14q33 0 55.5 -22t22.5 -46t-2 -34l-209 -1272h-120l227 1372q10 2 12 2zM1017 -18q-34 0 -61.5 10t-54.5 57l-291 500q-10 16 -17 30.5t-15 26.5l-35 -207h-92l51 283q-23 8 -49.5 9t-65.5 5l16 80q83 5 117 17l51 280h93l-48 -223q69 51 132 123l219 270
q103 131 225 131q43 0 61.5 -13t18.5 -29v-17t-2 -29q-66 0 -114 -23.5t-101 -88.5l-228 -275q-105 -123 -247 -168q85 -29 137 -121l358 -616q-24 -12 -58 -12z" />
    <glyph glyph-name="uni049D" unicode="&#x49d;" horiz-adv-x="952" 
d="M298 975q28 0 48.5 -23.5t20.5 -47.5t-2 -34l-146 -870h-117l162 973q6 2 34 2zM1034 918q0 -12 -2 -21q-59 0 -89.5 -20t-74.5 -68l-186 -205q-76 -81 -162 -104q78 -20 131 -111l238 -395q-35 -12 -68 -12q-61 0 -104 69l-172 295q-20 35 -45 60l-35 -207h-90l41 256
q-6 2 -66 8l12 76q38 0 70 8l37 223h90l-29 -176q26 23 60 59l188 215q94 106 193 107q63 0 63 -57z" />
    <glyph glyph-name="uni049E" unicode="&#x49e;" horiz-adv-x="1060" 
d="M348 1374h14q33 0 55.5 -22t22.5 -46t-2 -34l-20 -125h190l-14 -98h-193l-172 -1049h-120l174 1049h-136l15 98h137l37 225q10 2 12 2zM948 -18q-34 0 -62 10t-55 57l-290 500q-39 68 -71 101.5t-83 45.5l16 80q132 25 275 197l219 270q103 131 225 131q43 0 61.5 -13
t18.5 -29v-17q0 -17 -2 -29q-66 0 -114 -23.5t-101 -88.5l-227 -275q-45 -53 -99.5 -97t-140.5 -71q78 -27 129 -121l359 -616q-24 -12 -58 -12z" />
    <glyph glyph-name="uni049F" unicode="&#x49f;" horiz-adv-x="935" 
d="M316 975q28 0 48.5 -23.5t20.5 -47.5t-2 -34l-8 -49h145l-14 -90h-148l-120 -731h-117l121 731h-129l14 90h131l25 152q5 2 33 2zM804 -18q-59 0 -104 69l-172 295q-27 45 -61.5 76t-97.5 41l12 76q111 17 192 114l189 215q94 106 192 107q63 0 64 -57q0 -12 -2 -21
q-60 0 -91.5 -21t-72.5 -67l-186 -205q-76 -81 -162 -104q47 -12 76.5 -41t54.5 -70l237 -395q-36 -12 -68 -12z" />
    <glyph glyph-name="uni04A0" unicode="&#x4a0;" horiz-adv-x="1275" 
d="M1162 -18q-34 0 -61.5 10t-53.5 57l-291 500q-39 68 -71 101.5t-83 45.5l16 80q134 25 275 197l219 270q103 131 225 131q43 0 61.5 -13t18.5 -29v-17q0 -17 -2 -29q-66 0 -114 -23.5t-101 -88.5l-227 -275q-45 -53 -99.5 -97t-140.5 -71q78 -27 129 -121l359 -616
q-25 -12 -59 -12zM178 1268q0 43 17.5 72.5t70.5 29.5h404l-226 -1370h-120l211 1268h-357z" />
    <glyph glyph-name="uni04A1" unicode="&#x4a1;" horiz-adv-x="1017" 
d="M86 872q0 39 17.5 68t70.5 29h289l-164 -969h-117l148 872h-244zM1079 918q0 -12 -2 -21q-59 0 -89.5 -20t-74.5 -68l-186 -205q-76 -81 -162 -104q78 -20 131 -111l238 -395q-35 -12 -68 -12q-61 0 -104 69l-172 295q-27 45 -61.5 76t-98.5 41l12 76q109 17 193 114
l188 215q94 106 193 107q63 0 63 -57z" />
    <glyph glyph-name="uni04A2" unicode="&#x4a2;" horiz-adv-x="1232" 
d="M370 1374q26 0 48 -23.5t22 -58.5v-10q0 -4 -2 -12l-84 -510h654l102 612q10 2 36 2t48.5 -23.5t22.5 -58.5v-10q0 -4 -3 -12l-194 -1168h115l-64 -397h-115l48 295h-121l108 657h-653l-109 -657h-120l225 1372q10 2 36 2z" />
    <glyph glyph-name="uni04A3" unicode="&#x4a3;" horiz-adv-x="991" 
d="M298 975q28 0 49.5 -23.5t21.5 -47.5t-2 -34l-54 -317h467l70 420q6 2 34 2t49 -23.5t21 -47.5t-2 -34l-129 -768h105l-60 -381h-106l43 279h-117l76 457h-467l-76 -457h-119l162 973q6 2 34 2z" />
    <glyph glyph-name="uni04A4" unicode="&#x4a4;" horiz-adv-x="1437" 
d="M368 1374q28 0 50 -23t22 -47t-2 -34l-84 -510h654l102 610h471q0 -43 -17.5 -72.5t-70.5 -29.5h-279l-210 -1268h-121l108 657h-653l-109 -657h-120l225 1372q6 2 34 2z" />
    <glyph glyph-name="uni04A5" unicode="&#x4a5;" horiz-adv-x="1122" 
d="M298 975q28 0 49.5 -23.5t21.5 -47.5t-2 -34l-54 -317h467l70 416h354q0 -39 -17.5 -68t-70.5 -29h-164v-2l-145 -870h-119l76 457h-467l-76 -457h-119l162 973q6 2 34 2z" />
    <glyph glyph-name="uni04A6" unicode="&#x4a6;" horiz-adv-x="1722" 
d="M1063 -317q192 0 316 169t124 488q0 174 -85 271.5t-257 97.5q-78 0 -123 -9l-116 -700h-121l211 1268h-572l-211 -1268h-120l227 1370h813l-94 -567q61 6 148 6t257 -74.5t170 -394.5q0 -321 -110.5 -477t-215 -216.5t-235.5 -60.5q-70 0 -70 52q0 25 11 49q24 -4 53 -4
z" />
    <glyph glyph-name="uni04A7" unicode="&#x4a7;" horiz-adv-x="1495" 
d="M944 -319q180 0 278.5 134t98.5 371t-104.5 276.5t-184.5 39.5t-131 -10l-82 -492h-119l95 569q14 102 14 138q0 176 -166 176q-183 0 -247 -105.5t-77 -175.5l-100 -602h-119l160 969h10q37 0 61.5 -22.5t24.5 -56.5t-4 -59q55 66 137.5 110t166.5 44q145 0 208.5 -77
t63.5 -193q0 -50 -10 -123q50 8 114 8q197 0 304.5 -103.5t107.5 -310.5q0 -278 -139 -439t-355 -161q-69 0 -69 52q0 27 10 47q24 -4 53 -4z" />
    <glyph glyph-name="uni04A8" unicode="&#x4a8;" horiz-adv-x="1341" 
d="M1052 -131q-193 0 -327 113q-295 -54 -431 108.5t-136 415.5q0 172 50 332.5t144 284.5t230.5 198t323.5 74t300 -113q33 -30 33 -66t-41 -73h-18q-87 124 -173.5 134.5t-132.5 10.5q-131 0 -239.5 -63.5t-229 -227.5t-120.5 -477q0 -209 83 -330.5t250 -121.5q30 0 44 4
q-66 134 -66 353q0 218 106 398.5t312 180.5q108 0 180 -84.5t72 -271.5t-107 -362t-311 -261q85 -56 196 -56t201 41q29 -69 13.5 -84.5t-64.5 -35.5q-48 -20 -142 -21zM1143 653q0 246 -148 246q-137 0 -207.5 -150.5t-70.5 -358.5t55 -300q193 81 282 232.5t89 330.5z
" />
    <glyph glyph-name="uni04A9" unicode="&#x4a9;" horiz-adv-x="980" 
d="M788 424q0 158 -88 158t-123.5 -97.5t-35.5 -179.5q0 -159 45 -227q150 65 176 179t26 167zM196 81q-85 73 -85 294q0 222 99 359.5t196.5 194t213.5 56.5q186 0 279 -94q31 -31 31 -55t-19 -41l-26 -27h-19q-82 119 -253 119t-277.5 -162.5t-106.5 -364.5
q0 -133 59.5 -215t192.5 -82q-49 110 -49 194q0 169 67 293t206 124q96 0 145 -67.5t49 -178.5q0 -205 -96 -295t-164 -121q50 -35 124 -35t140 31q19 -33 19 -55.5t-29 -36.5q-60 -27 -130 -27q-71 0 -130.5 24t-93.5 64q-98 -20 -178 5.5t-165 98.5z" />
    <glyph glyph-name="uni04AA" unicode="&#x4aa;" horiz-adv-x="1093" 
d="M627 76q195 0 358 157l25 -26q22 -23 22 -49t-16 -42q-16 -17 -54 -45t-120 -63t-195 -39q-47 -55 -18 -100t41 -72t12 -65q0 -112 -132 -149q-36 -9 -69 -9q-45 0 -45 45q0 20 15 49q15 -6 36 -6q96 0 97 72q0 25 -22 52q-22 28 -30 44q-10 16 -10 39q0 54 43 102
q-211 19 -310 176t-97 381q0 160 43 316t127 278t209 197q125 76 269 76q222 0 343 -131q31 -37 31 -70t-56 -70h-18q-55 100 -131 132q-77 32 -181 32t-201 -61q-197 -124 -271 -409q-37 -138 -37 -262q0 -341 191 -445q65 -35 151 -35z" />
    <glyph glyph-name="uni04AB" unicode="&#x4ab;" horiz-adv-x="835" 
d="M242 367q0 -299 239 -299q70 0 127.5 28.5t114.5 98.5l29 -27q18 -18 18 -43t-17 -42t-45 -40t-91.5 -46.5t-137.5 -27.5q-45 -52 -25.5 -84t41 -66.5t21.5 -79.5q0 -84 -61.5 -124.5t-139.5 -40.5q-45 0 -45 45q0 23 15 49q15 -6 37 -6q96 0 96 72q0 24 -21.5 52t-31 44
t-9.5 39q0 61 45 106q-197 29 -240.5 157t-43.5 252t44 239.5t152.5 238.5t310.5 123q161 0 240 -108q44 -59 -4 -99l-29 -24h-16q-48 133 -202 133q-155 0 -263 -152t-108 -368z" />
    <glyph glyph-name="uni04AC" unicode="&#x4ac;" horiz-adv-x="1013" 
d="M178 1268q0 43 17.5 72.5t70.5 29.5h891q0 -43 -17.5 -72.5t-70.5 -29.5h-350l-193 -1166h117l-63 -397h-115l47 295h-123l209 1268h-420z" />
    <glyph glyph-name="uni04AD" unicode="&#x4ad;" horiz-adv-x="1536" 
d="M1348 707q0 80 -39 128t-101 48q-277 0 -317 -269l-100 -614h-119l94 569q16 93 16 144q0 49 -18 89q-37 80 -127 81q-177 0 -241 -105.5t-77 -175.5l-100 -602h-119l160 969h10q37 0 61.5 -22.5t24.5 -56.5t-4 -59q55 66 138.5 110t169.5 44t146 -44t79 -116
q55 66 133 113t174 47t185 -43.5t89 -226.5q0 -64 -14 -146l-78 -467h99l-60 -381h-106l43 279h-111l94 569q4 29 9.5 67t5.5 71z" />
    </font>
</defs>
</svg>
