<?xml version="1.0" standalone="no"?>
<!DOCTYPE svg PUBLIC "-//W3C//DTD SVG 1.1//EN" "http://www.w3.org/Graphics/SVG/1.1/DTD/svg11.dtd" >
<svg xmlns="http://www.w3.org/2000/svg">
<metadata>
Created by FontPrep 20130207 at Fri Dec 12 17:59:27 2014
 By Baris Oner
Copyright 2012 Dalton Maag Ltd. Modification of this file requires prior written permission from Dalton Maag Ltd.
</metadata>
<defs>
<font id="26abfb5da259ef73c1700af4fc86cd2d" horiz-adv-x='1024' >
  <font-face 
    font-family="AcerFoco-BlackItalic"
    font-weight="900"
    font-style="italic"
    font-stretch="normal"
    units-per-em="2048"
    panose-1="2 11 9 4 5 2 2 9 2 3"
    ascent="1610"
    descent="-438"
    x-height="989"
    cap-height="1374"
    bbox="-438 -496 2367 1882"
    underline-thickness="40"
    underline-position="-231"
    slope="-9.5"
    unicode-range="U+0008-FB04"
  />
<missing-glyph horiz-adv-x="1024" 
d="M819 1434h-614v-1332h614v1332zM102 0v1536h820v-1536h-820z" />
    <glyph glyph-name="f_f" unicode="ff" horiz-adv-x="1400" 
d="M757 1182q-136 0 -157 -138l-10 -69h233q20 112 41 184q-36 23 -107 23zM516 -176q72 0 102.5 32.5t40.5 92.5l113 721h-221l-111 -721q-8 -51 -20 -94q24 -31 96 -31zM1008 1376q128 92 330 92t304 -94q68 -60 69 -136q1 -77 -48 -125t-150 -60q-14 53 -54 85.5
t-99 32.5q-129 0 -148 -131l-10 -65h297l-49 -305h-291l-108 -715q-35 -219 -142.5 -327.5t-313.5 -108.5t-308 88q-106 -88 -277 -88t-245 38t-98.5 78.5t-24.5 90.5t30.5 102.5t83.5 85.5q62 -74 145 -74t113.5 30t40.5 99l154 992q36 243 151 375t377 132q170 0 271 -92z
" />
    <glyph glyph-name="f_i" unicode="fi" horiz-adv-x="1136" 
d="M-88 -166q70 0 100 32t41 97l156 998q35 245 144 364q132 145 409 143q94 0 181 -28q138 -44 189 -138q19 -38 19 -75q2 -72 -47 -120t-150 -60q-14 53 -62 89t-118 36t-115 -36t-55 -102l-10 -59h596l-123 -731l-8 -58t-4 -77t12 -89q-91 -41 -200 -42q-111 -1 -157 41
t-44 128v23q0 12 2 23l80 477h-197l-109 -715q-35 -219 -139 -328t-303 -108q-160 0 -234 38q-74 39 -100 79q-55 88 6 193q31 52 84 85q58 -80 156 -80z" />
    <glyph glyph-name="f_l" unicode="fl" horiz-adv-x="1171" 
d="M1092 109q0 -48 12 -89q-91 -41 -200 -42q-110 -1 -156 41t-46 128v23q0 12 3 23l159 944q-56 34 -114 34q-129 0 -148 -133l-8 -63h160l-49 -305h-154l-109 -715q-35 -219 -140 -328t-304 -108q-158 0 -232 38q-74 39 -100 79q-55 88 6 193q31 52 84 85q67 -80 147 -80
q79 0 109 30t41 99l156 998q35 236 151 362q136 147 400 145q129 0 268 -43t252 -127l-176 -1054l-8 -58t-4 -77z" />
    <glyph glyph-name="f_f_i" unicode="ffi" horiz-adv-x="1744" 
d="M-244 -86q54 -80 170 -80q56 0 86.5 27.5t40.5 97.5l156 1002q36 243 151 375t377 132q177 0 273 -96q129 96 356 96q94 0 183 -27.5t131 -64.5q80 -71 80 -146q1 -75 -48 -123t-149 -60q-16 59 -64.5 91.5t-118.5 32.5q-144 0 -168 -135l-10 -61h596l-123 -731
q-4 -29 -8 -57.5t-4 -77.5t12 -89q-94 -43 -202 -43q-107 0 -154 42t-45 128v17q0 18 2 29l80 477h-197l-108 -715q-35 -219 -142.5 -327.5t-313.5 -108.5t-308 88q-106 -88 -277 -88t-245 38t-98.5 78.5t-24.5 90.5t30.5 102.5t83.5 85.5zM757 1182q-136 0 -157 -138
l-10 -69h233q20 112 41 184q-36 23 -107 23zM516 -176q72 0 102.5 32.5t40.5 92.5l113 721h-221l-111 -721q-8 -51 -20 -94q24 -31 96 -31z" />
    <glyph glyph-name="f_f_l" unicode="ffl" horiz-adv-x="1781" 
d="M-244 -86q54 -80 170 -80q56 0 86.5 27.5t40.5 97.5l156 1002q36 243 151 375t377 132q92 0 164 -29.5t113 -70.5q134 100 354 100q129 0 270.5 -44t251.5 -124l-178 -1056q-4 -29 -8 -57.5t-4 -77.5t12 -89q-94 -43 -202 -43q-107 0 -154 42t-45 128q0 34 10 93l154 899
q-45 32 -111 32q-67 0 -104 -28.5t-48 -100.5l-10 -67h160l-47 -305h-156l-108 -715q-35 -219 -142.5 -327.5t-313.5 -108.5t-308 88q-106 -88 -277 -88t-245 38t-98.5 78.5t-24.5 90.5t30.5 102.5t83.5 85.5zM757 1182q-136 0 -157 -138l-10 -69h233q20 112 41 184
q-36 23 -107 23zM516 -176q72 0 102.5 32.5t40.5 92.5l113 721h-221l-111 -721q-8 -51 -20 -94q24 -31 96 -31z" />
    <glyph glyph-name=".notdef" horiz-adv-x="1024" 
d="M819 1434h-614v-1332h614v1332zM102 0v1536h820v-1536h-820z" />
    <glyph glyph-name=".null" horiz-adv-x="0" 
 />
    <glyph glyph-name=".null" horiz-adv-x="0" 
 />
    <glyph glyph-name=".null" horiz-adv-x="0" 
 />
    <glyph glyph-name="nonmarkingreturn" unicode="&#x9;" horiz-adv-x="397" 
 />
    <glyph glyph-name="nonmarkingreturn" unicode="&#xd;" horiz-adv-x="397" 
 />
    <glyph glyph-name="space" unicode=" " horiz-adv-x="397" 
 />
    <glyph glyph-name="exclam" unicode="!" horiz-adv-x="606" 
d="M158 17.5q-49 48.5 -49 110.5q0 111 63.5 168.5t154.5 57.5t140 -50t49 -110q0 -61 -18.5 -102t-64 -82t-136 -41t-139.5 48.5zM246 467.5q-60 41.5 -60 153.5q0 31 7 71l114 668q69 16 145 16q133 0 179.5 -49t46.5 -123q0 -17 -4 -39l-123 -714q-73 -25 -159 -25
t-146 41.5z" />
    <glyph glyph-name="quotedbl" unicode="&#x22;" horiz-adv-x="743" 
d="M750 1401q44 0 84 -25t38 -88q0 -20 -6 -47l-88 -410h-233l94 555q67 15 111 15zM365 1401q43 0 83 -25t39 -88q0 -20 -6 -47l-88 -410h-233l94 555q67 15 111 15z" />
    <glyph glyph-name="numbersign" unicode="#" horiz-adv-x="1339" 
d="M791 553l53 201h-152l-53 -201h152zM1241 354h-237l-84 -305h-271l86 305h-151l-86 -305h-271l86 305h-227l59 199h224l53 201h-221l61 200h217l80 291h270l-79 -291h151l80 291h270l-80 -291h246l-63 -200h-240l-55 -201h241z" />
    <glyph glyph-name="dollar" unicode="$" horiz-adv-x="1208" 
d="M649 968q0 -38 43 -72t118 -77q163 -93 229.5 -185t66.5 -233q0 -258 -150.5 -328.5t-234.5 -84.5l-29 -181h-121l27 168h-12q-42 0 -72 5l-29 -173h-120l30 191q-268 57 -268 227q0 124 133 217q70 -78 153 -113.5t146 -35.5t96 16.5t33 65.5t-30.5 79t-108.5 76
q-166 97 -234.5 185.5t-68.5 241.5t94 255.5t254 135.5l35 206h121l-33 -190h28l58 -2l33 192h120l-36 -213q116 -30 162 -74q77 -71 77 -142t-43 -127t-129 -85q-107 138 -242 138q-47 0 -71.5 -22.5t-24.5 -60.5z" />
    <glyph glyph-name="percent" unicode="%" horiz-adv-x="1601" 
d="M1208 264q0 -112 68 -112q60 0 85 86t25 165q0 105 -69 105q-47 0 -78 -66t-31 -178zM1264 -37q-157 0 -228 85.5t-71 211.5q0 179 96 306.5t285 127.5q144 0 215 -86.5t71 -190.5q0 -314 -139 -384t-229 -70zM383 970q0 -112 68 -112q57 0 83.5 86t26.5 166
q0 104 -69 104q-47 0 -78 -66t-31 -178zM439 670q-156 0 -228 86.5t-72 210.5q0 178 96 306t285 128q145 0 216 -86.5t71 -190.5q0 -314 -139.5 -384t-228.5 -70zM1386 1403q94 0 138 -25l-949 -1378h-317l875 1262q54 72 106.5 106.5t146.5 34.5z" />
    <glyph glyph-name="ampersand" unicode="&#x26;" horiz-adv-x="1495" 
d="M487 398q0 -67 51.5 -100.5t125.5 -33.5t129 23q-134 168 -201 278q-51 -29 -78 -64.5t-27 -102.5zM117 356q0 323 342 471q-41 103 -41 181q0 161 106.5 274t321.5 113q214 0 301 -109q47 -60 47 -122t-54.5 -104t-133.5 -54q-54 106 -129 106q-51 0 -68.5 -28.5
t-17.5 -67.5q0 -71 65 -197.5t166 -265.5q18 59 18 153q0 93 -16 152h492l-43 -256h-142q-4 -171 -88 -319q88 -98 227 -220q-100 -100 -288 -100q-106 0 -168 62l-23 24q-172 -86 -362 -86q-368 0 -440 148.5t-72 244.5z" />
    <glyph glyph-name="quotesingle" unicode="'" horiz-adv-x="358" 
d="M356 1401q131 0 131 -113q0 -20 -6 -47l-88 -410h-233l94 555q67 15 102 15z" />
    <glyph glyph-name="parenleft" unicode="(" horiz-adv-x="739" 
d="M135 422q0 168 47 364.5t130 348t194.5 242.5t230.5 91t185 -53q-208 -176 -305 -452.5t-97 -596.5t137 -581q-73 -39 -162 -39q-90 0 -145 36t-135 153.5t-80 486.5z" />
    <glyph glyph-name="parenright" unicode=")" horiz-adv-x="739" 
d="M387 1468q90 0 145.5 -35.5t135.5 -154.5t80 -490q0 -163 -47.5 -360t-130.5 -348.5t-194.5 -242.5t-228.5 -91t-186 53q206 175 303.5 450.5t97.5 598.5t-137 582q72 38 162 38z" />
    <glyph glyph-name="asterisk" unicode="*" horiz-adv-x="782" 
d="M531 1120q-34 0 -49 21.5t-21 50.5l-21 92q-6 20 -6 48t19.5 52.5t75.5 24.5t77 -23.5t21 -57.5t-9 -52l-18 -86q-6 -29 -20.5 -49.5t-48.5 -20.5zM668 1034q-31 0 -43 29q-13 29 -13 51t35 49l70 66q10 10 21.5 16t22.5 14q11 9 31 9q48 1 80 -58q18 -34 18 -66
q1 -44 -91 -75l-82 -27q-18 -8 -49 -8zM891 883q-1 -33 -19 -64q-33 -55 -73 -55q-41 0 -88 47l-64 57q-37 31 -37 62q0 8 11 33q18 33 57 32q16 0 39 -6l92 -28q33 -11 41 -19q41 -26 41 -59zM627 702q0 -79 -99 -79q-53 0 -73.5 23.5t-20.5 54.5t8 57l19 84q14 69 69 69
t70 -69l23 -94q4 -28 4 -46zM270 764q-22 0 -42.5 12t-39 45t-18.5 65t28.5 49t63.5 28l82 26q18 8 42 8t43.5 -20.5t19.5 -50.5t-35 -58l-70 -65q-23 -20 -37.5 -29.5t-36.5 -9.5zM451 1102q0 -8 -11 -33q-18 -33 -46 -33t-50 6l-92 29q-35 12 -41 19q-41 26 -41 59t18 63
q33 56 74 56t88 -47l64 -58q37 -31 37 -61z" />
    <glyph glyph-name="plus" unicode="+" horiz-adv-x="1208" 
d="M1153 516h-328l-61 -364h-358l61 364h-326l56 328h325l62 370h358l-61 -370h327z" />
    <glyph glyph-name="comma" unicode="," horiz-adv-x="536" 
d="M279 340q176 0 176 -222q0 -62 -32 -148q-32 -85 -88 -139t-125 -88t-126 -34t-89 24.5t-32 88.5q113 21 145.5 73.5t32.5 80.5q0 33 -28.5 83.5t-28.5 88.5q0 80 47 136t148 56z" />
    <glyph glyph-name="hyphen" unicode="-" horiz-adv-x="835" 
d="M825 590q0 -64 -30 -156h-467q-145 0 -166 64.5t-21 111.5t31 142h467q186 0 186 -162z" />
    <glyph glyph-name="period" unicode="." horiz-adv-x="571" 
d="M489 190q0 -115 -65.5 -168t-151.5 -53t-134 50t-48 111q0 110 62 167t153 57q90 0 137 -49t47 -115z" />
    <glyph glyph-name="slash" unicode="/" horiz-adv-x="811" 
d="M869 1384q104 0 169 -28l-700 -1356h-373l617 1188q45 89 114 142.5t173 53.5z" />
    <glyph glyph-name="zero" unicode="0" horiz-adv-x="1208" 
d="M622 295q89 0 143 131t62 401q6 223 -108 224q-78 0 -134 -130t-63 -405q-4 -115 24 -168t76 -53zM600 -31q-264 0 -370.5 161.5t-106.5 361.5q0 405 163 643.5t488 238.5q243 0 348 -161.5t105 -367.5t-38 -362.5t-116 -271.5t-199.5 -178.5t-273.5 -63.5z" />
    <glyph glyph-name="one" unicode="1" horiz-adv-x="1208" 
d="M287 962q0 72 30.5 111t96.5 72l344 172q92 45 184 45t154 -41l-224 -1321h-391l148 877l-256 -119q-86 132 -86 204z" />
    <glyph glyph-name="two" unicode="2" horiz-adv-x="1208" 
d="M1110 195.5q0 -115.5 -25 -195.5h-985l43 272q59 43 162 117.5t179 140.5q141 123 210.5 213.5t69.5 167.5q0 143 -143 144q-79 0 -142 -35t-155 -123q-53 31 -91 81t-38 100q1 86 75 157q148 139 449 139q223 0 344 -111.5t121 -287.5q0 -247 -252 -469
q-59 -53 -123 -101.5t-123 -93.5h232q192 0 192 -115.5z" />
    <glyph glyph-name="three" unicode="3" horiz-adv-x="1208" 
d="M240 420q128 -146 276 -146q98 0 153.5 37t55.5 111q0 125 -188 125h-97l43 278h140q119 0 148.5 47.5t29.5 87.5t-39 72.5t-105 32.5q-163 0 -288 -129q-51 29 -89 77.5t-38 112.5t55 117q142 131 420 131q212 0 338.5 -94t126.5 -246q0 -224 -234 -327
q164 -100 164 -289t-143 -319t-402 -130q-177 0 -311 58q-57 25 -99 68t-46 97q-9 122 129 228z" />
    <glyph glyph-name="four" unicode="4" horiz-adv-x="1208" 
d="M684 563l61 373h-14l-301 -373h254zM1219 430q0 -53 -29 -137h-172l-49 -293h-379l49 293h-535l43 250l543 659q67 80 135.5 120t179.5 40t185 -49l-127 -762h35q72 0 96.5 -34t24.5 -87z" />
    <glyph glyph-name="five" unicode="5" horiz-adv-x="1208" 
d="M565 606q-90 0 -190 -51l-125 59l151 744h795q0 -156 -31.5 -214.5t-80 -85t-130.5 -26.5h-286l-31 -172q78 19 154 19q154 0 247.5 -108t89.5 -263q-7 -278 -160.5 -408.5t-394.5 -130.5q-149 0 -276 47q-168 66 -168 195q0 110 129 209q122 -133 289 -133q88 0 134 52
t46 130q0 137 -162 137z" />
    <glyph glyph-name="six" unicode="6" horiz-adv-x="1208" 
d="M543 457q0 -174 105 -174q54 0 92 45.5t38 123.5q0 158 -100 158q-76 0 -117 -32q-18 -54 -18 -121zM974 1063q-144 0 -248 -71t-144 -183q99 82 206 82q193 0 289 -108.5t92 -282.5q-4 -232 -140.5 -381.5t-399.5 -149.5q-211 0 -336 124.5t-125 350.5q0 443 209 682.5
t586 239.5q111 0 163 -43t52 -94q-1 -105 -54 -178q-75 12 -150 12z" />
    <glyph glyph-name="seven" unicode="7" horiz-adv-x="1208" 
d="M453 1358h700q61 0 82.5 -24.5t21.5 -56.5t-4 -60l-22 -142l-662 -1075h-413l626 1018h-592q5 161 39.5 223t86 89.5t137.5 27.5z" />
    <glyph glyph-name="eight" unicode="8" horiz-adv-x="1208" 
d="M627 962q0 -112 96 -112q45 0 76.5 37t31.5 94q0 113 -96 113q-43 0 -75.5 -38t-32.5 -94zM638 252q56 0 97 45t41 115t-33 104.5t-89 34.5t-98 -45.5t-42 -115.5t34 -104t90 -34zM256 941q0 215 143.5 324t356.5 109q214 0 334 -100t120 -264q0 -191 -192 -305
q150 -100 149 -263q0 -237 -156.5 -355t-390.5 -118t-360.5 110t-126.5 296q0 234 244 348q-121 103 -121 218z" />
    <glyph glyph-name="nine" unicode="9" horiz-adv-x="1208" 
d="M803 887q0 174 -105 174q-55 0 -93 -42.5t-38 -120.5q0 -156 103 -157q74 0 116 33q17 51 17 113zM717 1374q211 0 336 -124t125 -350q0 -446 -195.5 -688.5t-583.5 -242.5q-111 0 -163 43t-52 123t54 154q81 -13 151 -13t166 32.5t164 129.5q35 49 49 103
q-99 -82 -247.5 -82t-248.5 108.5t-96 282.5q4 231 142 377.5t399 146.5z" />
    <glyph glyph-name="colon" unicode=":" horiz-adv-x="579" 
d="M489 190q1 -116 -65 -168t-153 -52t-134 49q-47 50 -47 110q0 111 63 168t153 57t137 -49q46 -50 46 -115zM600 821q0 -115 -66 -168t-153 -53q-88 0 -134 49t-46 111q0 112 62 169q62 56 154 56q91 0 137 -49q46 -50 46 -115z" />
    <glyph glyph-name="semicolon" unicode=";" horiz-adv-x="569" 
d="M279 340q171 0 176 -199q0 -86 -32 -171t-88 -139t-125 -88t-126 -34t-89 25t-32 88q112 20 163 102q15 24 15 52q-1 32 -29 84q-28 51 -28 89q0 121 101 173q38 18 94 18zM590 821q0 -115 -66 -168t-153 -53t-133 49t-47 110q-2 111 61 169q63 57 153 57t138 -49
q47 -50 47 -115z" />
    <glyph glyph-name="less" unicode="&#x3c;" horiz-adv-x="1208" 
d="M1102 98l-926 377l55 326l1051 360l-57 -352l-545 -178l481 -195z" />
    <glyph glyph-name="equal" unicode="=" horiz-adv-x="1208" 
d="M1124 260h-1009l53 328h1012zM1208 750h-1011l55 327h1012z" />
    <glyph glyph-name="greater" unicode="&#x3e;" horiz-adv-x="1208" 
d="M1151 475l-1051 -360l58 352l544 178l-481 195l60 338l925 -377z" />
    <glyph glyph-name="question" unicode="?" horiz-adv-x="925" 
d="M625 1010q0 71 -75 71t-140.5 -32.5t-124.5 -94.5q-51 33 -86 79.5t-35 96.5q0 87 79 148t180 89t200 28t177.5 -24.5t130.5 -66.5t77.5 -99.5t31 -149.5t-57.5 -182.5t-128 -143.5q-66 -53 -140.5 -115.5t-84.5 -187.5q-40 -12 -127 -12q-199 0 -199 151
q0 89 97.5 175.5t161 140.5t63.5 129zM262.5 18.5q-49.5 49.5 -49.5 110.5q0 109 63 167t162 58q127 0 155 -67.5t28 -110.5t-18.5 -84t-64.5 -82t-136 -41t-139.5 49.5z" />
    <glyph glyph-name="at" unicode="@" horiz-adv-x="1902" 
d="M879 378q0 -62 14 -86t53 -24q84 0 115 142l49 249q-54 24 -99.5 -5t-72.5 -67t-43 -92.5t-16 -116.5zM1436 -237q0 -99 -163.5 -154t-364.5 -55q-383 0 -583 235t-200 588q0 221 78 404.5t211 314.5t312.5 203.5t355.5 72.5q348 0 569 -185t221 -546q0 -304 -156 -468.5
t-370 -164.5q-102 0 -166 35t-84 86q-53 -59 -111.5 -91t-140.5 -32q-143 2 -216 92t-73 220q0 251 156 427.5t395 176.5q76 0 174 -22.5t178 -74.5l-110 -544q-2 -8 -2 -31t18 -34t35 -9q86 0 147.5 105.5t61.5 283.5t-40 278.5t-134.5 182.5t-319.5 82q-323 0 -517 -202
t-194 -554q0 -426 196 -511t339 -85t247.5 37t184.5 82q66 -87 66 -143z" />
    <glyph glyph-name="A" unicode="A" horiz-adv-x="1351" 
d="M817 988q0 36 4 61h-6q-9 -35 -27 -84.5t-27 -75t-18 -43.5l-110 -271h213l-21 269q-2 29 -5 68.5t-3 75.5zM879 1384q227 0 260 -200l178 -1184h-391l-45 313h-351l-135 -313h-407l645 1341q118 43 246 43z" />
    <glyph glyph-name="B" unicode="B" horiz-adv-x="1161" 
d="M678 836q63 0 104 43t41 111t-27.5 95t-77.5 27t-71 -4q-12 -74 -23.5 -134.5t-23.5 -137.5h78zM559 274q117 0 169 45t52 121q0 138 -127 138h-96q-12 -78 -25.5 -148t-25.5 -156h53zM1174 444q0 -353 -247 -398.5t-390 -45.5h-461l229 1356q217 26 377 26
q281 0 400.5 -94.5t119.5 -257.5q0 -203 -196 -309q168 -104 168 -277z" />
    <glyph glyph-name="C" unicode="C" horiz-adv-x="1269" 
d="M772 289q173 0 299 190q90 -43 131 -89t41 -107q0 -105 -97 -185q-163 -136 -446 -135q-283 0 -420 165t-137 409q0 319 144.5 534t306.5 272.5t293 57.5q260 0 379 -133q55 -60 55 -142t-55.5 -129t-143.5 -77q-66 162 -231 162t-250.5 -155t-86.5 -329t58.5 -241.5
t159.5 -67.5z" />
    <glyph glyph-name="D" unicode="D" horiz-adv-x="1304" 
d="M600 309q160 0 242 156.5t82 370.5q0 111 -50.5 176t-150.5 65h-21q-22 0 -45 -4l-131 -764h74zM727 1384q319 0 462.5 -155.5t143.5 -392.5q0 -394 -200.5 -615t-577.5 -221h-479l227 1356q224 28 424 28z" />
    <glyph glyph-name="E" unicode="E" horiz-adv-x="1071" 
d="M1036 197.5q0 -113.5 -24 -197.5h-936l231 1374h905q5 -147 -43 -231t-194 -84h-322l-37 -207h385l-51 -313h-385l-39 -228h318q192 0 192 -113.5z" />
    <glyph glyph-name="F" unicode="F" horiz-adv-x="1060" 
d="M985 1059h-332l-39 -217h396l-52 -314h-395l-90 -528h-397l231 1374h916q5 -145 -43.5 -230t-194.5 -85z" />
    <glyph glyph-name="G" unicode="G" horiz-adv-x="1316" 
d="M723 -37q-310 0 -445 160.5t-135 413.5q0 197 103 456.5t313.5 333.5t341.5 74q264 0 381 -133q55 -60 55 -142t-55 -129t-143 -77q-66 162 -234 162t-259 -157t-91 -364q-2 -135 54.5 -204.5t154.5 -69.5q56 0 123 26l71 426h150q167 0 186 -69.5t19 -94.5t-4 -47
l-60 -350q-78 -98 -216 -156.5t-310 -58.5z" />
    <glyph glyph-name="H" unicode="H" horiz-adv-x="1329" 
d="M1188 1386q213 0 213 -172q0 -18 -4 -38l-199 -1176h-399l90 535h-324l-90 -535h-399l231 1370q70 16 158 16q213 0 213 -172q0 -18 -4 -38l-56 -322h326l86 516q70 16 158 16z" />
    <glyph glyph-name="I" unicode="I" horiz-adv-x="606" 
d="M465 1386q213 0 213 -172q0 -18 -4 -38l-199 -1176h-399l231 1370q70 16 158 16z" />
    <glyph glyph-name="J" unicode="J" horiz-adv-x="780" 
d="M639 1386q213 0 213 -172q0 -18 -4 -38l-119 -699q-41 -244 -138.5 -379t-305.5 -135q-131 2 -187.5 61.5t-56.5 143.5q0 35 12 76q90 0 136.5 13t80.5 50t54 133l157 930q70 16 158 16z" />
    <glyph glyph-name="K" unicode="K" horiz-adv-x="1282" 
d="M586 627v28l-111 -655h-399l231 1370q70 16 158 16q213 0 213 -172q0 -18 -4 -38l-74 -433q34 111 162 261l182 223q127 157 276 157q150 0 246 -100l-489 -582l299 -667q-140 -62 -245 -62t-163.5 33t-97.5 123l-115 266q-69 162 -69 232z" />
    <glyph glyph-name="L" unicode="L" horiz-adv-x="1050" 
d="M465 1386q213 0 213 -172q0 -18 -4 -38l-144 -848h279q188 0 188 -119.5t-24 -208.5h-897l231 1370q70 16 158 16z" />
    <glyph glyph-name="M" unicode="M" horiz-adv-x="1607" 
d="M1481 1384q99 0 161 -24l-133 -1360h-381l78 688h-8l-256 -436h-266l-92 422h-9l-155 -674h-381l321 1360q81 24 189 24q107 0 155 -39.5t60 -105.5l106 -596h9l340 598q47 82 105 112.5t157 30.5z" />
    <glyph glyph-name="N" unicode="N" horiz-adv-x="1331" 
d="M479 1384q157 0 207 -135l238 -618l123 737q66 16 138 16q126 0 171 -49t45 -123q0 -14 -4 -38l-197 -1174h-321l-304 688l-116 -688h-383l231 1368q82 16 172 16z" />
    <glyph glyph-name="O" unicode="O" horiz-adv-x="1409" 
d="M856 1081q-136 0 -220.5 -157.5t-84.5 -405.5q0 -109 45 -172t121 -63q144 0 228.5 157.5t84.5 398.5q0 242 -174 242zM714 -37q-299 0 -435 168.5t-136 417.5q0 154 45 305.5t137.5 273t232.5 197.5t309 76t272.5 -49t201 -168t97.5 -369q0 -334 -183 -579
q-92 -121 -232 -197t-309 -76z" />
    <glyph glyph-name="P" unicode="P" horiz-adv-x="1169" 
d="M653 715q78 0 130.5 64.5t52.5 191.5q0 59 -35 96t-81 37t-73 -2l-65 -387h71zM738 1384q106 0 303.5 -56.5t197.5 -341.5q0 -286 -164 -419t-452 -133h-86l-74 -434h-387l231 1360q187 24 431 24z" />
    <glyph glyph-name="Q" unicode="Q" horiz-adv-x="1531" 
d="M856 1081q-136 0 -220.5 -157.5t-84.5 -405.5q0 -111 44 -173t121 -62q145 0 229.5 157.5t84.5 398.5q0 242 -174 242zM1532 45q0 -178 -227 -178q-96 0 -179 35.5t-182 101.5q-117 -41 -258 -41q-271 0 -407 168.5t-136 417.5q0 154 45 305.5t137.5 273t232.5 197.5
t309 76t272.5 -49t201 -168t97.5 -369q0 -180 -62.5 -356t-189.5 -301q144 -46 317 28q29 -75 29 -141z" />
    <glyph glyph-name="R" unicode="R" horiz-adv-x="1232" 
d="M657 731q86 0 136.5 66.5t50.5 156.5t-40 120t-95 30h-23q-24 0 -37 -2l-63 -371h71zM738 1384q245 0 377 -105t132 -284q0 -252 -102.5 -333.5t-157.5 -112.5l213 -514q-122 -62 -228 -62t-162 31t-89 117l-123 330h-59l-76 -451h-387l231 1360q186 24 431 24z" />
    <glyph glyph-name="S" unicode="S" horiz-adv-x="1071" 
d="M690 1077q-98 0 -98 -76q0 -43 44 -76.5t118 -77.5q166 -100 235.5 -197.5t69.5 -222.5q0 -229 -152 -345.5t-381 -116.5q-159 0 -314 59.5t-155 204.5q0 123 140 224q137 -156 315 -156q119 0 119 100q0 41 -34 74t-111 77q-158 90 -233 186.5t-75 246.5
q0 195 140.5 307.5t371.5 112.5q119 0 213.5 -33t136.5 -72q74 -69 74 -143t-45 -131t-131 -86q-113 141 -248 141z" />
    <glyph glyph-name="T" unicode="T" horiz-adv-x="1202" 
d="M416 1374h958q5 -152 -45.5 -243t-202.5 -91h-178l-176 -1040h-401l176 1040h-383q5 158 38.5 218.5t81.5 88t132 27.5z" />
    <glyph glyph-name="U" unicode="U" horiz-adv-x="1296" 
d="M1161 1386q213 0 213 -172q0 -18 -4 -38l-125 -682q-47 -262 -190.5 -396.5t-413.5 -134.5q-392 0 -444 155.5t-52 239.5t17 183l137 829q70 16 160 16q215 0 215 -172q0 -18 -4 -38l-109 -629q-10 -72 -10 -122t24.5 -94t88.5 -44q106 0 144.5 75t53.5 179l139 829
q70 16 160 16z" />
    <glyph glyph-name="V" unicode="V" horiz-adv-x="1347" 
d="M557 1336.5q67 -43.5 74 -142.5l69 -762h15l299 766q70 182 267 182q119 0 224 -28l-661 -1362h-443l-202 1364q112 26 202 26q89 0 156 -43.5z" />
    <glyph glyph-name="W" unicode="W" horiz-adv-x="1927" 
d="M351 1378q75 0 162 -19t97 -190l35 -620l326 797q86 32 142 32q209 0 216 -135l41 -649l252 647q27 63 93.5 100t171.5 37t198 -32l-612 -1356h-367l-59 774l-334 -774h-398l-116 1362q77 26 152 26z" />
    <glyph glyph-name="X" unicode="X" horiz-adv-x="1230" 
d="M901 1237q84 147 235 147t261 -69l-477 -653l278 -635q-104 -49 -223 -53q-119 -3 -177.5 31t-90.5 136l-70 224l-217 -365h-451l498 694l-274 619q135 63 235 66t156.5 -29.5t91.5 -128.5l82 -240z" />
    <glyph glyph-name="Y" unicode="Y" horiz-adv-x="1251" 
d="M413 1380q103 0 145 -35.5t60 -117.5l103 -383l215 399q78 141 231 141q152 0 250 -61l-547 -854l-79 -469h-402l78 467l-281 850q124 63 227 63z" />
    <glyph glyph-name="Z" unicode="Z" horiz-adv-x="1146" 
d="M1110 195.5q0 -115.5 -25 -195.5h-1067l43 270q365 463 691 789h-566q7 222 94 268.5t164 46.5h709q74 0 97.5 -35.5t13.5 -95.5l-25 -158q-344 -348 -709 -774h388q192 0 192 -115.5z" />
    <glyph glyph-name="bracketleft" unicode="[" horiz-adv-x="722" 
d="M608 -279h-565l299 1747h561l-49 -286h-215l-199 -1176h217z" />
    <glyph glyph-name="backslash" unicode="\" horiz-adv-x="794" 
d="M323 1384q122 0 170 -48t66 -148l221 -1188h-344l-248 1356q67 28 135 28z" />
    <glyph glyph-name="bracketright" unicode="]" horiz-adv-x="722" 
d="M528 -279h-561l49 287h215l199 1176h-217l49 284h565z" />
    <glyph glyph-name="asciicircum" unicode="^" horiz-adv-x="1107" 
d="M1145 539h-320l-114 514l-295 -514h-320l510 827h314z" />
    <glyph glyph-name="underscore" unicode="_" horiz-adv-x="901" 
d="M860 -430h-901v225h901v-225z" />
    <glyph glyph-name="grave" unicode="`" horiz-adv-x="952" 
d="M719 1165q-61 -61 -144 -61t-120 43l-222 258q100 100 192 100t144 -86z" />
    <glyph glyph-name="a" unicode="a" horiz-adv-x="1103" 
d="M569 268q76 0 95 94l55 324q-23 14 -61 14t-72.5 -31.5t-67.5 -102t-33 -184.5t84 -114zM862 -20q-84 0 -130 20t-75 90q-59 -68 -119 -93.5t-136 -25.5q-141 0 -224.5 98.5t-83.5 282.5q0 278 169 470t458 192q106 0 206.5 -21.5t217.5 -93.5l-109 -649
q-10 -78 -10 -138q0 -61 12 -106q-92 -26 -176 -26z" />
    <glyph glyph-name="b" unicode="b" horiz-adv-x="1114" 
d="M645 723q-80 0 -96 -96l-57 -334q28 -14 66 -14t73 32.5t68.5 104t33.5 189.5t-88 118zM602 942q87 72 220 72t216.5 -98.5t83.5 -282.5q0 -277 -168 -469.5t-462 -192.5q-109 0 -210.5 21.5t-218.5 93.5l230 1350q70 16 145 16q130 0 175.5 -47.5t45.5 -124.5
q0 -15 -4 -39z" />
    <glyph glyph-name="c" unicode="c" horiz-adv-x="956" 
d="M485 408q0 -61 27.5 -103.5t89.5 -42.5t105 40t67 91q178 -35 178 -174q0 -112 -125.5 -181t-259.5 -69q-240 0 -356.5 121.5t-116.5 304.5q0 264 157 442.5t425 178.5q72 0 149.5 -24.5t117.5 -63.5q75 -73 75 -154q0 -80 -61 -124q-60 -44 -148 -54q-36 131 -139 131
q-80 0 -132.5 -92t-52.5 -227z" />
    <glyph glyph-name="d" unicode="d" horiz-adv-x="1114" 
d="M1012 1452q207 0 207 -172q0 -14 -5 -39l-165 -991q-11 -85 -11 -142t13 -102q-91 -26 -178 -26t-132 20t-73 90q-59 -68 -119.5 -93.5t-136.5 -25.5q-138 0 -228 100.5t-90 250.5q0 303 147 497.5t380 194.5q90 0 157 -31l76 453q70 16 158 16zM573 264q47 0 70 31
t29 65l57 334q-27 14 -67 14t-74.5 -30.5t-64 -98t-29.5 -191.5t79 -124z" />
    <glyph glyph-name="e" unicode="e" horiz-adv-x="991" 
d="M700 694q0 62 -61 62q-128 0 -162 -172q14 -2 17 -2h26q31 0 105.5 16t74.5 96zM952 220q0 -96 -65 -148q-65 -53 -160 -78t-195 -25q-204 0 -319 117.5t-115 304.5q0 271 153 448t439 177q182 0 262 -85t80 -190q0 -189 -144.5 -268.5t-344.5 -79.5h-86q8 -141 134 -141
q125 0 200 123q74 -23 117.5 -60t43.5 -95z" />
    <glyph glyph-name="f" unicode="f" horiz-adv-x="802" 
d="M760 1165q-129 0 -148 -131l-8 -59h297l-49 -305h-291l-108 -715q-35 -219 -142.5 -327.5t-289.5 -108.5t-256 38t-98.5 78.5t-24.5 90.5t30.5 102.5t83.5 85.5q62 -74 145 -74t113.5 30t40.5 99l154 992q36 243 151 375t377 132q205 0 307 -94q68 -60 69 -136
q1 -77 -48 -125t-150 -60q-47 112 -155 112z" />
    <glyph glyph-name="g" unicode="g" horiz-adv-x="1103" 
d="M98 389q0 113 40 228.5t167 257t418 141.5q109 0 211 -21.5t219 -93.5l-133 -784q-20 -113 -93.5 -347.5t-492.5 -234.5q-198 0 -297 51q-139 65 -139 181q0 59 39 115.5t104 84.5q55 -74 115 -108.5t146 -34.5t134 43t68 143l10 58q-84 -70 -219 -70q-210 0 -253.5 139
t-43.5 252zM573 289q79 0 95 96l53 309q-27 14 -65 14t-104.5 -56t-66.5 -246q0 -117 88 -117z" />
    <glyph glyph-name="h" unicode="h" horiz-adv-x="1101" 
d="M862 1016q184 0 216 -108.5t32 -167.5t-20 -167l-56 -329q-4 -29 -8 -57.5t-4 -77.5t12 -89q-94 -43 -205 -43t-159.5 42t-46.5 128q0 29 4 54l67 401q4 20 4 45t-11 39t-51 14q-69 0 -85 -94l-102 -606h-400l244 1436q70 16 145 16q133 0 178.5 -49.5t45.5 -122.5
q0 -16 -5 -39l-57 -346q105 121 262 121z" />
    <glyph glyph-name="i" unicode="i" horiz-adv-x="561" 
d="M285 -23q-113 0 -160 42t-45 128q0 29 4 58l131 774q70 16 147 16q136 0 181 -49t45 -123q0 -17 -4 -39l-92 -540q-4 -29 -8.5 -57.5t-4.5 -78t13 -88.5q-94 -43 -207 -43zM296 1151q-48 49 -48 111q0 110 64 167.5t155 57.5t139.5 -50.5t48.5 -110.5t-18.5 -101t-63 -82
t-137 -41t-140.5 49z" />
    <glyph glyph-name="j" unicode="j" horiz-adv-x="555" 
d="M296 1151q-48 49 -48 111q0 110 64 167.5t155 57.5t139.5 -50.5t48.5 -110.5t-18.5 -101t-63 -82t-137 -41t-140.5 49zM10 -473q-115 0 -160 57.5t-45 136.5q0 35 7 72q126 4 174 60t77 229l152 897q70 16 147 16q136 0 181 -49t45 -123q0 -13 -4 -39l-101 -594
q-10 -57 -22 -126.5t-42.5 -184t-84.5 -188.5q-53 -74 -131 -119t-193 -45z" />
    <glyph glyph-name="k" unicode="k" horiz-adv-x="1150" 
d="M449 1452q210 0 210 -172q0 -15 -4 -39l-104 -620q26 60 78 114l141 160q55 64 109 92.5t129 28.5q74 0 124 -24.5t95 -65.5l-353 -404l134 -264q35 -66 67.5 -120t83.5 -91q-113 -70 -269 -70t-220 125l-92 183q-40 82 -58 153l-74 -438h-397l242 1436q70 16 158 16z
" />
    <glyph glyph-name="l" unicode="l" horiz-adv-x="561" 
d="M455 1452q209 0 209 -172q0 -19 -5 -39l-167 -997q-4 -29 -8.5 -57.5t-4.5 -78t13 -88.5q-94 -43 -207 -43t-160 42t-45 128q0 39 6 72l207 1217q70 16 162 16z" />
    <glyph glyph-name="m" unicode="m" horiz-adv-x="1615" 
d="M371 995q182 0 204 -102q37 43 105 83t167 40q190 0 234 -133q124 133 282 133q144 0 202.5 -76t58.5 -195q0 -64 -20 -172l-56 -329q-12 -74 -12 -129t12 -95q-94 -43 -207 -43q-112 0 -158 42t-44 128q0 28 4 58l67 397q4 20 4 45t-8 39t-45 14q-66 0 -82 -94
l-102 -606h-397l100 602q4 20 4 45t-8 39t-45 14q-66 0 -82 -94l-103 -606h-397l166 979q70 16 156 16z" />
    <glyph glyph-name="n" unicode="n" horiz-adv-x="1101" 
d="M373 995q181 0 205 -102q37 43 105.5 83t156.5 40t135 -21.5t91 -78t44 -173.5q0 -62 -20 -170l-56 -329q-4 -29 -8 -57.5t-4 -77.5t12 -89q-94 -43 -207 -43t-159.5 42t-44.5 128q0 36 10 91l61 364q4 20 4 46q0 52 -55 52q-78 0 -92 -94l-102 -606h-400l166 979
q70 16 158 16z" />
    <glyph glyph-name="o" unicode="o" horiz-adv-x="1110" 
d="M553 -31q-237 0 -348 117.5t-111 308.5q0 265 162 443t428 178q210 0 322 -119t112 -305q0 -263 -107.5 -391.5t-216 -180t-241.5 -51.5zM570 262q48 0 77 38t53.5 111t24.5 151q0 79 -17.5 119t-65.5 40q-81 0 -120 -107.5t-39 -229.5t87 -122z" />
    <glyph glyph-name="p" unicode="p" horiz-adv-x="1120" 
d="M566 281q42 0 76 35.5t61.5 106.5t27.5 173q0 129 -80 129q-47 0 -69.5 -30.5t-28.5 -65.5l-57 -334q28 -14 70 -14zM580 897q104 119 240 119q149 0 233 -106.5t84 -278.5q0 -264 -118.5 -461t-354.5 -197q-129 0 -207 86l-86 -505h-398l242 1425q93 16 158 16
q182 0 207 -98z" />
    <glyph glyph-name="q" unicode="q" horiz-adv-x="1103" 
d="M569 264q47 0 68.5 31t28.5 65l57 334q-27 14 -65 14t-73.5 -32.5t-69.5 -105t-34 -189.5t88 -117zM94 354q0 278 169 470t462 192q106 0 205.5 -22.5t216.5 -94.5l-227 -1345h-392l84 489q-84 -70 -217 -70t-217 98.5t-84 282.5z" />
    <glyph glyph-name="r" unicode="r" horiz-adv-x="884" 
d="M373 995q181 0 205 -102q41 53 96 88t139 35q176 0 168 -160q-9 -169 -190 -274q-29 41 -57 63.5t-78 22.5t-76.5 -27t-32.5 -61l-98 -580h-400l166 979q70 16 158 16z" />
    <glyph glyph-name="s" unicode="s" horiz-adv-x="899" 
d="M537 690q0 -18 9 -29.5t30.5 -27t54.5 -35.5t81 -54q88 -62 121 -123.5t33 -129.5q0 -134 -104.5 -228t-295.5 -94t-302 58q-66 35 -97.5 76.5t-31.5 107.5q0 122 147 203q89 -133 201 -133q55 0 55 39t-35.5 64.5t-105.5 73.5t-117 101t-47 121q0 140 104.5 238
t323.5 98q153 0 265 -66t112 -166q0 -69 -58 -121t-141 -61q-50 127 -155 127q-18 0 -32.5 -10.5t-14.5 -28.5z" />
    <glyph glyph-name="t" unicode="t" horiz-adv-x="851" 
d="M422 1307q209 0 209 -172q0 -12 -4 -39l-21 -121h291l-49 -305h-293l-45 -273q-8 -47 11.5 -68.5t53.5 -21.5q67 0 117 84q178 -50 163 -179q-7 -62 -25.5 -91t-49.5 -58q-104 -94 -282 -94q-279 0 -336.5 126.5t-57.5 188.5t3.5 89.5t7.5 60.5l145 856q74 17 162 17z
" />
    <glyph glyph-name="u" unicode="u" horiz-adv-x="1093" 
d="M159.5 44q-67.5 73 -67.5 174t21 202l96 569q89 27 184 27q193 0 189 -170q0 -25 -4 -45l-74 -434q-4 -20 -4 -45t11 -39.5t51 -14.5q68 0 85 94l105 627q89 27 184 27q192 0 188 -170q0 -25 -4 -45l-94 -551q-10 -78 -10 -138q0 -61 12 -106q-92 -26 -176 -26t-130 20
t-75 90q-50 -57 -110 -88t-185 -31t-192.5 73z" />
    <glyph glyph-name="v" unicode="v" horiz-adv-x="1058" 
d="M340 995q180 0 188 -221l13 -428h4l166 447q31 88 97 145t142 57q122 0 221 -41l-497 -966h-385l-166 966q87 41 217 41z" />
    <glyph glyph-name="w" unicode="w" horiz-adv-x="1525" 
d="M428 963q48 -34 55 -127l33 -428l221 559q87 30 149 30t98 -28.5t42 -100.5l27 -479l139 375q41 113 103.5 161t161.5 48t181 -35l-485 -948h-322l-36 481l-222 -481h-331l-119 964q92 43 175 43q82 0 130 -34z" />
    <glyph glyph-name="x" unicode="x" horiz-adv-x="1048" 
d="M993 16q-106 -36 -241 -36t-197 149l-45 96l-164 -225h-385l401 496l-231 456q132 45 210 45q77 0 109.5 -13t60.5 -40t64 -98l48 -98l100 135q86 114 220 114t220 -51l-405 -469z" />
    <glyph glyph-name="y" unicode="y" horiz-adv-x="1058" 
d="M325 995q189 0 197 -221l21 -428h8l156 447q29 84 91 143t168 59t205 -41l-516 -1075q-85 -170 -175.5 -257t-242.5 -87t-209 36t-74 71.5t-17 63.5q0 62 28.5 112t106.5 90q59 -82 117 -82q57 0 90.5 19.5t64.5 82.5l27 60h-82l-166 966q101 41 202 41z" />
    <glyph glyph-name="z" unicode="z" horiz-adv-x="968" 
d="M725 309q121 0 168 -46t47 -118t-25 -145h-884l45 256q240 272 452 424h-372q0 165 52.5 237t215.5 72h485q78 0 113 -34.5t18 -116.5l-24 -115q-137 -104 -264 -201.5t-240 -212.5h213z" />
    <glyph glyph-name="braceleft" unicode="{" horiz-adv-x="817" 
d="M596 422q0 -35 -6 -72l-39 -221q-23 -135 96 -135q18 0 70 10q35 -68 35 -127q0 -164 -244 -164q-154 0 -242 71t-88 204q0 33 6 69l54 312q2 11 2 45t-30 62t-83 28l41 252q82 0 114.5 36t49.5 136l35 207q53 333 413 333q109 0 150 -37t41 -89q0 -91 -58 -168
q-35 12 -75 12t-76.5 -25.5t-46.5 -81.5l-33 -202q-16 -100 -62.5 -157.5t-123.5 -92.5q100 -69 100 -205z" />
    <glyph glyph-name="bar" unicode="|" horiz-adv-x="514" 
d="M317 -385h-327l344 2011h328z" />
    <glyph glyph-name="braceright" unicode="}" horiz-adv-x="817" 
d="M215 1305q0 163 244 163q154 0 241.5 -70.5t87.5 -203.5q0 -33 -6 -70l-53 -311q-2 -10 -2 -45t29.5 -62.5t83.5 -27.5l-41 -252q-84 0 -117 -39t-47 -133l-35 -207q-53 -334 -414 -334q-109 0 -149.5 36t-40.5 107t57 152q33 -12 74 -12t78 25.5t47 80.5l33 203
q16 100 62 157.5t124 92.5q-100 69 -100 205q0 35 6 71l39 222q23 135 -97 135q-19 0 -69 -10q-35 68 -35 127z" />
    <glyph glyph-name="asciitilde" unicode="~" horiz-adv-x="987" 
d="M811 928q-81 0 -161 62q-32 24 -60.5 43.5t-69.5 19.5q-76 0 -94 -125h-270q18 203 100 306t254 103q81 1 161 -61q32 -24 60.5 -44t68.5 -20q77 0 95 125h270q-18 -203 -100 -306t-254 -103z" />
    <glyph glyph-name="uni00A0" unicode="&#xa0;" horiz-adv-x="397" 
 />
    <glyph glyph-name="exclamdown" unicode="&#xa1;" horiz-adv-x="606" 
d="M252.5 639q-47.5 51 -47.5 110q0 60 18.5 101t49 68.5t71.5 41t106 13.5t113.5 -50.5t48.5 -110.5t-18.5 -101t-63 -82t-137.5 -41t-140.5 51zM43 -262q0 19 4 39l123 715q70 24 128 24q117 0 177 -41.5t60 -152.5q0 -33 -7 -72l-114 -668q-70 -16 -158 -16
q-213 0 -213 172z" />
    <glyph glyph-name="cent" unicode="&#xa2;" horiz-adv-x="1208" 
d="M1100 408q0 -74 -56 -128q-97 -92 -237 -114l-33 -203h-121l31 197q-45 0 -84 6l-33 -203h-121l37 234q-125 51 -183 155t-58 220q0 227 107.5 389.5t297.5 218.5l33 194h121l-29 -176l51 2h13q12 0 22 -2l29 176h121l-33 -194q81 -28 136 -83t55 -135t-61 -123.5
t-149 -54.5q-37 131 -133 131q-89 0 -138.5 -97t-49.5 -232q0 -57 22.5 -96t112 -39t152.5 131q178 -35 178 -174z" />
    <glyph glyph-name="sterling" unicode="&#xa3;" horiz-adv-x="1208" 
d="M1149 195.5q0 -115.5 -25 -195.5h-915l90 530h-125l45 271h125l18 112q41 242 178.5 351.5t395.5 109.5q202 0 301 -110q55 -63 52 -128t-53 -113t-120 -75q-39 66 -83 89.5t-106 23.5t-111.5 -33t-63.5 -113l-21 -114h340l-45 -271h-340l-37 -219h307q193 0 193 -115.5z
" />
    <glyph glyph-name="currency" unicode="&#xa4;" horiz-adv-x="1208" 
d="M492.5 938q-66.5 -74 -66.5 -182t68.5 -181t176.5 -73t176 72t68 182.5t-68.5 183t-178 72.5t-176 -74zM673 1235q152 0 267 -70l178 168l185 -166l-197 -180q53 -97 53 -231q0 -135 -63 -242l198 -186l-176 -170l-194 182q-109 -61 -252 -61t-252 59l-195 -182l-176 170
l197 184q-64 113 -64 242t58 235l-179 164l185 166l160 -150q115 68 267 68z" />
    <glyph glyph-name="yen" unicode="&#xa5;" horiz-adv-x="1208" 
d="M393 1356q101 0 145 -43t60 -115l68 -360l182 360q31 66 93.5 112t156.5 46t235 -51l-403 -627h166l-21 -117h-254l-24 -133h256l-21 -117h-254l-53 -311h-401l49 311h-248l20 117h248l25 133h-250l20 117h158l-186 618q132 60 233 60z" />
    <glyph glyph-name="brokenbar" unicode="&#xa6;" horiz-adv-x="514" 
d="M317 -385h-327l141 825h328zM530 858h-327l131 768h328z" />
    <glyph glyph-name="section" unicode="&#xa7;" horiz-adv-x="993" 
d="M205 657l442 -141q133 -41 203 -109.5t70 -191.5q0 -221 -141 -324.5t-333 -103.5t-285 65t-71 154t107 146q114 -97 225 -97q139 0 145 111q9 91 -96 125l-217 76q-102 35 -102 135t53 155zM717 1133q-139 0 -146 -111q-9 -94 97 -125l217 -76q102 -35 102 -134
q0 -100 -53 -157l-442 142q-133 41 -203 109.5t-70 191.5q0 219 140 323.5t333 104.5t286 -65t70 -154.5t-106 -145.5q-114 97 -225 97z" />
    <glyph glyph-name="dieresis" unicode="&#xa8;" horiz-adv-x="952" 
d="M877 1313q0 -94 -56.5 -139.5t-133.5 -45.5t-116 44.5t-39 95.5q0 94 57.5 139t133.5 45t115 -44t39 -95zM420 1313q0 -94 -57.5 -139.5t-134.5 -45.5t-114.5 44.5t-37.5 95.5q0 94 56 139t132 45t116 -44t40 -95z" />
    <glyph glyph-name="copyright" unicode="&#xa9;" horiz-adv-x="1667" 
d="M1174 821q-96 88 -192.5 88t-143.5 -67t-47 -178.5t31.5 -161t68.5 -71t93 -21.5t96 18t83 59q45 -45 62.5 -94t17.5 -85t-73 -85t-202 -49q-238 0 -363.5 132t-125.5 348t122.5 351.5t338.5 135.5t271 -68.5t55 -96.5t-26 -72t-66 -83zM1513 649q0 123 -43 239
t-120.5 204t-188 141t-248 53t-248 -53t-189.5 -141t-121 -204t-42 -307.5t161.5 -381t433.5 -189.5q271 0 395 142.5t167 258t43 238.5zM904 -113q-332 0 -528 214.5t-196 547.5q0 154 52.5 292t147.5 242.5t230 166t301 61.5t301.5 -61.5t230.5 -166t147 -242.5t52 -291.5
t-52 -292t-147 -242.5t-231.5 -166t-307.5 -62z" />
    <glyph glyph-name="ordfeminine" unicode="&#xaa;" horiz-adv-x="950" 
d="M652 1206q-67 0 -104.5 -84.5t-37.5 -179.5q0 -94 72 -94q64 0 75 78l45 268q-16 12 -50 12zM651 700q-83 -96 -209 -96q-114 0 -180.5 81.5t-66.5 207.5q0 243 136 401t371 158q88 0 166 -17.5t172 -76.5l-88 -529q-8 -49 -8 -101t10 -97q-102 -21 -153 -21
q-52 0 -89.5 16.5t-60.5 73.5z" />
    <glyph glyph-name="guillemotleft" unicode="&#xab;" horiz-adv-x="1142" 
d="M1200 870q0 -102 -78 -178l-112 -119l82 -139q57 -100 0 -208q-29 -52 -95 -117l-272 290q-61 65 -61 139q0 75 30 127t94 101l345 270q67 -101 67 -166zM584 331q0 -99 -123 -222l-273 290q-61 65 -61 139q0 75 31 127t94 101l344 270q66 -100 67 -150q2 -115 -77 -194
l-113 -119l82 -139q29 -51 29 -103z" />
    <glyph glyph-name="logicalnot" unicode="&#xac;" horiz-adv-x="1208" 
d="M1100 193h-355l56 323h-664l53 328h1020z" />
    <glyph glyph-name="uni00AD" unicode="&#xad;" horiz-adv-x="835" 
d="M825 595q0 -68 -30 -161h-467q-99 0 -142 43q-78 78 -14 275h467q99 0 143 -44q43 -44 43 -113z" />
    <glyph glyph-name="registered" unicode="&#xae;" horiz-adv-x="1667" 
d="M1495 649q0 123 -43 239t-121 204t-188.5 141t-247.5 53t-247.5 -53t-189.5 -141t-121 -204t-42 -308.5t160 -381t436 -188.5q137 0 249 53t190.5 142.5t121.5 205t43 238.5zM164 649.5q0 153.5 52 291.5t147.5 242.5t230.5 166t301 61.5t301 -61.5t230.5 -166
t147.5 -242.5t52 -291.5t-52.5 -293t-148.5 -245.5q-210 -228 -540 -228q-172 0 -308.5 61.5t-227.5 167t-138 245t-47 293zM985 829q0 113 -123 113h-16q-17 0 -25 -2v-231h49q115 0 115 120zM821 539v-293h-235v866q189 14 278 14q195 0 287 -79.5t92 -200.5
q0 -157 -145 -258l207 -320q-133 -71 -205 -39.5t-101 76.5l-147 234h-31z" />
    <glyph glyph-name="macron" unicode="&#xaf;" horiz-adv-x="952" 
d="M133 1275q0 54 25 120h516q84 0 114 -37t31 -91q0 -54 -24 -122h-516q-84 0 -115 38t-31 92z" />
    <glyph glyph-name="degree" unicode="&#xb0;" horiz-adv-x="751" 
d="M466 979q64 0 104 44.5t40 108.5t-41 108t-104 44t-103 -44t-40 -108t40 -108.5t104 -44.5zM682 918q-85 -89 -219 -89t-219.5 86.5t-85.5 214t86 215t220 87.5t219 -83.5t85 -214.5q0 -130 -86 -216z" />
    <glyph glyph-name="plusminus" unicode="&#xb1;" horiz-adv-x="1208" 
d="M1038 0h-975l56 328h311l59 344h-325l55 327h326l61 371h359l-62 -371h328l-55 -327h-328l-60 -344h306z" />
    <glyph glyph-name="twosuperior" unicode="&#xb2;" 
d="M629 797q129 0 129 -111q0 -47 -15 -94h-616l27 178q237 160 302.5 237.5t65.5 122.5q0 72 -71 72q-45 0 -82 -21.5t-90 -72.5q-39 23 -66 57.5t-27 66.5t14.5 53t44.5 49t95.5 54.5t153.5 26.5q152 0 229.5 -68.5t77.5 -167.5q0 -171 -154 -290l-121 -92h103z" />
    <glyph glyph-name="threesuperior" unicode="&#xb3;" 
d="M297 1128q-96 60 -96 130q0 38 44 79q84 78 236 78t233 -57.5t81 -146.5q0 -148 -144 -203q59 -39 81 -80t22 -93q0 -111 -91 -191.5t-229 -80.5t-213 35q-88 36 -96.5 109t94.5 151q76 -90 150.5 -90t101.5 21.5t27 56.5q0 69 -88 69h-62l25 160h86q45 0 64.5 21.5
t19.5 48.5q0 63 -85 63t-161 -80z" />
    <glyph glyph-name="acute" unicode="&#xb4;" horiz-adv-x="952" 
d="M368 1104q-89 0 -161 76l190 231q39 47 75 69.5t89 22.5t95 -26.5t87 -79.5l-274 -250q-49 -43 -101 -43z" />
    <glyph glyph-name="mu" unicode="&#xb5;" horiz-adv-x="1150" 
d="M594 -18q-123 0 -154 92l-78 -461h-368l233 1382h398l-95 -561q-6 -35 -6 -59q0 -82 64 -82q47 0 66.5 36t31.5 111l94 555h400l-113 -676q-2 -8 -2 -9v-19q0 -51 43 -51q29 0 66 12l18 -229q-93 -41 -193 -41t-147 23.5t-74 88.5q-31 -43 -73.5 -77.5t-110.5 -34.5z" />
    <glyph glyph-name="paragraph" unicode="&#xb6;" horiz-adv-x="1185" 
d="M524 481q-160 0 -253 99.5t-93 251.5q0 272 148 407t352 135h489q51 0 76 -27t25 -59t-2 -43l-252 -1487h-236l240 1418h-131l-240 -1418h-235l120 723h-8z" />
    <glyph glyph-name="periodcentered" unicode="&#xb7;" horiz-adv-x="575" 
d="M543 705q0 -106 -58.5 -153.5t-141.5 -47.5t-121 46t-38 97q0 106 58.5 153.5t140.5 47.5t121 -46t39 -97z" />
    <glyph glyph-name="cedilla" unicode="&#xb8;" horiz-adv-x="952" 
d="M442 -485q-170 1 -170 89q0 46 39 99q39 -23 70 -22q61 0 61 51q0 24 -20.5 60t-20.5 78q0 72 99 138h174q-74 -46 -74 -114q0 -23 12.5 -41.5t39 -55.5t26.5 -85q0 -94 -69.5 -145.5t-166.5 -51.5z" />
    <glyph glyph-name="onesuperior" unicode="&#xb9;" 
d="M176 1143q0 80 100 127l234 110q68 35 132 35q65 0 99 -47l-129 -776h-268l82 489l-199 -92q-51 74 -51 154z" />
    <glyph glyph-name="ordmasculine" unicode="&#xba;" horiz-adv-x="931" 
d="M566 604q-197 0 -284 96.5t-87 247.5q0 212 129.5 358t349.5 146q173 0 261.5 -97t88.5 -247q0 -211 -117 -350q-57 -70 -145 -112t-196 -42zM584 848q88 0 105.5 112.5t17.5 137.5q0 108 -72 108q-63 0 -94 -85t-31 -179t74 -94z" />
    <glyph glyph-name="guillemotright" unicode="&#xbb;" horiz-adv-x="1142" 
d="M686 814q0 99 123 222l272 -291q60 -63 61 -138t-30 -127t-94 -101l-344 -270q-66 100 -67 149q-2 114 77 195l113 118l-82 140q-29 51 -29 103zM70 274q0 100 77 179l113 118l-82 140q-57 100 0 208q29 52 94 117l273 -291q61 -65 61 -139t-31 -126t-94 -101l-344 -270
q-67 101 -67 165z" />
    <glyph glyph-name="onequarter" unicode="&#xbc;" horiz-adv-x="1843" 
d="M176 1143q0 80 100 127l234 110q68 35 132 35q65 0 99 -47l-129 -776h-268l82 489l-199 -92q-51 74 -51 154zM1225 1320q64 83 173 83t152 -25l-792 -1378h-293l719 1262q20 33 41 58zM1462 328l37 223h-10l-184 -223h157zM1716 326q86 0 86 -78q0 -32 -16 -96h-105
l-24 -150h-248l23 150h-328l26 161l338 412q85 99 177 99q93 -1 143 -29l-78 -469h6z" />
    <glyph glyph-name="onehalf" unicode="&#xbd;" horiz-adv-x="1843" 
d="M176 1143q0 80 100 127l234 110q68 35 132 35q65 0 99 -47l-129 -776h-268l82 489l-199 -92q-51 74 -51 154zM1143 1320q64 83 173 83t152 -25l-792 -1378h-293l719 1262q20 33 41 58zM1610 207q129 0 129 -111q0 -47 -15 -94h-616l27 178q237 160 324 263q44 52 44 98
q0 72 -71 71q-45 0 -82 -22t-90 -72q-39 24 -66 58t-27 66t15 52q93 133 311 131q135 0 211 -68t77 -167q2 -171 -153 -291l-121 -92h103z" />
    <glyph glyph-name="threequarters" unicode="&#xbe;" horiz-adv-x="1843" 
d="M459 1075q45 0 64 22q19 21 19 47q1 64 -84 64t-161 -80q-37 23 -67 57q-67 76 12 148q86 82 238 82q153 0 234 -57q81 -56 81 -146q0 -149 -144 -204q59 -39 81 -80t22 -93q0 -109 -91 -191q-91 -81 -231 -81t-211 35q-88 36 -96 110t94 150q76 -90 178 -90q47 0 74 22
t27 54q0 70 -88 71h-62l25 160h86zM1247 1320q64 83 173 83t153 -25l-793 -1378h-293l719 1262q20 33 41 58zM1462 328l37 223h-10l-184 -223h157zM1716 326q86 0 86 -78q0 -32 -16 -96h-105l-24 -150h-248l23 150h-328l26 161l338 412q85 99 177 99q93 -1 143 -29l-78 -469
h6z" />
    <glyph glyph-name="questiondown" unicode="&#xbf;" horiz-adv-x="925" 
d="M496.5 -139q74.5 0 140 32.5t125.5 94.5q51 -33 86 -80t35 -96q0 -87 -79 -148t-180.5 -89t-200.5 -28q-193 0 -302 87.5t-113 226.5q-12 193 209 372q39 33 115 94t86 189q40 12 127 12q198 0 198 -151q0 -90 -81.5 -162.5t-160.5 -140.5t-79 -140q0 -73 74.5 -73z
M474 639.5q-48 51.5 -48 110.5t18.5 100t49 68.5t71.5 41t106 13.5t114 -51t49 -111q0 -59 -18.5 -100t-64 -82t-137.5 -41t-140 51.5z" />
    <glyph glyph-name="Agrave" unicode="&#xc0;" horiz-adv-x="1351" 
d="M817 988q0 36 4 61h-6q-12 -47 -29 -91q-16 -42 -25 -68t-18 -44l-110 -271h213l-21 269q-2 28 -5 68t-3 76zM879 1384q229 0 260 -200l178 -1184h-391l-45 313h-351l-135 -313h-407l645 1341q118 43 246 43zM621 1663q73 133 168 133q96 0 157 -63l191 -172
q-65 -97 -154 -97q-55 0 -98 29z" />
    <glyph glyph-name="Aacute" unicode="&#xc1;" horiz-adv-x="1351" 
d="M817 988q0 36 4 61h-6q-12 -47 -29 -91q-16 -42 -25 -68t-18 -44l-110 -271h213l-21 269q-2 28 -5 68t-3 76zM879 1384q229 0 260 -200l178 -1184h-391l-45 313h-351l-135 -313h-407l645 1341q118 43 246 43zM777 1464q-85 0 -148 97l207 172q71 63 148 63t119 -40
t71 -93l-295 -170q-52 -29 -102 -29z" />
    <glyph glyph-name="Acircumflex" unicode="&#xc2;" horiz-adv-x="1351" 
d="M817 988q0 36 4 61h-6q-12 -47 -29 -91q-16 -42 -25 -68t-18 -44l-110 -271h213l-21 269q-2 28 -5 68t-3 76zM879 1384q229 0 260 -200l178 -1184h-391l-45 313h-351l-135 -313h-407l645 1341q118 43 246 43zM1196 1503q-48 -41 -118 -41q-69 0 -105 41l-88 94l-113 -96
q-49 -39 -124 -39t-116 41l185 219q73 84 190 84t160 -77z" />
    <glyph glyph-name="Atilde" unicode="&#xc3;" horiz-adv-x="1351" 
d="M817 988q0 36 4 61h-6q-12 -47 -29 -91q-16 -42 -25 -68t-18 -44l-110 -271h213l-21 269q-2 28 -5 68t-3 76zM879 1384q229 0 260 -200l178 -1184h-391l-45 313h-351l-135 -313h-407l645 1341q118 43 246 43zM508 1636q0 65 69 111q71 51 152 51t159 -39q30 -14 56 -26
t56 -12t70 13t83 72q53 -31 71 -66q17 -36 17 -74q-1 -75 -67 -119t-144 -44q-78 1 -136 27q-60 26 -88 38t-58 13q-30 0 -69 -13q-40 -13 -83 -73q-88 51 -88 141z" />
    <glyph glyph-name="Adieresis" unicode="&#xc4;" horiz-adv-x="1351" 
d="M817 988q0 36 4 61h-6q-12 -47 -29 -91q-16 -42 -25 -68t-18 -44l-110 -271h213l-21 269q-2 28 -5 68t-3 76zM879 1384q229 0 260 -200l178 -1184h-391l-45 313h-351l-135 -313h-407l645 1341q118 43 246 43zM1288 1673q0 -94 -56 -139t-133 -45t-116 44t-39 95
q0 94 57 139t133 45t116 -44q38 -44 38 -95zM831 1673q0 -94 -57 -139t-134 -45t-115 44t-38 95q1 94 57 139t132 45t116 -44t39 -95z" />
    <glyph glyph-name="Aring" unicode="&#xc5;" horiz-adv-x="1351" 
d="M883 1456q47 0 72.5 35t25.5 81t-25.5 81t-72.5 35t-74 -34t-27 -81t27 -82t74 -35zM817 988q0 36 4 61h-6q-9 -35 -27 -84.5t-27 -75t-18 -43.5l-110 -271h213l-21 269q-2 29 -5 68.5t-3 75.5zM731 1368q-92 72 -92 191t67 191.5t176 72.5t175.5 -73t66.5 -177
q0 -145 -110 -213q102 -47 125 -176l178 -1184h-391l-45 313h-351l-135 -313h-407l645 1341q61 21 98 27z" />
    <glyph glyph-name="AE" unicode="&#xc6;" horiz-adv-x="1857" 
d="M971 586l80 475h-17q-59 -115 -125.5 -226.5t-126.5 -216.5l-18 -32h207zM1802 197.5q0 -113.5 -24 -197.5h-906l54 324h-310l-180 -324h-436l770 1231q86 143 299 143h909q5 -147 -43 -231t-194 -84h-301l-37 -207h364l-51 -313h-364l-39 -228h297q192 0 192 -113.5z
" />
    <glyph glyph-name="Ccedilla" unicode="&#xc7;" horiz-adv-x="1269" 
d="M604 -485q-170 1 -170 89q0 46 39 99q39 -23 70 -22q61 0 61 51q0 25 -20.5 59t-20.5 62q0 67 49 116q-242 26 -355.5 187t-113.5 381q0 319 144.5 534t306.5 272.5t293 57.5q260 0 379 -133q55 -60 55 -142t-55.5 -129t-143.5 -77q-66 162 -231 162t-250.5 -155
t-86.5 -329t58.5 -241.5t159.5 -67.5q173 0 299 190q90 -43 131 -89t41 -107q0 -104 -90 -178q-151 -124 -369 -138q-22 -31 -22 -63t12 -51t39 -55.5t27 -84.5q0 -94 -69.5 -146t-166.5 -52z" />
    <glyph glyph-name="Egrave" unicode="&#xc8;" horiz-adv-x="1071" 
d="M1036 143q0 -59 -24 -143h-936l231 1374h905q5 -146 -28 -204t-81 -85t-128 -26h-322l-37 -207h385l-51 -313h-385l-39 -228h318q192 0 192 -168zM446 1663q73 133 169 133t157 -63l191 -172q-65 -97 -154 -97q-55 0 -98 29z" />
    <glyph glyph-name="Eacute" unicode="&#xc9;" horiz-adv-x="1071" 
d="M1036 143q0 -59 -24 -143h-936l231 1374h905q5 -146 -28 -204t-81 -85t-128 -26h-322l-37 -207h385l-51 -313h-385l-39 -228h318q192 0 192 -168zM695 1464q-85 0 -148 97l207 172q71 63 148 63t119 -40t71 -93l-295 -170q-52 -29 -102 -29z" />
    <glyph glyph-name="Ecircumflex" unicode="&#xca;" horiz-adv-x="1071" 
d="M1036 143q0 -59 -24 -143h-936l231 1374h905q5 -146 -28 -204t-81 -85t-128 -26h-322l-37 -207h385l-51 -313h-385l-39 -228h318q192 0 192 -168zM1108 1503q-48 -41 -118 -41q-69 0 -105 41l-88 94l-113 -96q-49 -39 -124 -39t-116 41l185 219q73 84 190 84t160 -77z
" />
    <glyph glyph-name="Edieresis" unicode="&#xcb;" horiz-adv-x="1071" 
d="M1036 143q0 -59 -24 -143h-936l231 1374h905q5 -146 -28 -204t-81 -85t-128 -26h-322l-37 -207h385l-51 -313h-385l-39 -228h318q192 0 192 -168zM1198 1673q0 -94 -56 -139t-133 -45t-116 44t-39 95q0 94 57 139t133 45t116 -44q38 -44 38 -95zM741 1673q0 -94 -57 -139
t-134 -45t-115 44t-38 95q1 94 57 139t132 45t116 -44t39 -95z" />
    <glyph glyph-name="Igrave" unicode="&#xcc;" horiz-adv-x="606" 
d="M465 1386q213 0 213 -172q0 -18 -4 -38l-199 -1176h-399l231 1370q70 16 158 16zM242 1663q73 133 168 133q96 0 157 -63l191 -172q-65 -97 -154 -97q-55 0 -98 29z" />
    <glyph glyph-name="Iacute" unicode="&#xcd;" horiz-adv-x="606" 
d="M465 1386q213 0 213 -172q0 -18 -4 -38l-199 -1176h-399l231 1370q70 16 158 16zM430 1464q-84 0 -147 97l206 172q71 63 149 63q77 0 119 -40t70 -93l-295 -170q-53 -29 -102 -29z" />
    <glyph glyph-name="Icircumflex" unicode="&#xce;" horiz-adv-x="606" 
d="M465 1386q213 0 213 -172q0 -18 -4 -38l-199 -1176h-399l231 1370q70 16 158 16zM819 1503q-48 -41 -118 -41q-69 0 -105 41l-88 94l-113 -96q-49 -39 -124 -39t-115 41l184 219q73 84 191 84t159 -77z" />
    <glyph glyph-name="Idieresis" unicode="&#xcf;" horiz-adv-x="606" 
d="M465 1386q213 0 213 -172q0 -18 -4 -38l-199 -1176h-399l231 1370q70 16 158 16zM920 1673q0 -94 -56 -139t-134 -45q-77 0 -116 44t-39 95q-1 94 57 139t134 45t115 -44t39 -95zM463 1673q0 -94 -57 -139q-56 -45 -134 -45t-116 44t-37 95q0 94 56 139t132 45t116 -44
t40 -95z" />
    <glyph glyph-name="Eth" unicode="&#xd0;" horiz-adv-x="1304" 
d="M600 309q160 0 242 156.5t82 370.5q0 111 -50.5 176t-150.5 65h-21q-22 0 -45 -4l-49 -280h178l-26 -164h-178l-56 -320h74zM727 1384q319 0 462.5 -155.5t143.5 -392.5q0 -394 -200.5 -615t-577.5 -221h-479l104 629h-137l27 164h139l94 563q224 28 424 28z" />
    <glyph glyph-name="Ntilde" unicode="&#xd1;" horiz-adv-x="1331" 
d="M1194 1384q207 0 207 -172q0 -14 -4 -38l-197 -1174h-321l-304 688l-116 -688h-383l231 1368q83 16 172 16q155 0 207 -135l238 -618l123 737q66 16 147 16zM500 1636q0 64 69 113t151 49t160 -39q30 -14 56 -26t56 -12t70 13t83 72q53 -30 70 -66q38 -80 -1 -142
q-57 -95 -215 -95q-55 1 -113 27q-60 26 -88 38t-58 13q-30 0 -70 -13t-82 -73q-88 51 -88 141z" />
    <glyph glyph-name="Ograve" unicode="&#xd2;" horiz-adv-x="1409" 
d="M856 1081q-136 0 -221 -160q-86 -160 -84 -403q0 -109 45 -172t121 -63q144 0 229 160q86 160 85 399t-175 239zM714 -37q-170 0 -274 49q-204 96 -266 317q-31 105 -31 239t45 286q46 152 138 274t232 197q140 76 309 76t273 -49q206 -97 267 -318q31 -106 31 -240
t-46 -284q-46 -151 -137 -273q-92 -122 -232 -198t-309 -76zM606 1663q73 133 168 133t158 -63l190 -172q-65 -97 -153 -97q-55 0 -99 29z" />
    <glyph glyph-name="Oacute" unicode="&#xd3;" horiz-adv-x="1409" 
d="M856 1081q-136 0 -221 -160q-86 -160 -84 -403q0 -109 45 -172t121 -63q144 0 229 160q86 160 85 399t-175 239zM714 -37q-170 0 -274 49q-204 96 -266 317q-31 105 -31 239t45 286q46 152 138 274t232 197q140 76 309 76t273 -49q206 -97 267 -318q31 -106 31 -240
t-46 -284q-46 -151 -137 -273q-92 -122 -232 -198t-309 -76zM824 1464q-85 0 -148 97l207 172q71 63 148 63t119 -40t71 -93l-295 -170q-52 -29 -102 -29z" />
    <glyph glyph-name="Ocircumflex" unicode="&#xd4;" horiz-adv-x="1409" 
d="M856 1081q-136 0 -221 -160q-86 -160 -84 -403q0 -109 45 -172t121 -63q144 0 229 160q86 160 85 399t-175 239zM714 -37q-170 0 -274 49q-204 96 -266 317q-31 105 -31 239t45 286q46 152 138 274t232 197q140 76 309 76t273 -49q206 -97 267 -318q31 -106 31 -240
t-46 -284q-46 -151 -137 -273q-92 -122 -232 -198t-309 -76zM1225 1503q-48 -41 -117 -41t-107 41l-88 94l-112 -96q-49 -39 -124 -39t-116 41l184 219q73 84 191 84q117 0 160 -77z" />
    <glyph glyph-name="Otilde" unicode="&#xd5;" horiz-adv-x="1409" 
d="M856 1081q-136 0 -221 -160q-86 -160 -84 -403q0 -109 45 -172t121 -63q144 0 229 160q86 160 85 399t-175 239zM714 -37q-170 0 -274 49q-204 96 -266 317q-31 105 -31 239t45 286q46 152 138 274t232 197q140 76 309 76t273 -49q206 -97 267 -318q31 -106 31 -240
t-46 -284q-46 -151 -137 -273q-92 -122 -232 -198t-309 -76zM1197 1547q-64 -44 -143 -44q-79 1 -137 27q-57 26 -86 38t-59 13q-30 0 -69 -13q-40 -13 -82 -73q-53 31 -71 67q-53 113 51 185q71 51 153 51t158 -39q30 -14 56 -26t56 -12t71 13q40 13 83 72q53 -30 70 -66
q38 -80 -1 -142q-18 -30 -50 -51z" />
    <glyph glyph-name="Odieresis" unicode="&#xd6;" horiz-adv-x="1409" 
d="M856 1081q-136 0 -221 -160q-86 -160 -84 -403q0 -109 45 -172t121 -63q144 0 229 160q86 160 85 399t-175 239zM714 -37q-170 0 -274 49q-204 96 -266 317q-31 105 -31 239t45 286q46 152 138 274t232 197q140 76 309 76t273 -49q206 -97 267 -318q31 -106 31 -240
t-46 -284q-46 -151 -137 -273q-92 -122 -232 -198t-309 -76zM1298 1673q0 -94 -56 -139t-133 -45t-116 44t-39 95q0 94 58 139t133 45q77 0 115 -44t38 -95zM842 1673q0 -94 -58 -139t-134 -45t-114 44t-38 95q0 94 56 139t132 45t116 -44t40 -95z" />
    <glyph glyph-name="multiply" unicode="&#xd7;" horiz-adv-x="1208" 
d="M1126 418l-278 -225l-211 260l-293 -260l-201 243l295 262l-215 269l277 225l207 -256l290 256l201 -244l-293 -258z" />
    <glyph glyph-name="Oslash" unicode="&#xd8;" horiz-adv-x="1409" 
d="M1007.5 618q22.5 104 22.5 188t-8 126l-387 -625q37 -25 97 -25t116.5 41.5t96.5 116t62.5 178.5zM573.5 746q-22.5 -104 -22.5 -190t8 -128l389 629q-36 25 -98 25t-118 -41.5t-96 -116t-62.5 -178.5zM1243 1288q195 -160 195 -480q0 -146 -45 -298t-137.5 -273.5
t-232.5 -197.5t-304 -76t-268 45l-138 -221l-112 61l139 226q-197 156 -197 482q0 148 45 299t137.5 272.5t232.5 197.5t305 76t270 -47l120 194l113 -61z" />
    <glyph glyph-name="Ugrave" unicode="&#xd9;" horiz-adv-x="1296" 
d="M1161 1386q213 0 213 -172q0 -18 -4 -38l-125 -682q-47 -262 -190 -396t-414 -135q-392 0 -471 237q-25 75 -25 158t17 183l137 829q70 16 160 16q215 0 215 -172q0 -18 -4 -38l-109 -629q-10 -72 -10 -122q1 -50 25 -94t88 -44q64 1 97 25q75 54 101 229l139 829
q70 16 160 16zM481 1663q73 133 168 133t158 -63l190 -172q-65 -97 -153 -97q-55 0 -99 29z" />
    <glyph glyph-name="Uacute" unicode="&#xda;" horiz-adv-x="1296" 
d="M1161 1386q213 0 213 -172q0 -18 -4 -38l-125 -682q-47 -262 -190 -396t-414 -135q-392 0 -471 237q-25 75 -25 158t17 183l137 829q70 16 160 16q215 0 215 -172q0 -18 -4 -38l-109 -629q-10 -72 -10 -122q1 -50 25 -94t88 -44q64 1 97 25q75 54 101 229l139 829
q70 16 160 16zM772 1464q-84 0 -147 97l206 172q71 63 149 63q77 0 119 -40t70 -93l-295 -170q-53 -29 -102 -29z" />
    <glyph glyph-name="Ucircumflex" unicode="&#xdb;" horiz-adv-x="1296" 
d="M1161 1386q213 0 213 -172q0 -18 -4 -38l-125 -682q-47 -262 -190 -396t-414 -135q-392 0 -471 237q-25 75 -25 158t17 183l137 829q70 16 160 16q215 0 215 -172q0 -18 -4 -38l-109 -629q-10 -72 -10 -122q1 -50 25 -94t88 -44q64 1 97 25q75 54 101 229l139 829
q70 16 160 16zM1176 1503q-48 -41 -118 -41t-106 41l-88 94l-112 -96q-49 -39 -124 -39t-116 41l184 219q73 84 191 84q117 0 160 -77z" />
    <glyph glyph-name="Udieresis" unicode="&#xdc;" horiz-adv-x="1296" 
d="M1161 1386q213 0 213 -172q0 -18 -4 -38l-125 -682q-47 -262 -190 -396t-414 -135q-392 0 -471 237q-25 75 -25 158t17 183l137 829q70 16 160 16q215 0 215 -172q0 -18 -4 -38l-109 -629q-10 -72 -10 -122q1 -50 25 -94t88 -44q64 1 97 25q75 54 101 229l139 829
q70 16 160 16zM1264 1673q0 -94 -56 -139t-134 -45q-77 0 -116 44t-38 95q0 94 57 139t133 45t115 -44t39 -95zM807 1673q0 -94 -57 -139q-56 -45 -134 -45t-116 44t-37 95q0 94 56 139t132 45t116 -44t40 -95z" />
    <glyph glyph-name="Yacute" unicode="&#xdd;" horiz-adv-x="1251" 
d="M413 1380q103 0 145 -36t60 -117l103 -383l215 399q35 63 94 103t174 38q115 0 213 -61l-547 -854l-79 -469h-402l78 467l-281 850q124 63 227 63zM787 1464q-85 0 -148 97l207 172q71 63 149 63q77 0 119 -40t70 -93l-295 -170q-52 -29 -102 -29z" />
    <glyph glyph-name="Thorn" unicode="&#xde;" horiz-adv-x="1169" 
d="M627 483q78 0 130 64.5t52 191.5q0 59 -35 96t-96 37h-22q-23 0 -35 -2l-66 -387h72zM452 1386q134 0 179 -49t45 -123q0 -18 -4 -38l-4 -27q23 4 26 4h27q229 0 360 -110t131 -275q0 -565 -616 -565h-86l-2 2l-35 -205h-397l231 1370q70 16 145 16z" />
    <glyph glyph-name="germandbls" unicode="&#xdf;" horiz-adv-x="1372" 
d="M881 281q59 0 59 44.5t-35 72.5t-55 43t-48 37q-75 61 -101.5 100t-26.5 110q0 72 28.5 115t62.5 80t62.5 78t28.5 95t-28.5 81.5t-75.5 27.5q-80 0 -116 -53t-46 -131l-154 -1026q-33 -219 -134 -327.5t-282 -108.5t-255 38t-98.5 78.5t-24.5 90.5t30.5 102.5t83.5 85.5
q62 -74 145 -74t113.5 30t40.5 99l152 981q50 321 239 436q140 82 339 82t321.5 -85.5t122.5 -208.5q0 -80 -31 -134.5t-66.5 -97.5t-66.5 -83t-31 -83t17.5 -70.5t44 -52t59.5 -49t77 -61.5q114 -96 114 -242t-114 -239t-282 -93t-264 47q-123 63 -123 181t139 190
q66 -93 112 -99.5t67 -6.5z" />
    <glyph glyph-name="agrave" unicode="&#xe0;" horiz-adv-x="1103" 
d="M569 268q76 0 95 94l55 324q-23 14 -61 14t-73 -32q-67 -62 -88 -179q-11 -55 -12 -100q0 -121 84 -121zM862 -20q-84 0 -130 20t-75 90q-59 -68 -119 -94t-136 -25q-76 0 -130 25q-178 83 -178 359q0 275 168 466t459 193q107 0 207 -22t217 -93l-109 -649
q-10 -78 -10 -138q0 -61 12 -106q-92 -26 -176 -26zM918 1165q-61 -61 -144 -61t-121 43l-221 258q102 102 194 101t142 -87z" />
    <glyph glyph-name="aacute" unicode="&#xe1;" horiz-adv-x="1103" 
d="M569 268q76 0 95 94l55 324q-23 14 -61 14t-73 -32q-67 -62 -88 -179q-11 -55 -12 -100q0 -121 84 -121zM862 -20q-84 0 -130 20t-75 90q-59 -68 -119 -94t-136 -25q-76 0 -130 25q-178 83 -178 359q0 275 168 466t459 193q107 0 207 -22t217 -93l-109 -649
q-10 -78 -10 -138q0 -61 12 -106q-92 -26 -176 -26zM717 1104q-92 0 -162 76l190 231q39 47 75 70t89 23q93 -1 183 -107l-275 -250q-49 -43 -100 -43z" />
    <glyph glyph-name="acircumflex" unicode="&#xe2;" horiz-adv-x="1103" 
d="M569 268q76 0 95 94l55 324q-23 14 -61 14t-73 -32q-67 -62 -88 -179q-11 -55 -12 -100q0 -121 84 -121zM862 -20q-84 0 -130 20t-75 90q-59 -68 -119 -94t-136 -25q-76 0 -130 25q-178 83 -178 359q0 275 168 466t459 193q107 0 207 -22t217 -93l-109 -649
q-10 -78 -10 -138q0 -61 12 -106q-92 -26 -176 -26zM954 1110q-51 0 -80 14t-55 56l-74 116l-118 -125q-57 -61 -143 -61q-85 0 -124 39l205 250q43 53 87 81t112 28q133 -1 182 -105l119 -254q-60 -39 -111 -39z" />
    <glyph glyph-name="atilde" unicode="&#xe3;" horiz-adv-x="1103" 
d="M569 268q76 0 95 94l55 324q-23 14 -61 14t-73 -32q-67 -62 -88 -179q-11 -55 -12 -100q0 -121 84 -121zM862 -20q-84 0 -130 20t-75 90q-59 -68 -119 -94t-136 -25q-76 0 -130 25q-178 83 -178 359q0 275 168 466t459 193q107 0 207 -22t217 -93l-109 -649
q-10 -78 -10 -138q0 -61 12 -106q-92 -26 -176 -26zM999 1442q88 -51 88 -133q0 -81 -66 -126q-66 -44 -148 -44t-163 38t-113 39q-32 2 -72 -12t-83 -74q-53 31 -70 67q-37 78 0 136t128 87t169 1q45 -15 96 -40t81 -25t70 13t83 73z" />
    <glyph glyph-name="adieresis" unicode="&#xe4;" horiz-adv-x="1103" 
d="M569 268q76 0 95 94l55 324q-23 14 -61 14t-73 -32q-67 -62 -88 -179q-11 -55 -12 -100q0 -121 84 -121zM862 -20q-84 0 -130 20t-75 90q-59 -68 -119 -94t-136 -25q-76 0 -130 25q-178 83 -178 359q0 275 168 466t459 193q107 0 207 -22t217 -93l-109 -649
q-10 -78 -10 -138q0 -61 12 -106q-92 -26 -176 -26zM1141 1313q-1 -94 -57 -139q-56 -46 -133 -46t-115 44t-39 96q0 94 57 139t133 45t115 -44t39 -95zM684 1313q0 -94 -57 -139q-57 -46 -134 -46t-115 44t-38 96q0 94 56 139t132 45t116 -44t40 -95z" />
    <glyph glyph-name="aring" unicode="&#xe5;" horiz-adv-x="1103" 
d="M569 268q76 0 95 94l55 324q-23 14 -61 14t-73 -32q-67 -62 -88 -179q-11 -55 -12 -100q0 -121 84 -121zM862 -20q-84 0 -130 20t-75 90q-59 -68 -119 -94t-136 -25q-76 0 -130 25q-178 83 -178 359q0 275 168 466t459 193q107 0 207 -22t217 -93l-109 -649
q-10 -78 -10 -138q0 -61 12 -106q-92 -26 -176 -26zM745 1245q47 0 73 35t26 81t-26 81t-73 35t-73 -34t-27 -81q1 -47 27 -82t73 -35zM568 1540q66 71 176 71q109 1 176 -72t67 -176t-65 -177q-68 -72 -177 -73q-110 -1 -177 69q-66 70 -66 179q0 108 66 179z" />
    <glyph glyph-name="ae" unicode="&#xe6;" horiz-adv-x="1589" 
d="M1298 694q0 62 -61 62q-128 0 -162 -172q14 -2 17 -2h26q31 0 105.5 16t74.5 96zM567 268q76 0 95 94l55 324q-23 14 -61 14t-72.5 -31.5t-67.5 -102t-33 -184.5t84 -114zM1055 393q8 -141 134 -141q125 0 200 123q74 -23 117.5 -60t43.5 -95q0 -96 -65 -148
q-65 -53 -159.5 -78t-182.5 -25q-268 0 -357 170q-64 -77 -145 -122.5t-225 -45.5t-234 95.5t-90 285.5q0 271 121 412t233 195.5t220 54.5t167.5 -28t120.5 -81q123 83 198.5 97t155.5 14t146 -26.5t121 -85t55 -163.5q0 -189 -144.5 -268.5t-344.5 -79.5h-86z" />
    <glyph glyph-name="ccedilla" unicode="&#xe7;" horiz-adv-x="956" 
d="M434 -485q-170 1 -170 89q0 46 39 99q39 -23 70 -22q61 0 61 51q0 24 -20.5 60t-20.5 61q0 73 58 124q-175 27 -266 142.5t-91 257.5q0 282 157 460.5t425 178.5q72 0 148.5 -22.5t117.5 -63.5q76 -76 76 -156t-60.5 -124t-148.5 -54q-36 131 -139 131q-80 0 -132.5 -92
t-52.5 -227q0 -61 27.5 -103.5t89.5 -42.5t105 40t67 91q178 -35 178 -174q0 -74 -59 -130q-102 -97 -272 -116q-29 -33 -29 -67.5t12 -53t39 -55t27 -84.5q0 -94 -69.5 -146t-166.5 -52z" />
    <glyph glyph-name="egrave" unicode="&#xe8;" horiz-adv-x="991" 
d="M500 582h20q67 0 107 20q73 36 73 94t-61 59t-103 -42t-59 -129q13 -2 23 -2zM791 375q161 -50 161 -155q0 -96 -65 -148q-65 -53 -159 -78t-196 -25q-204 0 -319 118t-115 304q0 273 146 439q162 186 446 186q179 0 271 -94q71 -75 71 -180q0 -192 -163 -279
q-123 -68 -326 -70h-86q4 -69 39 -105q36 -36 98 -36q120 0 197 123zM811 1165q-61 -61 -144 -61t-120 43l-221 258q102 102 193 101t143 -87z" />
    <glyph glyph-name="eacute" unicode="&#xe9;" horiz-adv-x="991" 
d="M500 582h20q67 0 107 20q73 36 73 94t-61 59t-103 -42t-59 -129q13 -2 23 -2zM791 375q161 -50 161 -155q0 -96 -65 -148q-65 -53 -159 -78t-196 -25q-204 0 -319 118t-115 304q0 273 146 439q162 186 446 186q179 0 271 -94q71 -75 71 -180q0 -192 -163 -279
q-123 -68 -326 -70h-86q4 -69 39 -105q36 -36 98 -36q120 0 197 123zM635 1104q-92 0 -162 76l191 231q38 47 74 70t89 23q93 -1 183 -107l-275 -250q-49 -43 -100 -43z" />
    <glyph glyph-name="ecircumflex" unicode="&#xea;" horiz-adv-x="991" 
d="M500 582h20q67 0 107 20q73 36 73 94t-61 59t-103 -42t-59 -129q13 -2 23 -2zM791 375q161 -50 161 -155q0 -96 -65 -148q-65 -53 -159 -78t-196 -25q-204 0 -319 118t-115 304q0 273 146 439q162 186 446 186q179 0 271 -94q71 -75 71 -180q0 -192 -163 -279
q-123 -68 -326 -70h-86q4 -69 39 -105q36 -36 98 -36q120 0 197 123zM890 1110q-50 0 -79 14t-55 56l-74 116l-119 -125q-57 -61 -143 -61t-123 39l205 250q43 53 87 81q43 28 111 28q132 -1 183 -105l118 -254q-61 -39 -111 -39z" />
    <glyph glyph-name="edieresis" unicode="&#xeb;" horiz-adv-x="991" 
d="M500 582h20q67 0 107 20q73 36 73 94t-61 59t-103 -42t-59 -129q13 -2 23 -2zM791 375q161 -50 161 -155q0 -96 -65 -148q-65 -53 -159 -78t-196 -25q-204 0 -319 118t-115 304q0 273 146 439q162 186 446 186q179 0 271 -94q71 -75 71 -180q0 -192 -163 -279
q-123 -68 -326 -70h-86q4 -69 39 -105q36 -36 98 -36q120 0 197 123zM1077 1313q0 -94 -56 -139q-56 -46 -133 -46t-116 44t-39 96q-1 94 57 139t134 45t114 -44t39 -95zM621 1313q1 -94 -57 -139q-58 -46 -135 -46t-115 44t-38 96q0 94 56 139t133 45q76 0 116 -44t40 -95z
" />
    <glyph glyph-name="igrave" unicode="&#xec;" horiz-adv-x="561" 
d="M377 995q211 0 211 -172q0 -17 -4 -39l-92 -540l-8 -58t-5 -78q0 -49 13 -88q-90 -41 -205 -42t-162 41t-45 128v23q0 12 2 23l133 786q70 16 162 16zM596 1165q-61 -61 -144 -61t-120 43l-221 258q102 102 193 101t142 -87z" />
    <glyph glyph-name="iacute" unicode="&#xed;" horiz-adv-x="561" 
d="M377 995q211 0 211 -172q0 -17 -4 -39l-92 -540l-8 -58t-5 -78q0 -49 13 -88q-90 -41 -205 -42t-162 41t-45 128v23q0 12 2 23l133 786q70 16 162 16zM381 1104q-92 0 -162 76l191 231q38 47 74 70t89 23q93 -1 183 -107l-275 -250q-49 -43 -100 -43z" />
    <glyph glyph-name="icircumflex" unicode="&#xee;" horiz-adv-x="561" 
d="M377 995q211 0 211 -172q0 -17 -4 -39l-92 -540l-8 -58t-5 -78q0 -49 13 -88q-90 -41 -205 -42t-162 41t-45 128v23q0 12 2 23l133 786q70 16 162 16zM649 1110q-51 0 -80 14t-55 56l-74 116l-118 -125q-57 -61 -144 -61t-123 39l205 250q43 53 87 81t112 28
q131 -1 182 -105l119 -254q-60 -39 -111 -39z" />
    <glyph glyph-name="idieresis" unicode="&#xef;" horiz-adv-x="561" 
d="M377 995q211 0 211 -172q0 -17 -4 -39l-92 -540l-8 -58t-5 -78q0 -49 13 -88q-90 -41 -205 -42t-162 41t-45 128v23q0 12 2 23l133 786q70 16 162 16zM844 1313q0 -94 -56 -139q-56 -46 -134 -46t-116 44t-38 96q0 94 57 139t133 45t115 -44t39 -95zM387 1313
q0 -94 -57 -139q-57 -46 -134 -46t-115 44t-38 96q0 94 56 139t132 45t116 -44t40 -95z" />
    <glyph glyph-name="eth" unicode="&#xf0;" horiz-adv-x="1110" 
d="M641 664q-58 0 -104 -63t-50 -204q-7 -143 93 -143q122 0 135.5 154.5t19.5 230.5q-36 25 -94 25zM567 911q100 0 195 -61l10 8q-34 145 -164 240l-153 -142l-86 95l123 114q-106 41 -226 39q-2 10 -2 12v25q0 119 61.5 173t155.5 54t193 -38l67 -31l144 133l86 -94
l-119 -111q131 -104 207 -260t76 -336q0 -399 -158 -583.5t-449 -184.5q-181 0 -303.5 108t-122.5 314q0 264 131 395t334 131z" />
    <glyph glyph-name="ntilde" unicode="&#xf1;" horiz-adv-x="1101" 
d="M862 1016q124 0 186 -77t62 -196q0 -62 -20 -170l-56 -329l-8 -58t-4 -77t12 -89q-90 -41 -205 -42t-161 41t-45 128q0 36 10 91l61 364q4 20 4 46q0 52 -55 52q-78 0 -92 -94l-102 -606h-400l166 979q70 16 158 16q181 0 205 -102q106 123 284 123zM805 1356q30 0 70 13
t83 73q87 -51 88 -132q0 -82 -66 -126q-66 -45 -148 -45t-163 38t-113 39q-32 2 -72 -12t-83 -74q-53 31 -70 67q-37 78 0 136t128 87t169 1q45 -15 96 -40t81 -25z" />
    <glyph glyph-name="ograve" unicode="&#xf2;" horiz-adv-x="1110" 
d="M553 -31q-237 0 -348 117t-111 309q0 266 162 443q162 178 428 178q212 0 324 -121t110 -303q0 -123 -36 -236q-74 -234 -288 -336q-108 -52 -241 -51zM483 389q0 -127 90 -127q78 0 120 128q32 98 32 174q0 77 -17 117q-18 40 -66 40t-78 -36q-81 -97 -81 -296z
M872 1165q-61 -61 -144 -61t-120 43l-221 258q102 102 193 101t143 -87z" />
    <glyph glyph-name="oacute" unicode="&#xf3;" horiz-adv-x="1110" 
d="M553 -31q-237 0 -348 117t-111 309q0 266 162 443q162 178 428 178q212 0 324 -121t110 -303q0 -123 -36 -236q-74 -234 -288 -336q-108 -52 -241 -51zM483 389q0 -127 90 -127q78 0 120 128q32 98 32 174q0 77 -17 117q-18 40 -66 40t-78 -36q-81 -97 -81 -296z
M618 1104q-93 0 -161 76l190 231q39 47 75 70t89 23t95 -28q42 -26 87 -79l-274 -250q-49 -43 -101 -43z" />
    <glyph glyph-name="ocircumflex" unicode="&#xf4;" horiz-adv-x="1110" 
d="M553 -31q-237 0 -348 117t-111 309q0 266 162 443q162 178 428 178q212 0 324 -121t110 -303q0 -123 -36 -236q-74 -234 -288 -336q-108 -52 -241 -51zM483 389q0 -127 90 -127q78 0 120 128q32 98 32 174q0 77 -17 117q-18 40 -66 40t-78 -36q-81 -97 -81 -296z
M915 1110q-51 0 -79 14t-56 56l-73 116l-119 -125q-57 -61 -143 -61t-123 39l204 250q43 53 87 81t112 28q133 -1 182 -105l119 -254q-60 -39 -111 -39z" />
    <glyph glyph-name="otilde" unicode="&#xf5;" horiz-adv-x="1110" 
d="M553 -31q-237 0 -348 117t-111 309q0 266 162 443q162 178 428 178q212 0 324 -121t110 -303q0 -123 -36 -236q-74 -234 -288 -336q-108 -52 -241 -51zM483 389q0 -127 90 -127q78 0 120 128q32 98 32 174q0 77 -17 117q-18 40 -66 40t-78 -36q-81 -97 -81 -296z
M322 1272q0 63 69 112q69 48 149 49t136 -25q55 -26 81 -40q27 -12 57 -12t70 13t83 73q53 -31 70 -67q38 -81 -1 -141q-57 -95 -215 -95q-63 0 -144 38t-113 39q-32 2 -72 -12t-82 -74q-88 51 -88 142z" />
    <glyph glyph-name="odieresis" unicode="&#xf6;" horiz-adv-x="1110" 
d="M553 -31q-237 0 -348 117t-111 309q0 266 162 443q162 178 428 178q212 0 324 -121t110 -303q0 -123 -36 -236q-74 -234 -288 -336q-108 -52 -241 -51zM483 389q0 -127 90 -127q78 0 120 128q32 98 32 174q0 77 -17 117q-18 40 -66 40t-78 -36q-81 -97 -81 -296z
M1139 1313q-1 -94 -57 -139q-56 -46 -133 -46t-115 44t-39 96q0 94 57 139t133 45t115 -44t39 -95zM682 1313q0 -94 -57 -139q-57 -46 -135 -46t-114 44q-38 44 -38 96q0 94 56 139t132 45t116 -44t40 -95z" />
    <glyph glyph-name="divide" unicode="&#xf7;" horiz-adv-x="1208" 
d="M1130 516h-974l55 328h975zM920 1130q0 -102 -59.5 -149t-135.5 -47t-121 43.5t-45 98.5q0 54 16.5 91t44 61.5t63.5 36t92 11.5t100.5 -44.5t44.5 -101.5zM776 281q0 -102 -60 -149.5t-136 -47.5t-120 44t-44 98t16.5 91t44 61.5t63 36t92 11.5t100.5 -44t44 -101z" />
    <glyph glyph-name="oslash" unicode="&#xf8;" horiz-adv-x="1110" 
d="M581 262q35 0 65 37t54.5 108.5t24.5 172.5l-199 -308q20 -10 55 -10zM628 721q-65 0 -105 -107t-40 -217l201 310q-22 14 -56 14zM244 51q-150 113 -150 361t162 426t428 178q87 0 170 -27l109 168l106 -65l-104 -160q153 -116 153 -340q0 -263 -150.5 -443t-428.5 -180
q-91 0 -183 27l-129 -201l-106 66z" />
    <glyph glyph-name="ugrave" unicode="&#xf9;" horiz-adv-x="1093" 
d="M160 44q-68 73 -68 174t21 202l96 569q89 27 184 27q193 0 189 -170q0 -25 -4 -45l-74 -434q-4 -20 -4 -45t11 -39q11 -15 51 -15q68 -1 85 94l105 627q89 27 184 27q192 0 188 -170q0 -25 -4 -45l-94 -551q-10 -78 -10 -138q0 -61 12 -106q-92 -26 -176 -26t-130 20
t-75 90q-50 -58 -90 -78q-77 -39 -203 -40t-194 72zM850 1165q-61 -61 -144 -61t-120 43l-221 258q102 102 193 101t142 -87z" />
    <glyph glyph-name="uacute" unicode="&#xfa;" horiz-adv-x="1093" 
d="M160 44q-68 73 -68 174t21 202l96 569q89 27 184 27q193 0 189 -170q0 -25 -4 -45l-74 -434q-4 -20 -4 -45t11 -39q11 -15 51 -15q68 -1 85 94l105 627q89 27 184 27q192 0 188 -170q0 -25 -4 -45l-94 -551q-10 -78 -10 -138q0 -61 12 -106q-92 -26 -176 -26t-130 20
t-75 90q-50 -58 -90 -78q-77 -39 -203 -40t-194 72zM670 1104q-92 0 -162 76l190 231q39 47 75 70t89 23t95 -28q42 -26 87 -79l-274 -250q-49 -43 -100 -43z" />
    <glyph glyph-name="ucircumflex" unicode="&#xfb;" horiz-adv-x="1093" 
d="M160 44q-68 73 -68 174t21 202l96 569q89 27 184 27q193 0 189 -170q0 -25 -4 -45l-74 -434q-4 -20 -4 -45t11 -39q11 -15 51 -15q68 -1 85 94l105 627q89 27 184 27q192 0 188 -170q0 -25 -4 -45l-94 -551q-10 -78 -10 -138q0 -61 12 -106q-92 -26 -176 -26t-130 20
t-75 90q-50 -58 -90 -78q-77 -39 -203 -40t-194 72zM917 1110q-51 0 -79 14t-56 56l-73 116l-119 -125q-57 -61 -143 -61t-123 39l204 250q43 53 87 81t112 28q133 -1 182 -105l119 -254q-60 -39 -111 -39z" />
    <glyph glyph-name="udieresis" unicode="&#xfc;" horiz-adv-x="1093" 
d="M160 44q-68 73 -68 174t21 202l96 569q89 27 184 27q193 0 189 -170q0 -25 -4 -45l-74 -434q-4 -20 -4 -45t11 -39q11 -15 51 -15q68 -1 85 94l105 627q89 27 184 27q192 0 188 -170q0 -25 -4 -45l-94 -551q-10 -78 -10 -138q0 -61 12 -106q-92 -26 -176 -26t-130 20
t-75 90q-50 -58 -90 -78q-77 -39 -203 -40t-194 72zM1092 1313q0 -94 -56 -139q-56 -46 -134 -46q-77 0 -116 44t-38 96q0 94 57 139t133 45t115 -44t39 -95zM635 1313q0 -94 -57 -139q-56 -46 -134 -46t-116 44t-37 96q0 94 56 139t132 45t116 -44t40 -95z" />
    <glyph glyph-name="yacute" unicode="&#xfd;" horiz-adv-x="1058" 
d="M325 995q189 0 197 -221l21 -428h8l156 447q29 84 91 143t168 59t205 -41l-516 -1075q-85 -170 -147 -229q-120 -115 -273 -115t-209 36q-89 58 -89 142q0 129 135 195q37 -51 66 -67q30 -15 69 -15t73 19t64 83l27 60h-82l-166 966q101 41 202 41zM616 1104
q-93 0 -161 76l190 231q39 47 75 70t89 23t95 -28q42 -26 87 -79l-274 -250q-49 -43 -101 -43z" />
    <glyph glyph-name="thorn" unicode="&#xfe;" horiz-adv-x="1120" 
d="M566 281q42 0 76 35.5t61.5 106.5t27.5 173q0 129 -80 129q-47 0 -69.5 -30.5t-28.5 -65.5l-57 -334q28 -14 70 -14zM449 1452q210 0 210 -172q0 -19 -4 -39l-53 -319q94 94 230 94t220.5 -106.5t84.5 -278.5q0 -264 -118.5 -461t-354.5 -197q-129 0 -207 86l-86 -505
h-398l318 1882q70 16 158 16z" />
    <glyph glyph-name="ydieresis" unicode="&#xff;" horiz-adv-x="1058" 
d="M325 995q189 0 197 -221l21 -428h8l156 447q29 84 91 143t168 59t205 -41l-516 -1075q-85 -170 -147 -229q-120 -115 -273 -115t-209 36q-89 58 -89 142q0 129 135 195q37 -51 66 -67q30 -15 69 -15t73 19t64 83l27 60h-82l-166 966q101 41 202 41zM1069 1313
q0 -94 -56 -139q-56 -46 -133 -46t-116 44t-39 96q0 94 57 139q58 45 134 45t114 -44t39 -95zM612 1313q0 -94 -57 -139q-57 -46 -134 -46t-115 44t-38 96q0 94 56 139t133 45q75 0 115 -44t40 -95z" />
    <glyph glyph-name="Amacron" unicode="&#x100;" horiz-adv-x="1351" 
d="M817 988q0 36 4 61h-6q-12 -47 -29 -91q-16 -42 -25 -68t-18 -44l-110 -271h213l-21 269q-2 28 -5 68t-3 76zM879 1384q229 0 260 -200l178 -1184h-391l-45 313h-351l-135 -313h-407l645 1341q118 43 246 43zM520 1632q0 53 25 117h516q147 0 145 -123q0 -49 -24 -119
h-516q-84 0 -115 36t-31 89z" />
    <glyph glyph-name="amacron" unicode="&#x101;" horiz-adv-x="1103" 
d="M569 268q76 0 95 94l55 324q-23 14 -61 14t-73 -32q-67 -62 -88 -179q-11 -55 -12 -100q0 -121 84 -121zM862 -20q-84 0 -130 20t-75 90q-59 -68 -119 -94t-136 -25q-76 0 -130 25q-178 83 -178 359q0 275 168 466t459 193q107 0 207 -22t217 -93l-109 -649
q-10 -78 -10 -138q0 -61 12 -106q-92 -26 -176 -26zM920 1395q145 0 145 -130q0 -56 -25 -120h-516q-84 0 -114 38t-31 90q0 52 24 122h517z" />
    <glyph glyph-name="Abreve" unicode="&#x102;" horiz-adv-x="1351" 
d="M817 988q0 36 4 61h-6q-12 -47 -29 -91q-16 -42 -25 -68t-18 -44l-110 -271h213l-21 269q-2 28 -5 68t-3 76zM879 1384q229 0 260 -200l178 -1184h-391l-45 313h-351l-135 -313h-407l645 1341q118 43 246 43zM880 1460q-300 0 -298 336q56 29 111 29t74 -17t31 -64
q13 -48 33 -71q21 -23 61 -23t71 18q31 16 57 74t57 70q64 25 135 5q29 -8 56 -31q-54 -166 -148 -246t-240 -80z" />
    <glyph glyph-name="abreve" unicode="&#x103;" horiz-adv-x="1103" 
d="M569 268q76 0 95 94l55 324q-23 14 -61 14t-73 -32q-67 -62 -88 -179q-11 -55 -12 -100q0 -121 84 -121zM862 -20q-84 0 -130 20t-75 90q-59 -68 -119 -94t-136 -25q-76 0 -130 25q-178 83 -178 359q0 275 168 466t459 193q107 0 207 -22t217 -93l-109 -649
q-10 -78 -10 -138q0 -61 12 -106q-92 -26 -176 -26zM926 1466q31 12 88 12t102 -38q-53 -166 -147 -246q-95 -80 -241 -80q-298 0 -298 336q51 26 109 28t77 -16q20 -18 31 -65q13 -47 33 -70t60 -23t71 18q31 16 57 74t58 70z" />
    <glyph glyph-name="Aogonek" unicode="&#x104;" horiz-adv-x="1351" 
d="M817 988q0 36 4 61h-6q-9 -35 -27 -84.5t-27 -75t-18 -43.5l-110 -271h213l-21 269q-2 29 -5 68.5t-3 75.5zM1153 -272q44 0 90 41q51 -49 51 -105t-56 -97.5t-164 -41.5t-163 54t-55 133t50 154t143 134h-123l-45 313h-351l-135 -313h-407l645 1341q118 43 238 43
q235 0 268 -200l178 -1184q-100 -59 -154.5 -112.5t-54.5 -108.5q0 -29 14.5 -40t30.5 -11z" />
    <glyph glyph-name="aogonek" unicode="&#x105;" horiz-adv-x="1103" 
d="M569 268q76 0 95 94l55 324q-23 14 -61 14t-72.5 -31.5t-67.5 -102t-33 -184.5t84 -114zM584 -291q0 155 194 277q-45 10 -73.5 32.5t-47.5 71.5q-59 -68 -119 -93.5t-136 -25.5q-141 0 -224.5 98.5t-83.5 282.5q0 278 169 470t458 192q106 0 206.5 -21.5t217.5 -93.5
l-109 -649q-10 -78 -10 -138q0 -61 12 -106q-209 -123 -209 -227q0 -29 14.5 -40t43.5 -11t78 41q51 -49 51 -105t-56.5 -97.5t-163.5 -41.5t-159.5 52t-52.5 132z" />
    <glyph glyph-name="Cacute" unicode="&#x106;" horiz-adv-x="1269" 
d="M1243 283q0 -105 -97 -185q-163 -136 -447 -135q-283 0 -430 178q-126 150 -126 396q0 318 167 568q120 180 336 257q110 39 241 39q260 0 379 -133q55 -60 55 -142t-55 -129t-144 -77q-66 162 -231 162t-251 -156q-86 -155 -86 -328q-1 -174 58 -242t160 -67
q173 0 299 190q90 -43 131 -89t41 -107zM801 1464q-83 0 -148 97l207 172q71 63 149 63q77 0 119 -40t70 -93l-295 -170q-53 -29 -102 -29z" />
    <glyph glyph-name="cacute" unicode="&#x107;" horiz-adv-x="956" 
d="M602 262q62 0 105 40t67 91q178 -35 178 -174q0 -74 -65 -135t-135 -82q-232 -67 -402 0q-256 100 -256 412q0 106 39 220q79 230 295 332q109 50 248 50q72 0 150 -25t117 -63q73 -70 73 -152q1 -82 -59 -126t-148 -54q-36 131 -139 131q-80 0 -131 -90
q-52 -90 -54 -229q0 -62 27 -104q28 -42 90 -42zM672 1104q-92 0 -162 76l190 231q39 47 75 70t89 23t95 -28q42 -26 88 -79l-275 -250q-49 -43 -100 -43z" />
    <glyph glyph-name="Ccircumflex" unicode="&#x108;" horiz-adv-x="1269" 
d="M1243 283q0 -105 -97 -185q-163 -136 -447 -135q-283 0 -430 178q-126 150 -126 396q0 318 167 568q120 180 336 257q110 39 241 39q260 0 379 -133q55 -60 55 -142t-55 -129t-144 -77q-66 162 -231 162t-251 -156q-86 -155 -86 -328q-1 -174 58 -242t160 -67
q173 0 299 190q90 -43 131 -89t41 -107zM1217 1503q-48 -41 -118 -41t-106 41l-88 94l-112 -96q-49 -39 -124 -39t-116 41l184 219q73 84 191 84t159 -77z" />
    <glyph glyph-name="ccircumflex" unicode="&#x109;" horiz-adv-x="956" 
d="M602 262q62 0 105 40t67 91q178 -35 178 -174q0 -74 -65 -135t-135 -82q-232 -67 -402 0q-256 100 -256 412q0 106 39 220q79 230 295 332q109 50 248 50q72 0 150 -25t117 -63q73 -70 73 -152q1 -82 -59 -126t-148 -54q-36 131 -139 131q-80 0 -131 -90
q-52 -90 -54 -229q0 -62 27 -104q28 -42 90 -42zM923 1110q-51 0 -79 14t-56 56l-73 116l-119 -125q-57 -61 -143 -61t-123 39l205 250q43 53 87 81t112 28q133 -1 181 -105l119 -254q-60 -39 -111 -39z" />
    <glyph glyph-name="Cdotaccent" unicode="&#x10a;" horiz-adv-x="1269" 
d="M1243 283q0 -105 -97 -185q-163 -136 -447 -135q-283 0 -430 178q-126 150 -126 396q0 318 167 568q120 180 336 257q110 39 241 39q260 0 379 -133q55 -60 55 -142t-55 -129t-144 -77q-66 162 -231 162t-251 -156q-86 -155 -86 -328q-1 -174 58 -242t160 -67
q173 0 299 190q90 -43 131 -89t41 -107zM1081 1679q0 -98 -59 -145t-140 -47t-122 47t-41 100q0 98 59 146q60 48 140 47q80 1 122 -47t41 -101z" />
    <glyph glyph-name="cdotaccent" unicode="&#x10b;" horiz-adv-x="956" 
d="M602 262q62 0 105 40t67 91q178 -35 178 -174q0 -74 -65 -135t-135 -82q-232 -67 -402 0q-256 100 -256 412q0 106 39 220q79 230 295 332q109 50 248 50q72 0 150 -25t117 -63q73 -70 73 -152q1 -82 -59 -126t-148 -54q-36 131 -139 131q-80 0 -131 -90
q-52 -90 -54 -229q0 -62 27 -104q28 -42 90 -42zM860 1315q0 -97 -59 -145t-141 -48t-122 47t-40 101q0 98 59 145t139 47t122 -47t42 -100z" />
    <glyph glyph-name="Ccaron" unicode="&#x10c;" horiz-adv-x="1269" 
d="M1243 283q0 -105 -97 -185q-163 -136 -447 -135q-283 0 -430 178q-126 150 -126 396q0 318 167 568q120 180 336 257q110 39 241 39q260 0 379 -133q55 -60 55 -142t-55 -129t-144 -77q-66 162 -231 162t-251 -156q-86 -155 -86 -328q-1 -174 58 -242t160 -67
q173 0 299 190q90 -43 131 -89t41 -107zM590 1765q48 41 117 41q68 0 104 -41l90 -98l115 100q49 39 123 39t114 -41l-184 -219q-71 -82 -190 -83t-160 77z" />
    <glyph glyph-name="ccaron" unicode="&#x10d;" horiz-adv-x="956" 
d="M602 262q62 0 105 40t67 91q178 -35 178 -174q0 -74 -65 -135t-135 -82q-232 -67 -402 0q-256 100 -256 412q0 106 39 220q79 230 295 332q109 50 248 50q72 0 150 -25t117 -63q73 -70 73 -152q1 -82 -59 -126t-148 -54q-36 131 -139 131q-80 0 -131 -90
q-52 -90 -54 -229q0 -62 27 -104q28 -42 90 -42zM492 1507q50 0 78 -14t55 -55l75 -121l121 129q57 61 142 61t122 -39l-204 -249q-43 -53 -87 -81t-112 -28q-132 0 -182 104l-119 254q60 39 111 39z" />
    <glyph glyph-name="Dcaron" unicode="&#x10e;" horiz-adv-x="1304" 
d="M600 309q161 0 250 171q72 138 74 356q0 110 -50 176t-151 65h-28q-15 0 -38 -4l-131 -764h74zM727 1384q321 0 476 -171q132 -143 130 -377q0 -395 -199 -616t-579 -220h-479l227 1356q224 28 424 28zM457 1765q48 41 117 41q68 0 104 -41l90 -98l115 100q49 39 123 39
t114 -41l-184 -219q-71 -82 -190 -83t-160 77z" />
    <glyph glyph-name="dcaron" unicode="&#x10f;" horiz-adv-x="1392" 
d="M873 -20q-87 0 -132 20t-73 90q-60 -68 -120 -94t-136 -25q-136 0 -227 100t-91 251t37 276q74 251 272 363q96 53 202 53t173 -31l76 453q70 16 146 16q186 0 210 -109q14 -53 4 -102l-165 -991q-11 -85 -11 -142t13 -102q-91 -26 -178 -26zM573 264q47 0 70 31t29 65
l57 334q-27 14 -67 14t-75 -30q-33 -31 -63 -99t-30 -191q0 -124 79 -124zM1526 1452q39 0 92 -10l-109 -377q-23 -77 -77 -103t-105 -26q-50 0 -72 4l54 332q31 180 217 180z" />
    <glyph glyph-name="Dcroat" unicode="&#x110;" horiz-adv-x="1304" 
d="M600 309q161 0 250 171q72 138 74 356q0 110 -50 176t-151 65h-28q-15 0 -38 -4l-49 -280h178l-26 -164h-178l-56 -320h74zM727 1384q321 0 476 -171q132 -143 130 -377q0 -395 -199 -616t-579 -220h-479l104 629h-137l27 164h139l94 563q224 28 424 28z" />
    <glyph glyph-name="dcroat" unicode="&#x111;" horiz-adv-x="1099" 
d="M637 651q-79 0 -118.5 -83.5t-39.5 -174.5q0 -129 80 -129q47 0 69.5 31t28.5 65l48 277q-27 14 -68 14zM1204 1285q0 -28 -6 -52h156l-27 -162h-156l-137 -821q-10 -78 -10 -138q0 -61 12 -106q-92 -26 -178 -26t-131 20t-74 90q-59 -68 -119 -93.5t-136 -25.5
q-138 0 -228 100.5t-90 250.5q0 295 139 463.5t377 168.5q90 0 158 -30l24 147h-329l26 162h330l35 203q70 16 145 16t116.5 -14.5t64 -39t30.5 -55t8 -58.5z" />
    <glyph glyph-name="Emacron" unicode="&#x112;" horiz-adv-x="1071" 
d="M1036 143q0 -59 -24 -143h-936l231 1374h905q5 -146 -28 -204t-81 -85t-128 -26h-322l-37 -207h385l-51 -313h-385l-39 -228h318q192 0 192 -168zM575 1507q-145 0 -145 125q0 53 25 117h516q145 0 145 -123q0 -49 -24 -119h-517z" />
    <glyph glyph-name="emacron" unicode="&#x113;" horiz-adv-x="991" 
d="M500 582h20q67 0 107 20q73 36 73 94t-61 59t-103 -42t-59 -129q13 -2 23 -2zM791 375q161 -50 161 -155q0 -96 -65 -148q-65 -53 -159 -78t-196 -25q-204 0 -319 118t-115 304q0 273 146 439q162 186 446 186q179 0 271 -94q71 -75 71 -180q0 -192 -163 -279
q-123 -68 -326 -70h-86q4 -69 39 -105q36 -36 98 -36q120 0 197 123zM862 1395q84 0 115 -37t31 -90t-25 -123h-516q-84 0 -115 38q-56 68 -6 212h516z" />
    <glyph glyph-name="Ebreve" unicode="&#x114;" horiz-adv-x="1071" 
d="M1036 143q0 -59 -24 -143h-936l231 1374h905q5 -146 -28 -204t-81 -85t-128 -26h-322l-37 -207h385l-51 -313h-385l-39 -228h318q192 0 192 -168zM477 1796q56 29 111 29q56 0 75 -18t31 -64q12 -47 32 -70t61 -23q40 0 71 18q31 16 58 74t57 70q64 25 135 5
q29 -8 55 -31q-53 -166 -147 -246t-240 -80q-298 0 -299 336z" />
    <glyph glyph-name="ebreve" unicode="&#x115;" horiz-adv-x="991" 
d="M500 582h20q67 0 107 20q73 36 73 94t-61 59t-103 -42t-59 -129q13 -2 23 -2zM791 375q161 -50 161 -155q0 -96 -65 -148q-65 -53 -159 -78t-196 -25q-204 0 -319 118t-115 304q0 273 146 439q162 186 446 186q179 0 271 -94q71 -75 71 -180q0 -192 -163 -279
q-123 -68 -326 -70h-86q4 -69 39 -105q36 -36 98 -36q120 0 197 123zM868 1466q31 12 89 12t102 -38q-53 -166 -147 -246t-241 -80q-298 0 -298 336q51 26 108 28t78 -17q20 -19 32 -65q11 -46 31 -69t61 -23q40 0 71 18q32 16 58 74t56 70z" />
    <glyph glyph-name="Edotaccent" unicode="&#x116;" horiz-adv-x="1071" 
d="M1036 143q0 -59 -24 -143h-936l231 1374h905q5 -146 -28 -204t-81 -85t-128 -26h-322l-37 -207h385l-51 -313h-385l-39 -228h318q192 0 192 -168zM961 1679q1 -98 -59 -145t-141 -47t-122 47t-41 100q0 98 59 146t139 47q80 1 123 -47q42 -48 42 -101z" />
    <glyph glyph-name="edotaccent" unicode="&#x117;" horiz-adv-x="991" 
d="M500 582h20q67 0 107 20q73 36 73 94t-61 59t-103 -42t-59 -129q13 -2 23 -2zM791 375q161 -50 161 -155q0 -96 -65 -148q-65 -53 -159 -78t-196 -25q-204 0 -319 118t-115 304q0 273 146 439q162 186 446 186q179 0 271 -94q71 -75 71 -180q0 -192 -163 -279
q-123 -68 -326 -70h-86q4 -69 39 -105q36 -36 98 -36q120 0 197 123zM870 1315q0 -97 -59 -145t-140 -48t-122 47t-41 101q0 98 59 145t139 47t122 -47t42 -100z" />
    <glyph glyph-name="Eogonek" unicode="&#x118;" horiz-adv-x="1071" 
d="M860 -272q29 0 78 41q51 -49 51 -105t-55.5 -97.5t-163.5 -41.5t-163.5 54t-55.5 133t50 154t142 134h-667l231 1374h905q5 -147 -43 -231t-194 -84h-322l-37 -207h385l-51 -313h-385l-39 -228h318q192 0 192 -113.5t-24 -197.5q-100 -59 -154.5 -112.5t-54.5 -108.5
q0 -29 14 -40t43 -11z" />
    <glyph glyph-name="eogonek" unicode="&#x119;" horiz-adv-x="991" 
d="M700 694q0 62 -61 62q-128 0 -162 -172q14 -2 17 -2h26q31 0 105.5 16t74.5 96zM457 393q8 -141 134 -141q125 0 200 123q74 -23 117.5 -60t43.5 -95q0 -96 -73 -154q-45 -39 -117 -62q-205 -119 -205 -225q0 -29 14.5 -40t30.5 -11q44 0 90 41q51 -49 51 -105
t-55.5 -97.5t-163.5 -41.5t-160.5 52t-52.5 132q0 147 174 262q-186 15 -286.5 130t-100.5 290q0 271 153 448t439 177q182 0 262 -85t80 -190q0 -189 -144.5 -268.5t-344.5 -79.5h-86z" />
    <glyph glyph-name="Ecaron" unicode="&#x11a;" horiz-adv-x="1071" 
d="M1036 143q0 -59 -24 -143h-936l231 1374h905q5 -146 -28 -204t-81 -85t-128 -26h-322l-37 -207h385l-51 -313h-385l-39 -228h318q192 0 192 -168zM479 1765q48 41 117 41q68 0 104 -41l91 -98l114 100q49 39 123 39t115 -41l-185 -219q-71 -82 -189 -83t-161 77z" />
    <glyph glyph-name="ecaron" unicode="&#x11b;" horiz-adv-x="991" 
d="M500 582h20q67 0 107 20q73 36 73 94t-61 59t-103 -42t-59 -129q13 -2 23 -2zM791 375q161 -50 161 -155q0 -96 -65 -148q-65 -53 -159 -78t-196 -25q-204 0 -319 118t-115 304q0 273 146 439q162 186 446 186q179 0 271 -94q71 -75 71 -180q0 -192 -163 -279
q-123 -68 -326 -70h-86q4 -69 39 -105q36 -36 98 -36q120 0 197 123zM473 1507q51 0 79 -14t54 -55l76 -121l121 129q57 61 142 61t122 -39l-205 -249q-43 -53 -87 -81q-43 -28 -111 -28q-130 0 -183 104l-119 254q60 39 111 39z" />
    <glyph glyph-name="Gcircumflex" unicode="&#x11c;" horiz-adv-x="1316" 
d="M143 524q0 333 174 581q127 181 342 257q111 39 242 39q262 0 381 -133q55 -60 55 -142t-55 -129t-143 -77q-66 162 -233 162t-259 -158q-92 -157 -92 -363q-2 -135 54 -205t155 -69q56 0 123 26l71 426h150q168 0 197 -108q8 -31 8 -56t-4 -47l-60 -350
q-78 -98 -216 -156t-310 -58q-311 -1 -454 170q-67 79 -96 183q-30 104 -30 207zM1229 1503q-48 -41 -118 -41q-69 0 -105 41l-88 94l-113 -96q-49 -39 -124 -39t-116 41l185 219q73 84 190 84t160 -77z" />
    <glyph glyph-name="gcircumflex" unicode="&#x11d;" horiz-adv-x="1103" 
d="M-2 -233q0 59 39 115t104 85q55 -75 115 -109t146 -34t134 43t68 143l10 58q-84 -70 -219 -70q-211 0 -274 207q-23 73 -23 185t40 228q82 238 315 345q117 53 248 53t233 -22t219 -93l-133 -784q-20 -113 -53 -218q-114 -364 -533 -364q-198 0 -297 51q-139 65 -139 181
zM485 414q0 -127 88 -125q47 0 68 30q20 31 27 66l53 309q-27 14 -65 14t-73 -28q-94 -80 -98 -266zM972 1110q-50 0 -79 14t-55 56l-74 116l-119 -125q-57 -61 -143 -61t-123 39l205 250q43 53 87 81q43 28 111 28q132 -1 183 -105l118 -254q-61 -39 -111 -39z" />
    <glyph glyph-name="Gbreve" unicode="&#x11e;" horiz-adv-x="1316" 
d="M143 524q0 333 174 581q127 181 342 257q111 39 242 39q262 0 381 -133q55 -60 55 -142t-55 -129t-143 -77q-66 162 -233 162t-259 -158q-92 -157 -92 -363q-2 -135 54 -205t155 -69q56 0 123 26l71 426h150q168 0 197 -108q8 -31 8 -56t-4 -47l-60 -350
q-78 -98 -216 -156t-310 -58q-311 -1 -454 170q-67 79 -96 183q-30 104 -30 207zM606 1796q56 29 111 29q56 0 75 -18t31 -64q13 -47 33 -70t60 -23t72 18q30 16 57 74t57 70q64 25 135 5q29 -8 55 -31q-53 -166 -147 -246q-95 -80 -241 -80q-298 0 -298 336z" />
    <glyph glyph-name="gbreve" unicode="&#x11f;" horiz-adv-x="1103" 
d="M-2 -233q0 59 39 115t104 85q55 -75 115 -109t146 -34t134 43t68 143l10 58q-84 -70 -219 -70q-211 0 -274 207q-23 73 -23 185t40 228q82 238 315 345q117 53 248 53t233 -22t219 -93l-133 -784q-20 -113 -53 -218q-114 -364 -533 -364q-198 0 -297 51q-139 65 -139 181
zM485 414q0 -127 88 -125q47 0 68 30q20 31 27 66l53 309q-27 14 -65 14t-73 -28q-94 -80 -98 -266zM932 1466q31 12 88 12t102 -38q-53 -166 -147 -246q-95 -80 -241 -80q-298 0 -298 336q51 26 109 28t77 -16q20 -18 31 -65q13 -47 33 -70t60 -23t72 18q30 16 57 74t57 70
z" />
    <glyph glyph-name="Gdotaccent" unicode="&#x120;" horiz-adv-x="1316" 
d="M143 524q0 333 174 581q127 181 342 257q111 39 242 39q262 0 381 -133q55 -60 55 -142t-55 -129t-143 -77q-66 162 -233 162t-259 -158q-92 -157 -92 -363q-2 -135 54 -205t155 -69q56 0 123 26l71 426h150q168 0 197 -108q8 -31 8 -56t-4 -47l-60 -350
q-78 -98 -216 -156t-310 -58q-311 -1 -454 170q-67 79 -96 183q-30 104 -30 207zM1112 1679q0 -98 -59 -145t-141 -47t-122 47t-40 100q0 98 59 146t139 47q80 1 122 -47t42 -101z" />
    <glyph glyph-name="gdotaccent" unicode="&#x121;" horiz-adv-x="1103" 
d="M-2 -233q0 59 39 115t104 85q55 -75 115 -109t146 -34t134 43t68 143l10 58q-84 -70 -219 -70q-211 0 -274 207q-23 73 -23 185t40 228q82 238 315 345q117 53 248 53t233 -22t219 -93l-133 -784q-20 -113 -53 -218q-114 -364 -533 -364q-198 0 -297 51q-139 65 -139 181
zM485 414q0 -127 88 -125q47 0 68 30q20 31 27 66l53 309q-27 14 -65 14t-73 -28q-94 -80 -98 -266zM946 1315q0 -97 -59 -145t-141 -48t-122 47t-40 101q0 98 59 145t139 47t122 -47t42 -100z" />
    <glyph glyph-name="Gcommaaccent" unicode="&#x122;" horiz-adv-x="1316" 
d="M143 524q0 333 174 581q127 181 342 257q111 39 242 39q262 0 381 -133q55 -60 55 -142t-55 -129t-143 -77q-66 162 -233 162t-259 -158q-92 -157 -92 -363q-2 -135 54 -205t155 -69q56 0 123 26l71 426h150q168 0 197 -108q8 -31 8 -56t-4 -47l-60 -350
q-78 -98 -216 -156t-310 -58q-311 -1 -454 170q-67 79 -96 183q-30 104 -30 207zM557 -217q63 119 155 119q93 0 167 -56l-207 -282q-41 -57 -114 -59q-74 -1 -130 34z" />
    <glyph glyph-name="gcommaaccent" unicode="&#x123;" horiz-adv-x="1103" 
d="M-2 -233q0 59 39 115t104 85q55 -75 115 -109t146 -34t134 43t68 143l10 58q-84 -70 -219 -70q-211 0 -274 207q-23 73 -23 185t40 228q82 238 315 345q117 53 248 53t233 -22t219 -93l-133 -784q-20 -113 -53 -218q-114 -364 -533 -364q-198 0 -297 51q-139 65 -139 181
zM485 414q0 -127 88 -125q47 0 68 30q20 31 27 66l53 309q-27 14 -65 14t-73 -28q-94 -80 -98 -266zM891 1501q73 0 129 -35l-129 -243q-63 -119 -156 -119t-166 55l207 283q42 59 115 59z" />
    <glyph glyph-name="Hcircumflex" unicode="&#x124;" horiz-adv-x="1329" 
d="M1188 1386q213 0 213 -172q0 -18 -4 -38l-199 -1176h-399l90 535h-324l-90 -535h-399l231 1370q70 16 158 16q213 0 213 -172q0 -18 -4 -38l-56 -322h326l86 516q70 16 158 16zM1188 1503q-48 -41 -118 -41q-69 0 -105 41l-88 94l-113 -96q-49 -39 -124 -39t-116 41
l185 219q73 84 190 84t160 -77z" />
    <glyph glyph-name="hcircumflex" unicode="&#x125;" horiz-adv-x="1101" 
d="M862 1016q124 0 186 -77t62 -196q0 -62 -20 -170l-56 -329l-8 -58t-4 -77t12 -89q-90 -41 -203 -42t-161 41t-47 128q0 29 4 54l67 401q4 20 4 45t-11 39t-51 14q-66 0 -85 -94l-102 -606h-400l244 1436q70 16 145 16q76 0 118 -14q102 -34 106 -158q0 -16 -5 -39
l-57 -346q105 121 262 121zM950 1571q-48 -41 -118 -41q-69 0 -105 41l-88 94l-113 -96q-49 -39 -124 -39t-115 41l184 219q71 82 190 83t160 -77z" />
    <glyph glyph-name="Hbar" unicode="&#x126;" horiz-adv-x="1329" 
d="M944 854l31 184h-326l-31 -184h326zM465 1386q213 0 213 -172l-2 -24h323l31 180q70 16 158 16q213 0 213 -172l-2 -24h117l-25 -152h-119l-174 -1038h-399l90 535h-324l-90 -535h-399l174 1038h-133l24 152h135l31 180q70 16 158 16z" />
    <glyph glyph-name="hbar" unicode="&#x127;" horiz-adv-x="1095" 
d="M586 813q110 121 245 121q144 0 204.5 -78t60.5 -194q0 -57 -21 -170l-41 -248q-4 -29 -8 -57.5t-4 -77.5t12 -89q-94 -43 -207 -43t-159.5 42t-44.5 128v17q0 18 2 29l55 327q4 20 4 45t-11 39t-51 14q-69 0 -85 -94l-88 -524h-400l182 1071h-157l26 162h158l35 203
q70 16 145 16q76 0 118 -14.5t64.5 -39t32 -55t9.5 -56.5t-7 -54h316l-27 -162h-315z" />
    <glyph glyph-name="Itilde" unicode="&#x128;" horiz-adv-x="606" 
d="M465 1386q213 0 213 -172q0 -18 -4 -38l-199 -1176h-399l231 1370q70 16 158 16zM123 1636q0 64 69 113t151 49t160 -39q29 -14 55 -26t56 -12t71 13q40 13 83 72q53 -31 71 -66q17 -36 17 -74q0 -75 -66 -119t-145 -44q-78 1 -136 27q-59 26 -87 38t-58 13
q-30 0 -70 -13t-83 -73q-88 51 -88 141z" />
    <glyph glyph-name="itilde" unicode="&#x129;" horiz-adv-x="561" 
d="M377 995q211 0 211 -172q0 -17 -4 -39l-92 -540l-8 -58t-5 -78q0 -49 13 -88q-90 -41 -205 -42t-162 41t-45 128v23q0 12 2 23l133 786q70 16 162 16zM680 1442q88 -51 88 -133t-69 -126q-64 -44 -145 -44t-161 38q-81 38 -114 39q-33 2 -73 -12t-83 -74q-88 51 -88 142
q0 63 69 112q69 48 148 49t136 -25q56 -26 82 -40q26 -12 56 -12t71 13q40 13 83 73z" />
    <glyph glyph-name="Imacron" unicode="&#x12a;" horiz-adv-x="606" 
d="M465 1386q213 0 213 -172q0 -18 -4 -38l-199 -1176h-399l231 1370q70 16 158 16zM141 1632q0 53 25 117h516q147 0 145 -123q0 -49 -24 -119h-516q-84 0 -115 36t-31 89z" />
    <glyph glyph-name="imacron" unicode="&#x12b;" horiz-adv-x="561" 
d="M377 995q211 0 211 -172q0 -17 -4 -39l-92 -540l-8 -58t-5 -78q0 -49 13 -88q-90 -41 -205 -42t-162 41t-45 128v23q0 12 2 23l133 786q70 16 162 16zM51 1275q0 54 25 120h516q84 0 115 -37q58 -69 6 -213h-516q-84 0 -115 38t-31 92z" />
    <glyph glyph-name="Ibreve" unicode="&#x12c;" horiz-adv-x="606" 
d="M465 1386q213 0 213 -172q0 -18 -4 -38l-199 -1176h-399l231 1370q70 16 158 16zM205 1796q56 29 112 29t75 -19t31 -64q11 -46 31 -69t61 -23q40 0 71 18q32 16 58 74t56 70q64 25 136 5q29 -8 55 -31q-53 -166 -147 -246t-241 -80q-298 0 -298 336z" />
    <glyph glyph-name="ibreve" unicode="&#x12d;" horiz-adv-x="561" 
d="M377 995q211 0 211 -172q0 -17 -4 -39l-92 -540l-8 -58t-5 -78q0 -49 13 -88q-90 -41 -205 -42t-162 41t-45 128v23q0 12 2 23l133 786q70 16 162 16zM411 1114q-300 0 -298 336q51 26 108 28t76 -16q19 -17 32 -64q13 -48 33 -71t60 -23t72 18q32 16 58 74t56 70
q31 12 88 12t103 -38q-53 -166 -147 -246t-241 -80z" />
    <glyph glyph-name="Iogonek" unicode="&#x12e;" horiz-adv-x="606" 
d="M465 1386q213 0 213 -172q0 -18 -4 -38l-199 -1176q-100 -59 -154.5 -112.5t-54.5 -108.5q0 -29 14.5 -40t30.5 -11q44 0 90 41q51 -49 51 -105t-56 -97.5t-164 -41.5t-163 54t-55 133t50.5 154t142.5 134h-131l231 1370q70 16 158 16z" />
    <glyph glyph-name="iogonek" unicode="&#x12f;" horiz-adv-x="561" 
d="M296 1151q-48 49 -48 111q0 110 64 167.5t155 57.5t139.5 -50.5t48.5 -110.5t-18.5 -101t-63 -82t-137 -41t-140.5 49zM80 179q0 3 2 14l133 786q70 16 147 16q136 0 181 -49t45 -123q0 -17 -4 -39l-92 -540q-4 -29 -8.5 -57.5t-4.5 -78t13 -88.5q-2 -2 -5 -2
q-204 -119 -204 -225q0 -29 14 -40t43 -11t78 41q51 -49 51 -105t-56.5 -97.5t-163.5 -41.5t-159.5 52.5t-52.5 163t170 231.5q-131 22 -127 161v32z" />
    <glyph glyph-name="Idotaccent" unicode="&#x130;" horiz-adv-x="606" 
d="M465 1386q213 0 213 -172q0 -18 -4 -38l-199 -1176h-399l231 1370q70 16 158 16zM717 1679q1 -98 -59 -145t-141 -47t-122 47t-41 100q0 98 60 146t139 47q80 1 122 -47t42 -101z" />
    <glyph glyph-name="dotlessi" unicode="&#x131;" horiz-adv-x="561" 
d="M285 -23q-113 0 -160 42t-45 128v17q0 18 2 29l133 786q70 16 147 16q136 0 181 -49t45 -123q0 -17 -4 -39l-92 -540q-4 -29 -8.5 -57.5t-4.5 -78t13 -88.5q-94 -43 -207 -43z" />
    <glyph glyph-name="IJ" unicode="&#x132;" horiz-adv-x="1351" 
d="M465 1386q213 0 213 -172q0 -18 -4 -38l-199 -1176h-399l231 1370q70 16 158 16zM1210 1386q213 0 213 -172q0 -18 -4 -38l-119 -699q-42 -245 -128 -364q-107 -150 -316 -150q-131 1 -187 61t-57 144q0 35 13 76q90 0 136 13t82 51t52 132l158 930q70 16 157 16z" />
    <glyph glyph-name="ij" unicode="&#x133;" horiz-adv-x="1116" 
d="M377 995q211 0 211 -172q0 -17 -4 -39l-92 -540l-8 -58t-5 -78q0 -49 13 -88q-90 -41 -205 -42t-162 41t-45 128q0 29 4 58l131 774q70 16 162 16zM248 1262q0 111 63 168t157 57q93 0 140 -51t47 -110q0 -109 -63 -167q-63 -57 -156 -57q-92 0 -140 49t-48 111z
M809 1262q0 112 64 168q64 57 156 57t139 -50t47 -110q1 -110 -62 -168q-64 -57 -156 -57t-140 49t-48 111zM938 995q211 0 211 -172q0 -13 -4 -39l-101 -594q-10 -57 -22 -127t-42 -182t-84 -188t-132 -121t-193 -45t-159 57t-45 137q0 35 6 72q126 4 179 66q28 33 43 87
t30 136l151 897q70 16 162 16z" />
    <glyph glyph-name="Jcircumflex" unicode="&#x134;" horiz-adv-x="739" 
d="M600 1386q213 0 213 -172q0 -18 -4 -38l-119 -699q-42 -245 -128 -364q-107 -150 -316 -150q-132 1 -188 61t-56 144q0 35 12 76q90 0 136 13t81 50q34 37 54 133l157 930q70 16 158 16zM979 1503q-48 -41 -118 -41q-69 0 -105 41l-88 94l-113 -96q-49 -39 -124 -39
t-116 41l185 219q73 84 190 84t160 -77z" />
    <glyph glyph-name="jcircumflex" unicode="&#x135;" horiz-adv-x="555" 
d="M377 995q211 0 211 -172q0 -17 -4 -39l-101 -594q-10 -57 -22 -127t-42 -182t-84 -188t-132 -121t-193 -45t-160 57t-45 137q0 35 7 72q126 4 179 66q28 33 43 87t29 136l152 897q70 16 162 16zM645 1110q-51 0 -80 14t-55 56l-74 116l-119 -125q-57 -61 -143 -61
t-123 39l205 250q43 53 87 81t112 28q131 -1 182 -105l119 -254q-60 -39 -111 -39z" />
    <glyph glyph-name="Kcommaaccent" unicode="&#x136;" horiz-adv-x="1282" 
d="M586 627v28l-111 -655h-399l231 1370q70 16 158 16q213 0 213 -172q0 -18 -4 -38l-74 -433q32 104 162 261l182 223q129 159 277 158q149 -1 245 -101l-489 -582l299 -667q-136 -60 -243 -61t-166 32q-58 33 -97 123l-115 266q-69 162 -69 232zM463 -217q63 119 156 119
t165 -56l-206 -282q-41 -57 -114 -59q-74 -1 -130 34z" />
    <glyph glyph-name="kcommaaccent" unicode="&#x137;" horiz-adv-x="1150" 
d="M449 1452q210 0 210 -172q0 -13 -4 -39l-104 -620q24 55 78 114l141 160q55 64 109 92q54 29 129 29q74 0 124 -25t95 -65l-353 -404l134 -264q36 -66 68 -120t83 -91q-108 -67 -266 -69q-158 -1 -223 124l-92 183q-35 73 -58 153l-74 -438h-397l242 1436q70 16 158 16z
M379 -217q63 119 156 119t165 -56l-206 -282q-41 -57 -114 -59q-74 -1 -130 34z" />
    <glyph glyph-name="kgreenlandic" unicode="&#x138;" horiz-adv-x="1142" 
d="M359 995q134 0 178.5 -49t44.5 -123q0 -17 -4 -39l-33 -202q20 49 80 129l137 172q49 61 102.5 91t131.5 30t128 -25t95 -66l-349 -411l127 -244q35 -66 68 -120t84 -91q-113 -70 -262 -70q-94 0 -145.5 34t-82.5 91l-86 158q-46 88 -53 176l-74 -436h-397l164 979
q71 16 146 16z" />
    <glyph glyph-name="Lacute" unicode="&#x139;" horiz-adv-x="1050" 
d="M465 1386q213 0 213 -172q0 -18 -4 -38l-144 -848h279q188 0 188 -176q0 -63 -24 -152h-897l231 1370q70 16 158 16zM461 1464q-83 0 -148 97l207 172q71 63 149 63q77 0 119 -40t70 -93l-295 -170q-53 -29 -102 -29z" />
    <glyph glyph-name="lacute" unicode="&#x13a;" horiz-adv-x="561" 
d="M440 1452q190 0 215 -109q15 -56 4 -102l-167 -997l-8 -58t-5 -78q0 -49 13 -88q-90 -41 -205 -42t-162 41t-45 128q0 39 6 72l207 1217q69 16 147 16zM442 1518q-86 0 -149 96l207 172q71 63 148 63t119 -40t71 -93l-295 -170q-50 -28 -101 -28z" />
    <glyph glyph-name="Lcommaaccent" unicode="&#x13b;" horiz-adv-x="1050" 
d="M465 1386q213 0 213 -172q0 -18 -4 -38l-144 -848h279q188 0 188 -176q0 -63 -24 -152h-897l231 1370q70 16 158 16zM334 -217q63 119 156 119t165 -56l-206 -282q-41 -57 -115 -59q-74 -1 -129 34z" />
    <glyph glyph-name="lcommaaccent" unicode="&#x13c;" horiz-adv-x="561" 
d="M440 1452q190 0 215 -109q15 -56 4 -102l-167 -997l-8 -58t-5 -78q0 -49 13 -88q-90 -41 -205 -42t-162 41t-45 128q0 39 6 72l207 1217q69 16 147 16zM76 -217q63 119 156 119t165 -56l-207 -282q-41 -57 -114 -59q-74 -1 -129 34z" />
    <glyph glyph-name="Lcaron" unicode="&#x13d;" horiz-adv-x="1050" 
d="M465 1386q213 0 213 -172q0 -18 -4 -38l-144 -848h279q188 0 188 -176q0 -63 -24 -152h-897l231 1370q70 16 158 16zM1073 1452q40 0 92 -10l-108 -377q-23 -77 -78 -103t-105 -26t-71 4l53 332q31 180 217 180z" />
    <glyph glyph-name="lcaron" unicode="&#x13e;" horiz-adv-x="837" 
d="M440 1452q190 0 215 -109q15 -56 4 -102l-167 -997l-8 -58t-5 -78q0 -49 13 -88q-90 -41 -205 -42t-162 41t-45 128q0 39 6 72l207 1217q69 16 147 16zM971 1452q39 0 92 -10l-109 -377q-24 -77 -78 -103t-104 -26t-72 4l54 332q31 180 217 180z" />
    <glyph glyph-name="Ldot" unicode="&#x13f;" horiz-adv-x="1050" 
d="M465 1386q213 0 213 -172q0 -18 -4 -38l-144 -848h279q188 0 188 -176q0 -63 -24 -152h-897l231 1370q70 16 158 16zM1100 801q0 -105 -58 -153t-142 -48q-83 0 -121 46t-38 97q1 105 59 153t140 48t121 -46t39 -97z" />
    <glyph glyph-name="ldot" unicode="&#x140;" horiz-adv-x="997" 
d="M440 1452q190 0 215 -109q15 -56 4 -102l-167 -997l-8 -58t-5 -78q0 -49 13 -88q-90 -41 -205 -42t-162 41t-45 128q0 39 6 72l207 1217q69 16 147 16zM1038 705q0 -105 -58 -153t-141 -48t-121 46t-38 97q0 105 58 153t140 48t122 -46q38 -46 38 -97z" />
    <glyph glyph-name="Lslash" unicode="&#x141;" horiz-adv-x="1050" 
d="M465 1386q213 0 213 -172q0 -18 -4 -38l-43 -252l227 86l49 -158l-307 -115l-70 -409h279q188 0 188 -119.5t-24 -208.5h-897l98 580l-151 -56l-50 156l232 86l102 604q70 16 158 16z" />
    <glyph glyph-name="lslash" unicode="&#x142;" horiz-adv-x="839" 
d="M592 1452q209 0 209 -172q0 -19 -4 -39l-49 -287l129 60l73 -144l-235 -108l-86 -518q-4 -29 -8.5 -57.5t-4.5 -75.5t13 -91q-94 -43 -207 -43t-160 42t-45 128v17q0 18 2 29l62 370l-134 -61l-75 143l241 111l117 680q70 16 162 16z" />
    <glyph glyph-name="Nacute" unicode="&#x143;" horiz-adv-x="1331" 
d="M1194 1384q207 0 207 -172q0 -14 -4 -38l-197 -1174h-321l-304 688l-116 -688h-383l231 1368q83 16 172 16q155 0 207 -135l238 -618l123 737q66 16 147 16zM795 1464q-83 0 -148 97l207 172q71 63 149 63q77 0 119 -40t70 -93l-295 -170q-53 -29 -102 -29z" />
    <glyph glyph-name="nacute" unicode="&#x144;" horiz-adv-x="1101" 
d="M862 1016q124 0 186 -77t62 -196q0 -62 -20 -170l-56 -329l-8 -58t-4 -77t12 -89q-90 -41 -205 -42t-161 41t-45 128q0 36 10 91l61 364q4 20 4 46q0 52 -55 52q-78 0 -92 -94l-102 -606h-400l166 979q70 16 158 16q181 0 205 -102q106 123 284 123zM656 1104
q-93 0 -162 76l190 231q39 47 75 70t89 23t95 -28q42 -26 87 -79l-274 -250q-48 -43 -100 -43z" />
    <glyph glyph-name="Ncommaaccent" unicode="&#x145;" horiz-adv-x="1331" 
d="M1194 1384q207 0 207 -172q0 -14 -4 -38l-197 -1174h-321l-304 688l-116 -688h-383l231 1368q83 16 172 16q155 0 207 -135l238 -618l123 737q66 16 147 16zM469 -217q63 119 155 119q93 0 167 -56l-207 -282q-41 -57 -114 -59q-74 -1 -130 34z" />
    <glyph glyph-name="ncommaaccent" unicode="&#x146;" horiz-adv-x="1101" 
d="M862 1016q124 0 186 -77t62 -196q0 -62 -20 -170l-56 -329l-8 -58t-4 -77t12 -89q-90 -41 -205 -42t-161 41t-45 128q0 36 10 91l61 364q4 20 4 46q0 52 -55 52q-78 0 -92 -94l-102 -606h-400l166 979q70 16 158 16q181 0 205 -102q106 123 284 123zM352 -217
q63 119 155 119q93 0 167 -56l-207 -282q-41 -57 -114 -59q-74 -1 -130 34z" />
    <glyph glyph-name="Ncaron" unicode="&#x147;" horiz-adv-x="1331" 
d="M1194 1384q207 0 207 -172q0 -14 -4 -38l-197 -1174h-321l-304 688l-116 -688h-383l231 1368q83 16 172 16q155 0 207 -135l238 -618l123 737q66 16 147 16zM549 1765q48 41 117 41q68 0 104 -41l90 -98l115 100q49 39 123 39t114 -41l-184 -219q-71 -82 -190 -83
t-160 77z" />
    <glyph glyph-name="ncaron" unicode="&#x148;" horiz-adv-x="1101" 
d="M862 1016q124 0 186 -77t62 -196q0 -62 -20 -170l-56 -329l-8 -58t-4 -77t12 -89q-90 -41 -205 -42t-161 41t-45 128q0 36 10 91l61 364q4 20 4 46q0 52 -55 52q-78 0 -92 -94l-102 -606h-400l166 979q70 16 158 16q181 0 205 -102q106 123 284 123zM478 1507
q50 0 78 -14t54 -55l76 -121l121 129q57 61 142 61t122 -39l-205 -249q-43 -53 -87 -81q-43 -28 -111 -28q-130 0 -183 104l-118 254q61 39 111 39z" />
    <glyph glyph-name="napostrophe" unicode="&#x149;" horiz-adv-x="1101" 
d="M862 1016q124 0 186 -77t62 -196q0 -62 -20 -170l-56 -329l-8 -58t-4 -77t12 -89q-90 -41 -205 -42t-161 41t-45 128q0 36 10 91l61 364q4 20 4 46q0 52 -55 52q-78 0 -92 -94l-102 -606h-400l166 979q70 16 158 16q181 0 205 -102q106 123 284 123zM274 1073
q-46 -1 -70 19t-24 69q53 10 96 44t43 67t-7 47q-7 15 -15 29q-51 92 9 169q37 48 119 49q81 1 111 -46q30 -48 30 -112t-27 -132q-44 -116 -165 -176q-54 -26 -100 -27z" />
    <glyph glyph-name="Eng" unicode="&#x14a;" horiz-adv-x="1331" 
d="M520 -260q0 35 6 76q178 -4 240 61q39 43 55 135l15 84l-261 592l-116 -688h-383l231 1368q83 16 172 16q157 0 207 -135l238 -618l123 737q66 16 138 16q126 0 171 -49t45 -123q0 -18 -4 -38l-197 -1174q-16 -96 -91.5 -280.5t-382.5 -184.5q-112 0 -159 60.5t-47 144.5
z" />
    <glyph glyph-name="eng" unicode="&#x14b;" horiz-adv-x="1101" 
d="M373 995q181 0 205 -102q37 43 105.5 83t156.5 40t135 -21.5t91 -78t44 -173.5q0 -62 -20 -170l-99 -569q-36 -209 -102 -298q-65 -89 -143 -134t-193 -45t-160 57.5t-45 136.5q0 35 6 72q127 4 175 60t77 229l88 520q4 20 4 45t-11 39t-51 14q-69 0 -85 -94l-102 -606
h-400l166 979q70 16 158 16z" />
    <glyph glyph-name="Omacron" unicode="&#x14c;" horiz-adv-x="1409" 
d="M856 1081q-136 0 -221 -160q-86 -160 -84 -403q0 -109 45 -172t121 -63q144 0 229 160q86 160 85 399t-175 239zM714 -37q-170 0 -274 49q-204 96 -266 317q-31 105 -31 239t45 286q46 152 138 274t232 197q140 76 309 76t273 -49q206 -97 267 -318q31 -106 31 -240
t-46 -284q-46 -151 -137 -273q-92 -122 -232 -198t-309 -76zM565 1632q0 53 25 117h516q147 0 145 -123q0 -49 -24 -119h-516q-84 0 -115 36t-31 89z" />
    <glyph glyph-name="omacron" unicode="&#x14d;" horiz-adv-x="1110" 
d="M553 -31q-237 0 -348 117t-111 309q0 266 162 443q162 178 428 178q212 0 324 -121t110 -303q0 -123 -36 -236q-74 -234 -288 -336q-108 -52 -241 -51zM483 389q0 -127 90 -127q78 0 120 128q32 98 32 174q0 77 -17 117q-18 40 -66 40t-78 -36q-81 -97 -81 -296z
M877 1395q145 0 145 -130q0 -56 -25 -120h-516q-85 0 -115 38t-30 90t24 122h517z" />
    <glyph glyph-name="Obreve" unicode="&#x14e;" horiz-adv-x="1409" 
d="M856 1081q-136 0 -221 -160q-86 -160 -84 -403q0 -109 45 -172t121 -63q144 0 229 160q86 160 85 399t-175 239zM714 -37q-170 0 -274 49q-204 96 -266 317q-31 105 -31 239t45 286q46 152 138 274t232 197q140 76 309 76t273 -49q206 -97 267 -318q31 -106 31 -240
t-46 -284q-46 -151 -137 -273q-92 -122 -232 -198t-309 -76zM604 1796q56 29 111 29q56 0 75 -18t31 -64q13 -47 33 -70t60 -23t71 18q31 16 57 74t58 70q31 12 88 13t102 -39q-53 -166 -147 -246q-95 -80 -241 -80q-298 0 -298 336z" />
    <glyph glyph-name="obreve" unicode="&#x14f;" horiz-adv-x="1110" 
d="M553 -31q-237 0 -348 117t-111 309q0 266 162 443q162 178 428 178q212 0 324 -121t110 -303q0 -123 -36 -236q-74 -234 -288 -336q-108 -52 -241 -51zM483 389q0 -127 90 -127q78 0 120 128q32 98 32 174q0 77 -17 117q-18 40 -66 40t-78 -36q-81 -97 -81 -296z
M895 1466q31 12 88 12t102 -38q-53 -166 -147 -246t-240 -80q-298 0 -299 336q50 26 108 28t78 -16t31 -65q12 -47 32 -70t62 -23q40 0 70 18q30 16 58 74q27 58 57 70z" />
    <glyph glyph-name="Ohungarumlaut" unicode="&#x150;" horiz-adv-x="1409" 
d="M856 1081q-136 0 -221 -160q-86 -160 -84 -403q0 -109 45 -172t121 -63q144 0 229 160q86 160 85 399t-175 239zM714 -37q-170 0 -274 49q-204 96 -266 317q-31 105 -31 239t45 286q46 152 138 274t232 197q140 76 309 76t273 -49q206 -97 267 -318q31 -106 31 -240
t-46 -284q-46 -151 -137 -273q-92 -122 -232 -198t-309 -76zM1135 1464q-47 0 -79 27t-61 68l203 167q79 62 150 62q70 0 108 -38t66 -91l-287 -166q-53 -29 -100 -29zM631 1464q-47 0 -79 27t-60 68l202 167q79 62 150 62q70 0 108 -38t66 -91l-287 -166q-53 -29 -100 -29z
" />
    <glyph glyph-name="ohungarumlaut" unicode="&#x151;" horiz-adv-x="1110" 
d="M553 -31q-237 0 -348 117t-111 309q0 266 162 443q162 178 428 178q212 0 324 -121t110 -303q0 -123 -36 -236q-74 -234 -288 -336q-108 -52 -241 -51zM483 389q0 -127 90 -127q78 0 120 128q32 98 32 174q0 77 -17 117q-18 40 -66 40t-78 -36q-81 -97 -81 -296z
M924 1104q-80 0 -148 70l180 219q67 82 150 84q51 0 89 -25t79 -72l-258 -237q-45 -39 -92 -39zM500 1104q-80 0 -148 70l180 219q67 82 150 84q51 0 89 -25t79 -72l-258 -237q-45 -39 -92 -39z" />
    <glyph glyph-name="OE" unicode="&#x152;" horiz-adv-x="1878" 
d="M877 1059q-160 0 -243 -131.5t-83 -373.5t188 -243h215l127 748h-204zM1843 197.5q0 -113.5 -24 -197.5h-1143q-273 0 -403 159.5t-130 407.5q0 345 193 576t555 231h1128q5 -147 -43 -231t-194 -84h-301l-37 -207h364l-51 -313h-364l-39 -228h297q192 0 192 -113.5z" />
    <glyph glyph-name="oe" unicode="&#x153;" horiz-adv-x="1619" 
d="M1329 694q0 62 -61 62t-103.5 -43t-58.5 -129q14 -2 16 -2h27q31 0 105.5 16t74.5 96zM570 262q48 0 77 38t53.5 111t24.5 151q0 79 -17.5 119t-65.5 40q-81 0 -120 -107.5t-39 -229.5t87 -122zM1661 742q0 -189 -145 -269t-345 -80h-86q4 -68 39.5 -104.5t97.5 -36.5
q123 0 197 123q74 -23 118 -60t44 -95q0 -97 -74 -154q-57 -47 -151 -72t-190 -25q-175 0 -298 117q-66 -53 -143 -85t-191 -32q-218 0 -329 117.5t-111 308.5q0 265 162 443t428 178q104 0 170 -27.5t119 -83.5q144 111 335 111t272 -84.5t81 -189.5z" />
    <glyph glyph-name="Racute" unicode="&#x154;" horiz-adv-x="1232" 
d="M657 731q86 0 137 67q50 67 50 157q0 89 -40 119t-95 30h-29q-18 0 -31 -2l-63 -371h71zM738 1384q245 0 377 -105t132 -284q0 -247 -156 -377q-48 -39 -104 -69l213 -514q-118 -60 -226 -61t-164 30t-89 117l-123 330h-59l-76 -451h-387l231 1360q186 24 431 24z
M674 1464q-83 0 -148 97l207 172q71 63 149 63q76 0 118 -40t71 -93l-295 -170q-53 -29 -102 -29z" />
    <glyph glyph-name="racute" unicode="&#x155;" horiz-adv-x="884" 
d="M373 995q181 0 205 -102q41 53 96 88t139 35q176 0 168 -160q-9 -169 -190 -274q-29 42 -57 64t-78 22t-76 -27t-33 -61l-98 -580h-400l166 979q70 16 158 16zM582 1104q-91 0 -162 76l190 231q39 47 75 70t89 23t95 -28q42 -26 87 -79l-274 -250q-48 -43 -100 -43z" />
    <glyph glyph-name="Rcommaaccent" unicode="&#x156;" horiz-adv-x="1232" 
d="M657 731q86 0 137 67q50 67 50 157q0 89 -40 119t-95 30h-29q-18 0 -31 -2l-63 -371h71zM738 1384q245 0 377 -105t132 -284q0 -247 -156 -377q-48 -39 -104 -69l213 -514q-118 -60 -226 -61t-164 30t-89 117l-123 330h-59l-76 -451h-387l231 1360q186 24 431 24z
M428 -217q63 119 155 119q93 0 167 -56l-207 -282q-41 -57 -114 -59q-74 -1 -130 34z" />
    <glyph glyph-name="rcommaaccent" unicode="&#x157;" horiz-adv-x="884" 
d="M373 995q181 0 205 -102q41 53 96 88t139 35q176 0 168 -160q-9 -169 -190 -274q-29 42 -57 64t-78 22t-76 -27t-33 -61l-98 -580h-400l166 979q70 16 158 16zM55 -217q63 119 155 119q93 0 167 -56l-207 -282q-41 -57 -114 -59q-74 -1 -130 34z" />
    <glyph glyph-name="Rcaron" unicode="&#x158;" horiz-adv-x="1232" 
d="M657 731q86 0 137 67q50 67 50 157q0 89 -40 119t-95 30h-29q-18 0 -31 -2l-63 -371h71zM738 1384q245 0 377 -105t132 -284q0 -247 -156 -377q-48 -39 -104 -69l213 -514q-118 -60 -226 -61t-164 30t-89 117l-123 330h-59l-76 -451h-387l231 1360q186 24 431 24z
M465 1765q48 41 117 41q68 0 104 -41l90 -98l115 100q49 39 123 39t114 -41l-184 -219q-71 -82 -190 -83t-160 77z" />
    <glyph glyph-name="rcaron" unicode="&#x159;" horiz-adv-x="884" 
d="M373 995q181 0 205 -102q41 53 96 88t139 35q176 0 168 -160q-9 -169 -190 -274q-29 42 -57 64t-78 22t-76 -27t-33 -61l-98 -580h-400l166 979q70 16 158 16zM390 1507q50 0 78 -14t54 -55l76 -121l121 129q57 61 142 61t122 -39l-205 -249q-43 -53 -87 -81
q-43 -28 -111 -28q-130 0 -183 104l-118 254q61 39 111 39z" />
    <glyph glyph-name="Sacute" unicode="&#x15a;" horiz-adv-x="1071" 
d="M690 1077q-58 0 -78 -20q-20 -19 -20 -59t44 -74t118 -77q167 -100 235 -196t69 -222q2 -230 -150 -347t-382 -117q-158 0 -277 45q-192 73 -192 219q0 123 140 224q137 -156 315 -156q119 0 119 100q0 41 -34 74t-111 77t-133 87q-117 90 -154 205q-21 61 -21 150
q-1 185 141 298q141 113 371 113q119 0 214 -33q210 -73 210 -217q0 -72 -45 -129t-131 -86q-113 141 -248 141zM672 1464q-83 0 -148 97l207 172q71 63 149 63q76 0 118 -40t71 -93l-295 -170q-53 -29 -102 -29z" />
    <glyph glyph-name="sacute" unicode="&#x15b;" horiz-adv-x="899" 
d="M537 690q0 -18 10 -31t63 -47q54 -34 102 -68q129 -92 148 -197q6 -34 6 -79t-24 -99t-73 -99q-112 -101 -303 -101t-302 58q-66 35 -98 77t-31 107q0 122 147 203q91 -135 201 -133q55 0 55 39q0 38 -36 64t-106 74t-116 101q-47 53 -47 121q0 140 91 225
q118 111 337 111q154 0 265 -67q112 -67 112 -165q0 -69 -58 -121t-141 -61q-50 127 -155 127q-18 0 -32 -11q-14 -10 -15 -28zM594 1104q-92 0 -162 76l191 231q39 47 75 70t88 23q93 -1 183 -107l-275 -250q-49 -43 -100 -43z" />
    <glyph glyph-name="Scircumflex" unicode="&#x15c;" horiz-adv-x="1071" 
d="M690 1077q-58 0 -78 -20q-20 -19 -20 -59t44 -74t118 -77q167 -100 235 -196t69 -222q2 -230 -150 -347t-382 -117q-158 0 -277 45q-192 73 -192 219q0 123 140 224q137 -156 315 -156q119 0 119 100q0 41 -34 74t-111 77t-133 87q-117 90 -154 205q-21 61 -21 150
q-1 185 141 298q141 113 371 113q119 0 214 -33q210 -73 210 -217q0 -72 -45 -129t-131 -86q-113 141 -248 141zM1044 1503q-48 -41 -118 -41q-69 0 -105 41l-88 94l-112 -96q-49 -39 -124 -39t-116 41l184 219q73 84 191 84t159 -77z" />
    <glyph glyph-name="scircumflex" unicode="&#x15d;" horiz-adv-x="899" 
d="M537 690q0 -18 10 -31t63 -47q54 -34 102 -68q129 -92 148 -197q6 -34 6 -79t-24 -99t-73 -99q-112 -101 -303 -101t-302 58q-66 35 -98 77t-31 107q0 122 147 203q91 -135 201 -133q55 0 55 39q0 38 -36 64t-106 74t-116 101q-47 53 -47 121q0 140 91 225
q118 111 337 111q154 0 265 -67q112 -67 112 -165q0 -69 -58 -121t-141 -61q-50 127 -155 127q-18 0 -32 -11q-14 -10 -15 -28zM843 1110q-50 0 -79 14t-55 56l-74 116l-119 -125q-57 -61 -143 -61t-123 39l205 250q43 53 87 81t112 28q132 -1 182 -105l118 -254
q-61 -39 -111 -39z" />
    <glyph glyph-name="Scedilla" unicode="&#x15e;" horiz-adv-x="1071" 
d="M403 -485q-170 1 -170 89q0 46 39 99q39 -23 70 -22q61 0 61 51q0 24 -20.5 60t-20.5 61q0 70 52 120q-163 18 -260 85.5t-97 168.5q0 125 140 226q137 -156 315 -156q119 0 119 100q0 41 -34 74t-111 78q-162 95 -235 188.5t-73 243.5q0 195 140.5 307.5t371.5 112.5
q135 0 225.5 -37t128.5 -73q70 -66 70 -139t-45 -130t-131 -86q-113 141 -248 141q-98 0 -98 -76q0 -43 44 -76.5t118 -77.5q166 -100 235.5 -197.5t69.5 -217.5q0 -318 -287 -426q-86 -31 -186 -39q-25 -31 -25 -63t12.5 -51t39 -56t26.5 -85q0 -94 -69.5 -145.5
t-166.5 -51.5z" />
    <glyph glyph-name="scedilla" unicode="&#x15f;" horiz-adv-x="899" 
d="M334 -485q-170 1 -170 89q0 49 39 99q39 -23 69 -22q61 0 62 51q0 25 -20.5 59t-20.5 62q0 69 53 122q-311 50 -311 230q0 72 38 121t109 88q89 -133 201 -133q55 0 55 39t-35.5 64.5t-105.5 73.5t-117 101t-47 121q0 140 104.5 238t323.5 98q153 0 265 -66t112 -166
q0 -70 -58.5 -122t-140.5 -60q-50 127 -155 127q-18 0 -32.5 -10.5t-14.5 -28.5t9 -29.5t30.5 -27t54.5 -35.5t81 -54q88 -62 121 -123.5t33 -129.5q0 -215 -225 -293q-55 -20 -123 -27q-26 -30 -26 -65t12 -53.5t38.5 -54t26.5 -85.5q0 -94 -69 -146t-166 -52z" />
    <glyph glyph-name="Scaron" unicode="&#x160;" horiz-adv-x="1071" 
d="M690 1077q-58 0 -78 -20q-20 -19 -20 -59t44 -74t118 -77q167 -100 235 -196t69 -222q2 -230 -150 -347t-382 -117q-158 0 -277 45q-192 73 -192 219q0 123 140 224q137 -156 315 -156q119 0 119 100q0 41 -34 74t-111 77t-133 87q-117 90 -154 205q-21 61 -21 150
q-1 185 141 298q141 113 371 113q119 0 214 -33q210 -73 210 -217q0 -72 -45 -129t-131 -86q-113 141 -248 141zM412 1765q48 41 117 41q68 0 104 -41l90 -98l115 100q49 39 123 39q73 0 114 -41l-184 -219q-71 -82 -190 -83t-160 77z" />
    <glyph glyph-name="scaron" unicode="&#x161;" horiz-adv-x="899" 
d="M537 690q0 -18 10 -31t63 -47q54 -34 102 -68q129 -92 148 -197q6 -34 6 -79t-24 -99t-73 -99q-112 -101 -303 -101t-302 58q-66 35 -98 77t-31 107q0 122 147 203q91 -135 201 -133q55 0 55 39q0 38 -36 64t-106 74t-116 101q-47 53 -47 121q0 140 91 225
q118 111 337 111q154 0 265 -67q112 -67 112 -165q0 -69 -58 -121t-141 -61q-50 127 -155 127q-18 0 -32 -11q-14 -10 -15 -28zM404 1507q50 0 78 -14t55 -55l75 -121l121 129q57 61 142 61t122 -39l-204 -249q-43 -53 -87 -81t-112 -28q-132 0 -182 104l-119 254
q60 39 111 39z" />
    <glyph glyph-name="uni0162" unicode="&#x162;" horiz-adv-x="1202" 
d="M539 -485q-170 1 -170 89q0 49 39 99q39 -23 69 -22q61 0 62 51q0 21 -20.5 58.5t-20.5 79.5q0 65 84 130h-211l176 1040h-383q5 158 38.5 218.5t81.5 88t132 27.5h958q5 -152 -45.5 -243t-202.5 -91h-178l-176 -1040q-73 -23 -76 -102q0 -27 12.5 -45.5t27 -38t26.5 -44
t12 -65.5q0 -86 -69 -138t-166 -52z" />
    <glyph glyph-name="uni0163" unicode="&#x163;" horiz-adv-x="851" 
d="M354 -485q-170 1 -170 89q0 46 39 99q39 -23 70 -22q61 0 61 51q0 24 -20.5 60t-20.5 78q1 42 23 68t39 44q-89 11 -180 83.5t-91 251.5q0 29 3.5 56.5t7.5 60.5l145 856q74 17 162 17q209 0 209 -172q0 -12 -4 -39l-21 -121h291l-49 -305h-293l-45 -273
q-8 -47 11.5 -68.5t53.5 -21.5q67 0 117 84q178 -50 163 -179q-7 -62 -59.5 -144.5t-256.5 -96.5q-27 -27 -27 -63t12.5 -55t39 -56t26.5 -85q0 -94 -69.5 -145.5t-166.5 -51.5z" />
    <glyph glyph-name="Tcaron" unicode="&#x164;" horiz-adv-x="1202" 
d="M1126 1040h-178l-176 -1040h-401l176 1040h-383q5 156 38 218q34 61 82 89t132 27h958q5 -153 -40 -232q-58 -102 -208 -102zM508 1765q48 41 117 41q68 0 104 -41l90 -98l115 100q49 39 123 39t114 -41l-184 -219q-71 -82 -190 -83t-160 77z" />
    <glyph glyph-name="tcaron" unicode="&#x165;" horiz-adv-x="851" 
d="M422 1307q209 0 209 -172q0 -19 -4 -39l-21 -121h291l-49 -305h-293l-45 -273q-8 -47 11.5 -68.5t53.5 -21.5q67 0 117 84q178 -50 163 -179q-7 -62 -26.5 -91t-48.5 -58q-104 -94 -282 -94q-279 0 -336.5 126.5t-57.5 188.5t3.5 89.5t7.5 60.5l145 856q74 17 162 17z
M919 1125.5q-55 -25.5 -105 -25.5q-49 0 -71 4l52 297q31 180 217 180q39 0 92 -10l-107 -342q-23 -78 -78 -103.5z" />
    <glyph glyph-name="Tbar" unicode="&#x166;" horiz-adv-x="1202" 
d="M416 1374h958q5 -152 -45.5 -243t-202.5 -91h-178l-69 -405h247l-26 -164h-248l-80 -471h-401l80 471h-232l27 164h231l70 405h-383q5 158 38.5 218.5t81.5 88t132 27.5z" />
    <glyph glyph-name="tbar" unicode="&#x167;" horiz-adv-x="851" 
d="M422 1307q209 0 209 -172q0 -19 -4 -39l-19 -107h293l-39 -227h-291l-18 -111h291l-29 -164h-291l-14 -90q-8 -47 11.5 -68.5t53.5 -21.5q67 0 117 84q178 -50 163 -179q-7 -62 -26.5 -91t-48.5 -58q-104 -94 -282 -94q-279 0 -336.5 126.5t-57.5 188.5t3.5 89.5
t7.5 60.5l145 856q74 17 162 17z" />
    <glyph glyph-name="Utilde" unicode="&#x168;" horiz-adv-x="1296" 
d="M1161 1386q213 0 213 -172q0 -18 -4 -38l-125 -682q-47 -262 -190 -396t-414 -135q-392 0 -471 237q-25 75 -25 158t17 183l137 829q70 16 160 16q215 0 215 -172q0 -18 -4 -38l-109 -629q-10 -72 -10 -122q1 -50 25 -94t88 -44q64 1 97 25q75 54 101 229l139 829
q70 16 160 16zM467 1636q0 65 69 111q71 51 152 51t159 -39q29 -14 55 -26t56 -12t71 13q40 13 83 72q53 -31 71 -66q17 -36 17 -74q0 -74 -66 -119q-66 -44 -144 -44q-78 1 -137 27t-87 38t-58 13q-30 0 -70 -13t-83 -73q-88 51 -88 141z" />
    <glyph glyph-name="utilde" unicode="&#x169;" horiz-adv-x="1093" 
d="M160 44q-68 73 -68 174t21 202l96 569q89 27 184 27q193 0 189 -170q0 -25 -4 -45l-74 -434q-4 -20 -4 -45t11 -39q11 -15 51 -15q68 -1 85 94l105 627q89 27 184 27q192 0 188 -170q0 -25 -4 -45l-94 -551q-10 -78 -10 -138q0 -61 12 -106q-92 -26 -176 -26t-130 20
t-75 90q-50 -58 -90 -78q-77 -39 -203 -40t-194 72zM322 1272q0 63 69 112q69 48 149 49t136 -25q55 -26 81 -40q27 -12 57 -12t70 13t83 73q53 -31 70 -67q38 -81 -1 -141q-57 -95 -215 -95q-63 0 -144 38t-113 39q-32 2 -72 -12t-82 -74q-88 51 -88 142z" />
    <glyph glyph-name="Umacron" unicode="&#x16a;" horiz-adv-x="1296" 
d="M1161 1386q213 0 213 -172q0 -18 -4 -38l-125 -682q-47 -262 -190 -396t-414 -135q-392 0 -471 237q-25 75 -25 158t17 183l137 829q70 16 160 16q215 0 215 -172q0 -18 -4 -38l-109 -629q-10 -72 -10 -122q1 -50 25 -94t88 -44q64 1 97 25q75 54 101 229l139 829
q70 16 160 16zM1036 1749q146 0 146 -123q0 -53 -25 -119h-516q-84 0 -115 36q-56 65 -6 206h516z" />
    <glyph glyph-name="umacron" unicode="&#x16b;" horiz-adv-x="1093" 
d="M160 44q-68 73 -68 174t21 202l96 569q89 27 184 27q193 0 189 -170q0 -25 -4 -45l-74 -434q-4 -20 -4 -45t11 -39q11 -15 51 -15q68 -1 85 94l105 627q89 27 184 27q192 0 188 -170q0 -25 -4 -45l-94 -551q-10 -78 -10 -138q0 -61 12 -106q-92 -26 -176 -26t-130 20
t-75 90q-50 -58 -90 -78q-77 -39 -203 -40t-194 72zM879 1395q145 0 145 -130q0 -56 -25 -120h-516q-85 0 -115 38t-30 90t24 122h517z" />
    <glyph glyph-name="Ubreve" unicode="&#x16c;" horiz-adv-x="1296" 
d="M1161 1386q213 0 213 -172q0 -18 -4 -38l-125 -682q-47 -262 -190 -396t-414 -135q-392 0 -471 237q-25 75 -25 158t17 183l137 829q70 16 160 16q215 0 215 -172q0 -18 -4 -38l-109 -629q-10 -72 -10 -122q1 -50 25 -94t88 -44q64 1 97 25q75 54 101 229l139 829
q70 16 160 16zM839 1460q-300 0 -298 336q56 29 111 29t75 -18t32 -65q11 -46 31 -69t61 -23q40 0 71 18q32 16 58 74t56 70q64 25 135 5q29 -8 56 -31q-53 -166 -147 -246t-241 -80z" />
    <glyph glyph-name="ubreve" unicode="&#x16d;" horiz-adv-x="1093" 
d="M160 44q-68 73 -68 174t21 202l96 569q89 27 184 27q193 0 189 -170q0 -25 -4 -45l-74 -434q-4 -20 -4 -45t11 -39q11 -15 51 -15q68 -1 85 94l105 627q89 27 184 27q192 0 188 -170q0 -25 -4 -45l-94 -551q-10 -78 -10 -138q0 -61 12 -106q-92 -26 -176 -26t-130 20
t-75 90q-50 -58 -90 -78q-77 -39 -203 -40t-194 72zM669 1114q-300 0 -298 336q51 26 108 28t78 -17q20 -19 32 -65q11 -46 31 -69t61 -23q40 0 71 18q32 16 58 74t56 70q31 12 88 12t103 -38q-53 -166 -147 -246t-241 -80z" />
    <glyph glyph-name="Uring" unicode="&#x16e;" horiz-adv-x="1296" 
d="M1161 1386q213 0 213 -172q0 -18 -4 -38l-125 -682q-47 -262 -190 -396t-414 -135q-392 0 -471 237q-25 75 -25 158t17 183l137 829q70 16 160 16q215 0 215 -172q0 -18 -4 -38l-109 -629q-10 -72 -10 -122q1 -50 25 -94t88 -44q64 1 97 25q75 54 101 229l139 829
q70 16 160 16zM831 1516q47 0 73 34t26 81q0 46 -26 81t-73 35t-73 -34t-27 -81q1 -48 27 -82t73 -34zM588 1630q0 166 141 232q45 20 101 20q112 0 177 -73q66 -73 66 -176t-65 -177q-68 -72 -177 -73q-110 -1 -177 69q-66 70 -66 178z" />
    <glyph glyph-name="uring" unicode="&#x16f;" horiz-adv-x="1093" 
d="M160 44q-68 73 -68 174t21 202l96 569q89 27 184 27q193 0 189 -170q0 -25 -4 -45l-74 -434q-4 -20 -4 -45t11 -39q11 -15 51 -15q68 -1 85 94l105 627q89 27 184 27q192 0 188 -170q0 -25 -4 -45l-94 -551q-10 -78 -10 -138q0 -61 12 -106q-92 -26 -176 -26t-130 20
t-75 90q-50 -58 -90 -78q-77 -39 -203 -40t-194 72zM700 1245q47 0 73 35t26 81t-26 81t-73 35q-48 0 -74 -34t-26 -81t26 -82t74 -35zM523 1540q66 71 176 71q109 1 176 -72t67 -176t-65 -177q-68 -72 -177 -73q-110 -1 -177 69q-66 70 -66 179q0 108 66 179z" />
    <glyph glyph-name="Uhungarumlaut" unicode="&#x170;" horiz-adv-x="1296" 
d="M1161 1386q213 0 213 -172q0 -18 -4 -38l-125 -682q-47 -262 -190 -396t-414 -135q-392 0 -471 237q-25 75 -25 158t17 183l137 829q70 16 160 16q215 0 215 -172q0 -18 -4 -38l-109 -629q-10 -72 -10 -122q1 -50 25 -94t88 -44q64 1 97 25q75 54 101 229l139 829
q70 16 160 16zM1096 1464q-47 0 -79 27t-61 68l203 167q79 62 150 62q69 0 107 -38t67 -91l-287 -166q-53 -29 -100 -29zM592 1464q-47 0 -79 27t-60 68l202 167q79 62 150 62q69 0 107 -38t67 -91l-287 -166q-53 -29 -100 -29z" />
    <glyph glyph-name="uhungarumlaut" unicode="&#x171;" horiz-adv-x="1093" 
d="M160 44q-68 73 -68 174t21 202l96 569q89 27 184 27q193 0 189 -170q0 -25 -4 -45l-74 -434q-4 -20 -4 -45t11 -39q11 -15 51 -15q68 -1 85 94l105 627q89 27 184 27q192 0 188 -170q0 -25 -4 -45l-94 -551q-10 -78 -10 -138q0 -61 12 -106q-92 -26 -176 -26t-130 20
t-75 90q-50 -58 -90 -78q-77 -39 -203 -40t-194 72zM912 1104q-81 0 -148 70l180 219q67 82 150 84q51 0 89 -25t79 -72l-258 -237q-44 -39 -92 -39zM488 1104q-48 0 -80 17t-68 53l180 219q67 82 150 84q51 0 89 -25t79 -72l-258 -237q-44 -39 -92 -39z" />
    <glyph glyph-name="Uogonek" unicode="&#x172;" horiz-adv-x="1296" 
d="M1161 1386q213 0 213 -172q0 -18 -4 -38l-125 -682q-35 -195 -121 -318t-237 -176q-100 -59 -154.5 -112.5t-54.5 -108.5q0 -29 14.5 -40t43.5 -11t77 41q51 -49 51 -105t-56 -97.5t-164 -41.5t-163 54t-55 134q0 136 145 252q-224 11 -325 113t-101 289q0 74 17 174
l137 829q70 16 160 16q215 0 215 -172q0 -18 -4 -38l-109 -629q-10 -72 -10 -122t24.5 -94t88.5 -44q106 0 144.5 75t53.5 179l139 829q70 16 160 16z" />
    <glyph glyph-name="uogonek" unicode="&#x173;" horiz-adv-x="1093" 
d="M573 -291q0 155 195 277q-45 10 -73.5 32.5t-47.5 71.5q-50 -57 -110 -88t-185 -31t-192.5 73t-67.5 174t21 202l96 569q89 27 184 27q193 0 189 -170q0 -25 -4 -45l-74 -434q-4 -20 -4 -45t11 -39.5t51 -14.5q68 0 85 94l105 627q89 27 184 27q192 0 188 -170
q0 -25 -4 -45l-94 -551q-10 -78 -10 -138q0 -61 12 -106q-209 -123 -209 -227q0 -29 14.5 -40t30.5 -11q44 0 90 41q52 -49 52 -105t-56 -97.5t-164 -41.5t-160.5 52t-52.5 132z" />
    <glyph glyph-name="Wcircumflex" unicode="&#x174;" horiz-adv-x="1927" 
d="M351 1378q75 0 112 -8q81 -18 122 -92q22 -41 25 -109l35 -620l326 797q86 32 142 32q101 0 157 -31t59 -104l41 -649l252 647q59 137 264 137q105 0 199 -32l-612 -1356h-367l-59 774l-334 -774h-398l-116 1362q77 26 152 26zM1485 1503q-48 -41 -118 -41q-69 0 -105 41
l-88 94l-113 -96q-49 -39 -124 -39t-116 41l185 219q73 84 190 84t160 -77z" />
    <glyph glyph-name="wcircumflex" unicode="&#x175;" horiz-adv-x="1525" 
d="M123 954q92 43 175 43t116 -23q62 -43 69 -138l33 -428l221 559q87 30 149 30q62 -1 98 -29t42 -100l27 -479l139 375q41 113 103 161t165 48t178 -35l-485 -948h-322l-36 481l-222 -481h-331zM1093 1110q-51 0 -79 14t-56 56l-73 116l-119 -125q-57 -61 -143 -61
t-123 39l205 250q43 53 87 81t112 28q133 -1 181 -105l119 -254q-60 -39 -111 -39z" />
    <glyph glyph-name="Ycircumflex" unicode="&#x176;" horiz-adv-x="1251" 
d="M413 1380q103 0 145 -36t60 -117l103 -383l215 399q35 63 94 103t174 38q115 0 213 -61l-547 -854l-79 -469h-402l78 467l-281 850q124 63 227 63zM1130 1503q-48 -41 -118 -41q-69 0 -105 41l-88 94l-112 -96q-49 -39 -124 -39t-116 41l184 219q73 84 191 84t159 -77z
" />
    <glyph glyph-name="ycircumflex" unicode="&#x177;" horiz-adv-x="1058" 
d="M325 995q189 0 197 -221l21 -428h8l156 447q29 84 91 143t168 59t205 -41l-516 -1075q-85 -170 -147 -229q-120 -115 -273 -115t-209 36q-89 58 -89 142q0 129 135 195q37 -51 66 -67q30 -15 69 -15t73 19t64 83l27 60h-82l-166 966q101 41 202 41zM890 1110
q-50 0 -79 14t-55 56l-74 116l-119 -125q-57 -61 -143 -61t-123 39l205 250q43 53 87 81q43 28 111 28q132 -1 183 -105l118 -254q-61 -39 -111 -39z" />
    <glyph glyph-name="Ydieresis" unicode="&#x178;" horiz-adv-x="1251" 
d="M413 1380q103 0 145 -36t60 -117l103 -383l215 399q35 63 94 103t174 38q115 0 213 -61l-547 -854l-79 -469h-402l78 467l-281 850q124 63 227 63zM1227 1673q-1 -94 -57 -139t-133 -45t-115 44t-39 95q0 94 57 139t133 45t115 -44t39 -95zM770 1673q0 -94 -57 -139
t-134 -45t-115 44t-38 95q0 94 56 139t132 45t116 -44t40 -95z" />
    <glyph glyph-name="Zacute" unicode="&#x179;" horiz-adv-x="1146" 
d="M1110 143q0 -63 -25 -143h-1067l43 270q371 470 691 789h-566q7 219 131 289q49 27 127 26h709q73 0 97 -36t14 -95l-25 -158q-344 -348 -709 -774h388q192 0 192 -168zM715 1464q-83 0 -148 97l207 172q71 63 149 63q77 0 119 -40t70 -93l-295 -170q-53 -29 -102 -29z
" />
    <glyph glyph-name="zacute" unicode="&#x17a;" horiz-adv-x="968" 
d="M725 309q121 0 168 -46t47 -118t-25 -145h-884l45 256q237 269 452 424h-372q0 166 47 229q59 80 221 80h485q163 0 131 -151l-24 -115q-137 -103 -264 -201t-240 -213h213zM652 1104q-92 0 -163 76l191 231q39 47 75 70t89 23t95 -28q42 -26 87 -79l-274 -250
q-48 -43 -100 -43z" />
    <glyph glyph-name="Zdotaccent" unicode="&#x17b;" horiz-adv-x="1146" 
d="M1110 143q0 -63 -25 -143h-1067l43 270q371 470 691 789h-566q7 219 131 289q49 27 127 26h709q73 0 97 -36t14 -95l-25 -158q-344 -348 -709 -774h388q192 0 192 -168zM977 1679q0 -98 -59 -145q-58 -47 -140 -47t-123 47t-41 100q0 98 60 146t139 47q80 1 122 -47
t42 -101z" />
    <glyph glyph-name="zdotaccent" unicode="&#x17c;" horiz-adv-x="968" 
d="M725 309q121 0 168 -46t47 -118t-25 -145h-884l45 256q237 269 452 424h-372q0 166 47 229q59 80 221 80h485q163 0 131 -151l-24 -115q-137 -103 -264 -201t-240 -213h213zM850 1315q0 -97 -59 -145t-141 -48t-122 47q-41 47 -41 101q-1 98 59 145t140 47t122 -47
t42 -100z" />
    <glyph glyph-name="Zcaron" unicode="&#x17d;" horiz-adv-x="1146" 
d="M1110 143q0 -63 -25 -143h-1067l43 270q371 470 691 789h-566q7 219 131 289q49 27 127 26h709q73 0 97 -36t14 -95l-25 -158q-344 -348 -709 -774h388q192 0 192 -168zM1038 1806q74 0 115 -41l-184 -219q-71 -82 -190 -83q-118 -1 -161 77l-129 225q48 41 117 41
t105 -41l90 -98l114 100q49 39 123 39z" />
    <glyph glyph-name="zcaron" unicode="&#x17e;" horiz-adv-x="968" 
d="M725 309q121 0 168 -46t47 -118t-25 -145h-884l45 256q237 269 452 424h-372q0 166 47 229q59 80 221 80h485q163 0 131 -151l-24 -115q-137 -103 -264 -201t-240 -213h213zM471 1507q51 0 79 -14t54 -55l76 -121l121 129q57 61 142 61t122 -39l-205 -249
q-43 -53 -87 -81q-43 -28 -111 -28q-130 0 -183 104l-119 254q60 39 111 39z" />
    <glyph glyph-name="longs" unicode="&#x17f;" horiz-adv-x="563" 
d="M760 1165q-129 0 -148 -131l-159 -1079q-35 -219 -142.5 -327.5t-289.5 -108.5t-256 38t-98.5 78.5t-24.5 90.5t30.5 102.5t83.5 85.5q62 -74 145 -74t113.5 30t40.5 99l154 992q36 243 151 375t377 132q205 0 307 -94q68 -60 69 -136q1 -77 -48 -125t-150 -60
q-47 112 -155 112z" />
    <glyph glyph-name="florin" unicode="&#x192;" horiz-adv-x="1208" 
d="M1257 1235q0 -57 -36 -131h-33q-105 0 -158 -30t-82.5 -69.5t-50.5 -101.5h301l-53 -297h-332l-115 -418q-102 -368 -282 -415t-275 -47q-196 0 -196 184q0 59 37 131h32q115 0 189.5 47.5t107.5 173.5l95 344h-170l53 297h200l15 53q102 368 281.5 415.5t275.5 47.5
q196 0 196 -184z" />
    <glyph glyph-name="Scommaaccent" unicode="&#x218;" horiz-adv-x="1071" 
d="M690 1077q-58 0 -78 -20q-20 -19 -20 -59t44 -74t118 -77q167 -100 235 -196t69 -222q2 -230 -150 -347t-382 -117q-158 0 -277 45q-192 73 -192 219q0 123 140 224q137 -156 315 -156q119 0 119 100q0 41 -34 74t-111 77t-133 87q-117 90 -154 205q-21 61 -21 150
q-1 185 141 298q141 113 371 113q119 0 214 -33q210 -73 210 -217q0 -72 -45 -129t-131 -86q-113 141 -248 141zM319 -217q63 119 155 119q93 0 167 -56l-207 -282q-41 -57 -114 -59q-74 -1 -130 34z" />
    <glyph glyph-name="scommaaccent" unicode="&#x219;" horiz-adv-x="899" 
d="M537 690q0 -18 10 -31t63 -47q54 -34 102 -68q129 -92 148 -197q6 -34 6 -79t-24 -99t-73 -99q-112 -101 -303 -101t-302 58q-66 35 -98 77t-31 107q0 122 147 203q91 -135 201 -133q55 0 55 39q0 38 -36 64t-106 74t-116 101q-47 53 -47 121q0 140 91 225
q118 111 337 111q154 0 265 -67q112 -67 112 -165q0 -69 -58 -121t-141 -61q-50 127 -155 127q-18 0 -32 -11q-14 -10 -15 -28zM250 -217q63 119 156 119t165 -56l-206 -282q-41 -57 -114 -59q-74 -1 -130 34z" />
    <glyph glyph-name="uni021A" unicode="&#x21a;" horiz-adv-x="1202" 
d="M1126 1040h-178l-176 -1040h-401l176 1040h-383q5 156 38 218q34 61 82 89t132 27h958q5 -153 -40 -232q-58 -102 -208 -102zM365 -217q63 119 155 119t166 -56l-207 -282q-41 -57 -114 -59q-74 -1 -129 34z" />
    <glyph glyph-name="uni021B" unicode="&#x21b;" horiz-adv-x="851" 
d="M575 307q66 0 117 84q177 -51 163 -179q-7 -62 -25 -91t-50 -58q-104 -94 -282 -94q-279 0 -364 187q-30 66 -30 128t4 90l7 60l145 856q74 17 150 17q75 -1 116 -15q105 -37 105 -157q0 -12 -4 -39l-21 -121h291l-49 -305h-293l-45 -273q-8 -47 11 -69t54 -21zM270 -217
q63 119 155 119q93 0 167 -56l-207 -282q-41 -57 -114 -59q-74 -1 -130 34z" />
    <glyph glyph-name="dotlessj" unicode="&#x237;" horiz-adv-x="555" 
d="M10 -473q-115 0 -160 57.5t-45 136.5q0 35 7 72q126 4 174 60t77 229l152 897q70 16 147 16q136 0 181 -49t45 -123q0 -17 -4 -39l-101 -594q-10 -57 -22 -126.5t-42.5 -184t-84.5 -188.5q-53 -74 -131 -119t-193 -45z" />
    <glyph glyph-name="apostrophe" unicode="&#x2bc;" horiz-adv-x="671" 
d="M533 1444q139 0 139 -158q0 -64 -26 -132q-26 -67 -69 -109t-97 -68.5t-99 -26.5t-69.5 19.5t-24.5 68.5q53 10 96 44t43 67t-7 47t-22.5 40.5t-15.5 57.5q0 61 36 105.5t116 44.5z" />
    <glyph glyph-name="circumflex" unicode="&#x2c6;" horiz-adv-x="952" 
d="M716 1110q-50 0 -79 14.5t-55 55.5l-74 116l-119 -125q-57 -61 -142 -61t-124 39l205 250q43 53 86.5 80.5t111.5 27.5q131 0 183 -104l118 -254q-61 -39 -111 -39z" />
    <glyph glyph-name="caron" unicode="&#x2c7;" horiz-adv-x="952" 
d="M234 1507q51 0 78.5 -14t54.5 -55l75 -121l121 129q57 61 142 61t122 -39l-204 -249q-43 -53 -87 -81t-112 -28q-133 0 -182 104l-119 254q60 39 111 39z" />
    <glyph glyph-name="uni02C9" unicode="&#x2c9;" horiz-adv-x="952" 
d="M133 1275q0 54 25 120h516q84 0 114.5 -37t30.5 -90t-24 -123h-516q-84 0 -115 38t-31 92z" />
    <glyph glyph-name="breve" unicode="&#x2d8;" horiz-adv-x="952" 
d="M318 1462q20 -17 32 -65q12 -47 32.5 -69.5t60.5 -22.5t71.5 16.5t57.5 74.5t56.5 70.5t87.5 12.5t103 -39q-53 -166 -147 -246t-240 -80q-298 0 -299 336q56 29 110 29q55 0 75 -17z" />
    <glyph glyph-name="dotaccent" unicode="&#x2d9;" horiz-adv-x="952" 
d="M657 1315q0 -98 -59 -145.5t-140 -47.5t-122 47.5t-41 100.5q0 98 59.5 145t139.5 47t121.5 -47t41.5 -100z" />
    <glyph glyph-name="ring" unicode="&#x2da;" horiz-adv-x="952" 
d="M477 1245q47 0 72.5 35t25.5 81t-25.5 81t-72.5 35t-73.5 -34t-26.5 -81t26.5 -82t73.5 -35zM653 1186q-70 -74 -178 -74t-175 71t-67 207.5t93.5 179t149.5 42.5t101.5 -20.5t93.5 -74t48 -155t-66 -176.5z" />
    <glyph glyph-name="ogonek" unicode="&#x2db;" horiz-adv-x="952" 
d="M494 -221q0 -29 14 -40t43 -11t78 41q51 -49 51 -105t-56.5 -97.5t-163.5 -41.5t-159.5 52t-52.5 145t81 172t197 137l176 -25q-208 -123 -208 -227z" />
    <glyph glyph-name="tilde" unicode="&#x2dc;" horiz-adv-x="952" 
d="M754 1442q88 -51 88 -132t-67 -126t-146 -45t-136 26.5t-85.5 39t-58.5 12.5t-69.5 -13.5t-82.5 -73.5q-88 51 -88 142q0 63 70.5 112.5t149.5 49.5t134 -27t80.5 -39t56.5 -12t71 13t83 73z" />
    <glyph glyph-name="hungarumlaut" unicode="&#x2dd;" horiz-adv-x="952" 
d="M586 1104q-47 0 -80 17.5t-68 52.5l180 219q35 43 69 63.5t83 20.5t87 -25t79 -72l-258 -237q-45 -39 -92 -39zM162 1104q-47 0 -80 17.5t-68 52.5l181 219q35 43 68.5 63.5t82.5 20.5t87 -25t79 -72l-258 -237q-45 -39 -92 -39z" />
    <glyph glyph-name="tonos" unicode="&#x384;" horiz-adv-x="952" 
d="M553 1192q-60 -88 -158 -88q-97 0 -139 29l115 241q61 125 221 125q68 0 147 -45z" />
    <glyph glyph-name="dieresistonos" unicode="&#x385;" horiz-adv-x="952" 
d="M590 1198q-56 -104 -164 -104q-50 0 -80 12l107 283q54 145 202 145q53 0 101 -27zM192.5 1141q-65.5 0 -106.5 40.5t-34 106.5t56.5 107t115 41t105 -41t32.5 -108t-55 -106.5t-113.5 -39.5zM835.5 1141q-65.5 0 -105.5 40.5t-33 106.5t55.5 107t114 41t106.5 -41
t34 -108t-56.5 -106.5t-115 -39.5z" />
    <glyph glyph-name="Alphatonos" unicode="&#x386;" horiz-adv-x="1429" 
d="M895 988q0 36 4 61h-6q-12 -47 -29 -91q-16 -42 -25 -68t-18 -44l-110 -271h213l-21 269q-2 28 -5 68t-3 76zM956 1384q230 0 261 -200l178 -1184h-391l-46 313h-350l-135 -313h-407l645 1341q118 43 245 43zM426 1057q-64 -105 -157 -105t-124 13l115 282
q60 146 215 146q82 0 131 -27z" />
    <glyph glyph-name="Epsilontonos" unicode="&#x388;" horiz-adv-x="1449" 
d="M1415 143q0 -59 -24 -143h-936l231 1374h905q5 -147 -37 -219q-57 -98 -200 -96h-322l-37 -207h385l-51 -313h-385l-39 -228h318q192 0 192 -168zM426 1057q-64 -105 -157 -105t-124 13l115 282q60 146 215 146q82 0 131 -27z" />
    <glyph glyph-name="Etatonos" unicode="&#x389;" horiz-adv-x="1708" 
d="M844 1386q213 0 213 -172q0 -18 -4 -38l-56 -322h326l86 516q70 16 146 16q187 0 215 -108q16 -54 6 -102l-199 -1176h-399l90 535h-324l-90 -535h-399l231 1370q70 16 158 16zM426 1057q-64 -105 -157 -105t-124 13l115 282q60 146 215 146q82 0 131 -27z" />
    <glyph glyph-name="Iotatonos" unicode="&#x38a;" horiz-adv-x="985" 
d="M844 1386q213 0 213 -172q0 -18 -4 -38l-199 -1176h-399l231 1370q70 16 158 16zM426 1057q-64 -105 -157 -105t-124 13l115 282q60 146 215 146q82 0 131 -27z" />
    <glyph glyph-name="Omicrontonos" unicode="&#x38c;" horiz-adv-x="1689" 
d="M1137 1081q-135 0 -221 -156q-85 -159 -85 -407q-1 -109 45 -172t122 -63q142 0 228 156q85 159 85 401q0 241 -174 241zM995 -37q-169 0 -273 49q-204 96 -267 317q-31 105 -31 239t45 286q96 323 370 471q141 76 309 76t272 -49q204 -97 271 -327t-18 -515
q-96 -323 -369 -471q-140 -76 -309 -76zM426 1057q-64 -105 -157 -105t-124 13l115 282q60 146 215 146q82 0 131 -27z" />
    <glyph glyph-name="Upsilontonos" unicode="&#x38e;" horiz-adv-x="1691" 
d="M853 1380q103 0 145 -36t61 -117l102 -383l215 399q35 63 94 103t174 38q115 0 214 -61l-547 -854l-80 -469h-402l78 467l-280 850q123 63 226 63zM426 1057q-64 -105 -157 -105t-124 13l115 282q60 146 215 146q82 0 131 -27z" />
    <glyph glyph-name="Omegatonos" unicode="&#x38f;" horiz-adv-x="1699" 
d="M592 311q-121 153 -121 397q0 108 43 239q43 133 130 233q190 220 521 221q254 0 402 -155q149 -155 149 -400t-133 -415q-47 -60 -110 -120h26q155 -1 183 -103q22 -78 -15 -208h-625l48 283q116 113 166 241t51 293q0 262 -170 262q-197 0 -257 -284q-48 -230 19 -437
q14 -43 37 -75l-47 -283h-324q-192 0 -192 168q0 61 24 143h195zM426 1057q-64 -105 -157 -105t-124 13l115 282q60 146 215 146q82 0 131 -27z" />
    <glyph glyph-name="iotadieresistonos" unicode="&#x390;" horiz-adv-x="669" 
d="M215 981q88 14 172 14q197 0 201 -168q0 -21 -4 -47l-72 -409q-6 -38 -6 -72q0 -88 69 -88q48 0 62 6l12 -184q-112 -53 -267 -53q-154 0 -219 68t-67 179q0 64 6 88zM584 1534q60 0 106 -27l-166 -309q-58 -106 -164 -104q-52 0 -79 12l106 283q29 77 83 111t114 34z
M127 1141q-66 0 -107 40q-42 41 -34 107t57 107t115 41t106 -41t32 -108q-7 -67 -55 -107t-114 -39zM770 1141q-66 0 -106 40q-40 41 -32 107q7 66 55 107t114 41q67 0 107 -41t33 -108t-56 -107t-115 -39z" />
    <glyph glyph-name="Alpha" unicode="&#x391;" horiz-adv-x="1351" 
d="M817 988q0 36 4 61h-6q-12 -47 -29 -91q-16 -42 -25 -68t-18 -44l-110 -271h213l-21 269q-2 28 -5 68t-3 76zM879 1384q229 0 260 -200l178 -1184h-391l-45 313h-351l-135 -313h-407l645 1341q118 43 246 43z" />
    <glyph glyph-name="Beta" unicode="&#x392;" horiz-adv-x="1161" 
d="M678 836q63 0 104 43t41 111q1 68 -27 94q-28 28 -77 28t-72 -4q-12 -74 -23 -134t-24 -138h78zM559 274q117 0 169 45t52 121q0 138 -127 138h-96q-11 -78 -25 -148t-26 -156h53zM537 0h-461l229 1356q217 26 377 26q406 0 494 -212q27 -65 26 -140q0 -203 -196 -309
q166 -103 168 -277q0 -354 -377 -422q-117 -22 -260 -22z" />
    <glyph glyph-name="Gamma" unicode="&#x393;" horiz-adv-x="1019" 
d="M1190 1374v-35q0 -136 -53 -217q-53 -82 -195 -82h-293l-174 -1040h-399l231 1374h883z" />
    <glyph glyph-name="uni0394" unicode="&#x394;" horiz-adv-x="1359" 
d="M823 976q0 62 4 85h-6q-12 -48 -28.5 -90.5t-25.5 -68t-17 -44.5l-234 -565h379l-64 563q-8 58 -8 120zM883 1384q227 0 260 -200l182 -1184h-1337l649 1341q118 43 246 43z" />
    <glyph glyph-name="Epsilon" unicode="&#x395;" horiz-adv-x="1071" 
d="M1036 143q0 -59 -24 -143h-936l231 1374h905q5 -146 -28 -204t-81 -85t-128 -26h-322l-37 -207h385l-51 -313h-385l-39 -228h318q192 0 192 -168z" />
    <glyph glyph-name="Zeta" unicode="&#x396;" horiz-adv-x="1146" 
d="M1110 143q0 -63 -25 -143h-1067l43 270q371 470 691 789h-566q7 219 131 289q49 27 127 26h709q73 0 97 -36t14 -95l-25 -158q-344 -348 -709 -774h388q192 0 192 -168z" />
    <glyph glyph-name="Eta" unicode="&#x397;" horiz-adv-x="1329" 
d="M1188 1386q213 0 213 -172q0 -18 -4 -38l-199 -1176h-399l90 535h-324l-90 -535h-399l231 1370q70 16 158 16q213 0 213 -172q0 -18 -4 -38l-56 -322h326l86 516q70 16 158 16z" />
    <glyph glyph-name="Theta" unicode="&#x398;" horiz-adv-x="1409" 
d="M725 283q150 0 239 154.5t89 408.5q0 113 -46.5 174t-136.5 61q-164 0 -253 -154.5t-89 -398.5q0 -245 197 -245zM714 -37q-299 0 -435 168.5t-136 417.5q0 154 45 305.5t137.5 273t232.5 197.5t309 76t272.5 -49t201 -168t97.5 -369q0 -154 -45 -305.5t-137.5 -273
t-232.5 -197.5t-309 -76zM926 549h-318l43 276h318z" />
    <glyph glyph-name="Iota" unicode="&#x399;" horiz-adv-x="606" 
d="M465 1386q213 0 213 -172q0 -18 -4 -38l-199 -1176h-399l231 1370q70 16 158 16z" />
    <glyph glyph-name="Kappa" unicode="&#x39a;" horiz-adv-x="1282" 
d="M586 627v28l-111 -655h-399l231 1370q70 16 158 16q213 0 213 -172q0 -18 -4 -38l-74 -433q32 104 162 261l182 223q129 159 277 158q149 -1 245 -101l-489 -582l299 -667q-136 -60 -243 -61t-166 32q-58 33 -97 123l-115 266q-69 162 -69 232z" />
    <glyph glyph-name="Lambda" unicode="&#x39b;" horiz-adv-x="1306" 
d="M786 976q0 38 5 58h-7q-9 -35 -26 -84t-25 -74.5t-14 -44.5l-307 -831h-424l610 1341q118 43 241 43q250 0 277 -200l156 -1184h-412l-65 829q-2 29 -5.5 69t-3.5 78z" />
    <glyph glyph-name="Mu" unicode="&#x39c;" horiz-adv-x="1607" 
d="M549 1384q107 0 155 -40t60 -105l106 -596h9l340 598q47 82 105 113q58 30 157 30t161 -24l-133 -1360h-381l78 688h-8l-256 -436h-266l-92 422h-9l-155 -674h-381l321 1360q82 24 189 24z" />
    <glyph glyph-name="Nu" unicode="&#x39d;" horiz-adv-x="1331" 
d="M1194 1384q207 0 207 -172q0 -14 -4 -38l-197 -1174h-321l-304 688l-116 -688h-383l231 1368q83 16 172 16q155 0 207 -135l238 -618l123 737q66 16 147 16z" />
    <glyph glyph-name="Xi" unicode="&#x39e;" horiz-adv-x="1071" 
d="M1028 141q0 -58 -31 -141h-747q-102 0 -148.5 46.5t-46.5 103.5t33 176h748q150 0 171 -63.5t21 -121.5zM467 1374h747q0 -146 -55.5 -235.5t-208.5 -89.5h-747q5 158 59.5 241.5t204.5 83.5zM977 532h-750l54 324h747z" />
    <glyph glyph-name="Omicron" unicode="&#x39f;" horiz-adv-x="1409" 
d="M856 1081q-136 0 -221 -160q-86 -160 -84 -403q0 -109 45 -172t121 -63q144 0 229 160q86 160 85 399t-175 239zM714 -37q-170 0 -274 49q-204 96 -266 317q-31 105 -31 239t45 286q46 152 138 274t232 197q140 76 309 76t273 -49q206 -97 267 -318q31 -106 31 -240
t-46 -284q-46 -151 -137 -273q-92 -122 -232 -198t-309 -76z" />
    <glyph glyph-name="Pi" unicode="&#x3a0;" horiz-adv-x="1314" 
d="M1184 0h-400l177 1040h-310l-176 -1040h-399l231 1374h1108z" />
    <glyph glyph-name="Rho" unicode="&#x3a1;" horiz-adv-x="1169" 
d="M653 715q78 1 130 65t53 191q0 59 -35 96t-81 37t-73 -2l-65 -387h71zM738 1384q106 0 206 -28q295 -84 295 -370q0 -285 -172 -426q-154 -126 -444 -126h-86l-74 -434h-387l231 1360q187 24 431 24z" />
    <glyph glyph-name="Sigma" unicode="&#x3a3;" horiz-adv-x="1140" 
d="M1106 195.5q0 -115.5 -25 -195.5h-1050l41 270l415 445l-258 389l25 158q10 59 43 85.5t109 26.5h870v-33q0 -201 -81 -241.5t-155 -40.5h-372l235 -357l-362 -391h372q193 0 193 -115.5z" />
    <glyph glyph-name="Tau" unicode="&#x3a4;" horiz-adv-x="1202" 
d="M1126 1040h-178l-176 -1040h-401l176 1040h-383q5 156 38 218q34 61 82 89t132 27h958q5 -153 -40 -232q-58 -102 -208 -102z" />
    <glyph glyph-name="Upsilon" unicode="&#x3a5;" horiz-adv-x="1251" 
d="M413 1380q103 0 145 -36t60 -117l103 -383l215 399q35 63 94 103t174 38q115 0 213 -61l-547 -854l-79 -469h-402l78 467l-281 850q124 63 227 63z" />
    <glyph glyph-name="Phi" unicode="&#x3a6;" horiz-adv-x="1554" 
d="M1014 485q97 12 152 91t56 180q1 102 -40 147t-95 51zM508 690q0 -102 42 -150t95 -55l74 469q-95 -12 -153 -87t-58 -177zM131 670q0 262 190 417q167 138 445 160l33 209q77 14 152 14t115 -22t57 -54t17 -64t-5 -83q211 -24 337 -148q125 -123 123 -319
q0 -267 -177 -418t-449 -167l-31 -195h-369l29 193q-211 24 -339 151t-128 326z" />
    <glyph glyph-name="Chi" unicode="&#x3a7;" horiz-adv-x="1230" 
d="M1198 27q-99 -46 -248 -54q-94 -2 -152 32t-91 136l-70 224l-217 -365h-451l498 694l-274 619q135 63 235 66t157 -29q56 -33 91 -129l82 -240l143 256q85 149 264 147q122 0 232 -69l-477 -653z" />
    <glyph glyph-name="Psi" unicode="&#x3a8;" horiz-adv-x="1591" 
d="M1473 1384q210 0 210 -159q0 -21 -4 -45l-63 -349q-82 -466 -606 -487l-58 -344h-381l58 342q-221 31 -327.5 156t-106.5 319q0 80 14 152l72 401q77 14 153 14q203 0 203 -157q0 -23 -4 -47l-45 -252q-4 -27 -9.5 -58.5t-5.5 -75.5t21.5 -90.5t83.5 -60.5l127 727
q77 14 145 14q207 0 207 -159q0 -21 -4 -45l-94 -537q82 10 123 83t63 202l78 442q77 14 150 14z" />
    <glyph glyph-name="Omega" unicode="&#x3a9;" horiz-adv-x="1388" 
d="M279 311q-121 153 -121 397q0 108 43 239.5t182.5 292.5t468.5 161q254 0 402.5 -156t148.5 -399t-90 -359t-154 -176h27q192 0 192 -113.5t-24 -197.5h-625l47 283q117 113 167 240.5t50 293.5q0 262 -170 262q-195 0 -235.5 -187t-40.5 -256q0 -247 76 -353l-48 -283
h-323q-193 0 -193 112t25 199h195z" />
    <glyph glyph-name="Iotadieresis" unicode="&#x3aa;" horiz-adv-x="606" 
d="M465 1386q213 0 213 -172q0 -18 -4 -38l-199 -1176h-399l231 1370q70 16 158 16zM920 1673q0 -94 -56 -139t-134 -45q-77 0 -116 44t-39 95q-1 94 57 139t134 45t115 -44t39 -95zM463 1673q0 -94 -57 -139q-56 -45 -134 -45t-116 44t-37 95q0 94 56 139t132 45t116 -44
t40 -95z" />
    <glyph glyph-name="Upsilondieresis" unicode="&#x3ab;" horiz-adv-x="1251" 
d="M413 1380q103 0 145 -36t60 -117l103 -383l215 399q35 63 94 103t174 38q115 0 213 -61l-547 -854l-79 -469h-402l78 467l-281 850q124 63 227 63zM1227 1673q-1 -94 -57 -139t-133 -45t-115 44t-39 95q0 94 57 139t133 45t115 -44t39 -95zM770 1673q0 -94 -57 -139
t-134 -45t-115 44t-38 95q0 94 56 139t132 45t116 -44t40 -95z" />
    <glyph glyph-name="alphatonos" unicode="&#x3ac;" horiz-adv-x="1206" 
d="M569 268q76 0 95 94l55 324q-20 14 -60 14t-74 -32q-67 -62 -88 -179q-11 -55 -12 -100q0 -121 84 -121zM94 352q0 278 168 469t459 193q107 0 207 -22t217 -93l-82 -491q-12 -69 -12 -105q0 -92 69 -92q48 0 62 6l12 -184q-112 -53 -287 -53t-239 137
q-111 -146 -281 -146q-125 0 -209 98q-84 99 -84 283zM895 1192q-60 -88 -158 -88q-97 0 -139 29l115 241q61 125 221 125q73 0 147 -45z" />
    <glyph glyph-name="epsilontonos" unicode="&#x3ad;" horiz-adv-x="1005" 
d="M549 676q0 -53 59 -53h246l-39 -238h-250q-90 0 -90 -71q0 -70 143 -70t261 86q86 -58 86 -156t-124 -152q-113 -51 -296 -53q-318 0 -431 146q-42 53 -42 138t51 151t137 102q-49 24 -74 78q-26 54 -26 104q0 177 174 262q130 63 322 65q192 1 290 -57t98 -149
q0 -47 -26 -92t-74 -72q-36 47 -102 77t-133 30q-160 0 -160 -76zM795 1192q-60 -88 -158 -88q-97 0 -139 29l114 241q61 125 222 125q70 0 147 -45z" />
    <glyph glyph-name="etatonos" unicode="&#x3ae;" horiz-adv-x="1101" 
d="M862 1016q124 0 186 -77t62 -196q0 -62 -20 -170l-132 -776q-4 -29 -8 -57t-4 -78q0 -49 12 -88q-94 -43 -207 -43q-112 0 -158 41t-46 123q0 43 4 63l143 844q4 20 4 45t-11 39t-51 14q-66 0 -85 -94l-102 -606h-400l166 979q70 16 158 16q181 0 205 -102
q106 123 284 123zM870 1499q71 0 148 -45l-187 -262q-60 -88 -157 -88t-139 29l114 241q61 125 221 125z" />
    <glyph glyph-name="iotatonos" unicode="&#x3af;" horiz-adv-x="669" 
d="M215 981q88 14 172 14q197 0 201 -168q0 -21 -4 -47l-72 -409q-6 -38 -6 -72q0 -88 69 -88q48 0 62 6l12 -184q-112 -53 -267 -53q-154 0 -219 68t-67 179q0 64 6 88zM543 1192q-60 -88 -158 -88q-97 0 -139 29l114 241q61 125 222 125q73 0 147 -45z" />
    <glyph glyph-name="upsilondieresistonos" unicode="&#x3b0;" horiz-adv-x="1067" 
d="M358 1016q213 0 213 -158q0 -27 -6 -57l-69 -408q-4 -24 -4 -52q0 -29 9 -51t43 -22t56 23t35 98l100 600q89 27 183 27q190 0 190 -160q0 -27 -4 -55l-62 -361q-37 -227 -159 -349q-121 -122 -351 -122q-230 1 -330 103q-99 102 -100 301q0 67 15 139l80 477
q89 27 161 27zM806 1534q60 0 107 -27l-165 -309q-58 -106 -164 -104q-50 0 -80 12l106 283q29 77 83 111q53 34 113 34zM350 1141q-66 0 -106 40q-40 41 -34 107q7 66 56 107t115 41q65 0 105 -41t33 -108t-55 -107t-114 -39zM993 1141q-65 0 -105 40q-40 41 -33 107
t55 107t114 41t106 -41t34 -108q-7 -67 -56 -107t-115 -39z" />
    <glyph glyph-name="alpha" unicode="&#x3b1;" horiz-adv-x="1206" 
d="M569 268q76 0 95 94l55 324q-20 14 -60 14t-74 -31.5t-67 -102t-33 -184.5t84 -114zM94 352q0 278 169 470t458 192q106 0 206.5 -21.5t217.5 -93.5l-82 -491q-12 -69 -12 -105q0 -92 69 -92q50 0 62 6l12 -184q-112 -53 -288 -53t-238 137q-111 -146 -281 -146
q-127 0 -210 98.5t-83 282.5z" />
    <glyph glyph-name="beta" unicode="&#x3b2;" horiz-adv-x="1232" 
d="M821 430q0 74 -33.5 119t-117.5 45h-21l45 264h21q78 0 117.5 51.5t39.5 118.5q0 129 -112 129q-119 0 -144 -141l-114 -721q48 -41 135 -41q88 0 136 51t48 125zM768 1468q220 0 346.5 -89t126.5 -259q0 -123 -59.5 -214t-175.5 -136q102 -31 159.5 -123t57.5 -201
q0 -218 -129.5 -347.5t-366.5 -129.5q-84 0 -156.5 23.5t-107.5 52.5l-78 -491h-399l219 1380q58 379 253.5 456.5t309.5 77.5z" />
    <glyph glyph-name="gamma" unicode="&#x3b3;" horiz-adv-x="1120" 
d="M223 200q0 323 -100 754q94 41 194 41q99 0 143 -25.5t71.5 -88t27.5 -224.5t-16 -319h8l207 438q61 124 113.5 171.5t157.5 47.5t204 -41l-598 -1007q-14 -84 -33.5 -189.5t-36.5 -203.5h-397q55 323 55 646z" />
    <glyph glyph-name="delta" unicode="&#x3b4;" horiz-adv-x="1105" 
d="M449 895q-117 104 -117 261t131 234.5t295 77.5t261 -56t97 -157t-127 -174q-49 57 -90 83t-111 26q-102 0 -102 -64q0 -51 50 -98t141 -117q233 -166 233 -404t-149 -388t-410 -150q-210 0 -333.5 116t-123.5 325q0 339 355 485zM485 422q0 -154 90 -154q76 0 106 80
t30 132q0 185 -84 239q-108 -66 -125 -162t-17 -135z" />
    <glyph glyph-name="epsilon" unicode="&#x3b5;" horiz-adv-x="1005" 
d="M549 676q0 -53 59 -53h246l-39 -238h-250q-90 0 -90 -71q0 -70 142 -70t262 86q86 -58 86 -154q0 -147 -167 -177t-252 -30q-199 0 -336.5 66t-137.5 211q0 92 51 157.5t137 102.5q-76 37 -88 98.5t-12 83.5q0 177 155 252.5t344 75.5t287 -58t98 -149q0 -47 -26.5 -92
t-73.5 -72q-35 47 -101.5 77t-133.5 30q-160 0 -160 -76z" />
    <glyph glyph-name="zeta" unicode="&#x3b6;" horiz-adv-x="985" 
d="M575 -136q0 50 -49.5 78.5t-167.5 76.5q-264 107 -264 376q0 217 150 390t395 348h-403q5 149 36 203.5t76 80t121 25.5h551q70 0 105.5 -24t35.5 -70t-4 -66l-14 -82q-51 -41 -119 -93t-190 -155t-227 -237t-105 -260q0 -82 36.5 -127t164.5 -97q129 -52 187 -123
t58 -174q0 -269 -424 -340l-63 158q49 16 81.5 39t32.5 73z" />
    <glyph glyph-name="eta" unicode="&#x3b7;" horiz-adv-x="1101" 
d="M373 995q181 0 205 -102q37 43 105.5 83t156.5 40t135 -21.5t91 -78t44 -173.5q0 -62 -20 -170l-132 -776q-4 -29 -8 -57.5t-4 -77t12 -88.5q-94 -43 -207 -43q-112 0 -158 41t-46 123q0 43 4 63l143 844q4 20 4 45t-11 39t-51 14q-69 0 -85 -94l-102 -606h-400l166 979
q70 16 158 16z" />
    <glyph glyph-name="theta" unicode="&#x3b8;" horiz-adv-x="1177" 
d="M840 1002q0 167 -99 167q-141 0 -198 -317h288q9 75 9 150zM494 429q0 -165 104 -165q68 0 128 87.5t71 252.5h-293q-10 -99 -10 -175zM578 -31q-146 0 -228 49.5t-154.5 160.5t-72.5 310q0 417 170 698t498 281q213 0 316 -160.5t103 -363.5t-38.5 -380t-119.5 -309
t-204.5 -209t-269.5 -77z" />
    <glyph glyph-name="iota" unicode="&#x3b9;" horiz-adv-x="669" 
d="M530 958.5q58 -36.5 58 -131.5q0 -21 -4 -47l-72 -409q-6 -38 -6 -72q0 -88 69 -88q50 0 62 6l12 -184q-112 -53 -267 -53q-154 0 -219 68.5t-67 178.5q0 64 6 88l113 666q88 14 172 14q85 0 143 -36.5z" />
    <glyph glyph-name="kappa" unicode="&#x3ba;" horiz-adv-x="1148" 
d="M359 995q134 0 178.5 -49t44.5 -123q0 -17 -4 -39l-33 -202q20 49 80 129l137 172q49 61 102.5 91t131.5 30t128 -25t95 -66l-349 -411l127 -244q35 -66 68 -120t84 -91q-113 -70 -262 -70q-94 0 -145.5 34t-82.5 91l-86 158q-46 88 -53 176l-74 -436h-397l164 979
q71 16 146 16z" />
    <glyph glyph-name="lambda" unicode="&#x3bb;" horiz-adv-x="1202" 
d="M342 1126q-61 52 -61 150q0 92 74.5 142t183.5 50q195 0 274.5 -92.5t108.5 -290.5l94 -749q15 -125 92 -125q49 0 61 6l13 -184q-112 -53 -215 -53t-191.5 38t-109.5 224l-37 368h-8l-244 -610h-387l459 965h141l-6 73q-9 131 -107 131q-70 0 -135 -43z" />
    <glyph glyph-name="uni03BC" unicode="&#x3bc;" horiz-adv-x="1204" 
d="M1118 211q48 0 62 6l12 -184q-53 -25 -103.5 -39t-132.5 -14q-137 0 -198 114q-64 -112 -185 -112q-88 0 -147 63l-84 -491h-369l242 1435q89 27 183 27t142 -41t48 -117v-20q0 -21 -4 -37l-64 -367q-8 -40 -8 -67q0 -74 61 -74q39 0 58.5 28.5t32.5 104.5l94 563
q89 27 183 27q189 0 189 -160q0 -23 -4 -55l-65 -393q-12 -69 -12 -105q0 -92 69 -92z" />
    <glyph glyph-name="nu" unicode="&#x3bd;" horiz-adv-x="1058" 
d="M340 995q180 0 188 -221l13 -428h4l166 447q31 88 97 145t142 57q122 0 221 -41l-497 -966h-385l-166 966q87 41 217 41z" />
    <glyph glyph-name="xi" unicode="&#x3be;" horiz-adv-x="1030" 
d="M623 1032q0 -121 118 -121h273l-49 -309h-279q-84 0 -135 -44t-51 -118t52 -116.5t180 -94.5t185.5 -122t57.5 -173q0 -270 -420 -340l-63 158q49 16 81.5 39t32.5 73t-49 79.5t-171 79.5t-207 147.5t-85 239.5t75 233.5t198 136.5q-89 57 -107 145.5t-18 123.5
q0 217 155.5 318t386.5 101q159 0 265 -57q104 -60 104 -156q0 -121 -137 -182q-41 57 -86 87t-121 30q-186 0 -186 -158z" />
    <glyph glyph-name="omicron" unicode="&#x3bf;" horiz-adv-x="1110" 
d="M553 -31q-237 0 -348 117t-111 309q0 266 162 443q162 178 428 178q212 0 324 -121t110 -303q0 -123 -36 -236q-74 -234 -288 -336q-108 -52 -241 -51zM483 389q0 -127 90 -127q78 0 120 128q32 98 32 174q0 77 -17 117q-18 40 -66 40t-78 -36q-81 -97 -81 -296z" />
    <glyph glyph-name="pi" unicode="&#x3c0;" horiz-adv-x="1341" 
d="M1141 298q0 -87 69 -87q50 0 62 6l12 -184q-112 -53 -263 -53q-150 0 -211.5 68.5t-64.5 178.5q0 60 7 88l61 369h-131l-115 -684h-395l115 684h-162l51 305h1239l-51 -305h-166l-51 -313q-6 -37 -6 -73z" />
    <glyph glyph-name="rho" unicode="&#x3c1;" horiz-adv-x="1120" 
d="M566 266q42 0 73 34t56.5 100t25.5 156q0 89 -14.5 123t-61.5 34t-71.5 -50.5t-41.5 -142.5l-36 -225q28 -29 70 -29zM1128 567q0 -250 -118 -422t-346 -172q-120 0 -207 86l-86 -505h-398l164 960q87 502 555 502q196 0 316 -123.5t120 -325.5z" />
    <glyph glyph-name="sigma1" unicode="&#x3c2;" horiz-adv-x="956" 
d="M485 458q0 -102 40.5 -152t146.5 -98t153 -113.5t47 -160.5q0 -269 -419 -340l-64 158q49 16 82 39t33 66t-26.5 67t-86.5 52q-297 136 -297 402q0 281 157 459.5t425 178.5q72 0 148.5 -22.5t117.5 -63.5q76 -76 76 -156t-60.5 -124t-148.5 -54q-36 131 -139 131
q-77 0 -131 -83.5t-54 -185.5z" />
    <glyph glyph-name="sigma" unicode="&#x3c3;" horiz-adv-x="1161" 
d="M702 585q0 50 -22 99h-33q-86 0 -125 -88.5t-39 -171.5q0 -82 15.5 -119t60.5 -37t71.5 34t43 82t22.5 99.5t6 101.5zM1071 400q0 -86 -37 -167t-144 -172.5t-334 -91.5t-344.5 122.5t-117.5 305.5q0 269 169 430.5t423 161.5h545l-49 -305h-197q53 -72 69.5 -135
t16.5 -149z" />
    <glyph glyph-name="tau" unicode="&#x3c4;" horiz-adv-x="1056" 
d="M881 385q159 -45 159 -167q0 -60 -23.5 -97t-70.5 -75q-95 -77 -272 -77q-261 0 -314 125.5t-53 209.5t12 132l41 248h-258l52 305h976l-51 -305h-325l-43 -281q-2 -10 -2 -26q0 -70 57 -70q41 0 64.5 18.5t50.5 59.5z" />
    <glyph glyph-name="upsilon" unicode="&#x3c5;" horiz-adv-x="1067" 
d="M358 1016q213 0 213 -158q0 -27 -6 -57l-69 -408q-4 -24 -4 -52t9 -50.5t43 -22.5t56.5 22.5t34.5 98.5l100 600q89 27 183 27q190 0 190 -160q0 -27 -4 -55l-62 -361q-57 -347 -226 -409t-292 -62q-223 0 -322.5 102.5t-99.5 301.5q0 58 15 139l80 477q89 27 161 27z
" />
    <glyph glyph-name="phi" unicode="&#x3c6;" horiz-adv-x="1488" 
d="M1139 542q0 72 -35 122.5t-92 54.5l-76 -461q139 12 171 112t32 172zM453 438q0 -72 34.5 -123t92.5 -55l75 461q-93 -8 -147.5 -82t-54.5 -201zM887 1325q196 0 196 -166q0 -21 -4 -49l-20 -106q210 -27 324 -151.5t114 -311.5q0 -248 -157.5 -397.5t-450.5 -174.5
l-68 -415h-358l69 421q-217 35 -327.5 158t-110.5 305q0 251 159 400.5t449 171.5l52 301q60 14 133 14z" />
    <glyph glyph-name="chi" unicode="&#x3c7;" horiz-adv-x="1189" 
d="M349 997q114 0 166 -42t73 -107l86 -258l157 258q89 149 267 149q86 0 130 -12t85 -31l-482 -680l146 -401q36 -106 91 -106q30 0 60 6l13 -185q-112 -53 -244 -53q-181 0 -222.5 94.5t-53.5 139.5l-60 202l-262 -417h-412l514 733l-262 661q96 49 210 49z" />
    <glyph glyph-name="psi" unicode="&#x3c8;" horiz-adv-x="1509" 
d="M887 1325q209 0 209 -166q0 -21 -4 -49l-144 -844q66 4 100.5 42t45.5 91l98 590q89 27 179 27q179 0 179 -158v-20q0 -21 -4 -37l-59 -361q-75 -451 -590 -477l-70 -409h-366l71 417q-221 14 -325.5 125t-104.5 295q0 69 11 121l80 477q89 27 178 27q180 0 180 -156v-22
q0 -21 -4 -37l-66 -393q-2 -6 -2 -8v-19q0 -39 22.5 -75t80.5 -40l176 1045q66 14 129 14z" />
    <glyph glyph-name="omega" unicode="&#x3c9;" horiz-adv-x="1558" 
d="M1550 492q0 -523 -463 -523q-203 0 -290 170q-113 -170 -332 -170q-182 0 -274.5 107t-92.5 316q0 210 91.5 348.5t179.5 196.5t186 58t148.5 -46t50.5 -152q-267 -55 -267 -404q0 -125 68 -125q53 0 74.5 45t32.5 123l38 238q48 12 138 12t143 -47t39 -127l-23 -135
q-8 -47 12.5 -78t59.5 -31q105 0 105 229t-160 306q23 106 69.5 149t116.5 43t120 -25.5t104.5 -80t90 -166.5t35.5 -231z" />
    <glyph glyph-name="iotadieresis" unicode="&#x3ca;" horiz-adv-x="669" 
d="M215 981q88 14 172 14q197 0 201 -168q0 -21 -4 -47l-72 -409q-6 -38 -6 -72q0 -88 69 -88q48 0 62 6l12 -184q-112 -53 -267 -53q-154 0 -219 68t-67 179q0 64 6 88zM848 1313q0 -94 -56 -139q-56 -46 -134 -46t-116 44t-38 96q0 94 57 139t133 45t115 -44t39 -95z
M391 1313q0 -94 -57 -139q-57 -46 -134 -46t-115 44t-38 96q0 94 56 139q57 45 133 45t116 -44t39 -95z" />
    <glyph glyph-name="upsilondieresis" unicode="&#x3cb;" horiz-adv-x="1067" 
d="M358 1016q213 0 213 -158q0 -27 -6 -57l-69 -408q-4 -24 -4 -52q0 -29 9 -51t43 -22t56 23t35 98l100 600q89 27 183 27q190 0 190 -160q0 -27 -4 -55l-62 -361q-37 -227 -159 -349q-121 -122 -351 -122q-230 1 -330 103q-99 102 -100 301q0 67 15 139l80 477
q89 27 161 27zM1096 1313q0 -94 -56 -139q-56 -46 -134 -46t-116 44t-38 96q0 94 57 139t133 45t115 -44t39 -95zM639 1313q0 -94 -57 -139q-56 -46 -134 -46t-116 44t-37 96q0 94 56 139t132 45t116 -44t40 -95z" />
    <glyph glyph-name="omicrontonos" unicode="&#x3cc;" horiz-adv-x="1110" 
d="M553 -31q-237 0 -348 117t-111 309q0 266 162 443q162 178 428 178q212 0 324 -121t110 -303q0 -123 -36 -236q-74 -234 -288 -336q-108 -52 -241 -51zM483 389q0 -127 90 -127q78 0 120 128q32 98 32 174q0 77 -17 117q-18 40 -66 40t-78 -36q-81 -97 -81 -296z
M821 1192q-60 -88 -158 -88q-97 0 -139 29l115 241q61 125 221 125q71 0 148 -45z" />
    <glyph glyph-name="upsilontonos" unicode="&#x3cd;" horiz-adv-x="1067" 
d="M358 1016q213 0 213 -158q0 -27 -6 -57l-69 -408q-4 -24 -4 -52q0 -29 9 -51t43 -22t56 23t35 98l100 600q89 27 183 27q190 0 190 -160q0 -27 -4 -55l-62 -361q-37 -227 -159 -349q-121 -122 -351 -122q-230 1 -330 103q-99 102 -100 301q0 67 15 139l80 477
q89 27 161 27zM766 1192q-60 -88 -158 -88q-97 0 -139 29l115 241q61 125 221 125q73 0 147 -45z" />
    <glyph glyph-name="omegatonos" unicode="&#x3ce;" horiz-adv-x="1558" 
d="M555 268q53 0 75 45t32 123l38 238q48 12 138 12t142 -47q54 -47 40 -127l-23 -135q-7 -47 13 -78t57 -31q61 0 89 83q15 49 18 159q0 217 -160 293q23 106 69 149q47 43 117 43q70 1 120 -25q138 -69 197 -253q33 -107 33 -225q0 -381 -252 -486q-88 -37 -211 -37
q-203 0 -290 170q-113 -170 -332 -170q-182 0 -275 107q-92 107 -92 295q0 104 31 215q66 235 240 351q88 58 186 58t148 -46t51 -152q-265 -54 -267 -404q0 -125 68 -125zM859 1100q-81 0 -126 28l115 242q61 125 221 125q71 0 148 -45l-187 -262q-60 -88 -171 -88z" />
    <glyph glyph-name="uni0400" unicode="&#x400;" horiz-adv-x="1071" 
d="M1036 143q0 -59 -24 -143h-936l231 1374h905q5 -146 -28 -204t-81 -85t-128 -26h-322l-37 -207h385l-51 -313h-385l-39 -228h318q192 0 192 -168zM467 1663q73 133 168 133t158 -63l190 -172q-65 -97 -154 -97q-55 0 -98 29z" />
    <glyph glyph-name="afii10023" unicode="&#x401;" horiz-adv-x="1071" 
d="M1036 143q0 -59 -24 -143h-936l231 1374h905q5 -146 -28 -204t-81 -85t-128 -26h-322l-37 -207h385l-51 -313h-385l-39 -228h318q192 0 192 -168zM1198 1673q0 -94 -56 -139t-133 -45t-116 44t-39 95q0 94 57 139t133 45t116 -44q38 -44 38 -95zM741 1673q0 -94 -57 -139
t-134 -45t-115 44t-38 95q1 94 57 139t132 45t116 -44t39 -95z" />
    <glyph glyph-name="afii10051" unicode="&#x402;" horiz-adv-x="1499" 
d="M901 144q0 68 21 122q78 0 130 50.5t52 134.5t-43 116.5t-125 32.5h-26q-27 0 -38 -2l-100 -598h-399l174 1040h-383q5 158 38.5 218.5t82.5 88t131 27.5h968v-35q0 -137 -53 -218t-194 -81h-193l-31 -174q27 4 33 4h74q223 0 352 -104t129 -336q0 -181 -113.5 -311.5
t-297.5 -130.5q-86 0 -137.5 44t-51.5 112z" />
    <glyph glyph-name="afii10052" unicode="&#x403;" horiz-adv-x="1019" 
d="M1190 1374v-35q0 -136 -53 -217q-53 -82 -195 -82h-293l-174 -1040h-399l231 1374h883zM890 1796q77 0 119 -40t70 -93l-295 -170q-53 -29 -102 -29q-84 0 -147 97l206 172q72 63 149 63z" />
    <glyph glyph-name="afii10053" unicode="&#x404;" horiz-adv-x="1263" 
d="M1116 934q-76 147 -227 147q-125 0 -199 -67t-115 -178h488l-43 -297h-483q0 -135 62.5 -192.5t166.5 -57.5t181 47t126 115q164 -77 164 -197q0 -85 -80 -156q-157 -135 -448 -135t-428.5 165t-137.5 409q0 319 147.5 534.5t304.5 272.5t280 57t248 -40t158.5 -110.5
t33.5 -111.5q0 -82 -55.5 -128t-143.5 -77z" />
    <glyph glyph-name="afii10054" unicode="&#x405;" horiz-adv-x="1071" 
d="M690 1077q-58 0 -78 -20q-20 -19 -20 -59t44 -74t118 -77q167 -100 235 -196t69 -222q2 -230 -150 -347t-382 -117q-158 0 -277 45q-192 73 -192 219q0 123 140 224q137 -156 315 -156q119 0 119 100q0 41 -34 74t-111 77t-133 87q-117 90 -154 205q-21 61 -21 150
q-1 185 141 298q141 113 371 113q119 0 214 -33q210 -73 210 -217q0 -72 -45 -129t-131 -86q-113 141 -248 141z" />
    <glyph glyph-name="afii10055" unicode="&#x406;" horiz-adv-x="606" 
d="M465 1386q213 0 213 -172q0 -18 -4 -38l-199 -1176h-399l231 1370q70 16 158 16z" />
    <glyph glyph-name="afii10056" unicode="&#x407;" horiz-adv-x="606" 
d="M465 1386q213 0 213 -172q0 -18 -4 -38l-199 -1176h-399l231 1370q70 16 158 16zM920 1673q0 -94 -56 -139t-134 -45q-77 0 -116 44t-39 95q-1 94 57 139t134 45t115 -44t39 -95zM463 1673q0 -94 -57 -139q-56 -45 -134 -45t-116 44t-37 95q0 94 56 139t132 45t116 -44
t40 -95z" />
    <glyph glyph-name="afii10057" unicode="&#x408;" horiz-adv-x="739" 
d="M600 1386q213 0 213 -172q0 -18 -4 -38l-119 -699q-42 -245 -128 -364q-107 -150 -316 -150q-132 1 -188 61t-56 144q0 35 12 76q90 0 136 13t81 50q34 37 54 133l157 930q70 16 158 16z" />
    <glyph glyph-name="afii10058" unicode="&#x409;" horiz-adv-x="2050" 
d="M1436 285q215 0 215 213q0 59 -31 101t-98 42h-18q-19 0 -42 -4l-57 -352h31zM8 142q0 62 17 114h22q152 0 260 146t191 491l114 479h975l-76 -452q16 2 21 2h43q324 0 403.5 -144.5t79.5 -268.5q0 -248 -158.5 -378.5t-445.5 -130.5h-498l181 1071h-213l-54 -240
q-101 -452 -257 -654t-400 -202q-102 0 -153.5 52.5t-51.5 114.5z" />
    <glyph glyph-name="afii10059" unicode="&#x40a;" horiz-adv-x="1869" 
d="M1278 285q203 0 203 188q0 45 -30.5 84t-94.5 39h-20q-21 0 -44 -4l-49 -307h35zM1448 881q65 0 150 -25t181.5 -102t96.5 -267q0 -487 -594 -487h-504l94 559h-303l-94 -559h-399l231 1370q70 16 158 16q213 0 213 -172q0 -18 -4 -38l-51 -302h305l82 496q70 16 157 16
q213 0 213 -172q0 -18 -4 -38l-51 -299q58 4 123 4z" />
    <glyph glyph-name="afii10060" unicode="&#x40b;" horiz-adv-x="1562" 
d="M1203 874q165 0 244 -82.5t79 -224.5q0 -32 -10 -112l-72 -455h-410l60 383q8 46 8 74q0 108 -84 108q-49 0 -99 -43q-49 -43 -63 -75.5t-22 -79.5l-62 -367h-399l174 1040h-383q5 158 38.5 218.5t82.5 88t131 27.5h968v-35q0 -137 -53 -218t-194 -81h-193l-49 -295
q143 129 308 129z" />
    <glyph glyph-name="afii10061" unicode="&#x40c;" horiz-adv-x="1425" 
d="M1307 1382q215 0 221 -184q0 -56 -23 -111q-119 0 -194 -98l-58 -76q-59 -79 -111 -119t-120 -65q52 -25 88 -70t82 -147l201 -477q-65 -32 -139 -47q-244 -47 -331 87q-19 30 -34 64l-84 209q-35 90 -72 128t-96 56l53 338q92 24 153 98q24 28 52 68l106 154
q74 106 148 149t158 43zM465 1386q213 0 213 -172q0 -18 -4 -38l-199 -1176h-399l231 1370q70 16 158 16zM897 1464q-84 0 -147 97l206 172q71 63 149 63q77 0 119 -40t70 -93l-295 -170q-53 -29 -102 -29z" />
    <glyph glyph-name="uni040D" unicode="&#x40d;" horiz-adv-x="1331" 
d="M465 1386q211 0 211 -172q0 -18 -4 -38l-94 -523l430 580q110 151 232 151t187 -14l-225 -1370h-395l125 696l-520 -696h-336l231 1370q70 16 158 16zM594 1663q73 133 168 133t158 -63l190 -172q-65 -97 -154 -97q-55 0 -98 29z" />
    <glyph glyph-name="afii10062" unicode="&#x40e;" horiz-adv-x="1251" 
d="M435 1384q114 0 160 -41t67 -129l92 -409l172 409q39 92 104 132q66 38 138 38q154 -1 249 -53l-506 -903q-133 -239 -239 -337q-139 -126 -338 -126q-150 0 -213 53t-63 143t94 177q55 -60 153 -62q57 0 92 29t64 76l41 70l-297 880q116 53 230 53zM574 1829
q51 0 68 -24q17 -25 40 -65t55 -60q33 -19 87 -19t85 20q32 20 66 65q33 46 55 64q47 37 136 6q38 -13 59 -28q-65 -222 -256 -301q-66 -27 -146 -27q-164 0 -264 84t-104 244q68 41 119 41z" />
    <glyph glyph-name="afii10145" unicode="&#x40f;" horiz-adv-x="1312" 
d="M1171 1386q213 0 213 -172q0 -18 -4 -38l-198 -1176h-353l-61 -383h-399l59 383h-352l231 1370q70 16 158 16q213 0 213 -172q0 -18 -4 -38l-148 -865h308l180 1059q70 16 157 16z" />
    <glyph glyph-name="afii10017" unicode="&#x410;" horiz-adv-x="1351" 
d="M817 988q0 36 4 61h-6q-12 -47 -29 -91q-16 -42 -25 -68t-18 -44l-110 -271h213l-21 269q-2 28 -5 68t-3 76zM879 1384q229 0 260 -200l178 -1184h-391l-45 313h-351l-135 -313h-407l645 1341q118 43 246 43z" />
    <glyph glyph-name="afii10018" unicode="&#x411;" horiz-adv-x="1144" 
d="M715 868q55 0 143 -20.5t190.5 -90.5t102.5 -263q0 -244 -158.5 -369t-443.5 -125h-473l231 1374h867v-35q0 -132 -52.5 -209t-195.5 -77h-289l-35 -189q58 4 113 4zM547 276q184 0 184 195q0 53 -28.5 91t-86.5 38h-17q-17 0 -40 -4l-53 -320h41z" />
    <glyph glyph-name="afii10019" unicode="&#x412;" horiz-adv-x="1161" 
d="M678 836q63 0 104 43t41 111q1 68 -27 94q-28 28 -77 28t-72 -4q-12 -74 -23 -134t-24 -138h78zM559 274q117 0 169 45t52 121q0 138 -127 138h-96q-11 -78 -25 -148t-26 -156h53zM537 0h-461l229 1356q217 26 377 26q406 0 494 -212q27 -65 26 -140q0 -203 -196 -309
q166 -103 168 -277q0 -354 -377 -422q-117 -22 -260 -22z" />
    <glyph glyph-name="afii10020" unicode="&#x413;" horiz-adv-x="1019" 
d="M1190 1374v-35q0 -136 -53.5 -217.5t-194.5 -81.5h-293l-174 -1040h-399l231 1374h883z" />
    <glyph glyph-name="afii10021" unicode="&#x414;" horiz-adv-x="1515" 
d="M1083 1071h-206l-39 -160q-61 -234 -107.5 -360.5t-134.5 -243.5h358zM997 -383l60 383h-660l-67 -383h-398l119 690h117q189 154 317 694l90 371h949l-170 -1065h151l-110 -690h-398z" />
    <glyph glyph-name="afii10022" unicode="&#x415;" horiz-adv-x="1071" 
d="M1036 143q0 -59 -24 -143h-936l231 1374h905q5 -146 -28 -204t-81 -85t-128 -26h-322l-37 -207h385l-51 -313h-385l-39 -228h318q192 0 192 -168z" />
    <glyph glyph-name="afii10024" unicode="&#x416;" horiz-adv-x="2166" 
d="M435 1386q101 0 161.5 -44t103.5 -121l95 -174q50 -103 72 -129.5t46 -47.5l-53 -338q-53 -35 -89 -89t-75 -109l-129 -184q-122 -175 -286 -175q-198 0 -285 62l356 473q70 92 125.5 144t136.5 73q-99 43 -149 141l-72 127q-73 127 -194 127q4 125 69.5 194.5
t166.5 69.5zM1227 1386q213 0 213 -172q0 -18 -4 -38l-199 -1176h-399l231 1370q70 16 158 16zM1895 -27q-178 0 -244 166l-84 209q-35 90 -72 128t-96 56l53 338q89 23 132.5 74t72.5 92l106 154q74 106 148 149t157 43q218 0 222 -184q0 -36 -23 -111q-119 0 -194 -98
l-58 -76q-59 -78 -111.5 -118.5t-119.5 -65.5q54 -26 88.5 -69.5t81.5 -147.5l200 -477q-63 -31 -137.5 -46.5t-121.5 -15.5z" />
    <glyph glyph-name="afii10025" unicode="&#x417;" horiz-adv-x="1138" 
d="M727 436q0 115 -154 115h-194l45 291h192q110 0 139 49t29 92t-39.5 71.5t-117.5 28.5q-172 0 -295 -129q-63 35 -95 85.5t-32 88.5q0 155 173 214t287 59q214 0 356 -90.5t142 -266.5q0 -233 -235 -327q130 -53 161 -146.5t31 -142.5q0 -232 -169 -348.5t-427 -116.5
q-164 0 -255 33.5t-126 61.5t-58.5 59t-23.5 83q0 117 129 216q51 -59 125 -101.5t178 -42.5t149.5 29t65 59.5t19.5 75.5z" />
    <glyph glyph-name="afii10026" unicode="&#x418;" horiz-adv-x="1331" 
d="M452 1386q134 0 179 -49t45 -123q0 -18 -4 -38l-94 -523l430 580q110 151 232 151t187 -14l-225 -1370h-395l125 696l-520 -696h-336l231 1370q70 16 145 16z" />
    <glyph glyph-name="afii10027" unicode="&#x419;" horiz-adv-x="1331" 
d="M465 1386q211 0 211 -172q0 -18 -4 -38l-94 -523l430 580q110 151 232 151t187 -14l-225 -1370h-395l125 696l-520 -696h-336l231 1370q70 16 158 16zM672 1829q51 0 68 -24q17 -25 40 -65q45 -79 144 -79q53 0 85 20q33 20 65 66q32 45 54 63q47 37 137 6q38 -13 58 -28
q-66 -223 -256 -301q-66 -27 -145 -27q-164 0 -265 84q-100 84 -104 244q68 41 119 41z" />
    <glyph glyph-name="afii10028" unicode="&#x41a;" horiz-adv-x="1425" 
d="M1133 -27q-178 0 -244 166l-84 209q-35 90 -72 128t-96 56l53 338q89 23 132.5 74t72.5 92l106 154q74 106 148 149t158 43q217 0 221 -184q0 -36 -23 -111q-119 0 -194 -98l-58 -76q-59 -78 -111 -118.5t-120 -65.5q51 -25 87 -68.5t83 -148.5l201 -477
q-62 -31 -137.5 -46.5t-122.5 -15.5zM465 1386q213 0 213 -172q0 -18 -4 -38l-199 -1176h-399l231 1370q70 16 158 16z" />
    <glyph glyph-name="afii10029" unicode="&#x41b;" horiz-adv-x="1499" 
d="M8 142q0 62 17 114h22q152 0 260 146t191 491l114 479h987l-231 -1372h-399l180 1071h-225l-54 -240q-96 -434 -255.5 -645t-401.5 -211q-102 0 -153.5 52.5t-51.5 114.5z" />
    <glyph glyph-name="afii10030" unicode="&#x41c;" horiz-adv-x="1607" 
d="M549 1384q107 0 155 -40t60 -105l106 -596h9l340 598q47 82 105 113q58 30 157 30t161 -24l-133 -1360h-381l78 688h-8l-256 -436h-266l-92 422h-9l-155 -674h-381l321 1360q82 24 189 24z" />
    <glyph glyph-name="afii10031" unicode="&#x41d;" horiz-adv-x="1329" 
d="M1188 1386q213 0 213 -172q0 -18 -4 -38l-199 -1176h-399l90 535h-324l-90 -535h-399l231 1370q70 16 158 16q213 0 213 -172q0 -18 -4 -38l-56 -322h326l86 516q70 16 158 16z" />
    <glyph glyph-name="afii10032" unicode="&#x41e;" horiz-adv-x="1409" 
d="M856 1081q-136 0 -221 -160q-86 -160 -84 -403q0 -109 45 -172t121 -63q144 0 229 160q86 160 85 399t-175 239zM714 -37q-170 0 -274 49q-204 96 -266 317q-31 105 -31 239t45 286q46 152 138 274t232 197q140 76 309 76t273 -49q206 -97 267 -318q31 -106 31 -240
t-46 -284q-46 -151 -137 -273q-92 -122 -232 -198t-309 -76z" />
    <glyph glyph-name="afii10033" unicode="&#x41f;" horiz-adv-x="1314" 
d="M1184 0h-400l177 1040h-310l-176 -1040h-399l231 1374h1108z" />
    <glyph glyph-name="afii10034" unicode="&#x420;" horiz-adv-x="1169" 
d="M653 715q78 1 130 65t53 191q0 59 -35 96t-81 37t-73 -2l-65 -387h71zM738 1384q106 0 206 -28q295 -84 295 -370q0 -285 -172 -426q-154 -126 -444 -126h-86l-74 -434h-387l231 1360q187 24 431 24z" />
    <glyph glyph-name="afii10035" unicode="&#x421;" horiz-adv-x="1269" 
d="M1243 283q0 -105 -97 -185q-163 -136 -447 -135q-283 0 -430 178q-126 150 -126 396q0 318 167 568q120 180 336 257q110 39 241 39q260 0 379 -133q55 -60 55 -142t-55 -129t-144 -77q-66 162 -231 162t-251 -156q-86 -155 -86 -328q-1 -174 58 -242t160 -67
q173 0 299 190q90 -43 131 -89t41 -107z" />
    <glyph glyph-name="afii10036" unicode="&#x422;" horiz-adv-x="1202" 
d="M1126 1040h-178l-176 -1040h-401l176 1040h-383q5 156 38 218q34 61 82 89t132 27h958q5 -153 -40 -232q-58 -102 -208 -102z" />
    <glyph glyph-name="afii10037" unicode="&#x423;" horiz-adv-x="1251" 
d="M435 1384q114 0 160 -40.5t67 -129.5l92 -409l172 409q72 170 260 170q136 0 231 -53l-506 -903q-132 -237 -254 -350t-323 -113q-277 0 -277 201q0 87 95 172q57 -62 153 -62q57 0 92 29t64 76l41 70l-297 880q116 53 230 53z" />
    <glyph glyph-name="afii10038" unicode="&#x424;" horiz-adv-x="1554" 
d="M1223 786q0 72 -41 117t-95 51l-73 -469q96 12 152.5 92.5t56.5 208.5zM508 690q0 -102 42 -150t95 -55l74 469q-96 -12 -153.5 -87t-57.5 -177zM1141 1330q0 -32 -6 -83q211 -24 335.5 -146.5t124.5 -320.5q0 -270 -177.5 -419t-448.5 -166l-31 -195h-369l29 193
q-214 24 -340.5 152t-126.5 325q0 263 179 409.5t456 167.5l33 209q77 14 127 14t85.5 -6t65 -22.5t47 -48t17.5 -63.5z" />
    <glyph glyph-name="afii10039" unicode="&#x425;" horiz-adv-x="1230" 
d="M1198 27q-99 -46 -248 -54q-94 -2 -152 32t-91 136l-70 224l-217 -365h-451l498 694l-274 619q135 63 235 66t157 -29q56 -33 91 -129l82 -240l143 256q85 149 264 147q122 0 232 -69l-477 -653z" />
    <glyph glyph-name="afii10040" unicode="&#x426;" horiz-adv-x="1359" 
d="M1159 1386q213 0 213 -172q0 -18 -4 -38l-147 -865h129l-111 -694h-399l59 383h-823l231 1370q70 16 158 16q213 0 213 -172q0 -18 -4 -38l-148 -865h295l180 1059q70 16 158 16z" />
    <glyph glyph-name="afii10041" unicode="&#x427;" horiz-adv-x="1280" 
d="M1139 1386q213 0 213 -172q0 -18 -4 -38l-199 -1176h-399l90 537q-72 -53 -150 -90t-180 -37q-154 0 -246 84t-92 225q0 32 10 112l92 539q70 16 162 16q219 0 219 -172q0 -18 -4 -38l-47 -275q-8 -45 -8 -89q0 -92 104 -93q63 0 127 55q56 53 74 121l80 475
q70 16 158 16z" />
    <glyph glyph-name="afii10042" unicode="&#x428;" horiz-adv-x="1906" 
d="M1765 1386q213 0 213 -172q0 -18 -4 -38l-198 -1176h-1700l231 1370q70 16 158 16q213 0 213 -172q0 -18 -4 -38l-148 -865h250l180 1059q70 16 158 16q213 0 213 -172q0 -18 -4 -38l-147 -865h251l181 1059q70 16 157 16z" />
    <glyph glyph-name="afii10043" unicode="&#x429;" horiz-adv-x="1953" 
d="M1753 1386q213 0 213 -172q0 -18 -4 -38l-147 -865h129l-111 -694h-399l59 383h-1417l231 1370q70 16 158 16q213 0 213 -172q0 -18 -4 -38l-148 -865h244l180 1059q70 16 158 16q213 0 213 -172q0 -18 -4 -38l-148 -865h246l180 1059q70 16 158 16z" />
    <glyph glyph-name="afii10044" unicode="&#x42a;" horiz-adv-x="1454" 
d="M840 285q215 0 215 213q0 59 -31 101t-98 42h-18q-19 0 -42 -4l-57 -352h31zM416 1374h573l-76 -454q16 2 21 2h45q324 0 403.5 -144.5t79.5 -268.5q0 -248 -158.5 -378.5t-445.5 -130.5h-496l175 1040h-373q5 158 38.5 218.5t82.5 88t131 27.5z" />
    <glyph glyph-name="afii10045" unicode="&#x42b;" horiz-adv-x="1777" 
d="M557 285q215 0 215 213q0 59 -30.5 101t-98.5 42h-19q-18 0 -40 -4l-58 -352h31zM465 1386q213 0 213 -172q0 -18 -4 -38l-43 -256q16 2 21 2h44q325 0 404.5 -144.5t79.5 -268.5q0 -249 -159.5 -379t-445.5 -130h-495l227 1370q70 16 158 16zM1636 1386q213 0 213 -172
q0 -18 -4 -38l-198 -1176h-400l232 1370q70 16 157 16z" />
    <glyph glyph-name="afii10046" unicode="&#x42c;" horiz-adv-x="1183" 
d="M563 285q221 0 221 213q0 59 -33.5 101t-101.5 42h-21q-22 0 -44 -4l-58 -352h37zM465 1386q213 0 213 -172q0 -18 -4 -38l-43 -256q16 2 21 2h50q328 0 409 -144.5t81 -268.5q0 -248 -162 -378.5t-448 -130.5h-502l227 1370q70 16 158 16z" />
    <glyph glyph-name="afii10047" unicode="&#x42d;" horiz-adv-x="1224" 
d="M252 455q82 -176 280 -176q110 0 191.5 71.5t112.5 188.5h-502l43 297h504q-16 250 -228 249q-181 0 -291 -143q-157 58 -157 201q0 74 67 135q148 123 424 123q142 0 349.5 -101.5t207.5 -560.5q0 -339 -196.5 -557.5t-548.5 -218.5q-86 0 -181.5 26.5t-152.5 72.5
q-113 90 -113 200q0 53 44.5 107.5t146.5 85.5z" />
    <glyph glyph-name="afii10048" unicode="&#x42e;" horiz-adv-x="1986" 
d="M1322 283q122 0 204 156.5t82 406.5q0 113 -40 174t-104 61q-123 0 -204.5 -157t-81.5 -406q0 -111 41 -173t103 -62zM465 1386q213 0 213 -172q0 -18 -4 -38l-58 -338h199q72 246 241.5 404.5t431.5 158.5t394.5 -169t132.5 -417q0 -154 -44 -305.5t-134 -273
t-226 -197.5t-294 -76t-253 46t-187 159.5t-101 349.5h-213l-88 -518h-399l231 1370q70 16 158 16z" />
    <glyph glyph-name="afii10049" unicode="&#x42f;" horiz-adv-x="1232" 
d="M834 1104q-31 0 -66 -17.5t-67.5 -61.5t-32.5 -129q0 -185 125 -185h30l66 389q-24 4 -55 4zM428 571q-184 105 -184 335t187 354t484 124q227 0 414 -22l-227 -1362h-400l76 446h-20q-41 0 -65.5 -27.5t-59.5 -90.5l-107 -191q-90 -164 -288 -164q-160 0 -242 54
l221 362q35 57 81 108.5t130 73.5z" />
    <glyph glyph-name="afii10065" unicode="&#x430;" horiz-adv-x="1105" 
d="M569 268q47 0 67.5 30t27.5 71l55 329q-20 14 -60 14t-74 -31.5t-67 -103.5t-33 -191q0 -118 84 -118zM862 -20q-84 0 -130 20t-75 90q-59 -68 -119 -93.5t-136 -25.5q-142 0 -225 100.5t-83 286.5q0 280 167.5 474t459.5 194q106 0 207.5 -21.5t218.5 -93.5l-111 -661
q-10 -78 -10 -138q0 -61 12 -106q-92 -26 -176 -26z" />
    <glyph glyph-name="afii10066" unicode="&#x431;" horiz-adv-x="1095" 
d="M694 518q0 135 -92 135q-40 0 -67 -6q-58 -98 -58 -250q0 -53 14.5 -94t61.5 -41q78 0 109.5 79.5t31.5 176.5zM730 889q168 0 264 -105.5t96 -285.5q0 -241 -157.5 -385t-389.5 -144t-340.5 131t-108.5 359q0 303 141 530.5t433 317.5l219 67q122 34 184 88
q105 -65 105 -155t-47.5 -140.5t-135.5 -79.5l-194 -59q-98 -31 -165 -67.5t-87 -114.5q94 43 183 43z" />
    <glyph glyph-name="afii10067" unicode="&#x432;" horiz-adv-x="1099" 
d="M592 602q61 0 102 26.5t41 86.5q0 70 -73 69q-47 0 -73 -33.5t-38 -101.5l-8 -47h49zM541 215q150 0 149 102q0 51 -30.5 68.5t-90.5 17.5h-59l-33 -188h64zM1096 752q0 -152 -148 -234q59 -39 88 -87t29 -122q0 -150 -127 -229.5t-373 -79.5h-516l107 631
q33 190 154.5 293.5t349.5 103.5t332 -77t104 -199z" />
    <glyph glyph-name="afii10068" unicode="&#x433;" horiz-adv-x="905" 
d="M766 403q119 -74 119 -181t-113 -180t-291 -73t-302 67t-124 200q0 102 62 179.5t236.5 164t174.5 124.5t-43 37q-112 0 -184 -118q-72 6 -118 49.5t-46 105.5t37 110t96.5 78.5t133 46t194.5 15.5t226.5 -73.5t105.5 -216.5t-114 -209t-172 -97t-106.5 -60.5
t-48.5 -62.5t52 -33q115 0 225 127z" />
    <glyph glyph-name="afii10069" unicode="&#x434;" horiz-adv-x="1099" 
d="M477 393q0 -131 89 -131q74 0 110.5 97t36.5 178t-6 102q-27 20 -64 20q-71 0 -118.5 -67.5t-47.5 -198.5zM258 1241q4 227 240 227q114 0 228 -63.5t199 -171t134 -249.5t49 -300q0 -358 -152.5 -536.5t-436.5 -178.5t-354.5 153.5t-70.5 278.5t41 225.5t134.5 192.5
t267.5 92q108 0 196 -57q-45 198 -179.5 274t-293.5 76q-2 12 -2 14v23z" />
    <glyph glyph-name="afii10070" unicode="&#x435;" horiz-adv-x="991" 
d="M700 702q0 66 -61 66t-103.5 -46t-58.5 -132q14 -2 17 -2h26q119 0 149.5 41t30.5 73zM593 252q123 0 198 123q74 -23 117.5 -60t43.5 -95q0 -96 -65 -148q-65 -53 -160 -78t-195 -25q-205 0 -319.5 120t-114.5 308q0 275 152 453t440 178q182 0 262 -85t80 -192
q0 -192 -144.5 -272t-344.5 -80h-86q4 -68 38.5 -107.5t97.5 -39.5z" />
    <glyph glyph-name="afii10072" unicode="&#x436;" horiz-adv-x="1839" 
d="M1717 1008q93 0 133 -43t40 -106t-18 -114l-23 3q-47 0 -85 -26t-88 -70t-92 -75.5t-95 -52.5q115 -26 172 -170l133 -309q-108 -70 -225 -70q-154 0 -205 123l-59 154q-27 66 -51.5 85t-61.5 28l47 297q35 14 61.5 34.5t67.5 69.5l82 94q57 66 115.5 107t151.5 41z
M133 811q0 94 54.5 145.5t160.5 51.5t151.5 -61.5t65.5 -92.5l64 -94q25 -37 46 -60.5t48 -33.5l-47 -297q-43 -10 -69.5 -42t-61.5 -81l-96 -144q-86 -127 -256 -127q-128 0 -209 70l247 328q41 59 87.5 101t123.5 54q-41 16 -67.5 45t-62.5 78t-66.5 73t-81.5 24l-23 -3
q-8 46 -8 66zM991 1008q215 0 215 -166q0 -21 -4 -49l-131 -793h-395l164 993q70 15 151 15z" />
    <glyph glyph-name="afii10073" unicode="&#x437;" horiz-adv-x="980" 
d="M823 512q121 -74 121 -234q0 -76 -81 -192.5t-431 -116.5q-273 0 -330 77t-57 128q0 102 109 168q94 -98 254 -98q63 0 108 17.5t45 70.5q0 29 -22.5 47t-59.5 18h-239l36 226h250q86 0 86 61q0 47 -46.5 63.5t-100.5 16.5q-137 0 -234 -86q-31 18 -63.5 53t-32.5 81
q0 156 162.5 187t240.5 31t151 -12t138.5 -44t110.5 -88.5t45 -142.5t-40 -137t-120 -94z" />
    <glyph glyph-name="afii10074" unicode="&#x438;" horiz-adv-x="1093" 
d="M159.5 44q-67.5 73 -67.5 174t21 202l98 581q89 27 184 27q189 0 189 -170q0 -25 -4 -45l-76 -446q-4 -20 -4 -45t11 -39.5t51 -14.5q68 0 85 94l107 639q89 27 184 27q188 0 188 -170q0 -25 -4 -45l-96 -563q-10 -78 -10 -138q0 -61 12 -106q-92 -26 -176 -26t-130 20
t-75 90q-50 -57 -110 -88t-185 -31t-192.5 73z" />
    <glyph glyph-name="afii10075" unicode="&#x439;" horiz-adv-x="1093" 
d="M160 44q-68 73 -68 174t21 202l98 581q89 27 184 27q189 0 189 -170q0 -23 -4 -45l-76 -446q-4 -20 -4 -45t11 -39q11 -15 51 -15q68 -1 85 94l107 639q89 27 184 27q188 0 188 -170q0 -23 -4 -45l-96 -563q-10 -78 -10 -138q0 -61 12 -106q-92 -26 -176 -26t-130 20
t-75 90q-50 -58 -90 -78q-77 -39 -203 -40t-194 72zM467 1493q51 0 69 -24q18 -25 40 -65q43 -78 143 -79q54 0 86 21t65 66q32 44 54 63q23 18 81 18t113 -41q-66 -223 -256 -301q-66 -27 -145 -27q-165 0 -265 84t-104 244q68 41 119 41z" />
    <glyph glyph-name="afii10076" unicode="&#x43a;" horiz-adv-x="1232" 
d="M1101 1008q93 0 138 -43t45 -106t-18 -114l-23 3q-47 0 -85 -26t-88 -70t-92 -75.5t-95 -52.5q70 -16 108.5 -64t63.5 -106l133 -309q-108 -70 -236 -70q-163 0 -215 123l-59 154q-27 66 -51.5 85t-61.5 28l47 297q35 14 61.5 34.5t67.5 69.5l82 94q57 66 121 107t157 41
zM365 1008q217 0 217 -166q0 -21 -4 -49l-132 -793h-397l164 993q71 15 152 15z" />
    <glyph glyph-name="afii10077" unicode="&#x43b;" horiz-adv-x="1228" 
d="M184 -23q-82 0 -135 34t-53 109t18 128q74 6 122 26.5t85 70.5t65.5 136t63.5 221l74 299h850l-168 -1001h-399l122 705h-114l-86 -302q-100 -350 -231.5 -388t-213.5 -38z" />
    <glyph glyph-name="afii10078" unicode="&#x43c;" horiz-adv-x="1347" 
d="M1168 1008q113 0 180 -23l-72 -985h-358l55 506h-17l-153 -330h-275l-32 318h-17l-102 -494h-357l240 985q115 23 212 23q96 0 148 -41t62 -109l43 -340h10l139 328q65 162 294 162z" />
    <glyph glyph-name="afii10079" unicode="&#x43d;" horiz-adv-x="1116" 
d="M590 858q0 -25 -4 -45l-29 -164h148l65 352q89 27 184 27q189 0 189 -170q0 -25 -4 -45l-138 -813h-399l62 369h-154l-61 -369h-400l168 1001q89 27 184 27q189 0 189 -170z" />
    <glyph glyph-name="afii10080" unicode="&#x43e;" horiz-adv-x="1110" 
d="M553 -31q-238 0 -348.5 119t-110.5 313q0 268 160.5 447.5t429.5 179.5q213 0 323.5 -121t110.5 -309q0 -266 -107.5 -396t-216 -181.5t-241.5 -51.5zM570 262q48 0 77 38t53.5 111t24.5 158t-17.5 124.5t-65.5 39.5q-82 0 -120.5 -109.5t-38.5 -235.5t87 -126z" />
    <glyph glyph-name="afii10081" unicode="&#x43f;" horiz-adv-x="1101" 
d="M827 -23q-113 0 -158.5 40t-45.5 124q0 46 4 66l69 407q4 20 4 45t-11 39.5t-51 14.5q-69 0 -85 -95l-104 -618h-400l168 991q74 17 162 17t139 -28t62 -75q37 43 105.5 83t156.5 40t135 -21.5t91 -78t44 -172.5q0 -62 -20 -170l-58 -342q-12 -87 -12 -135t12 -89
q-94 -43 -207 -43z" />
    <glyph glyph-name="afii10082" unicode="&#x440;" horiz-adv-x="1120" 
d="M566 281q42 0 76 35.5t61.5 108t27.5 177.5q0 135 -82 135t-96 -102l-57 -340q28 -14 70 -14zM582 909q104 119 240 119q147 0 231 -106.5t84 -284.5q0 -267 -118.5 -465.5t-354.5 -198.5q-129 0 -207 86l-86 -505h-398l244 1437q76 17 158 17q182 0 207 -99z" />
    <glyph glyph-name="afii10083" unicode="&#x441;" horiz-adv-x="956" 
d="M952 219q0 -74 -65 -135q-91 -86 -193 -100.5t-141 -14.5q-227 0 -343 123.5t-116 308.5q0 267 155.5 447t426.5 180q72 0 148.5 -22.5t117.5 -63.5q76 -76 76 -156t-60.5 -124t-148.5 -54q-36 131 -139 131q-80 0 -132.5 -92t-52.5 -233q0 -66 27 -109t86 -43
q112 0 176 131q178 -35 178 -174z" />
    <glyph glyph-name="afii10084" unicode="&#x442;" horiz-adv-x="1615" 
d="M1341 -23q-112 0 -157 40t-45 124q0 44 8 84l65 389q5 26 5 48t-8.5 36.5t-45.5 14.5q-66 0 -82 -95l-104 -618h-397l102 614q4 20 4 45t-8 39.5t-45 14.5q-66 0 -82 -95l-105 -618h-397l168 991q74 17 161 17t138 -28t62 -75q37 43 104.5 83t166.5 40q190 0 234 -133
q63 67 129 100t152 33q145 0 203.5 -76t58.5 -194q0 -64 -20 -172l-58 -342q-4 -29 -8 -57.5t-4 -77.5t12 -89q-95 -43 -207 -43z" />
    <glyph glyph-name="afii10085" unicode="&#x443;" horiz-adv-x="1058" 
d="M319 1008q111 0 154 -61.5t47 -160.5l23 -440h8l158 459q29 84 91 143.5t165 59.5t209 -41l-519 -1088q-35 -72 -115 -208t-315 -136q-140 0 -197 36t-74 71.5t-17 63.5q0 62 28.5 112t106.5 90q54 -82 113 -82t94.5 18.5t64.5 83.5l27 60h-82l-168 979q87 41 198 41z
" />
    <glyph glyph-name="afii10086" unicode="&#x444;" horiz-adv-x="1488" 
d="M1139 542q0 72 -35 122.5t-92 54.5l-76 -461q139 12 171 112t32 172zM453 438q0 -72 34.5 -123t92.5 -55l75 461q-93 -8 -147.5 -82t-54.5 -201zM897 1397q197 0 197 -166q0 -21 -4 -49l-31 -178q210 -27 324 -151.5t114 -311.5q0 -248 -157.5 -397.5t-450.5 -174.5
l-68 -415h-358l69 421q-217 35 -327.5 158t-110.5 305q0 251 159 400.5t449 171.5l62 372q65 15 133 15z" />
    <glyph glyph-name="afii10087" unicode="&#x445;" horiz-adv-x="1048" 
d="M993 16q-106 -36 -241 -36t-197 149l-45 102l-164 -231h-385l401 502l-233 463q133 45 210 45t109.5 -13.5t59.5 -39t65 -99.5l50 -104l102 141q87 115 219 115q133 0 221 -52l-407 -475z" />
    <glyph glyph-name="afii10088" unicode="&#x446;" horiz-adv-x="1179" 
d="M159.5 44q-67.5 73 -67.5 174t21 202l98 581q89 27 184 27q189 0 189 -170q0 -25 -4 -45l-76 -446q-4 -20 -4 -45t11 -39.5t51 -14.5q68 0 85 94l107 639q89 27 184 27q188 0 188 -170q0 -25 -4 -45l-80 -471q-2 -10 -2 -12v-29q0 -55 35 -73.5t94 -22.5l-84 -543h-374
l55 338q-86 25 -109 100q-112 -129 -295 -129q-135 0 -202.5 73z" />
    <glyph glyph-name="afii10089" unicode="&#x447;" horiz-adv-x="1071" 
d="M346 238q-98 0 -171 71t-73 195q0 59 19 176l55 321q83 27 176 27q94 0 145.5 -38t51.5 -134q0 -23 -6 -59l-23 -146q-4 -20 -4 -39q0 -59 49 -59q37 0 64.5 19.5t32.5 41.5l65 387q79 27 175 27q95 0 146.5 -38t51.5 -132q0 -13 -8 -61l-136 -797h-399l61 360
q-108 -122 -272 -122z" />
    <glyph glyph-name="afii10090" unicode="&#x448;" horiz-adv-x="1605" 
d="M158.5 44q-66.5 73 -66.5 174t21 202l98 581q89 27 184 27q189 0 189 -170q0 -25 -4 -45l-76 -446q-4 -20 -4 -45q0 -53 47 -54q37 0 57.5 27t26.5 59l108 647q89 27 184 27q189 0 189 -170q0 -25 -4 -45l-76 -446q-4 -20 -4 -45q0 -54 44 -54t62.5 30t24.5 64l107 639
q89 27 184 27q188 0 188 -170q0 -25 -4 -45l-98 -580q-10 -69 -10 -119q0 -51 12 -94q-77 -43 -203 -43q-157 0 -192 123q-112 -129 -273 -129t-225 133q-116 -133 -291 -133q-129 0 -195.5 73z" />
    <glyph glyph-name="afii10091" unicode="&#x449;" horiz-adv-x="1691" 
d="M158.5 44q-66.5 73 -66.5 174t21 202l98 581q89 27 184 27q189 0 189 -170q0 -25 -4 -45l-76 -446q-4 -20 -4 -45q0 -53 47 -54q37 0 57.5 27t26.5 59l108 647q89 27 184 27q189 0 189 -170q0 -25 -4 -45l-76 -446q-4 -20 -4 -45q0 -54 44 -54t62.5 30t24.5 64l107 639
q89 27 184 27q188 0 188 -170q0 -25 -4 -45l-80 -471q-2 -10 -2 -12v-29q0 -55 35 -73.5t94 -22.5l-84 -543h-374l55 338q-41 10 -75 41t-44 65q-117 -135 -284 -135t-230 133q-116 -133 -291 -133q-129 0 -195.5 73z" />
    <glyph glyph-name="afii10092" unicode="&#x44a;" horiz-adv-x="1267" 
d="M776 250q41 0 74 21.5t33 64.5q0 82 -97 82q-41 0 -69 -8l-27 -160h86zM346 1001h469l-53 -329q37 4 46 4h81q170 0 267 -81t97 -218q0 -283 -176 -330t-278 -47h-549l117 696h-263q5 141 56.5 223t185.5 82z" />
    <glyph glyph-name="afii10093" unicode="&#x44b;" horiz-adv-x="1603" 
d="M571 250q41 0 74 21.5t33 64.5q0 82 -96 82q-38 0 -66 -8l-27 -160h82zM590 858q0 -25 -6 -61l-23 -125q37 4 45 4h78q251 0 308 -117t57 -197t-64.5 -221t-390.5 -141h-545l168 1001q83 27 171 27q89 0 145.5 -35t56.5 -135zM1628 858q0 -25 -6 -61l-131 -797h-404
l168 1001q83 27 171 27q89 0 145.5 -35t56.5 -135z" />
    <glyph glyph-name="afii10094" unicode="&#x44c;" horiz-adv-x="1081" 
d="M590 418q-46 0 -74 -8l-27 -160h91q119 0 118 90q0 78 -108 78zM590 858q0 -25 -6 -61l-23 -125q37 4 46 4h85q184 0 280.5 -83t96.5 -216q0 -187 -126 -282t-341 -95h-553l168 1001q83 27 171 27q89 0 145.5 -35t56.5 -135z" />
    <glyph glyph-name="afii10095" unicode="&#x44d;" horiz-adv-x="948" 
d="M608 616q0 63 -32.5 103.5t-101.5 40.5t-110.5 -23.5t-76.5 -64.5q-47 16 -89 50t-42 85q0 148 134 184.5t286.5 36.5t266 -131.5t113.5 -333.5q0 -270 -151.5 -432t-423.5 -162q-172 0 -268 72q-33 27 -54.5 58.5t-21.5 85.5q0 128 143 157q23 -47 74.5 -75.5
t123.5 -28.5t129.5 43t63.5 110h-317l39 225h315z" />
    <glyph glyph-name="afii10096" unicode="&#x44e;" horiz-adv-x="1628" 
d="M1249 598q0 135 -73.5 135t-113.5 -114t-40 -235q0 -122 78 -122t113.5 120t35.5 216zM590 858q0 -25 -4 -45l-29 -164h125q65 172 200.5 275.5t336.5 103.5t309 -122t108 -308q0 -265 -148.5 -447t-416.5 -182q-207 0 -314 108.5t-116 291.5h-131l-61 -369h-400
l168 1001q89 27 184 27q189 0 189 -170z" />
    <glyph glyph-name="afii10097" unicode="&#x44f;" horiz-adv-x="1105" 
d="M287 410q-129 72 -129 256q0 70 33.5 137t120.5 136t278 69h571l-168 -1008h-395l64 352h-21q-42 0 -67 -29.5t-82 -127.5l-56 -93q-76 -127 -260 -127q-125 0 -205 58l138 215q79 127 178 162zM631 754q-41 0 -74 -22.5t-33 -66.5t28 -62.5t91 -18.5h62l26 170h-100z
" />
    <glyph glyph-name="uni0450" unicode="&#x450;" horiz-adv-x="991" 
d="M700 702q0 66 -61 66t-103 -46t-59 -132q13 -2 23 -2h20q120 0 164 60q16 22 16 54zM791 375q161 -50 161 -155q0 -96 -65 -148q-65 -53 -159 -78t-196 -25q-205 0 -319 119q-115 119 -115 309q0 275 153 453t439 178q179 0 271 -94q71 -75 71 -182q0 -195 -163 -283
q-123 -68 -326 -70h-86q4 -67 39 -107q36 -40 98 -40q120 0 197 123zM811 1176q-62 -62 -144 -62t-120 43l-221 258q101 101 192 101t144 -86z" />
    <glyph glyph-name="afii10071" unicode="&#x451;" horiz-adv-x="991" 
d="M700 702q0 66 -61 66t-103 -46t-59 -132q13 -2 23 -2h20q120 0 164 60q16 22 16 54zM791 375q161 -50 161 -155q0 -96 -65 -148q-65 -53 -159 -78t-196 -25q-205 0 -319 119q-115 119 -115 309q0 275 153 453t439 178q179 0 271 -94q71 -75 71 -182q0 -195 -163 -283
q-123 -68 -326 -70h-86q4 -67 39 -107q36 -40 98 -40q120 0 197 123zM1077 1321q0 -94 -56 -139t-133 -45t-116 44t-39 95q-1 94 57 139t134 45t114 -44t39 -95zM621 1321q1 -94 -57 -139t-135 -45t-115 44t-38 95q0 94 56 139t133 45q76 0 116 -44t40 -95z" />
    <glyph glyph-name="afii10099" unicode="&#x452;" horiz-adv-x="1110" 
d="M594 813q110 121 245 121q144 0 204.5 -78t60.5 -194q0 -70 -21 -170l-84 -488q-36 -209 -102 -298q-65 -89 -143 -134t-193 -45t-160 57.5t-45 136.5q0 35 6 72q130 4 176.5 60.5t75.5 228.5l74 438q4 20 4 45t-11 39t-51 14q-69 0 -85 -94l-88 -524h-400l183 1071h-146
l27 162h145l35 203q70 16 145 16q76 0 118 -14.5t64.5 -39t32 -55t9.5 -60.5t-4 -50h309l-27 -162h-311z" />
    <glyph glyph-name="afii10100" unicode="&#x453;" horiz-adv-x="905" 
d="M766 403q119 -74 119 -182t-93 -166t-180 -72q-263 -41 -425 49q-132 73 -132 204q0 103 53 167q74 92 356 231q65 32 64 71q0 36 -43 36q-112 0 -184 -118q-72 6 -118 49q-46 44 -46 106t37 110t96 79q116 61 283 61q255 0 346 -159q31 -55 31 -121q0 -151 -180 -258
q-47 -28 -105 -58q-59 -30 -107 -60t-48 -57t16 -33q18 -6 35 -6q115 0 225 127zM559 1114q-90 0 -162 76l191 231q39 47 75 70t89 23t95 -28q42 -26 87 -79l-275 -250q-49 -43 -100 -43z" />
    <glyph glyph-name="afii10101" unicode="&#x454;" horiz-adv-x="964" 
d="M459 391q0 -66 34.5 -107.5t110.5 -41.5q125 0 182 88q82 -10 119 -52t37 -92q0 -95 -98 -155q-66 -41 -144 -51.5t-174 -10.5t-180 37t-168 130.5t-84 283.5q0 260 159 434t404 174t288.5 -83t43.5 -123q0 -75 -50.5 -107t-139.5 -43q-16 47 -49 67.5t-99 20.5
t-105.5 -43t-56.5 -101h314l-39 -225h-305z" />
    <glyph glyph-name="afii10102" unicode="&#x455;" horiz-adv-x="899" 
d="M537 700q0 -18 11 -34.5t130.5 -90.5t153.5 -147.5t34 -139.5q0 -131 -104.5 -225t-295.5 -94t-302 58q-66 35 -97.5 76.5t-31.5 107.5q0 122 147 203q89 -133 201 -133q55 0 55 41t-35.5 67.5t-105.5 74.5t-117 102t-47 124q0 141 103.5 239.5t324.5 98.5q153 0 265 -66
t112 -165q0 -70 -58.5 -122.5t-140.5 -60.5q-50 127 -155 127q-18 0 -32.5 -11.5t-14.5 -29.5z" />
    <glyph glyph-name="afii10103" unicode="&#x456;" horiz-adv-x="561" 
d="M367 1008q133 0 178 -49.5t45 -122.5q0 -19 -4 -39l-94 -553q-4 -29 -8.5 -57.5t-4.5 -78t13 -88.5q-94 -43 -207 -43t-159 41t-46 119l10 103l127 751q75 17 150 17zM297 1163q-49 49 -49 111q0 110 63 167.5t155 57.5t140.5 -50.5t48.5 -110.5t-18.5 -101t-64 -82
t-136 -41t-139.5 49z" />
    <glyph glyph-name="afii10104" unicode="&#x457;" horiz-adv-x="561" 
d="M377 995q211 0 211 -172q0 -17 -4 -39l-92 -540l-8 -58t-5 -78q0 -49 13 -88q-90 -41 -205 -42t-162 41t-45 128v23q0 12 2 23l133 786q70 16 162 16zM844 1321q0 -94 -56 -139t-134 -45t-116 44t-38 95q0 94 57 139t133 45t115 -44t39 -95zM387 1321q0 -94 -57 -139
t-134 -45t-115 44t-38 95q0 94 56 139t132 45t116 -44t40 -95z" />
    <glyph glyph-name="afii10105" unicode="&#x458;" horiz-adv-x="555" 
d="M297 1163q-49 49 -49 111q0 110 63 167.5t155 57.5t140.5 -50.5t48.5 -110.5t-18.5 -101t-64 -82t-136 -41t-139.5 49zM10 -473q-115 0 -160 57.5t-45 136.5q0 35 7 72q129 4 175.5 60.5t75.5 228.5l154 909q74 17 150 17q133 0 178 -49.5t45 -122.5q0 -19 -4 -39
l-103 -607q-47 -269 -81.5 -361.5t-61.5 -129.5q-59 -82 -137 -127t-193 -45z" />
    <glyph glyph-name="afii10106" unicode="&#x459;" horiz-adv-x="1699" 
d="M1214 250q41 0 73 21.5t32 64.5q0 82 -94 82q-28 0 -58 -8l-26 -160h73zM184 -23q-82 0 -135 34t-53 109t18 128q74 6 122 26.5t85 70.5t65.5 136t63.5 221l74 299h844l-56 -329q37 4 44 4h71q166 0 264.5 -83t98.5 -216q0 -189 -121.5 -283t-333.5 -94h-518l123 705
h-125l-86 -302q-100 -350 -231.5 -388t-213.5 -38z" />
    <glyph glyph-name="afii10107" unicode="&#x45a;" horiz-adv-x="1595" 
d="M1214 336q0 74 -94 74q-32 0 -57 -9l-27 -151h74q41 0 72.5 19.5t31.5 66.5zM590 858q0 -25 -4 -45l-27 -156h150l57 344q89 27 184 27q189 0 189 -170q0 -25 -4 -45l-27 -151q37 4 44 4h71q166 0 264 -78t98 -211q0 -283 -176 -330t-279 -47h-532l64 377h-150l-63 -377
h-400l168 1001q89 27 184 27q189 0 189 -170z" />
    <glyph glyph-name="afii10108" unicode="&#x45b;" horiz-adv-x="1095" 
d="M594 813q110 121 245 121q144 0 204.5 -78t60.5 -194q0 -70 -21 -170l-41 -248q-4 -29 -8 -57.5t-4 -77.5t12 -89q-94 -43 -207 -43q-112 0 -158 40t-46 126q0 46 6 76l51 301q4 20 4 45t-11 39t-51 14q-69 0 -85 -94l-88 -524h-400l183 1071h-146l27 162h145l35 203
q70 16 145 16q76 0 118 -14.5t64.5 -39t32 -55t9.5 -60.5t-4 -50h309l-27 -162h-311z" />
    <glyph glyph-name="afii10109" unicode="&#x45c;" horiz-adv-x="1232" 
d="M1100 1008q94 0 139 -43t45 -106t-18 -114q-11 0 -23 3q-47 0 -85 -26t-88 -70t-92 -76t-95 -52q71 -16 109 -64t63 -106l133 -309q-104 -68 -252 -69q-147 -1 -199 122l-59 154q-27 66 -51 85q-25 19 -62 28l47 297q35 14 62 34t67 70l82 94q57 66 121 107q62 41 156 41
zM213 993q71 15 161 15t131 -26q75 -46 77 -140q0 -21 -4 -49l-132 -793h-397zM742 1114q-91 0 -162 76l190 231q39 47 75 70t89 23t95 -28q42 -26 87 -79l-274 -250q-48 -43 -100 -43z" />
    <glyph glyph-name="uni045D" unicode="&#x45d;" horiz-adv-x="1093" 
d="M160 44q-68 73 -68 174t21 202l98 581q89 27 184 27q189 0 189 -170q0 -23 -4 -45l-76 -446q-4 -20 -4 -45t11 -39q11 -15 51 -15q68 -1 85 94l107 639q89 27 184 27q188 0 188 -170q0 -23 -4 -45l-96 -563q-10 -78 -10 -138q0 -61 12 -106q-92 -26 -176 -26t-130 20
t-75 90q-50 -58 -90 -78q-77 -39 -203 -40t-194 72zM850 1176q-62 -62 -144 -62t-120 43l-221 258q101 101 192 101t143 -86z" />
    <glyph glyph-name="afii10110" unicode="&#x45e;" horiz-adv-x="1058" 
d="M225 -465q-143 0 -199 36q-89 58 -89 142q0 129 135 195q54 -82 113 -82t95 18t64 84l27 60h-82l-168 979q82 38 211 41q179 0 188 -222l23 -440h8l158 459q29 84 91 143q62 60 164 60t210 -41l-519 -1088q-35 -72 -71 -134q-124 -210 -359 -210zM598 1332q33 -19 87 -19
t85 20q32 20 66 65q33 46 55 64q48 37 136 5q38 -13 58 -27q-67 -226 -256 -301q-66 -27 -145 -27q-164 0 -264 84t-105 244q64 39 117 40q52 1 70 -23q18 -25 41 -65t55 -60z" />
    <glyph glyph-name="afii10193" unicode="&#x45f;" horiz-adv-x="1093" 
d="M159.5 44q-67.5 73 -67.5 174t21 202l98 581q89 27 184 27q189 0 189 -170q0 -25 -4 -45l-76 -446q-4 -20 -4 -45t11 -39.5t51 -14.5q68 0 85 94l107 639q89 27 184 27q188 0 188 -170q0 -25 -4 -45l-96 -563q-10 -78 -10 -138q0 -61 12 -106q-92 -26 -176 -26t-130 20
t-75 90q-50 -57 -110 -88t-185 -31t-192.5 73zM322 -446l51 327h340l-51 -327h-340z" />
    <glyph glyph-name="uni0462" unicode="&#x462;" horiz-adv-x="1372" 
d="M774 276q184 0 184 195q0 53 -28.5 91t-85.5 38h-18q-17 0 -40 -4l-53 -320h41zM693 1464q225 0 225 -170h366v-34q0 -133 -51.5 -202t-196.5 -69h-180l-27 -125q58 4 113 4t143.5 -20.5t190.5 -90t102 -263.5q0 -243 -158 -368.5t-444 -125.5h-473l166 989h-305
q5 152 38.5 205t82.5 76.5t131 23.5h104l27 154q71 16 146 16z" />
    <glyph glyph-name="uni0463" unicode="&#x463;" horiz-adv-x="1269" 
d="M766 250q119 0 119 90q0 78 -109 78q-56 0 -86 -8l-26 -160h102zM1255 377q0 -377 -467 -377h-565l133 801h-235q5 150 37 199t79.5 71.5t127.5 22.5h41l61 364q83 27 171 27q89 0 145.5 -35t56.5 -135q0 -23 -6 -62l-27 -159h346v-33q0 -131 -50.5 -195.5t-189.5 -64.5
h-157l-21 -129q37 4 47 4h97q184 0 280 -83t96 -216z" />
    <glyph glyph-name="uni0472" unicode="&#x472;" horiz-adv-x="1409" 
d="M1036 846q0 235 -135 235t-202.5 -65.5t-106.5 -179.5h444v10zM545 541v-23q0 -111 45 -173t135 -62t159.5 67.5t108.5 190.5h-448zM714 -37q-299 0 -435 168.5t-136 417.5q0 154 45 305.5t137.5 273t232.5 197.5t309 76t272.5 -49t201 -168t97.5 -369q0 -154 -45 -305.5
t-137.5 -273t-232.5 -197.5t-309 -76z" />
    <glyph glyph-name="uni0473" unicode="&#x473;" horiz-adv-x="1110" 
d="M642 750q-86 0 -134 -138h225q-2 61 -21.5 99.5t-69.5 38.5zM475 406v-19q0 -66 21.5 -103.5t75 -37.5t85 48t50.5 112h-232zM553 -31q-238 0 -348.5 119t-110.5 313q0 268 160.5 447.5t429.5 179.5q213 0 323.5 -121t110.5 -309q0 -266 -107.5 -396t-216 -181.5
t-241.5 -51.5z" />
    <glyph glyph-name="uni0474" unicode="&#x474;" horiz-adv-x="1488" 
d="M557 1336.5q67 -43.5 74 -142.5l69 -762h15l229 623q72 221 200 275t240 54t195.5 -45t83.5 -149t-109 -186q-45 61 -112 61t-100 -23.5t-54 -66.5l-444 -985h-443l-202 1364q112 26 202 26q89 0 156 -43.5z" />
    <glyph glyph-name="uni0475" unicode="&#x475;" horiz-adv-x="1171" 
d="M324 1008q114 0 157 -61.5t47 -160.5l13 -440h4l155 430q34 96 116.5 164t213.5 68q240 0 244 -179q0 -49 -22.5 -84.5t-57.5 -70.5q-43 49 -94 49t-78 -25.5t-51 -79.5l-297 -630h-385l-166 979q87 41 201 41z" />
    <glyph glyph-name="uni048A" unicode="&#x48a;" horiz-adv-x="1386" 
d="M672 1829q51 0 68.5 -23.5t39.5 -64.5t55 -60.5t75 -19.5q67 0 99 21t65 65q32 45 54.5 63.5t79.5 18.5t115 -41q-66 -225 -194 -276.5t-207 -51.5q-164 0 -264.5 84t-104.5 244q68 41 119 41zM452 1386q134 0 179 -49t45 -123q0 -18 -4 -38l-94 -523l430 580
q110 151 232 151t187 -14l-174 -1059h123q-34 -316 -191 -481.5t-249 -241.5l-207 201q149 143 195 211h-117l125 696l-520 -696h-336l231 1370q70 16 145 16z" />
    <glyph glyph-name="uni048B" unicode="&#x48b;" horiz-adv-x="1193" 
d="M556.5 1461q19.5 -18 31.5 -64q12 -47 32.5 -69.5t60.5 -22.5t70.5 16.5t57.5 74.5t57.5 70.5t86.5 12.5t104 -39q-53 -166 -147.5 -246t-240.5 -80q-298 0 -298 336q56 29 111 29t74.5 -18zM159.5 44q-67.5 73 -67.5 174t21 202l98 581q89 27 184 27q189 0 189 -170
q0 -25 -4 -45l-76 -446q-4 -20 -4 -45t11 -39.5t51 -14.5q68 0 85 94l107 639q89 27 184 27q188 0 188 -170q0 -25 -4 -45l-80 -471q-2 -10 -2 -12v-29q0 -55 37 -73.5t105 -22.5q-20 -174 -116.5 -314.5t-264.5 -267.5l-199 191q104 104 164 186q-86 25 -109 100
q-112 -129 -295 -129q-135 0 -202.5 73z" />
    <glyph glyph-name="uni048C" unicode="&#x48c;" horiz-adv-x="1261" 
d="M645 285q215 0 215 213q0 59 -30.5 101t-98.5 42h-19q-18 0 -40 -4l-58 -352h31zM559 1384q131 0 176 -47t45 -125v-16h234l-27 -152h-239l-27 -124q16 2 21 2h42q325 0 404.5 -144.5t79.5 -268.5q0 -249 -159.5 -379t-444.5 -130h-482l176 1044h-194l26 152h195l29 172
q70 16 145 16z" />
    <glyph glyph-name="uni048D" unicode="&#x48d;" horiz-adv-x="1142" 
d="M643 250q115 0 115 86q0 74 -105 74q-51 0 -78 -9l-26 -151h94zM440 1051q185 0 205 -136h217l-26 -151h-201l-14 -100q37 4 47 4h88q184 0 278 -81t94 -214q0 -195 -118.5 -284t-343.5 -89h-557l129 764h-134l27 151h131l21 119q74 17 157 17z" />
    <glyph glyph-name="uni048E" unicode="&#x48e;" horiz-adv-x="1169" 
d="M864 932q0 86 -44 129t-115 43h-23q-23 0 -35 -2l-69 -414h50q50 0 60 4l-47 123l133 57l39 -100q51 74 51 160zM671 1384q173 0 370.5 -56.5t197.5 -342.5q0 -385 -313 -502l55 -137l-133 -57l-64 157q-90 -12 -182 -12h-65l-74 -434h-387l231 1360q191 24 364 24z" />
    <glyph glyph-name="uni048F" unicode="&#x48f;" horiz-adv-x="1120" 
d="M754 530q0 112 -31 159.5t-75 47.5q-80 0 -95 -102l-64 -375q27 -14 51 -14h26q26 0 38 4l-57 149l133 58l41 -111q33 72 33 184zM582 909q104 119 240 119q147 0 231 -106.5t84 -284.5q0 -328 -106.5 -457t-180.5 -166l57 -147l-133 -57l-63 165l-41 -2q-136 0 -213 86
l-86 -505h-398l244 1437q76 17 158 17q182 0 207 -99z" />
    <glyph glyph-name="afii10050" unicode="&#x490;" horiz-adv-x="1067" 
d="M1036 1712q123 0 164 -47t41 -125q0 -19 -4 -39l-76 -461h-512l-174 -1040h-399l231 1374h541l51 322q70 16 137 16z" />
    <glyph glyph-name="afii10098" unicode="&#x491;" horiz-adv-x="954" 
d="M864 1296q117 0 157 -42t40 -128q0 -23 -4 -45l-66 -389h-428l-114 -692h-400l174 1001h447l45 269q86 26 149 26z" />
    <glyph glyph-name="uni0492" unicode="&#x492;" horiz-adv-x="1081" 
d="M1251 1374v-35q0 -137 -53 -218t-194 -81h-293l-52 -309h304l-35 -201h-303l-88 -530h-400l88 530h-143l35 201h143l109 643h882z" />
    <glyph glyph-name="uni0493" unicode="&#x493;" horiz-adv-x="1013" 
d="M928 758q0 -141 -174 -250l127 -29l-31 -123l-252 58q-49 -27 -79 -52.5t-30 -54.5q0 -47 87 -47t159 76q135 -53 135 -137q0 -124 -162 -191.5t-352.5 -30t-244.5 111t-54 153.5t44 144.5t155 123.5l-131 31l31 121l264 -62q57 29 83.5 52.5t26.5 56.5q0 45 -82 45
t-143 -76q-61 8 -107 40t-46 89q0 106 117.5 163.5t283.5 57.5q252 0 313.5 -100.5t61.5 -169.5z" />
    <glyph glyph-name="uni0494" unicode="&#x494;" horiz-adv-x="1251" 
d="M518 -141q169 0 237 136.5t68 346.5q0 117 -46 175t-126 58h-31q-30 0 -49 -4l-96 -571h-399l231 1374h883v-35q0 -136 -53.5 -217.5t-194.5 -81.5h-293l-31 -196q45 6 103 6q231 0 364.5 -135t133.5 -381q0 -376 -183.5 -568t-443.5 -192q-90 0 -133 42t-43 89
q0 89 43 160q24 -6 59 -6z" />
    <glyph glyph-name="uni0495" unicode="&#x495;" horiz-adv-x="1054" 
d="M1010 1001v-32q0 -132 -51 -201.5t-189 -69.5h-205l-26 -153q66 14 132 14t134.5 -27.5t144.5 -105t76 -250.5q0 -242 -133 -418t-379 -176q-110 0 -137 44t-27 91t33 119q16 -4 21 -4h34q109 0 168.5 90t59.5 246q0 80 -33 106.5t-69 26.5t-68 -8l-47 -293h-400
l174 1001h787z" />
    <glyph glyph-name="uni0496" unicode="&#x496;" horiz-adv-x="2207" 
d="M1227 1386q213 0 213 -172q0 -18 -4 -38l-199 -1176h-399l231 1370q70 16 158 16zM435 1386q101 0 161.5 -44t103.5 -121l95 -174q50 -103 72 -129.5t46 -47.5l-53 -338q-53 -35 -89 -89t-75 -109l-129 -184q-122 -175 -286 -175q-198 0 -285 62l356 473q70 92 125.5 144
t136.5 73q-99 43 -149 141l-72 127q-73 127 -194 127q4 125 69.5 194.5t166.5 69.5zM2068 1382q218 0 222 -184q0 -36 -23 -111q-119 0 -194 -98l-58 -76q-59 -78 -111.5 -118.5t-119.5 -65.5q54 -26 88.5 -69.5t81.5 -147.5l84 -201h153l-116 -694h-387l65 391
q-66 39 -102 131l-84 209q-35 90 -72 128t-96 56l53 338q89 23 132.5 74t72.5 92l106 154q74 106 148 149t157 43z" />
    <glyph glyph-name="uni0497" unicode="&#x497;" horiz-adv-x="1839" 
d="M991 1008q215 0 215 -166q0 -21 -4 -49l-131 -793h-395l164 993q70 15 151 15zM133 811q0 94 54.5 145.5t160.5 51.5t151.5 -61.5t65.5 -92.5l64 -94q25 -37 46 -60.5t48 -33.5l-47 -297q-43 -10 -69.5 -42t-61.5 -81l-96 -144q-86 -127 -256 -127q-128 0 -209 70
l247 328q41 59 87.5 101t123.5 54q-41 16 -67.5 45t-62.5 78t-66.5 73t-81.5 24l-23 -3q-8 46 -8 66zM1717 1008q93 0 133 -43t40 -106t-18 -114l-23 3q-47 0 -85 -26t-88 -70t-92 -75.5t-95 -52.5q115 -26 172 -170l22 -55h125l-108 -637h-363l64 375q-27 29 -37 61
l-59 154q-27 66 -51.5 85t-61.5 28l47 297q35 14 61.5 34.5t67.5 69.5l82 94q57 66 115.5 107t151.5 41z" />
    <glyph glyph-name="uni0498" unicode="&#x498;" horiz-adv-x="1142" 
d="M487 -485q-170 1 -170 89q0 46 39 99q41 -23 70 -22q61 0 61 51q0 24 -20.5 60t-20.5 61q0 67 43 110q-292 8 -360 96.5t-68 140.5q0 117 129 216q51 -59 125 -101.5t178 -42.5t149.5 29t65 59.5t19.5 75.5q0 115 -154 115h-194l45 291h192q110 0 139 49t29 92
t-39.5 71.5t-117.5 28.5q-172 0 -295 -129q-63 35 -95 85.5t-32 88.5q0 155 173 214t287 59q214 0 356 -90.5t142 -266.5q0 -233 -235 -327q130 -53 161 -146t31 -169t-64.5 -226.5t-379.5 -200.5q-31 -31 -31 -67.5t12.5 -55t39 -55.5t26.5 -85q0 -94 -69.5 -145.5
t-166.5 -51.5z" />
    <glyph glyph-name="uni0499" unicode="&#x499;" horiz-adv-x="989" 
d="M385 -485q-170 1 -170 89q0 46 39 99q41 -23 70 -22q61 0 61 51q0 25 -20.5 59t-20.5 62q0 69 49 118q-164 6 -256 60q-92 52 -92 148q0 97 109 163q94 -98 254 -98q63 0 108 17.5t45 70.5q0 29 -22.5 47t-59.5 18h-239l36 226h250q86 0 86 61q0 47 -46.5 63.5
t-100.5 16.5q-137 0 -234 -86q-31 18 -63.5 53t-32.5 81q0 156 162.5 187t240.5 31t151 -12t138.5 -44t110.5 -88.5t45 -142.5t-40 -137t-120 -94q121 -74 121 -224q0 -137 -100.5 -214t-268.5 -97q-33 -33 -33 -69t12.5 -55t39.5 -55.5t27 -84.5q0 -94 -69.5 -146
t-166.5 -52z" />
    <glyph glyph-name="uni049A" unicode="&#x49a;" horiz-adv-x="1425" 
d="M465 1386q213 0 213 -172q0 -18 -4 -38l-199 -1176h-399l231 1370q70 16 158 16zM1307 1382q217 0 221 -184q0 -36 -23 -111q-119 0 -194 -98l-58 -76q-59 -78 -111 -118.5t-120 -65.5q51 -25 87 -68.5t83 -148.5l84 -201h133l-117 -694h-387l68 403q-52 38 -84 119
l-84 209q-35 90 -72 128t-96 56l53 338q89 23 132.5 74t72.5 92l106 154q74 106 148 149t158 43z" />
    <glyph glyph-name="uni049B" unicode="&#x49b;" horiz-adv-x="1232" 
d="M365 1008q217 0 217 -166q0 -21 -4 -49l-132 -793h-397l164 993q71 15 152 15zM1101 1008q93 0 138 -43t45 -106t-18 -114l-23 3q-47 0 -85 -26t-88 -70t-92 -75.5t-95 -52.5q70 -16 108.5 -64t63.5 -106l22 -55h127l-108 -637h-361l60 358q-38 33 -58 78l-59 154
q-27 66 -51.5 85t-61.5 28l47 297q35 14 61.5 34.5t67.5 69.5l82 94q57 66 121 107t157 41z" />
    <glyph glyph-name="uni049C" unicode="&#x49c;" horiz-adv-x="1486" 
d="M465 1386q213 0 213 -172q0 -18 -4 -38l-199 -1176h-399l231 1370q70 16 158 16zM1194 -27q-173 0 -244 166l-84 209q-39 93 -73 127l-37 -219h-152l150 895h151l-37 -219q36 28 88 104l107 154q74 106 147.5 149t157.5 43q217 0 221 -184q0 -40 -22 -111
q-120 0 -195 -98l-57 -76q-59 -78 -111.5 -118.5t-120.5 -65.5q78 -38 113 -102t57 -115l201 -477q-63 -32 -138 -47t-122 -15z" />
    <glyph glyph-name="uni049D" unicode="&#x49d;" horiz-adv-x="1273" 
d="M365 1008q217 0 217 -166q0 -21 -4 -49l-132 -793h-397l164 993q71 15 152 15zM1142 1008q93 0 138 -43t45 -106t-18 -114l-23 3q-47 0 -85 -26t-88 -70t-92 -75.5t-95 -52.5q70 -16 108.5 -64t63.5 -106l133 -309q-108 -70 -236 -70q-156 0 -198 123l-56 154
q-16 41 -32 59l-27 -161h-141l125 743h141l-27 -154l103 121q55 68 111.5 108t149.5 40z" />
    <glyph glyph-name="uni049E" unicode="&#x49e;" horiz-adv-x="1452" 
d="M492 1386q213 0 213 -172v-4h153l-27 -151h-151l-178 -1059h-400l179 1059h-125l26 151h125l27 160q70 16 158 16zM1159 -27q-173 0 -244 166l-84 209q-35 90 -71.5 128t-95.5 56l53 338q89 23 132.5 74t72.5 92l106 154q74 106 147.5 149t157.5 43q217 0 221 -184
q0 -40 -22 -111q-120 0 -195 -98l-57 -76q-59 -78 -111.5 -118.5t-119.5 -65.5q77 -37 112 -101.5t58 -115.5l200 -477q-63 -32 -138 -47t-122 -15z" />
    <glyph glyph-name="uni049F" unicode="&#x49f;" horiz-adv-x="1300" 
d="M1168 1008q93 0 138.5 -43t45.5 -104t-19 -116l-22 3q-47 0 -85 -26t-88 -70t-92 -75.5t-96 -52.5q70 -16 109 -64t63 -106l133 -309q-108 -70 -235 -70q-78 0 -134.5 32t-80.5 91l-60 154q-27 66 -51 85t-61 28l47 297q35 14 68.5 34.5t74.5 69.5l82 94q57 66 113.5 107
t149.5 41zM432 1008q171 0 207 -103h131l-27 -151h-104l-125 -754h-397l123 754h-136l27 151h135l15 88q71 15 151 15z" />
    <glyph glyph-name="uni04A0" unicode="&#x4a0;" horiz-adv-x="1712" 
d="M1420 -27q-177 0 -244 166l-84 209q-35 90 -72 128t-96 56l53 338q89 23 132.5 74t72.5 92l106 154q74 106 147.5 149t157.5 43q216 0 222 -184q0 -36 -23 -111q-118 0 -195 -98l-57 -76q-59 -78 -111.5 -118.5t-119.5 -65.5q77 -37 112 -101.5t58 -115.5l200 -477
q-63 -32 -138 -47t-121 -15zM438 1374h555l-231 -1374h-400l177 1040h-375q5 169 41.5 226t89.5 82.5t143 25.5z" />
    <glyph glyph-name="uni04A1" unicode="&#x4a1;" horiz-adv-x="1447" 
d="M1316 1008q93 0 138 -43t45 -106t-18 -114l-23 3q-47 0 -85 -26t-88 -70t-92 -75.5t-95 -52.5q70 -16 108.5 -64t63.5 -106l133 -309q-108 -70 -236 -70q-163 0 -215 123l-59 154q-27 66 -51.5 85t-61.5 28l47 297q35 14 61.5 34.5t67.5 69.5l82 94q57 66 121 107t157 41
zM346 1001h477q0 -4 -3 -23.5t-9 -62.5t-18.5 -115.5t-30 -183t-43 -262t-57.5 -354.5h-398l115 696h-275q5 141 56.5 223t185.5 82z" />
    <glyph glyph-name="uni04A2" unicode="&#x4a2;" horiz-adv-x="1386" 
d="M1188 1386q213 0 213 -172q0 -18 -4 -38l-148 -865h129l-116 -694h-388l64 383h-139l90 535h-324l-90 -535h-399l231 1370q70 16 158 16q213 0 213 -172q0 -18 -4 -38l-56 -322h326l86 516q70 16 158 16z" />
    <glyph glyph-name="uni04A3" unicode="&#x4a3;" horiz-adv-x="1171" 
d="M590 858q0 -25 -4 -45l-29 -164h148l65 352q89 27 184 27q189 0 189 -170q0 -25 -4 -45l-86 -514h125l-109 -637h-360l57 338h-164l62 369h-154l-61 -369h-400l168 1001q89 27 184 27q189 0 189 -170z" />
    <glyph glyph-name="uni04A4" unicode="&#x4a4;" horiz-adv-x="1636" 
d="M465 1386q213 0 213 -172q0 -18 -4 -38l-56 -322h326l86 520h770v-35q0 -138 -53.5 -218.5t-194.5 -80.5h-178l-176 -1040h-399l90 535h-324l-90 -535h-399l231 1370q70 16 158 16z" />
    <glyph glyph-name="uni04A5" unicode="&#x4a5;" horiz-adv-x="1359" 
d="M590 858q0 -25 -4 -45l-29 -164h148l65 352h672v-32q0 -200 -84 -236.5t-158 -36.5h-82l-117 -696h-399l62 369h-154l-61 -369h-400l168 1001q89 27 184 27q189 0 189 -170z" />
    <glyph glyph-name="uni04A6" unicode="&#x4a6;" horiz-adv-x="1947" 
d="M1417 850q231 0 364.5 -135t133.5 -381q0 -376 -183.5 -568t-443.5 -192q-90 0 -133 42t-43 89q0 89 43 160q24 -6 59 -6q169 0 237.5 137.5t68.5 345.5q0 117 -46.5 175t-125.5 58h-31q-31 0 -49 -4l-97 -571h-399l176 1040h-297l-176 -1040h-399l231 1374h1096
l-90 -530q34 6 104 6z" />
    <glyph glyph-name="uni04A7" unicode="&#x4a7;" horiz-adv-x="1599" 
d="M700 659q0 25 -11 39.5t-51 14.5q-69 0 -85 -95l-104 -618h-400l168 991q74 17 162 17t139 -28t62 -75q37 43 105.5 83t156.5 40t177 -41.5t89 -230.5q0 -64 -16 -150q62 12 134 12t140 -34.5t136.5 -124.5t68.5 -275q0 -248 -124.5 -425t-379.5 -177q-110 0 -137 44
t-27 91t33 119q16 -4 20 -4h35q113 0 170.5 103.5t57.5 259.5q0 80 -28 122.5t-93 42.5q-25 0 -49 -6l-58 -354h-399l104 614q4 20 4 45z" />
    <glyph glyph-name="uni04A8" unicode="&#x4a8;" horiz-adv-x="1443" 
d="M1120 533q0 126 -65 126q-58 0 -85.5 -81.5t-27.5 -173.5t12 -142q66 32 116 110.5t50 160.5zM145 575q0 137 44 284t137.5 266.5t239 197.5t342.5 78t321 -96q88 -63 88 -158q0 -66 -38 -109t-136 -75q-57 157 -242 157t-288 -168.5t-103 -380.5q0 -138 61 -228
t138 -103q-35 82 -35 183q0 208 112 339t291 131q143 0 226 -83t83 -243q0 -208 -105 -316t-173 -147l32 -1q31 -1 52 -1q114 0 203 48q29 -57 28 -101q0 -176 -254 -176q-98 0 -177.5 24.5t-151.5 90.5q-61 -11 -107 -11q-284 0 -436 176.5t-152 421.5z" />
    <glyph glyph-name="uni04A9" unicode="&#x4a9;" horiz-adv-x="1099" 
d="M858 384q0 69 -41 69q-31 0 -58.5 -38t-27.5 -101t10 -103q49 12 83 58t34 115zM94 392q0 337 182.5 486.5t419.5 149.5q70 0 139.5 -18t107.5 -46q81 -61 81 -141.5t-104 -154.5q-61 94 -187 94q-303 0 -303 -361q0 -76 31 -132t78 -68q-15 52 -15 124q0 140 88 224
t214 84q125 0 181 -66.5t56 -164.5t-58.5 -186.5t-156.5 -137.5q24 -4 80 -4t137 28q14 -50 14 -88q0 -82 -47 -108.5t-153 -26.5q-173 0 -258 101q-227 -45 -377 89t-150 323z" />
    </font>
</defs>
</svg>
